<?xml version="1.0" encoding="UTF-8" standalone="no"?>
<!-- Created with Inkscape (http://www.inkscape.org/) -->

<svg
   xmlns:dc="http://purl.org/dc/elements/1.1/"
   xmlns:cc="http://creativecommons.org/ns#"
   xmlns:rdf="http://www.w3.org/1999/02/22-rdf-syntax-ns#"
   xmlns:svg="http://www.w3.org/2000/svg"
   xmlns="http://www.w3.org/2000/svg"
   xmlns:sodipodi="http://sodipodi.sourceforge.net/DTD/sodipodi-0.dtd"
   xmlns:inkscape="http://www.inkscape.org/namespaces/inkscape"
   width="120mm"
   height="60mm"
   viewBox="0 0 425.19685 212.59842"
   id="svg2"
   version="1.1"
   inkscape:version="0.91 r13725"
   sodipodi:docname="halant in hindi.svg">
  <defs
     id="defs4" />
  <sodipodi:namedview
     id="base"
     pagecolor="#ffffff"
     bordercolor="#666666"
     borderopacity="1.0"
     inkscape:pageopacity="0.0"
     inkscape:pageshadow="2"
     inkscape:zoom="0.98994949"
     inkscape:cx="65.9773"
     inkscape:cy="19.474954"
     inkscape:document-units="px"
     inkscape:current-layer="text3338"
     showgrid="false"
     inkscape:window-width="1920"
     inkscape:window-height="1027"
     inkscape:window-x="-8"
     inkscape:window-y="-8"
     inkscape:window-maximized="1" />
  <metadata
     id="metadata7">
    <rdf:RDF>
      <cc:Work
         rdf:about="">
        <dc:format>image/svg+xml</dc:format>
        <dc:type
           rdf:resource="http://purl.org/dc/dcmitype/StillImage" />
        <dc:title></dc:title>
      </cc:Work>
    </rdf:RDF>
  </metadata>
  <g
     inkscape:label="Layer 1"
     inkscape:groupmode="layer"
     id="layer1"
     transform="translate(0,-839.76378)">
    <g
       style="font-style:normal;font-weight:normal;font-size:180px;line-height:125%;font-family:sans-serif;letter-spacing:0px;word-spacing:0px;fill:#000000;fill-opacity:1;stroke:none;stroke-width:1px;stroke-linecap:butt;stroke-linejoin:miter;stroke-opacity:1"
       id="text3338">
      <path
         d="m 89.085844,982.30304 q 7.382813,-2.02148 11.074216,-5.53711 3.69141,-3.51562 3.69141,-8.70117 0,-14.32617 -22.236329,-14.32617 -12.304688,0 -18.984375,5.00976 -6.591797,4.92188 -6.591797,13.79883 0,4.21875 1.230469,7.82227 1.230469,3.60351 4.130859,7.4707 2.988281,3.86719 8.613281,9.22851 5.712891,5.36134 16.347657,13.88674 l -9.667969,9.4043 q -9.755859,-8.1738 -14.677734,-12.6563 -4.833985,-4.4824 -8.876954,-9.0527 -4.042968,-4.57032 -6.591796,-8.96485 -2.460938,-4.39453 -3.691407,-8.87695 -1.230468,-4.48242 -1.230468,-9.49219 0,-7.11914 3.076171,-12.65625 3.076172,-5.53711 8.173829,-9.3164 -9.140625,-7.5586 -9.140625,-17.92969 0,-5.53711 2.197265,-9.31641 2.197266,-3.86719 5.888672,-6.32812 3.779297,-2.46094 8.613281,-3.60352 4.833985,-1.14258 12.128907,-1.14258 l 23.730468,0 0,-15.38086 -65.039062,0 0,-12.83203 98.261717,0 0,12.83203 -18.7207,0 0,28.21289 -38.671877,0 q -5.625,0 -8.4375,0.70313 -2.724609,0.70312 -4.394531,2.72461 -1.669922,2.02148 -1.669922,5.09765 0,6.76758 8.34961,10.72266 7.734375,-2.28516 16.435547,-2.28516 11.074218,0 19.072263,3.42774 7.99805,3.33984 12.2168,9.49219 4.21875,6.06445 4.21875,13.53515 0,10.19532 -6.06445,17.05078 -6.06446,6.85547 -18.017582,10.10743 l -4.746094,-12.12891 z"
         style="font-style:normal;font-variant:normal;font-weight:normal;font-stretch:normal;font-size:180px;line-height:125%;font-family:'Noto Sans Devanagari';-inkscape-font-specification:'Noto Sans Devanagari, Normal';text-align:start;writing-mode:lr-tb;text-anchor:start"
         id="path3343"
         inkscape:connector-curvature="0" />
      <path
         d="m 216.87881,918.14288 0.79102,0 q 0.43945,0 0.79101,0.0879 l 0,-22.58789 -91.58203,0 0,-12.83203 124.7168,0 0,12.83203 -18.7207,0 0,99.14063 -14.41407,0 0,-63.89649 q -0.79101,-0.17578 -2.72461,-0.17578 -8.61328,0 -14.76562,6.67969 -6.15234,6.67969 -10.01953,19.86328 l -13.79883,-4.30664 q 2.19727,-8.4375 5.625,-14.50195 -5.27344,-3.95508 -9.58008,-5.53711 -4.30664,-1.58203 -8.70117,-1.58203 -6.94336,0 -10.98633,3.95508 -3.95508,3.95507 -3.95508,10.63476 0,2.46094 0.43946,4.83399 0.52734,2.37304 1.66992,4.92187 1.14258,2.46094 3.16406,5.53711 2.10938,2.98828 5.53711,6.67969 3.51563,3.6914 9.05274,8.61328 5.5371,4.83398 13.00781,11.07422 l -9.66797,9.40429 q -10.01953,-8.52539 -15.55664,-13.62304 -5.44922,-5.09766 -9.84375,-10.19532 -4.39453,-5.09765 -7.11914,-9.75585 -2.63672,-4.65821 -3.95508,-9.05274 -1.23047,-4.48242 -1.23047,-9.14062 0,-8.17383 3.7793,-14.23829 3.77929,-6.15234 10.45898,-9.49218 6.67969,-3.33985 14.32617,-3.33985 7.38282,0 13.97461,2.46094 6.67969,2.46094 13.09571,7.55859 10.54687,-10.01953 26.1914,-10.01953 z"
         style="font-style:normal;font-variant:normal;font-weight:normal;font-stretch:normal;font-size:180px;line-height:125%;font-family:'Noto Sans Devanagari';-inkscape-font-specification:'Noto Sans Devanagari, Normal';text-align:start;writing-mode:lr-tb;text-anchor:start"
         id="path3345"
         inkscape:connector-curvature="0" />
      <path
         d="m 250.871,895.64288 0,-12.83203 67.06055,0 0,12.83203 -67.06055,0 z m 36.82617,45.52735 0,9.66797 q 0,4.83398 -2.46094,7.4707 -2.37304,2.54883 -6.76757,2.54883 -4.21875,0 -9.22852,-3.69141 -5.00976,-3.7793 -8.34961,-9.31641 -3.33984,-5.5371 -3.33984,-10.2832 0,-9.22851 10.89844,-9.22851 l 51.67968,0 0,12.83203 -32.43164,0 z"
         style="font-style:normal;font-variant:normal;font-weight:normal;font-stretch:normal;font-size:180px;line-height:125%;font-family:'Noto Sans Devanagari';-inkscape-font-specification:'Noto Sans Devanagari, Normal';text-align:start;writing-mode:lr-tb;text-anchor:start"
         id="path3347"
         inkscape:connector-curvature="0" />
      <path
         d="m 370.4003,935.72101 -19.59961,0 q -11.33789,0 -17.05078,1.23047 -5.625,1.14258 -9.14063,4.74609 -3.51562,3.60352 -3.51562,10.37109 0,5.7129 2.72461,11.07422 2.8125,5.36133 8.34961,11.16211 5.5371,5.71289 14.9414,13.27149 l -9.66797,9.40429 q -12.56836,-10.81054 -18.45703,-17.57812 -5.80078,-6.85547 -9.14062,-13.79883 -3.25196,-6.94336 -3.25196,-14.41406 0,-5.88867 2.37305,-11.25 2.46094,-5.44922 7.64648,-9.49219 5.18555,-4.04297 12.48047,-5.80078 7.38282,-1.75781 18.36914,-1.75781 l 22.93946,0 0,-27.2461 -71.98242,0 0,-12.83203 105.20507,0 0,12.83203 -18.7207,0 0,99.14063 -14.50195,0 0,-59.0625 z"
         style="font-style:normal;font-variant:normal;font-weight:normal;font-stretch:normal;font-size:180px;line-height:125%;font-family:'Noto Sans Devanagari';-inkscape-font-specification:'Noto Sans Devanagari, Normal';text-align:start;writing-mode:lr-tb;text-anchor:start"
         id="path3349" />
    </g>
  </g>
</svg>
