<?xml version="1.0" encoding="UTF-8" standalone="no"?>
<!-- Created with Inkscape (http://www.inkscape.org/) -->

<svg
   xmlns:dc="http://purl.org/dc/elements/1.1/"
   xmlns:cc="http://creativecommons.org/ns#"
   xmlns:rdf="http://www.w3.org/1999/02/22-rdf-syntax-ns#"
   xmlns:svg="http://www.w3.org/2000/svg"
   xmlns="http://www.w3.org/2000/svg"
   xmlns:sodipodi="http://sodipodi.sourceforge.net/DTD/sodipodi-0.dtd"
   xmlns:inkscape="http://www.inkscape.org/namespaces/inkscape"
   width="90mm"
   height="60mm"
   viewBox="0 0 318.89764 212.59842"
   id="svg2"
   version="1.1"
   inkscape:version="0.91 r13725"
   sodipodi:docname="hindi in hindi.svg">
  <defs
     id="defs4" />
  <sodipodi:namedview
     id="base"
     pagecolor="#ffffff"
     bordercolor="#666666"
     borderopacity="1.0"
     inkscape:pageopacity="0.0"
     inkscape:pageshadow="2"
     inkscape:zoom="0.98994949"
     inkscape:cx="5.1839176"
     inkscape:cy="19.474954"
     inkscape:document-units="px"
     inkscape:current-layer="layer1"
     showgrid="false"
     inkscape:window-width="1920"
     inkscape:window-height="1027"
     inkscape:window-x="-8"
     inkscape:window-y="-8"
     inkscape:window-maximized="1" />
  <metadata
     id="metadata7">
    <rdf:RDF>
      <cc:Work
         rdf:about="">
        <dc:format>image/svg+xml</dc:format>
        <dc:type
           rdf:resource="http://purl.org/dc/dcmitype/StillImage" />
        <dc:title></dc:title>
      </cc:Work>
    </rdf:RDF>
  </metadata>
  <g
     inkscape:label="Layer 1"
     inkscape:groupmode="layer"
     id="layer1"
     transform="translate(0,-839.76378)">
    <g
       style="font-style:normal;font-weight:normal;font-size:180px;line-height:125%;font-family:sans-serif;letter-spacing:0px;word-spacing:0px;fill:#000000;fill-opacity:1;stroke:none;stroke-width:1px;stroke-linecap:butt;stroke-linejoin:miter;stroke-opacity:1"
       id="text3352">
      <path
         d="m 67.401497,914.83575 -18.720703,0 0,99.14065 -14.501953,0 0,-99.14065 -15.996094,0 0,-12.83203 14.414062,0 q -2.197265,-4.13086 -3.515625,-8.52539 -1.318359,-4.39453 -1.318359,-9.84375 0,-6.94336 2.724609,-12.65625 2.72461,-5.80078 7.646485,-9.84375 5.009765,-4.04297 12.041015,-6.24023 7.119141,-2.28516 15.820313,-2.28516 12.744141,0 23.90625,3.60352 11.250003,3.60351 21.093753,10.19531 9.84375,6.5918 18.28125,15.99609 8.4375,9.31641 15.55664,20.91797 l -15.0293,0 Q 102.11829,865.617 69.159309,865.617 q -6.240234,0 -11.25,1.40625 -5.009765,1.40625 -8.52539,3.95508 -3.515625,2.54883 -5.361328,6.24024 -1.845703,3.60351 -1.845703,8.17383 0,5.36132 1.669921,9.49218 1.757813,4.04297 3.779297,7.11914 l 19.775391,0 0,12.83203 z m 76.113283,-58.18359 q 2.63672,0 4.83398,1.40625 2.28516,1.31836 3.69141,3.7793 1.40625,2.46094 1.40625,5.27344 0,2.90039 -1.49414,5.36132 -1.40625,2.46094 -3.69141,3.7793 -2.19726,1.31836 -4.74609,1.31836 -2.63672,0 -4.92188,-1.31836 -2.19726,-1.40625 -3.60351,-3.7793 -1.40625,-2.46093 -1.40625,-5.36132 0,-2.8125 1.31836,-5.27344 1.40625,-2.46094 3.6914,-3.7793 2.28516,-1.40625 4.92188,-1.40625 z m -7.20703,37.44141 0,0 z"
         style="font-style:normal;font-variant:normal;font-weight:normal;font-stretch:normal;font-size:180px;line-height:125%;font-family:'Noto Sans Devanagari';-inkscape-font-specification:'Noto Sans Devanagari, Normal';text-align:start;writing-mode:lr-tb;text-anchor:start"
         id="path3357" />
      <path
         d="m 122.77259,1001.4959 q 7.38281,-2.02147 11.07422,-5.5371 3.69141,-3.51562 3.69141,-8.70117 0,-14.32617 -22.23633,-14.32617 -12.30469,0 -18.984377,5.00976 -6.591797,4.92188 -6.591797,13.79883 0,4.21875 1.230468,7.82227 1.230469,3.60348 4.13086,7.47068 2.988281,3.8672 8.613286,9.2285 5.71289,5.3614 16.34765,13.8868 l -9.66797,9.4043 q -9.75586,-8.1739 -14.677732,-12.6563 -4.833984,-4.4824 -8.876953,-9.0527 -4.042969,-4.5703 -6.591797,-8.9649 -2.460937,-4.3945 -3.691406,-8.8769 -1.230469,-4.48245 -1.230469,-9.49222 0,-7.11914 3.076172,-12.65625 3.076172,-5.53711 8.173828,-9.3164 -9.140625,-7.5586 -9.140625,-17.92969 0,-5.53711 2.197266,-9.31641 2.197265,-3.86718 5.888672,-6.32812 3.779297,-2.46094 8.613281,-3.60352 4.833984,-1.14258 12.128903,-1.14258 l 23.73047,0 0,-15.38086 -65.039061,0 0,-12.83203 98.261721,0 0,12.83203 -18.7207,0 0,28.2129 -38.67188,0 q -5.625,0 -8.4375,0.70312 -2.724609,0.70313 -4.394531,2.72461 -1.669922,2.02148 -1.669922,5.09766 0,6.76757 8.349609,10.72265 7.734374,-2.28515 16.435544,-2.28515 11.07422,0 19.07227,3.42773 7.99805,3.33984 12.2168,9.49219 4.21875,6.06445 4.21875,13.53515 0,10.19532 -6.06446,17.05079 -6.06445,6.8555 -18.01758,10.1074 l -4.74609,-12.1289 z"
         style="font-style:normal;font-variant:normal;font-weight:normal;font-stretch:normal;font-size:180px;line-height:125%;font-family:'Noto Sans Devanagari';-inkscape-font-specification:'Noto Sans Devanagari, Normal';text-align:start;writing-mode:lr-tb;text-anchor:start"
         id="path3359" />
      <path
         d="m 235.00892,1024.3475 q -3.7793,-6.0645 -7.38281,-12.5684 -3.51563,-6.5918 -5.44922,-10.8984 -5.00977,0.791 -9.93164,0.791 -8.08594,0 -15.20508,-1.84571 -7.03125,-1.8457 -12.30469,-5.09766 -5.27344,-3.25195 -8.70117,-7.55859 -3.42773,-4.30664 -5.27344,-9.75586 -1.8457,-5.53711 -1.8457,-12.39258 0,-5.00976 1.05469,-9.14062 1.14257,-4.21875 3.6914,-8.17383 2.63672,-4.04297 6.50391,-6.94336 3.86719,-2.98828 8.61328,-4.83399 4.83398,-1.93359 10.89844,-2.90039 6.06445,-1.05468 13.0957,-1.05468 l 0.87891,0 0,-17.13868 -53.08594,0 0,-12.83203 96.15234,0 0,12.83203 -28.56445,0 0,29.79493 -8.70117,0 q -13.88672,0 -21.18164,2.37304 -7.29492,2.37305 -11.16211,7.29493 -3.7793,4.92187 -3.7793,12.48046 0,6.50391 3.16406,11.51368 3.16407,4.92187 9.66797,7.73437 6.5918,2.8125 16.08399,2.8125 1.8457,0 4.48242,-0.26367 -0.61524,-1.58203 -0.87891,-3.33984 -0.17578,-1.75782 -0.17578,-2.98829 0,-5.53711 3.33985,-8.52539 3.42773,-2.98828 8.70117,-2.98828 5.00976,0 8.61328,2.10938 3.6914,2.10937 5.44922,5.36133 1.75781,3.16406 1.75781,6.67968 0,4.92188 -2.19727,8.26172 -2.10937,3.33985 -7.03125,5.27344 5.09766,9.84376 12.65625,19.95116 l -11.95312,5.9766 z m -21.35742,-122.34378 0,0 z m 18.28125,111.97268 0,0 z"
         style="font-style:normal;font-variant:normal;font-weight:normal;font-stretch:normal;font-size:180px;line-height:125%;font-family:'Noto Sans Devanagari';-inkscape-font-specification:'Noto Sans Devanagari, Normal';text-align:start;writing-mode:lr-tb;text-anchor:start"
         id="path3361" />
      <path
         d="m 303.29993,914.83575 -18.7207,0 0,99.14065 -14.50195,0 0,-99.14065 -15.9961,0 0,-12.83203 15.46875,0 q -3.42773,-9.40429 -6.94335,-16.25976 -3.51563,-6.94336 -7.47071,-11.42578 -3.95508,-4.48243 -8.4375,-6.67969 -4.57031,-2.19727 -10.10742,-2.19727 -8.4375,0 -12.83203,4.65821 -4.48242,4.6582 -4.48242,12.65625 0,5.97656 1.75781,10.89843 1.75781,4.83399 4.30664,9.66797 l -14.32617,0 q -3.07617,-5.80078 -4.57031,-11.33789 -1.58204,-5.625 -1.58204,-11.68945 0,-6.06445 2.10938,-11.16211 2.02148,-5.09766 5.97656,-8.78906 3.86719,-3.69141 9.58008,-5.71289 5.625,-2.02149 12.83203,-2.02149 8.78906,0 15.82031,2.98828 7.03125,2.90039 12.74414,8.96485 5.80079,6.06445 10.54688,15.38086 4.74609,9.3164 9.05273,22.06054 l 19.77539,0 0,12.83203 z"
         style="font-style:normal;font-variant:normal;font-weight:normal;font-stretch:normal;font-size:180px;line-height:125%;font-family:'Noto Sans Devanagari';-inkscape-font-specification:'Noto Sans Devanagari, Normal';text-align:start;writing-mode:lr-tb;text-anchor:start"
         id="path3363" />
    </g>
  </g>
</svg>
