<?xml version="1.0" encoding="UTF-8" standalone="no"?>
<!-- Created with Inkscape (http://www.inkscape.org/) -->

<svg
   xmlns:dc="http://purl.org/dc/elements/1.1/"
   xmlns:cc="http://creativecommons.org/ns#"
   xmlns:rdf="http://www.w3.org/1999/02/22-rdf-syntax-ns#"
   xmlns:svg="http://www.w3.org/2000/svg"
   xmlns="http://www.w3.org/2000/svg"
   xmlns:sodipodi="http://sodipodi.sourceforge.net/DTD/sodipodi-0.dtd"
   xmlns:inkscape="http://www.inkscape.org/namespaces/inkscape"
   width="120mm"
   height="70mm"
   viewBox="0 0 425.19685 248.03149"
   id="svg2"
   version="1.1"
   inkscape:version="0.91 r13725"
   sodipodi:docname="kannada in kannada.svg">
  <defs
     id="defs4" />
  <sodipodi:namedview
     id="base"
     pagecolor="#ffffff"
     bordercolor="#666666"
     borderopacity="1.0"
     inkscape:pageopacity="0.0"
     inkscape:pageshadow="2"
     inkscape:zoom="0.98994949"
     inkscape:cx="-6.7594227"
     inkscape:cy="19.474954"
     inkscape:document-units="px"
     inkscape:current-layer="layer1"
     showgrid="false"
     inkscape:window-width="1920"
     inkscape:window-height="1027"
     inkscape:window-x="-8"
     inkscape:window-y="-8"
     inkscape:window-maximized="1" />
  <metadata
     id="metadata7">
    <rdf:RDF>
      <cc:Work
         rdf:about="">
        <dc:format>image/svg+xml</dc:format>
        <dc:type
           rdf:resource="http://purl.org/dc/dcmitype/StillImage" />
        <dc:title></dc:title>
      </cc:Work>
    </rdf:RDF>
  </metadata>
  <g
     inkscape:label="Layer 1"
     inkscape:groupmode="layer"
     id="layer1"
     transform="translate(0,-804.33071)">
    <g
       style="font-style:normal;font-weight:normal;font-size:180px;line-height:125%;font-family:sans-serif;letter-spacing:0px;word-spacing:0px;fill:#000000;fill-opacity:1;stroke:none;stroke-width:1px;stroke-linecap:butt;stroke-linejoin:miter;stroke-opacity:1"
       id="text3339">
      <path
         d="m 69.03278,885.19806 q 2.90039,4.83398 2.90039,9.22851 0,4.92188 -2.285156,8.5254 l 36.474606,0 0,12.56835 -17.490231,-0.26367 q 6.416016,3.86719 9.84375,10.10742 3.515621,6.24024 3.515621,13.79883 0,15.73242 -10.986324,24.60938 -10.986328,8.87695 -30.9375,8.87695 -18.808594,0 -29.707031,-8.96484 -10.898438,-9.05274 -10.898438,-24.16992 0,-15.29297 12.832031,-24.16993 l -16.787109,0.17578 0,-12.56835 37.529297,0 q 4.658203,-3.42774 4.658203,-8.70118 0,-4.57031 -2.988281,-9.05273 l -39.199219,0 0,-13.97461 53.701172,0 q 9.316406,0 14.0625,-0.9668 4.746094,-0.96679 7.03125,-3.6914 2.373047,-2.8125 2.373047,-7.47071 0,-11.51367 -11.689453,-22.93945 l 11.689453,-7.82227 q 7.382812,8.26172 10.986332,15.73243 3.60351,7.4707 3.60351,16.25976 0,6.5918 -3.25195,12.30469 -3.16406,5.625 -10.195314,9.14062 -7.03125,3.42774 -21.357422,3.42774 l -3.427734,0 z m -8.34961,30.32226 q -12.919922,0 -19.863281,5.88868 -6.855469,5.88867 -6.855469,16.08398 0,9.93164 6.855469,15.55664 6.855469,5.53711 19.863281,5.53711 13.007813,0 19.863282,-5.53711 6.943359,-5.625 6.943359,-15.55664 0,-10.37109 -6.943359,-16.17187 -6.94336,-5.80079 -19.863282,-5.80079 z m -3.867187,-90.52734 0,0 z"
         style="font-style:normal;font-variant:normal;font-weight:normal;font-stretch:normal;font-size:180px;line-height:125%;font-family:'Noto Sans Kannada';-inkscape-font-specification:'Noto Sans Kannada, Normal';text-align:start;writing-mode:lr-tb;text-anchor:start"
         id="path3344" />
      <path
         d="m 141.54255,967.46368 -13.97461,5.53711 q -4.48243,-6.06445 -7.03125,-13.62304 -2.54883,-7.5586 -2.54883,-14.94141 0,-12.30469 7.73437,-20.56641 7.82227,-8.26171 19.24805,-8.26171 9.49219,0 16.08398,4.13085 6.67969,4.04297 14.23829,17.13868 5.5371,9.58007 8.70117,13.53515 3.25195,3.95508 7.29492,5.97657 4.04297,2.02148 9.66797,2.02148 8.34961,0 12.74414,-5.80078 4.48242,-5.88867 4.48242,-16.34766 0,-18.01758 -11.07422,-32.51953 -11.07422,-14.50195 -28.65234,-18.54492 l -60.11719,0 0,-13.97461 76.55273,0 q 9.4043,0 14.1504,-0.9668 4.74609,-1.05468 7.03125,-3.77929 2.28515,-2.8125 2.28515,-7.38282 0,-11.51367 -11.68945,-22.93945 l 11.68945,-7.82227 q 7.38281,8.26172 10.98633,15.73243 3.60352,7.4707 3.60352,16.25976 0,9.84375 -6.5918,16.69922 -6.5918,6.76758 -20.47852,7.91016 13.09571,9.05273 20.03907,21.88476 7.03125,12.83203 7.03125,28.125 0,17.75391 -8.87696,27.77344 -8.87695,9.93164 -24.60937,9.93164 -7.82227,0 -13.79883,-2.63672 -5.88867,-2.72461 -10.37109,-7.64648 -4.48243,-5.00977 -9.93165,-14.32617 -4.57031,-7.73438 -7.64648,-11.60157 -2.98828,-3.86718 -5.88867,-5.44922 -2.8125,-1.58203 -6.67969,-1.58203 -5.88867,0 -9.31641,3.86719 -3.33984,3.86719 -3.33984,10.63477 0,10.98632 9.05274,23.55468 z m 27.94921,-142.4707 0,0 z m -9.22851,145.54688 0,0 z"
         style="font-style:normal;font-variant:normal;font-weight:normal;font-stretch:normal;font-size:180px;line-height:125%;font-family:'Noto Sans Kannada';-inkscape-font-specification:'Noto Sans Kannada, Normal';text-align:start;writing-mode:lr-tb;text-anchor:start"
         id="path3346" />
      <path
         d="m 240.50739,1005.784 q 3.60351,-4.043 5.36133,-8.96485 1.8457,-4.92187 1.8457,-10.72265 0,-12.65625 -5.27344,-22.06055 l 11.77735,-5.97656 q 3.33984,4.74609 5.27343,11.86523 2.02149,7.03125 2.02149,14.23828 0,10.10742 -3.69141,18.1934 -3.6914,8.0859 -11.07422,14.1504 2.63672,4.1308 5.71289,5.8886 3.16407,1.8457 8.26172,1.8457 1.31836,0 3.60352,-0.3515 2.28515,-0.3516 2.90039,-0.7911 l 2.28516,12.129 q -1.40625,0.7031 -4.21875,1.1425 -2.8125,0.4395 -4.57032,0.4395 -8.4375,0 -13.97461,-3.252 -5.53711,-3.2519 -10.19531,-10.8984 -11.07422,5.0098 -24.16992,5.0098 -13.71094,0 -21.26953,-6.5039 -7.5586,-6.504 -7.5586,-17.1387 0,-9.75588 6.85547,-15.73244 6.76758,-5.88867 17.57813,-5.88867 10.45898,0 17.40234,4.83398 6.94336,4.83399 15.11719,18.54493 z m -9.58008,6.8555 q -5.80078,-10.1953 -10.89844,-14.4141 -5.18554,-4.13086 -11.33789,-4.13086 -5.27343,0 -8.34961,2.72461 -3.16406,2.8125 -3.16406,7.20705 0,5.7129 4.13086,8.789 4.04297,3.1641 12.12891,3.1641 9.75586,0 17.49023,-3.3398 z m -2.02148,-32.168 0,0 z m 0.0879,-9.93164 0,0 z m 7.64648,-0.87891 0,0 z"
         style="font-style:normal;font-variant:normal;font-weight:normal;font-stretch:normal;font-size:180px;line-height:125%;font-family:'Noto Sans Kannada';-inkscape-font-specification:'Noto Sans Kannada, Normal';text-align:start;writing-mode:lr-tb;text-anchor:start"
         id="path3348" />
      <path
         d="m 321.27887,937.49298 13.79883,0 q 1.49414,10.01953 7.29492,15.46875 5.80078,5.44922 14.58985,5.44922 9.22851,0 14.67773,-5.44922 5.44922,-5.44922 5.44922,-15.64453 0,-4.6582 -1.05469,-9.58008 -7.4707,7.82227 -19.07226,7.82227 -9.84375,0 -15.90821,-5.00977 -5.97656,-5.09765 -5.97656,-14.15039 0,-8.52539 5.71289,-13.35937 5.71289,-4.92188 14.76563,-4.92188 7.64648,0 13.71093,2.98828 -3.86718,-7.38281 -13.44726,-11.60156 -9.58008,-4.30664 -22.5,-4.30664 l -6.24024,0 q -21.18164,0 -33.31054,12.65625 -12.12891,12.56836 -12.12891,33.31055 0,13.79882 4.48242,20.5664 4.48243,6.67969 14.0625,6.67969 8.26172,0 13.71094,-5.44922 5.53711,-5.44922 7.38281,-15.46875 z m 49.13086,-21.88476 q -5.36133,-6.50391 -13.18359,-6.50391 -3.86719,0 -6.32813,1.93359 -2.37304,1.9336 -2.37304,5.27344 0,7.91016 9.40429,7.91016 4.21875,0 7.64649,-2.19727 3.51562,-2.28516 4.83398,-6.41601 z m 13.44727,-5.80079 q 0,1.84571 -0.0879,3.51563 3.42773,5.18555 5.09765,11.25 1.75782,6.06445 1.75782,12.91992 0,15.55664 -9.05274,25.40039 -9.05273,9.75586 -23.11523,9.75586 -10.89844,0 -17.8418,-3.69141 -6.85547,-3.6914 -12.48047,-12.48046 -4.30664,7.55859 -11.25,11.86523 -6.94336,4.30664 -18.54492,4.30664 -14.76562,0 -23.11523,-10.81055 -8.34961,-10.89843 -8.34961,-30.76171 0,-15.46875 6.24023,-27.42188 6.24024,-12.04102 17.8418,-18.45703 l -24.08203,0 0,-13.97461 85.69336,0 q 8.87695,0 13.62304,-0.87891 4.83399,-0.8789 7.29492,-3.60351 2.54883,-2.72461 2.54883,-7.64649 0,-11.51367 -11.68945,-22.93945 l 11.68945,-7.82227 q 7.38282,8.26172 10.98633,15.73243 3.60352,7.4707 3.60352,16.25976 0,8.96485 -5.44922,15.46875 -5.44922,6.41602 -16.34766,8.4375 7.20703,3.86719 11.07422,10.45899 3.95508,6.59179 3.95508,15.11718 z m -63.7207,-84.81445 0,0 z"
         style="font-style:normal;font-variant:normal;font-weight:normal;font-stretch:normal;font-size:180px;line-height:125%;font-family:'Noto Sans Kannada';-inkscape-font-specification:'Noto Sans Kannada, Normal';text-align:start;writing-mode:lr-tb;text-anchor:start"
         id="path3350" />
    </g>
  </g>
</svg>
