<?xml version="1.0" encoding="UTF-8" standalone="no"?>
<!-- Created with Inkscape (http://www.inkscape.org/) -->

<svg
   xmlns:dc="http://purl.org/dc/elements/1.1/"
   xmlns:cc="http://creativecommons.org/ns#"
   xmlns:rdf="http://www.w3.org/1999/02/22-rdf-syntax-ns#"
   xmlns:svg="http://www.w3.org/2000/svg"
   xmlns="http://www.w3.org/2000/svg"
   xmlns:sodipodi="http://sodipodi.sourceforge.net/DTD/sodipodi-0.dtd"
   xmlns:inkscape="http://www.inkscape.org/namespaces/inkscape"
   width="90mm"
   height="60mm"
   viewBox="0 0 318.89764 212.59842"
   id="svg2"
   version="1.1"
   inkscape:version="0.91 r13725"
   sodipodi:docname="matra in hindi.svg">
  <defs
     id="defs4" />
  <sodipodi:namedview
     id="base"
     pagecolor="#ffffff"
     bordercolor="#666666"
     borderopacity="1.0"
     inkscape:pageopacity="0.0"
     inkscape:pageshadow="2"
     inkscape:zoom="0.98994949"
     inkscape:cx="-227.65624"
     inkscape:cy="19.474954"
     inkscape:document-units="px"
     inkscape:current-layer="text3338"
     showgrid="false"
     inkscape:window-width="1920"
     inkscape:window-height="1027"
     inkscape:window-x="-8"
     inkscape:window-y="-8"
     inkscape:window-maximized="1" />
  <metadata
     id="metadata7">
    <rdf:RDF>
      <cc:Work
         rdf:about="">
        <dc:format>image/svg+xml</dc:format>
        <dc:type
           rdf:resource="http://purl.org/dc/dcmitype/StillImage" />
        <dc:title />
      </cc:Work>
    </rdf:RDF>
  </metadata>
  <g
     inkscape:label="Layer 1"
     inkscape:groupmode="layer"
     id="layer1"
     transform="translate(0,-839.76378)">
    <g
       style="font-style:normal;font-weight:normal;font-size:180px;line-height:125%;font-family:sans-serif;letter-spacing:0px;word-spacing:0px;fill:#000000;fill-opacity:1;stroke:none;stroke-width:1px;stroke-linecap:butt;stroke-linejoin:miter;stroke-opacity:1"
       id="text3338">
      <path
         d="m 119.30622,905.74445 -18.72071,0 0,99.14065 -14.50195,0 0,-44.91214 -39.726563,0 0,6.50391 q 0,5.27344 -2.373046,8.26172 -2.373047,2.98828 -6.328125,2.98828 -4.21875,0 -9.316407,-3.60352 -5.097656,-3.6914 -8.701172,-9.22851 -3.515625,-5.625 -3.515625,-10.01953 0,-3.7793 2.8125,-5.7129 2.8125,-2.02148 8.173829,-2.02148 l 4.833984,0 0,-41.39648 -22.8515625,0 0,-12.83204 110.2148475,0 0,12.83204 z m -33.22266,41.39648 0,-41.39648 -39.726563,0 0,41.39648 39.726563,0 z"
         style="font-style:normal;font-variant:normal;font-weight:normal;font-stretch:normal;font-size:180px;line-height:125%;font-family:'Noto Sans Devanagari';-inkscape-font-specification:'Noto Sans Devanagari, Normal';text-align:start;writing-mode:lr-tb;text-anchor:start"
         id="path3343" />
      <path
         d="m 165.88825,905.74445 -18.72071,0 0,99.14065 -14.50195,0 0,-99.14065 -15.99609,0 0,-12.83204 49.21875,0 0,12.83204 z"
         style="font-style:normal;font-variant:normal;font-weight:normal;font-stretch:normal;font-size:180px;line-height:125%;font-family:'Noto Sans Devanagari';-inkscape-font-specification:'Noto Sans Devanagari, Normal';text-align:start;writing-mode:lr-tb;text-anchor:start"
         id="path3345" />
      <path
         d="m 168.26129,929.91437 q 7.64649,-3.69141 14.23829,-5.36133 6.59179,-1.66992 13.18359,-1.66992 7.11914,0 12.74414,2.28515 5.625,2.19727 11.16211,7.11914 5.53711,4.83399 12.56836,13.88672 l 0,-40.42968 -68.73047,0 0,-12.83204 101.95312,0 0,12.83204 -18.7207,0 0,99.14065 -14.50195,0 0,-42.09964 -45.79102,30.41016 -8.61328,-12.12891 44.29688,-26.80664 q -5.88868,-7.4707 -9.66797,-10.89844 -3.69141,-3.51562 -7.5586,-5.18554 -3.86718,-1.75782 -8.78906,-1.75782 -5.44922,0 -10.72265,1.66993 -5.18555,1.58203 -12.04102,5.00976 l -5.00977,-13.18359 z"
         style="font-style:normal;font-variant:normal;font-weight:normal;font-stretch:normal;font-size:180px;line-height:125%;font-family:'Noto Sans Devanagari';-inkscape-font-specification:'Noto Sans Devanagari, Normal';text-align:start;writing-mode:lr-tb;text-anchor:start"
         id="path3347" />
      <path
         d="m 312.13825,905.74445 -18.72071,0 0,99.14065 -14.50195,0 0,-99.14065 -15.99609,0 0,-12.83204 49.21875,0 0,12.83204 z"
         style="font-style:normal;font-variant:normal;font-weight:normal;font-stretch:normal;font-size:180px;line-height:125%;font-family:'Noto Sans Devanagari';-inkscape-font-specification:'Noto Sans Devanagari, Normal';text-align:start;writing-mode:lr-tb;text-anchor:start"
         id="path3349" />
    </g>
  </g>
</svg>
