<?xml version="1.0" encoding="UTF-8" standalone="no"?>
<!-- Created with Inkscape (http://www.inkscape.org/) -->

<svg
   xmlns:dc="http://purl.org/dc/elements/1.1/"
   xmlns:cc="http://creativecommons.org/ns#"
   xmlns:rdf="http://www.w3.org/1999/02/22-rdf-syntax-ns#"
   xmlns:svg="http://www.w3.org/2000/svg"
   xmlns="http://www.w3.org/2000/svg"
   xmlns:sodipodi="http://sodipodi.sourceforge.net/DTD/sodipodi-0.dtd"
   xmlns:inkscape="http://www.inkscape.org/namespaces/inkscape"
   width="150mm"
   height="70mm"
   viewBox="0 0 531.49606 248.03149"
   id="svg2"
   version="1.1"
   inkscape:version="0.91 r13725"
   sodipodi:docname="tamil in tamil.svg">
  <defs
     id="defs4" />
  <sodipodi:namedview
     id="base"
     pagecolor="#ffffff"
     bordercolor="#666666"
     borderopacity="1.0"
     inkscape:pageopacity="0.0"
     inkscape:pageshadow="2"
     inkscape:zoom="0.98994949"
     inkscape:cx="-6.7594227"
     inkscape:cy="19.474954"
     inkscape:document-units="px"
     inkscape:current-layer="layer1"
     showgrid="false"
     inkscape:window-width="1920"
     inkscape:window-height="1027"
     inkscape:window-x="-8"
     inkscape:window-y="-8"
     inkscape:window-maximized="1" />
  <metadata
     id="metadata7">
    <rdf:RDF>
      <cc:Work
         rdf:about="">
        <dc:format>image/svg+xml</dc:format>
        <dc:type
           rdf:resource="http://purl.org/dc/dcmitype/StillImage" />
        <dc:title></dc:title>
      </cc:Work>
    </rdf:RDF>
  </metadata>
  <g
     inkscape:label="Layer 1"
     inkscape:groupmode="layer"
     id="layer1"
     transform="translate(0,-804.33071)">
    <g
       style="font-style:normal;font-weight:normal;font-size:180px;line-height:125%;font-family:sans-serif;letter-spacing:0px;word-spacing:0px;fill:#000000;fill-opacity:1;stroke:none;stroke-width:1px;stroke-linecap:butt;stroke-linejoin:miter;stroke-opacity:1"
       id="text3339">
      <path
         d="m 43.892523,874.91254 94.130857,0 0,13.00781 -33.66211,0 0,27.68555 q 25.57617,0.70312 38.05664,11.16211 12.48047,10.37109 12.48047,30.49804 0,10.45899 -3.86719,18.63281 -3.86718,8.17383 -12.39257,14.67774 -8.52539,6.5918 -20.6543,9.31641 -12.04102,2.81249 -33.75,2.81249 l -20.126953,0 q -7.03125,0 -11.16211,0.8789 -4.130859,0.8789 -7.382812,2.9883 -3.164063,2.1973 -4.746094,5.8008 -1.582031,3.6914 -1.582031,9.4922 0,6.1523 0.615234,9.8437 l -15.029297,0.7031 q -1.142578,-8.2617 -1.142578,-14.0625 0,-9.0527 3.867188,-15.4687 3.955078,-6.32814 11.33789,-9.75587 7.382813,-3.42774 20.302735,-3.42774 l 19.511718,0 q 24.3457,0 36.29883,-3.16406 11.95312,-3.16406 18.10547,-10.81055 6.24023,-7.64648 6.24023,-20.03906 0,-12.83203 -8.52539,-19.6875 -8.4375,-6.94336 -26.45508,-7.73437 l 0,5.71289 q 0,18.19336 -5.361325,26.80664 -5.273438,8.52539 -14.326172,12.21679 -8.964844,3.60352 -22.5,3.60352 -16.78711,0 -27.509766,-8.08594 -10.722656,-8.17383 -10.722656,-21.88476 0,-9.58008 4.921875,-16.17188 5.009766,-6.67969 15.029297,-10.45898 l 0,-45.08789 z m 30.9375,40.60547 14.238281,0 0,-27.59766 -31.025391,0 0,28.65234 q 7.382813,-1.05468 16.78711,-1.05468 z m 14.238281,12.56835 -15.46875,0 q -18.017578,0 -26.103516,4.39454 -7.998046,4.30664 -7.998046,14.50195 0,7.82226 6.416015,12.2168 6.416016,4.39453 17.578125,4.39453 13.886719,0 19.6875,-6.67969 5.888672,-6.67969 5.888672,-20.6543 l 0,-8.17383 z"
         style="font-style:normal;font-variant:normal;font-weight:normal;font-stretch:normal;font-size:180px;line-height:125%;font-family:'Noto Sans Tamil';-inkscape-font-specification:'Noto Sans Tamil, Normal';text-align:start;writing-mode:lr-tb;text-anchor:start"
         id="path3344" />
      <path
         d="m 179.33198,974.58051 0,-99.66797 15.55664,0 0,86.66015 40.60547,0 0,-50.88867 q 0,-14.50195 3.51562,-22.32422 3.51563,-7.91015 10.72266,-11.86523 7.20703,-4.04297 18.10547,-4.04297 18.89648,0 29.0039,14.41406 10.19531,14.32617 10.19531,40.51758 0,11.68945 -2.46093,20.56641 -2.46094,8.87695 -8.08594,15.02929 -5.625,6.06446 -14.32617,8.87696 -8.61328,2.72461 -26.45508,2.72461 l -76.37695,0 z m 71.71875,-13.00782 8.4375,0 q 11.68945,0 18.45703,-3.07617 6.85547,-3.07617 10.01953,-10.37109 3.25195,-7.29492 3.25195,-21.53321 0,-19.33593 -6.15234,-30.23437 -6.15235,-10.89844 -17.49024,-10.89844 -6.24023,0 -10.2832,3.69141 -3.95508,3.6914 -5.09766,9.3164 -1.14257,5.625 -1.14257,15.90821 l 0,47.19726 z"
         style="font-style:normal;font-variant:normal;font-weight:normal;font-stretch:normal;font-size:180px;line-height:125%;font-family:'Noto Sans Tamil';-inkscape-font-specification:'Noto Sans Tamil, Normal';text-align:start;writing-mode:lr-tb;text-anchor:start"
         id="path3346" />
      <path
         d="m 269.41987,881.94379 q -2.46094,-4.65821 -3.7793,-10.54688 -1.40625,-5.88867 -1.40625,-11.33789 0,-17.49023 11.07422,-27.33398 11.07422,-9.84375 29.0039,-9.84375 14.67774,0 25.4004,7.20703 10.72265,7.11914 15.46875,19.51172 4.74609,12.30468 4.74609,34.6289 l 0,90.35157 -15.55664,0 0,-84.81446 q 0,-20.83008 -2.98828,-31.46484 -2.98828,-10.63477 -10.01953,-16.25977 -6.94336,-5.625 -17.40235,-5.625 -11.33789,0 -17.7539,6.41602 -6.41602,6.32812 -6.41602,17.13867 0,12.04102 6.15234,21.97266 l -16.52343,0 z m 21.00586,-7.03125 0,0 z"
         style="font-style:normal;font-variant:normal;font-weight:normal;font-stretch:normal;font-size:180px;line-height:125%;font-family:'Noto Sans Tamil';-inkscape-font-specification:'Noto Sans Tamil, Normal';text-align:start;writing-mode:lr-tb;text-anchor:start"
         id="path3348" />
      <path
         d="m 466.47065,1004.4633 q -0.43946,0.5274 -1.49414,2.9004 -4.30664,8.2617 -9.58008,13.4473 -5.27344,5.2734 -13.97461,8.4375 -8.70117,3.164 -22.85156,3.164 l -4.48242,0 q -10.28321,0 -19.42383,-2.9004 -9.14063,-2.8125 -13.44727,-8.5253 -4.21875,-5.625 -4.21875,-12.92 0,-10.19528 7.64649,-16.43551 7.73437,-6.15235 20.5664,-6.15235 6.5918,0 12.56836,0.9668 l -1.31836,12.04102 q -4.48242,-0.61524 -8.87695,-0.61524 -7.38281,0 -11.25,2.46098 -3.86719,2.5488 -3.86719,7.4707 0,5.9765 5.80078,8.9648 5.88867,3.0762 17.05078,3.0762 l 4.48243,0 q 12.04101,0 19.6875,-4.043 7.64648,-4.043 12.48046,-13.7988 l 1.05469,-2.0215 q -14.76562,-6.5918 -15.38086,-25.40039 l -56.16211,0 0,-99.66797 15.55664,0 0,86.66015 40.60547,0 0,-50.88867 q 0,-14.50195 3.51563,-22.32422 3.51562,-7.91015 10.72265,-11.86523 7.20704,-4.04297 18.10547,-4.04297 18.89649,0 29.00391,14.41406 10.19531,14.32617 10.19531,40.51758 0,11.95312 -2.54883,20.91797 -2.46093,8.96484 -8.17382,14.9414 -5.625,5.97657 -14.50196,8.70118 -8.78906,2.63672 -23.64258,2.63672 l -7.29492,0 q 0.0879,6.59179 2.54883,10.2832 2.54883,3.6914 7.29492,5.09765 4.83399,1.49415 12.83203,1.49415 l 23.02735,0 0,13.00779 -32.25586,0 z m -13.27149,-42.89061 8.4375,0 q 11.68946,0 18.45703,-3.07617 6.85547,-3.07617 10.01954,-10.37109 3.25195,-7.29492 3.25195,-21.53321 0,-19.33593 -6.15234,-30.23437 -6.15235,-10.89844 -17.49024,-10.89844 -6.24023,0 -10.2832,3.69141 -3.95508,3.6914 -5.09766,9.3164 -1.14258,5.625 -1.14258,15.90821 l 0,47.19726 z m 2.02149,-121.02539 q 0,5.27344 -3.51563,8.70117 -3.42773,3.42774 -8.61328,3.42774 -5.18555,0 -8.61328,-3.33985 -3.42773,-3.42773 -3.42773,-8.78906 0,-5.18554 3.33984,-8.61328 3.42773,-3.42773 8.70117,-3.42773 5.27344,0 8.70117,3.42773 3.42774,3.42774 3.42774,8.61328 z m -11.77735,-17.66601 0,0 z m -0.35156,52.03125 0,0 z"
         style="font-style:normal;font-variant:normal;font-weight:normal;font-stretch:normal;font-size:180px;line-height:125%;font-family:'Noto Sans Tamil';-inkscape-font-specification:'Noto Sans Tamil, Normal';text-align:start;writing-mode:lr-tb;text-anchor:start"
         id="path3350" />
    </g>
  </g>
</svg>
