<?xml version="1.0" encoding="UTF-8" standalone="no"?>
<!-- Created with Inkscape (http://www.inkscape.org/) -->

<svg
   xmlns:dc="http://purl.org/dc/elements/1.1/"
   xmlns:cc="http://creativecommons.org/ns#"
   xmlns:rdf="http://www.w3.org/1999/02/22-rdf-syntax-ns#"
   xmlns:svg="http://www.w3.org/2000/svg"
   xmlns="http://www.w3.org/2000/svg"
   xmlns:sodipodi="http://sodipodi.sourceforge.net/DTD/sodipodi-0.dtd"
   xmlns:inkscape="http://www.inkscape.org/namespaces/inkscape"
   width="150mm"
   height="60mm"
   viewBox="0 0 531.49606 212.59842"
   id="svg2"
   version="1.1"
   inkscape:version="0.91 r13725"
   sodipodi:docname="telugu in telugu.svg">
  <defs
     id="defs4" />
  <sodipodi:namedview
     id="base"
     pagecolor="#ffffff"
     bordercolor="#666666"
     borderopacity="1.0"
     inkscape:pageopacity="0.0"
     inkscape:pageshadow="2"
     inkscape:zoom="0.98994949"
     inkscape:cx="33.724052"
     inkscape:cy="19.474954"
     inkscape:document-units="px"
     inkscape:current-layer="layer1"
     showgrid="false"
     inkscape:window-width="1920"
     inkscape:window-height="1027"
     inkscape:window-x="-8"
     inkscape:window-y="-8"
     inkscape:window-maximized="1" />
  <metadata
     id="metadata7">
    <rdf:RDF>
      <cc:Work
         rdf:about="">
        <dc:format>image/svg+xml</dc:format>
        <dc:type
           rdf:resource="http://purl.org/dc/dcmitype/StillImage" />
        <dc:title></dc:title>
      </cc:Work>
    </rdf:RDF>
  </metadata>
  <g
     inkscape:label="Layer 1"
     inkscape:groupmode="layer"
     id="layer1"
     transform="translate(0,-839.76378)">
    <g
       style="font-style:normal;font-weight:normal;font-size:180px;line-height:125%;font-family:sans-serif;letter-spacing:0px;word-spacing:0px;fill:#000000;fill-opacity:1;stroke:none;stroke-width:1px;stroke-linecap:butt;stroke-linejoin:miter;stroke-opacity:1"
       id="text3338">
      <path
         d="m 40.769457,985.80334 q 3.779297,11.3379 16.523437,17.40236 12.832032,5.9766 32.871094,5.9766 21.884762,0 34.628902,-7.0313 12.74414,-7.11914 15.64454,-20.6543 -7.82227,7.29493 -18.98438,7.29493 -10.63477,0 -17.22656,-5.97657 -6.503908,-6.06445 -6.503908,-16.08398 0,-7.55859 4.833988,-13.27149 4.83398,-5.80078 13.00781,-7.38281 -7.03125,-1.8457 -18.193361,-1.8457 l 4.042971,-13.18359 q 26.1914,3.6914 39.28711,15.29296 13.18359,11.51368 13.18359,30.9375 0,21.35743 -16.25976,33.75005 -16.17188,12.3046 -46.494145,12.3046 -30.761719,0 -47.636719,-12.1289 -16.875,-12.21676 -16.875,-32.87106 0,-15.73242 9.228516,-25.75195 9.228515,-10.10742 23.642578,-10.10742 11.162109,0 17.578125,6.06445 6.503906,6.06445 6.503906,16.08398 0,11.16211 -7.646484,17.66602 -7.558594,6.50391 -20.830078,6.50391 -8.261719,0 -14.326172,-2.98829 z m -0.878906,-13.18359 q 5.800781,3.60352 13.007812,3.60352 16.347656,0 16.347656,-11.51368 0,-4.6582 -2.8125,-7.03125 -2.8125,-2.46093 -7.822265,-2.46093 -7.207032,0 -12.216797,4.57031 -4.921875,4.57031 -6.503906,12.83203 z m 99.755859,-7.38281 q -2.46094,-4.7461 -6.5918,-7.38281 -4.13086,-2.63672 -9.14062,-2.63672 -5.27344,0 -8.61328,2.8125 -3.33985,2.72461 -3.33985,7.73437 0,4.83399 3.07617,7.64649 3.16407,2.8125 8.78907,2.8125 5.71289,0 9.93164,-2.90039 4.21875,-2.90039 5.88867,-8.08594 z m -49.394531,60.20506 0,0 z m 70.048831,0 0,0 z m -69.960941,-80.77147 0,0 z m -48.427734,-32.95898 0,-13.53516 69.960935,0 q 10.63477,0 16.17188,1.40625 5.625,1.40625 9.40429,4.48242 3.7793,3.07618 5.625,7.29493 1.9336,4.13085 1.9336,10.19531 0,5.27344 -2.10938,10.10742 -2.10937,4.74609 -6.24023,7.64648 -4.13086,2.90039 -9.75586,4.13086 -5.53711,1.23047 -15.0293,1.23047 l -18.105466,0 0,-13.53515 20.214846,0 q 6.94336,0 10.01953,-0.9668 3.16406,-1.05469 4.6582,-3.16406 1.58203,-2.19727 1.58203,-5.36133 0,-3.69141 -1.8457,-6.06445 -1.75781,-2.37305 -4.83398,-3.07618 -2.98829,-0.79101 -8.96485,-0.79101 l -72.685545,0 z"
         style="font-style:normal;font-variant:normal;font-weight:normal;font-stretch:normal;font-size:180px;line-height:125%;font-family:'Noto Sans Telugu';-inkscape-font-specification:'Noto Sans Telugu, Normal';text-align:start;writing-mode:lr-tb;text-anchor:start"
         id="path3343" />
      <path
         d="m 180.955,974.64124 q 0.79102,15.99609 12.2168,25.3125 11.51367,9.22856 30.84961,9.22856 20.12695,0 31.37695,-8.4375 11.33789,-8.52544 11.33789,-23.81841 0,-10.81055 -6.15234,-18.98437 -6.06445,-8.17383 -17.92969,-13.00782 l 7.20703,-13.79882 q 15.64453,6.85546 23.73047,18.54492 8.17383,11.60156 8.17383,26.36719 0,22.14843 -14.85352,34.71681 -14.85351,12.5683 -42.36328,12.5683 -26.98242,0 -42.36328,-13.7109 -15.38086,-13.79882 -15.38086,-36.91406 0,-19.07226 9.49219,-30.32226 9.58008,-11.25 24.60938,-11.25 10.81054,0 17.31445,6.24023 6.5039,6.15234 6.5039,16.52344 0,11.68945 -7.29492,18.28125 -7.29492,6.59179 -20.74218,6.59179 -8.17383,0 -15.73243,-4.13085 z m 0.70313,-12.83204 q 6.24023,4.30664 14.15039,4.30664 7.29492,0 10.98633,-2.98828 3.6914,-2.98828 3.6914,-8.52539 0,-4.92187 -2.90039,-7.82226 -2.8125,-2.90039 -7.55859,-2.90039 -6.85547,0 -11.77734,4.6582 -4.83399,4.57031 -6.5918,13.27148 z m 42.62695,63.6328 0,0 z m 63.8086,0 0,0 z m -52.82227,-80.77147 0,0 z"
         style="font-style:normal;font-variant:normal;font-weight:normal;font-stretch:normal;font-size:180px;line-height:125%;font-family:'Noto Sans Telugu';-inkscape-font-specification:'Noto Sans Telugu, Normal';text-align:start;writing-mode:lr-tb;text-anchor:start"
         id="path3345" />
      <path
         d="m 271.74602,1001.1842 7.20703,-11.60156 q 7.4707,10.01953 14.94141,14.85356 7.55859,4.7461 16.25976,4.7461 9.22852,0 14.0625,-5.8008 4.83399,-5.8887 4.83399,-16.96292 0,-13.35938 -7.73438,-23.64258 -7.64648,-10.2832 -23.81836,-17.75391 l 6.67969,-13.88671 q 18.54492,8.08593 29.17969,22.5 10.63476,14.41406 10.63476,31.8164 0,18.10552 -9.05273,28.03712 -9.05274,9.8437 -25.92774,9.8437 -10.89843,0 -20.21484,-5.5371 -9.22852,-5.5371 -17.05078,-16.6113 z"
         style="font-style:normal;font-variant:normal;font-weight:normal;font-stretch:normal;font-size:180px;line-height:125%;font-family:'Noto Sans Telugu';-inkscape-font-specification:'Noto Sans Telugu, Normal';text-align:start;writing-mode:lr-tb;text-anchor:start"
         id="path3347" />
      <path
         d="m 418.96282,1015.8619 q 8.70117,-12.3046 11.33789,-20.74215 2.72461,-8.52539 2.72461,-17.92969 0,-15.82031 -7.82227,-24.16992 -7.82227,-8.34961 -22.93945,-8.34961 -13.79883,0 -21.79688,8.61328 -7.99804,8.61328 -7.99804,23.73047 0,10.3711 3.25195,19.59961 3.33984,9.22851 10.81055,19.24801 l -15.0293,6.5918 q -13.97461,-21.7968 -13.97461,-45.43942 0,-13.0957 5.625,-23.73047 5.625,-10.72265 15.99609,-16.43554 10.45899,-5.71289 24.16992,-5.71289 21.00586,0 32.78321,11.77734 11.86523,11.68945 11.86523,32.16797 0,12.56836 -3.07617,23.64258 -3.07617,11.07423 -10.98633,23.73043 l -14.9414,-6.5918 z m -16.25977,9.5801 0,0 z m 52.4707,0 0,0 z m -52.99804,-4.3945 0,0 z M 387.2343,914.61194 q 1.75781,6.76758 3.42773,10.2832 1.66993,3.51563 3.51563,4.92188 1.93359,1.31836 4.74609,1.31836 3.51563,0 6.67969,-2.19727 3.16406,-2.19727 8.96484,-9.66797 l 5.53711,-7.20703 q 9.31641,-12.2168 16.96289,-16.78711 7.64649,-4.6582 18.98438,-4.74609 l 0.9668,13.88672 q -6.24024,0.35156 -10.10743,1.8457 -3.86718,1.49414 -7.20703,4.39453 -3.25195,2.8125 -9.05273,10.2832 l -4.13086,5.36133 q -7.38281,9.58008 -13.97461,13.97461 -6.50391,4.39453 -14.67773,4.39453 -10.28321,0 -16.34766,-6.59179 -5.97656,-6.67969 -9.22852,-18.63282 l 14.94141,-4.83398 z m 24.43359,-50.00977 0,0 z"
         style="font-style:normal;font-variant:normal;font-weight:normal;font-stretch:normal;font-size:180px;line-height:125%;font-family:'Noto Sans Telugu';-inkscape-font-specification:'Noto Sans Telugu, Normal';text-align:start;writing-mode:lr-tb;text-anchor:start"
         id="path3349" />
      <path
         d="m 438.73821,1001.1842 7.20703,-11.60156 q 7.4707,10.01953 14.9414,14.85356 7.5586,4.7461 16.25977,4.7461 9.22852,0 14.0625,-5.8008 4.83398,-5.8887 4.83398,-16.96292 0,-13.35938 -7.73437,-23.64258 -7.64649,-10.2832 -23.81836,-17.75391 l 6.67969,-13.88671 q 18.54492,8.08593 29.17968,22.5 10.63477,14.41406 10.63477,31.8164 0,18.10552 -9.05273,28.03712 -9.05274,9.8437 -25.92774,9.8437 -10.89844,0 -20.21484,-5.5371 -9.22852,-5.5371 -17.05078,-16.6113 z"
         style="font-style:normal;font-variant:normal;font-weight:normal;font-stretch:normal;font-size:180px;line-height:125%;font-family:'Noto Sans Telugu';-inkscape-font-specification:'Noto Sans Telugu, Normal';text-align:start;writing-mode:lr-tb;text-anchor:start"
         id="path3351" />
    </g>
  </g>
</svg>
