<?xml version="1.0" encoding="UTF-8" standalone="no"?>
<!-- Created with Inkscape (http://www.inkscape.org/) -->

<svg
   xmlns:dc="http://purl.org/dc/elements/1.1/"
   xmlns:cc="http://creativecommons.org/ns#"
   xmlns:rdf="http://www.w3.org/1999/02/22-rdf-syntax-ns#"
   xmlns:svg="http://www.w3.org/2000/svg"
   xmlns="http://www.w3.org/2000/svg"
   xmlns:sodipodi="http://sodipodi.sourceforge.net/DTD/sodipodi-0.dtd"
   xmlns:inkscape="http://www.inkscape.org/namespaces/inkscape"
   width="120mm"
   height="60mm"
   viewBox="0 0 425.19685 212.59842"
   id="svg2"
   version="1.1"
   inkscape:version="0.91 r13725"
   sodipodi:docname="visarga in hindi.svg">
  <defs
     id="defs4" />
  <sodipodi:namedview
     id="base"
     pagecolor="#ffffff"
     bordercolor="#666666"
     borderopacity="1.0"
     inkscape:pageopacity="0.0"
     inkscape:pageshadow="2"
     inkscape:zoom="0.98994949"
     inkscape:cx="-227.65624"
     inkscape:cy="19.474954"
     inkscape:document-units="px"
     inkscape:current-layer="layer1"
     showgrid="false"
     inkscape:window-width="1920"
     inkscape:window-height="1027"
     inkscape:window-x="-8"
     inkscape:window-y="-8"
     inkscape:window-maximized="1" />
  <metadata
     id="metadata7">
    <rdf:RDF>
      <cc:Work
         rdf:about="">
        <dc:format>image/svg+xml</dc:format>
        <dc:type
           rdf:resource="http://purl.org/dc/dcmitype/StillImage" />
        <dc:title></dc:title>
      </cc:Work>
    </rdf:RDF>
  </metadata>
  <g
     inkscape:label="Layer 1"
     inkscape:groupmode="layer"
     id="layer1"
     transform="translate(0,-839.76378)">
    <g
       style="font-style:normal;font-weight:normal;font-size:180px;line-height:125%;font-family:sans-serif;letter-spacing:0px;word-spacing:0px;fill:#000000;fill-opacity:1;stroke:none;stroke-width:1px;stroke-linecap:butt;stroke-linejoin:miter;stroke-opacity:1"
       id="text3338">
      <path
         d="m 78.513174,924.93726 -18.720703,0 0,99.14064 -14.501953,0 0,-99.14064 -15.996094,0 0,-12.83204 14.414063,0 q -2.197266,-4.13085 -3.515625,-8.52539 -1.31836,-4.39453 -1.31836,-9.84375 0,-6.94336 2.72461,-12.65625 2.724609,-5.80078 7.646484,-9.84375 5.009766,-4.04296 12.041016,-6.24023 7.11914,-2.28516 15.820312,-2.28516 12.744141,0 23.906246,3.60352 11.25,3.60351 21.09375,10.19531 9.84375,6.5918 18.28125,15.9961 8.4375,9.3164 15.55664,20.91796 l -15.02929,0 q -27.68555,-37.70507 -60.644533,-37.70507 -6.240235,0 -11.25,1.40625 -5.009766,1.40625 -8.525391,3.95507 -3.515625,2.54883 -5.361328,6.24024 -1.845703,3.60351 -1.845703,8.17383 0,5.36132 1.669922,9.49218 1.757812,4.04297 3.779296,7.11914 l 19.775391,0 0,12.83204 z"
         style="font-style:normal;font-variant:normal;font-weight:normal;font-stretch:normal;font-size:180px;line-height:125%;font-family:'Noto Sans Devanagari';-inkscape-font-specification:'Noto Sans Devanagari, Normal';text-align:start;writing-mode:lr-tb;text-anchor:start"
         id="path3343" />
      <path
         d="m 178.79638,912.10522 0,12.83204 -18.72071,0 0,99.14064 -14.41406,0 0,-29.70705 q -6.32812,4.39453 -13.18359,6.50395 -6.85547,2.0214 -14.50196,2.0214 -9.66796,0 -17.31445,-3.77926 -7.646483,-3.77929 -11.953123,-10.63476 -4.306641,-6.94336 -4.306641,-15.90821 0,-10.01953 4.658203,-17.22656 4.658203,-7.29492 13.183591,-10.98633 8.52539,-3.77929 19.6875,-3.77929 4.21875,0 9.84375,0.61523 5.71289,0.52735 8.08594,1.23047 l -1.05469,13.0957 q -10.01953,-1.8457 -16.17187,-1.8457 -11.33789,0 -17.57813,5.00977 -6.152341,4.92187 -6.152341,13.79882 0,5.88868 2.636721,9.93164 2.63672,4.04297 7.03125,5.97657 4.48242,1.8457 9.84375,1.8457 15.11719,0 27.24609,-12.83203 l 0,-52.4707 -69.609373,0 0,-12.83204 102.744143,0 z"
         style="font-style:normal;font-variant:normal;font-weight:normal;font-stretch:normal;font-size:180px;line-height:125%;font-family:'Noto Sans Devanagari';-inkscape-font-specification:'Noto Sans Devanagari, Normal';text-align:start;writing-mode:lr-tb;text-anchor:start"
         id="path3345" />
      <path
         d="m 299.73388,924.93726 -18.72071,0 0,99.14064 -14.50195,0 0,-46.66994 -21.70898,0 q -19.42383,0 -29.44336,-3.86719 -3.95508,2.90039 -8.96485,5.00977 7.38282,9.49218 17.31446,19.33593 9.93164,9.84373 20.91797,18.72073 l -9.66797,9.6679 q -10.01953,-8.7011 -19.77539,-18.5449 -9.75586,-9.93162 -17.22657,-18.80857 -7.4707,-8.87695 -10.98632,-14.67773 -2.10938,-3.60352 -2.9004,-6.06446 -0.70312,-2.46093 -0.70312,-5.27343 0,-2.37305 1.14258,-4.48243 1.23047,-2.19726 3.77929,-3.60351 2.63672,-1.40625 6.5918,-1.40625 4.48242,0 7.82227,2.10937 3.42773,2.02149 6.15234,5.71289 3.16406,-2.8125 4.83399,-7.82226 1.66992,-5.00977 1.66992,-11.77735 0,-5.36132 -0.87891,-9.66796 -0.87891,-4.39454 -2.10937,-7.03125 l -36.12305,0 0,-12.83204 123.48633,0 0,12.83204 z m -76.20117,39.02343 q 4.92187,0.61524 15.29296,0.61524 l 27.68555,0 0,-39.63867 -39.63867,0 q 2.98828,6.94336 2.98828,16.78711 0,14.15039 -6.32812,22.23632 z"
         style="font-style:normal;font-variant:normal;font-weight:normal;font-stretch:normal;font-size:180px;line-height:125%;font-family:'Noto Sans Devanagari';-inkscape-font-specification:'Noto Sans Devanagari, Normal';text-align:start;writing-mode:lr-tb;text-anchor:start"
         id="path3347" />
      <path
         d="m 368.02489,924.93726 -33.31054,0 0,57.04101 q 0,4.7461 -2.37305,7.38281 -2.28516,2.63672 -6.41602,2.63672 -4.48242,0 -9.66797,-3.77929 -5.18554,-3.86719 -8.4375,-9.31641 -3.25195,-5.53711 -3.25195,-10.19531 0,-4.65821 2.63672,-6.94336 2.72461,-2.28516 8.26172,-2.28516 l 4.83398,0 0,-34.54101 -23.11523,0 0,-12.83204 103.97461,0 0,12.83204 -18.7207,0 0,99.14064 -14.41407,0 0,-99.14064 z"
         style="font-style:normal;font-variant:normal;font-weight:normal;font-stretch:normal;font-size:180px;line-height:125%;font-family:'Noto Sans Devanagari';-inkscape-font-specification:'Noto Sans Devanagari, Normal';text-align:start;writing-mode:lr-tb;text-anchor:start"
         id="path3349" />
      <path
         d="m 364.15771,913.42358 q -4.30665,-7.03125 -6.5918,-13.79882 -2.28516,-6.85547 -2.28516,-12.65625 0,-7.73438 3.60352,-13.27149 3.60351,-5.53711 9.93164,-8.26172 6.24023,-2.72461 14.23828,-2.72461 5.97656,0 10.72266,1.31836 4.74609,1.23047 8.4375,3.16407 l -3.95508,11.86523 q -3.07617,-1.66992 -6.41602,-2.72461 -3.42773,-1.14258 -7.38281,-1.14258 -7.03125,0 -10.89844,3.86719 -3.95508,3.86719 -3.95508,10.63477 0,5.18554 2.19727,10.81054 2.10937,5.53711 7.11914,12.91992 l -14.76562,0 z m 3.6914,-1.31836 0,0 z"
         style="font-style:normal;font-variant:normal;font-weight:normal;font-stretch:normal;font-size:180px;line-height:125%;font-family:'Noto Sans Devanagari';-inkscape-font-specification:'Noto Sans Devanagari, Normal';text-align:start;writing-mode:lr-tb;text-anchor:start"
         id="path3351" />
    </g>
  </g>
</svg>
