<?xml version="1.0" encoding="UTF-8" standalone="no"?>
<!-- Created with Inkscape (http://www.inkscape.org/) -->

<svg
   xmlns:dc="http://purl.org/dc/elements/1.1/"
   xmlns:cc="http://creativecommons.org/ns#"
   xmlns:rdf="http://www.w3.org/1999/02/22-rdf-syntax-ns#"
   xmlns:svg="http://www.w3.org/2000/svg"
   xmlns="http://www.w3.org/2000/svg"
   xmlns:sodipodi="http://sodipodi.sourceforge.net/DTD/sodipodi-0.dtd"
   xmlns:inkscape="http://www.inkscape.org/namespaces/inkscape"
   width="160mm"
   height="60mm"
   viewBox="0 0 566.92913 212.59842"
   id="svg2"
   version="1.1"
   inkscape:version="0.91 r13725"
   sodipodi:docname="wave unkerneds.svg">
  <defs
     id="defs4" />
  <sodipodi:namedview
     id="base"
     pagecolor="#ffffff"
     bordercolor="#666666"
     borderopacity="1.0"
     inkscape:pageopacity="0.0"
     inkscape:pageshadow="2"
     inkscape:zoom="3.959798"
     inkscape:cx="223.67217"
     inkscape:cy="119.95987"
     inkscape:document-units="px"
     inkscape:current-layer="text3353"
     showgrid="false"
     inkscape:window-width="1920"
     inkscape:window-height="1027"
     inkscape:window-x="-8"
     inkscape:window-y="-8"
     inkscape:window-maximized="1" />
  <metadata
     id="metadata7">
    <rdf:RDF>
      <cc:Work
         rdf:about="">
        <dc:format>image/svg+xml</dc:format>
        <dc:type
           rdf:resource="http://purl.org/dc/dcmitype/StillImage" />
        <dc:title></dc:title>
      </cc:Work>
    </rdf:RDF>
  </metadata>
  <g
     inkscape:label="Layer 1"
     inkscape:groupmode="layer"
     id="layer1"
     transform="translate(0,-839.76378)">
    <g
       style="font-style:normal;font-weight:normal;font-size:180px;line-height:125%;font-family:sans-serif;letter-spacing:0px;word-spacing:0px;fill:#000000;fill-opacity:1;stroke:none;stroke-width:1px;stroke-linecap:butt;stroke-linejoin:miter;stroke-opacity:1"
       id="text3336">
      <g
         style="font-style:normal;font-weight:normal;font-size:180px;line-height:125%;font-family:sans-serif;letter-spacing:0px;word-spacing:0px;fill:#000000;fill-opacity:1;stroke:none;stroke-width:1px;stroke-linecap:butt;stroke-linejoin:miter;stroke-opacity:1"
         id="text3353"
         transform="translate(6,54)">
        <path
           d="m 0.19142746,822.51365 0,1.62 2.70000004,0 c 6.48,0 7.7399995,2.34 10.4399995,11.16 l 42.84,118.26 10.08,-0.72 29.88,-99.72 30.240003,100.44 10.08,-0.9 42.66,-117.36 c 2.52,-7.02 4.14,-11.16 9.9,-11.16 l 2.7,0 0,-1.62 -30.6,0 0,1.62 6.84,0 c 6.12,0 8.82,1.98 8.82,5.76 0,1.44 -0.36,3.24 -1.08,5.22 l -35.46,97.38 c -1.26,3.42 -1.62,5.58 -1.62,7.02 l -2.52,0 c 0,-1.26 -0.36,-3.24 -1.08,-6.48 l -30.06,-100.26 c -0.9,-3.24 -3.06,-7.38 -5.580003,-8.28 l 0,-0.36 17.100003,0 0,-1.62 -40.320003,0 0,1.62 4.14,0 c 6.48,0 8.1,2.7 10.62,11.16 l 3.6,12.06 -25.74,85.68 c -1.26,3.78 -1.26,5.94 -1.26,6.48 l -1.8,0 c 0,-2.52 -0.9,-5.94 -1.08,-6.48 l -37.26,-100.26 c -0.72,-2.52 -1.26,-5.04 -1.26,-7.74 l 0,-2.52 -25.91999954,0 z"
           style="font-style:normal;font-variant:normal;font-weight:500;font-stretch:normal;font-size:180px;line-height:125%;font-family:FoglihtenNo07;-inkscape-font-specification:'FoglihtenNo07, Medium';text-align:start;writing-mode:lr-tb;text-anchor:start"
           id="path3360"
           inkscape:connector-curvature="0" />
        <path
           d="m 194.23799,951.93365 32.76,0 0,-1.62 -8.82,0 c -5.4,0 -8.82,-2.7 -8.82,-7.02 0,-1.26 0.36,-2.52 1.08,-4.14 l 9.72,-22.32 71.28,0 10.08,24.66 c 1.26,3.06 3.24,7.56 5.58,8.46 l 0,0.36 -13.86,0 0,1.62 34.38,0 0,-1.62 -1.44,0 c -5.94,0 -7.02,-2.52 -10.62,-11.16 l -42.48,-104.04 c -0.9,-2.16 -1.62,-6.84 -1.62,-10.44 l 0,-2.16 -14.04,0 -50.4,116.64 c -2.7,6.12 -5.4,11.16 -9.9,11.16 l -2.88,0 0,1.62 z m 27.18,-38.34 32.94,-75.06 c 1.62,-3.78 2.16,-6.12 2.16,-7.2 l 1.62,0 c 0,1.98 0.18,4.32 1.44,7.2 l 30.42,75.06 -68.58,0 z"
           style="font-style:normal;font-variant:normal;font-weight:500;font-stretch:normal;font-size:180px;line-height:125%;font-family:FoglihtenNo07;-inkscape-font-specification:'FoglihtenNo07, Medium';text-align:start;writing-mode:lr-tb;text-anchor:start"
           id="path3362"
           inkscape:connector-curvature="0" />
        <path
           d="m 330.63674,822.51365 0,1.62 2.7,0 c 5.94,0 7.2,3.06 10.62,11.16 l 47.7,118.26 9.72,-0.72 47.52,-117.54 c 3.24,-7.92 4.68,-11.16 10.44,-11.16 l 2.16,0 0,-1.62 -39.24,0 0,1.62 15.48,0 c 6.12,0 8.64,2.52 8.64,6.3 0,1.44 -0.36,3.06 -1.08,4.86 l -40.32,97.02 c -1.62,3.78 -1.8,6.3 -1.8,7.2 l -2.34,0 c 0,-2.52 -1.26,-5.76 -1.44,-6.48 l -41.4,-100.26 c -1.08,-3.06 -3.06,-7.38 -5.58,-8.28 l 0,-0.36 13.86,0 0,-1.62 -35.64,0 z"
           style="font-style:normal;font-variant:normal;font-weight:500;font-stretch:normal;font-size:180px;line-height:125%;font-family:FoglihtenNo07;-inkscape-font-specification:'FoglihtenNo07, Medium';text-align:start;writing-mode:lr-tb;text-anchor:start"
           id="path3364"
           inkscape:connector-curvature="0" />
        <path
           d="m 466.01455,951.93365 81.54,0 c 2.88,0 5.4,-0.36 6.66,-1.62 l 0.18,0 -0.54,8.46 1.62,0 3.06,-48.78 -2.88,0 -1.08,14.4 c -1.26,17.28 -9.54,24.3 -26.82,24.3 l -35.82,0 0,-0.18 c 2.16,-2.16 3.96,-5.4 3.96,-9.36 l 0,-53.46 7.2,0 c 10.08,0 19.44,1.98 19.44,19.26 l 0,9.9 1.62,0 0,-57.78 -1.62,0 0,6.3 c 0,17.28 -9.36,19.08 -19.44,19.08 l -7.2,0 0,-47.16 c 0,-3.96 -1.8,-7.2 -3.96,-9.36 l 0,-0.18 25.38,0 c 17.28,0 26.64,6.66 27.72,26.1 l 0.72,12.6 3.24,0 -3.24,-48.78 -1.62,0.18 0.54,8.28 -0.18,0 c -1.26,-1.26 -3.78,-1.62 -6.66,-1.62 l -71.82,0 0,1.62 6.3,0 c 8.64,0 9.54,0.9 9.54,9.54 l 0,107.1 c 0,8.64 -0.9,9.54 -9.54,9.54 l -6.3,0 0,1.62 z"
           style="font-style:normal;font-variant:normal;font-weight:500;font-stretch:normal;font-size:180px;line-height:125%;font-family:FoglihtenNo07;-inkscape-font-specification:'FoglihtenNo07, Medium';text-align:start;writing-mode:lr-tb;text-anchor:start"
           id="path3366"
           inkscape:connector-curvature="0" />
      </g>
    </g>
  </g>
</svg>
