<?xml version="1.0" encoding="UTF-8" standalone="no"?>
<!-- Created with Inkscape (http://www.inkscape.org/) -->

<svg
   xmlns:dc="http://purl.org/dc/elements/1.1/"
   xmlns:cc="http://creativecommons.org/ns#"
   xmlns:rdf="http://www.w3.org/1999/02/22-rdf-syntax-ns#"
   xmlns:svg="http://www.w3.org/2000/svg"
   xmlns="http://www.w3.org/2000/svg"
   xmlns:sodipodi="http://sodipodi.sourceforge.net/DTD/sodipodi-0.dtd"
   xmlns:inkscape="http://www.inkscape.org/namespaces/inkscape"
   width="150mm"
   height="60mm"
   viewBox="0 0 531.49606 212.59842"
   id="svg2"
   version="1.1"
   inkscape:version="0.91 r13725"
   sodipodi:docname="wave kerneds.svg">
  <defs
     id="defs4" />
  <sodipodi:namedview
     id="base"
     pagecolor="#ffffff"
     bordercolor="#666666"
     borderopacity="1.0"
     inkscape:pageopacity="0.0"
     inkscape:pageshadow="2"
     inkscape:zoom="1.4"
     inkscape:cx="-21.312567"
     inkscape:cy="174.62775"
     inkscape:document-units="px"
     inkscape:current-layer="text3336"
     showgrid="false"
     inkscape:window-width="1920"
     inkscape:window-height="1027"
     inkscape:window-x="-8"
     inkscape:window-y="-8"
     inkscape:window-maximized="1" />
  <metadata
     id="metadata7">
    <rdf:RDF>
      <cc:Work
         rdf:about="">
        <dc:format>image/svg+xml</dc:format>
        <dc:type
           rdf:resource="http://purl.org/dc/dcmitype/StillImage" />
        <dc:title></dc:title>
      </cc:Work>
    </rdf:RDF>
  </metadata>
  <g
     inkscape:label="Layer 1"
     inkscape:groupmode="layer"
     id="layer1"
     transform="translate(0,-839.76378)">
    <g
       style="font-style:normal;font-weight:normal;font-size:180px;line-height:125%;font-family:sans-serif;letter-spacing:0px;word-spacing:0px;fill:#000000;fill-opacity:1;stroke:none;stroke-width:1px;stroke-linecap:butt;stroke-linejoin:miter;stroke-opacity:1"
       id="text3336">
      <path
         d="m 13.62,886.08513 0,1.62 2.7,0 c 6.48,0 7.74,2.34 10.44,11.16 l 42.84,118.25997 10.08,-0.72 29.88,-99.71997 30.24,100.43997 10.08,-0.9 42.66,-117.35997 c 2.52,-7.02 4.14,-11.16 9.9,-11.16 l 2.7,0 0,-1.62 -30.6,0 0,1.62 6.84,0 c 6.12,0 8.82,1.98 8.82,5.76 0,1.44 -0.36,3.24 -1.08,5.22 l -35.46,97.38 c -1.26,3.42 -1.62,5.57997 -1.62,7.01997 l -2.52,0 c 0,-1.26 -0.36,-3.23997 -1.08,-6.47997 l -30.06,-100.26 c -0.9,-3.24 -3.06,-7.38 -5.58,-8.28 l 0,-0.36 17.1,0 0,-1.62 -40.32,0 0,1.62 4.14,0 c 6.48,0 8.1,2.7 10.62,11.16 l 3.6,12.06 -25.74,85.68 c -1.26,3.77997 -1.26,5.93997 -1.26,6.47997 l -1.8,0 c 0,-2.52 -0.9,-5.93997 -1.08,-6.47997 l -37.26,-100.26 c -0.72,-2.52 -1.26,-5.04 -1.26,-7.74 l 0,-2.52 -25.92,0 z"
         style="font-style:normal;font-variant:normal;font-weight:500;font-stretch:normal;font-size:180px;line-height:125%;font-family:FoglihtenNo07;-inkscape-font-specification:'FoglihtenNo07, Medium';text-align:start;writing-mode:lr-tb;text-anchor:start"
         id="path3341" />
      <path
         d="m 180.43219,1015.5051 32.76,0 0,-1.62 -8.82,0 c -5.4,0 -8.82,-2.7 -8.82,-7.02 0,-1.26 0.36,-2.52 1.08,-4.14 l 9.72,-22.31997 71.28,0 10.08,24.65997 c 1.26,3.06 3.24,7.56 5.58,8.46 l 0,0.36 -13.86,0 0,1.62 34.38,0 0,-1.62 -1.44,0 c -5.94,0 -7.02,-2.52 -10.62,-11.16 l -42.48,-104.03997 c -0.9,-2.16 -1.62,-6.84 -1.62,-10.44 l 0,-2.16 -14.04,0 -50.4,116.63997 c -2.7,6.12 -5.4,11.16 -9.9,11.16 l -2.88,0 0,1.62 z m 27.18,-38.33997 32.94,-75.06 c 1.62,-3.78 2.16,-6.12 2.16,-7.2 l 1.62,0 c 0,1.98 0.18,4.32 1.44,7.2 l 30.42,75.06 -68.58,0 z"
         style="font-style:normal;font-variant:normal;font-weight:500;font-stretch:normal;font-size:180px;line-height:125%;font-family:FoglihtenNo07;-inkscape-font-specification:'FoglihtenNo07, Medium';text-align:start;writing-mode:lr-tb;text-anchor:start"
         id="path3343" />
      <path
         d="m 292.76062,886.08513 0,1.62 2.7,0 c 5.94,0 7.2,3.06 10.62,11.16 l 47.7,118.25997 9.72001,-0.72 47.51999,-117.53997 c 3.24,-7.92 4.68,-11.16 10.44,-11.16 l 2.16001,0 0,-1.62 -39.24001,0 0,1.62 15.48001,0 c 6.12,0 8.64,2.52 8.64,6.3 0,1.44 -0.36001,3.06 -1.08001,4.86 l -40.32,97.02 c -1.61999,3.78 -1.79999,6.29997 -1.79999,7.19997 l -2.34001,0 c 0,-2.52 -1.26,-5.75997 -1.44,-6.47997 l -41.39999,-100.26 c -1.08001,-3.06 -3.06,-7.38 -5.58001,-8.28 l 0,-0.36 13.86,0 0,-1.62 -35.64,0 z"
         style="font-style:normal;font-variant:normal;font-weight:500;font-stretch:normal;font-size:180px;line-height:125%;font-family:FoglihtenNo07;-inkscape-font-specification:'FoglihtenNo07, Medium';text-align:start;writing-mode:lr-tb;text-anchor:start"
         id="path3345" />
      <path
         d="m 428.32594,1015.5051 81.54,0 c 2.88,0 5.4,-0.36 6.66,-1.62 l 0.18,0 -0.54,8.46 1.62,0 3.06,-48.77997 -2.88,0 -1.08,14.4 c -1.26,17.27997 -9.54,24.29997 -26.82,24.29997 l -35.82,0 0,-0.18 c 2.16,-2.16 3.96,-5.4 3.96,-9.36 l 0,-53.45997 7.2,0 c 10.08,0 19.44,1.98 19.44,19.26 l 0,9.9 1.62,0 0,-57.78 -1.62,0 0,6.3 c 0,17.28 -9.36,19.08 -19.44,19.08 l -7.2,0 0,-47.16 c 0,-3.96 -1.8,-7.2 -3.96,-9.36 l 0,-0.18 25.38,0 c 17.28,0 26.64,6.66 27.72,26.1 l 0.72,12.6 3.24,0 -3.24,-48.78 -1.62,0.18 0.54,8.28 -0.18,0 c -1.26,-1.26 -3.78,-1.62 -6.66,-1.62 l -71.82,0 0,1.62 6.3,0 c 8.64,0 9.54,0.9 9.54,9.54 l 0,107.09997 c 0,8.64 -0.9,9.54 -9.54,9.54 l -6.3,0 0,1.62 z"
         style="font-style:normal;font-variant:normal;font-weight:500;font-stretch:normal;font-size:180px;line-height:125%;font-family:FoglihtenNo07;-inkscape-font-specification:'FoglihtenNo07, Medium';text-align:start;writing-mode:lr-tb;text-anchor:start"
         id="path3347" />
    </g>
  </g>
</svg>
