<?xml version="1.0" encoding="UTF-8" standalone="no"?>
<!-- Created with Inkscape (http://www.inkscape.org/) -->

<svg
   xmlns:dc="http://purl.org/dc/elements/1.1/"
   xmlns:cc="http://creativecommons.org/ns#"
   xmlns:rdf="http://www.w3.org/1999/02/22-rdf-syntax-ns#"
   xmlns:svg="http://www.w3.org/2000/svg"
   xmlns="http://www.w3.org/2000/svg"
   xmlns:sodipodi="http://sodipodi.sourceforge.net/DTD/sodipodi-0.dtd"
   xmlns:inkscape="http://www.inkscape.org/namespaces/inkscape"
   width="210mm"
   height="60mm"
   viewBox="0 0 744.09449 212.59842"
   id="svg2"
   version="1.1"
   inkscape:version="0.91 r13725"
   sodipodi:docname="arabic fan alkhatt (calligraphy) good.svg">
  <defs
     id="defs4" />
  <sodipodi:namedview
     id="base"
     pagecolor="#ffffff"
     bordercolor="#666666"
     borderopacity="1.0"
     inkscape:pageopacity="0.0"
     inkscape:pageshadow="2"
     inkscape:zoom="0.98994949"
     inkscape:cx="321.28944"
     inkscape:cy="136.56643"
     inkscape:document-units="px"
     inkscape:current-layer="layer1"
     showgrid="false"
     inkscape:window-width="1920"
     inkscape:window-height="1027"
     inkscape:window-x="-8"
     inkscape:window-y="-8"
     inkscape:window-maximized="1" />
  <metadata
     id="metadata7">
    <rdf:RDF>
      <cc:Work
         rdf:about="">
        <dc:format>image/svg+xml</dc:format>
        <dc:type
           rdf:resource="http://purl.org/dc/dcmitype/StillImage" />
        <dc:title></dc:title>
      </cc:Work>
    </rdf:RDF>
  </metadata>
  <g
     inkscape:label="Layer 1"
     inkscape:groupmode="layer"
     id="layer1"
     transform="translate(0,-839.76378)">
    <g
       style="font-style:normal;font-weight:normal;font-size:40px;line-height:125%;font-family:sans-serif;letter-spacing:0px;word-spacing:0px;fill:#000000;fill-opacity:1;stroke:none;stroke-width:1px;stroke-linecap:butt;stroke-linejoin:miter;stroke-opacity:1"
       id="text3336">
      <path
         d="m 673.25056,948.02216 q 3.60351,-3.7793 3.60351,-10.54688 0,-5.18555 -5.80078,-9.66797 -2.72461,-2.19726 -6.5918,-2.10937 -4.57031,0.0879 -8.08593,3.77929 -3.51563,3.60352 -3.60352,8.08594 0,7.03125 4.83399,10.3711 3.51562,2.19726 7.20703,2.19726 6.32812,0 8.4375,-2.10937 z m -54.31641,31.02539 21.18164,0 q 7.38281,0 20.6543,-2.02149 6.94336,-1.05469 12.2168,-9.22851 2.7246,-4.21875 4.04296,-8.61328 -5.53711,4.83398 -14.0625,5.00976 -11.42578,0.17578 -18.28125,-5.88867 -8.61328,-7.64649 -8.61328,-18.98438 0,-4.57031 0.70313,-8.4375 2.02148,-13.00781 15.20508,-19.07226 6.85546,-3.16406 13.53515,-3.16406 7.91016,0 13.71094,4.39453 8.4375,6.32812 12.48047,15.29297 2.02148,4.48242 2.02148,16.78711 0,18.28125 -6.85547,30.8496 -6.5039,11.95313 -17.40234,15.82032 -9.58008,3.42773 -22.32422,3.42773 l -28.21289,0 0,-16.17187 z m 39.11133,-98.08594 13.18359,0 0,13.18359 -13.18359,0 0,-13.18359 z"
         style="font-size:180px"
         id="path3341" />
      <path
         d="m 593.27009,944.15497 q 3.86719,8.52539 6.24023,16.96289 1.9336,7.03125 6.32813,12.30469 4.6582,5.625 9.93164,5.625 l 6.5918,0 0,16.17187 -11.42579,0 q -6.24023,0 -9.22851,-4.21875 -0.26367,9.58003 -8.08594,22.50003 -10.54687,17.4902 -31.55273,23.291 -8.52539,2.373 -16.61133,2.373 -10.19531,0 -20.12695,-3.2519 -28.82813,-9.4043 -28.82813,-40.60549 0,-15.38086 4.13086,-27.77344 l 16.17187,0 q -4.30664,12.04102 -4.30664,27.77344 0,20.74219 17.66602,25.40039 7.91016,2.1094 14.58984,2.1094 7.73438,0 14.67774,-1.7578 17.05078,-4.2188 23.64258,-24.16996 2.90039,-8.87695 2.90039,-18.7207 0,-16.17187 -8.87696,-34.01367 l 16.17188,0 z m -59.15039,-10.45899 13.18359,0 0,13.1836 -13.18359,0 0,-13.1836 z"
         style="font-size:180px"
         id="path3343" />
      <path
         d="m 393.31892,858.46161 16.17187,0 0,136.75781 -16.17187,0 0,-136.75781 z"
         style="font-size:180px"
         id="path3345" />
      <path
         d="m 359.39314,962.612 q 0,15.64453 -7.64649,24.52148 -7.03125,8.08594 -20.56641,8.08594 l -11.42578,0 0,-16.17187 6.5918,0 q 8.70117,0 12.56836,-3.86719 4.30664,-4.30664 4.30664,-13.62305 l 0,-103.0957 16.17188,0 0,104.15039 z"
         style="font-size:180px"
         id="path3347" />
      <path
         d="m 261.21931,926.66473 q 22.67578,4.57032 42.01172,13.1836 l 0,13.53515 q -5.71289,1.75782 -12.12891,5.36133 4.39453,6.85547 7.03125,9.84375 9.14062,10.45899 19.16016,10.45899 l 5.80078,0 0,16.17187 -7.5586,0 q -18.36914,0 -29.44336,-14.76562 -3.51562,-4.7461 -8.70117,-13.27149 -6.06445,4.04297 -9.66797,7.29492 -12.74414,11.33789 -19.33593,13.71094 -19.42383,7.03125 -33.75,7.03125 l -11.25,0 0,-16.17187 8.78906,0 q 19.95117,0 31.28906,-6.32813 9.14063,-5.09765 19.33594,-14.41406 8.26172,-7.55859 17.13867,-10.63477 -7.29492,-2.02148 -16.34766,-4.04297 -7.4707,-1.66992 -23.29101,-3.07617 -7.20703,-0.61523 -21.35742,-0.0879 l 0,-16.17187 q 6.32812,-0.61524 12.91992,-0.70313 14.23828,0 29.35547,3.07617 z m -9.93164,-28.125 13.18359,0 0,13.1836 -13.18359,0 0,-13.1836 z"
         style="font-size:180px"
         id="path3349" />
      <path
         d="m 129.91071,995.21942 -50.712887,0 -32.25586,0 0,-16.17187 32.25586,0 0,-120.58594 16.171875,0 0,111.26953 q 19.072262,-28.03711 43.330082,-36.73828 8.08593,-2.90039 14.0625,-2.90039 10.2832,0 19.51171,3.42773 16.52344,6.06446 16.52344,26.71875 0,6.76758 -3.6914,12.91992 1.23046,1.05469 2.63671,2.02149 5.36133,3.86719 12.56836,3.86719 l 6.5918,0 0,16.17187 -11.42578,0 q -11.51367,0 -20.56641,-8.08594 l -2.46093,-2.28515 q -17.92969,10.37109 -42.53907,10.37109 z m -22.41211,-16.17187 16.43555,0 q 20.83008,0 32.16797,-5.53711 16.43555,-8.17383 16.34766,-14.15039 -0.17579,-11.86524 -12.2168,-13.53516 -3.25195,-0.43945 -7.4707,-0.43945 -7.03125,0 -17.75391,7.11914 -15.55664,10.54687 -27.50977,26.54297 z"
         style="font-size:180px"
         id="path3351" />
    </g>
  </g>
</svg>
