<?xml version="1.0" encoding="UTF-8" standalone="no"?>
<!-- Created with Inkscape (http://www.inkscape.org/) -->

<svg
   xmlns:dc="http://purl.org/dc/elements/1.1/"
   xmlns:cc="http://creativecommons.org/ns#"
   xmlns:rdf="http://www.w3.org/1999/02/22-rdf-syntax-ns#"
   xmlns:svg="http://www.w3.org/2000/svg"
   xmlns="http://www.w3.org/2000/svg"
   xmlns:sodipodi="http://sodipodi.sourceforge.net/DTD/sodipodi-0.dtd"
   xmlns:inkscape="http://www.inkscape.org/namespaces/inkscape"
   width="210mm"
   height="70mm"
   viewBox="0 0 744.09449 248.03149"
   id="svg2"
   version="1.1"
   inkscape:version="0.91 r13725"
   sodipodi:docname="calligraphy gurmukhi good kailigraafi.svg">
  <defs
     id="defs4" />
  <sodipodi:namedview
     id="base"
     pagecolor="#ffffff"
     bordercolor="#666666"
     borderopacity="1.0"
     inkscape:pageopacity="0.0"
     inkscape:pageshadow="2"
     inkscape:zoom="0.7"
     inkscape:cx="30.485758"
     inkscape:cy="64.788052"
     inkscape:document-units="px"
     inkscape:current-layer="text3340"
     showgrid="false"
     inkscape:window-width="1920"
     inkscape:window-height="1027"
     inkscape:window-x="-8"
     inkscape:window-y="-8"
     inkscape:window-maximized="1" />
  <metadata
     id="metadata7">
    <rdf:RDF>
      <cc:Work
         rdf:about="">
        <dc:format>image/svg+xml</dc:format>
        <dc:type
           rdf:resource="http://purl.org/dc/dcmitype/StillImage" />
        <dc:title></dc:title>
      </cc:Work>
    </rdf:RDF>
  </metadata>
  <g
     inkscape:label="Layer 1"
     inkscape:groupmode="layer"
     id="layer1"
     transform="translate(0,-804.33071)">
    <g
       style="font-style:normal;font-weight:normal;font-size:180px;line-height:125%;font-family:sans-serif;letter-spacing:0px;word-spacing:0px;fill:#000000;fill-opacity:1;stroke:none;stroke-width:1px;stroke-linecap:butt;stroke-linejoin:miter;stroke-opacity:1"
       id="text3340">
      <path
         d="m 145.03348,995.21936 q -0.79101,-10.45898 -2.63672,-19.51172 -1.8457,-9.05273 -4.74609,-16.61133 -7.4707,9.58008 -17.49024,14.41407 -9.93164,4.74609 -21.70898,4.74609 -16.259765,0 -25.664062,-8.34961 -9.316406,-8.34961 -9.316406,-22.85156 0,-14.32617 9.84375,-22.76367 9.84375,-8.52539 25.3125,-8.52539 11.865238,0 21.181638,4.21875 9.31641,4.13085 16.875,12.83203 2.28516,-8.26172 2.28516,-20.03907 0,-7.99804 -1.75781,-16.69921 l -81.386723,0 0,-12.83204 114.521483,0 0,12.83204 -18.54492,0 q 0.52734,2.46093 1.05469,7.82226 0.61523,5.27344 0.61523,8.78906 0,18.8086 -7.4707,33.22266 5.09765,8.70117 8.4375,21.00586 3.42773,12.30469 5.18555,28.30078 l -14.58985,0 z m -13.35937,-48.7793 q -6.50391,-8.87695 -14.50196,-13.35937 -7.91015,-4.48242 -17.40234,-4.48242 -10.107422,0 -15.820313,4.92187 -5.71289,4.83399 -5.71289,13.62305 0,8.52539 5.449218,13.44726 5.449219,4.83399 14.853516,4.83399 10.546879,0 18.808589,-4.7461 8.26172,-4.74609 14.32618,-14.23828 z m 17.7539,-63.19336 0,0 z"
         style="font-style:normal;font-variant:normal;font-weight:normal;font-stretch:normal;font-size:180px;line-height:125%;font-family:'Noto Sans Gurmukhi';-inkscape-font-specification:'Noto Sans Gurmukhi, Normal';text-align:start;writing-mode:lr-tb;text-anchor:start"
         id="path3345" />
      <path
         d="m 136.94754,891.33264 q -5.97656,-9.93164 -14.9414,-14.76562 -9.05274,-4.83399 -23.730471,-4.83399 l -1.757812,0 q -0.966797,0 -1.757813,0.0879 l -0.878906,-13.18359 q 1.757812,-0.17578 3.691406,-0.17578 12.832036,0 22.763676,4.48242 9.84375,4.39453 16.78711,13.18359 -4.92188,-14.76562 -13.35938,-21.79687 -8.52539,-7.11914 -22.93945,-7.11914 l -1.318362,0 q -0.703125,0 -1.31836,0.0879 l -0.791015,-13.27149 q 1.582031,-0.17578 3.427737,-0.17578 20.91797,0 32.87109,12.39258 11.86524,12.39258 16.875,38.32031 l -7.4707,0.61524 q 0.70312,1.23047 1.31836,2.46094 l -7.47071,3.6914 z m 12.48047,-8.08594 0,0 z"
         style="font-style:normal;font-variant:normal;font-weight:normal;font-stretch:normal;font-size:180px;line-height:125%;font-family:'Noto Sans Gurmukhi';-inkscape-font-specification:'Noto Sans Gurmukhi, Normal';text-align:start;writing-mode:lr-tb;text-anchor:start"
         id="path3347" />
      <path
         d="m 269.22293,896.07874 q -2.7246,14.32617 -11.25,27.77343 12.48047,6.94336 18.8086,16.34766 6.41601,9.31641 6.41601,20.12695 0,9.49219 -4.39453,17.75391 -4.39453,8.17383 -12.83203,12.65625 -8.4375,4.48242 -20.39062,4.48242 l -1.05469,0 -0.87891,-13.18359 1.9336,0 q 11.25,0 17.22656,-5.625 5.97656,-5.71289 5.97656,-15.55664 0,-8.17383 -4.6582,-15.0293 -4.6582,-6.94336 -14.15039,-11.86524 -9.31641,10.01954 -20.39063,16.25977 -11.25,-6.32812 -20.5664,-16.25977 -8.87696,4.65821 -13.79883,11.42579 -4.83399,6.76757 -4.83399,14.76562 0,10.2832 5.88868,16.08399 5.97656,5.80078 17.31445,5.80078 l 1.93359,0 -0.8789,13.18359 -1.05469,0 q -12.04102,0 -20.47852,-4.48242 -8.4375,-4.57031 -12.83203,-12.74414 -4.30664,-8.17383 -4.30664,-17.57813 0,-10.81054 6.41602,-20.39062 6.5039,-9.58008 18.89648,-16.17188 -8.96484,-13.53515 -11.33789,-27.77343 l -22.32422,0 0,-12.83204 123.92578,0 0,12.83204 -22.32422,0 z m -64.51171,0 q 3.86718,24.08203 24.87304,38.75976 10.19532,-6.76758 16.52344,-16.78711 6.41602,-10.01953 8.34961,-21.97265 l -49.74609,0 z m 64.51171,-12.83204 0,0 z m -39.63867,111.97266 0,0 z m 25.66407,0 0,0 z m -46.9336,-58.53516 0,0 z m 21.26953,0.70313 0,0 z"
         style="font-style:normal;font-variant:normal;font-weight:normal;font-stretch:normal;font-size:180px;line-height:125%;font-family:'Noto Sans Gurmukhi';-inkscape-font-specification:'Noto Sans Gurmukhi, Normal';text-align:start;writing-mode:lr-tb;text-anchor:start"
         id="path3349" />
      <path
         d="m 320.72684,995.21936 -14.50195,0 0,-99.14062 -17.31446,0 0,-12.83204 17.31446,0 0,-5.71289 q 0,-13.00781 -1.49414,-18.80859 -1.49414,-5.80078 -5.36133,-8.96484 -3.7793,-3.25196 -10.2832,-3.25196 -8.70118,0 -13.00782,4.65821 -4.30664,4.6582 -4.30664,14.32617 0,4.48242 1.05469,10.45898 l -14.0625,1.40625 q -1.23047,-8.52539 -1.23047,-12.04101 0,-14.58985 8.61328,-23.02735 8.61328,-8.4375 23.37891,-8.4375 11.95312,0 18.98437,5.18555 7.11914,5.18555 9.66797,13.44727 2.54883,8.17382 2.54883,22.5 l 0,8.26171 17.40234,0 0,12.83204 -17.40234,0 0,99.14062 z"
         style="font-style:normal;font-variant:normal;font-weight:normal;font-stretch:normal;font-size:180px;line-height:125%;font-family:'Noto Sans Gurmukhi';-inkscape-font-specification:'Noto Sans Gurmukhi, Normal';text-align:start;writing-mode:lr-tb;text-anchor:start"
         id="path3351" />
      <path
         d="m 400.09208,921.7428 0,-25.66406 -64.42383,0 0,-12.83204 137.63672,0 0,12.83204 -17.40235,0 0,99.14062 -14.50195,0 0,-99.14062 -26.80664,0 0,69.43359 q 0,11.95312 -3.60352,18.01758 -3.51562,5.97656 -9.40429,8.87695 -5.80079,2.8125 -15.11719,2.8125 -10.3711,0 -19.77539,-5.71289 -9.31641,-5.80078 -16.17188,-16.96289 -6.85547,-11.16211 -6.85547,-23.73047 0,-8.52539 4.39454,-15.20508 4.48242,-6.67969 12.1289,-9.22851 7.64649,-2.63672 21.26953,-2.63672 l 18.63282,0 z m 0,12.83203 -15.73243,0 q -10.63476,0 -15.64453,1.05469 -4.92187,0.96679 -7.73437,4.39453 -2.8125,3.33984 -2.8125,9.75586 0,7.11914 4.48242,15.29297 4.48242,8.08593 10.81055,12.74414 6.41601,4.57031 12.91992,4.57031 5.71289,0 8.4375,-1.66992 2.72461,-1.66992 3.95508,-5.00977 1.31836,-3.42773 1.31836,-12.1289 l 0,-29.00391 z"
         style="font-style:normal;font-variant:normal;font-weight:normal;font-stretch:normal;font-size:180px;line-height:125%;font-family:'Noto Sans Gurmukhi';-inkscape-font-specification:'Noto Sans Gurmukhi, Normal';text-align:start;writing-mode:lr-tb;text-anchor:start"
         id="path3353" />
      <path
         d="m 515.58036,896.07874 -15.82032,0 0,52.11914 -14.50195,0 0,-52.11914 -14.58984,0 0,-12.83204 44.91211,0 0,12.83204 z m -15.82032,-12.83204 0,0 z"
         style="font-style:normal;font-variant:normal;font-weight:normal;font-stretch:normal;font-size:180px;line-height:125%;font-family:'Noto Sans Gurmukhi';-inkscape-font-specification:'Noto Sans Gurmukhi, Normal';text-align:start;writing-mode:lr-tb;text-anchor:start"
         id="path3355" />
      <path
         d="m 469.43517,1042.6897 q -10.10742,-14.5019 -21.70899,-20.3906 -3.42773,3.5156 -7.55859,5.2734 -4.21875,1.7578 -9.14062,1.7578 -7.91016,0 -12.04102,-2.9003 -4.21875,-2.8125 -4.21875,-8.3497 0,-5.3613 4.30664,-8.1738 4.30664,-2.7246 12.30469,-2.7246 4.30664,0 9.75586,0.9668 0.26367,-1.7578 0.26367,-3.6035 l 0,-10.01939 14.50195,0 0,3.07617 q 0,10.28302 -1.8457,14.41392 13.0957,5.9766 26.10351,23.6426 l -10.72265,7.0312 z m 8.78906,-12.832 0,0 z m -30.32226,-5.0098 0,0 z"
         style="font-style:normal;font-variant:normal;font-weight:normal;font-stretch:normal;font-size:180px;line-height:125%;font-family:'Noto Sans Gurmukhi';-inkscape-font-specification:'Noto Sans Gurmukhi, Normal';text-align:start;writing-mode:lr-tb;text-anchor:start"
         id="path3357"
         inkscape:connector-curvature="0" />
      <path
         d="m 587.73856,919.54553 0,-23.46679 -74.88281,0 0,-12.83204 106.78711,0 0,12.83204 -17.40235,0 0,31.02539 -5.27343,5.27343 -31.72852,0 q -12.74414,0 -18.28125,1.49414 -5.53711,1.40625 -8.61328,4.83399 -2.98828,3.42773 -2.98828,9.84375 0,5.53711 2.46093,10.98633 2.54883,5.44922 7.64649,10.89843 8.61328,-8.87695 18.54492,-13.35937 10.01953,-4.48242 21.35742,-4.48242 11.86524,0 18.63282,5.53711 6.76757,5.44922 6.76757,14.23828 0,11.25 -8.96484,17.05078 -8.87695,5.80078 -26.54297,5.80078 -15.0293,0 -26.80664,-5.71289 -11.68945,-5.80078 -19.6875,-17.22656 -7.91016,-11.42578 -7.91016,-24.60938 0,-6.06445 2.37305,-11.51367 2.37305,-5.53711 7.64649,-9.49219 5.36132,-4.04297 12.65625,-5.53711 7.29492,-1.58203 18.89648,-1.58203 l 25.3125,0 z m -32.43164,58.88672 q 3.95508,2.19727 8.87695,3.25195 4.92188,1.05469 10.81055,1.05469 10.45898,0 15.82031,-2.28515 5.44922,-2.37305 5.44922,-7.47071 0,-3.6914 -3.16406,-5.625 -3.07617,-1.93359 -9.14063,-1.93359 -7.38281,0 -14.58984,3.25195 -7.11914,3.25195 -14.0625,9.75586 z"
         style="font-style:normal;font-variant:normal;font-weight:normal;font-stretch:normal;font-size:180px;line-height:125%;font-family:'Noto Sans Gurmukhi';-inkscape-font-specification:'Noto Sans Gurmukhi, Normal';text-align:start;writing-mode:lr-tb;text-anchor:start"
         id="path3359" />
      <path
         d="m 648.73465,995.21936 -14.50195,0 0,-99.14062 -17.31445,0 0,-12.83204 17.31445,0 0,-5.71289 q 0,-13.00781 -1.49414,-18.80859 -1.49414,-5.80078 -5.36133,-8.96484 -3.7793,-3.25196 -10.2832,-3.25196 -8.70117,0 -13.00781,4.65821 -4.30664,4.6582 -4.30664,14.32617 0,4.48242 1.05468,10.45898 l -14.0625,1.40625 q -1.23047,-8.52539 -1.23047,-12.04101 0,-14.58985 8.61329,-23.02735 8.61328,-8.4375 23.3789,-8.4375 11.95313,0 18.98438,5.18555 7.11914,5.18555 9.66797,13.44727 2.54882,8.17382 2.54882,22.5 l 0,8.26171 17.40235,0 0,12.83204 -17.40235,0 0,99.14062 z"
         style="font-style:normal;font-variant:normal;font-weight:normal;font-stretch:normal;font-size:180px;line-height:125%;font-family:'Noto Sans Gurmukhi';-inkscape-font-specification:'Noto Sans Gurmukhi, Normal';text-align:start;writing-mode:lr-tb;text-anchor:start"
         id="path3361" />
    </g>
  </g>
</svg>
