<?xml version="1.0" encoding="UTF-8" standalone="no"?>
<!-- Created with Inkscape (http://www.inkscape.org/) -->

<svg
   xmlns:dc="http://purl.org/dc/elements/1.1/"
   xmlns:cc="http://creativecommons.org/ns#"
   xmlns:rdf="http://www.w3.org/1999/02/22-rdf-syntax-ns#"
   xmlns:svg="http://www.w3.org/2000/svg"
   xmlns="http://www.w3.org/2000/svg"
   xmlns:sodipodi="http://sodipodi.sourceforge.net/DTD/sodipodi-0.dtd"
   xmlns:inkscape="http://www.inkscape.org/namespaces/inkscape"
   width="350mm"
   height="70mm"
   viewBox="0 0 1240.1575 248.03149"
   id="svg2"
   version="1.1"
   inkscape:version="0.91 r13725"
   sodipodi:docname="devanagari hastalipi-vidya (calligraphy) bad.svg">
  <defs
     id="defs4" />
  <sodipodi:namedview
     id="base"
     pagecolor="#ffffff"
     bordercolor="#666666"
     borderopacity="1.0"
     inkscape:pageopacity="0.0"
     inkscape:pageshadow="2"
     inkscape:zoom="0.98994949"
     inkscape:cx="640.96292"
     inkscape:cy="225.18755"
     inkscape:document-units="px"
     inkscape:current-layer="text3372"
     showgrid="false"
     inkscape:window-width="1920"
     inkscape:window-height="1027"
     inkscape:window-x="-8"
     inkscape:window-y="-8"
     inkscape:window-maximized="1" />
  <metadata
     id="metadata7">
    <rdf:RDF>
      <cc:Work
         rdf:about="">
        <dc:format>image/svg+xml</dc:format>
        <dc:type
           rdf:resource="http://purl.org/dc/dcmitype/StillImage" />
        <dc:title></dc:title>
      </cc:Work>
    </rdf:RDF>
  </metadata>
  <g
     inkscape:label="Layer 1"
     inkscape:groupmode="layer"
     id="layer1"
     transform="translate(0,-804.33071)">
    <g
       style="font-style:normal;font-weight:normal;font-size:40px;line-height:125%;font-family:sans-serif;letter-spacing:0px;word-spacing:0px;fill:#000000;fill-opacity:1;stroke:none;stroke-width:1px;stroke-linecap:butt;stroke-linejoin:miter;stroke-opacity:1"
       id="text3335"
       transform="translate(1.0101525,0)">
      <path
         d="m 111.66338,880.40918 -32.255861,0 0,29.17969 -39.814453,0 q -2.373047,0 -4.482422,0.8789 -2.021484,0.87891 -3.603515,2.46094 -1.494141,1.49414 -2.460938,3.51563 -0.878906,2.02148 -0.878906,4.30664 0,3.33984 1.494141,6.15234 1.582031,2.72461 4.21875,4.39453 4.30664,-2.54883 9.667968,-4.04297 5.449219,-1.49414 12.216797,-1.49414 8.4375,0 14.765625,2.46094 6.328125,2.37305 10.458985,6.32812 4.130859,3.95508 6.152343,9.14063 2.109375,5.09766 2.109375,10.54687 0,4.21875 -1.40625,7.91016 -1.318359,3.69141 -3.251953,6.76758 -1.845703,3.07617 -3.955078,5.36133 -2.021484,2.19726 -3.427734,3.51562 L 66.399707,967.77246 q 0.878906,-0.9668 2.197265,-2.19726 1.31836,-1.23047 2.548829,-2.72461 1.318359,-1.58204 2.197265,-3.42774 0.966797,-1.8457 0.966797,-3.95508 0,-2.10937 -0.791016,-4.6582 -0.703125,-2.63672 -2.8125,-4.83398 -2.021484,-2.28516 -5.800781,-3.7793 -3.691406,-1.58203 -9.667969,-1.58203 -4.921875,0 -9.404296,1.49414 -4.482422,1.40625 -7.910157,4.13086 -3.427734,2.72461 -5.537109,6.67969 -2.021484,3.86718 -2.021484,8.78906 0,8.08594 3.339843,13.88672 3.427735,5.71289 8.613282,9.93164 5.273437,4.21875 11.513671,7.20703 6.240235,3.07617 11.953125,5.625 l -6.943359,12.3926 q -4.921875,-1.4063 -10.019531,-3.6914 -5.097656,-2.1973 -9.931641,-5.3614 -4.833984,-3.07613 -9.140625,-7.1191 -4.21875,-3.95508 -7.470703,-8.96484 -3.164062,-5.00977 -5.009766,-10.98633 -1.845703,-5.97656 -1.845703,-13.00781 0,-2.10938 0.439453,-4.65821 0.439454,-2.54882 1.40625,-5.27343 1.054688,-2.8125 2.548829,-5.625 1.49414,-2.8125 3.603515,-5.53711 -4.570312,-3.69141 -7.382812,-8.87696 -2.8125,-5.18554 -2.8125,-10.89843 0,-5.00977 1.757812,-9.49219 1.757813,-4.48242 4.921875,-7.91016 3.164063,-3.42773 7.470703,-5.36133 4.394532,-2.02148 9.580078,-2.02148 l 26.982422,0 0,-15.55664 -57.0410152,0 0,-14.0625 104.7656262,0 0,14.0625 z"
         style="font-style:normal;font-variant:normal;font-weight:normal;font-stretch:normal;font-size:180px;font-family:'Mangal Sample';-inkscape-font-specification:'Mangal Sample'"
         id="path3342"
         inkscape:connector-curvature="0" />
      <path
         d="m 243.32353,880.40918 -26.80664,0 0,101.95312 -15.46875,0 0,-48.33984 -46.05468,0 q -3.42774,9.4043 -13.35938,11.51367 l 30.9375,36.5625 -11.95312,10.10742 -51.67969,-60.99609 12.04101,-10.10742 9.58008,11.42578 q 0.43946,0.52734 1.9336,0.52734 12.21679,0 12.21679,-27.77343 l 0,-24.87305 -39.19922,0 0,-14.0625 137.8125,0 0,14.0625 z m -71.89453,94.39453 0,0 z m 0,-102.04101 0,0 z m 29.61914,47.19726 0,-39.55078 -40.86914,0 0,24.87305 q 0,9.3164 -0.79101,14.67773 l 41.66015,0 z m 7.73438,-47.19726 0,0 z m 0,102.04101 0,0 z"
         style="font-style:normal;font-variant:normal;font-weight:normal;font-stretch:normal;font-size:180px;font-family:'Mangal Sample';-inkscape-font-specification:'Mangal Sample'"
         id="path3344"
         inkscape:connector-curvature="0" />
      <path
         d="m 252.72783,1015.585 -7.20703,9.58 -45.70312,-20.4785 7.20703,-9.1406 45.70312,20.0391 z"
         style="font-style:normal;font-variant:normal;font-weight:normal;font-stretch:normal;font-size:180px;font-family:'Mangal Sample';-inkscape-font-specification:'Mangal Sample'"
         id="path3346"
         inkscape:connector-curvature="0" />
      <path
         d="m 366.602,880.40918 -25.04883,0 0,101.95312 -15.46875,0 0,-56.51367 -44.29688,0 q -8.34961,0 -13.35937,4.92188 -5.00977,4.92187 -5.00977,13.00781 0,11.25 9.05274,21.70898 2.10937,2.54883 17.66601,16.43555 l -12.1289,10.45899 q -30.0586,-27.15821 -30.0586,-47.54883 0,-15.11719 8.17383,-24.08203 8.26172,-8.96485 23.29102,-8.96485 l 46.66992,0 0,-31.37695 -85.51758,0 0,-14.0625 126.03516,0 0,14.0625 z m -64.24805,107.57812 0,0 z m 0,-115.2246 0,0 z m 31.46484,0 0,0 z m 0,102.04101 0,0 z"
         style="font-style:normal;font-variant:normal;font-weight:normal;font-stretch:normal;font-size:180px;font-family:'Mangal Sample';-inkscape-font-specification:'Mangal Sample'"
         id="path3348"
         inkscape:connector-curvature="0" />
      <path
         d="m 498.26215,880.40918 -26.80664,0 0,101.95312 -15.46875,0 0,-49.57031 -34.7168,19.16016 -7.64648,-12.30469 12.48047,-7.29492 q -5.80078,-12.56836 -19.6875,-12.56836 -17.75391,0 -17.75391,17.31445 0,15.46875 24.96094,42.62696 l -13.35937,5.88867 q -12.91993,-13.97461 -18.36915,-21.88477 -9.84375,-14.32617 -9.84375,-26.01562 0,-15.73242 10.10743,-24.87305 9.40429,-8.61328 24.25781,-8.61328 10.10742,0 18.98437,5.80078 9.22852,6.06445 12.30469,15.55664 l 18.28125,-10.01953 0,-35.15625 -95.53711,0 0,-14.0625 137.8125,0 0,14.0625 z m -71.89453,94.39453 0,0 z m 0,-102.04101 0,0 z m 37.35352,0 0,0 z m 0,102.04101 0,0 z"
         style="font-style:normal;font-variant:normal;font-weight:normal;font-stretch:normal;font-size:180px;font-family:'Mangal Sample';-inkscape-font-specification:'Mangal Sample'"
         id="path3350"
         inkscape:connector-curvature="0" />
      <g
         style="font-style:normal;font-weight:normal;font-size:40px;line-height:125%;font-family:sans-serif;letter-spacing:0px;word-spacing:0px;fill:#000000;fill-opacity:1;stroke:none;stroke-width:1px;stroke-linecap:butt;stroke-linejoin:miter;stroke-opacity:1"
         id="text3372">
        <path
           d="m 559.27779,843.93445 0,0 z m 83.23242,25.22461 -5.18554,10.01953 q -53.87696,-44.29688 -93.33985,-45.17578 -11.33789,0 -18.7207,3.95508 -9.22851,5.00976 -9.22851,15.46875 0,8.78906 7.38281,12.91992 l 34.45312,0 0,14.0625 -26.63086,0 0,101.95312 -15.46875,0 0,-101.95312 -20.47851,0 0,-14.0625 9.05273,0 q -2.98828,-6.50391 -2.98828,-13.71094 0,-16.78711 12.12891,-25.40039 10.72265,-7.64648 28.125,-7.64648 26.36718,0 55.54687,16.43554 17.92969,10.3711 45.35156,33.13477 z m -83.23242,105.64453 0,0 z"
           style="font-style:normal;font-variant:normal;font-weight:normal;font-stretch:normal;font-size:180px;font-family:'Mangal Sample';-inkscape-font-specification:'Mangal Sample'"
           id="path3385"
           inkscape:connector-curvature="0" />
        <path
           d="m 665.80123,880.40906 -26.80664,0 0,101.95312 -15.46875,0 0,-42.01172 q -10.2832,6.85547 -22.93945,6.85547 -15.0293,0 -26.10352,-9.05273 -11.86523,-9.58008 -11.86523,-24.3457 l 0,-33.39844 -11.07422,0 0,-14.0625 114.25781,0 0,14.0625 z m -60.11719,94.39453 0,0 z m 0,-102.04102 0,0 z m 17.8418,50.88868 0,-43.24219 -45.43945,0 0,29.53125 q 0,10.89844 7.82226,16.96289 6.67969,5.09765 16.34766,5.09765 11.77734,0 21.26953,-8.3496 z m 7.73437,-50.88868 0,0 z m 0,102.04102 0,0 z"
           style="font-style:normal;font-variant:normal;font-weight:normal;font-stretch:normal;font-size:180px;font-family:'Mangal Sample';-inkscape-font-specification:'Mangal Sample'"
           id="path3387"
           inkscape:connector-curvature="0" />
        <path
           d="m 747.38605,843.93445 0,0 z m 94.92188,23.64258 -5.27344,8.70117 q -45.17578,-20.47852 -59.41406,-26.10352 -40.51758,-15.02929 -64.24805,-15.02929 -31.72852,0 -31.72852,18.28125 0,8.70117 6.67969,12.91992 l 35.15625,0 0,14.0625 -26.63086,0 0,101.95312 -15.46875,0 0,-101.95312 -20.47851,0 0,-14.0625 9.05273,0 q -2.98828,-6.50391 -2.98828,-13.62305 0,-33.48633 46.40625,-33.48633 27.50976,0 64.59961,16.61133 17.57812,7.4707 64.33594,31.72852 z m -94.92188,107.22656 0,0 z"
           style="font-style:normal;font-variant:normal;font-weight:normal;font-stretch:normal;font-size:180px;font-family:'Mangal Sample';-inkscape-font-specification:'Mangal Sample'"
           id="path3389"
           inkscape:connector-curvature="0" />
        <path
           d="m 780.09878,942.23037 -50.09766,0 0,-16.52344 50.09766,0 0,16.52344 z"
           style="font-style:normal;font-variant:normal;font-weight:normal;font-stretch:normal;font-size:180px;font-family:'Mangal Sample';-inkscape-font-specification:'Mangal Sample'"
           id="path3393"
           inkscape:connector-curvature="0" />
        <path
           d="m 900.33316,880.26748 -26.8066,0 0,101.95312 -15.4688,0 0,-26.27929 q -3.6914,2.8125 -7.3828,4.6582 -3.6914,1.8457 -7.4707,2.98828 -3.7793,1.05469 -7.6465,1.49414 -3.7793,0.43945 -7.6465,0.43945 -7.1191,0 -13.3594,-2.72461 -6.24019,-2.7246 -10.8105,-7.38281 -4.57031,-4.74609 -7.20703,-10.98633 -2.63672,-6.32812 -2.63672,-13.53515 0,-7.38281 2.90039,-13.44727 2.90039,-6.15234 7.99805,-10.54687 5.09761,-4.39453 12.04101,-6.76758 7.0313,-2.46094 15.2051,-2.46094 4.4824,0 8.3496,0.70313 3.9551,0.70312 7.207,1.75781 3.3399,0.9668 5.9766,2.10937 2.6367,1.14258 4.4824,2.10938 l 0,-24.08203 -71.98242,0 0,-14.0625 114.25782,0 0,14.0625 z m -42.2754,37.88086 q -2.373,-1.31836 -5.4492,-2.63672 -3.0762,-1.31836 -6.5039,-2.46094 -3.3399,-1.14258 -6.8555,-1.8457 -3.5156,-0.70313 -6.6797,-0.70313 -8.5254,0 -13.4472,2.37305 -4.9219,2.37305 -7.4707,5.71289 -2.461,3.33984 -3.16411,6.94336 -0.61523,3.60352 -0.61523,6.15234 0,4.30664 1.66994,8.08594 1.6699,3.69141 4.5703,6.50391 2.9004,2.72461 6.8555,4.30664 3.955,1.58203 8.4375,1.58203 5.8886,0 10.7226,-1.58203 4.9219,-1.66992 8.6133,-3.7793 3.6914,-2.19726 6.0645,-4.30664 2.373,-2.19727 3.2519,-3.25195 l 0,-21.09375 z"
           style="font-style:normal;font-variant:normal;font-weight:normal;font-stretch:normal;font-size:180px;font-family:'Mangal Sample';-inkscape-font-specification:'Mangal Sample'"
           id="path3395"
           inkscape:connector-curvature="0" />
        <path
           d="m 946.73936,843.79287 0,0 z m 78.66234,25.3125 -5.3614,10.54687 q -24.34584,-21.88476 -34.98054,-29.61914 -22.3243,-16.69922 -38.3204,-16.69922 -13.2714,0 -22.3242,6.24024 -9.7558,6.67969 -9.7558,17.57812 0,5.71289 4.9218,9.05274 l 37.002,0 0,14.0625 -26.6309,0 0,101.95312 -15.4687,0 0,-101.95312 -20.4785,0 0,-14.0625 8.3496,0 q -2.1094,-5.18555 -2.1094,-10.19531 0,-16.61133 14.4141,-27.33399 13.2715,-9.75586 30.8496,-9.75586 20.3027,0 43.1543,17.40235 9.93158,7.20703 36.73844,32.7832 z m -78.66234,105.55664 0,0 z"
           style="font-style:normal;font-variant:normal;font-weight:normal;font-stretch:normal;font-size:180px;font-family:'Mangal Sample';-inkscape-font-specification:'Mangal Sample'"
           id="path3397"
           inkscape:connector-curvature="0" />
        <path
           d="m 1059.9427,880.26748 -36.211,0 0,34.45312 -19.1602,0 q -16.78714,0 -23.99424,4.21875 -10.2832,5.88867 -10.2832,22.58789 0,9.4043 6.2403,15.90821 6.2402,6.41601 15.205,6.41601 7.64648,0 15.29314,-4.21875 8.2617,-4.57031 8.2617,-10.10742 0,-1.23047 -1.582,-7.20703 l 15.293,-3.60352 14.5898,55.72266 -15.2051,3.95508 -8.5254,-32.08008 q -8.1738,12.2168 -28.47664,12.2168 -16.1719,0 -26.6309,-10.72266 -10.3711,-10.72266 -10.3711,-26.98242 0,-19.59961 11.6016,-30.41016 11.9531,-11.07422 34.18934,-11.07422 l 8.0862,0 0,-19.07226 -58.00794,0 0,-14.0625 109.68764,0 0,14.0625 z m -43.9453,-7.64649 0,0 z m -13.887,0 0,0 z m 0,102.04102 0,0 z m 31.553,13.18359 0,0 z m 49.5703,38.8477 -7.207,9.5801 -45.7032,-20.4785 7.2071,-9.1406 45.7031,20.039 z"
           style="font-style:normal;font-variant:normal;font-weight:normal;font-stretch:normal;font-size:180px;font-family:'Mangal Sample';-inkscape-font-specification:'Mangal Sample'"
           id="path3399"
           inkscape:connector-curvature="0" />
        <path
           d="m 1181.9349,880.26748 -26.8067,0 0,101.95312 -15.4687,0 0,-31.28906 q -13.8868,8.87695 -30.586,8.87695 -27.334,0 -47.9883,-34.10156 2.461,-3.7793 6.504,-9.49219 4.8339,1.84571 9.4043,1.84571 8.9648,0 14.3261,-5.00977 5.3614,-5.09766 5.3614,-13.71094 0,-5.53711 -4.3067,-12.04101 -4.6582,-7.03125 -9.7558,-7.03125 l -29.004,0 0,-14.0625 128.3204,0 0,14.0625 z m -67.1485,94.39453 0,0 z m 0,-102.04102 0,0 z m 24.8731,60.46875 0,-52.82226 -34.9805,0 q 7.8223,7.99804 7.8223,19.24804 0,12.74415 -9.0528,21.97266 -9.0527,9.14063 -21.9726,9.14063 3.5156,5.53711 11.8652,9.66796 8.3496,4.04297 15.9082,4.04297 16.2598,0 30.4102,-11.25 z m 7.7343,-60.46875 0,0 z m 0,102.04102 0,0 z"
           style="font-style:normal;font-variant:normal;font-weight:normal;font-stretch:normal;font-size:180px;font-family:'Mangal Sample';-inkscape-font-specification:'Mangal Sample'"
           id="path3401"
           inkscape:connector-curvature="0" />
        <path
           d="m 1164.7962,872.62099 0,0 z m 64.0723,7.64649 -26.8067,0 0,101.95312 -15.4687,0 0,-101.95312 -10.9864,0 0,-14.0625 53.2618,0 0,14.0625 z m -64.0723,94.39453 0,0 z m 28.3887,-102.04102 0,0 z"
           style="font-style:normal;font-variant:normal;font-weight:normal;font-stretch:normal;font-size:180px;font-family:'Mangal Sample';-inkscape-font-specification:'Mangal Sample'"
           id="path3403"
           inkscape:connector-curvature="0" />
      </g>
      <flowRoot
         xml:space="preserve"
         id="flowRoot3376"
         style="font-style:normal;font-weight:normal;font-size:40px;line-height:125%;font-family:sans-serif;letter-spacing:0px;word-spacing:0px;fill:#000000;fill-opacity:1;stroke:none;stroke-width:1px;stroke-linecap:butt;stroke-linejoin:miter;stroke-opacity:1"
         transform="translate(0,804.33071)"><flowRegion
           id="flowRegion3378"><rect
             id="rect3380"
             width="1098.5714"
             height="344.28571"
             x="508.57144"
             y="-57.682793" /></flowRegion><flowPara
           id="flowPara3382"></flowPara></flowRoot>    </g>
  </g>
</svg>
