<?xml version="1.0" encoding="UTF-8" standalone="no"?>
<!-- Created with Inkscape (http://www.inkscape.org/) -->

<svg
   xmlns:dc="http://purl.org/dc/elements/1.1/"
   xmlns:cc="http://creativecommons.org/ns#"
   xmlns:rdf="http://www.w3.org/1999/02/22-rdf-syntax-ns#"
   xmlns:svg="http://www.w3.org/2000/svg"
   xmlns="http://www.w3.org/2000/svg"
   xmlns:sodipodi="http://sodipodi.sourceforge.net/DTD/sodipodi-0.dtd"
   xmlns:inkscape="http://www.inkscape.org/namespaces/inkscape"
   width="240mm"
   height="60mm"
   viewBox="0 0 850.3937 212.59842"
   id="svg3353"
   version="1.1"
   inkscape:version="0.91 r13725"
   sodipodi:docname="arabic fan alkhatt (calligraphy) bad.svg">
  <defs
     id="defs3355" />
  <sodipodi:namedview
     id="base"
     pagecolor="#ffffff"
     bordercolor="#666666"
     borderopacity="1.0"
     inkscape:pageopacity="0.0"
     inkscape:pageshadow="2"
     inkscape:zoom="1.979899"
     inkscape:cx="516.28609"
     inkscape:cy="69.128559"
     inkscape:document-units="px"
     inkscape:current-layer="text3361"
     showgrid="false"
     inkscape:window-width="1920"
     inkscape:window-height="1027"
     inkscape:window-x="-8"
     inkscape:window-y="-8"
     inkscape:window-maximized="1" />
  <metadata
     id="metadata3358">
    <rdf:RDF>
      <cc:Work
         rdf:about="">
        <dc:format>image/svg+xml</dc:format>
        <dc:type
           rdf:resource="http://purl.org/dc/dcmitype/StillImage" />
        <dc:title></dc:title>
      </cc:Work>
    </rdf:RDF>
  </metadata>
  <g
     inkscape:label="Layer 1"
     inkscape:groupmode="layer"
     id="layer1"
     transform="translate(0,-839.76378)">
    <g
       style="font-style:normal;font-weight:normal;font-size:40px;line-height:125%;font-family:sans-serif;letter-spacing:0px;word-spacing:0px;fill:#000000;fill-opacity:1;stroke:none;stroke-width:1px;stroke-linecap:butt;stroke-linejoin:miter;stroke-opacity:1"
       id="text3361">
      <path
         d="m 791.99027,947.30774 q 3.6035,-3.7793 3.6035,-10.54688 0,-5.18554 -5.8008,-9.66796 -2.7246,-2.19727 -6.5918,-2.10938 -4.5703,0.0879 -8.0859,3.7793 -3.5156,3.60351 -3.6035,8.08593 0,7.03125 4.834,10.3711 3.5156,2.19726 7.207,2.19726 6.3281,0 8.4375,-2.10937 z m 13.6231,27.94922 q -9.668,15.82031 -37.5293,21.97265 -23.99418,5.36129 -49.21879,5.36129 -25.92774,0 -37.35352,-3.60347 -28.91601,-8.78907 -29.00391,-32.08008 -0.0879,-12.12891 5.53711,-20.21485 l 16.17188,0 q -5.71289,8.26172 -5.71289,20.21485 0,10.19531 17.8418,16.875 7.91015,2.98828 32.51953,2.98828 28.21289,0 46.58199,-5.00977 18.8965,-5.18554 27.6856,-14.67773 3.0762,-3.33984 4.834,-10.19531 -5.5371,6.59179 -16.2598,6.59179 -11.6894,0 -18.2812,-5.88867 -8.61333,-7.64648 -8.61333,-18.98437 0,-4.57032 0.70313,-8.4375 2.02148,-13.00782 15.2051,-19.07227 6.8554,-3.16406 13.5351,-3.16406 7.9102,0 13.711,4.39453 8.4375,6.32813 12.4804,15.29297 2.1094,4.74609 2.0215,16.78711 -0.1758,19.86328 -6.8554,30.84961 z m -30.4981,-95.00977 13.1836,0 0,13.1836 -13.1836,0 0,-13.1836 z"
         style="font-size:180px"
         id="path3368"
         inkscape:connector-curvature="0" />
      <path
         d="m 627.99671,967.08313 q 0,15.20508 -8.78906,30.84961 -9.66797,17.31446 -31.55274,23.29106 -8.52539,2.373 -15.55664,2.373 -11.60156,0 -21.18164,-3.252 -28.82812,-9.3164 -28.82812,-40.60542 0,-20.6543 4.13086,-27.77344 l 16.17187,0 q -4.30664,12.65625 -4.30664,27.77344 0,20.83012 17.66602,25.40042 8.17383,2.1093 16.34765,2.1093 6.67969,0 12.91993,-1.7578 16.96289,-4.6582 23.64257,-24.16989 2.98828,-8.61328 2.98828,-17.05078 0,-16.17188 -8.96484,-35.68359 l 16.17188,0 q 9.14062,13.71093 9.14062,38.49609 z m -68.29101,-56.07422 13.18359,0 0,13.18359 -13.18359,0 0,-13.18359 z"
         style="font-size:180px"
         id="path3370"
         inkscape:connector-curvature="0" />
      <path
         d="m 418.90491,857.74719 16.17188,0 0,136.75781 -16.17188,0 0,-136.75781 z"
         style="font-size:180px"
         id="path3372"
         inkscape:connector-curvature="0" />
      <path
         d="m 370.62779,988.08899 q 6.85547,-11.07422 6.85547,-31.02539 l 0,-99.31641 16.17187,0 0,99.31641 q 0,27.86133 -8.61328,40.51758 -10.63477,15.55662 -33.57422,21.35742 -11.77734,2.9883 -19.24805,2.9883 -8.34961,0 -14.76562,-1.9336 -25.66406,-8.086 -25.75195,-32.08009 -0.0879,-12.12891 5.53711,-20.21485 l 16.17187,0 q -5.71289,10.10743 -5.71289,20.21485 0,11.42578 14.58984,16.87499 3.51563,1.4063 9.93164,1.4063 7.03125,0 16.61133,-2.9883 15.29297,-4.65823 21.79688,-15.11721 z"
         style="font-size:180px"
         id="path3374"
         inkscape:connector-curvature="0" />
      <path
         d="m 173.45843,923.57727 q 24.25781,-5.53711 41.39648,-5.53711 25.66407,0 42.89063,4.74609 l 0,13.53516 q -25.83985,0 -44.73633,14.67774 -19.6875,15.29296 -19.6875,38.23242 0,11.86523 6.50391,20.30273 11.16211,14.4141 40.2539,14.4141 16.96289,0 35.59571,-10.3711 l 0,16.1718 q -13.1836,8.7012 -35.15625,8.7012 -36.73829,0 -51.5918,-17.0508 -11.51367,-13.1836 -11.51367,-32.87106 0,-22.67578 18.63281,-42.27539 8.4375,-8.87695 20.47852,-13.44726 -8.87696,0 -22.85157,1.66992 -11.07422,1.31836 -20.21484,5.27344 l 0,-16.17188 z m 36.73828,-34.54102 13.18359,0 0,13.1836 -13.18359,0 0,-13.1836 z"
         style="font-size:180px"
         id="path3376"
         inkscape:connector-curvature="0" />
      <path
         d="m 71.784319,978.33313 16.435547,0 q 20.830074,0 32.167964,-5.53711 16.43555,-8.17383 16.34766,-14.15039 -0.17578,-11.86523 -12.2168,-13.53516 -3.25195,-0.43945 -7.4707,-0.43945 -7.03125,0 -17.753905,7.11914 -15.556641,10.54688 -27.509766,26.54297 z m 22.236328,16.17187 -50.537109,0 -32.25586,0 0,-16.17187 32.25586,0 0,-120.58594 16.171875,0 0,111.26953 q 19.072265,-28.03711 43.330077,-36.73828 8.08594,-2.90039 14.0625,-2.90039 10.54688,0 19.51172,3.42774 16.34766,6.06445 16.34766,26.71875 0,14.85351 -16.17188,24.43359 Q 118.98158,994.505 94.020647,994.505 Z"
         style="font-size:180px"
         id="path3378" />
    </g>
  </g>
</svg>
