<?xml version="1.0" encoding="UTF-8" standalone="no"?>
<!-- Created with Inkscape (http://www.inkscape.org/) -->

<svg
   xmlns:dc="http://purl.org/dc/elements/1.1/"
   xmlns:cc="http://creativecommons.org/ns#"
   xmlns:rdf="http://www.w3.org/1999/02/22-rdf-syntax-ns#"
   xmlns:svg="http://www.w3.org/2000/svg"
   xmlns="http://www.w3.org/2000/svg"
   xmlns:sodipodi="http://sodipodi.sourceforge.net/DTD/sodipodi-0.dtd"
   xmlns:inkscape="http://www.inkscape.org/namespaces/inkscape"
   width="130mm"
   height="70mm"
   viewBox="0 0 460.62992 248.03149"
   id="svg3344"
   version="1.1"
   inkscape:version="0.91 r13725"
   sodipodi:docname="arabic aniq (elegant) bad.svg">
  <defs
     id="defs3346" />
  <sodipodi:namedview
     id="base"
     pagecolor="#ffffff"
     bordercolor="#666666"
     borderopacity="1.0"
     inkscape:pageopacity="0.0"
     inkscape:pageshadow="2"
     inkscape:zoom="1.979899"
     inkscape:cx="245.24649"
     inkscape:cy="127.28028"
     inkscape:document-units="px"
     inkscape:current-layer="layer1"
     showgrid="false"
     inkscape:window-width="1920"
     inkscape:window-height="1027"
     inkscape:window-x="-8"
     inkscape:window-y="-8"
     inkscape:window-maximized="1" />
  <metadata
     id="metadata3349">
    <rdf:RDF>
      <cc:Work
         rdf:about="">
        <dc:format>image/svg+xml</dc:format>
        <dc:type
           rdf:resource="http://purl.org/dc/dcmitype/StillImage" />
        <dc:title></dc:title>
      </cc:Work>
    </rdf:RDF>
  </metadata>
  <g
     inkscape:label="Layer 1"
     inkscape:groupmode="layer"
     id="layer1"
     transform="translate(0,-804.33071)">
    <text
       xml:space="preserve"
       style="font-style:normal;font-weight:normal;font-size:40px;line-height:125%;font-family:sans-serif;letter-spacing:0px;word-spacing:0px;fill:#000000;fill-opacity:1;stroke:none;stroke-width:1px;stroke-linecap:butt;stroke-linejoin:miter;stroke-opacity:1"
       x="32.324883"
       y="995.79364"
       id="text3352"
       sodipodi:linespacing="125%"><tspan
         sodipodi:role="line"
         id="tspan3354"
         x="32.324883"
         y="995.79364"
         style="font-size:180px" /></text>
    <g
       style="font-style:normal;font-weight:normal;font-size:40px;line-height:125%;font-family:sans-serif;letter-spacing:0px;word-spacing:0px;fill:#000000;fill-opacity:1;stroke:none;stroke-width:1px;stroke-linecap:butt;stroke-linejoin:miter;stroke-opacity:1"
       id="text3369"
       transform="translate(10.606602,8.5862966)">
      <path
         d="m 394.6355,837.35382 6.85547,-1.58203 q -3.86719,-1.75781 -5.27344,-4.92188 -1.40625,-3.25195 -1.40625,-7.20703 0,-8.4375 4.92187,-12.21679 5.09766,-3.95508 13.1836,-3.95508 5.44922,0 10.01953,2.90039 l 0,8.78906 q -4.39453,-2.90039 -10.01953,-2.90039 -5.80078,0 -7.29492,1.58203 -2.54883,2.8125 -2.54883,5.09766 0,6.76758 8.26172,9.14062 2.90039,0.87891 13.44726,-1.66992 l 0,8.96485 -30.14648,6.76757 0,-8.78906 z m 7.4707,13.0957 16.17188,0 0,136.75782 -16.17188,0 0,-136.75782 z"
         style="font-size:180px"
         id="path3380"
         inkscape:connector-curvature="0" />
      <path
         d="m 384.17978,959.78546 q 0,15.20508 -8.78907,30.84961 -9.66796,17.31443 -31.55273,23.29103 -8.52539,2.373 -15.55664,2.373 -11.60156,0 -21.18164,-3.2519 -28.82813,-9.3164 -28.82813,-40.60549 0,-20.6543 4.13086,-27.77344 l 16.17188,0 q -4.30664,12.65625 -4.30664,27.77344 0,20.83008 17.66601,25.40039 8.17383,2.10938 16.34766,2.10938 6.67969,0 12.91992,-1.75782 16.96289,-4.6582 23.64258,-24.16992 2.98828,-8.61328 2.98828,-17.05078 0,-16.17187 -8.96484,-35.68359 l 16.17187,0 q 9.14063,13.71094 9.14063,38.49609 z m -68.29102,-56.07422 13.1836,0 0,13.1836 -13.1836,0 0,-13.1836 z"
         style="font-size:180px"
         id="path3382"
         inkscape:connector-curvature="0" />
      <path
         d="m 249.75845,986.15265 q -8.96485,14.94145 -39.11133,21.35745 -15.55664,3.3398 -26.10352,3.3398 -11.33789,0 -17.66601,-2.2851 -25.75196,-9.14067 -25.75196,-32.08012 0,-10.2832 5.53711,-20.21484 l 16.17188,0 q -5.80078,11.51367 -5.71289,20.21484 0.17578,12.91992 14.58984,16.875 8.52539,2.28516 13.88672,1.75781 11.07422,-0.96679 22.41211,-3.07617 15.55664,-2.90039 22.93945,-9.93164 5.18555,-4.92187 5.18555,-9.58008 0,-6.5039 -11.07422,-9.05273 -5.80078,-1.31836 -15.82031,-5.36133 -5.88867,-2.37305 -10.98633,-6.85547 -5.625,-5.00976 -5.71289,-15.11719 0,-13.18359 16.69922,-19.6875 8.34961,-3.25195 17.49023,-3.25195 9.14063,0 17.57813,3.69141 12.39258,5.36132 14.76562,20.5664 l -16.17187,0 q -1.14258,-5.36133 -6.94336,-8.26172 -3.51563,-1.75781 -9.58008,-1.93359 -6.85547,-0.17578 -12.30469,3.25195 -5.27344,3.33985 -5.27344,6.32813 0,4.83398 10.98633,8.52539 21.79688,7.29492 26.80664,12.91992 6.76758,7.4707 6.94336,15.29297 0.0879,5.97656 -3.77929,12.56836 z m -54.14063,31.81645 13.18359,0 0,13.1835 -13.18359,0 0,-13.1835 z m -21.97266,0 13.1836,0 0,13.1835 -13.1836,0 0,-13.1835 z"
         style="font-size:180px"
         id="path3384"
         inkscape:connector-curvature="0" />
      <path
         d="m 105.77578,940.01007 q 3.60351,-3.7793 3.60351,-10.54687 0,-5.18555 -5.80078,-9.66797 -2.72461,-2.19727 -6.591796,-2.10938 -4.570312,0.0879 -8.085937,3.7793 -3.515625,3.60351 -3.603516,8.08594 0,7.03125 4.833985,10.37109 3.515625,2.19727 7.207031,2.19727 6.328123,0 8.437503,-2.10938 z m -58.359378,69.08203 q 21.09375,0 35.332031,-10.10742 29.003907,-20.56641 29.003907,-49.39453 -5.53711,6.5918 -16.259766,6.5918 -11.689453,0 -18.28125,-5.88868 -8.613281,-7.64648 -8.613281,-18.98437 0,-4.57031 0.703125,-8.4375 2.021484,-13.00781 15.205078,-19.07227 6.855468,-3.16406 13.535156,-3.16406 8.701168,0 13.710938,4.39453 9.05273,7.91016 12.48047,18.36914 2.90039,8.96485 2.90039,23.02735 0,17.92968 -5.27344,30.23437 -8.08594,18.7207 -29.443358,35.33204 -18.105469,13.9746 -45,13.8867 -18.544922,-0.088 -30.234375,-16.875 -6.767578,-9.66796 -6.767578,-24.96093 0,-15.82031 7.207031,-34.80468 l 16.083984,0 q -7.470703,16.25976 -7.734375,29.88281 -0.08789,5.27344 0.966797,9.84375 4.658203,20.12695 20.478516,20.12695 z m 50.273437,-136.14258 13.183591,0 0,13.1836 -13.183591,0 0,-13.1836 z m -21.972656,0 13.183594,0 0,13.1836 -13.183594,0 0,-13.1836 z"
         style="font-size:180px"
         id="path3386"
         inkscape:connector-curvature="0" />
    </g>
  </g>
</svg>
