<?xml version="1.0" encoding="UTF-8" standalone="no"?>
<!-- Created with Inkscape (http://www.inkscape.org/) -->

<svg
   xmlns:dc="http://purl.org/dc/elements/1.1/"
   xmlns:cc="http://creativecommons.org/ns#"
   xmlns:rdf="http://www.w3.org/1999/02/22-rdf-syntax-ns#"
   xmlns:svg="http://www.w3.org/2000/svg"
   xmlns="http://www.w3.org/2000/svg"
   xmlns:sodipodi="http://sodipodi.sourceforge.net/DTD/sodipodi-0.dtd"
   xmlns:inkscape="http://www.inkscape.org/namespaces/inkscape"
   width="220mm"
   height="60mm"
   viewBox="0 0 779.52756 212.59842"
   id="svg3488"
   version="1.1"
   inkscape:version="0.91 r13725"
   sodipodi:docname="latin elegant without.svg">
  <defs
     id="defs3490" />
  <sodipodi:namedview
     id="base"
     pagecolor="#ffffff"
     bordercolor="#666666"
     borderopacity="1.0"
     inkscape:pageopacity="0.0"
     inkscape:pageshadow="2"
     inkscape:zoom="1.4"
     inkscape:cx="393.2302"
     inkscape:cy="136.53271"
     inkscape:document-units="px"
     inkscape:current-layer="text3511"
     showgrid="false"
     inkscape:window-width="1920"
     inkscape:window-height="1027"
     inkscape:window-x="-8"
     inkscape:window-y="-8"
     inkscape:window-maximized="1" />
  <metadata
     id="metadata3493">
    <rdf:RDF>
      <cc:Work
         rdf:about="">
        <dc:format>image/svg+xml</dc:format>
        <dc:type
           rdf:resource="http://purl.org/dc/dcmitype/StillImage" />
        <dc:title></dc:title>
      </cc:Work>
    </rdf:RDF>
  </metadata>
  <g
     inkscape:label="Layer 1"
     inkscape:groupmode="layer"
     id="layer1"
     transform="translate(0,-839.76378)">
    <g
       style="font-style:normal;font-weight:normal;font-size:180px;line-height:125%;font-family:sans-serif;letter-spacing:0px;word-spacing:0px;fill:#000000;fill-opacity:1;stroke:none;stroke-width:1px;stroke-linecap:butt;stroke-linejoin:miter;stroke-opacity:1"
       id="text3511">
      <path
         d="m 89.045743,949.29384 49.319997,0.54 c 3.06,0 5.58,-2.16 5.58,-5.22 l 0,-0.9 c 0,-25.56 -19.08,-42.84 -47.699997,-42.84 -30.239999,0 -54.719999,24.12 -54.719999,54 0,32.94 21.6,54.90006 54.179999,54.90006 22.499997,0 39.779997,-10.44006 48.419997,-27.90006 l -2.88,-1.8 c -7.92,16.56 -24.3,26.46006 -45.539997,26.46006 -21.419999,0 -38.879999,-24.30006 -38.879999,-54.54006 0,-28.62 15.48,-47.88 38.699999,-47.88 19.979997,0 33.479997,15.84 33.479997,39.6 0,1.08 -0.36,1.62 -1.44,1.62 l -38.519997,0 c -11.879999,0 -21.239999,8.46 -21.239999,18.72 0,4.5 3.42,8.1 7.74,8.1 l 0,-10.26 c 0,-7.02 5.939999,-12.6 13.499999,-12.6 z"
         style="font-style:normal;font-variant:normal;font-weight:500;font-stretch:normal;font-family:FoglihtenNo07;-inkscape-font-specification:'FoglihtenNo07 Medium'"
         id="path3516"
         inkscape:connector-curvature="0" />
      <path
         d="m 162.00842,986.37384 c 0,12.96 8.82,23.40006 19.44,23.40006 9.9,0 16.56,-6.3 16.56,-15.84006 0,-1.98 -0.36,-3.96 -1.08,-5.94 l -1.44,0.72 c 0.54,1.62 0.9,3.42 0.9,5.22 0,6.47996 -4.32,10.62006 -10.44,10.62006 -6.3,0 -11.7,-4.86006 -11.7,-10.98006 0,-2.16 0.54,-4.68 1.8,-7.38 l 0,-111.42 0,-15.3 -1.44,0 0,0.72 c 0,7.38 -9,9.54 -16.2,9.54 l -10.26,0 0,1.62 8.46,0 c 3.42,0 5.4,2.16 5.4,5.4 l 0,109.62 z"
         style="font-style:normal;font-variant:normal;font-weight:500;font-stretch:normal;font-family:FoglihtenNo07;-inkscape-font-specification:'FoglihtenNo07 Medium'"
         id="path3518"
         inkscape:connector-curvature="0" />
      <path
         d="m 253.82811,949.29384 49.32,0.54 c 3.06,0 5.58,-2.16 5.58,-5.22 l 0,-0.9 c 0,-25.56 -19.08,-42.84 -47.7,-42.84 -30.24,0 -54.72,24.12 -54.72,54 0,32.94 21.6,54.90006 54.18,54.90006 22.5,0 39.78,-10.44006 48.42,-27.90006 l -2.88,-1.8 c -7.92,16.56 -24.3,26.46006 -45.54,26.46006 -21.42,0 -38.88,-24.30006 -38.88,-54.54006 0,-28.62 15.48,-47.88 38.7,-47.88 19.98,0 33.48,15.84 33.48,39.6 0,1.08 -0.36,1.62 -1.44,1.62 l -38.52,0 c -11.88,0 -21.24,8.46 -21.24,18.72 0,4.5 3.42,8.1 7.74,8.1 l 0,-10.26 c 0,-7.02 5.94,-12.6 13.5,-12.6 z"
         style="font-style:normal;font-variant:normal;font-weight:500;font-stretch:normal;font-family:FoglihtenNo07;-inkscape-font-specification:'FoglihtenNo07 Medium'"
         id="path3520"
         inkscape:connector-curvature="0" />
      <path
         d="m 374.14686,903.93384 c 20.16,0 36.72,15.66 36.72,34.92 0,20.52 -14.76,34.02 -36.72,34.02 -19.62,0 -35.46,-17.28 -35.46,-38.88 0,-18 14.04,-30.06 35.46,-30.06 z m -45,107.64006 c 0,-6.3 6.3,-11.70006 14.4,-11.70006 4.32,0 8.1,-3.42 8.1,-7.74 l -3.6,0 c -12.24,0 -22.14,8.81996 -22.14,19.44006 0,16.2 22.14,28.8 52.74,28.8 26.1,0 49.14,-13.68 49.14,-29.7 0,-20.16006 -16.02,-22.14006 -32.4,-22.14006 l -11.16,0 c -12.6,0 -23.22,-1.08 -23.22,-12.42 l 0,-1.08 c 3.96,0.72 8.28,1.08 12.96,1.08 28.08,0 50.94,-17.64 50.94,-39.6 0,-5.76 -1.62,-11.16 -4.5,-15.84 -1.26,-2.16 -1.8,-4.5 -1.8,-6.84 0,-5.58 3.06,-10.98 7.92,-13.68 2.16,-1.26 3.06,-3.24 3.06,-5.4 0,-1.8 -0.54,-3.6 -1.62,-5.22 l -3.06,1.8 c -6.84,3.96 -10.62,11.34 -10.62,18.9 0,1.26 0.18,2.34 0.36,3.6 -9,-8.1 -23.22,-12.96 -40.68,-12.96 -27.36,0 -49.32,16.02 -49.32,35.64 0,19.26 12.6,33.12 33.12,37.98 l 0,1.62 c 0,25.19996 23.58,25.56006 42.84,25.74006 12.96,0 23.94,1.08 23.94,8.82 0,10.08 -21.6,17.64 -45.9,17.64 -28.62,0 -49.5,-7.02 -49.5,-16.74 z"
         style="font-style:normal;font-variant:normal;font-weight:500;font-stretch:normal;font-family:FoglihtenNo07;-inkscape-font-specification:'FoglihtenNo07 Medium'"
         id="path3522"
         inkscape:connector-curvature="0" />
      <path
         d="m 518.11592,931.29384 0,36.36 c 0,20.7 -15.84,37.26006 -35.1,37.26006 -15.3,0 -25.38,-9.72006 -25.38,-24.30006 0,-17.46 9.18,-29.16 23.04,-29.16 10.26,0 18.72,7.74 18.72,16.92 l 0,8.46 c 4.32,0 7.74,-3.6 7.74,-8.1 0,-11.16 -11.88,-20.52 -26.46,-20.52 -22.5,0 -37.44,13.32 -37.44,32.94 0,17.28 14.94,28.62006 37.62,28.62006 12.96,0 33.84,-7.56 39.24,-29.16006 l 1.8,0 c 0,2.88 0.54,7.2 1.44,11.7 0.9,5.76 1.98,11.88006 1.98,16.20006 l 0,1.44 c 5.04,-1.62 10.8,-3.06 19.62,-3.96 l -0.18,-1.62 -3.06,0.18 c 0,0 -2.52,0.18 -3.6,0.18 -5.4,0 -5.94,-1.98 -5.94,-9.18006 l 0,-61.92 c 0,-19.62 -18.54,-32.76 -46.26,-32.76 -10.8,0 -19.26,3.78 -24.84,7.92 -1.26,0.9 -2.7,3.6 -2.88,4.14 l -1.26,-0.36 c 0.36,-1.26 0.54,-3.24 0.72,-5.76 l 0.54,-9.54 -1.8,0 -1.98,42.48 3.06,0 0.54,-11.16 c 0.72,-13.86 10.26,-24.48 28.08,-24.48 19.08,0 32.04,10.98 32.04,27.18 z"
         style="font-style:normal;font-variant:normal;font-weight:500;font-stretch:normal;font-family:FoglihtenNo07;-inkscape-font-specification:'FoglihtenNo07 Medium'"
         id="path3524"
         inkscape:connector-curvature="0" />
      <path
         d="m 549.79645,1008.3339 45.9,0 0,-1.62 -6.3,0 c -8.64,0 -9.72,-0.9 -9.72,-9.54006 l 0,-49.32 c 0,-26.28 14.04,-43.92 32.4,-43.92 12.6,0 17.64,9.54 17.64,27.18 l 0,55.8 c 0,12.96 8.64,23.40006 19.44,23.40006 9.9,0 16.56,-6.3 16.56,-15.84006 0,-8.1 -5.22,-14.94 -10.26,-18 -4.32,0 -7.02,1.08 -7.02,2.7 8.28,1.08 15.66,5.58 15.66,15.3 0,6.47996 -4.32,10.62006 -10.44,10.62006 -7.02,0 -11.7,-4.3201 -11.7,-10.98006 0,-2.16 0.54,-4.68 1.8,-7.38 l 0,-58.68 c 0,-16.2 -10.8,-27.18 -30.24,-27.18 -14.94,0 -27.72,9.9 -32.94,25.2 -1.08,3.24 -2.52,8.46 -2.88,11.7 l -1.26,0 c 0.18,-1.62 0.36,-16.02 0.36,-18.9 l 0,-23.58 -1.44,0 0,0.72 c 0,7.38 -6.12,11.7 -13.32,13.14 l -13.86,2.88 0.18,1.08 10.62,-0.9 c 0.18,0 0.36,0 0.54,0 3.6,0 6.12,2.7 6.12,5.76 l 0,79.2 c 0,8.64006 -0.9,9.54006 -9.54,9.54006 l -6.3,0 0,1.62 z"
         style="font-style:normal;font-variant:normal;font-weight:500;font-stretch:normal;font-family:FoglihtenNo07;-inkscape-font-specification:'FoglihtenNo07 Medium'"
         id="path3526"
         inkscape:connector-curvature="0" />
      <path
         d="m 748.84904,983.85384 c 0,-15.66 -13.32,-28.44 -29.34,-28.44 l -3.6,0 c 0,4.32 3.6,7.74 8.1,7.74 11.88,0 21.6,9.36 21.6,20.7 0,12.6 -10.98,22.68006 -24.3,22.68006 -10.8,0 -18,-7.02006 -18,-17.64006 l 0,-79.92 44.82,0 0,-4.86 -47.16,0 0,-0.18 c 1.44,-0.72 2.34,-3.78 2.34,-7.56 l 0,-38.88 -1.8,0 0,20.88 c 0,3.96 -6.12,25.74 -22.32,25.74 l -13.5,0 0,4.86 23.58,0 0,75.24 c 0,15.48 12.78,25.56006 32.04,25.56006 15.12,0 27.54,-11.52006 27.54,-25.92006 z"
         style="font-style:normal;font-variant:normal;font-weight:500;font-stretch:normal;font-family:FoglihtenNo07;-inkscape-font-specification:'FoglihtenNo07 Medium'"
         id="path3528"
         inkscape:connector-curvature="0" />
    </g>
  </g>
</svg>
