<?xml version="1.0" encoding="UTF-8" standalone="no"?>
<!-- Created with Inkscape (http://www.inkscape.org/) -->

<svg
   xmlns:dc="http://purl.org/dc/elements/1.1/"
   xmlns:cc="http://creativecommons.org/ns#"
   xmlns:rdf="http://www.w3.org/1999/02/22-rdf-syntax-ns#"
   xmlns:svg="http://www.w3.org/2000/svg"
   xmlns="http://www.w3.org/2000/svg"
   xmlns:sodipodi="http://sodipodi.sourceforge.net/DTD/sodipodi-0.dtd"
   xmlns:inkscape="http://www.inkscape.org/namespaces/inkscape"
   width="175mm"
   height="70mm"
   viewBox="0 0 620.07874 248.03149"
   id="svg2"
   version="1.1"
   inkscape:version="0.91 r13725"
   sodipodi:docname="elegant gurmukhi bad kirapaalu.svg">
  <defs
     id="defs4" />
  <sodipodi:namedview
     id="base"
     pagecolor="#ffffff"
     bordercolor="#666666"
     borderopacity="1.0"
     inkscape:pageopacity="0.0"
     inkscape:pageshadow="2"
     inkscape:zoom="0.35"
     inkscape:cx="-659.22143"
     inkscape:cy="520"
     inkscape:document-units="px"
     inkscape:current-layer="text3341"
     showgrid="false"
     inkscape:window-width="1920"
     inkscape:window-height="1027"
     inkscape:window-x="-8"
     inkscape:window-y="-8"
     inkscape:window-maximized="1" />
  <metadata
     id="metadata7">
    <rdf:RDF>
      <cc:Work
         rdf:about="">
        <dc:format>image/svg+xml</dc:format>
        <dc:type
           rdf:resource="http://purl.org/dc/dcmitype/StillImage" />
        <dc:title />
      </cc:Work>
    </rdf:RDF>
  </metadata>
  <g
     inkscape:label="Layer 1"
     inkscape:groupmode="layer"
     id="layer1"
     transform="translate(0,-804.33071)">
    <g
       style="font-style:normal;font-weight:normal;font-size:180px;line-height:125%;font-family:sans-serif;letter-spacing:0px;word-spacing:0px;fill:#000000;fill-opacity:1;stroke:none;stroke-width:1px;stroke-linecap:butt;stroke-linejoin:miter;stroke-opacity:1"
       id="text3336">
      <g
         style="font-style:normal;font-weight:normal;font-size:180px;line-height:125%;font-family:sans-serif;letter-spacing:0px;word-spacing:0px;fill:#000000;fill-opacity:1;stroke:none;stroke-width:1px;stroke-linecap:butt;stroke-linejoin:miter;stroke-opacity:1"
         id="text3341">
        <path
           d="m 133.60491,978.07648 q -0.79102,-10.45899 -2.63672,-19.51172 -1.8457,-9.05274 -4.74609,-16.61133 -7.47071,9.58008 -17.49024,14.41406 -9.93164,4.7461 -21.708983,4.7461 -16.259766,0 -25.664063,-8.34961 -9.316406,-8.34961 -9.316406,-22.85157 0,-14.32617 9.84375,-22.76367 9.84375,-8.52539 25.3125,-8.52539 11.865234,0 21.181642,4.21875 9.3164,4.13086 16.875,12.83203 2.28515,-8.26172 2.28515,-20.03906 0,-7.99805 -1.75781,-16.69922 l -81.386716,0 0,-12.83203 114.521486,0 0,12.83203 -18.54492,0 q 0.52734,2.46094 1.05468,7.82227 0.61524,5.27344 0.61524,8.78906 0,18.80859 -7.47071,33.22266 5.09766,8.70117 8.4375,21.00586 3.42774,12.30468 5.18555,28.30078 l -14.58984,0 z m -13.35938,-48.7793 q -6.5039,-8.87695 -14.50195,-13.35937 -7.910156,-4.48243 -17.402344,-4.48243 -10.107422,0 -15.820312,4.92188 -5.712891,4.83398 -5.712891,13.62305 0,8.52539 5.449219,13.44726 5.449218,4.83399 14.853515,4.83399 10.546875,0 18.808593,-4.7461 8.26172,-4.74609 14.32617,-14.23828 z m 17.75391,-63.19336 0,0 z"
           style="font-style:normal;font-variant:normal;font-weight:normal;font-stretch:normal;font-size:180px;line-height:125%;font-family:'Noto Sans Gurmukhi';-inkscape-font-specification:'Noto Sans Gurmukhi, Normal';text-align:start;writing-mode:lr-tb;text-anchor:start"
           id="path3346" />
        <path
           d="m 173.50725,878.93585 -17.31445,0 0,-12.83203 17.31445,0 0,-8.26172 q 0,-14.41406 3.25195,-22.76367 3.33985,-8.4375 10.72266,-13.35937 7.38281,-5.00977 18.89649,-5.00977 14.0625,0 22.14843,8.26172 8.08594,8.26172 8.08594,23.29101 0,4.7461 -1.14258,11.95313 l -14.0625,-1.40625 q 0.9668,-5.18555 0.9668,-10.98633 0,-9.31641 -4.04297,-13.88672 -3.95508,-4.57031 -12.12891,-4.57031 -6.76757,0 -11.07421,3.51562 -4.21875,3.51563 -5.7129,9.4043 -1.40625,5.80078 -1.40625,15.11719 l 0,8.70117 17.40235,0 0,12.83203 -17.40235,0 0,99.14063 -14.50195,0 0,-99.14063 z"
           style="font-style:normal;font-variant:normal;font-weight:normal;font-stretch:normal;font-size:180px;line-height:125%;font-family:'Noto Sans Gurmukhi';-inkscape-font-specification:'Noto Sans Gurmukhi, Normal';text-align:start;writing-mode:lr-tb;text-anchor:start"
           id="path3348" />
        <path
           d="m 277.83342,904.59991 0,-25.66406 -74.88281,0 0,-12.83203 106.78711,0 0,12.83203 -17.40234,0 0,68.11524 q 0,12.04101 -3.95508,18.45703 -3.86719,6.32812 -10.63477,9.49219 -6.67968,3.07617 -17.66601,3.07617 -11.51367,0 -22.32422,-5.44922 -10.72266,-5.53711 -18.8086,-16.96289 -7.99804,-11.42578 -7.99804,-23.99414 0,-9.4043 4.92187,-15.55664 4.92188,-6.15235 13.09571,-8.78907 8.26171,-2.72461 24.25781,-2.72461 l 24.60937,0 z m 0,12.83204 -22.85156,0 q -11.68945,0 -17.40234,1.14257 -5.71289,1.14258 -8.96485,4.57032 -3.16406,3.33984 -3.16406,9.49218 0,7.29493 5.71289,15.38086 5.80078,8.08594 13.62305,12.56836 7.91015,4.39453 15.9082,4.39453 7.4707,0 10.98633,-2.02148 3.51562,-2.02148 4.83398,-5.71289 1.31836,-3.69141 1.31836,-12.12891 l 0,-27.68554 z m -8.78906,60.64453 0,0 z"
           style="font-style:normal;font-variant:normal;font-weight:normal;font-stretch:normal;font-size:180px;line-height:125%;font-family:'Noto Sans Gurmukhi';-inkscape-font-specification:'Noto Sans Gurmukhi, Normal';text-align:start;writing-mode:lr-tb;text-anchor:start"
           id="path3350" />
        <path
           d="m 384.44475,948.8089 q -11.86523,5.44922 -25.04883,5.44922 -14.76562,0 -25.83984,-8.96485 -11.07422,-9.05273 -18.36914,-27.07031 6.67969,-5.625 9.58008,-11.07422 2.98828,-5.44922 2.98828,-11.77734 0,-3.95508 -1.14258,-8.4375 -1.14258,-4.48242 -3.16406,-7.99805 l -16.43555,0 0,-12.83203 26.80664,0 q 3.86719,7.03125 6.06445,14.67774 2.19727,7.64648 2.19727,14.50195 0,15.0293 -9.93164,23.99414 5.625,11.60156 12.04102,16.69922 6.5039,5.09765 15.29296,5.09765 6.50391,0 12.30469,-1.75781 5.80078,-1.75781 12.65625,-5.80078 l 0,-67.41211 31.9043,0 0,12.83203 -17.40235,0 0,99.14063 -14.50195,0 0,-29.26758 z"
           style="font-style:normal;font-variant:normal;font-weight:normal;font-stretch:normal;font-size:180px;line-height:125%;font-family:'Noto Sans Gurmukhi';-inkscape-font-specification:'Noto Sans Gurmukhi, Normal';text-align:start;writing-mode:lr-tb;text-anchor:start"
           id="path3352" />
        <path
           d="m 458.80022,878.93585 -15.82031,0 0,52.11914 -14.50196,0 0,-52.11914 -14.58984,0 0,-12.83203 44.91211,0 0,12.83203 z m -15.82031,-12.83203 0,0 z"
           style="font-style:normal;font-variant:normal;font-weight:normal;font-stretch:normal;font-size:180px;line-height:125%;font-family:'Noto Sans Gurmukhi';-inkscape-font-specification:'Noto Sans Gurmukhi, Normal';text-align:start;writing-mode:lr-tb;text-anchor:start"
           id="path3354" />
        <path
           d="m 557.67717,878.93585 q -2.72461,14.32617 -11.25,27.77344 12.48047,6.94336 18.8086,16.34766 6.41601,9.3164 6.41601,20.12695 0,9.49219 -4.39453,17.75391 -4.39453,8.17382 -12.83203,12.65625 -8.4375,4.48242 -20.39062,4.48242 l -1.05469,0 -0.87891,-13.1836 1.9336,0 q 11.25,0 17.22656,-5.625 5.97656,-5.71289 5.97656,-15.55664 0,-8.17383 -4.6582,-15.02929 -4.65821,-6.94336 -14.15039,-11.86524 -9.31641,10.01953 -20.39063,16.25977 -11.25,-6.32813 -20.5664,-16.25977 -8.87696,4.6582 -13.79883,11.42578 -4.83399,6.76758 -4.83399,14.76563 0,10.2832 5.88867,16.08398 5.97657,5.80078 17.31446,5.80078 l 1.93359,0 -0.8789,13.1836 -1.05469,0 q -12.04102,0 -20.47852,-4.48242 -8.4375,-4.57032 -12.83203,-12.74415 -4.30664,-8.17382 -4.30664,-17.57812 0,-10.81055 6.41602,-20.39063 6.5039,-9.58007 18.89648,-16.17187 -8.96484,-13.53516 -11.33789,-27.77344 l -22.32422,0 0,-12.83203 123.92578,0 0,12.83203 -22.32422,0 z m -64.51172,0 q 3.86719,24.08203 24.87305,38.75977 10.19531,-6.76758 16.52344,-16.78711 6.41601,-10.01953 8.34961,-21.97266 l -49.7461,0 z m 64.51172,-12.83203 0,0 z m -39.63867,111.97266 0,0 z m 25.66406,0 0,0 z m -46.93359,-58.53516 0,0 z m 21.26953,0.70313 0,0 z"
           style="font-style:normal;font-variant:normal;font-weight:normal;font-stretch:normal;font-size:180px;line-height:125%;font-family:'Noto Sans Gurmukhi';-inkscape-font-specification:'Noto Sans Gurmukhi, Normal';text-align:start;writing-mode:lr-tb;text-anchor:start"
           id="path3356" />
        <path
           d="m 483.49749,996.97296 2.54882,-10.98633 q 7.91016,4.57032 15.55664,6.50391 7.64649,2.02148 16.34766,2.02148 8.78906,0 16.43555,-2.02148 7.55859,-1.93359 15.55664,-6.50391 l 2.54883,10.98633 q -7.20703,4.48244 -16.17188,6.85544 -9.05273,2.3731 -18.36914,2.3731 -9.31641,0 -18.28125,-2.3731 -8.96484,-2.373 -16.17187,-6.85544 z m 0,23.55464 2.54882,-11.0742 q 7.91016,4.5703 15.55664,6.5039 7.64649,2.0215 16.34766,2.0215 8.78906,0 16.34766,-2.0215 7.55859,-1.9336 15.64453,-6.5039 l 2.54883,11.0742 q -7.29493,4.4825 -16.25977,6.8555 -8.96484,2.3731 -18.28125,2.3731 -9.31641,0 -18.19336,-2.3731 -8.96484,-2.373 -16.25976,-6.8555 z m 34.54101,-42.45112 0,0 z m 1.23047,70.83982 0,0 z"
           style="font-style:normal;font-variant:normal;font-weight:normal;font-stretch:normal;font-size:180px;line-height:125%;font-family:'Noto Sans Gurmukhi';-inkscape-font-specification:'Noto Sans Gurmukhi, Normal';text-align:start;writing-mode:lr-tb;text-anchor:start"
           id="path3358" />
      </g>
    </g>
  </g>
</svg>
