<?xml version="1.0" encoding="UTF-8" standalone="no"?>
<!-- Created with Inkscape (http://www.inkscape.org/) -->

<svg
   xmlns:dc="http://purl.org/dc/elements/1.1/"
   xmlns:cc="http://creativecommons.org/ns#"
   xmlns:rdf="http://www.w3.org/1999/02/22-rdf-syntax-ns#"
   xmlns:svg="http://www.w3.org/2000/svg"
   xmlns="http://www.w3.org/2000/svg"
   xmlns:sodipodi="http://sodipodi.sourceforge.net/DTD/sodipodi-0.dtd"
   xmlns:inkscape="http://www.inkscape.org/namespaces/inkscape"
   width="360mm"
   height="60mm"
   viewBox="0 0 1275.5905 212.59842"
   id="svg2"
   version="1.1"
   inkscape:version="0.91 r13725"
   sodipodi:docname="nerttiyana (elegant) bad.svg">
  <defs
     id="defs4" />
  <sodipodi:namedview
     id="base"
     pagecolor="#ffffff"
     bordercolor="#666666"
     borderopacity="1.0"
     inkscape:pageopacity="0.0"
     inkscape:pageshadow="2"
     inkscape:zoom="0.7"
     inkscape:cx="851.87034"
     inkscape:cy="109.10807"
     inkscape:document-units="px"
     inkscape:current-layer="text3361"
     showgrid="false"
     inkscape:window-width="1920"
     inkscape:window-height="1027"
     inkscape:window-x="-8"
     inkscape:window-y="-8"
     inkscape:window-maximized="1" />
  <metadata
     id="metadata7">
    <rdf:RDF>
      <cc:Work
         rdf:about="">
        <dc:format>image/svg+xml</dc:format>
        <dc:type
           rdf:resource="http://purl.org/dc/dcmitype/StillImage" />
        <dc:title></dc:title>
      </cc:Work>
    </rdf:RDF>
  </metadata>
  <g
     inkscape:label="Layer 1"
     inkscape:groupmode="layer"
     id="layer1"
     transform="translate(0,-839.76378)">
    <g
       style="font-style:normal;font-weight:normal;font-size:40px;line-height:125%;font-family:sans-serif;letter-spacing:0px;word-spacing:0px;fill:#000000;fill-opacity:1;stroke:none;stroke-width:1px;stroke-linecap:butt;stroke-linejoin:miter;stroke-opacity:1"
       id="text3361">
      <path
         d="m 129.41818,976.26015 q 0,17.05078 -4.74609,28.03705 -4.74609,10.8985 -14.32617,17.4903 -4.65821,3.2519 -10.19531,5.2734 -5.537106,2.1094 -11.865235,3.252 -6.328125,1.1425 -13.447266,1.582 -7.03125,0.4394 -14.677734,0.4394 -3.779297,0 -7.822266,-0.088 -4.042968,0 -7.910156,-0.088 -3.867187,0 -7.294922,-0.088 -3.427734,0 -6.064453,0 -5.097656,0 -7.294922,1.2304 -2.109375,1.3184 -2.109375,4.6582 0,2.0215 0.439453,3.9551 0.527344,1.9336 1.40625,3.8672 l -13.007812,0 q -0.8789057,-2.0215 -1.6699217,-4.7461 -0.703125,-2.6367 -0.703125,-5.3613 0,-8.2617 5.4492187,-12.3047 5.449218,-3.9551 15.820312,-3.9551 3.339844,0 7.646485,0 4.394531,0.088 8.964843,0.088 4.570313,0.088 9.052735,0.088 4.570312,0.088 8.261718,0.088 11.865235,0 21.621094,-1.6699 9.755863,-1.5821 16.611329,-6.5918 6.67968,-4.834 9.84375,-12.91992 3.16406,-8.08594 3.16406,-20.47852 0,-8.26172 -1.23047,-14.50195 -1.14258,-6.32812 -4.57031,-10.10742 -2.02149,-2.37305 -5.00977,-3.69141 -2.98828,-1.40625 -7.470696,-1.40625 -10.98633,0 -16.61133,6.85547 -5.53711,6.85547 -5.53711,20.21484 l 0,32.69526 -14.414062,0 0,-92.2851 -30.146485,0 0,92.2851 -14.414062,0 0,-105.20502 103.447265,0 0,12.91992 -44.472656,0 0,31.28906 0.263672,0 q 3.955078,-6.15234 10.283203,-9.05273 6.416016,-2.90039 14.501955,-2.90039 7.470696,0 12.919916,2.72461 5.44922,2.63672 9.22852,7.4707 4.21875,5.36133 6.15234,13.27149 1.93359,7.82226 1.93359,17.66601 z"
         style="font-style:normal;font-variant:normal;font-weight:normal;font-stretch:normal;font-size:180px;font-family:'Nirmala UI';-inkscape-font-specification:'Nirmala UI'"
         id="path3366"
         inkscape:connector-curvature="0" />
      <path
         d="m 261.95725,978.72109 q 0,6.76758 -2.54883,12.48047 -2.54883,5.71289 -7.73438,9.93164 -5.09765,4.1308 -12.83203,6.5039 -7.73437,2.373 -18.10547,2.373 -11.68945,0 -21.26953,-2.8125 -9.49219,-2.8125 -17.05078,-7.64647 -7.4707,-4.92184 -13.00781,-11.51364 -5.53711,-6.59179 -9.22852,-14.15039 -3.60351,-7.55859 -5.36133,-15.64453 -1.75781,-8.17383 -1.75781,-16.17187 0,-11.60156 2.72461,-21.26953 2.72461,-9.66797 7.4707,-17.31446 4.7461,-7.64648 11.16211,-13.35937 6.50391,-5.71289 14.0625,-9.4043 7.5586,-3.7793 15.82032,-5.625 8.26171,-1.93359 16.61132,-1.93359 9.84375,0 17.31446,2.54883 7.4707,2.46093 12.56836,6.67968 5.09765,4.21875 7.64648,9.93164 2.63672,5.625 2.63672,11.95313 0,6.50391 -2.19727,11.60156 -2.10937,5.09766 -5.97656,8.70117 -3.86719,3.51563 -9.22851,5.36133 -5.36133,1.8457 -11.77735,1.8457 -6.76758,0 -12.1289,-1.93359 -5.36133,-2.02148 -9.05274,-5.53711 -3.6914,-3.51562 -5.71289,-8.34961 -1.93359,-4.92187 -1.93359,-10.63476 0,-2.98828 0.79101,-5.80078 0.79102,-2.9004 2.10938,-5.36133 1.40625,-2.54883 3.25195,-4.57032 1.93359,-2.10937 4.04297,-3.60351 l -0.0879,-0.26367 q -8.08594,0.96679 -16.17188,5.00976 -7.99804,3.95508 -14.50195,10.98633 -6.50391,7.03125 -10.54687,17.05078 -4.04297,9.93164 -4.04297,22.67578 0,11.33789 3.51562,21.09375 3.60352,9.66797 9.66797,17.05078 6.06445,7.29493 14.0625,11.86524 7.99805,4.57031 16.78711,5.71289 l 0.17578,-0.26367 q -3.6914,-3.16406 -6.15234,-7.91016 -2.37305,-4.74609 -2.37305,-11.16211 0,-5.88867 2.19727,-10.81054 2.19726,-5.00977 6.06445,-8.5254 3.95508,-3.51562 9.31641,-5.44921 5.44921,-2.02149 11.86523,-2.02149 6.41602,0 11.68945,1.9336 5.36133,1.93359 9.14063,5.5371 3.86719,3.60352 5.97656,8.78907 2.10938,5.09765 2.10938,11.42578 z m -15.29297,-74.70703 q 0,-4.13086 -1.58203,-7.38282 -1.49414,-3.25195 -4.21875,-5.5371 -2.63672,-2.28516 -6.24024,-3.60352 -3.51562,-1.31836 -7.55859,-1.58203 -4.83399,2.54883 -7.82227,7.20703 -2.90039,4.6582 -2.90039,10.19531 0,7.20703 4.04297,11.60156 4.04297,4.39454 11.51367,4.39454 6.5918,0 10.63477,-3.86719 4.13086,-3.95508 4.13086,-11.42578 z m 0.8789,75.58593 q 0,-3.95507 -1.14257,-6.94335 -1.05469,-2.98829 -3.07618,-5.00977 -1.93359,-2.02148 -4.6582,-2.98828 -2.72461,-1.05469 -5.97656,-1.05469 -3.60352,0 -6.5918,1.14258 -2.98828,1.14258 -5.09766,3.25195 -2.10937,2.02149 -3.33984,4.92188 -1.14258,2.8125 -1.14258,6.15234 0,2.8125 0.70313,5.53711 0.79101,2.72461 2.10937,5.18555 1.40625,2.37304 3.33985,4.39453 2.02148,1.93359 4.57031,3.25195 4.57031,-0.17578 8.34961,-1.49414 3.7793,-1.31836 6.41601,-3.60351 2.63672,-2.37305 4.04297,-5.53711 1.49414,-3.25196 1.49414,-7.20704 z"
         style="font-style:normal;font-variant:normal;font-weight:normal;font-stretch:normal;font-size:180px;font-family:'Nirmala UI';-inkscape-font-specification:'Nirmala UI'"
         id="path3368"
         inkscape:connector-curvature="0" />
      <path
         d="m 363.20725,915.7914 0,91.6699 -51.85547,37.4414 -7.82227,-10.2832 45.26367,-32.5195 0,-86.3086 -43.24218,0 0,92.2851 -14.41407,0 0,-105.20502 99.31641,0 0,12.91992 -27.24609,0 z"
         style="font-style:normal;font-variant:normal;font-weight:normal;font-stretch:normal;font-size:180px;font-family:'Nirmala UI';-inkscape-font-specification:'Nirmala UI'"
         id="path3370"
         inkscape:connector-curvature="0" />
      <path
         d="m 354.68186,869.29726 q 0,2.72461 -0.9668,5.09766 -1.05469,2.37304 -2.8125,4.13086 -1.75781,1.75781 -4.13086,2.8125 -2.37305,0.96679 -5.09766,0.96679 -2.72461,0 -5.09765,-0.96679 -2.37305,-1.05469 -4.13086,-2.8125 -1.75782,-1.75782 -2.72461,-4.13086 -1.05469,-2.37305 -1.05469,-5.09766 0,-2.72461 1.05469,-5.09766 0.96679,-2.46093 2.72461,-4.21875 1.75781,-1.75781 4.13086,-2.8125 2.37304,-1.05468 5.09765,-1.05468 2.72461,0 5.09766,1.05468 2.37305,1.05469 4.13086,2.8125 1.75781,1.75782 2.8125,4.21875 0.9668,2.37305 0.9668,5.09766 z"
         style="font-style:normal;font-variant:normal;font-weight:normal;font-stretch:normal;font-size:180px;font-family:'Nirmala UI';-inkscape-font-specification:'Nirmala UI'"
         id="path3372"
         inkscape:connector-curvature="0" />
      <path
         d="m 534.2424,985.1371 q 0,11.51368 -4.21875,20.3027 -4.21875,8.7891 -12.04101,14.6777 -7.82227,5.9766 -19.07227,8.9649 -11.16211,3.0762 -25.22461,3.0762 -13.62305,0 -26.63086,-0.088 -13.00781,0 -25.3125,0 -5.27344,0 -7.4707,1.2304 -2.10938,1.3184 -2.10938,4.6582 0,2.0215 0.43946,3.9551 0.52734,1.9336 1.49414,3.8672 l -12.91992,0 q -0.9668,-2.1973 -1.75782,-4.834 -0.70312,-2.5488 -0.70312,-5.2734 0,-8.3496 5.44922,-12.3047 5.44922,-3.9551 15.99609,-3.9551 5.09766,0 11.68945,0 6.5918,0 13.79883,0 7.20703,0.088 14.58985,0.088 7.4707,0 14.23828,0 3.07617,0 5.88867,-0.088 2.90039,-0.088 5.53711,-0.4394 7.91015,-1.1426 14.0625,-3.8672 6.24023,-2.6367 10.54687,-6.8555 4.30664,-4.1309 6.50391,-9.66797 2.28516,-5.62496 2.28516,-12.56832 0,-7.11914 -2.02149,-11.86523 -1.93359,-4.83399 -5.44922,-7.73438 -3.42773,-2.98828 -8.26172,-4.21875 -4.83398,-1.31836 -10.45898,-1.31836 l -10.45898,0 0,8.87695 q 0,10.98633 -2.9004,18.45704 -2.8125,7.38281 -8.61328,12.48042 -5.27343,4.5703 -12.83203,6.9434 -7.55859,2.373 -17.22656,2.373 -9.93164,0 -17.49023,-2.5488 -7.5586,-2.6367 -12.65625,-7.1191 -5.00977,-4.48244 -7.5586,-10.459 -2.54883,-5.97656 -2.54883,-12.74414 0,-11.51367 5.88868,-18.54492 5.97656,-7.03125 15.99609,-9.31641 l 0,-46.40625 100.01953,0 0,12.91992 -40.07812,0 0,32.25586 9.84375,0 q 9.49218,0 17.13867,2.10938 7.73437,2.10937 13.18359,6.59179 5.44922,4.48242 8.4375,11.51367 2.98828,7.03125 2.98828,16.875 z m -66.00586,-24.25781 -31.8164,0 q -10.10743,0 -15.38086,3.69141 -5.27344,3.6914 -5.27344,12.21679 0,4.39454 1.58203,8.08594 1.66992,3.69141 4.92188,6.32813 3.25195,2.63672 8.08593,4.13086 4.83399,1.49414 11.25,1.49414 13.53516,0 20.03907,-6.41602 6.59179,-6.5039 6.59179,-20.74219 l 0,-8.78906 z m 0,-45.08789 -31.20117,0 0,32.25586 31.20117,0 0,-32.25586 z"
         style="font-style:normal;font-variant:normal;font-weight:normal;font-stretch:normal;font-size:180px;font-family:'Nirmala UI';-inkscape-font-specification:'Nirmala UI'"
         id="path3374"
         inkscape:connector-curvature="0" />
      <path
         d="m 488.45139,869.29726 q 0,2.72461 -0.9668,5.09766 -1.05469,2.37304 -2.8125,4.13086 -1.75781,1.75781 -4.13086,2.8125 -2.37305,0.96679 -5.09766,0.96679 -2.72461,0 -5.09765,-0.96679 -2.37305,-1.05469 -4.13086,-2.8125 -1.75781,-1.75782 -2.72461,-4.13086 -1.05469,-2.37305 -1.05469,-5.09766 0,-2.72461 1.05469,-5.09766 0.9668,-2.46093 2.72461,-4.21875 1.75781,-1.75781 4.13086,-2.8125 2.37304,-1.05468 5.09765,-1.05468 2.72461,0 5.09766,1.05468 2.37305,1.05469 4.13086,2.8125 1.75781,1.75782 2.8125,4.21875 0.9668,2.37305 0.9668,5.09766 z"
         style="font-style:normal;font-variant:normal;font-weight:normal;font-stretch:normal;font-size:180px;font-family:'Nirmala UI';-inkscape-font-specification:'Nirmala UI'"
         id="path3376"
         inkscape:connector-curvature="0" />
      <path
         d="m 690.68771,985.1371 q 0,11.51368 -4.21875,20.3027 -4.21875,8.7891 -12.04101,14.6777 -7.82227,5.9766 -19.07227,8.9649 -11.16211,3.0762 -25.22461,3.0762 -13.62304,0 -26.63086,-0.088 -13.00781,0 -25.3125,0 -5.27343,0 -7.4707,1.2304 -2.10937,1.3184 -2.10937,4.6582 0,2.0215 0.43945,3.9551 0.52734,1.9336 1.49414,3.8672 l -12.91992,0 q -0.9668,-2.1973 -1.75781,-4.834 -0.70313,-2.5488 -0.70313,-5.2734 0,-8.3496 5.44922,-12.3047 5.44922,-3.9551 15.99609,-3.9551 5.09766,0 11.68946,0 6.59179,0 13.79882,0 7.20704,0.088 14.58985,0.088 7.4707,0 14.23828,0 3.07617,0 5.88867,-0.088 2.90039,-0.088 5.53711,-0.4394 7.91016,-1.1426 14.0625,-3.8672 6.24024,-2.6367 10.54688,-6.8555 4.30664,-4.1309 6.5039,-9.66797 2.28516,-5.62496 2.28516,-12.56832 0,-7.11914 -2.02149,-11.86523 -1.93359,-4.83399 -5.44921,-7.73438 -3.42774,-2.98828 -8.26172,-4.21875 -4.83399,-1.31836 -10.45899,-1.31836 l -10.45898,0 0,8.87695 q 0,10.98633 -2.90039,18.45704 -2.8125,7.38281 -8.61328,12.48042 -5.27344,4.5703 -12.83204,6.9434 -7.55859,2.373 -17.22656,2.373 -9.93164,0 -17.49023,-2.5488 -7.5586,-2.6367 -12.65625,-7.1191 -5.00977,-4.48244 -7.5586,-10.459 -2.54882,-5.97656 -2.54882,-12.74414 0,-11.51367 5.88867,-18.54492 5.97656,-7.03125 15.99609,-9.31641 l 0,-46.40625 100.01953,0 0,12.91992 -40.07812,0 0,32.25586 9.84375,0 q 9.49219,0 17.13867,2.10938 7.73437,2.10937 13.18359,6.59179 5.44922,4.48242 8.4375,11.51367 2.98828,7.03125 2.98828,16.875 z m -66.00585,-24.25781 -31.81641,0 q -10.10742,0 -15.38086,3.69141 -5.27344,3.6914 -5.27344,12.21679 0,4.39454 1.58203,8.08594 1.66993,3.69141 4.92188,6.32813 3.25195,2.63672 8.08594,4.13086 4.83398,1.49414 11.25,1.49414 13.53515,0 20.03906,-6.41602 6.5918,-6.5039 6.5918,-20.74219 l 0,-8.78906 z m 0,-45.08789 -31.20118,0 0,32.25586 31.20118,0 0,-32.25586 z"
         style="font-style:normal;font-variant:normal;font-weight:normal;font-stretch:normal;font-size:180px;font-family:'Nirmala UI';-inkscape-font-specification:'Nirmala UI'"
         id="path3378"
         inkscape:connector-curvature="0" />
      <path
         d="m 716.35488,1007.9031 0,-108.80846 q 0,-8.61328 -0.79101,-15.64453 -0.79102,-7.03125 -3.25196,-11.95312 -2.46093,-5.00977 -7.03125,-7.73438 -4.57031,-2.72461 -12.1289,-2.72461 -5.27344,0 -9.49219,1.58203 -4.21875,1.49414 -7.11914,4.30664 -2.90039,2.8125 -4.48242,6.76758 -1.58203,3.86719 -1.58203,8.61328 0,6.15235 1.75781,11.86524 1.75781,5.71289 5.09766,10.72265 l -13.53516,0 q -1.49414,-2.19726 -2.63672,-4.92187 -1.23047,-2.8125 -2.10937,-5.80078 -0.9668,-3.07617 -1.40625,-6.15235 -0.52735,-3.16406 -0.52735,-6.06445 0,-8.08594 2.8125,-14.41406 2.72461,-6.32813 7.64649,-10.63477 4.92187,-4.39453 11.68945,-6.67968 6.67969,-2.28516 14.50195,-2.28516 6.32813,0 11.25,1.23047 4.92188,1.14258 8.70117,3.25195 3.86719,2.02149 6.5918,4.92188 2.8125,2.8125 4.6582,6.24023 3.33985,6.06445 4.57032,13.88672 1.23047,7.82227 1.23047,18.36914 l 0,112.06041 -14.41407,0 z"
         style="font-style:normal;font-variant:normal;font-weight:normal;font-stretch:normal;font-size:180px;font-family:'Nirmala UI';-inkscape-font-specification:'Nirmala UI'"
         id="path3382"
         inkscape:connector-curvature="0" />
      <path
         d="m 822.1752,1007.9031 0,-12.21666 -0.43946,0 q -1.40625,2.98819 -3.77929,5.62486 -2.28516,2.5489 -5.53711,4.4825 -3.16407,1.8457 -7.11914,2.9003 -3.95508,1.1426 -8.52539,1.1426 -7.64649,0 -13.44727,-2.1094 -5.71289,-2.1972 -9.49219,-6.1523 -2.10937,-2.28517 -3.60351,-5.00966 -1.49414,-2.81249 -2.46094,-6.24023 -0.87891,-3.51562 -1.31836,-7.82226 -0.35156,-4.39453 -0.35156,-9.75586 l 0,-70.04883 14.41406,0 0,68.55469 q 0,4.04297 0.17578,7.20703 0.17578,3.07617 0.61524,5.53711 0.52734,2.37304 1.31835,4.21875 0.87891,1.8457 2.10938,3.25195 4.48242,5.18555 13.62305,5.18555 11.25,0 16.69922,-8.17383 5.5371,-8.26172 5.5371,-23.64258 l 0,-62.13867 14.41407,0 0,92.28518 65.74223,0 0,-92.28518 14.414,0 0,105.20494 -92.98826,0 z"
         style="font-style:normal;font-variant:normal;font-weight:normal;font-stretch:normal;font-size:180px;font-family:'Nirmala UI';-inkscape-font-specification:'Nirmala UI'"
         id="path3384"
         inkscape:connector-curvature="0" />
      <path
         d="m 1023.269,915.61808 0,91.66982 -51.85554,37.4414 -7.8222,-10.2832 45.26364,-32.5195 0,-86.30852 -43.24224,0 0,92.28502 -14.414,0 0,-105.20494 99.31644,0 0,12.91992 -27.2461,0 z"
         style="font-style:normal;font-variant:normal;font-weight:normal;font-stretch:normal;font-size:180px;font-family:'Nirmala UI';-inkscape-font-specification:'Nirmala UI'"
         id="path3386"
         inkscape:connector-curvature="0" />
      <path
         d="m 1237.5463,915.61808 0,92.28502 -14.414,0 0,-92.28502 -10.3711,0 q -4.4824,0 -8.4375,0.17578 -3.9551,0.0879 -7.5586,0.52735 -3.6035,0.35156 -6.9434,1.05468 -3.2519,0.70313 -6.416,1.75782 4.3066,3.77929 7.8223,8.78906 3.5156,4.92187 6.0644,10.89844 2.5489,5.88867 3.9551,12.83203 1.4063,6.85547 1.4063,14.50195 0,9.84375 -2.2852,17.92969 -2.2852,7.99804 -6.5918,13.79872 -4.2188,5.7129 -10.3711,8.8769 -6.1523,3.0762 -13.8867,3.0762 -7.8223,0 -14.0625,-3.164 -6.1524,-3.1641 -10.459,-8.7891 -4.3066,-5.71278 -6.5918,-13.53505 -2.2852,-7.91016 -2.2852,-17.22656 0,-14.85352 5.2735,-27.15821 5.2734,-12.30468 15.5566,-21.18164 -6.0644,-2.46093 -12.6562,-3.60351 -6.5039,-1.14258 -14.4141,-1.14258 -11.5137,0 -21.2695,3.42773 -9.7559,3.33985 -16.9629,9.49219 -7.207,6.06445 -11.3379,14.58985 -4.043,8.4375 -4.043,18.7207 0,1.8457 0.2637,4.30664 l 0.5273,0 q 2.8125,-6.06445 8.877,-9.84375 6.0645,-3.86719 14.5898,-3.86719 5.3614,0 10.1954,1.9336 4.8339,1.93359 8.3496,5.5371 3.6035,3.60352 5.7129,8.87696 2.1093,5.27344 2.1093,11.86523 0,6.67969 -2.1972,12.30469 -2.1094,5.62494 -5.9766,9.7557 -3.8672,4.043 -9.4043,6.4161 -5.4492,2.2851 -12.1289,2.2851 -8.877,0 -15.4687,-3.9551 -6.5918,-3.955 -10.9864,-10.54676 -4.3066,-6.67965 -6.5039,-15.46871 -2.1094,-8.87696 -2.1094,-18.63281 0,-9.4043 2.3731,-17.49024 2.373,-8.17383 6.6797,-14.85351 4.3945,-6.67969 10.5469,-11.86524 6.1523,-5.27344 13.7988,-8.87695 7.6465,-3.60352 16.5234,-5.44922 8.877,-1.8457 18.7207,-1.8457 10.6348,0 20.6543,2.19726 10.0195,2.19727 18.9844,6.85547 3.6914,-1.66992 7.7344,-2.98828 4.1308,-1.40625 8.9648,-2.28516 4.9219,-0.96679 10.7227,-1.40625 5.8007,-0.52734 12.9199,-0.52734 l 56.25,0 0,12.91992 -29.4434,0 z m -49.7461,51.41602 q 0,-7.03125 -1.2304,-13.35938 -1.2305,-6.41601 -3.6035,-11.77734 -2.2852,-5.44922 -5.625,-9.84375 -3.3399,-4.39453 -7.5586,-7.47071 -4.3946,3.16407 -7.9102,7.64649 -3.4277,4.39453 -5.8887,9.84375 -2.373,5.36133 -3.6914,11.60156 -1.2304,6.24024 -1.2304,13.0957 0,6.67969 1.2304,12.2168 1.2305,5.44922 3.6035,9.4043 2.3731,3.95508 5.8008,6.15232 3.5156,2.1094 7.9981,2.1094 4.3066,0 7.6465,-2.0215 3.4277,-2.10936 5.7128,-5.88866 2.3731,-3.86719 3.5157,-9.31641 1.2304,-5.5371 1.2304,-12.39257 z m -75.4101,13.00781 q 0,-3.60352 -1.0547,-6.67969 -0.9668,-3.07617 -2.9004,-5.36133 -1.8457,-2.28515 -4.7461,-3.51562 -2.8125,-1.31836 -6.5039,-1.31836 -3.5156,0 -6.5918,1.31836 -3.0762,1.31836 -5.3613,3.6914 -2.1973,2.28516 -3.5156,5.44922 -1.2305,3.07618 -1.2305,6.5918 0,3.95508 1.2305,7.20703 1.3183,3.25195 3.5156,5.53711 2.1972,2.28511 5.0976,3.60351 2.9883,1.23046 6.3282,1.23046 3.4277,0 6.3281,-1.14256 2.9004,-1.1426 4.9219,-3.33985 2.1093,-2.28515 3.2519,-5.53711 1.2305,-3.33984 1.2305,-7.73437 z"
         style="font-style:normal;font-variant:normal;font-weight:normal;font-stretch:normal;font-size:180px;font-family:'Nirmala UI';-inkscape-font-specification:'Nirmala UI'"
         id="path3388"
         inkscape:connector-curvature="0" />
    </g>
  </g>
</svg>
