<?xml version="1.0" encoding="UTF-8" standalone="no"?>
<!-- Created with Inkscape (http://www.inkscape.org/) -->

<svg
   xmlns:dc="http://purl.org/dc/elements/1.1/"
   xmlns:cc="http://creativecommons.org/ns#"
   xmlns:rdf="http://www.w3.org/1999/02/22-rdf-syntax-ns#"
   xmlns:svg="http://www.w3.org/2000/svg"
   xmlns="http://www.w3.org/2000/svg"
   xmlns:sodipodi="http://sodipodi.sourceforge.net/DTD/sodipodi-0.dtd"
   xmlns:inkscape="http://www.inkscape.org/namespaces/inkscape"
   width="130mm"
   height="60mm"
   viewBox="0 0 460.62992 212.59842"
   id="svg2"
   version="1.1"
   inkscape:version="0.91 r13725"
   sodipodi:docname="shisht (elegant) bad.svg">
  <defs
     id="defs4" />
  <sodipodi:namedview
     id="base"
     pagecolor="#ffffff"
     bordercolor="#666666"
     borderopacity="1.0"
     inkscape:pageopacity="0.0"
     inkscape:pageshadow="2"
     inkscape:zoom="0.98994949"
     inkscape:cx="238.02408"
     inkscape:cy="19.474954"
     inkscape:document-units="px"
     inkscape:current-layer="layer1"
     showgrid="false"
     inkscape:window-width="751"
     inkscape:window-height="779"
     inkscape:window-x="1044"
     inkscape:window-y="130"
     inkscape:window-maximized="0" />
  <metadata
     id="metadata7">
    <rdf:RDF>
      <cc:Work
         rdf:about="">
        <dc:format>image/svg+xml</dc:format>
        <dc:type
           rdf:resource="http://purl.org/dc/dcmitype/StillImage" />
        <dc:title></dc:title>
      </cc:Work>
    </rdf:RDF>
  </metadata>
  <g
     inkscape:label="Layer 1"
     inkscape:groupmode="layer"
     id="layer1"
     transform="translate(0,-839.76378)">
    <g
       style="font-style:normal;font-weight:normal;font-size:40px;line-height:125%;font-family:sans-serif;letter-spacing:0px;word-spacing:0px;fill:#000000;fill-opacity:1;stroke:none;stroke-width:1px;stroke-linecap:butt;stroke-linejoin:miter;stroke-opacity:1"
       id="text3347">
      <path
         d="m 105.71355,925.60657 q 0,7.73437 -1.93359,14.9414 -1.84571,7.20703 -5.625003,13.1836 -3.779297,5.97656 -9.404297,10.45898 -5.625,4.48242 -13.095703,6.76758 l 28.037113,30.76167 -11.513676,10.5469 -51.679687,-56.24998 11.513672,-10.63476 10.810547,11.77734 q 0.527343,0.52735 2.724609,0.52735 5.097656,0 9.667969,-2.46094 4.570312,-2.54883 7.998047,-6.85547 3.515625,-4.39453 5.537109,-10.19531 2.021484,-5.88868 2.021484,-12.56836 0,-0.9668 -0.175781,-2.02149 -0.08789,-1.05468 -0.263672,-2.10937 -1.845703,2.90039 -4.482422,5.36133 -2.548828,2.37304 -5.71289,4.13086 -3.164063,1.66992 -6.767578,2.63671 -3.603516,0.87891 -7.382813,0.87891 -6.152344,0 -10.810547,-1.75781 -4.570312,-1.84571 -7.646484,-4.83399 -3.076172,-3.07617 -4.658203,-7.11914 -1.494141,-4.13086 -1.494141,-8.78906 0,-5.53711 2.197266,-10.19531 2.285156,-4.7461 6.152343,-8.17383 3.867188,-3.51563 9.052735,-5.44922 5.185547,-1.93359 11.074219,-1.93359 8.261718,0 14.853515,2.8125 6.679688,2.8125 11.337891,7.99804 4.658198,5.18555 7.119138,12.48047 2.54883,7.20703 2.54883,16.08399 z m 64.07227,-20.6543 -26.80664,0 0,101.95313 -15.46875,0 0,-101.95313 -10.98633,0 0,-14.0625 53.26172,0 0,14.0625 z m -85.25391,3.95508 q -2.900391,-3.69141 -6.767578,-5.97656 -3.779297,-2.28516 -7.910156,-2.28516 -2.988282,0 -5.53711,0.79102 -2.548828,0.79101 -4.394531,2.28515 -1.845703,1.40625 -2.900391,3.51563 -0.966797,2.10937 -0.966797,4.74609 0,2.02148 0.966797,3.60352 0.966797,1.58203 2.548828,2.8125 1.669922,1.14257 3.779297,1.75781 2.109375,0.61523 4.394532,0.61523 2.109375,0 4.21875,-0.43945 2.197265,-0.43945 4.30664,-1.75781 2.109375,-1.31836 4.13086,-3.60352 2.109375,-2.37305 4.130859,-6.06445 z"
         style="font-style:normal;font-variant:normal;font-weight:normal;font-stretch:normal;font-size:180px;font-family:'Mangal Sample';-inkscape-font-specification:'Mangal Sample'"
         id="path3352" />
      <path
         d="m 227.61785,868.47766 0,0 z m 83.23242,25.22461 -5.18555,10.01953 q -53.87695,-44.29687 -93.33984,-45.17578 -11.33789,0 -18.7207,3.95508 -9.22852,5.00976 -9.22852,15.46875 0,8.78906 7.38281,12.91992 l 34.45313,0 0,14.0625 -26.63086,0 0,101.95313 -15.46875,0 0,-101.95313 -20.47852,0 0,-14.0625 9.05274,0 q -2.98828,-6.50391 -2.98828,-13.71094 0,-16.78711 12.1289,-25.40039 10.72266,-7.64648 28.125,-7.64648 26.36719,0 55.54688,16.43554 17.92968,10.3711 45.35156,33.13477 z m -83.23242,105.64453 0,0 z"
         style="font-style:normal;font-variant:normal;font-weight:normal;font-stretch:normal;font-size:180px;font-family:'Mangal Sample';-inkscape-font-specification:'Mangal Sample'"
         id="path3354" />
      <path
         d="m 334.14128,904.95227 -26.80664,0 0,101.95313 -15.46875,0 0,-42.01172 q -9.40429,6.85547 -22.93945,6.85547 -15.0293,0 -26.10351,-9.05274 -11.86524,-9.58008 -11.86524,-24.3457 l 0,-33.39844 -11.07422,0 0,-14.0625 114.25781,0 0,14.0625 z m -60.11718,94.39453 0,0 z m 0,-102.04101 0,0 z m 17.84179,46.8457 0,-39.19922 -33.39843,0 33.39843,39.19922 z m -9.58007,9.58008 -35.85938,-43.50586 0,24.25781 q 0,8.78906 7.03125,15.64453 7.03125,6.76758 15.82031,6.76758 7.29493,0 13.00782,-3.16406 z m 17.31445,-56.42578 0,0 z m 0,102.04101 0,0 z"
         style="font-style:normal;font-variant:normal;font-weight:normal;font-stretch:normal;font-size:180px;font-family:'Mangal Sample';-inkscape-font-specification:'Mangal Sample'"
         id="path3356" />
      <path
         d="m 343.54558,1040.1281 -7.20703,9.58 -45.70312,-20.4785 7.20703,-9.1406 45.70312,20.0391 z"
         style="font-style:normal;font-variant:normal;font-weight:normal;font-stretch:normal;font-size:180px;font-family:'Mangal Sample';-inkscape-font-specification:'Mangal Sample'"
         id="path3358" />
      <path
         d="m 437.50066,904.95227 -37.08984,0 0,33.22266 -15.55664,0 q -33.31055,0 -33.31055,24.43359 0,12.65625 8.96484,20.74219 8.70117,7.73437 21.70899,7.73437 14.9414,0 29.35547,-13.00781 l 10.98632,10.98633 q -16.69922,17.1387 -41.04492,17.1387 -18.28125,0 -31.72851,-12.04105 -13.79883,-12.30468 -13.79883,-29.79492 0,-21.00586 13.00781,-31.46484 11.42578,-9.22852 31.11328,-9.22852 l 4.83399,0 0,-18.7207 -57.12891,0 0,-14.0625 109.6875,0 0,14.0625 z m -44.82422,-7.64648 0,0 z m -13.00781,0 0,0 z m 2.37305,100.2832 0,0 z m -2.37305,1.75781 0,0 z m 0,18.2813 0,0 z"
         style="font-style:normal;font-variant:normal;font-weight:normal;font-stretch:normal;font-size:180px;font-family:'Mangal Sample';-inkscape-font-specification:'Mangal Sample'"
         id="path3360" />
    </g>
  </g>
</svg>
