<?xml version="1.0" encoding="UTF-8" standalone="no"?>
<!-- Created with Inkscape (http://www.inkscape.org/) -->

<svg
   xmlns:dc="http://purl.org/dc/elements/1.1/"
   xmlns:cc="http://creativecommons.org/ns#"
   xmlns:rdf="http://www.w3.org/1999/02/22-rdf-syntax-ns#"
   xmlns:svg="http://www.w3.org/2000/svg"
   xmlns="http://www.w3.org/2000/svg"
   xmlns:sodipodi="http://sodipodi.sourceforge.net/DTD/sodipodi-0.dtd"
   xmlns:inkscape="http://www.inkscape.org/namespaces/inkscape"
   width="210mm"
   height="70mm"
   viewBox="0 0 744.09449 248.03149"
   id="svg2"
   version="1.1"
   inkscape:version="0.91 r13725"
   sodipodi:docname="elegant kannada good sogasaada.svg">
  <defs
     id="defs4" />
  <sodipodi:namedview
     id="base"
     pagecolor="#ffffff"
     bordercolor="#666666"
     borderopacity="1.0"
     inkscape:pageopacity="0.0"
     inkscape:pageshadow="2"
     inkscape:zoom="0.98994949"
     inkscape:cx="233.64063"
     inkscape:cy="162.08998"
     inkscape:document-units="px"
     inkscape:current-layer="text3336"
     showgrid="false"
     inkscape:window-width="1920"
     inkscape:window-height="1027"
     inkscape:window-x="-8"
     inkscape:window-y="-8"
     inkscape:window-maximized="1" />
  <metadata
     id="metadata7">
    <rdf:RDF>
      <cc:Work
         rdf:about="">
        <dc:format>image/svg+xml</dc:format>
        <dc:type
           rdf:resource="http://purl.org/dc/dcmitype/StillImage" />
        <dc:title></dc:title>
      </cc:Work>
    </rdf:RDF>
  </metadata>
  <g
     inkscape:label="Layer 1"
     inkscape:groupmode="layer"
     id="layer1"
     transform="translate(0,-804.33071)">
    <g
       style="font-style:normal;font-weight:normal;font-size:180px;line-height:125%;font-family:sans-serif;letter-spacing:0px;word-spacing:0px;fill:#000000;fill-opacity:1;stroke:none;stroke-width:1px;stroke-linecap:butt;stroke-linejoin:miter;stroke-opacity:1"
       id="text3336">
      <path
         d="m 114.34849,928.42523 q 17.66602,18.89649 17.66602,41.74805 0,18.28125 -8.87695,28.47656 -8.78907,10.10746 -24.69727,10.10746 -7.822265,0 -13.798828,-2.6368 -5.888672,-2.7246 -10.371093,-7.64644 -4.482422,-5.00977 -9.931641,-14.32617 -4.570313,-7.73438 -7.646484,-11.60156 -2.988282,-3.86719 -5.888672,-5.44922 -2.8125,-1.58203 -6.679688,-1.58203 -5.888672,0 -9.316406,3.86718 -3.339844,3.86719 -3.339844,10.63477 0,11.07422 9.052735,23.55467 l -13.97461,5.5371 q -4.482422,-5.9765 -7.03125,-13.53513 -2.548828,-7.64648 -2.548828,-15.11719 0,-12.30469 7.822266,-20.47851 7.822265,-8.26172 19.160156,-8.26172 7.207031,0 12.304687,2.10937 5.097657,2.10938 9.052735,6.32813 4.042969,4.21875 8.964844,12.83203 5.449218,9.49219 8.789062,13.53516 3.339844,3.95507 7.207031,5.97656 3.955078,2.02148 9.404297,2.02148 8.349611,0 12.919921,-6.06445 4.6582,-6.15234 4.6582,-16.78711 0,-9.4043 -3.77929,-17.75391 -3.69141,-8.4375 -11.25,-16.96289 l 12.1289,-8.52539 z m -41.484371,0.35156 q 4.394531,0 7.382812,3.16407 2.988281,3.07617 2.988281,7.4707 0,4.30664 -2.988281,7.4707 -2.988281,3.07618 -7.382812,3.07618 -4.394532,0 -7.470704,-3.07618 -2.988281,-3.07617 -2.988281,-7.4707 0,-4.39453 2.988281,-7.4707 3.076172,-3.16407 7.470704,-3.16407 z m 18.896484,-7.4707 -74.794922,0 0,-13.97461 70.751953,0 q 13.447266,0 18.808596,-1.66992 5.44922,-1.66992 8.17383,-5.44922 2.72461,-3.86719 2.72461,-10.89844 0,-7.11914 -4.65821,-11.42578 -4.57031,-4.39453 -11.95312,-4.39453 -5.097659,0 -9.228518,2.19727 -4.042969,2.19726 -6.152344,6.15234 4.306641,0 6.855469,2.10938 2.636718,2.10937 2.636718,5.625 0,4.13086 -2.636718,6.41601 -2.636719,2.28516 -7.294922,2.28516 -5.888672,0 -9.052735,-3.95508 -3.164062,-3.95508 -3.164062,-10.2832 0,-9.22852 7.998047,-16.08399 7.998047,-6.85547 20.830075,-6.85547 13.79883,0 22.06055,8.34961 8.34961,8.34961 8.34961,21.97266 0,14.15039 -9.05274,22.06055 -9.05273,7.82226 -31.201167,7.82226 z m -30.058594,85.34181 0,0 z"
         style="font-style:normal;font-variant:normal;font-weight:normal;font-stretch:normal;font-size:180px;line-height:125%;font-family:'Noto Sans Kannada';-inkscape-font-specification:'Noto Sans Kannada, Normal';text-align:start;writing-mode:lr-tb;text-anchor:start"
         id="path3341" />
      <path
         d="m 116.98521,986.78461 9.84375,-10.45899 q 6.94336,9.22852 13.62305,13.71094 6.67969,4.48242 14.76562,4.48242 7.64649,0 11.51368,-4.04297 3.86718,-4.04297 3.86718,-11.95312 0,-8.26172 -0.79101,-16.25977 -0.79102,-7.99804 -0.79102,-13.97461 0,-12.91992 5.625,-22.76367 5.625,-9.84375 15.9961,-15.0293 10.37109,-5.27343 23.55468,-5.27343 16.17188,0 28.03711,7.20703 11.86524,7.20703 18.10547,20.74219 6.24024,13.44726 6.24024,30.67382 0,20.83008 -10.19532,32.8711 -10.19531,12.04105 -27.94922,12.04105 -14.15039,0 -22.5,-7.9981 -8.3496,-8.08592 -8.3496,-20.74217 0,-10.89844 5.625,-17.31445 5.625,-6.41602 14.32617,-6.41602 6.59179,0 10.37109,3.25195 3.7793,3.25196 3.7793,8.96485 0,5.09765 -2.90039,8.26172 -2.8125,3.07617 -7.03125,3.07617 -4.30664,0 -7.03125,-1.9336 -2.72461,-2.02148 -3.25196,-5.71289 -0.8789,2.46094 -0.8789,6.50391 0,7.64648 4.57031,12.30469 4.6582,4.57031 13.35938,4.57031 10.81054,0 16.96289,-8.26172 6.24023,-8.26172 6.24023,-23.11523 0,-20.03907 -9.93164,-32.43164 -9.84375,-12.48047 -27.24609,-12.48047 -14.67774,0 -22.76368,8.08593 -8.08593,8.08594 -8.08593,22.67579 0,6.06445 0.70312,14.32617 0.70313,8.26172 0.70313,14.32617 0,14.32617 -8.26172,22.23633 -8.26172,7.8223 -21.6211,7.8223 -9.93164,0 -18.98437,-5.0977 -9.14063,-5.18554 -19.24805,-16.87499 z"
         style="font-style:normal;font-variant:normal;font-weight:normal;font-stretch:normal;font-size:180px;line-height:125%;font-family:'Noto Sans Kannada';-inkscape-font-specification:'Noto Sans Kannada, Normal';text-align:start;writing-mode:lr-tb;text-anchor:start"
         id="path3343" />
      <path
         d="m 342.86412,907.33148 q 9.3164,0 14.0625,-0.96679 4.74609,-0.9668 7.03125,-3.69141 2.37305,-2.8125 2.37305,-7.4707 0,-11.51368 -11.68946,-22.93946 l 11.68946,-7.82226 q 7.4707,8.34961 10.98632,15.82031 3.60352,7.4707 3.60352,16.25977 0,9.22851 -5.88867,15.9082 -5.88867,6.5918 -17.31446,8.17383 11.25,8.52539 17.22657,22.67578 5.97656,14.0625 5.97656,40.34179 l 0,23.02736 -16.25977,0 0,-19.42384 q 0,-16.96289 -1.66992,-27.94922 -1.66992,-11.07422 -6.24023,-20.21484 -4.57032,-9.22852 -10.63477,-13.44727 -5.97656,-4.30664 -14.15039,-4.30664 -6.15234,0 -10.98633,2.19727 -4.74609,2.19726 -8.70117,6.59179 -3.86719,4.39454 -7.38281,12.91993 -3.42774,8.4375 -4.83399,18.98437 -1.40625,10.45899 -1.40625,25.22461 l 0,19.42384 -16.25976,0 0,-22.41212 q 0,-25.13672 5.80078,-40.16602 5.88867,-15.02929 17.13867,-22.76367 l -23.55469,0 0,-13.97461 61.08399,0 z m -21.44531,-46.23047 0,0 z"
         style="font-style:normal;font-variant:normal;font-weight:normal;font-stretch:normal;font-size:180px;line-height:125%;font-family:'Noto Sans Kannada';-inkscape-font-specification:'Noto Sans Kannada, Normal';text-align:start;writing-mode:lr-tb;text-anchor:start"
         id="path3345" />
      <path
         d="m 395.59849,921.30609 0,-13.97461 95.18555,0 0,13.97461 -95.18555,0 z m 23.55469,82.26561 -13.97461,5.5371 q -4.48242,-5.9765 -7.03125,-13.53513 -2.54883,-7.64648 -2.54883,-15.11719 0,-12.30469 7.82227,-20.47851 7.82226,-8.26172 19.16016,-8.26172 7.20703,0 12.30468,2.10937 5.09766,2.10938 9.05274,6.32813 4.04297,4.21875 8.96484,12.83203 5.44922,9.49219 8.78906,13.53516 3.33985,3.95507 7.20703,5.97656 3.95508,2.02148 9.4043,2.02148 8.34961,0 12.91992,-6.06445 4.65821,-6.15234 4.65821,-16.78711 0,-9.4043 -3.7793,-17.75391 -3.69141,-8.4375 -11.25,-16.96289 l 12.12891,-8.52539 q 17.66601,18.89649 17.66601,41.74805 0,18.28125 -8.87695,28.47656 -8.78906,10.10746 -24.69727,10.10746 -7.82226,0 -13.79883,-2.6368 -5.88867,-2.7246 -10.37109,-7.64644 -4.48242,-5.00977 -9.93164,-14.32617 -4.57031,-7.73438 -7.64648,-11.60156 -2.98829,-3.86719 -5.88868,-5.44922 -2.8125,-1.58203 -6.67968,-1.58203 -5.88868,0 -9.31641,3.86718 -3.33984,3.86719 -3.33984,10.63477 0,11.07422 9.05273,23.55467 z m 32.34375,-74.79491 q 4.39453,0 7.38281,3.16407 2.98828,3.07617 2.98828,7.4707 0,4.30664 -2.98828,7.4707 -2.98828,3.07618 -7.38281,3.07618 -4.39453,0 -7.4707,-3.07618 -2.98828,-3.07617 -2.98828,-7.4707 0,-4.39453 2.98828,-7.4707 3.07617,-3.16407 7.4707,-3.16407 z m -14.94141,77.87111 0,0 z"
         style="font-style:normal;font-variant:normal;font-weight:normal;font-stretch:normal;font-size:180px;line-height:125%;font-family:'Noto Sans Kannada';-inkscape-font-specification:'Noto Sans Kannada, Normal';text-align:start;writing-mode:lr-tb;text-anchor:start"
         id="path3347" />
      <path
         d="m 535.87193,972.19476 q -0.87891,2.46094 -0.87891,6.50391 0,7.64648 4.57032,12.30469 4.6582,4.57031 13.35937,4.57031 11.16211,0 17.13867,-8.26172 6.06446,-8.26172 6.06446,-23.99414 0,-15.38086 -5.625,-24.52148 -5.625,-9.22852 -14.50196,-13.35938 -8.87695,-4.13086 -27.50976,-4.13086 l -42.09961,0 -1.75781,-13.97461 47.28515,0 q 21.6211,0 33.57422,6.24024 12.04102,6.24023 18.7207,18.36914 6.76758,12.04101 6.76758,31.37695 0,21.79688 -10.01953,33.66211 -9.93164,11.77738 -28.125,11.77738 -14.15039,0 -22.5,-7.9981 -8.34961,-8.08592 -8.34961,-20.74217 0,-11.07422 5.53711,-17.40234 5.53711,-6.32813 14.41406,-6.32813 6.5918,0 10.3711,3.25195 3.77929,3.25196 3.77929,8.96485 0,5.09765 -2.90039,8.26172 -2.8125,3.07617 -7.03125,3.07617 -4.30664,0 -7.03125,-1.9336 -2.72461,-2.02148 -3.25195,-5.71289 z"
         style="font-style:normal;font-variant:normal;font-weight:normal;font-stretch:normal;font-size:180px;line-height:125%;font-family:'Noto Sans Kannada';-inkscape-font-specification:'Noto Sans Kannada, Normal';text-align:start;writing-mode:lr-tb;text-anchor:start"
         id="path3349" />
      <path
         d="m 630.09068,921.30609 -24.08203,0 0,-13.97461 84.63867,0 q 8.87695,0 13.62305,-0.8789 4.83398,-0.87891 7.29492,-3.60352 2.54883,-2.72461 2.54883,-7.64648 0,-11.51368 -11.68945,-22.93946 l 11.68945,-7.82226 q 7.38281,8.26172 10.98633,15.73242 3.60351,7.4707 3.60351,16.25976 0,9.4043 -5.97656,15.9961 -5.97656,6.5918 -17.92969,8.26172 11.42578,6.94336 17.66602,19.16015 6.24023,12.2168 6.24023,27.33399 0,20.03906 -8.4375,30.84961 -8.4375,10.72269 -23.64258,10.72269 -10.19531,0 -16.96289,-3.6914 -6.76757,-3.7793 -12.39257,-12.48051 -4.30665,7.55861 -11.25,11.86521 -6.94336,4.3067 -18.54493,4.3067 -14.76562,0 -23.11523,-10.81058 -8.34961,-10.89844 -8.34961,-30.76172 0,-15.46875 6.24023,-27.42188 6.24024,-12.04101 17.8418,-18.45703 z m 30.32227,50.27344 13.79882,0 q 0.70313,10.72266 6.5918,16.875 5.88867,6.06445 14.41406,6.06445 18.8086,0 18.8086,-26.80664 0,-13.18359 -5.44922,-23.90625 -5.36133,-10.72265 -15.55664,-16.61133 -10.19531,-5.88867 -23.81836,-5.88867 l -2.98828,0 q -13.79883,0 -24.16992,5.625 -10.28321,5.625 -15.82032,16.25977 -5.44922,10.54687 -5.44922,24.16992 0,13.71094 4.48243,20.47851 4.48242,6.67969 14.0625,6.67969 8.70117,0 14.41406,-6.06445 5.71289,-6.06445 6.67969,-16.875 z m 0.79101,-110.47852 0,0 z"
         style="font-style:normal;font-variant:normal;font-weight:normal;font-stretch:normal;font-size:180px;line-height:125%;font-family:'Noto Sans Kannada';-inkscape-font-specification:'Noto Sans Kannada, Normal';text-align:start;writing-mode:lr-tb;text-anchor:start"
         id="path3351" />
    </g>
  </g>
</svg>
