<?xml version="1.0" encoding="UTF-8" standalone="no"?>
<!-- Created with Inkscape (http://www.inkscape.org/) -->

<svg
   xmlns:dc="http://purl.org/dc/elements/1.1/"
   xmlns:cc="http://creativecommons.org/ns#"
   xmlns:rdf="http://www.w3.org/1999/02/22-rdf-syntax-ns#"
   xmlns:svg="http://www.w3.org/2000/svg"
   xmlns="http://www.w3.org/2000/svg"
   xmlns:sodipodi="http://sodipodi.sourceforge.net/DTD/sodipodi-0.dtd"
   xmlns:inkscape="http://www.inkscape.org/namespaces/inkscape"
   width="360mm"
   height="60mm"
   viewBox="0 0 1275.5905 212.59842"
   id="svg2"
   version="1.1"
   inkscape:version="0.91 r13725"
   sodipodi:docname="munnerram (improvement) bad.svg">
  <defs
     id="defs4" />
  <sodipodi:namedview
     id="base"
     pagecolor="#ffffff"
     bordercolor="#666666"
     borderopacity="1.0"
     inkscape:pageopacity="0.0"
     inkscape:pageshadow="2"
     inkscape:zoom="2.8"
     inkscape:cx="317.81857"
     inkscape:cy="101.09575"
     inkscape:document-units="px"
     inkscape:current-layer="text3336"
     showgrid="false"
     inkscape:window-width="1920"
     inkscape:window-height="1027"
     inkscape:window-x="-8"
     inkscape:window-y="-8"
     inkscape:window-maximized="1" />
  <metadata
     id="metadata7">
    <rdf:RDF>
      <cc:Work
         rdf:about="">
        <dc:format>image/svg+xml</dc:format>
        <dc:type
           rdf:resource="http://purl.org/dc/dcmitype/StillImage" />
        <dc:title></dc:title>
      </cc:Work>
    </rdf:RDF>
  </metadata>
  <g
     inkscape:label="Layer 1"
     inkscape:groupmode="layer"
     id="layer1"
     transform="translate(0,-839.76378)">
    <g
       style="font-style:normal;font-weight:normal;font-size:40px;line-height:125%;font-family:sans-serif;letter-spacing:0px;word-spacing:0px;fill:#000000;fill-opacity:1;stroke:none;stroke-width:1px;stroke-linecap:butt;stroke-linejoin:miter;stroke-opacity:1"
       id="text3336">
      <path
         d="m 184.7991,988.43366 6.5918,-75.05859 15.38086,0 -5.80078,68.02734 35.15625,0 4.04297,-46.8457 q 0.96679,-11.60157 6.85546,-17.40235 5.88868,-5.88867 16.69922,-5.88867 13.79883,0 21.18164,11.68945 7.38282,11.60157 7.38282,27.77344 0,18.89649 -7.38282,28.30078 -7.38281,9.4043 -22.14843,9.4043 l -77.95899,0 z m 66.88477,-7.03125 12.39257,0 q 10.45899,0 15.73243,-7.29492 5.27343,-7.38282 5.27343,-22.06055 0,-14.67773 -5.53711,-23.99414 -5.44921,-9.4043 -13.0957,-9.4043 -4.57031,0 -7.11914,3.33985 -2.54883,3.25195 -3.16406,9.84375 l -4.48242,49.57031 z"
         style="font-size:180px"
         id="path3357"
         inkscape:connector-curvature="0" />
      <path
         d="m 382.59068,911.58936 -3.86719,49.04296 -45.70312,0 3.6914,-42.01171 -57.74414,0 0.79102,-7.03125 102.83203,0 z m -16.34766,7.03125 -22.5,0 -2.37304,26.1914 22.76367,0 2.10937,-26.1914 z"
         style="font-size:180px"
         id="path3361" />
      <path
         d="m 574.80748,911.58936 -0.52735,7.03125 -23.73047,0 -6.06445,68.02734 -15.73242,0 6.06445,-68.02734 -19.24804,0 q -12.04102,0 -19.07227,4.30664 14.15039,13.18359 14.15039,32.60742 0,12.48047 -6.5918,22.76367 -6.5039,10.2832 -16.875,10.2832 -9.66796,0 -15.38086,-8.52539 -5.625,-8.52539 -5.625,-20.65429 0,-18.72071 12.48047,-31.55274 -11.77734,-9.22851 -27.24609,-9.22851 -15.20508,0 -26.01563,7.4707 -10.72265,7.38281 -13.62304,20.47851 7.99804,-7.11914 18.80859,-7.11914 9.75586,0 16.43555,7.03125 6.67969,6.94336 6.67969,16.875 0,11.07422 -6.50391,18.19336 -6.50391,7.03125 -17.22656,7.03125 -12.30469,0 -19.6875,-9.22851 -7.29492,-9.22852 -7.29492,-23.20313 0,-21.00586 15.38085,-33.83789 15.46875,-12.83203 38.67188,-12.83203 19.6875,0 32.87109,9.14063 10.89844,-7.03125 29.35547,-7.03125 l 55.54688,0 z M 484.28013,932.771 q -10.89843,10.2832 -10.89843,25.83984 0,6.76758 2.72461,12.39258 2.7246,5.53711 7.38281,5.53711 4.21875,0 6.94336,-6.41602 2.72461,-6.5039 2.72461,-12.65625 0,-16.34765 -8.87696,-24.69726 z m -59.32617,15.38086 q -5.625,0 -9.22851,3.77929 -3.60352,3.7793 -3.60352,9.4043 0,5.53711 3.51563,9.22851 3.60351,3.60352 9.14062,3.60352 5.36133,0 9.14063,-3.69141 3.86718,-3.77929 3.86718,-9.14062 0,-5.625 -3.6914,-9.4043 -3.60352,-3.77929 -9.14063,-3.77929 z m 59.67774,-55.63477 q -4.39454,0 -7.73438,-3.33984 -3.33984,-3.33985 -3.33984,-7.73438 0,-4.92187 3.16406,-8.34961 3.25195,-3.51562 8.26172,-3.51562 4.74609,0 8.08594,3.42773 3.42773,3.33984 3.42773,8.26172 0,4.30664 -3.33984,7.82227 -3.33985,3.42773 -8.52539,3.42773 z"
         style="font-size:180px"
         id="path3363" />
      <path
         d="m 756.91685,911.58936 -0.52734,7.03125 -23.73047,0 -6.06445,68.02734 -15.73243,0 6.06446,-68.02734 -19.24805,0 q -12.04101,0 -19.07226,4.30664 14.15039,13.18359 14.15039,32.60742 0,12.48047 -6.5918,22.76367 -6.50391,10.2832 -16.875,10.2832 -9.66797,0 -15.38086,-8.52539 -5.625,-8.52539 -5.625,-20.65429 0,-18.72071 12.48047,-31.55274 -11.77735,-9.22851 -27.2461,-9.22851 -15.20507,0 -26.01562,7.4707 -10.72266,7.38281 -13.62305,20.47851 7.99805,-7.11914 18.8086,-7.11914 9.75586,0 16.43554,7.03125 6.67969,6.94336 6.67969,16.875 0,11.07422 -6.50391,18.19336 -6.5039,7.03125 -17.22656,7.03125 -12.30469,0 -19.6875,-9.22851 -7.29492,-9.22852 -7.29492,-23.20313 0,-21.00586 15.38086,-33.83789 15.46875,-12.83203 38.67187,-12.83203 19.6875,0 32.8711,9.14063 10.89844,-7.03125 29.35547,-7.03125 l 55.54687,0 z M 666.38951,932.771 q -10.89844,10.2832 -10.89844,25.83984 0,6.76758 2.72461,12.39258 2.72461,5.53711 7.38281,5.53711 4.21875,0 6.94336,-6.41602 2.72461,-6.5039 2.72461,-12.65625 0,-16.34765 -8.87695,-24.69726 z m -59.32617,15.38086 q -5.625,0 -9.22852,3.77929 -3.60351,3.7793 -3.60351,9.4043 0,5.53711 3.51562,9.22851 3.60352,3.60352 9.14063,3.60352 5.36132,0 9.14062,-3.69141 3.86719,-3.77929 3.86719,-9.14062 0,-5.625 -3.69141,-9.4043 -3.60351,-3.77929 -9.14062,-3.77929 z"
         style="font-size:180px"
         id="path3365" />
      <path
         d="m 836.89732,872.91748 q -1.58203,-0.17578 -5.00976,-0.17578 -24.78516,0 -40.78125,14.67773 -15.9961,14.67774 -15.9961,38.40821 0,22.32422 13.53516,35.94726 13.53515,13.62305 35.85937,13.62305 3.60352,0 7.5586,-0.61524 -14.41407,-7.38281 -14.41407,-21.35742 0,-10.45898 7.91016,-17.49023 7.99805,-7.03125 19.16016,-7.03125 11.07422,0 18.45703,8.08594 7.38281,7.99804 7.38281,19.51171 0,14.41407 -11.07422,23.29102 -10.98633,8.78906 -27.07031,8.78906 -27.1582,0 -45.87891,-17.66601 -18.63281,-17.66602 -18.63281,-44.1211 0,-28.82812 20.12695,-47.63672 20.21485,-18.89648 50.00977,-18.89648 17.66601,0 27.94922,7.29492 10.37109,7.20703 10.37109,20.91797 0,10.89844 -7.29492,18.19336 -7.20703,7.29492 -18.19336,7.29492 -10.01953,0 -16.875,-6.24023 -6.76758,-6.32813 -6.76758,-15.90821 0,-11.51367 9.66797,-18.89648 z m 10.72266,4.13086 q -4.7461,0 -7.91016,3.33984 -3.16406,3.33985 -3.16406,8.08594 0,4.48242 3.33984,7.73438 3.33985,3.16406 7.91016,3.16406 4.57031,0 7.82226,-3.25195 3.25196,-3.33985 3.25196,-7.82227 0,-4.6582 -3.33985,-7.91016 -3.25195,-3.33984 -7.91015,-3.33984 z m -5.80078,68.37891 q -5.44922,0 -9.05274,3.86718 -3.60351,3.7793 -3.60351,9.31641 0,4.74609 3.77929,8.34961 3.86719,3.51562 8.61328,3.51562 4.92188,0 8.70118,-3.77929 3.77929,-3.7793 3.77929,-8.61328 0,-5.00977 -3.6914,-8.78907 -3.60352,-3.86718 -8.52539,-3.86718 z"
         style="font-size:180px"
         id="path3367" />
      <path
         d="m 938.23521,986.64795 -15.55664,0 4.04297,-46.23047 q 0.61523,-7.03125 0.61523,-10.19531 0,-5.80078 -2.46093,-8.70117 -2.46094,-2.90039 -7.38282,-2.90039 -6.5039,0 -9.22851,3.6914 -2.72461,3.69141 -3.33985,11.42578 l -4.48242,52.91016 -7.20703,0 4.83399,-55.81055 q 0.8789,-10.63476 7.11914,-15.99609 6.32812,-5.36133 18.01757,-5.36133 8.4375,0 13.44727,3.42773 5.09766,3.42774 6.67969,10.19532 2.72461,-6.15235 9.22851,-9.84375 6.50391,-3.7793 14.23828,-3.7793 13.53516,0 22.14844,10.45898 8.61328,10.3711 8.61328,27.07032 0,28.30078 -11.33789,43.76953 -11.25,15.46879 -32.25586,15.46879 l -40.2539,0 q -7.91016,0 -11.77735,3.3398 -3.77929,3.3398 -4.39453,12.3047 -0.8789,13.5351 -9.14062,13.5351 -7.5586,0 -7.5586,-9.0527 0,-11.1621 7.38282,-19.1601 7.38281,-7.9102 19.59961,-7.9102 l 37.61718,0 q 12.74414,0 19.95117,-5.09766 7.29493,-5.09765 10.98633,-17.49023 3.69141,-12.39258 3.69141,-32.08008 0,-11.51367 -5.09766,-17.92969 -5.09765,-6.5039 -13.44726,-6.5039 -7.64649,0 -13.1836,7.03125 -5.53711,7.03125 -6.59179,19.16015 l -3.51563,40.25391 z m 8.17383,-94.13086 q -4.39453,0 -7.73438,-3.33984 -3.33984,-3.33985 -3.33984,-7.73438 0,-4.92187 3.16406,-8.34961 3.25196,-3.51562 8.26172,-3.51562 4.7461,0 8.08594,3.42773 3.42773,3.33984 3.42773,8.26172 0,4.30664 -3.33984,7.82227 -3.33984,3.42773 -8.52539,3.42773 z"
         style="font-size:180px"
         id="path3369" />
      <path
         d="m 1067.6102,986.64795 -15.5566,0 4.0429,-46.23047 q 0.6153,-7.03125 0.6153,-10.19531 0,-5.80078 -2.461,-8.70117 -2.4609,-2.90039 -7.3828,-2.90039 -6.5039,0 -9.2285,3.6914 -2.7246,3.69141 -3.3398,11.42578 l -4.4825,52.91016 -7.207,0 4.834,-55.81055 q 0.8789,-10.63476 7.1191,-15.99609 6.3282,-5.36133 18.0176,-5.36133 8.4375,0 13.4473,3.42773 5.0976,3.42774 6.6797,10.19532 2.7246,-6.15235 9.2285,-9.84375 6.5039,-3.7793 14.2383,-3.7793 13.5351,0 22.1484,10.45898 8.6133,10.3711 8.6133,27.07032 0,28.30078 -11.3379,43.76953 -11.25,15.46879 -32.2559,15.46879 l -40.2539,0 q -7.9101,0 -11.7773,3.3398 -3.7793,3.3398 -4.3945,12.3047 -0.879,13.5351 -9.1407,13.5351 -7.5586,0 -7.5586,-9.0527 0,-11.1621 7.3828,-19.1601 7.3829,-7.9102 19.5997,-7.9102 l 37.6171,0 q 12.7442,0 19.9512,-5.09766 7.2949,-5.09765 10.9863,-17.49023 3.6914,-12.39258 3.6914,-32.08008 0,-11.51367 -5.0976,-17.92969 -5.0977,-6.5039 -13.4473,-6.5039 -7.6465,0 -13.1836,7.03125 -5.5371,7.03125 -6.5918,19.16015 l -3.5156,40.25391 z"
         style="font-size:180px"
         id="path3371" />
      <path
         d="m 1151.8973,986.64795 6.5918,-75.05859 15.3809,0 -5.8008,68.02734 35.1562,0 4.043,-46.8457 q 0.9668,-11.60157 6.8555,-17.40235 5.8887,-5.88867 16.6992,-5.88867 13.7988,0 21.1816,11.68945 7.3829,11.60157 7.3829,27.77344 0,18.89649 -7.3829,28.30078 -7.3828,9.4043 -22.1484,9.4043 l -77.959,0 z m 66.8848,-7.03125 12.3926,0 q 10.4589,0 15.7324,-7.29492 5.2734,-7.38282 5.2734,-22.06055 0,-14.67773 -5.5371,-23.99414 -5.4492,-9.4043 -13.0957,-9.4043 -4.5703,0 -7.1191,3.33985 -2.5489,3.25195 -3.1641,9.84375 l -4.4824,49.57031 z m -14.1504,-87.09961 q -4.3945,0 -7.7344,-3.33984 -3.3398,-3.33985 -3.3398,-7.73438 0,-4.92187 3.164,-8.34961 3.252,-3.51562 8.2618,-3.51562 4.7461,0 8.0859,3.42773 3.4277,3.33984 3.4277,8.26172 0,4.30664 -3.3398,7.82227 -3.3399,3.42773 -8.5254,3.42773 z"
         style="font-size:180px"
         id="path3373" />
    </g>
    <flowRoot
       xml:space="preserve"
       id="flowRoot3340"
       style="font-style:normal;font-weight:normal;font-size:40px;line-height:125%;font-family:sans-serif;letter-spacing:0px;word-spacing:0px;fill:#000000;fill-opacity:1;stroke:none;stroke-width:1px;stroke-linecap:butt;stroke-linejoin:miter;stroke-opacity:1"
       transform="translate(0,839.76378)"><flowRegion
         id="flowRegion3342"><rect
           id="rect3344"
           width="28.571428"
           height="42.857143"
           x="160"
           y="-7.4015808" /></flowRegion><flowPara
         id="flowPara3346"></flowPara></flowRoot>    <flowRoot
       xml:space="preserve"
       id="flowRoot3348"
       style="font-style:normal;font-weight:normal;font-size:40px;line-height:125%;font-family:sans-serif;letter-spacing:0px;word-spacing:0px;fill:#000000;fill-opacity:1;stroke:none;stroke-width:1px;stroke-linecap:butt;stroke-linejoin:miter;stroke-opacity:1"
       transform="translate(0,839.76378)"><flowRegion
         id="flowRegion3350"><rect
           id="rect3352"
           width="22.857143"
           height="65.714287"
           x="102.85714"
           y="-7.4015808" /></flowRegion><flowPara
         id="flowPara3354"></flowPara></flowRoot>  </g>
</svg>
