<?xml version="1.0" encoding="UTF-8" standalone="no"?>
<!-- Created with Inkscape (http://www.inkscape.org/) -->

<svg
   xmlns:dc="http://purl.org/dc/elements/1.1/"
   xmlns:cc="http://creativecommons.org/ns#"
   xmlns:rdf="http://www.w3.org/1999/02/22-rdf-syntax-ns#"
   xmlns:svg="http://www.w3.org/2000/svg"
   xmlns="http://www.w3.org/2000/svg"
   xmlns:sodipodi="http://sodipodi.sourceforge.net/DTD/sodipodi-0.dtd"
   xmlns:inkscape="http://www.inkscape.org/namespaces/inkscape"
   width="300mm"
   height="60mm"
   viewBox="0 0 1062.9921 212.59842"
   id="svg2"
   version="1.1"
   inkscape:version="0.91 r13725"
   sodipodi:docname="drawing.svg">
  <defs
     id="defs4" />
  <sodipodi:namedview
     id="base"
     pagecolor="#ffffff"
     bordercolor="#666666"
     borderopacity="1.0"
     inkscape:pageopacity="0.0"
     inkscape:pageshadow="2"
     inkscape:zoom="0.49497475"
     inkscape:cx="945.63887"
     inkscape:cy="677.07711"
     inkscape:document-units="px"
     inkscape:current-layer="layer1"
     showgrid="false"
     height="50mm"
     inkscape:window-width="1920"
     inkscape:window-height="1027"
     inkscape:window-x="-8"
     inkscape:window-y="-8"
     inkscape:window-maximized="1">
    <inkscape:grid
       type="xygrid"
       id="grid3348" />
  </sodipodi:namedview>
  <metadata
     id="metadata7">
    <rdf:RDF>
      <cc:Work
         rdf:about="">
        <dc:format>image/svg+xml</dc:format>
        <dc:type
           rdf:resource="http://purl.org/dc/dcmitype/StillImage" />
        <dc:title></dc:title>
      </cc:Work>
    </rdf:RDF>
  </metadata>
  <g
     inkscape:label="Layer 1"
     inkscape:groupmode="layer"
     id="layer1"
     transform="translate(0,-839.76378)">
    <g
       style="font-style:normal;font-weight:normal;font-size:40px;line-height:125%;font-family:sans-serif;letter-spacing:0px;word-spacing:0px;fill:#000000;fill-opacity:1;stroke:none;stroke-width:1px;stroke-linecap:butt;stroke-linejoin:miter;stroke-opacity:1"
       id="text3336">
      <path
         d="m 129.17586,987.40662 q -2.54883,24.34568 -14.23828,36.56248 -11.60157,12.2168 -32.343754,12.2168 -27.158203,0 -42.802734,-18.7207 -15.644531,-18.6328 -15.644531,-47.02147 0,-16.78711 6.767578,-31.28907 6.855469,-14.50195 20.566406,-26.80664 l 4.482422,4.48242 q -12.304688,10.45899 -18.457031,24.16993 -6.152344,13.71093 -6.152344,30.67382 0,24.08204 13.271484,39.90231 13.359375,15.8204 37.88086,15.8204 14.15039,0 21.708984,-9.3165 7.64648,-9.2285 9.49219,-30.67378 l -50.800784,0 6.591797,-75.0586 15.38086,0 -5.800782,68.02735 35.156249,0 4.04297,-46.84571 q 0.9668,-11.60156 6.85547,-17.40234 5.88867,-5.88867 16.69922,-5.88867 13.79883,0 21.18164,11.68945 7.38281,11.60156 7.38281,27.77344 0,18.89648 -7.38281,28.30078 -7.38281,9.4043 -22.14844,9.4043 l -11.68945,0 z m 0.61523,-7.03125 12.39258,0 q 10.45898,0 15.73242,-7.29493 5.27344,-7.38281 5.27344,-22.06054 0,-14.67774 -5.53711,-23.99414 -5.44922,-9.4043 -13.0957,-9.4043 -4.57032,0 -7.11914,3.33984 -2.54883,3.25196 -3.16407,9.84375 l -4.48242,49.57032 z"
         style="font-size:180px"
         id="path3351" />
      <path
         d="m 362.34969,912.34802 -0.52735,7.03125 -23.73047,0 -6.06445,68.02735 -15.73242,0 6.06445,-68.02735 -19.24805,0 q -12.04101,0 -19.07226,4.30664 14.15039,13.1836 14.15039,32.60742 0,12.48047 -6.5918,22.76368 -6.5039,10.2832 -16.875,10.2832 -9.66797,0 -15.38086,-8.52539 -5.625,-8.52539 -5.625,-20.6543 0,-18.7207 12.48047,-31.55273 -11.77734,-9.22852 -27.24609,-9.22852 -15.20508,0 -26.01563,7.47071 -10.72265,7.38281 -13.62304,20.47851 7.99804,-7.11914 18.80859,-7.11914 9.75586,0 16.43555,7.03125 6.67968,6.94336 6.67968,16.875 0,11.07422 -6.5039,18.19336 -6.50391,7.03125 -17.22656,7.03125 -12.30469,0 -19.6875,-9.22852 -7.29493,-9.22851 -7.29493,-23.20312 0,-21.00586 15.38086,-33.83789 15.46875,-12.83203 38.67188,-12.83203 19.6875,0 32.87109,9.14062 10.89844,-7.03125 29.35547,-7.03125 l 55.54688,0 z m -90.52735,21.18164 q -10.89844,10.28321 -10.89844,25.83985 0,6.76757 2.72461,12.39257 2.72461,5.53711 7.38282,5.53711 4.21875,0 6.94336,-6.41601 2.72461,-6.50391 2.72461,-12.65625 0,-16.34766 -8.87696,-24.69727 z m -59.32617,15.38086 q -5.625,0 -9.22852,3.7793 -3.60351,3.7793 -3.60351,9.4043 0,5.53711 3.51562,9.22851 3.60352,3.60352 9.14063,3.60352 5.36133,0 9.14062,-3.69141 3.86719,-3.7793 3.86719,-9.14062 0,-5.625 -3.6914,-9.4043 -3.60352,-3.7793 -9.14063,-3.7793 z m 59.67773,-55.63476 q -4.39453,0 -7.73437,-3.33985 -3.33984,-3.33984 -3.33984,-7.73437 0,-4.92188 3.16406,-8.34961 3.25195,-3.51563 8.26172,-3.51563 4.74609,0 8.08593,3.42774 3.42774,3.33984 3.42774,8.26172 0,4.30664 -3.33984,7.82226 -3.33985,3.42774 -8.5254,3.42774 z"
         style="font-size:180px"
         id="path3353" />
      <path
         d="m 442.33015,873.67615 q -1.58203,-0.17578 -5.00976,-0.17578 -24.78516,0 -40.78125,14.67773 -15.99609,14.67773 -15.99609,38.4082 0,22.32422 13.53515,35.94727 13.53516,13.62305 35.85938,13.62305 3.60351,0 7.55859,-0.61524 -14.41406,-7.38281 -14.41406,-21.35742 0,-10.45898 7.91015,-17.49023 7.99805,-7.03125 19.16016,-7.03125 11.07422,0 18.45703,8.08593 7.38281,7.99805 7.38281,19.51172 0,14.41406 -11.07421,23.29102 -10.98633,8.78906 -27.07032,8.78906 -27.1582,0 -45.8789,-17.66602 -18.63282,-17.66601 -18.63282,-44.12109 0,-28.82812 20.12696,-47.63672 20.21484,-18.89648 50.00976,-18.89648 17.66602,0 27.94922,7.29492 10.3711,7.20703 10.3711,20.91797 0,10.89844 -7.29493,18.19336 -7.20703,7.29492 -18.19336,7.29492 -10.01953,0 -16.875,-6.24024 -6.76757,-6.32812 -6.76757,-15.9082 0,-11.51367 9.66796,-18.89648 z m 10.72266,4.13086 q -4.74609,0 -7.91016,3.33984 -3.16406,3.33984 -3.16406,8.08594 0,4.48242 3.33985,7.73437 3.33984,3.16407 7.91015,3.16407 4.57031,0 7.82227,-3.25196 3.25195,-3.33984 3.25195,-7.82226 0,-4.65821 -3.33984,-7.91016 -3.25196,-3.33984 -7.91016,-3.33984 z m -5.80078,68.3789 q -5.44922,0 -9.05273,3.86719 -3.60352,3.7793 -3.60352,9.31641 0,4.74609 3.7793,8.34961 3.86718,3.51562 8.61328,3.51562 4.92187,0 8.70117,-3.7793 3.7793,-3.77929 3.7793,-8.61328 0,-5.00976 -3.69141,-8.78906 -3.60352,-3.86719 -8.52539,-3.86719 z"
         style="font-size:180px"
         id="path3355" />
      <path
         d="m 667.15437,912.34802 -0.52734,7.03125 -23.73047,0 -6.06445,68.02735 -15.73242,0 6.06445,-68.02735 -19.24805,0 q -12.04101,0 -19.07226,4.30664 14.15039,13.1836 14.15039,32.60742 0,12.48047 -6.5918,22.76368 -6.50391,10.2832 -16.875,10.2832 -9.66797,0 -15.38086,-8.52539 -5.625,-8.52539 -5.625,-20.6543 0,-18.7207 12.48047,-31.55273 -11.77734,-9.22852 -27.24609,-9.22852 -15.20508,0 -26.01563,7.47071 -10.72266,7.38281 -13.62305,20.47851 7.99805,-7.11914 18.8086,-7.11914 9.75586,0 16.43554,7.03125 6.67969,6.94336 6.67969,16.875 0,11.07422 -6.5039,18.19336 -6.50391,7.03125 -17.22657,7.03125 -12.30468,0 -19.6875,-9.22852 -7.29492,-9.22851 -7.29492,-23.20312 0,-21.00586 15.38086,-33.83789 15.46875,-12.83203 38.67188,-12.83203 19.6875,0 32.87109,9.14062 10.89844,-7.03125 29.35547,-7.03125 l 55.54687,0 z m -90.52734,21.18164 q -10.89844,10.28321 -10.89844,25.83985 0,6.76757 2.72461,12.39257 2.72461,5.53711 7.38281,5.53711 4.21875,0 6.94336,-6.41601 2.72461,-6.50391 2.72461,-12.65625 0,-16.34766 -8.87695,-24.69727 z m -59.32617,15.38086 q -5.625,0 -9.22852,3.7793 -3.60351,3.7793 -3.60351,9.4043 0,5.53711 3.51562,9.22851 3.60352,3.60352 9.14063,3.60352 5.36132,0 9.14062,-3.69141 3.86719,-3.7793 3.86719,-9.14062 0,-5.625 -3.69141,-9.4043 -3.60351,-3.7793 -9.14062,-3.7793 z"
         style="font-size:180px"
         id="path3357" />
      <path
         d="m 725.77742,987.40662 -15.55664,0 4.04297,-46.23047 q 0.61523,-7.03125 0.61523,-10.19532 0,-5.80078 -2.46093,-8.70117 -2.46094,-2.90039 -7.38282,-2.90039 -6.5039,0 -9.22851,3.69141 -2.72461,3.6914 -3.33985,11.42578 l -4.48242,52.91016 -7.20703,0 4.83398,-55.81055 q 0.87891,-10.63477 7.11915,-15.99609 6.32812,-5.36133 18.01757,-5.36133 8.4375,0 13.44727,3.42773 5.09766,3.42774 6.67969,10.19531 2.72461,-6.15234 9.22851,-9.84375 6.50391,-3.77929 14.23828,-3.77929 13.53516,0 22.14844,10.45898 8.61328,10.3711 8.61328,27.07031 0,28.30079 -11.33789,43.76954 -11.25,15.46872 -32.25586,15.46872 l -40.2539,0 q -7.91016,0 -11.77735,3.3399 -3.77929,3.3398 -4.39453,12.3047 -0.87891,13.5351 -9.14062,13.5351 -7.5586,0 -7.5586,-9.0527 0,-11.1621 7.38281,-19.1602 7.38282,-7.9101 19.59961,-7.9101 l 37.61719,0 q 12.74414,0 19.95117,-5.09769 7.29493,-5.09766 10.98633,-17.49023 3.69141,-12.39258 3.69141,-32.08008 0,-11.51367 -5.09766,-17.92969 -5.09765,-6.50391 -13.44726,-6.50391 -7.64649,0 -13.1836,7.03125 -5.53711,7.03125 -6.59179,19.16016 l -3.51563,40.25391 z m 8.17383,-94.13086 q -4.39453,0 -7.73438,-3.33985 -3.33984,-3.33984 -3.33984,-7.73437 0,-4.92188 3.16406,-8.34961 3.25196,-3.51563 8.26172,-3.51563 4.74609,0 8.08594,3.42774 3.42773,3.33984 3.42773,8.26172 0,4.30664 -3.33984,7.82226 -3.33984,3.42774 -8.52539,3.42774 z"
         style="font-size:180px"
         id="path3359" />
      <path
         d="m 855.15242,987.40662 -15.55664,0 4.04297,-46.23047 q 0.61523,-7.03125 0.61523,-10.19532 0,-5.80078 -2.46093,-8.70117 -2.46094,-2.90039 -7.38282,-2.90039 -6.5039,0 -9.22851,3.69141 -2.72461,3.6914 -3.33985,11.42578 l -4.48242,52.91016 -7.20703,0 4.83398,-55.81055 q 0.87891,-10.63477 7.11915,-15.99609 6.32812,-5.36133 18.01757,-5.36133 8.4375,0 13.44727,3.42773 5.09766,3.42774 6.67969,10.19531 2.72461,-6.15234 9.22851,-9.84375 6.50391,-3.77929 14.23828,-3.77929 13.53516,0 22.14844,10.45898 8.61328,10.3711 8.61328,27.07031 0,28.30079 -11.33789,43.76954 -11.25,15.46872 -32.25586,15.46872 l -40.2539,0 q -7.91016,0 -11.77735,3.3399 -3.77929,3.3398 -4.39453,12.3047 -0.87891,13.5351 -9.14062,13.5351 -7.5586,0 -7.5586,-9.0527 0,-11.1621 7.38281,-19.1602 7.38282,-7.9101 19.59961,-7.9101 l 37.61719,0 q 12.74414,0 19.95117,-5.09769 7.29493,-5.09766 10.98633,-17.49023 3.69141,-12.39258 3.69141,-32.08008 0,-11.51367 -5.09766,-17.92969 -5.09765,-6.50391 -13.44726,-6.50391 -7.64649,0 -13.1836,7.03125 -5.53711,7.03125 -6.59179,19.16016 l -3.51563,40.25391 z"
         style="font-size:180px"
         id="path3361" />
      <path
         d="m 939.43953,987.40662 6.5918,-75.0586 15.38086,0 -5.80079,68.02735 35.15625,0 4.04297,-46.84571 q 0.9668,-11.60156 6.85548,-17.40234 5.8887,-5.88867 16.6992,-5.88867 13.7988,0 21.1817,11.68945 7.3828,11.60156 7.3828,27.77344 0,18.89648 -7.3828,28.30078 -7.3829,9.4043 -22.1485,9.4043 l -77.95897,0 z m 66.88477,-7.03125 12.3926,0 q 10.459,0 15.7324,-7.29493 5.2734,-7.38281 5.2734,-22.06054 0,-14.67774 -5.5371,-23.99414 -5.4492,-9.4043 -13.0957,-9.4043 -4.5703,0 -7.1191,3.33984 -2.5488,3.25196 -3.1641,9.84375 l -4.4824,49.57032 z m -14.1504,-87.09961 q -4.39453,0 -7.73437,-3.33985 -3.33984,-3.33984 -3.33984,-7.73437 0,-4.92188 3.16406,-8.34961 3.25195,-3.51563 8.26172,-3.51563 4.74609,0 8.08593,3.42774 3.4277,3.33984 3.4277,8.26172 0,4.30664 -3.3398,7.82226 -3.33985,3.42774 -8.5254,3.42774 z"
         style="font-size:180px"
         id="path3363" />
    </g>
    <flowRoot
       xml:space="preserve"
       id="flowRoot3340"
       style="font-style:normal;font-weight:normal;font-size:40px;line-height:125%;font-family:sans-serif;letter-spacing:0px;word-spacing:0px;fill:#000000;fill-opacity:1;stroke:none;stroke-width:1px;stroke-linecap:butt;stroke-linejoin:miter;stroke-opacity:1"><flowRegion
         id="flowRegion3342"><rect
           id="rect3344"
           width="44.446712"
           height="96.974648"
           x="707.10681"
           y="963.46881" /></flowRegion><flowPara
         id="flowPara3346"></flowPara></flowRoot>  </g>
</svg>
