<?xml version="1.0" encoding="UTF-8" standalone="no"?>
<!-- Created with Inkscape (http://www.inkscape.org/) -->

<svg
   xmlns:dc="http://purl.org/dc/elements/1.1/"
   xmlns:cc="http://creativecommons.org/ns#"
   xmlns:rdf="http://www.w3.org/1999/02/22-rdf-syntax-ns#"
   xmlns:svg="http://www.w3.org/2000/svg"
   xmlns="http://www.w3.org/2000/svg"
   xmlns:sodipodi="http://sodipodi.sourceforge.net/DTD/sodipodi-0.dtd"
   xmlns:inkscape="http://www.inkscape.org/namespaces/inkscape"
   width="210mm"
   height="60mm"
   viewBox="0 0 744.09449 212.59842"
   id="svg2"
   version="1.1"
   inkscape:version="0.91 r13725"
   sodipodi:docname="at-tahseen (improvement) good.svg">
  <defs
     id="defs4" />
  <sodipodi:namedview
     id="base"
     pagecolor="#ffffff"
     bordercolor="#666666"
     borderopacity="1.0"
     inkscape:pageopacity="0.0"
     inkscape:pageshadow="2"
     inkscape:zoom="0.35"
     inkscape:cx="-283.57143"
     inkscape:cy="520"
     inkscape:document-units="px"
     inkscape:current-layer="layer1"
     showgrid="false"
     inkscape:window-width="1920"
     inkscape:window-height="1027"
     inkscape:window-x="-8"
     inkscape:window-y="-8"
     inkscape:window-maximized="1" />
  <metadata
     id="metadata7">
    <rdf:RDF>
      <cc:Work
         rdf:about="">
        <dc:format>image/svg+xml</dc:format>
        <dc:type
           rdf:resource="http://purl.org/dc/dcmitype/StillImage" />
        <dc:title></dc:title>
      </cc:Work>
    </rdf:RDF>
  </metadata>
  <g
     inkscape:label="Layer 1"
     inkscape:groupmode="layer"
     id="layer1"
     transform="translate(0,-839.76378)">
    <g
       style="font-style:normal;font-weight:normal;font-size:40px;line-height:125%;font-family:sans-serif;letter-spacing:0px;word-spacing:0px;fill:#000000;fill-opacity:1;stroke:none;stroke-width:1px;stroke-linecap:butt;stroke-linejoin:miter;stroke-opacity:1"
       id="text3336">
      <path
         d="m 654.93164,864.1759 16.17188,0 0,136.7578 -16.17188,0 0,-136.7578 z"
         style="font-size:180px"
         id="path3345" />
      <path
         d="m 621.00586,968.32629 q 0,15.64454 -7.64649,24.52149 -7.03125,8.08592 -20.5664,8.08592 l -11.42578,0 0,-16.17186 6.59179,0 q 8.70118,0 12.56836,-3.86719 4.30664,-4.30664 4.30664,-13.62304 l 0,-103.09571 16.17188,0 0,104.15039 z"
         style="font-size:180px"
         id="path3347" />
      <path
         d="m 554.91211,993.37512 q -6.76758,7.55858 -20.12695,7.55858 l -7.91016,0 0,-16.17186 3.07617,0 q 8.70117,0 12.56836,-3.86719 4.30664,-4.30664 4.30664,-13.62304 l 0,-19.07227 16.17188,0 0,19.07227 q 0,9.3164 4.30664,13.62304 3.86718,3.86719 12.56836,3.86719 l 4.83398,0 0,16.17186 -9.66797,0 q -13.18359,0 -20.12695,-7.55858 z m 4.39453,-80.33203 13.18359,0 0,13.18359 -13.18359,0 0,-13.18359 z m -21.97266,0 13.1836,0 0,13.18359 -13.1836,0 0,-13.18359 z"
         style="font-size:180px"
         id="path3349" />
      <path
         d="m 468.33984,932.37903 q 22.67578,4.57031 42.01172,13.18359 l 0,13.53516 q -5.71289,1.75781 -12.1289,5.36133 4.39453,6.85547 7.03125,9.84375 9.14062,10.45898 19.16015,10.45898 l 5.80078,0 0,16.17186 -7.55859,0 q -18.36914,0 -29.44336,-14.76561 -3.51562,-4.74609 -8.70117,-13.27148 -6.06445,4.04297 -9.66797,7.29492 -12.74414,11.33789 -19.33594,13.71094 -19.42383,7.03123 -33.75,7.03123 l -11.25,0 0,-16.17186 8.78906,0 q 19.95118,0 31.28907,-6.32812 9.14062,-5.09766 19.33593,-14.41407 8.26172,-7.55859 17.13868,-10.63476 -7.29493,-2.02149 -16.34766,-4.04297 -7.4707,-1.66992 -23.29102,-3.07617 -7.20703,-0.61524 -21.35742,-0.0879 l 0,-16.17188 q 6.32813,-0.61523 12.91992,-0.70312 14.23829,0 29.35547,3.07617 z"
         style="font-size:180px"
         id="path3351" />
      <path
         d="m 363.83789,1002.6915 q -3.25195,0.791 -6.32812,0.791 -5.53711,0 -10.3711,-2.1972 -12.04101,-5.36135 -13.62305,-16.96291 -4.21875,13.71094 -12.65625,16.61131 -5.97656,2.1094 -11.68945,2.1094 -8.61328,0 -14.9414,-4.30665 -5.27344,-3.51562 -8.87696,-9.93164 -3.77929,5.18555 -8.70117,8.08594 -6.67969,4.04295 -15.38086,4.04295 l -11.42578,0 0,-16.17186 6.5918,0 q 8.70117,0 12.56836,-3.86719 7.03125,-7.03125 7.03125,-15.82031 l 0,-16.875 16.17187,0 0,13.71094 q 0,5.625 3.86719,14.41406 3.7793,8.70117 12.91992,8.70117 9.58008,0 13.44727,-10.72265 3.25195,-9.05274 3.25195,-26.10352 l 16.17187,0 q 0,18.01758 1.66993,22.41211 5.625,14.94141 15.29296,14.85352 12.48047,-0.17579 12.48047,-24.60938 l 0,-25.83984 16.17188,0 0,30.05859 q 0,8.52539 7.29492,15.82031 3.86719,3.86719 12.56836,3.86719 l 6.5918,0 0,16.17186 -11.42578,0 q -12.74415,0 -23.11524,-8.43748 -5.97656,7.91018 -15.55664,10.19528 z"
         style="font-size:180px"
         id="path3353" />
      <path
         d="m 223.38867,993.37512 q -6.76758,7.55858 -20.12695,7.55858 l -7.91016,0 0,-16.17186 3.07617,0 q 8.70118,0 12.56836,-3.86719 4.30664,-4.30664 4.30664,-13.62304 l 0,-19.07227 16.17188,0 0,19.07227 q 0,9.3164 4.30664,13.62304 3.86719,3.86719 12.56836,3.86719 l 4.83398,0 0,16.17186 -9.66797,0 q -13.18359,0 -20.12695,-7.55858 z m 4.39453,20.74218 13.1836,0 0,13.1836 -13.1836,0 0,-13.1836 z m -21.97265,0 13.18359,0 0,13.1836 -13.18359,0 0,-13.1836 z"
         style="font-size:180px"
         id="path3355" />
      <path
         d="m 169.6875,949.86926 q 3.86719,8.52539 6.24023,16.96289 1.9336,7.03125 6.32813,12.30469 4.6582,5.625 9.93164,5.625 l 6.5918,0 0,16.17186 -11.42578,0 q -6.24024,0 -9.22852,-4.21873 -0.26367,9.58003 -8.08594,22.50003 -10.54687,17.4902 -31.55273,23.291 -8.52539,2.373 -16.61133,2.373 -10.19531,0 -20.12695,-3.2519 -28.828128,-9.4043 -28.828128,-40.6055 0,-15.38085 4.130859,-27.77343 l 16.171875,0 q -4.30664,12.04101 -4.30664,27.77343 0,20.7422 17.666014,25.4004 7.91016,2.1094 14.58985,2.1094 7.73437,0 14.67773,-1.7578 17.05078,-4.2188 23.64258,-24.17 2.90039,-8.87692 2.90039,-18.72067 0,-16.17187 -8.87696,-34.01367 l 16.17188,0 z m -59.15039,-10.45898 13.18359,0 0,13.18359 -13.18359,0 0,-13.18359 z"
         style="font-size:180px"
         id="path3357" />
    </g>
    <text
       xml:space="preserve"
       style="font-style:normal;font-weight:normal;font-size:40px;line-height:125%;font-family:sans-serif;letter-spacing:0px;word-spacing:0px;fill:#000000;fill-opacity:1;stroke:none;stroke-width:1px;stroke-linecap:butt;stroke-linejoin:miter;stroke-opacity:1"
       x="1017.1429"
       y="975.21936"
       id="text3340"
       sodipodi:linespacing="125%"><tspan
         sodipodi:role="line"
         id="tspan3342"
         x="1017.1429"
         y="975.21936"></tspan></text>
  </g>
</svg>
