<?xml version="1.0" encoding="UTF-8" standalone="no"?>
<!-- Created with Inkscape (http://www.inkscape.org/) -->

<svg
   xmlns:dc="http://purl.org/dc/elements/1.1/"
   xmlns:cc="http://creativecommons.org/ns#"
   xmlns:rdf="http://www.w3.org/1999/02/22-rdf-syntax-ns#"
   xmlns:svg="http://www.w3.org/2000/svg"
   xmlns="http://www.w3.org/2000/svg"
   xmlns:sodipodi="http://sodipodi.sourceforge.net/DTD/sodipodi-0.dtd"
   xmlns:inkscape="http://www.inkscape.org/namespaces/inkscape"
   width="240mm"
   height="70mm"
   viewBox="0 0 850.3937 248.03149"
   id="svg2"
   version="1.1"
   inkscape:version="0.91 r13725"
   sodipodi:docname="improvement kannada bad sudhaarane.svg">
  <defs
     id="defs4" />
  <sodipodi:namedview
     id="base"
     pagecolor="#ffffff"
     bordercolor="#666666"
     borderopacity="1.0"
     inkscape:pageopacity="0.0"
     inkscape:pageshadow="2"
     inkscape:zoom="0.98994949"
     inkscape:cx="682.90885"
     inkscape:cy="215.91198"
     inkscape:document-units="px"
     inkscape:current-layer="text3336"
     showgrid="false"
     inkscape:window-width="1920"
     inkscape:window-height="1027"
     inkscape:window-x="-8"
     inkscape:window-y="-8"
     inkscape:window-maximized="1" />
  <metadata
     id="metadata7">
    <rdf:RDF>
      <cc:Work
         rdf:about="">
        <dc:format>image/svg+xml</dc:format>
        <dc:type
           rdf:resource="http://purl.org/dc/dcmitype/StillImage" />
        <dc:title></dc:title>
      </cc:Work>
    </rdf:RDF>
  </metadata>
  <g
     inkscape:label="Layer 1"
     inkscape:groupmode="layer"
     id="layer1"
     transform="translate(0,-804.33071)">
    <g
       style="font-style:normal;font-weight:normal;font-size:180px;line-height:125%;font-family:sans-serif;letter-spacing:0px;word-spacing:0px;fill:#000000;fill-opacity:1;stroke:none;stroke-width:1px;stroke-linecap:butt;stroke-linejoin:miter;stroke-opacity:1"
       id="text3336">
      <path
         d="m 47.443572,908.86741 0,-13.97461 76.992188,0 q 9.3164,0 14.0625,-0.96679 4.74609,-0.9668 7.03125,-3.69141 2.37304,-2.8125 2.37304,-7.4707 0,-11.51367 -11.68945,-22.93946 l 11.68945,-7.82226 q 7.38281,8.26172 10.98633,15.73242 3.60352,7.4707 3.60352,16.25977 0,6.59179 -3.25196,12.30468 -3.16406,5.625 -10.19531,9.14063 -7.03125,3.42773 -21.35742,3.42773 l -80.244138,0 z m 23.554687,82.26563 -13.974609,5.53711 q -4.482422,-5.97656 -7.03125,-13.53516 -2.548828,-7.64648 -2.548828,-15.11719 0,-12.30468 7.822265,-20.47851 7.822266,-8.26172 19.160157,-8.26172 7.207031,0 12.304687,2.10937 5.097656,2.10938 9.052734,6.32813 4.042969,4.21875 8.964845,12.83203 5.44922,9.49219 8.78906,13.53516 3.33984,3.95508 7.20703,5.97656 3.95508,2.02148 9.4043,2.02148 8.34961,0 12.91992,-6.06445 4.6582,-6.15234 4.6582,-16.78711 0,-9.4043 -3.7793,-17.7539 -3.6914,-8.4375 -11.24999,-16.9629 l 12.1289,-8.52539 q 17.66602,18.89649 17.66602,41.74805 0,18.28125 -8.87696,28.47656 -8.78906,10.10743 -24.69726,10.10743 -7.82227,0 -13.79883,-2.63672 -5.88867,-2.72461 -10.37109,-7.64649 -4.48242,-5.00976 -9.931641,-14.32617 -4.570313,-7.73437 -7.646485,-11.60156 -2.988281,-3.86719 -5.888672,-5.44922 -2.8125,-1.58203 -6.679687,-1.58203 -5.888672,0 -9.316406,3.86719 -3.339844,3.86718 -3.339844,10.63476 0,11.07422 9.052734,23.55469 z m 32.343751,-74.79492 q 4.39453,0 7.38281,3.16406 2.98828,3.07617 2.98828,7.4707 0,4.30664 -2.98828,7.47071 -2.98828,3.07617 -7.38281,3.07617 -4.394532,0 -7.470704,-3.07617 -2.988281,-3.07618 -2.988281,-7.47071 0,-4.39453 2.988281,-7.4707 3.076172,-3.16406 7.470704,-3.16406 z m -5.625001,-67.67578 0,0 z m -11.865234,145.54687 0,0 z"
         style="font-style:normal;font-variant:normal;font-weight:normal;font-stretch:normal;font-size:180px;line-height:125%;font-family:'Noto Sans Kannada';-inkscape-font-specification:'Noto Sans Kannada, Normal';text-align:start;writing-mode:lr-tb;text-anchor:start"
         id="path3341"
         inkscape:connector-curvature="0" />
      <path
         d="m 148.07833,972.14866 9.22852,-9.84375 q 8.26172,10.45899 16.17187,15.11719 7.91016,4.6582 17.49024,4.6582 10.63476,0 16.61133,-6.94336 6.06445,-6.94335 6.06445,-18.80859 0,-17.13867 -8.87695,-29.61914 -8.78907,-12.48047 -26.45508,-20.30273 l 7.73437,-13.97461 q 20.6543,10.2832 31.46485,26.54297 10.89843,16.25976 10.89843,36.5625 0,18.89648 -10.10742,29.88281 -10.01953,10.89844 -27.94922,10.89844 -11.68945,0 -21.97265,-5.7129 -10.28321,-5.80078 -20.30274,-18.45703 z"
         style="font-style:normal;font-variant:normal;font-weight:normal;font-stretch:normal;font-size:180px;line-height:125%;font-family:'Noto Sans Kannada';-inkscape-font-specification:'Noto Sans Kannada, Normal';text-align:start;writing-mode:lr-tb;text-anchor:start"
         id="path3343"
         inkscape:connector-curvature="0" />
      <path
         d="m 266.46701,908.86741 -24.08204,0 0,-13.97461 84.63868,0 q 8.87695,0 13.62304,-0.8789 4.83399,-0.87891 7.29492,-3.60352 2.54883,-2.72461 2.54883,-7.64648 0,-11.51367 -11.68945,-22.93946 l 11.68945,-7.82226 q 7.38282,8.26172 10.98633,15.73242 3.60352,7.4707 3.60352,16.25977 0,9.40429 -5.97657,15.99609 -5.97656,6.5918 -17.92968,8.26172 11.42578,6.94336 17.66601,19.16016 6.24024,12.21679 6.24024,27.33398 0,20.03906 -8.4375,30.84961 -8.4375,10.72266 -23.64258,10.72266 -10.19531,0 -16.96289,-3.69141 -6.76758,-3.7793 -12.39258,-12.48047 -4.30664,7.55859 -11.25,11.86523 -6.94336,4.30665 -18.54492,4.30665 -14.76563,0 -23.11524,-10.81055 -8.34961,-10.89844 -8.34961,-30.76172 0,-15.46875 6.24024,-27.42188 6.24023,-12.04101 17.8418,-18.45703 z m 30.32226,50.27344 13.79883,0 q 0.70312,10.72266 6.5918,16.875 5.88867,6.06445 14.41406,6.06445 18.80859,0 18.80859,-26.80664 0,-13.18359 -5.44922,-23.90625 -5.36132,-10.72265 -15.55664,-16.61132 -10.19531,-5.88868 -23.81836,-5.88868 l -2.98828,0 q -13.79883,0 -24.16992,5.625 -10.2832,5.625 -15.82031,16.25977 -5.44922,10.54687 -5.44922,24.16992 0,13.71094 4.48242,20.47852 4.48242,6.67968 14.0625,6.67968 8.70117,0 14.41406,-6.06445 5.71289,-6.06445 6.67969,-16.875 z m -1.40625,60.90815 1.40625,-28.5644 13.88672,0 1.40625,28.5644 -16.69922,0 z m -2.02148,-171.38666 0,0 z"
         style="font-style:normal;font-variant:normal;font-weight:normal;font-stretch:normal;font-size:180px;line-height:125%;font-family:'Noto Sans Kannada';-inkscape-font-specification:'Noto Sans Kannada, Normal';text-align:start;writing-mode:lr-tb;text-anchor:start"
         id="path3345"
         inkscape:connector-curvature="0" />
      <path
         d="m 389.37102,959.75609 q -0.87891,2.46093 -0.87891,6.5039 0,7.64649 4.57032,12.30469 4.6582,4.57031 13.35937,4.57031 11.16211,0 17.13867,-8.26172 6.06446,-8.26172 6.06446,-23.99414 0,-15.38086 -5.625,-24.52148 -5.625,-9.22852 -14.50196,-13.35938 -8.87695,-4.13086 -27.50976,-4.13086 l -42.09961,0 -1.75781,-13.97461 47.28515,0 q 21.6211,0 33.57422,6.24024 12.04102,6.24023 18.7207,18.36914 6.76758,12.04101 6.76758,31.37695 0,21.79688 -10.01953,33.66211 -9.93164,11.77735 -28.125,11.77735 -14.15039,0 -22.5,-7.99805 -8.34961,-8.08594 -8.34961,-20.74219 0,-11.07422 5.53711,-17.40234 5.53711,-6.32813 14.41406,-6.32813 6.5918,0 10.3711,3.25196 3.77929,3.25195 3.77929,8.96484 0,5.09766 -2.90039,8.26172 -2.8125,3.07617 -7.03125,3.07617 -4.30664,0 -7.03125,-1.93359 -2.72461,-2.02149 -3.25195,-5.71289 z"
         style="font-style:normal;font-variant:normal;font-weight:normal;font-stretch:normal;font-size:180px;line-height:125%;font-family:'Noto Sans Kannada';-inkscape-font-specification:'Noto Sans Kannada, Normal';text-align:start;writing-mode:lr-tb;text-anchor:start"
         id="path3349"
         inkscape:connector-curvature="0" />
      <path
         d="m 541.68547,907.63694 q 10.45899,7.20704 15.29297,17.13868 4.83399,9.93164 4.83399,23.73047 0,13.88671 -6.15235,24.78515 -6.15234,10.89844 -17.84179,16.96289 -11.68946,6.06446 -27.07032,6.06446 -15.02929,0 -26.80664,-5.7129 -11.68945,-5.80078 -18.10547,-16.69921 -6.32812,-10.89844 -6.32812,-25.40039 0,-26.45508 19.24805,-39.63868 l -19.24805,0 0,-13.97461 64.24805,0 q 9.3164,0 14.0625,-0.96679 4.74609,-0.9668 7.03125,-3.69141 2.37304,-2.8125 2.37304,-7.4707 0,-11.51367 -11.68945,-22.93946 l 11.68945,-7.82226 q 7.38282,8.26172 10.98633,15.73242 3.60352,7.4707 3.60352,16.25977 0,8.78906 -5.27344,15.20507 -5.18555,6.32813 -14.85352,8.4375 z m -30.67382,1.23047 q -16.52344,0 -26.63086,10.01953 -10.10743,10.01954 -10.10743,26.54297 0,16.96289 9.75586,26.63086 9.84375,9.66797 26.80664,9.66797 16.96289,0 26.54297,-9.93164 9.66797,-10.01953 9.66797,-26.36719 0,-16.52343 -10.10742,-26.54297 -10.01953,-10.01953 -25.92773,-10.01953 z m -3.16407,-60.20507 0,0 z"
         style="font-style:normal;font-variant:normal;font-weight:normal;font-stretch:normal;font-size:180px;line-height:125%;font-family:'Noto Sans Kannada';-inkscape-font-specification:'Noto Sans Kannada, Normal';text-align:start;writing-mode:lr-tb;text-anchor:start"
         id="path3351"
         inkscape:connector-curvature="0" />
      <path
         d="m 688.90227,969.07249 -12.30469,-1.14258 q 1.14258,-3.07617 1.14258,-5.80078 0,-3.86719 -2.10937,-5.80078 -2.02149,-2.02148 -5.53711,-2.02148 -4.65821,0 -7.5586,3.42773 -2.8125,3.42774 -2.8125,9.31641 0,7.73437 4.65821,11.77734 4.74609,4.04297 13.88671,4.04297 11.95313,0 18.19336,-8.70117 6.24024,-8.70117 6.24024,-25.57617 l 0,-1.40625 q 0,-18.45704 -7.73438,-29.26758 -7.73437,-10.89844 -21.09375,-10.89844 -10.01953,0 -16.25976,5.88867 -6.24024,5.88867 -7.64649,17.05078 l -13.79882,0 q -2.9004,-22.93945 -25.66407,-22.93945 -9.58008,0 -14.67773,4.39453 -5.00977,4.30664 -5.00977,12.2168 0,7.20703 5.44922,12.04101 5.44922,4.83399 18.36914,4.83399 l 2.8125,0 0,12.65625 -4.92187,0 q -8.34961,0 -12.74414,1.40625 -4.39453,1.40625 -7.20703,4.74609 -2.8125,3.33985 -2.8125,9.4043 0,6.50391 3.6914,10.37109 3.7793,3.7793 10.72266,3.7793 5.53711,0 9.93164,-1.75781 4.48242,-1.84571 9.4043,-5.80078 l 8.61328,10.98632 q -12.83203,10.01954 -28.47657,10.01954 -13.62304,0 -21.18164,-6.94336 -7.4707,-7.03125 -7.4707,-18.98438 0,-16.25976 15.82031,-23.4668 -14.76562,-8.61328 -14.76562,-25.13671 0,-12.65625 9.49219,-20.83008 9.49218,-8.17383 24.69726,-8.17383 11.60156,0 19.16016,3.95508 7.55859,3.86718 13.71093,12.65625 10.63477,-16.61133 31.11329,-16.61133 20.39062,0 31.8164,14.58984 11.42578,14.58985 11.42578,40.69336 0,22.76367 -10.37109,35.50781 -10.2832,12.74415 -29.35547,12.74415 -14.41406,0 -23.11523,-7.73438 -8.61328,-7.82227 -8.61328,-21.00586 0,-10.98633 6.94335,-18.45703 6.94336,-7.4707 17.49024,-7.4707 9.4043,0 15.11719,4.57031 5.71289,4.57031 5.71289,12.2168 0,6.67968 -2.37305,10.63476 z"
         style="font-style:normal;font-variant:normal;font-weight:normal;font-stretch:normal;font-size:180px;line-height:125%;font-family:'Noto Sans Kannada';-inkscape-font-specification:'Noto Sans Kannada, Normal';text-align:start;writing-mode:lr-tb;text-anchor:start"
         id="path3353"
         inkscape:connector-curvature="0" />
      <path
         d="m 716.15422,907.72484 q 8.70115,13.71093 16.87505,19.6875 8.1738,5.97656 18.6328,5.97656 7.5586,0 11.0742,-2.98828 3.5156,-2.98828 3.5156,-8.96485 0,-4.30664 -2.1094,-7.55859 -2.1093,-3.33984 -6.6797,-5.44922 -3.6914,0.43945 -10.2832,0.43945 l -14.7656,0 0,-13.97461 10.7227,0 q 13.4472,0 18.8086,-1.66992 5.4492,-1.66992 8.1738,-5.44922 2.7246,-3.86718 2.7246,-10.89843 0,-7.11914 -4.6582,-11.42579 -4.5703,-4.39453 -11.9531,-4.39453 -5.1856,0 -9.2285,2.19727 -3.9551,2.19726 -6.1524,6.15234 4.3067,0 6.8555,2.10938 2.6367,2.10937 2.6367,5.625 0,4.13086 -2.6367,6.41601 -2.6367,2.28516 -7.2949,2.28516 -5.8887,0 -9.0528,-3.95508 -3.164,-3.95508 -3.164,-10.2832 0,-9.22852 7.998,-16.08399 7.9981,-6.85546 20.8301,-6.85546 13.7988,0 22.0605,8.3496 8.3497,8.34961 8.3497,21.97266 0,9.14063 -3.6915,15.55664 -3.6035,6.41602 -10.8984,10.01953 8.1738,7.5586 8.1738,17.8418 0,11.95312 -7.5586,18.45703 -7.4707,6.50391 -21.1816,6.50391 -13.7109,0 -25.0488,-7.47071 -11.25003,-7.4707 -21.70901,-23.99414 l 10.63476,-8.17382 z m 41.74805,86.48437 0,0 z"
         style="font-style:normal;font-variant:normal;font-weight:normal;font-stretch:normal;font-size:180px;line-height:125%;font-family:'Noto Sans Kannada';-inkscape-font-specification:'Noto Sans Kannada, Normal';text-align:start;writing-mode:lr-tb;text-anchor:start"
         id="path3357"
         inkscape:connector-curvature="0" />
    </g>
  </g>
</svg>
