<?xml version="1.0" encoding="UTF-8" standalone="no"?>
<!-- Created with Inkscape (http://www.inkscape.org/) -->

<svg
   xmlns:dc="http://purl.org/dc/elements/1.1/"
   xmlns:cc="http://creativecommons.org/ns#"
   xmlns:rdf="http://www.w3.org/1999/02/22-rdf-syntax-ns#"
   xmlns:svg="http://www.w3.org/2000/svg"
   xmlns="http://www.w3.org/2000/svg"
   xmlns:sodipodi="http://sodipodi.sourceforge.net/DTD/sodipodi-0.dtd"
   xmlns:inkscape="http://www.inkscape.org/namespaces/inkscape"
   width="360mm"
   height="60mm"
   viewBox="0 0 1275.5904 212.59842"
   id="svg3370"
   version="1.1"
   inkscape:version="0.91 r13725"
   sodipodi:docname="latin improvement with.svg">
  <defs
     id="defs3372" />
  <sodipodi:namedview
     id="base"
     pagecolor="#ffffff"
     bordercolor="#666666"
     borderopacity="1.0"
     inkscape:pageopacity="0.0"
     inkscape:pageshadow="2"
     inkscape:zoom="0.98994949"
     inkscape:cx="542.21591"
     inkscape:cy="266.29229"
     inkscape:document-units="px"
     inkscape:current-layer="text3403"
     showgrid="false"
     inkscape:window-width="1920"
     inkscape:window-height="1027"
     inkscape:window-x="-8"
     inkscape:window-y="-8"
     inkscape:window-maximized="1" />
  <metadata
     id="metadata3375">
    <rdf:RDF>
      <cc:Work
         rdf:about="">
        <dc:format>image/svg+xml</dc:format>
        <dc:type
           rdf:resource="http://purl.org/dc/dcmitype/StillImage" />
        <dc:title></dc:title>
      </cc:Work>
    </rdf:RDF>
  </metadata>
  <g
     inkscape:label="Layer 1"
     inkscape:groupmode="layer"
     id="layer1"
     transform="translate(0,-839.76378)">
    <g
       style="font-style:normal;font-variant:normal;font-weight:500;font-stretch:normal;font-size:180px;line-height:125%;font-family:FoglihtenNo07;-inkscape-font-specification:'FoglihtenNo07 Medium';letter-spacing:0px;word-spacing:0px;fill:#000000;fill-opacity:1;stroke:none;stroke-width:1px;stroke-linecap:butt;stroke-linejoin:miter;stroke-opacity:1"
       id="text3403">
      <g
         style="font-style:normal;font-variant:normal;font-weight:500;font-stretch:normal;font-size:180px;line-height:125%;font-family:FoglihtenNo07;-inkscape-font-specification:'FoglihtenNo07 Medium';letter-spacing:0px;word-spacing:0px;fill:#000000;fill-opacity:1;stroke:none;stroke-width:1px;stroke-linecap:butt;stroke-linejoin:miter;stroke-opacity:1"
         id="text3432">
        <path
           d="m 33.211311,864.92572 c -5.04,0 -8.1,3.24 -8.1,7.92 0,5.04 3.42,8.1 8.1,8.1 5.04,0 7.92,-3.42 7.92,-8.1 0,-5.04 -3.24,-7.92 -7.92,-7.92 z m 55.8,95.04 0,-13.86 c 0,-25.02 10.98,-41.58 27.359999,-41.58 8.28,0 14.4,7.92 14.4,22.5 l 0,75.23998 c 0,2.88 0.36,3.42 1.62,4.68 l 0,0.36 -12.06,0 0,1.62 38.88,0 0,-1.62 -4.68,0 c -8.64,0 -9.72,-0.9 -9.72,-9.53998 l 0,-51.66 c 0,-25.02 10.98,-41.58 27.36,-41.58 8.28,0 14.4,7.92 14.4,22.5 l 0,75.23998 c 0,2.88 0.36,3.42 1.62,4.68 l 0,0.36 -13.68,0 0,1.62 40.5,0 0,-1.62 -4.68,0 c -8.64,0 -9.72,-0.9 -9.72,-9.53998 l 0,-72.36 c 0,-15.66 -11.34,-23.94 -26.82,-23.94 -13.14,0 -20.88,6.84 -26.64,17.82 -0.9,1.62 -4.14,10.8 -4.5,16.74 l -0.72,0 0,-10.8 c 0,-13.32 -5.22,-23.76 -23.94,-23.76 -14.22,0 -23.039999,8.1 -28.439999,22.14 -1.26,3.42 -2.34,8.64 -2.88,12.42 l -1.62,0 c 0.18,-1.8 0.36,-13.68 0.36,-16.56 l 0,-23.58 -1.44,0 0,0.72 c 0,7.38 -5.4,11.7 -12.6,13.14 l -13.86,2.88 0.18,1.08 10.62,-0.9 c 0.18,0 0.36,0 0.54,0 3.6,0 6.12,2.7 6.12,5.76 l 0,41.4 c 0,9 -0.9,9.36 -9.54,9.36 l -4.5,0 0,1.62 14.58,0 c 9.9,0.9 16.38,7.56 16.38,17.28 0,10.62 -9.54,19.25998 -21.06,19.25998 -18.36,0 -30.6,-12.59998 -30.6,-31.67998 l 0,-62.64 0,-15.3 -1.44,0 0,0.72 c 0,7.38 -9,9.54 -16.2,9.54 l -9.9,0 0,1.62 8.1,0 c 3.42,0 5.4,2.16 5.4,5.4 l 0,51.84 c 0,27.54 16.02,45.71998 40.14,45.71998 14.94,0 27.18,-10.98 27.18,-24.47998 0,-4.68 -1.08,-8.82 -2.16,-13.14 -1.26,-4.5 -2.34,-9.18 -2.34,-15.12 z"
           style=""
           id="path3437" />
        <path
           d="m 235.59319,918.56572 0,107.99998 c 0,8.64 -0.9,9.54 -9.54,9.54 l -6.3,0 0,1.62 45.9,0 0,-1.62 -6.3,0 c -8.64,0 -9.72,-0.9 -9.72,-9.54 l 0,-77.93998 c 0,-21.96 21.96,-43.92 44.1,-43.92 20.7,0 37.8,21.6 37.8,47.88 0,32.76 -15.3,54.53998 -38.16,54.53998 -18,0 -32.4,-12.77998 -32.4,-28.79998 0,-13.5 10.08,-22.5 25.2,-22.5 4.32,0 8.1,-3.42 8.1,-7.74 l -3.6,0 c -18.18,0 -32.94,13.68 -32.94,30.24 0,17.82 15.84,32.03998 35.64,32.03998 29.7,0 53.82,-24.29998 53.82,-54.53998 0,-32.58 -21.78,-54.36 -54.18,-54.36 -21.78,0 -43.56,20.52 -46.44,42.3 l -0.9,0 c 0.18,-1.62 1.08,-21.42 1.08,-24.3 l 0,-23.58 -1.44,0 0,0.72 c 0,7.38 -6.12,11.7 -13.32,13.14 l -13.86,2.88 0.18,1.08 10.62,-0.9 c 0.18,0 0.36,0 0.54,0 3.6,0 6.12,2.7 6.12,5.76 z"
           style=""
           id="path3439" />
        <path
           d="m 373.75725,997.76572 c 0,6.47998 -3.24,9.53998 -9.54,9.53998 l -6.3,0 0,1.62 50.94,0 0,-1.44 -11.34,0 c -6.3,0 -9.72,-3.24 -9.72,-9.53998 l 0,-41.58 c 0,-30.24 12.24,-50.4 30.42,-50.4 l 0,0.18 c -0.72,1.08 -1.26,2.52 -1.26,4.14 0,4.32 3.78,8.1 8.1,8.1 4.32,0 7.92,-3.78 7.92,-8.1 0,-3.6 -2.34,-6.48 -5.4,-7.56 -2.88,-1.08 -5.94,-1.44 -9.36,-1.44 -14.94,0 -27.36,12.96 -32.04,35.1 l -1.44,0 0,-0.36 c 0.72,-2.52 1.44,-10.44 1.44,-16.56 l 0,-23.58 -1.44,0 0,0.72 c 0,7.38 -7.38,11.7 -14.58,13.14 l -13.86,2.88 0.18,1.08 10.62,-0.9 c 0.18,0 0.36,0 0.54,0 3.6,0 6.12,2.7 6.12,5.76 l 0,79.2 z"
           style=""
           id="path3441" />
        <path
           d="m 497.20631,1010.3657 c 32.58,0 59.04,-24.29998 59.04,-54.53998 0,-32.58 -23.76,-54.36 -59.04,-54.36 -32.58,0 -58.86,24.48 -58.86,54.36 0,32.76 23.4,54.53998 58.86,54.53998 z m 0.54,-3.24 c -24.3,0 -43.74,-24.29998 -43.74,-54.53998 0,-28.62 16.92,-47.88 42.48,-47.88 24.3,0 44.1,24.48 44.1,54.54 0,28.8 -17.28,47.87998 -42.84,47.87998 z"
           style=""
           id="path3443" />
        <path
           d="m 561.25819,902.90572 0,1.62 2.7,0 c 5.94,0 7.2,3.06 10.62,11.16 l 38.16,94.85998 9.72,-0.72 37.98,-94.13998 c 3.24,-7.92 4.68,-11.16 10.44,-11.16 l 2.16,0 0,-1.62 -39.24,0 0,1.62 15.48,0 c 6.12,0 8.46,2.52 8.46,6.3 0,1.44 -0.36,3.06 -1.08,4.86 l -30.6,73.62 c -1.62,3.96 -1.8,6.3 -1.8,7.2 l -2.34,0 c 0,-2.52 -1.26,-5.76 -1.44,-6.48 l -31.86,-76.86 c -1.08,-3.06 -3.06,-7.38 -5.58,-8.28 l 0,-0.36 13.86,0 0,-1.62 -35.64,0 z"
           style=""
           id="path3445" />
        <path
           d="m 725.63194,949.88572 49.32,0.54 c 3.06,0 5.58,-2.16 5.58,-5.22 l 0,-0.9 c 0,-25.56 -19.08,-42.84 -47.7,-42.84 -30.24,0 -54.72,24.12 -54.72,54 0,32.94 21.6,54.89998 54.18,54.89998 22.5,0 39.78,-10.43998 48.42,-27.89998 l -2.88,-1.8 c -7.92,16.56 -24.3,26.45998 -45.54,26.45998 -21.42,0 -38.88,-24.29998 -38.88,-54.53998 0,-28.62 15.48,-47.88 38.7,-47.88 19.98,0 33.48,15.84 33.48,39.6 0,1.08 -0.36,1.62 -1.44,1.62 l -38.52,0 c -11.88,0 -21.24,8.46 -21.24,18.72 0,4.5 3.42,8.1 7.74,8.1 l 0,-10.26 c 0,-7.02 5.94,-12.6 13.5,-12.6 z"
           style=""
           id="path3447" />
        <path
           d="m 806.53069,997.76572 c 0,8.63998 -0.9,9.53998 -9.54,9.53998 l -6.3,0 0,1.62 45.9,0 0,-1.62 -6.3,0 c -8.64,0 -9.72,-0.9 -9.72,-9.53998 l 0,-51.66 c 0,-25.02 10.98,-41.58 27.36,-41.58 8.28,0 14.4,7.92 14.4,22.5 l 0,75.23998 c 0,2.88 0.36,3.42 1.62,4.68 l 0,0.36 -12.06,0 0,1.62 38.88,0 0,-1.62 -4.68,0 c -8.64,0 -9.72,-0.9 -9.72,-9.53998 l 0,-51.66 c 0,-25.02 10.98,-41.58 27.36,-41.58 8.28,0 14.4,7.92 14.4,22.5 l 0,60.48 c 0,12.95998 8.64,23.39998 19.44,23.39998 9.9,0 16.56,-6.3 16.56,-15.83998 0,-8.1 -5.22,-14.94 -10.26,-18 -4.32,0 -7.02,1.08 -7.02,2.7 8.28,1.08 15.66,5.58 15.66,15.3 0,6.47998 -4.32,10.61998 -10.44,10.61998 -7.02,0 -11.7,-4.32 -11.7,-10.97998 0,-2.16 0.54,-4.68 1.8,-7.38 l 0,-61.92 c 0,-15.66 -11.34,-23.94 -26.82,-23.94 -13.14,0 -20.88,6.84 -26.64,17.82 -0.9,1.62 -4.14,10.8 -4.5,16.74 l -0.72,0 0,-10.8 c 0,-13.32 -5.22,-23.76 -23.94,-23.76 -14.22,0 -23.04,8.1 -28.44,22.14 -1.26,3.42 -2.34,8.64 -2.88,12.42 l -1.62,0 c 0.18,-1.8 0.36,-13.68 0.36,-16.56 l 0,-23.58 -1.44,0 0,0.72 c 0,7.38 -5.4,11.7 -12.6,13.14 l -13.86,2.88 0.18,1.08 10.62,-0.9 c 0.18,0 0.36,0 0.54,0 3.6,0 6.12,2.7 6.12,5.76 l 0,79.2 z"
           style=""
           id="path3449" />
        <path
           d="m 1010.046,949.88572 49.32,0.54 c 3.06,0 5.58,-2.16 5.58,-5.22 l 0,-0.9 c 0,-25.56 -19.08,-42.84 -47.7,-42.84 -30.24,0 -54.72,24.12 -54.72,54 0,32.94 21.6,54.89998 54.18,54.89998 22.5,0 39.78,-10.43998 48.42,-27.89998 l -2.88,-1.8 c -7.92,16.56 -24.3,26.45998 -45.54,26.45998 -21.42,0 -38.88,-24.29998 -38.88,-54.53998 0,-28.62 15.48,-47.88 38.7,-47.88 19.98,0 33.48,15.84 33.48,39.6 0,1.08 -0.36,1.62 -1.44,1.62 l -38.52,0 c -11.88,0 -21.24,8.46 -21.24,18.72 0,4.5 3.42,8.1 7.74,8.1 l 0,-10.26 c 0,-7.02 5.94,-12.6 13.5,-12.6 z"
           style=""
           id="path3451" />
        <path
           d="m 1266.0847,953.84572 c 0,-15.66 -13.32,-28.44 -29.34,-28.44 l -3.6,0 c 0,4.32 3.6,7.74 8.1,7.74 11.88,0 21.6,9.36 21.6,20.7 0,12.6 -10.98,22.68 -24.3,22.68 -10.8,0 -18,-7.02 -18,-17.64 l 0,-49.32 44.82,0 0,-4.86 -47.16,0 0,-0.18 c 1.44,-0.72 2.34,-3.78 2.34,-7.56 l 0,-38.88 -1.8,0 0,20.88 c 0,3.96 -6.12,25.74 -22.32,25.74 l -13.5,0 0,4.86 23.58,0 0,44.64 c 0,15.48 12.78,25.56 32.04,25.56 10.8,0 19.98,-5.76 24.66,-14.22 -5.4,23.94 -27,41.93998 -52.74,41.93998 -25.92,0 -43.2,-14.03998 -43.2,-35.27998 0,-2.16 0.54,-4.68 1.8,-7.38 l 0,-36.18 c 0,-16.2 -10.62,-27.18 -30.24,-27.18 -14.94,0 -27.72,9.9 -32.94,25.2 -1.08,3.24 -2.52,8.46 -2.88,11.7 l -1.26,0 c 0.18,-1.62 0.36,-16.02 0.36,-18.9 l 0,-23.58 -1.44,0 0,0.72 c 0,7.38 -6.12,11.7 -13.32,13.14 l -13.86,2.88 0.18,1.08 10.62,-0.9 c 0.18,0 0.36,0 0.54,0 3.6,0 6.12,2.7 6.12,5.76 l 0,79.2 c 0,8.63998 -0.9,9.53998 -9.54,9.53998 l -6.3,0 0,1.62 45.9,0 0,-1.62 -6.3,0 c -8.64,0 -9.72,-0.9 -9.72,-9.53998 l 0,-49.32 c 0,-26.28 14.04,-43.92 32.4,-43.92 12.78,0 17.64,9.54 17.64,27.18 l 0,33.3 c 0,28.62 21.06,47.69998 52.74,47.69998 32.04,0 58.32,-26.27998 58.32,-58.85998 z"
           style=""
           id="path3453" />
      </g>
    </g>
  </g>
</svg>
