<?xml version="1.0" encoding="UTF-8" standalone="no"?>
<!-- Created with Inkscape (http://www.inkscape.org/) -->

<svg
   xmlns:dc="http://purl.org/dc/elements/1.1/"
   xmlns:cc="http://creativecommons.org/ns#"
   xmlns:rdf="http://www.w3.org/1999/02/22-rdf-syntax-ns#"
   xmlns:svg="http://www.w3.org/2000/svg"
   xmlns="http://www.w3.org/2000/svg"
   xmlns:sodipodi="http://sodipodi.sourceforge.net/DTD/sodipodi-0.dtd"
   xmlns:inkscape="http://www.inkscape.org/namespaces/inkscape"
   width="270mm"
   height="60mm"
   viewBox="0 0 956.69292 212.59842"
   id="svg2"
   version="1.1"
   inkscape:version="0.91 r13725"
   sodipodi:docname="at-tahseen (improvement) bad.svg">
  <defs
     id="defs4" />
  <sodipodi:namedview
     id="base"
     pagecolor="#ffffff"
     bordercolor="#666666"
     borderopacity="1.0"
     inkscape:pageopacity="0.0"
     inkscape:pageshadow="2"
     inkscape:zoom="0.7"
     inkscape:cx="642.68467"
     inkscape:cy="223.42089"
     inkscape:document-units="px"
     inkscape:current-layer="text3359"
     showgrid="false"
     inkscape:window-width="1920"
     inkscape:window-height="1027"
     inkscape:window-x="-8"
     inkscape:window-y="-8"
     inkscape:window-maximized="1" />
  <metadata
     id="metadata7">
    <rdf:RDF>
      <cc:Work
         rdf:about="">
        <dc:format>image/svg+xml</dc:format>
        <dc:type
           rdf:resource="http://purl.org/dc/dcmitype/StillImage" />
        <dc:title></dc:title>
      </cc:Work>
    </rdf:RDF>
  </metadata>
  <g
     inkscape:label="Layer 1"
     inkscape:groupmode="layer"
     id="layer1"
     transform="translate(0,-839.76378)">
    <text
       xml:space="preserve"
       style="font-style:normal;font-weight:normal;font-size:40px;line-height:125%;font-family:sans-serif;letter-spacing:0px;word-spacing:0px;fill:#000000;fill-opacity:1;stroke:none;stroke-width:1px;stroke-linecap:butt;stroke-linejoin:miter;stroke-opacity:1"
       x="1017.1429"
       y="975.21936"
       id="text3340"
       sodipodi:linespacing="125%"><tspan
         sodipodi:role="line"
         id="tspan3342"
         x="1017.1429"
         y="975.21936"></tspan></text>
    <g
       style="font-style:normal;font-weight:normal;font-size:40px;line-height:125%;font-family:sans-serif;letter-spacing:0px;word-spacing:0px;fill:#000000;fill-opacity:1;stroke:none;stroke-width:1px;stroke-linecap:butt;stroke-linejoin:miter;stroke-opacity:1"
       id="text3359">
      <path
         d="m 895.54204,849.47169 16.1719,0 0,136.75782 -16.1719,0 0,-136.75782 z"
         style="font-size:180px"
         id="path3364"
         inkscape:connector-curvature="0" />
      <path
         d="m 849.25039,979.81349 q 6.8555,-11.07422 6.8555,-31.02539 l 0,-99.31641 16.1719,0 0,99.31641 q 0,27.86133 -8.6133,40.51758 -10.6348,15.55662 -33.5742,21.35742 -11.7774,2.9883 -19.2481,2.9883 -8.3496,0 -14.7656,-1.9336 -25.6641,-8.086 -25.7519,-32.08009 -0.088,-12.12891 5.5371,-20.21484 l 16.1718,0 q -5.7129,10.10742 -5.7129,20.21484 0,11.42578 14.5899,16.875 3.5156,1.40625 9.9316,1.40625 7.0313,0 16.6114,-2.98828 15.2929,-4.65821 21.7968,-15.11719 z"
         style="font-size:180px"
         id="path3366"
         inkscape:connector-curvature="0" />
      <path
         d="m 758.98762,928.44084 q 1.3184,7.91015 1.3184,14.0625 0,11.86523 -6.6797,20.74219 -11.25,15.02929 -39.1113,20.65429 -25.0489,5.09766 -41.3086,5.09766 -16.7871,0 -28.12502,-3.33985 -29.00391,-8.52539 -29.00391,-32.08007 0,-12.12891 5.53711,-20.21485 l 16.17188,0 q -5.71289,8.26172 -5.71289,20.21485 0,10.98632 17.84183,16.875 9.1406,2.98828 22.4121,2.98828 16.2597,0 39.5508,-5.00977 22.4121,-4.74609 28.3007,-14.67773 4.834,-8.17383 4.834,-14.76563 0,-5.18554 -2.1972,-10.54687 l 16.1718,0 z m -70.8398,-11.51367 13.1836,0 0,13.18359 -13.1836,0 0,-13.18359 z m -21.9727,0 13.1836,0 0,13.18359 -13.1836,0 0,-13.18359 z"
         style="font-size:180px"
         id="path3368"
         inkscape:connector-curvature="0" />
      <path
         d="m 494.78123,914.29162 q 24.25781,-5.53711 41.39648,-5.53711 25.66406,0 42.89063,4.7461 l 0,13.53515 q -25.83985,0 -44.73633,14.67774 -19.6875,15.29297 -19.6875,38.23242 0,11.86523 6.5039,20.30268 11.16211,14.4142 40.25391,14.4142 16.96289,0 35.5957,-10.3712 l 0,16.1719 q -13.18359,8.7012 -35.15625,8.7012 -36.73828,0 -51.59179,-17.0508 -11.51368,-13.18361 -11.51368,-32.87111 0,-22.67578 18.63282,-42.27539 8.4375,-8.87695 20.47851,-13.44726 -8.87695,0 -22.85156,1.66992 -11.07422,1.31836 -20.21484,5.27344 l 0,-16.17188 z"
         style="font-size:180px"
         id="path3370"
         inkscape:connector-curvature="0" />
      <path
         d="m 381.7595,981.85725 q -2.10938,15.73242 -9.49219,25.13675 -11.68945,14.9414 -28.65235,20.3906 -7.03125,2.2852 -17.57812,2.2852 -11.25,-0.088 -20.83008,-2.5488 -24.16992,-6.2403 -24.16992,-35.06844 0,-21.62109 9.22852,-37.44141 l 16.17187,0 q -9.49219,18.10547 -9.4043,37.44141 0.0879,15.73244 13.00782,19.07224 8.34961,2.1094 15.46875,2.1094 8.61328,0 16.96289,-3.252 10.63476,-4.2187 18.89648,-18.10542 5.625,-9.49219 5.53711,-21.97266 -0.0879,-10.98632 -1.49414,-16.34765 l -5.625,-20.56641 16.17187,0 3.16407,13.71094 q 1.40625,6.5039 3.86718,11.77734 5.18555,11.33789 15.29297,11.33789 7.20703,0 11.07422,-10.72265 3.25196,-9.05274 3.25196,-26.10352 l 16.17187,0 q 0,18.01758 1.66992,22.41211 5.625,14.85352 15.29297,14.85352 12.48047,0 12.48047,-24.60938 l 0,-25.83984 16.17187,0 0,30.05859 q 0,17.49024 -8.08593,27.42188 -6.5918,8.08593 -15.55664,10.19531 -3.25196,0.79101 -6.06446,0.79101 -6.41601,0 -10.63476,-2.19726 -12.12891,-6.15235 -13.62305,-16.96289 -4.30664,13.97461 -12.65625,16.61133 -4.39453,1.31836 -10.54687,1.58203 -11.60157,0.52734 -15.46875,-5.44922 z"
         style="font-size:180px"
         id="path3372"
         inkscape:connector-curvature="0" />
      <path
         d="m 246.14118,984.16467 q -8.96484,14.9414 -39.11133,21.35743 -15.55664,3.3398 -26.10351,3.3398 -11.33789,0 -17.66602,-2.2851 -25.75195,-9.14065 -25.75195,-32.0801 0,-10.2832 5.53711,-20.21484 l 16.17187,0 q -5.80078,11.51367 -5.71289,20.21484 0.17578,12.91992 14.58985,16.875 8.52539,2.28516 13.88672,1.75781 11.07421,-0.96679 22.41211,-3.07617 15.55664,-2.90039 22.93945,-9.93164 5.18555,-4.92188 5.18555,-9.58008 0,-6.5039 -11.07422,-9.05273 -5.80078,-1.31836 -15.82032,-5.36133 -5.88867,-2.37305 -10.98632,-6.85547 -5.625,-5.00977 -5.71289,-15.11719 0,-13.18359 16.69921,-19.6875 8.34961,-3.25195 17.49024,-3.25195 9.14062,0 17.57812,3.69141 12.39258,5.36132 14.76563,20.5664 l -16.17188,0 q -1.14257,-5.36133 -6.94336,-8.26172 -3.51562,-1.75781 -9.58007,-1.93359 -6.85547,-0.17578 -12.30469,3.25195 -5.27344,3.33985 -5.27344,6.32813 0,4.83398 10.98633,8.52539 21.79687,7.29492 26.80664,12.91992 6.76758,7.4707 6.94336,15.29297 0.0879,5.97656 -3.7793,12.56836 z m -54.14062,31.81643 13.18359,0 0,13.1836 -13.18359,0 0,-13.1836 z m -21.97266,0 13.18359,0 0,13.1836 -13.18359,0 0,-13.1836 z"
         style="font-size:180px"
         id="path3374"
         inkscape:connector-curvature="0" />
      <path
         d="m 125.41853,957.79748 q 0,15.20508 -8.78907,30.84961 -9.66797,17.31441 -31.552729,23.29101 -8.52539,2.373 -15.55664,2.373 -11.60156,0 -21.18164,-3.2519 -28.82813,-9.3164 -28.82813,-40.60547 0,-20.6543 4.13086,-27.77344 l 16.17188,0 q -4.30664,12.65625 -4.30664,27.77344 0,20.83008 17.66601,25.40039 8.17383,2.10938 16.34766,2.10938 6.67969,0 12.91992,-1.75782 16.96289,-4.6582 23.642579,-24.16992 2.98828,-8.61328 2.98828,-17.05078 0,-16.17187 -8.96484,-35.68359 l 16.17187,0 q 9.14063,13.71093 9.14063,38.49609 z m -68.291019,-56.07422 13.18359,0 0,13.1836 -13.18359,0 0,-13.1836 z"
         style="font-size:180px"
         id="path3376"
         inkscape:connector-curvature="0" />
    </g>
  </g>
</svg>
