<?xml version="1.0" encoding="UTF-8" standalone="no"?>
<!-- Created with Inkscape (http://www.inkscape.org/) -->

<svg
   xmlns:dc="http://purl.org/dc/elements/1.1/"
   xmlns:cc="http://creativecommons.org/ns#"
   xmlns:rdf="http://www.w3.org/1999/02/22-rdf-syntax-ns#"
   xmlns:svg="http://www.w3.org/2000/svg"
   xmlns="http://www.w3.org/2000/svg"
   xmlns:sodipodi="http://sodipodi.sourceforge.net/DTD/sodipodi-0.dtd"
   xmlns:inkscape="http://www.inkscape.org/namespaces/inkscape"
   width="175mm"
   height="70mm"
   viewBox="0 0 620.07874 248.03149"
   id="svg2"
   version="1.1"
   inkscape:version="0.91 r13725"
   sodipodi:docname="sanskrit kannada good sanskrta.svg">
  <defs
     id="defs4" />
  <sodipodi:namedview
     id="base"
     pagecolor="#ffffff"
     bordercolor="#666666"
     borderopacity="1.0"
     inkscape:pageopacity="0.0"
     inkscape:pageshadow="2"
     inkscape:zoom="0.35"
     inkscape:cx="-283.57143"
     inkscape:cy="520"
     inkscape:document-units="px"
     inkscape:current-layer="layer1"
     showgrid="false"
     inkscape:window-width="1920"
     inkscape:window-height="1027"
     inkscape:window-x="-8"
     inkscape:window-y="-8"
     inkscape:window-maximized="1" />
  <metadata
     id="metadata7">
    <rdf:RDF>
      <cc:Work
         rdf:about="">
        <dc:format>image/svg+xml</dc:format>
        <dc:type
           rdf:resource="http://purl.org/dc/dcmitype/StillImage" />
        <dc:title></dc:title>
      </cc:Work>
    </rdf:RDF>
  </metadata>
  <g
     inkscape:label="Layer 1"
     inkscape:groupmode="layer"
     id="layer1"
     transform="translate(0,-804.33071)">
    <g
       style="font-style:normal;font-weight:normal;font-size:180px;line-height:125%;font-family:sans-serif;letter-spacing:0px;word-spacing:0px;fill:#000000;fill-opacity:1;stroke:none;stroke-width:1px;stroke-linecap:butt;stroke-linejoin:miter;stroke-opacity:1"
       id="text3336">
      <path
         d="m 22.679966,870.73474 0,-13.97461 76.992187,0 q 9.316407,0 14.062497,-0.9668 4.7461,-0.96679 7.03125,-3.6914 2.37305,-2.8125 2.37305,-7.4707 0,-11.51368 -11.68945,-22.93946 l 11.68945,-7.82226 q 7.38281,8.26172 10.98633,15.73242 3.60351,7.4707 3.60351,16.25976 0,6.5918 -3.25195,12.30469 -3.16406,5.625 -10.19531,9.14063 -7.03125,3.42773 -21.35742,3.42773 l -80.244144,0 z m 23.554687,82.26563 -13.974609,5.53711 q -4.482422,-5.97657 -7.03125,-13.53516 -2.548828,-7.64649 -2.548828,-15.11719 0,-12.30469 7.822266,-20.47851 7.822265,-8.26172 19.160156,-8.26172 7.207031,0 12.304687,2.10937 5.097657,2.10938 9.052735,6.32813 4.042968,4.21875 8.964843,12.83203 5.449219,9.49219 8.789063,13.53515 3.339844,3.95508 7.207031,5.97657 3.955078,2.02148 9.404293,2.02148 8.34961,0 12.91993,-6.06445 4.6582,-6.15235 4.6582,-16.78711 0,-9.4043 -3.7793,-17.75391 -3.6914,-8.4375 -11.25,-16.96289 l 12.12891,-8.52539 q 17.66601,18.89649 17.66601,41.74805 0,18.28125 -8.87695,28.47656 -8.78906,10.10742 -24.69726,10.10742 -7.82227,0 -13.798833,-2.63672 -5.888672,-2.72461 -10.371094,-7.64648 -4.482421,-5.00977 -9.93164,-14.32617 -4.570313,-7.73438 -7.646485,-11.60156 -2.988281,-3.86719 -5.888671,-5.44922 -2.8125,-1.58203 -6.679688,-1.58203 -5.888672,0 -9.316406,3.86718 -3.339844,3.86719 -3.339844,10.63477 0,11.07422 9.052734,23.55469 z m 32.34375,-74.79493 q 4.394532,0 7.382813,3.16407 2.988281,3.07617 2.988281,7.4707 0,4.30664 -2.988281,7.4707 -2.988281,3.07617 -7.382813,3.07617 -4.394531,0 -7.470703,-3.07617 -2.988281,-3.07617 -2.988281,-7.4707 0,-4.39453 2.988281,-7.4707 3.076172,-3.16407 7.470703,-3.16407 z m -5.625,-67.67578 0,0 z m -11.865234,145.54688 0,0 z"
         style="font-style:normal;font-variant:normal;font-weight:normal;font-stretch:normal;font-size:180px;line-height:125%;font-family:'Noto Sans Kannada';-inkscape-font-specification:'Noto Sans Kannada, Normal';text-align:start;writing-mode:lr-tb;text-anchor:start"
         id="path3341" />
      <path
         d="m 194.41825,865.98865 q 20.39062,0 31.55273,12.39258 11.25,12.30468 11.25,33.83789 0,20.83007 -11.77734,33.39843 -11.77735,12.56836 -31.81641,12.56836 -19.51172,0 -30.9375,-12.21679 -11.33789,-12.2168 -11.33789,-33.66211 0,-21.00586 11.60156,-33.66211 11.68946,-12.65625 31.46485,-12.65625 z m -0.52735,78.66211 q 13.71094,0 21.18164,-8.52539 7.47071,-8.61329 7.47071,-23.81836 0,-15.20508 -7.47071,-23.99414 -7.38281,-8.87696 -20.39062,-8.87696 -13.79883,0 -21.26953,8.61328 -7.38281,8.52539 -7.38281,23.81836 0,15.20508 7.38281,23.99414 7.4707,8.78907 20.47851,8.78907 z m -0.26367,-87.89063 0,0 z"
         style="font-style:normal;font-variant:normal;font-weight:normal;font-stretch:normal;font-size:180px;line-height:125%;font-family:'Noto Sans Kannada';-inkscape-font-specification:'Noto Sans Kannada, Normal';text-align:start;writing-mode:lr-tb;text-anchor:start"
         id="path3343" />
      <path
         d="m 249.43778,870.73474 0,-13.97461 76.99219,0 q 9.3164,0 14.0625,-0.9668 4.74609,-0.96679 7.03125,-3.6914 2.37304,-2.8125 2.37304,-7.4707 0,-11.51368 -11.68945,-22.93946 l 11.68945,-7.82226 q 7.38282,8.26172 10.98633,15.73242 3.60352,7.4707 3.60352,16.25976 0,6.5918 -3.25196,12.30469 -3.16406,5.625 -10.19531,9.14063 -7.03125,3.42773 -21.35742,3.42773 l -80.24414,0 z m 23.55469,82.26563 -13.97461,5.53711 q -4.48243,-5.97657 -7.03125,-13.53516 -2.54883,-7.64649 -2.54883,-15.11719 0,-12.30469 7.82226,-20.47851 7.82227,-8.26172 19.16016,-8.26172 7.20703,0 12.30469,2.10937 5.09765,2.10938 9.05273,6.32813 4.04297,4.21875 8.96485,12.83203 5.44921,9.49219 8.78906,13.53515 3.33984,3.95508 7.20703,5.97657 3.95508,2.02148 9.4043,2.02148 8.34961,0 12.91992,-6.06445 4.6582,-6.15235 4.6582,-16.78711 0,-9.4043 -3.7793,-17.75391 -3.6914,-8.4375 -11.25,-16.96289 l 12.12891,-8.52539 q 17.66602,18.89649 17.66602,41.74805 0,18.28125 -8.87696,28.47656 -8.78906,10.10742 -24.69726,10.10742 -7.82227,0 -13.79883,-2.63672 -5.88867,-2.72461 -10.37109,-7.64648 -4.48243,-5.00977 -9.93164,-14.32617 -4.57032,-7.73438 -7.64649,-11.60156 -2.98828,-3.86719 -5.88867,-5.44922 -2.8125,-1.58203 -6.67969,-1.58203 -5.88867,0 -9.3164,3.86718 -3.33985,3.86719 -3.33985,10.63477 0,11.07422 9.05274,23.55469 z m 32.34375,-74.79493 q 4.39453,0 7.38281,3.16407 2.98828,3.07617 2.98828,7.4707 0,4.30664 -2.98828,7.4707 -2.98828,3.07617 -7.38281,3.07617 -4.39454,0 -7.47071,-3.07617 -2.98828,-3.07617 -2.98828,-7.4707 0,-4.39453 2.98828,-7.4707 3.07617,-3.16407 7.47071,-3.16407 z m -5.625,-67.67578 0,0 z m -11.86524,145.54688 0,0 z"
         style="font-style:normal;font-variant:normal;font-weight:normal;font-stretch:normal;font-size:180px;line-height:125%;font-family:'Noto Sans Kannada';-inkscape-font-specification:'Noto Sans Kannada, Normal';text-align:start;writing-mode:lr-tb;text-anchor:start"
         id="path3345" />
      <path
         d="m 398.3245,986.31091 q 8.17383,4.92188 8.17383,15.11719 0,10.1074 -7.29493,15.4688 -7.20703,5.4492 -20.91797,5.4492 -12.91992,0 -20.12695,-5.5371 -7.20703,-5.4493 -7.20703,-15.1172 0,-10.01956 8.34961,-15.38089 l -11.68945,0.35157 0,-11.60157 26.98242,0 q 5.27344,-6.24023 5.27344,-14.41406 0,-8.4375 -5.36133,-18.19336 l 13.35937,-3.7793 q 5.71289,10.45899 5.71289,20.83008 0,7.73438 -5.18554,15.55664 l 22.32422,0 0,11.60157 -12.39258,-0.35157 z m -19.59961,0.35157 q -7.38281,0 -11.25,3.33984 -3.86719,3.33984 -3.86719,8.96484 0,5.62504 3.95508,8.70114 3.86719,3.0762 11.16211,3.0762 7.29492,0 11.25,-3.1641 3.95508,-3.0761 3.95508,-8.61324 0,-5.80078 -4.04297,-9.05273 -3.95508,-3.25195 -11.16211,-3.25195 z m -15.9961,-30.58594 0,0 z m 1.14258,9.93164 0,0 z"
         style="font-style:normal;font-variant:normal;font-weight:normal;font-stretch:normal;font-size:180px;line-height:125%;font-family:'Noto Sans Kannada';-inkscape-font-specification:'Noto Sans Kannada, Normal';text-align:start;writing-mode:lr-tb;text-anchor:start"
         id="path3347" />
      <path
         d="m 486.47879,963.28357 q 11.42579,20.12695 11.42579,40.51753 0,22.7637 -11.77735,34.7168 -11.68945,11.9532 -33.83789,11.9532 -17.22656,0 -27.42187,-9.5801 -10.10743,-9.5801 -10.10743,-25.0488 0,-12.6563 7.64649,-20.91801 7.73437,-8.26171 19.59961,-8.26171 10.01953,0 15.46875,5.09765 5.44922,5.09766 5.44922,13.88677 0,9.3164 -5.88868,14.2382 -5.88867,5.0098 -17.22656,5.0098 -6.5039,0 -11.68945,-2.0215 2.02148,7.6465 7.99805,11.5137 6.06445,3.8672 16.08398,3.8672 15.82031,0 23.90625,-8.7012 8.08594,-8.7012 8.08594,-25.9277 0,-8.17386 -2.8125,-17.66605 -2.8125,-9.4043 -7.29492,-16.52344 l 12.39257,-6.15234 z m -58.88671,48.25193 q 4.39453,2.1973 10.01953,2.1973 12.56836,0 12.56836,-8.3496 0,-3.4278 -2.28516,-5.53713 -2.19727,-2.02149 -6.24023,-2.02149 -5.625,0 -9.4043,3.60352 -3.69141,3.6035 -4.6582,10.1074 z m 14.15039,-35.68357 0,0 z m 20.03906,9.93164 0,0 z m 13.27148,-10.2832 0,0 z"
         style="font-style:normal;font-variant:normal;font-weight:normal;font-stretch:normal;font-size:180px;line-height:125%;font-family:'Noto Sans Kannada';-inkscape-font-specification:'Noto Sans Kannada, Normal';text-align:start;writing-mode:lr-tb;text-anchor:start"
         id="path3349" />
      <path
         d="m 580.78543,908.70349 q -3.95507,6.94336 -11.60156,10.89844 -7.64648,3.86719 -17.13867,3.86719 -11.86523,0 -18.36914,-5.18555 -6.41602,-5.18555 -6.41602,-15.0293 0,-9.3164 6.76758,-14.41406 6.85547,-5.18555 19.6875,-5.18555 9.05274,0 17.40235,2.72461 -1.31836,-4.92187 -4.7461,-8.78906 -3.33984,-3.95508 -8.87695,-6.85547 l -60.0293,0 0,-13.97461 60.20508,0 q 9.31641,0 14.0625,-0.9668 4.74609,-0.96679 7.03125,-3.6914 2.37305,-2.8125 2.37305,-7.4707 0,-11.51368 -11.68946,-22.93946 l 11.68946,-7.82226 q 7.38281,8.26172 10.98633,15.73242 3.60351,7.4707 3.60351,16.25976 0,8.61329 -5.09766,15.0293 -5.09765,6.32813 -15.11718,8.61328 4.74609,4.04297 7.11914,9.75586 2.37304,5.625 2.37304,12.91992 l 0,1.14258 0,0.9668 q 5.18555,4.74609 7.91016,11.07422 2.8125,6.32812 2.8125,13.53515 0,18.98438 -12.91992,29.17969 -12.83203,10.10742 -37.35352,10.10742 -22.93945,0 -35.94726,-10.37109 -13.00781,-10.37109 -13.00781,-27.86133 0,-5.53711 0.96679,-10.45898 l 14.23828,1.93359 q -0.70312,3.42773 -0.70312,6.94336 0,12.30469 8.70117,18.98437 8.78906,6.5918 26.01563,6.5918 18.28125,0 27.59765,-6.5918 9.4043,-6.67968 9.4043,-18.19335 0,-5.88868 -1.9336,-10.45899 z m -10.2832,-9.84375 q -6.41601,-3.07617 -14.85351,-3.07617 -7.11914,0 -10.54688,1.75781 -3.42773,1.75781 -3.42773,5.53711 0,7.29492 11.68945,7.29492 13.18359,0 17.13867,-11.51367 z m -12.91992,-88.33008 0,0 z"
         style="font-style:normal;font-variant:normal;font-weight:normal;font-stretch:normal;font-size:180px;line-height:125%;font-family:'Noto Sans Kannada';-inkscape-font-specification:'Noto Sans Kannada, Normal';text-align:start;writing-mode:lr-tb;text-anchor:start"
         id="path3351" />
    </g>
  </g>
</svg>
