<?xml version="1.0" encoding="UTF-8" standalone="no"?>
<!-- Created with Inkscape (http://www.inkscape.org/) -->

<svg
   xmlns:dc="http://purl.org/dc/elements/1.1/"
   xmlns:cc="http://creativecommons.org/ns#"
   xmlns:rdf="http://www.w3.org/1999/02/22-rdf-syntax-ns#"
   xmlns:svg="http://www.w3.org/2000/svg"
   xmlns="http://www.w3.org/2000/svg"
   xmlns:sodipodi="http://sodipodi.sourceforge.net/DTD/sodipodi-0.dtd"
   xmlns:inkscape="http://www.inkscape.org/namespaces/inkscape"
   width="140mm"
   height="70mm"
   viewBox="0 0 496.06299 248.03149"
   id="svg2"
   version="1.1"
   inkscape:version="0.91 r13725"
   sodipodi:docname="sanskrit gurmukhi good sasakrita.svg">
  <defs
     id="defs4" />
  <sodipodi:namedview
     id="base"
     pagecolor="#ffffff"
     bordercolor="#666666"
     borderopacity="1.0"
     inkscape:pageopacity="0.0"
     inkscape:pageshadow="2"
     inkscape:zoom="0.35"
     inkscape:cx="-283.57143"
     inkscape:cy="520"
     inkscape:document-units="px"
     inkscape:current-layer="layer1"
     showgrid="false"
     inkscape:window-width="1920"
     inkscape:window-height="1027"
     inkscape:window-x="-8"
     inkscape:window-y="-8"
     inkscape:window-maximized="1" />
  <metadata
     id="metadata7">
    <rdf:RDF>
      <cc:Work
         rdf:about="">
        <dc:format>image/svg+xml</dc:format>
        <dc:type
           rdf:resource="http://purl.org/dc/dcmitype/StillImage" />
        <dc:title></dc:title>
      </cc:Work>
    </rdf:RDF>
  </metadata>
  <g
     inkscape:label="Layer 1"
     inkscape:groupmode="layer"
     id="layer1"
     transform="translate(0,-804.33071)">
    <g
       style="font-style:normal;font-weight:normal;font-size:180px;line-height:125%;font-family:sans-serif;letter-spacing:0px;word-spacing:0px;fill:#000000;fill-opacity:1;stroke:none;stroke-width:1px;stroke-linecap:butt;stroke-linejoin:miter;stroke-opacity:1"
       id="text3336">
      <path
         d="m 12.967358,871.81818 109.863282,0 0,12.83203 -17.40234,0 0,99.14062 -14.501958,0 0,-46.93359 -42.099609,0 q -0.791016,16.08398 -4.921875,24.25781 -4.042969,8.17383 -10.634766,8.17383 -4.482422,0 -6.591797,-2.54883 -2.021484,-2.63672 -2.021484,-7.91015 0,-5.88868 2.8125,-13.35938 2.8125,-7.55859 8.173828,-13.44727 -1.230469,-25.40039 -9.228516,-47.37304 l -13.447265,0 0,-12.83203 z m 28.828125,12.83203 q 6.943359,21.62109 7.207031,39.375 l 41.923828,0 0,-39.375 -49.130859,0 z"
         style="font-style:normal;font-variant:normal;font-weight:normal;font-stretch:normal;font-size:180px;line-height:125%;font-family:'Noto Sans Gurmukhi';-inkscape-font-specification:'Noto Sans Gurmukhi, Normal';text-align:start;writing-mode:lr-tb;text-anchor:start"
         id="path3341" />
      <path
         d="m 109.1197,859.77716 q 2.28516,-5.27344 2.28516,-10.37109 0,-5.625 -3.42774,-8.52539 -3.42773,-2.98828 -9.843747,-2.98828 -6.416015,0 -9.755859,2.98828 -3.427734,2.98828 -3.427734,8.52539 0,5.09765 2.285156,10.37109 l -12.304688,1.8457 q -2.90039,-7.03125 -2.90039,-13.71093 0,-9.75586 7.207031,-15.73243 7.207031,-5.97656 18.808594,-5.97656 11.953127,0 19.160157,5.97656 7.11914,5.88868 7.11914,15.82032 0,6.5039 -2.90039,13.62304 l -12.30469,-1.8457 z m -3.6914,12.04102 0,0 z m 1.66992,-49.39453 0,0 z"
         style="font-style:normal;font-variant:normal;font-weight:normal;font-stretch:normal;font-size:180px;line-height:125%;font-family:'Noto Sans Gurmukhi';-inkscape-font-specification:'Noto Sans Gurmukhi, Normal';text-align:start;writing-mode:lr-tb;text-anchor:start"
         id="path3343" />
      <path
         d="m 120.19392,871.81818 109.86328,0 0,12.83203 -17.40234,0 0,99.14062 -14.50196,0 0,-46.93359 -42.0996,0 q -0.79102,16.08398 -4.92188,24.25781 -4.04297,8.17383 -10.63477,8.17383 -4.48242,0 -6.59179,-2.54883 -2.02149,-2.63672 -2.02149,-7.91015 0,-5.88868 2.8125,-13.35938 2.8125,-7.55859 8.17383,-13.44727 -1.23047,-25.40039 -9.22851,-47.37304 l -13.44727,0 0,-12.83203 z m 28.82813,12.83203 q 6.94335,21.62109 7.20703,39.375 l 41.92382,0 0,-39.375 -49.13085,0 z"
         style="font-style:normal;font-variant:normal;font-weight:normal;font-stretch:normal;font-size:180px;line-height:125%;font-family:'Noto Sans Gurmukhi';-inkscape-font-specification:'Noto Sans Gurmukhi, Normal';text-align:start;writing-mode:lr-tb;text-anchor:start"
         id="path3345" />
      <path
         d="m 244.73494,884.65021 -17.31446,0 0,-12.83203 17.31446,0 0,-8.26172 q 0,-14.41406 3.25195,-22.76367 3.33984,-8.4375 10.72266,-13.35938 7.38281,-5.00976 18.89648,-5.00976 14.0625,0 22.14844,8.26171 8.08593,8.26172 8.08593,23.29102 0,4.74609 -1.14257,11.95312 l -14.0625,-1.40625 q 0.96679,-5.18554 0.96679,-10.98632 0,-9.31641 -4.04297,-13.88672 -3.95507,-4.57031 -12.1289,-4.57031 -6.76758,0 -11.07422,3.51562 -4.21875,3.51563 -5.71289,9.4043 -1.40625,5.80078 -1.40625,15.11718 l 0,8.70118 17.40234,0 0,12.83203 -17.40234,0 0,99.14062 -14.50195,0 0,-99.14062 z"
         style="font-style:normal;font-variant:normal;font-weight:normal;font-stretch:normal;font-size:180px;line-height:125%;font-family:'Noto Sans Gurmukhi';-inkscape-font-specification:'Noto Sans Gurmukhi, Normal';text-align:start;writing-mode:lr-tb;text-anchor:start"
         id="path3347" />
      <path
         d="m 363.38728,983.79083 q 0,-3.25195 -1.75781,-14.50195 -1.66992,-11.25 -5.625,-21.62109 -7.47071,9.58007 -17.49024,14.41406 -9.93164,4.74609 -21.70898,4.74609 -16.25977,0 -25.66406,-8.34961 -9.31641,-8.34961 -9.31641,-22.85156 0,-14.32617 9.84375,-22.76367 9.84375,-8.52539 25.3125,-8.52539 11.86523,0 21.18164,4.21875 9.31641,4.13086 16.875,12.83203 2.28516,-8.26172 2.28516,-20.03906 0,-7.99805 -1.75782,-16.69922 l -81.38671,0 0,-12.83203 114.52148,0 0,12.83203 -18.54492,0 q 0.52734,2.46094 1.05469,7.82226 0.61523,5.27344 0.61523,8.78907 0,18.80859 -7.4707,33.22265 5.44922,9.49219 8.78906,21.79688 3.42773,12.30468 4.6582,27.50976 l 0,2.8125 q 0,9.58008 -1.75781,14.67777 13.0957,5.9765 26.10352,23.6425 l -10.72266,7.0313 q -10.10742,-14.502 -21.70899,-20.3906 -3.42773,3.5156 -7.64648,5.2734 -4.13086,1.7578 -9.05273,1.7578 -7.91016,0 -12.12891,-2.9004 -4.13086,-2.8125 -4.13086,-8.3496 0,-5.3613 4.30664,-8.17381 4.30664,-2.72461 12.30469,-2.72461 4.30664,0 9.75586,0.9668 0.26367,-1.75781 0.26367,-3.60352 l 0,-10.01953 z M 350.0279,935.01154 q -6.5039,-8.87696 -14.50195,-13.35938 -7.91015,-4.48242 -17.40234,-4.48242 -10.10742,0 -15.82031,4.92187 -5.7129,4.83399 -5.7129,13.62305 0,8.52539 5.44922,13.44727 5.44922,4.83398 14.85352,4.83398 10.54687,0 18.80859,-4.74609 8.26172,-4.7461 14.32617,-14.23828 z m 17.75391,-63.19336 0,0 z m 2.98828,142.29492 0,0 z m 29.44336,5.0098 0,0 z"
         style="font-style:normal;font-variant:normal;font-weight:normal;font-stretch:normal;font-size:180px;line-height:125%;font-family:'Noto Sans Gurmukhi';-inkscape-font-specification:'Noto Sans Gurmukhi, Normal';text-align:start;writing-mode:lr-tb;text-anchor:start"
         id="path3349" />
      <path
         d="m 389.57869,972.18927 5.88867,-13.18359 q 8.61328,5.625 17.49023,8.70117 8.96485,2.98828 18.98438,2.98828 13.35937,0 20.83008,-5.36133 7.55859,-5.36133 7.55859,-15.55664 0,-8.08594 -5.09766,-14.15039 -5.00976,-6.06445 -15.02929,-10.10742 -10.98633,2.10937 -20.30274,2.10937 -20.12695,0 -20.12695,-10.19531 0,-9.14062 15.73242,-9.14062 13.00781,0 26.10352,4.74609 7.20703,-2.90039 10.81054,-8.17383 3.60352,-5.36133 3.60352,-13.18359 0,-3.86719 -0.61524,-7.03125 l -69.43359,0 0,-12.83203 100.19531,0 0,12.83203 -16.08398,0 q 0.52734,3.77929 0.52734,7.20703 0,9.22851 -3.51562,15.64453 -3.51563,6.32813 -11.95313,11.16211 10.72266,5.88867 15.38086,13.53516 4.6582,7.64648 4.6582,17.7539 0,15.73242 -11.68945,24.78516 -11.60156,9.05273 -31.20117,9.05273 -11.51367,0 -22.23633,-2.90039 -10.63476,-2.90039 -20.47851,-8.70117 z m 59.41406,11.60156 0,0 z"
         style="font-style:normal;font-variant:normal;font-weight:normal;font-stretch:normal;font-size:180px;line-height:125%;font-family:'Noto Sans Gurmukhi';-inkscape-font-specification:'Noto Sans Gurmukhi, Normal';text-align:start;writing-mode:lr-tb;text-anchor:start"
         id="path3351" />
    </g>
  </g>
</svg>
