<?xml version="1.0" encoding="UTF-8" standalone="no"?>
<!-- Created with Inkscape (http://www.inkscape.org/) -->

<svg
   xmlns:dc="http://purl.org/dc/elements/1.1/"
   xmlns:cc="http://creativecommons.org/ns#"
   xmlns:rdf="http://www.w3.org/1999/02/22-rdf-syntax-ns#"
   xmlns:svg="http://www.w3.org/2000/svg"
   xmlns="http://www.w3.org/2000/svg"
   xmlns:sodipodi="http://sodipodi.sourceforge.net/DTD/sodipodi-0.dtd"
   xmlns:inkscape="http://www.inkscape.org/namespaces/inkscape"
   width="210mm"
   height="70mm"
   viewBox="0 0 744.09449 248.03149"
   id="svg3353"
   version="1.1"
   inkscape:version="0.91 r13725"
   sodipodi:docname="sanskrit kannada bad sanskrta.svg">
  <defs
     id="defs3355" />
  <sodipodi:namedview
     id="base"
     pagecolor="#ffffff"
     bordercolor="#666666"
     borderopacity="1.0"
     inkscape:pageopacity="0.0"
     inkscape:pageshadow="2"
     inkscape:zoom="0.7"
     inkscape:cx="934.86971"
     inkscape:cy="17.926275"
     inkscape:document-units="px"
     inkscape:current-layer="text3361"
     showgrid="false"
     inkscape:window-width="1920"
     inkscape:window-height="1027"
     inkscape:window-x="-8"
     inkscape:window-y="-8"
     inkscape:window-maximized="1" />
  <metadata
     id="metadata3358">
    <rdf:RDF>
      <cc:Work
         rdf:about="">
        <dc:format>image/svg+xml</dc:format>
        <dc:type
           rdf:resource="http://purl.org/dc/dcmitype/StillImage" />
        <dc:title></dc:title>
      </cc:Work>
    </rdf:RDF>
  </metadata>
  <g
     inkscape:label="Layer 1"
     inkscape:groupmode="layer"
     id="layer1"
     transform="translate(0,-804.33071)">
    <g
       style="font-style:normal;font-weight:normal;font-size:180px;line-height:125%;font-family:sans-serif;letter-spacing:0px;word-spacing:0px;fill:#000000;fill-opacity:1;stroke:none;stroke-width:1px;stroke-linecap:butt;stroke-linejoin:miter;stroke-opacity:1"
       id="text3361">
      <path
         d="m 42.679966,883.02039 0,-13.97461 76.992184,0 q 9.31641,0 14.0625,-0.9668 4.7461,-0.9668 7.03125,-3.69141 2.37305,-2.8125 2.37305,-7.4707 0,-11.51367 -11.68945,-22.93945 l 11.68945,-7.82227 q 7.38281,8.26172 10.98633,15.73242 3.60351,7.47071 3.60351,16.25977 0,6.5918 -3.25195,12.30469 -3.16406,5.625 -10.19531,9.14062 -7.03125,3.42774 -21.35742,3.42774 l -80.244144,0 z m 23.554687,82.26562 -13.974609,5.53711 q -4.482422,-5.97656 -7.03125,-13.53516 -2.548828,-7.64648 -2.548828,-15.11718 0,-12.30469 7.822265,-20.47852 7.822266,-8.26172 19.160157,-8.26172 7.207031,0 12.304687,2.10938 5.097656,2.10937 9.052734,6.32812 4.042969,4.21875 8.964844,12.83203 5.449217,9.49219 8.789067,13.53516 3.33984,3.95508 7.20703,5.97656 3.95508,2.02149 9.40429,2.02149 8.34961,0 12.91992,-6.06446 4.65821,-6.15234 4.65821,-16.78711 0,-9.40429 -3.7793,-17.7539 -3.69141,-8.4375 -11.25,-16.96289 l 12.12891,-8.52539 q 17.66601,18.89648 17.66601,41.74804 0,18.28125 -8.87695,28.47657 -8.78906,10.10742 -24.69726,10.10742 -7.82227,0 -13.79883,-2.63672 -5.88867,-2.72461 -10.371097,-7.64649 -4.482422,-5.00976 -9.93164,-14.32617 -4.570313,-7.73437 -7.646485,-11.60156 -2.988281,-3.86719 -5.888672,-5.44922 -2.8125,-1.58203 -6.679687,-1.58203 -5.888672,0 -9.316406,3.86719 -3.339844,3.86719 -3.339844,10.63476 0,11.07422 9.052734,23.55469 z m 32.34375,-74.79492 q 4.394527,0 7.382817,3.16406 2.98828,3.07617 2.98828,7.4707 0,4.30665 -2.98828,7.47071 -2.98829,3.07617 -7.382817,3.07617 -4.394531,0 -7.470703,-3.07617 -2.988281,-3.07617 -2.988281,-7.47071 0,-4.39453 2.988281,-7.4707 3.076172,-3.16406 7.470703,-3.16406 z m -5.625,-67.67578 0,0 z m -11.865234,145.54687 0,0 z"
         style="font-style:normal;font-variant:normal;font-weight:normal;font-stretch:normal;font-size:180px;line-height:125%;font-family:'Noto Sans Kannada';-inkscape-font-specification:'Noto Sans Kannada, Normal';text-align:start;writing-mode:lr-tb;text-anchor:start"
         id="path3366"
         inkscape:connector-curvature="0" />
      <path
         d="m 214.41825,878.27429 q 20.39062,0 31.55273,12.39258 11.25,12.30469 11.25,33.83789 0,20.83008 -11.77734,33.39844 -11.77735,12.56836 -31.81641,12.56836 -19.51172,0 -30.9375,-12.2168 -11.33789,-12.2168 -11.33789,-33.66211 0,-21.00586 11.60156,-33.66211 11.68946,-12.65625 31.46485,-12.65625 z m -0.52735,78.66211 q 13.71094,0 21.18164,-8.52539 7.47071,-8.61328 7.47071,-23.81836 0,-15.20508 -7.47071,-23.99414 -7.38281,-8.87695 -20.39062,-8.87695 -13.79883,0 -21.26953,8.61328 -7.38282,8.52539 -7.38282,23.81836 0,15.20508 7.38282,23.99414 7.4707,8.78906 20.47851,8.78906 z m -0.26367,-87.89062 0,0 z"
         style="font-style:normal;font-variant:normal;font-weight:normal;font-stretch:normal;font-size:180px;line-height:125%;font-family:'Noto Sans Kannada';-inkscape-font-specification:'Noto Sans Kannada, Normal';text-align:start;writing-mode:lr-tb;text-anchor:start"
         id="path3368"
         inkscape:connector-curvature="0" />
      <path
         d="m 269.43778,883.02039 0,-13.97461 76.99218,0 q 9.31641,0 14.0625,-0.9668 4.7461,-0.9668 7.03125,-3.69141 2.37305,-2.8125 2.37305,-7.4707 0,-11.51367 -11.68945,-22.93945 l 11.68945,-7.82227 q 7.38281,8.26172 10.98633,15.73242 3.60352,7.47071 3.60352,16.25977 0,6.5918 -3.25196,12.30469 -3.16406,5.625 -10.19531,9.14062 -7.03125,3.42774 -21.35742,3.42774 l -80.24414,0 z m 23.55468,82.26562 -13.9746,5.53711 q -4.48243,-5.97656 -7.03125,-13.53516 -2.54883,-7.64648 -2.54883,-15.11718 0,-12.30469 7.82226,-20.47852 7.82227,-8.26172 19.16016,-8.26172 7.20703,0 12.30469,2.10938 5.09765,2.10937 9.05273,6.32812 4.04297,4.21875 8.96484,12.83203 5.44922,9.49219 8.78907,13.53516 3.33984,3.95508 7.20703,5.97656 3.95508,2.02149 9.4043,2.02149 8.3496,0 12.91992,-6.06446 4.6582,-6.15234 4.6582,-16.78711 0,-9.40429 -3.7793,-17.7539 -3.6914,-8.4375 -11.25,-16.96289 l 12.12891,-8.52539 q 17.66602,18.89648 17.66602,41.74804 0,18.28125 -8.87696,28.47657 -8.78906,10.10742 -24.69726,10.10742 -7.82227,0 -13.79883,-2.63672 -5.88867,-2.72461 -10.3711,-7.64649 -4.48242,-5.00976 -9.93164,-14.32617 -4.57031,-7.73437 -7.64648,-11.60156 -2.98828,-3.86719 -5.88867,-5.44922 -2.8125,-1.58203 -6.67969,-1.58203 -5.88867,0 -9.31641,3.86719 -3.33984,3.86719 -3.33984,10.63476 0,11.07422 9.05273,23.55469 z m 32.34375,-74.79492 q 4.39454,0 7.38282,3.16406 2.98828,3.07617 2.98828,7.4707 0,4.30665 -2.98828,7.47071 -2.98828,3.07617 -7.38282,3.07617 -4.39453,0 -7.4707,-3.07617 -2.98828,-3.07617 -2.98828,-7.47071 0,-4.39453 2.98828,-7.4707 3.07617,-3.16406 7.4707,-3.16406 z m -5.625,-67.67578 0,0 z m -11.86523,145.54687 0,0 z"
         style="font-style:normal;font-variant:normal;font-weight:normal;font-stretch:normal;font-size:180px;line-height:125%;font-family:'Noto Sans Kannada';-inkscape-font-specification:'Noto Sans Kannada, Normal';text-align:start;writing-mode:lr-tb;text-anchor:start"
         id="path3370"
         inkscape:connector-curvature="0" />
      <path
         d="m 440.14871,859.99304 q -7.64648,-4.13086 -15.73242,-4.13086 -7.4707,0 -12.39258,3.33985 -4.92187,3.25195 -7.20703,9.84375 l 4.83399,0 q 16.52344,0 24.16992,6.59179 7.73437,6.5918 7.73437,17.57813 0,10.37109 -6.59179,16.17187 -6.5918,5.80078 -17.8418,5.80078 -13.00781,0 -20.39062,-8.3496 -7.29493,-8.4375 -7.29493,-23.20313 l 0,-0.61523 -29.35546,0 0,-13.97461 30.9375,0 q 3.33984,-12.56836 12.48046,-19.24805 9.14063,-6.67969 22.41211,-6.67969 12.04102,0 21.97266,5.53711 l -7.73438,11.33789 z m -37.26562,23.02735 0,1.31836 q 0,8.78906 3.86719,13.79882 3.86718,4.92188 10.72265,4.92188 10.45899,0 10.45899,-9.4043 0,-3.6914 -1.9336,-6.15234 -1.8457,-2.46094 -5.00976,-3.42774 -3.16406,-1.05468 -9.4043,-1.05468 l -8.70117,0 z"
         style="font-style:normal;font-variant:normal;font-weight:normal;font-stretch:normal;font-size:180px;line-height:125%;font-family:'Noto Sans Kannada';-inkscape-font-specification:'Noto Sans Kannada, Normal';text-align:start;writing-mode:lr-tb;text-anchor:start"
         id="path3374"
         inkscape:connector-curvature="0" />
      <path
         d="m 503.83426,883.02039 q 2.90039,4.83398 2.90039,9.22851 0,4.92188 -2.28515,8.52539 l 36.47461,0 0,12.56836 -17.49024,-0.26367 q 6.41602,3.86719 9.84375,10.10742 3.51563,6.24024 3.51563,13.79883 0,15.73242 -10.98633,24.60937 -10.98633,8.87696 -30.9375,8.87696 -18.8086,0 -29.70703,-8.96485 -10.89844,-9.05273 -10.89844,-24.16992 0,-15.29297 12.83203,-24.16992 l -16.78711,0.17578 0,-12.56836 37.5293,0 q 4.6582,-3.42773 4.6582,-8.70117 0,-4.57031 -2.98828,-9.05273 l -39.19922,0 0,-13.97461 53.70117,0 q 9.31641,0 14.0625,-0.9668 4.7461,-0.9668 7.03125,-3.69141 2.37305,-2.8125 2.37305,-7.4707 0,-11.51367 -11.68945,-22.93945 l 11.68945,-7.82227 q 7.38281,8.26172 10.98633,15.73242 3.60351,7.47071 3.60351,16.25977 0,6.5918 -3.25195,12.30469 -3.16406,5.625 -10.19531,9.14062 -7.03125,3.42774 -21.35742,3.42774 l -3.42774,0 z m -8.34961,30.32226 q -12.91992,0 -19.86328,5.88867 -6.85547,5.88868 -6.85547,16.08399 0,9.93164 6.85547,15.55664 6.85547,5.53711 19.86328,5.53711 13.00781,0 19.86328,-5.53711 6.94336,-5.625 6.94336,-15.55664 0,-10.3711 -6.94336,-16.17188 -6.94336,-5.80078 -19.86328,-5.80078 z m -3.86719,-90.52734 0,0 z"
         style="font-style:normal;font-variant:normal;font-weight:normal;font-stretch:normal;font-size:180px;line-height:125%;font-family:'Noto Sans Kannada';-inkscape-font-specification:'Noto Sans Kannada, Normal';text-align:start;writing-mode:lr-tb;text-anchor:start"
         id="path3376"
         inkscape:connector-curvature="0" />
      <path
         d="m 562.10575,955.79382 q 11.42578,20.12696 11.42578,40.51758 0,22.7637 -11.77735,34.7168 -11.68945,11.9531 -33.83789,11.9531 -17.22656,0 -27.33398,-9.5801 -10.19531,-9.58 -10.19531,-25.0488 0,-12.65623 7.73437,-20.91795 7.64649,-8.26172 19.51172,-8.26172 10.01953,0 15.46875,5.09766 5.44922,5.09765 5.44922,13.88671 0,9.3164 -5.88867,14.2383 -5.88868,5.0098 -17.22657,5.0098 -6.5039,0 -11.68945,-2.0215 2.02149,7.6465 8.08594,11.5136 5.97656,3.8672 15.99609,3.8672 15.82031,0 23.90625,-8.7011 8.08594,-8.7012 8.08594,-25.92778 0,-8.17383 -2.8125,-17.66602 -2.8125,-9.40429 -7.29492,-16.52343 l 12.39258,-6.15235 z m -58.88672,48.25198 q 4.39453,2.1972 10.01953,2.1972 12.56836,0 12.56836,-8.34957 0,-3.42773 -2.19727,-5.53711 -2.28515,-2.02148 -6.32812,-2.02148 -5.625,0 -9.31641,3.60351 -3.7793,3.60352 -4.74609,10.10745 z m 14.15039,-35.68362 0,0 z m 20.03906,9.93164 0,0 z m 13.27148,-10.2832 0,0 z"
         style="font-style:normal;font-variant:normal;font-weight:normal;font-stretch:normal;font-size:180px;line-height:125%;font-family:'Noto Sans Kannada';-inkscape-font-specification:'Noto Sans Kannada, Normal';text-align:start;writing-mode:lr-tb;text-anchor:start"
         id="path3378"
         inkscape:connector-curvature="0" />
      <path
         d="m 659.137,920.98914 q -3.95508,6.94336 -11.60157,10.89843 -7.64648,3.86719 -17.13867,3.86719 -11.86523,0 -18.36914,-5.18555 -6.41601,-5.18554 -6.41601,-15.02929 0,-9.31641 6.76757,-14.41407 6.85547,-5.18554 19.6875,-5.18554 9.05274,0 17.40235,2.72461 -1.31836,-4.92188 -4.7461,-8.78907 -3.33984,-3.95507 -8.87695,-6.85546 l -60.0293,0 0,-13.97461 60.20508,0 q 9.31641,0 14.0625,-0.9668 4.7461,-0.9668 7.03125,-3.69141 2.37305,-2.8125 2.37305,-7.4707 0,-11.51367 -11.68945,-22.93945 l 11.68945,-7.82227 q 7.38281,8.26172 10.98633,15.73242 3.60351,7.47071 3.60351,16.25977 0,8.61328 -5.09765,15.0293 -5.09766,6.32812 -15.11719,8.61328 4.74609,4.04297 7.11914,9.75586 2.37305,5.625 2.37305,12.91992 l 0,1.14258 0,0.96679 q 5.18554,4.7461 7.91015,11.07422 2.8125,6.32813 2.8125,13.53516 0,18.98437 -12.91992,29.17969 -12.83203,10.10742 -37.35352,10.10742 -22.93945,0 -35.94726,-10.3711 -13.00781,-10.37109 -13.00781,-27.86132 0,-5.53711 0.96679,-10.45899 l 14.23828,1.9336 q -0.70312,3.42773 -0.70312,6.94335 0,12.30469 8.70117,18.98438 8.78906,6.5918 26.01563,6.5918 18.28125,0 27.59765,-6.5918 9.4043,-6.67969 9.4043,-18.19336 0,-5.88867 -1.93359,-10.45898 z m -10.28321,-9.84375 q -6.41601,-3.07618 -14.85351,-3.07618 -7.11914,0 -10.54688,1.75782 -3.42773,1.75781 -3.42773,5.53711 0,7.29492 11.68945,7.29492 13.18359,0 17.13867,-11.51367 z m -12.91992,-88.33008 0,0 z"
         style="font-style:normal;font-variant:normal;font-weight:normal;font-stretch:normal;font-size:180px;line-height:125%;font-family:'Noto Sans Kannada';-inkscape-font-specification:'Noto Sans Kannada, Normal';text-align:start;writing-mode:lr-tb;text-anchor:start"
         id="path3380"
         inkscape:connector-curvature="0" />
    </g>
  </g>
</svg>
