<?xml version="1.0" encoding="UTF-8" standalone="no"?>
<!-- Created with Inkscape (http://www.inkscape.org/) -->

<svg
   xmlns:dc="http://purl.org/dc/elements/1.1/"
   xmlns:cc="http://creativecommons.org/ns#"
   xmlns:rdf="http://www.w3.org/1999/02/22-rdf-syntax-ns#"
   xmlns:svg="http://www.w3.org/2000/svg"
   xmlns="http://www.w3.org/2000/svg"
   xmlns:sodipodi="http://sodipodi.sourceforge.net/DTD/sodipodi-0.dtd"
   xmlns:inkscape="http://www.inkscape.org/namespaces/inkscape"
   width="225mm"
   height="70mm"
   viewBox="0 0 797.2441 248.03149"
   id="svg2"
   version="1.1"
   inkscape:version="0.91 r13725"
   sodipodi:docname="sanskrit latin without.svg">
  <defs
     id="defs4" />
  <sodipodi:namedview
     id="base"
     pagecolor="#ffffff"
     bordercolor="#666666"
     borderopacity="1.0"
     inkscape:pageopacity="0.0"
     inkscape:pageshadow="2"
     inkscape:zoom="0.98994949"
     inkscape:cx="379.62495"
     inkscape:cy="208.6129"
     inkscape:document-units="px"
     inkscape:current-layer="text3361"
     showgrid="false"
     inkscape:window-width="1920"
     inkscape:window-height="1027"
     inkscape:window-x="-8"
     inkscape:window-y="-8"
     inkscape:window-maximized="1" />
  <metadata
     id="metadata7">
    <rdf:RDF>
      <cc:Work
         rdf:about="">
        <dc:format>image/svg+xml</dc:format>
        <dc:type
           rdf:resource="http://purl.org/dc/dcmitype/StillImage" />
        <dc:title></dc:title>
      </cc:Work>
    </rdf:RDF>
  </metadata>
  <g
     inkscape:label="Layer 1"
     inkscape:groupmode="layer"
     id="layer1"
     transform="translate(0,-804.33071)">
    <flowRoot
       xml:space="preserve"
       id="flowRoot3340"
       style="font-style:normal;font-weight:normal;font-size:180px;line-height:125%;font-family:sans-serif;letter-spacing:0px;word-spacing:0px;fill:#000000;fill-opacity:1;stroke:none;stroke-width:1px;stroke-linecap:butt;stroke-linejoin:miter;stroke-opacity:1"><flowRegion
         id="flowRegion3342"><rect
           id="rect3344"
           width="1180"
           height="471.42856"
           x="-131.42857"
           y="766.64795" /></flowRegion><flowPara
         id="flowPara3346"></flowPara></flowRoot>    <g
       style="font-style:normal;font-weight:normal;font-size:180px;line-height:125%;font-family:sans-serif;letter-spacing:0px;word-spacing:0px;fill:#000000;fill-opacity:1;stroke:none;stroke-width:1px;stroke-linecap:butt;stroke-linejoin:miter;stroke-opacity:1"
       id="text3361">
      <path
         d="m 19.325714,956.83372 2.34,49.13998 1.44,0 -0.36,-11.33998 c -0.18,-2.16 -0.36,-5.94 -0.72,-7.74 l 0.72,-0.18 c 0.54,1.62 3.24,5.04 4.5,5.94 9.18,6.48 17.28,9.71998 28.44,9.71998 23.94,0 40.14,-12.95998 40.14,-32.39998 0,-22.5 -17.1,-33.84 -33.12,-43.56 -14.04,-8.28 -27,-16.2 -27,-31.14 0,-14.22 8.1,-21.96 22.86,-21.96 17.82,0 26.28,14.04 27,28.26 l 0.36,7.56 3.24,-0.18 -1.98,-42.48 -1.8,0 0.54,9.54 c 0.18,2.52 0.36,4.5 0.72,5.76 l -1.26,0.36 c -0.18,-0.54 -1.62,-3.24 -2.88,-4.14 -5.58,-4.14 -13.14,-7.92 -23.94,-7.92 -21.42,0 -35.46,11.7 -35.46,29.16 0,21.06 16.2,31.14 31.86,40.5 14.04,8.46 27.36,17.64 27.36,33.12 0,15.84 -10.8,26.28 -27,26.28 -17.1,0 -31.5,-13.68 -32.58,-34.92 l -0.36,-7.38 -3.06,0 z"
         style="font-style:normal;font-variant:normal;font-weight:500;font-stretch:normal;font-size:180px;line-height:125%;font-family:FoglihtenNo07;-inkscape-font-specification:'FoglihtenNo07, Medium';text-align:start;writing-mode:lr-tb;text-anchor:start"
         id="path3366"
         inkscape:connector-curvature="0" />
      <path
         d="m 181.59853,923.89372 0,36.36 c 0,20.7 -15.84,37.26 -35.1,37.26 -15.3,0 -25.38,-9.72 -25.38,-24.3 0,-17.46 9.18,-29.16 23.04,-29.16 10.26,0 18.72,7.74 18.72,16.92 l 0,8.46 c 4.32,0 7.74,-3.6 7.74,-8.1 0,-11.16 -11.88,-20.52 -26.46,-20.52 -22.5,0 -37.44,13.32 -37.44,32.94 0,17.28 14.94,28.61998 37.62,28.61998 12.96,0 33.84,-7.55998 39.24,-29.15998 l 1.8,0 c 0,2.88 0.54,7.2 1.44,11.7 0.9,5.76 1.98,11.88 1.98,16.19998 l 0,1.44 c 5.04,-1.62 10.8,-3.05998 19.62,-3.95998 l -0.18,-1.62 -3.06,0.18 c 0,0 -2.52,0.18 -3.6,0.18 -5.4,0 -5.94,-1.98 -5.94,-9.18 l 0,-61.92 c 0,-19.62 -18.54,-32.76 -46.26,-32.76 -10.8,0 -19.26,3.78 -24.84,7.92 -1.26,0.9 -2.7,3.6 -2.88,4.14 l -1.26,-0.36 c 0.36,-1.26 0.54,-3.24 0.72,-5.76 l 0.54,-9.54 -1.8,0 -1.98,42.48 3.06,0 0.54,-11.16 c 0.72,-13.86 10.26,-24.48 28.08,-24.48 19.08,0 32.04,10.98 32.04,27.18 z"
         style="font-style:normal;font-variant:normal;font-weight:500;font-stretch:normal;font-size:180px;line-height:125%;font-family:FoglihtenNo07;-inkscape-font-specification:'FoglihtenNo07, Medium';text-align:start;writing-mode:lr-tb;text-anchor:start"
         id="path3368"
         inkscape:connector-curvature="0" />
      <path
         d="m 214.56478,1000.9337 45.9,0 0,-1.61998 -6.3,0 c -8.64,0 -9.72,-0.9 -9.72,-9.54 l 0,-49.32 c 0,-26.28 14.04,-43.92 32.4,-43.92 12.6,0 17.64,9.54 17.64,27.18 l 0,55.8 c 0,12.96 8.64,23.39998 19.44,23.39998 9.9,0 16.56,-6.29998 16.56,-15.83998 0,-8.1 -5.22,-14.94 -10.26,-18 -4.32,0 -7.02,1.08 -7.02,2.7 8.28,1.08 15.66,5.58 15.66,15.3 0,6.48 -4.32,10.62 -10.44,10.62 -7.02,0 -11.7,-4.32 -11.7,-10.98 0,-2.16 0.54,-4.68 1.8,-7.38 l 0,-58.68 c 0,-16.2 -10.8,-27.18 -30.24,-27.18 -14.94,0 -27.72,9.9 -32.94,25.2 -1.08,3.24 -2.52,8.46 -2.88,11.7 l -1.26,0 c 0.18,-1.62 0.36,-16.02 0.36,-18.9 l 0,-23.58 -1.44,0 0,0.72 c 0,7.38 -6.12,11.7 -13.32,13.14 l -13.86,2.88 0.18,1.08 10.62,-0.9 c 0.18,0 0.36,0 0.54,0 3.6,0 6.12,2.7 6.12,5.76 l 0,79.2 c 0,8.64 -0.9,9.54 -9.54,9.54 l -6.3,0 0,1.61998 z"
         style="font-style:normal;font-variant:normal;font-weight:500;font-stretch:normal;font-size:180px;line-height:125%;font-family:FoglihtenNo07;-inkscape-font-specification:'FoglihtenNo07, Medium';text-align:start;writing-mode:lr-tb;text-anchor:start"
         id="path3370"
         inkscape:connector-curvature="0" />
      <path
         d="m 375.65165,896.71372 c 17.82,0 26.28,14.04 27,28.26 l 0.36,7.56 3.24,-0.18 -1.98,-42.48 -1.8,0 0.54,9.54 c 0.18,2.52 0.36,4.5 0.72,5.76 l -1.26,0.36 c -0.18,-0.54 -1.62,-3.24 -2.88,-4.14 -5.58,-4.14 -13.14,-7.92 -23.94,-7.92 -21.06,0 -35.46,9.9 -35.46,27.36 0,17.64 16.74,24.84 32.58,31.32 13.68,5.58 26.64,10.8 26.64,22.32 0,14.94 -10.8,24.66 -26.82,24.66 -15.48,0 -27.72,-10.62 -27.72,-24.66 0,-4.32 -4.5,-8.46 -8.82,-8.46 l 0,6.3 c 0,16.56 16.56,30.05998 36.54,30.05998 24.12,0 40.32,-12.23998 40.32,-30.77998 0,-19.26 -18.36,-26.82 -34.74,-33.48 -13.5,-5.4 -25.38,-10.62 -25.38,-21.24 0,-14.22 8.46,-20.16 22.86,-20.16 z"
         style="font-style:normal;font-variant:normal;font-weight:500;font-stretch:normal;font-size:180px;line-height:125%;font-family:FoglihtenNo07;-inkscape-font-specification:'FoglihtenNo07, Medium';text-align:start;writing-mode:lr-tb;text-anchor:start"
         id="path3372"
         inkscape:connector-curvature="0" />
      <path
         d="m 421.25071,1000.9337 45.9,0 0,-1.61998 -6.3,0 c -8.64,0 -9.72,-0.72 -9.72,-9.36 l 0,-45.36 2.16,0 c 25.02,0 28.44,14.58 30.96,28.44 3.24,18.36 8.1,30.05998 25.56,30.05998 9.9,0 16.74,-6.47998 16.74,-16.01998 0,-8.1 -5.22,-14.94 -10.26,-18 -4.32,0 -7.02,1.08 -7.02,2.7 8.28,1.08 15.66,5.58 15.66,15.3 0,7.02 -4.14,11.7 -10.44,11.7 -10.44,0 -14.04,-7.92 -15.84,-22.14 -1.62,-13.68 -4.68,-28.08 -32.4,-34.38 l 0,-0.72 28.8,-32.58 c 8.1,-9 18.18,-12.42 26.1,-12.42 l 2.16,0 0,-1.62 -39.78,0 0,1.62 1.62,0 c 5.58,0 9.36,1.62 9.36,5.04 0,1.62 -0.9,4.14 -3.24,6.66 l -28.44,32.22 c -1.8,2.16 -5.22,2.52 -11.7,2.52 l 0,-75.6 0,-15.3 -1.44,0 0,0.72 c 0,7.38 -9,9.54 -16.2,9.54 l -10.26,0 0,1.62 8.46,0 c 3.42,0 5.4,1.98 5.4,5.4 l 0,120.6 c 0,8.64 -0.9,9.36 -9.54,9.36 l -6.3,0 0,1.61998 z"
         style="font-style:normal;font-variant:normal;font-weight:500;font-stretch:normal;font-size:180px;line-height:125%;font-family:FoglihtenNo07;-inkscape-font-specification:'FoglihtenNo07, Medium';text-align:start;writing-mode:lr-tb;text-anchor:start"
         id="path3374"
         inkscape:connector-curvature="0" />
      <path
         d="m 547.32665,989.77372 c 0,6.48 -3.24,9.54 -9.54,9.54 l -6.3,0 0,1.61998 50.94,0 0,-1.43998 -11.34,0 c -6.3,0 -9.72,-3.24 -9.72,-9.54 l 0,-41.58 c 0,-30.24 12.24,-50.4 30.42,-50.4 l 0,0.18 c -0.72,1.08 -1.26,2.52 -1.26,4.14 0,4.32 3.78,8.1 8.1,8.1 4.32,0 7.92,-3.78 7.92,-8.1 0,-3.6 -2.34,-6.48 -5.4,-7.56 -2.88,-1.08 -5.94,-1.44 -9.36,-1.44 -14.94,0 -27.36,12.96 -32.04,35.1 l -1.44,0 0,-0.36 c 0.72,-2.52 1.44,-10.44 1.44,-16.56 l 0,-23.58 -1.44,0 0,0.72 c 0,7.38 -7.38,11.7 -14.58,13.14 l -13.86,2.88 0.18,1.08 10.62,-0.9 c 0.18,0 0.36,0 0.54,0 3.6,0 6.12,2.7 6.12,5.76 l 0,79.2 z"
         style="font-style:normal;font-variant:normal;font-weight:500;font-stretch:normal;font-size:180px;line-height:125%;font-family:FoglihtenNo07;-inkscape-font-specification:'FoglihtenNo07, Medium';text-align:start;writing-mode:lr-tb;text-anchor:start"
         id="path3376"
         inkscape:connector-curvature="0" />
      <path
         d="m 634.28071,856.93372 c -5.04,0 -8.1,3.24 -8.1,7.92 0,5.04 3.42,8.1 8.1,8.1 5.04,0 7.92,-3.42 7.92,-8.1 0,-5.04 -3.24,-7.92 -7.92,-7.92 z m -7.02,122.58 c 0,12.96 8.82,23.39998 19.44,23.39998 9.9,0 16.56,-6.29998 16.56,-15.83998 0,-1.98 -0.36,-3.96 -1.08,-5.94 l -1.44,0.72 c 0.54,1.62 0.9,3.42 0.9,5.22 0,6.48 -4.32,10.62 -10.44,10.62 -6.3,0 -11.7,-4.86 -11.7,-10.98 0,-2.16 0.54,-4.68 1.8,-7.38 l 0,-74.16 0,-15.3 -1.44,0 0,0.72 c 0,7.38 -9,9.54 -16.2,9.54 l -9.9,0 0,1.62 8.1,0 c 3.42,0 5.4,1.98 5.4,5.4 l 0,72.36 z"
         style="font-style:normal;font-variant:normal;font-weight:500;font-stretch:normal;font-size:180px;line-height:125%;font-family:FoglihtenNo07;-inkscape-font-specification:'FoglihtenNo07, Medium';text-align:start;writing-mode:lr-tb;text-anchor:start"
         id="path3378"
         inkscape:connector-curvature="0" />
      <path
         d="m 749.07384,976.45372 c 0,-15.66 -13.32,-28.44 -29.34,-28.44 l -3.6,0 c 0,4.32 3.6,7.74 8.1,7.74 11.88,0 21.6,9.36 21.6,20.7 0,12.6 -10.98,22.68 -24.3,22.68 -10.8,0 -18,-7.02 -18,-17.64 l 0,-79.92 44.82,0 0,-4.86 -47.16,0 0,-0.18 c 1.44,-0.72 2.34,-3.78 2.34,-7.56 l 0,-38.88 -1.8,0 0,20.88 c 0,3.96 -6.12,25.74 -22.32,25.74 l -13.5,0 0,4.86 23.58,0 0,75.24 c 0,15.48 12.78,25.55998 32.04,25.55998 15.12,0 27.54,-11.51998 27.54,-25.91998 z"
         style="font-style:normal;font-variant:normal;font-weight:500;font-stretch:normal;font-size:180px;line-height:125%;font-family:FoglihtenNo07;-inkscape-font-specification:'FoglihtenNo07, Medium';text-align:start;writing-mode:lr-tb;text-anchor:start"
         id="path3380"
         inkscape:connector-curvature="0" />
    </g>
  </g>
</svg>
