<?xml version="1.0" encoding="UTF-8" standalone="no"?>
<!-- Created with Inkscape (http://www.inkscape.org/) -->

<svg
   xmlns:dc="http://purl.org/dc/elements/1.1/"
   xmlns:cc="http://creativecommons.org/ns#"
   xmlns:rdf="http://www.w3.org/1999/02/22-rdf-syntax-ns#"
   xmlns:svg="http://www.w3.org/2000/svg"
   xmlns="http://www.w3.org/2000/svg"
   xmlns:sodipodi="http://sodipodi.sourceforge.net/DTD/sodipodi-0.dtd"
   xmlns:inkscape="http://www.inkscape.org/namespaces/inkscape"
   width="140mm"
   height="70mm"
   viewBox="0 0 496.06299 248.03149"
   id="svg2"
   version="1.1"
   inkscape:version="0.91 r13725"
   sodipodi:docname="sanskrit devanagari good sanskrt.svg">
  <defs
     id="defs4" />
  <sodipodi:namedview
     id="base"
     pagecolor="#ffffff"
     bordercolor="#666666"
     borderopacity="1.0"
     inkscape:pageopacity="0.0"
     inkscape:pageshadow="2"
     inkscape:zoom="0.35"
     inkscape:cx="-283.57143"
     inkscape:cy="520"
     inkscape:document-units="px"
     inkscape:current-layer="layer1"
     showgrid="false"
     inkscape:window-width="1920"
     inkscape:window-height="1027"
     inkscape:window-x="-8"
     inkscape:window-y="-8"
     inkscape:window-maximized="1" />
  <metadata
     id="metadata7">
    <rdf:RDF>
      <cc:Work
         rdf:about="">
        <dc:format>image/svg+xml</dc:format>
        <dc:type
           rdf:resource="http://purl.org/dc/dcmitype/StillImage" />
        <dc:title></dc:title>
      </cc:Work>
    </rdf:RDF>
  </metadata>
  <g
     inkscape:label="Layer 1"
     inkscape:groupmode="layer"
     id="layer1"
     transform="translate(0,-804.33071)">
    <g
       style="font-style:normal;font-weight:normal;font-size:180px;line-height:125%;font-family:sans-serif;letter-spacing:0px;word-spacing:0px;fill:#000000;fill-opacity:1;stroke:none;stroke-width:1px;stroke-linecap:butt;stroke-linejoin:miter;stroke-opacity:1"
       id="text3336">
      <path
         d="m 154.9149,881.79297 -18.7207,0 0,99.14062 -14.50196,0 0,-46.66992 -21.708981,0 q -19.423828,0 -29.443359,-3.86719 -3.955078,2.90039 -8.964844,5.00977 7.382813,9.49219 17.314453,19.33594 9.931641,9.84375 20.917969,18.7207 l -9.667969,9.66797 q -10.019531,-8.70117 -19.77539,-18.54492 -9.75586,-9.93164 -17.226563,-18.8086 -7.470703,-8.87695 -10.986328,-14.67773 -2.109375,-3.60352 -2.900391,-6.06445 -0.703125,-2.46094 -0.703125,-5.27344 0,-2.37305 1.142578,-4.48242 1.230469,-2.19727 3.779297,-3.60352 2.636719,-1.40625 6.591797,-1.40625 4.482422,0 7.822266,2.10938 3.427734,2.02148 6.152344,5.71289 3.164062,-2.8125 4.833984,-7.82227 1.669922,-5.00976 1.669922,-11.77734 0,-5.36133 -0.878906,-9.66797 -0.878907,-4.39453 -2.109375,-7.03125 l -36.123047,0 0,-12.83203 123.486328,0 0,12.83203 z m -76.201172,39.02344 q 4.921875,0.61523 15.292969,0.61523 l 27.685543,0 0,-39.63867 -39.638668,0 q 2.988281,6.94336 2.988281,16.78711 0,14.15039 -6.328125,22.23633 z"
         style="font-style:normal;font-variant:normal;font-weight:normal;font-stretch:normal;font-size:180px;line-height:125%;font-family:'Noto Sans Devanagari';-inkscape-font-specification:'Noto Sans Devanagari, Normal';text-align:start;writing-mode:lr-tb;text-anchor:start"
         id="path3349" />
      <path
         d="m 128.98717,831.51953 q 2.63671,0 4.92187,1.40625 2.19727,1.31836 3.60352,3.7793 1.40625,2.46094 1.40625,5.27344 0,2.90039 -1.40625,5.36132 -1.49414,2.46094 -3.69141,3.7793 -2.28516,1.31836 -4.83398,1.31836 -2.63672,0 -4.83399,-1.31836 -2.28516,-1.40625 -3.69141,-3.7793 -1.40625,-2.46093 -1.40625,-5.36132 0,-2.8125 1.40625,-5.27344 1.31836,-2.46094 3.60352,-3.7793 2.28516,-1.40625 4.92188,-1.40625 z m -7.20704,37.44141 0,0 z"
         style="font-style:normal;font-variant:normal;font-weight:normal;font-stretch:normal;font-size:180px;line-height:125%;font-family:'Noto Sans Devanagari';-inkscape-font-specification:'Noto Sans Devanagari, Normal';text-align:start;writing-mode:lr-tb;text-anchor:start"
         id="path3351" />
      <path
         d="m 220.92076,934.26367 q -19.42383,0 -29.44336,-3.86719 -3.95508,2.90039 -8.96484,5.00977 7.38281,9.49219 17.31445,19.33594 9.93164,9.84375 20.91797,18.7207 l -9.66797,9.66797 q -10.01953,-8.70117 -19.77539,-18.54492 -9.75586,-9.93164 -17.22656,-18.8086 -7.47071,-8.87695 -10.98633,-14.67773 -2.10938,-3.60352 -2.90039,-6.06445 -0.70313,-2.46094 -0.70313,-5.27344 0,-2.37305 1.14258,-4.48242 1.23047,-2.19727 3.7793,-3.60352 2.63672,-1.40625 6.59179,-1.40625 4.48243,0 7.82227,2.10938 3.42773,2.02148 6.15234,5.71289 3.16407,-2.8125 4.83399,-7.82227 1.66992,-5.00976 1.66992,-11.77734 0,-5.36133 -0.87891,-9.66797 -0.8789,-4.39453 -2.10937,-7.03125 l -36.12305,0 0,-12.83203 72.59766,0 0,12.83203 -21.97266,0 q 2.98828,6.94336 2.98828,16.78711 0,14.15039 -6.32812,22.23633 4.92187,0.61523 15.29297,0.61523 l 24.16992,0 0,12.83203 -18.19336,0 z"
         style="font-style:normal;font-variant:normal;font-weight:normal;font-stretch:normal;font-size:180px;line-height:125%;font-family:'Noto Sans Devanagari';-inkscape-font-specification:'Noto Sans Devanagari, Normal';text-align:start;writing-mode:lr-tb;text-anchor:start"
         id="path3353" />
      <path
         d="m 362.16099,868.96094 0,12.83203 -58.62304,0 0,36.38672 q 4.48242,-4.39453 9.66797,-6.76758 5.18554,-2.37305 11.60156,-2.37305 7.64648,0 13.62304,3.33985 5.97657,3.25195 9.4043,9.84375 3.42774,6.59179 3.42774,15.64453 0,9.14062 -3.07618,18.54492 -2.98828,9.31641 -8.61328,17.57812 l -13.00781,-7.4707 q 4.57031,-5.80078 7.38281,-13.35937 2.8125,-7.64649 2.8125,-14.94141 0,-8.26172 -3.51562,-12.39258 -3.51563,-4.21875 -9.84375,-4.21875 -4.83399,0 -9.84375,3.33985 -5.00977,3.33984 -10.01953,9.75585 l 0,46.23047 -14.50196,0 0,-31.37695 q -6.24023,5.36133 -12.65625,7.82227 -6.32812,2.37304 -13.35937,2.37304 -8.87695,0 -16.43555,-3.6914 -7.4707,-3.69141 -11.68945,-10.72266 -4.21875,-7.11914 -4.21875,-16.61133 0,-9.40429 4.48242,-16.52344 4.48242,-7.11914 12.56836,-10.89843 8.08594,-3.86719 18.54492,-3.86719 3.51563,0 8.52539,0.52734 5.00977,0.52735 8.52539,1.31836 l -1.05468,13.09571 q -3.07618,-0.70313 -7.47071,-1.23047 -4.39453,-0.61524 -7.73437,-0.61524 -10.28321,0 -16.08399,4.7461 -5.71289,4.74609 -5.71289,13.00781 0,6.24023 2.54883,10.54687 2.54883,4.21875 6.67969,6.24024 4.13086,2.02148 8.87695,2.02148 6.50391,0 12.74414,-3.07617 6.32813,-3.07617 12.91992,-9.84375 l 0,-52.38281 -66.70898,0 0,-12.83203 139.83398,0 z m -73.125,0 0,0 z"
         style="font-style:normal;font-variant:normal;font-weight:normal;font-stretch:normal;font-size:180px;line-height:125%;font-family:'Noto Sans Devanagari';-inkscape-font-specification:'Noto Sans Devanagari, Normal';text-align:start;writing-mode:lr-tb;text-anchor:start"
         id="path3355" />
      <path
         d="m 324.54381,1022.9453 q -6.32813,3.1641 -12.12891,4.6582 -5.88867,1.4942 -11.86523,1.4942 -8.87696,0 -15.38086,-3.1641 -6.50391,-3.1641 -9.93164,-8.9649 -3.42774,-5.8007 -3.42774,-13.2714 0,-6.76761 3.60352,-12.4805 3.51562,-5.625 10.81054,-9.31641 7.20703,-3.60352 17.31446,-4.13086 l 1.31836,11.86524 q -10.01954,1.05468 -14.85352,4.83398 -4.92187,3.86719 -4.92187,10.19535 0,3.0761 1.23046,5.2734 1.23047,2.1973 3.25196,3.6035 2.02148,1.4942 4.6582,2.1094 2.54883,0.7031 5.36133,0.7031 5.00976,0 9.14062,-1.1426 4.13086,-1.0547 11.25,-4.7461 l 4.57032,12.4805 z m -35.50782,-42.01171 0,0 z"
         style="font-style:normal;font-variant:normal;font-weight:normal;font-stretch:normal;font-size:180px;line-height:125%;font-family:'Noto Sans Devanagari';-inkscape-font-specification:'Noto Sans Devanagari, Normal';text-align:start;writing-mode:lr-tb;text-anchor:start"
         id="path3357" />
      <path
         d="m 431.41881,921.87109 -19.59961,0 q -11.33789,0 -17.05078,1.23047 -5.625,1.14258 -9.14063,4.7461 -3.51562,3.60351 -3.51562,10.37109 0,5.71289 2.7246,11.07422 2.8125,5.36133 8.34961,11.16211 5.53711,5.71289 14.94141,13.27148 l -9.66797,9.4043 q -12.56836,-10.81055 -18.45703,-17.57813 -5.80078,-6.85546 -9.14062,-13.79882 -3.25196,-6.94336 -3.25196,-14.41407 0,-5.88867 2.37305,-11.25 2.46094,-5.44922 7.64648,-9.49218 5.18555,-4.04297 12.48047,-5.80079 7.38281,-1.75781 18.36914,-1.75781 l 22.93946,0 0,-27.24609 -71.98243,0 0,-12.83203 105.20508,0 0,12.83203 -18.7207,0 0,99.14062 -14.50195,0 0,-59.0625 z"
         style="font-style:normal;font-variant:normal;font-weight:normal;font-stretch:normal;font-size:180px;line-height:125%;font-family:'Noto Sans Devanagari';-inkscape-font-specification:'Noto Sans Devanagari, Normal';text-align:start;writing-mode:lr-tb;text-anchor:start"
         id="path3359" />
    </g>
    <flowRoot
       xml:space="preserve"
       id="flowRoot3340"
       style="font-style:normal;font-weight:normal;font-size:180px;line-height:125%;font-family:sans-serif;letter-spacing:0px;word-spacing:0px;fill:#000000;fill-opacity:1;stroke:none;stroke-width:1px;stroke-linecap:butt;stroke-linejoin:miter;stroke-opacity:1"><flowRegion
         id="flowRegion3342"><rect
           id="rect3344"
           width="900"
           height="502.85715"
           x="-157.14285"
           y="743.79077" /></flowRegion><flowPara
         id="flowPara3346"></flowPara></flowRoot>  </g>
</svg>
