<?xml version="1.0" encoding="UTF-8" standalone="no"?>
<!-- Created with Inkscape (http://www.inkscape.org/) -->

<svg
   xmlns:dc="http://purl.org/dc/elements/1.1/"
   xmlns:cc="http://creativecommons.org/ns#"
   xmlns:rdf="http://www.w3.org/1999/02/22-rdf-syntax-ns#"
   xmlns:svg="http://www.w3.org/2000/svg"
   xmlns="http://www.w3.org/2000/svg"
   xmlns:sodipodi="http://sodipodi.sourceforge.net/DTD/sodipodi-0.dtd"
   xmlns:inkscape="http://www.inkscape.org/namespaces/inkscape"
   width="140mm"
   height="70mm"
   viewBox="0 0 496.06299 248.03149"
   id="svg2"
   version="1.1"
   inkscape:version="0.91 r13725"
   sodipodi:docname="sanskrit devanagari bad sanskrt.svg">
  <defs
     id="defs4" />
  <sodipodi:namedview
     id="base"
     pagecolor="#ffffff"
     bordercolor="#666666"
     borderopacity="1.0"
     inkscape:pageopacity="0.0"
     inkscape:pageshadow="2"
     inkscape:zoom="0.7"
     inkscape:cx="749.20524"
     inkscape:cy="151.85894"
     inkscape:document-units="px"
     inkscape:current-layer="text3361"
     showgrid="false"
     inkscape:window-width="1920"
     inkscape:window-height="1027"
     inkscape:window-x="-8"
     inkscape:window-y="-8"
     inkscape:window-maximized="1" />
  <metadata
     id="metadata7">
    <rdf:RDF>
      <cc:Work
         rdf:about="">
        <dc:format>image/svg+xml</dc:format>
        <dc:type
           rdf:resource="http://purl.org/dc/dcmitype/StillImage" />
        <dc:title></dc:title>
      </cc:Work>
    </rdf:RDF>
  </metadata>
  <g
     inkscape:label="Layer 1"
     inkscape:groupmode="layer"
     id="layer1"
     transform="translate(0,-804.33071)">
    <flowRoot
       xml:space="preserve"
       id="flowRoot3340"
       style="font-style:normal;font-weight:normal;font-size:180px;line-height:125%;font-family:sans-serif;letter-spacing:0px;word-spacing:0px;fill:#000000;fill-opacity:1;stroke:none;stroke-width:1px;stroke-linecap:butt;stroke-linejoin:miter;stroke-opacity:1"><flowRegion
         id="flowRegion3342"><rect
           id="rect3344"
           width="900"
           height="502.85715"
           x="-157.14285"
           y="743.79077" /></flowRegion><flowPara
         id="flowPara3346"></flowPara></flowRoot>    <g
       style="font-style:normal;font-weight:normal;font-size:180px;line-height:125%;font-family:sans-serif;letter-spacing:0px;word-spacing:0px;fill:#000000;fill-opacity:1;stroke:none;stroke-width:1px;stroke-linecap:butt;stroke-linejoin:miter;stroke-opacity:1"
       id="text3361">
      <path
         d="m 131.77204,881.79303 -18.7207,0 0,99.14062 -14.50195,0 0,-46.66992 -21.708988,0 q -19.423828,0 -29.44336,-3.86718 -3.955078,2.90039 -8.964843,5.00976 7.382812,9.49219 17.314453,19.33594 9.93164,9.84375 20.917968,18.7207 l -9.667968,9.66797 Q 56.97712,974.42975 47.221261,964.586 37.465402,954.65436 29.994699,945.7774 22.523995,936.90045 19.00837,931.09967 q -2.109375,-3.60352 -2.90039,-6.06445 -0.703125,-2.46094 -0.703125,-5.27344 0,-2.37305 1.142578,-4.48242 1.230469,-2.19727 3.779297,-3.60352 2.636719,-1.40625 6.591797,-1.40625 4.482422,0 7.822265,2.10938 3.427735,2.02148 6.152344,5.71289 3.164063,-2.8125 4.833984,-7.82227 1.669922,-5.00976 1.669922,-11.77734 0,-5.36133 -0.878906,-9.66797 -0.878906,-4.39453 -2.109375,-7.03125 l -36.123047,0 0,-12.83203 123.486326,0 0,12.83203 z m -76.20117,39.02344 q 4.921875,0.61523 15.292969,0.61523 l 27.685551,0 0,-39.63867 -39.638676,0 q 2.988281,6.94336 2.988281,16.78711 0,14.15039 -6.328125,22.23633 z"
         style="font-style:normal;font-variant:normal;font-weight:normal;font-stretch:normal;font-size:180px;line-height:125%;font-family:'Noto Sans Devanagari';-inkscape-font-specification:'Noto Sans Devanagari, Normal';text-align:start;writing-mode:lr-tb;text-anchor:start"
         id="path3374"
         inkscape:connector-curvature="0" />
      <path
         d="m 105.84431,831.51959 q 2.63672,0 4.92187,1.40625 2.19727,1.31836 3.60352,3.7793 1.40625,2.46094 1.40625,5.27344 0,2.90039 -1.40625,5.36132 -1.49414,2.46094 -3.69141,3.7793 -2.28515,1.31836 -4.83398,1.31836 -2.63672,0 -4.83399,-1.31836 -2.28515,-1.40625 -3.6914,-3.7793 -1.40625,-2.46093 -1.40625,-5.36132 0,-2.8125 1.40625,-5.27344 1.31836,-2.46094 3.60351,-3.7793 2.28516,-1.40625 4.92188,-1.40625 z m -7.20703,37.44141 0,0 z"
         style="font-style:normal;font-variant:normal;font-weight:normal;font-stretch:normal;font-size:180px;line-height:125%;font-family:'Noto Sans Devanagari';-inkscape-font-specification:'Noto Sans Devanagari, Normal';text-align:start;writing-mode:lr-tb;text-anchor:start"
         id="path3376"
         inkscape:connector-curvature="0" />
      <path
         d="m 252.70954,881.79303 -18.7207,0 0,99.14062 -14.50195,0 0,-46.66992 -21.70899,0 q -19.42383,0 -29.44336,-3.86718 -3.95508,2.90039 -8.96484,5.00976 7.38281,9.49219 17.31445,19.33594 9.93164,9.84375 20.91797,18.7207 l -9.66797,9.66797 q -10.01953,-8.70117 -19.77539,-18.54492 -9.75586,-9.93164 -17.22656,-18.8086 -7.4707,-8.87695 -10.98633,-14.67773 -2.10937,-3.60352 -2.90039,-6.06445 -0.70313,-2.46094 -0.70313,-5.27344 0,-2.37305 1.14258,-4.48242 1.23047,-2.19727 3.7793,-3.60352 2.63672,-1.40625 6.5918,-1.40625 4.48242,0 7.82226,2.10938 3.42774,2.02148 6.15235,5.71289 3.16406,-2.8125 4.83398,-7.82227 1.66992,-5.00976 1.66992,-11.77734 0,-5.36133 -0.8789,-9.66797 -0.87891,-4.39453 -2.10938,-7.03125 l -36.12305,0 0,-12.83203 123.48633,0 0,12.83203 z m -76.20117,39.02344 q 4.92188,0.61523 15.29297,0.61523 l 27.68555,0 0,-39.63867 -39.63868,0 q 2.98829,6.94336 2.98829,16.78711 0,14.15039 -6.32813,22.23633 z"
         style="font-style:normal;font-variant:normal;font-weight:normal;font-stretch:normal;font-size:180px;line-height:125%;font-family:'Noto Sans Devanagari';-inkscape-font-specification:'Noto Sans Devanagari, Normal';text-align:start;writing-mode:lr-tb;text-anchor:start"
         id="path3378"
         inkscape:connector-curvature="0" />
      <path
         d="m 217.90485,988.9317 q 3.95508,-0.9668 8.61329,-0.9668 5.88867,0 11.16211,1.14258 5.27343,1.23047 10.19531,3.51563 4.92187,2.37304 9.66797,6.06445 4.83398,3.77934 9.49218,9.14064 4.7461,5.3613 10.3711,13.8867 l -10.28321,7.3828 q -6.32812,-9.9316 -12.21679,-15.9082 -5.88867,-5.9765 -12.48047,-8.9648 -6.67969,-2.9004 -14.76563,-2.9004 -4.74609,0 -7.55859,0.8789 l -2.19727,-13.2715 z m 1.66993,-7.99805 0,0 z"
         style="font-style:normal;font-variant:normal;font-weight:normal;font-stretch:normal;font-size:180px;line-height:125%;font-family:'Noto Sans Devanagari';-inkscape-font-specification:'Noto Sans Devanagari, Normal';text-align:start;writing-mode:lr-tb;text-anchor:start"
         id="path3380"
         inkscape:connector-curvature="0" />
      <path
         d="m 388.75251,868.961 0,12.83203 -58.62305,0 0,36.38672 q 4.48243,-4.39453 9.66797,-6.76758 5.18555,-2.37305 11.60157,-2.37305 7.64648,0 13.62304,3.33985 5.97656,3.25195 9.4043,9.84375 3.42773,6.59179 3.42773,15.64453 0,9.14062 -3.07617,18.54492 -2.98828,9.31641 -8.61328,17.57813 l -13.00781,-7.47071 q 4.57031,-5.80078 7.38281,-13.35937 2.8125,-7.64649 2.8125,-14.94141 0,-8.26172 -3.51562,-12.39258 -3.51563,-4.21875 -9.84375,-4.21875 -4.83399,0 -9.84375,3.33985 -5.00977,3.33984 -10.01954,9.75586 l 0,46.23046 -14.50195,0 0,-31.37695 q -6.24023,5.36133 -12.65625,7.82227 -6.32812,2.37304 -13.35937,2.37304 -8.87696,0 -16.43555,-3.6914 -7.4707,-3.69141 -11.68945,-10.72266 -4.21875,-7.11914 -4.21875,-16.61133 0,-9.40429 4.48242,-16.52343 4.48242,-7.11914 12.56836,-10.89844 8.08593,-3.86719 18.54492,-3.86719 3.51562,0 8.52539,0.52734 5.00977,0.52735 8.52539,1.31836 l -1.05469,13.09571 q -3.07617,-0.70313 -7.4707,-1.23047 -4.39453,-0.61524 -7.73438,-0.61524 -10.2832,0 -16.08398,4.7461 -5.71289,4.74609 -5.71289,13.00781 0,6.24023 2.54883,10.54688 2.54883,4.21875 6.67969,6.24023 4.13085,2.02148 8.87695,2.02148 6.5039,0 12.74414,-3.07617 6.32812,-3.07617 12.91992,-9.84375 l 0,-52.38281 -66.70898,0 0,-12.83203 139.83398,0 z m -73.125,0 0,0 z"
         style="font-style:normal;font-variant:normal;font-weight:normal;font-stretch:normal;font-size:180px;line-height:125%;font-family:'Noto Sans Devanagari';-inkscape-font-specification:'Noto Sans Devanagari, Normal';text-align:start;writing-mode:lr-tb;text-anchor:start"
         id="path3382"
         inkscape:connector-curvature="0" />
      <path
         d="m 391.4654,1022.9454 q -6.32812,3.164 -12.1289,4.6582 -5.88868,1.4941 -11.86524,1.4941 -8.87695,0 -15.38086,-3.164 -6.5039,-3.1641 -9.93164,-8.9649 -3.42773,-5.8008 -3.42773,-13.2715 0,-6.76755 3.60351,-12.48044 3.51563,-5.625 10.81055,-9.31641 7.20703,-3.60351 17.31445,-4.13086 l 1.31836,11.86524 q -10.01953,1.05468 -14.85351,4.83398 -4.92188,3.86719 -4.92188,10.19529 0,3.0762 1.23047,5.2735 1.23047,2.1972 3.25195,3.6035 2.02149,1.4941 4.65821,2.1094 2.54882,0.7031 5.36132,0.7031 5.00977,0 9.14063,-1.1426 4.13086,-1.0547 11.25,-4.7461 l 4.57031,12.4805 z m -35.50781,-42.01175 0,0 z"
         style="font-style:normal;font-variant:normal;font-weight:normal;font-stretch:normal;font-size:180px;line-height:125%;font-family:'Noto Sans Devanagari';-inkscape-font-specification:'Noto Sans Devanagari, Normal';text-align:start;writing-mode:lr-tb;text-anchor:start"
         id="path3386"
         inkscape:connector-curvature="0" />
      <path
         d="m 458.52595,921.87115 -19.59961,0 q -11.33789,0 -17.05078,1.23047 -5.625,1.14258 -9.14063,4.7461 -3.51562,3.60351 -3.51562,10.37109 0,5.71289 2.72461,11.07422 2.8125,5.36133 8.34961,11.16211 5.53711,5.71289 14.9414,13.27148 l -9.66797,9.4043 q -12.56836,-10.81055 -18.45703,-17.57812 -5.80078,-6.85547 -9.14062,-13.79883 -3.25196,-6.94336 -3.25196,-14.41407 0,-5.88867 2.37305,-11.25 2.46094,-5.44921 7.64649,-9.49218 5.18554,-4.04297 12.48046,-5.80078 7.38282,-1.75782 18.36915,-1.75782 l 22.93945,0 0,-27.24609 -71.98242,0 0,-12.83203 105.20507,0 0,12.83203 -18.7207,0 0,99.14062 -14.50195,0 0,-59.0625 z"
         style="font-style:normal;font-variant:normal;font-weight:normal;font-stretch:normal;font-size:180px;line-height:125%;font-family:'Noto Sans Devanagari';-inkscape-font-specification:'Noto Sans Devanagari, Normal';text-align:start;writing-mode:lr-tb;text-anchor:start"
         id="path3388"
         inkscape:connector-curvature="0" />
    </g>
    <flowRoot
       xml:space="preserve"
       id="flowRoot3365"
       style="fill:black;stroke:none;stroke-opacity:1;stroke-width:1px;stroke-linejoin:miter;stroke-linecap:butt;fill-opacity:1;font-family:sans-serif;font-style:normal;font-weight:normal;font-size:180px;line-height:125%;letter-spacing:0px;word-spacing:0px"><flowRegion
         id="flowRegion3367"><rect
           id="rect3369"
           width="1528.5714"
           height="508.57144"
           x="-211.42857"
           y="-109.11137" /></flowRegion><flowPara
         id="flowPara3371"></flowPara></flowRoot>  </g>
</svg>
