<?xml version="1.0" encoding="UTF-8" standalone="no"?>
<!-- Created with Inkscape (http://www.inkscape.org/) -->

<svg
   xmlns:dc="http://purl.org/dc/elements/1.1/"
   xmlns:cc="http://creativecommons.org/ns#"
   xmlns:rdf="http://www.w3.org/1999/02/22-rdf-syntax-ns#"
   xmlns:svg="http://www.w3.org/2000/svg"
   xmlns="http://www.w3.org/2000/svg"
   xmlns:sodipodi="http://sodipodi.sourceforge.net/DTD/sodipodi-0.dtd"
   xmlns:inkscape="http://www.inkscape.org/namespaces/inkscape"
   width="240mm"
   height="70mm"
   viewBox="0 0 850.3937 248.03149"
   id="svg2"
   version="1.1"
   inkscape:version="0.91 r13725"
   sodipodi:docname="sanskrit arabic good sanskriti.svg">
  <defs
     id="defs4" />
  <sodipodi:namedview
     id="base"
     pagecolor="#ffffff"
     bordercolor="#666666"
     borderopacity="1.0"
     inkscape:pageopacity="0.0"
     inkscape:pageshadow="2"
     inkscape:zoom="0.35"
     inkscape:cx="-283.57143"
     inkscape:cy="520"
     inkscape:document-units="px"
     inkscape:current-layer="layer1"
     showgrid="false"
     inkscape:window-width="1920"
     inkscape:window-height="1027"
     inkscape:window-x="-8"
     inkscape:window-y="-8"
     inkscape:window-maximized="1" />
  <metadata
     id="metadata7">
    <rdf:RDF>
      <cc:Work
         rdf:about="">
        <dc:format>image/svg+xml</dc:format>
        <dc:type
           rdf:resource="http://purl.org/dc/dcmitype/StillImage" />
        <dc:title></dc:title>
      </cc:Work>
    </rdf:RDF>
  </metadata>
  <g
     inkscape:label="Layer 1"
     inkscape:groupmode="layer"
     id="layer1"
     transform="translate(0,-804.33071)">
    <g
       style="font-style:normal;font-weight:normal;font-size:180px;line-height:125%;font-family:sans-serif;letter-spacing:0px;word-spacing:0px;fill:#000000;fill-opacity:1;stroke:none;stroke-width:1px;stroke-linecap:butt;stroke-linejoin:miter;stroke-opacity:1"
       id="text3336">
      <path
         d="m 708.48772,974.51898 q -3.77929,5.18555 -8.70117,8.08594 -6.67969,4.04297 -15.38086,4.04297 l -11.42578,0 0,-16.17188 6.5918,0 q 8.70117,0 12.56836,-3.86718 7.03125,-7.03125 7.03125,-15.82032 l 0,-16.875 16.17187,0 0,13.71094 q 0,5.625 3.86719,14.41406 3.7793,8.70118 12.91992,8.70118 9.58008,0 13.44727,-10.72266 3.25195,-9.05274 3.25195,-26.10352 l 16.17187,0 q 0,18.01758 1.66993,22.41211 5.625,14.94141 15.29297,14.85352 12.48046,-0.17578 12.48046,-24.60938 l 0,-25.83984 16.17188,0 0,30.05859 q 0,17.49024 -8.08594,27.42188 -6.5918,8.08594 -15.55664,10.19531 -3.25195,0.79102 -6.32812,0.79102 -5.53711,0 -10.3711,-2.19727 -12.04101,-5.36133 -13.62304,-16.96289 -4.21875,13.71094 -12.65625,16.61133 -5.97657,2.10937 -11.68946,2.10937 -8.61328,0 -14.9414,-4.30664 -5.27344,-3.51562 -8.87696,-9.93164 z"
         style=""
         id="path3341" />
      <path
         d="m 639.93304,898.75726 13.18359,0 0,13.1836 -13.18359,0 0,-13.1836 z m 6.59179,80.33203 q -6.76758,7.5586 -20.12695,7.5586 l -7.91016,0 0,-16.17188 3.07617,0 q 8.70118,0 12.56836,-3.86718 4.30664,-4.30664 4.30664,-13.62305 l 0,-19.07227 16.17188,0 0,19.07227 q 0,9.31641 4.30664,13.62305 3.86719,3.86718 12.56836,3.86718 l 4.83398,0 0,16.17188 -9.66796,0 q -13.1836,0 -20.12696,-7.5586 z"
         style=""
         id="path3343" />
      <path
         d="m 571.8178,988.4057 q -3.25195,0.79102 -6.32812,0.79102 -5.53711,0 -10.3711,-2.19727 -12.04101,-5.36133 -13.62304,-16.96289 -4.21875,13.71094 -12.65625,16.61133 -5.97657,2.10937 -11.68946,2.10937 -8.61328,0 -14.9414,-4.30664 -5.27344,-3.51562 -8.87696,-9.93164 -3.77929,5.18555 -8.70117,8.08594 -6.67969,4.04297 -15.38086,4.04297 l -11.42578,0 0,-16.17188 6.5918,0 q 8.70117,0 12.56836,-3.86718 7.03125,-7.03125 7.03125,-15.82032 l 0,-16.875 16.17187,0 0,13.71094 q 0,5.625 3.86719,14.41406 3.7793,8.70118 12.91992,8.70118 9.58008,0 13.44727,-10.72266 3.25195,-9.05274 3.25195,-26.10352 l 16.17187,0 q 0,18.01758 1.66993,22.41211 5.625,14.94141 15.29297,14.85352 12.48046,-0.17578 12.48046,-24.60938 l 0,-25.83984 16.17188,0 0,30.05859 q 0,8.52539 7.29492,15.82032 3.86719,3.86718 12.56836,3.86718 l 6.5918,0 0,16.17188 -11.42578,0 q -12.74414,0 -23.11524,-8.4375 -5.97656,7.91015 -15.55664,10.19531 z"
         style=""
         id="path3345" />
      <path
         d="m 387.33538,986.64789 -29.00391,0 0,-16.17188 27.2461,0 q 13.00781,0 16.96289,-9.14062 1.40625,-3.16406 1.40625,-6.32813 0,-6.06445 -4.7461,-11.86523 l -27.24609,-33.39844 q -4.39453,-5.36133 -4.39453,-12.48047 0,-3.07617 0.8789,-5.97656 2.72461,-10.37109 11.86524,-14.15039 l 65.47851,-27.24609 0,16.34765 -52.29492,21.97266 q -6.24023,2.63672 -8.08593,6.15234 -0.52735,0.9668 -0.52735,3.16406 0,2.8125 2.72461,6.06446 l 51.24024,61.96289 q 1.93359,2.28515 5.27343,3.51562 3.7793,1.40625 9.4043,1.40625 l 7.73437,0 0,16.17188 -11.60156,0 q -5.71289,0 -10.81054,-2.10938 -9.05274,-3.77929 -11.95313,-7.38281 l -8.52539,-10.54687 q -1.8457,4.04296 -3.33984,6.41601 -8.34961,13.62305 -27.68555,13.62305 z"
         style=""
         id="path3347" />
      <path
         d="m 316.14397,938.30804 16.17188,0 q 2.63672,9.84375 2.90039,12.48047 0.8789,9.05274 7.29492,15.82032 3.69141,3.86718 12.56836,3.86718 l 6.5918,0 0,16.17188 -11.42578,0 q -11.42579,0 -15.82032,-5.44922 -5.97656,24.43363 -28.03711,36.12303 -24.96093,13.2715 -53.26172,13.2715 l 0,-16.1719 q 26.71875,0 44.56055,-11.25 19.16016,-12.12888 22.23633,-30.41013 0.87891,-5.09766 0.87891,-11.42578 0,-11.07422 -4.65821,-23.02735 z"
         style=""
         id="path3349" />
      <path
         d="m 236.60296,979.08929 q -6.32813,7.5586 -20.12696,7.5586 l -7.91015,0 0,-16.17188 3.07617,0 q 8.70117,0 12.56836,-3.86718 4.30664,-4.30664 4.30664,-13.62305 l 0,-19.07227 16.17187,0 0,19.07227 q 0,16.43555 -8.08593,26.10351 z m 4.39453,20.74219 13.18359,0 0,13.18362 -13.18359,0 0,-13.18362 z m -21.97266,0 13.1836,0 0,13.18362 -13.1836,0 0,-13.18362 z"
         style=""
         id="path3351" />
      <path
         d="m 182.11077,979.08929 q -6.76758,7.5586 -20.12695,7.5586 l -7.91016,0 0,-16.17188 3.07617,0 q 8.70117,0 12.56836,-3.86718 4.30664,-4.30664 4.30664,-13.62305 l 0,-19.07227 16.17188,0 0,19.07227 q 0,9.31641 4.30664,13.62305 3.86719,3.86718 12.56836,3.86718 l 4.83398,0 0,16.17188 -9.66797,0 q -13.18359,0 -20.12695,-7.5586 z m 4.39453,-80.33203 13.18359,0 0,13.1836 -13.18359,0 0,-13.1836 z m -21.97266,0 13.1836,0 0,13.1836 -13.1836,0 0,-13.1836 z"
         style=""
         id="path3353" />
      <path
         d="m 71.632254,1017.4096 13.183594,0 0,13.1836 -13.183594,0 0,-13.1836 z m -21.972656,0 13.183594,0 0,13.1836 -13.183594,0 0,-13.1836 z m 52.734372,-27.86132 q 7.99805,-4.48242 7.99805,-7.38281 -0.0879,-3.7793 -4.21875,-4.92188 -2.54883,-0.70312 -5.18555,-4.21875 -3.867185,-5.18555 -3.867185,-10.54687 0,-5.71289 4.570315,-10.98633 7.03125,-8.26172 14.41406,-9.49219 2.63672,-0.52734 6.32813,-0.52734 10.2832,0 17.92968,11.77734 11.25,17.22656 14.0625,17.22656 l 3.07617,0 0,16.17188 -3.07617,0 q -10.01953,0 -19.86328,-15.11719 -9.49219,-14.50195 -11.77734,-14.50195 -3.16406,0 -4.48242,0.52734 -3.95508,1.49414 -3.95508,4.57031 0,4.21875 5.71289,6.5918 6.41601,2.63672 6.67969,13.44727 0.26367,8.61328 -9.66797,16.17187 -11.25,8.43746 -30.410159,11.16216 -7.822266,1.0546 -16.962891,1.0546 -16.523437,0 -26.80664,-3.6035 -25.751953,-9.05271 -25.751953,-32.08006 0,-13.44726 5.537109,-21.35742 l 16.171875,0 q -5.712891,7.91016 -5.712891,21.35742 0,10.01954 14.589844,16.875 5.800781,2.72461 21.533203,2.72461 7.998047,0 14.765625,-0.70312 13.095703,-1.31836 18.369138,-4.21875 z"
         style=""
         id="path3355" />
    </g>
  </g>
</svg>
