<?xml version="1.0" encoding="UTF-8" standalone="no"?>
<!-- Created with Inkscape (http://www.inkscape.org/) -->

<svg
   xmlns:dc="http://purl.org/dc/elements/1.1/"
   xmlns:cc="http://creativecommons.org/ns#"
   xmlns:rdf="http://www.w3.org/1999/02/22-rdf-syntax-ns#"
   xmlns:svg="http://www.w3.org/2000/svg"
   xmlns="http://www.w3.org/2000/svg"
   xmlns:sodipodi="http://sodipodi.sourceforge.net/DTD/sodipodi-0.dtd"
   xmlns:inkscape="http://www.inkscape.org/namespaces/inkscape"
   width="350mm"
   height="70mm"
   viewBox="0 0 1240.1575 248.03149"
   id="svg2"
   version="1.1"
   inkscape:version="0.91 r13725"
   sodipodi:docname="sanskrit arabic bad sanskriti.svg">
  <defs
     id="defs4" />
  <sodipodi:namedview
     id="base"
     pagecolor="#ffffff"
     bordercolor="#666666"
     borderopacity="1.0"
     inkscape:pageopacity="0.0"
     inkscape:pageshadow="2"
     inkscape:zoom="0.7"
     inkscape:cx="813.90317"
     inkscape:cy="205.56699"
     inkscape:document-units="px"
     inkscape:current-layer="text3357"
     showgrid="false"
     inkscape:window-width="1920"
     inkscape:window-height="1027"
     inkscape:window-x="-8"
     inkscape:window-y="-8"
     inkscape:window-maximized="1" />
  <metadata
     id="metadata7">
    <rdf:RDF>
      <cc:Work
         rdf:about="">
        <dc:format>image/svg+xml</dc:format>
        <dc:type
           rdf:resource="http://purl.org/dc/dcmitype/StillImage" />
        <dc:title></dc:title>
      </cc:Work>
    </rdf:RDF>
  </metadata>
  <g
     inkscape:label="Layer 1"
     inkscape:groupmode="layer"
     id="layer1"
     transform="translate(0,-804.33071)">
    <g
       style="font-style:normal;font-weight:normal;font-size:180px;line-height:125%;font-family:sans-serif;letter-spacing:0px;word-spacing:0px;fill:#000000;fill-opacity:1;stroke:none;stroke-width:1px;stroke-linecap:butt;stroke-linejoin:miter;stroke-opacity:1"
       id="text3357">
      <path
         d="m 1106.3683,962.495 q -2.1094,15.73242 -9.4922,25.13671 -11.6895,14.94139 -28.6523,20.39059 -7.0313,2.2852 -17.5782,2.2852 -11.25,-0.088 -20.83,-2.5488 -24.17,-6.2403 -24.17,-35.06839 0,-21.6211 9.2285,-37.44141 l 16.1719,0 q -9.4922,18.10547 -9.4043,37.44141 0.088,15.73242 13.0078,19.07229 8.3496,2.1093 15.4688,2.1093 8.6133,0 16.9629,-3.2519 10.6347,-4.21875 18.8965,-18.10547 5.625,-9.49219 5.5371,-21.97266 -0.088,-10.98633 -1.4942,-16.34766 l -5.625,-20.5664 16.1719,0 3.1641,13.71094 q 1.4062,6.5039 3.8672,11.77734 5.1855,11.33789 15.2929,11.33789 7.2071,0 11.0742,-10.72266 3.252,-9.05273 3.252,-26.10351 l 16.1719,0 q 0,18.01758 1.6699,22.41211 5.625,14.85351 15.293,14.85351 12.4804,0 12.4804,-24.60937 l 0,-25.83985 16.1719,0 0,30.0586 q 0,17.49023 -8.0859,27.42187 -6.5918,8.08594 -15.5567,10.19532 -3.2519,0.79101 -6.0644,0.79101 -6.416,0 -10.6348,-2.19726 -12.1289,-6.15235 -13.623,-16.9629 -4.3067,13.97461 -12.6563,16.61133 -4.3945,1.31836 -10.5469,1.58203 -11.6015,0.52735 -15.4687,-5.44921 z"
         id="path3362"
         inkscape:connector-curvature="0" />
      <path
         d="m 987.55581,938.94031 q 0,15.20508 -8.7891,30.84961 -9.6679,17.31445 -31.5527,23.29098 -8.5254,2.3731 -15.5566,2.3731 -11.6016,0 -21.1817,-3.252 -28.8281,-9.31638 -28.8281,-40.60544 0,-20.6543 4.1308,-27.77344 l 16.1719,0 q -4.3066,12.65625 -4.3066,27.77344 0,20.83008 17.666,25.40039 8.1738,2.10937 16.3477,2.10937 6.6796,0 12.9199,-1.75781 16.9629,-4.6582 23.6426,-24.16992 2.9882,-8.61328 2.9882,-17.05078 0,-16.17188 -8.9648,-35.6836 l 16.1719,0 q 9.1406,13.71094 9.1406,38.4961 z m -68.291,-56.07422 13.1836,0 0,13.18359 -13.1836,0 0,-13.18359 z"
         id="path3364"
         inkscape:connector-curvature="0" />
      <path
         d="m 765.84491,962.495 q -2.1094,15.73242 -9.4922,25.13671 -11.6895,14.94139 -28.6524,20.39059 -7.0312,2.2852 -17.5781,2.2852 -11.25,-0.088 -20.8301,-2.5488 -24.16991,-6.2403 -24.16991,-35.06839 0,-21.6211 9.22852,-37.44141 l 16.17189,0 q -9.4922,18.10547 -9.4043,37.44141 0.088,15.73242 13.0078,19.07229 8.3496,2.1093 15.4688,2.1093 8.6132,0 16.9628,-3.2519 10.6348,-4.21875 18.8965,-18.10547 5.625,-9.49219 5.5371,-21.97266 -0.088,-10.98633 -1.4941,-16.34766 l -5.625,-20.5664 16.1719,0 3.164,13.71094 q 1.4063,6.5039 3.8672,11.77734 5.1856,11.33789 15.293,11.33789 7.207,0 11.0742,-10.72266 3.252,-9.05273 3.252,-26.10351 l 16.1718,0 q 0,18.01758 1.67,22.41211 5.625,14.85351 15.2929,14.85351 12.4805,0 12.4805,-24.60937 l 0,-25.83985 16.1719,0 0,30.0586 q 0,17.49023 -8.086,27.42187 -6.5918,8.08594 -15.5566,10.19532 -3.252,0.79101 -6.0645,0.79101 -6.416,0 -10.6347,-2.19726 -12.1289,-6.15235 -13.6231,-16.9629 -4.3066,13.97461 -12.6562,16.61133 -4.3946,1.31836 -10.5469,1.58203 -11.6016,0.52735 -15.4687,-5.44921 z"
         id="path3366"
         inkscape:connector-curvature="0" />
      <path
         d="m 603.81361,866.60632 0,7.20703 q -6.50391,0.35157 -9.84375,1.58204 -7.03125,2.63671 -7.03125,5.53711 0,2.46093 1.23047,4.04296 1.05469,1.40625 7.03125,2.28516 8.96484,1.31836 8.96484,9.05273 0,9.66797 -7.73437,13.35938 -7.20703,3.42773 -14.0625,3.42773 -5.80078,0 -10.72266,-0.96679 l 0,-7.73438 q 5.97656,0.87891 9.93164,0.87891 5.27344,0 10.28321,-2.28516 5.27343,-2.28515 5.27343,-4.92187 0,-3.33985 -6.85547,-4.83399 -6.5039,-1.40625 -8.08593,-3.86718 -2.8125,-4.13086 -2.72461,-8.17383 0.17578,-7.11914 6.76758,-10.45899 7.4707,-3.77929 17.57812,-4.13086 z m 21.35742,75.0586 q 6.67969,-6.41602 6.67969,-29.00391 l 0,-83.05664 16.17188,0 0,83.05664 q 0,28.74024 -9.66797,39.55078 -13.09571,14.67774 -32.51953,17.40235 -11.95313,1.66992 -22.32422,1.58203 -18.19336,-0.17578 -27.07032,-2.8125 -25.75195,-7.73438 -25.75195,-24.87305 0,-6.5918 1.40625,-11.25 l 16.17188,0 q -1.23047,5.09766 -1.23047,8.96484 0.17578,8.08594 14.23828,12.12891 10.63476,3.07617 21.79687,3.07617 12.30469,0 20.12696,-2.37304 13.35937,-4.13086 21.97265,-12.39258 z"
         id="path3368"
         inkscape:connector-curvature="0" />
      <path
         d="m 495.21791,952.47546 q 0.8789,-5.09765 0.8789,-11.42578 0,-11.07422 -4.6582,-23.02734 l 16.17188,0 q 4.39453,10.37109 4.39453,21.97266 0,7.20703 -0.70313,12.65625 -4.04297,30.76171 -29.61914,44.38475 -24.96094,13.2715 -53.26172,13.2715 l 0,-16.1719 q 26.71875,0 44.56055,-11.24998 19.16016,-12.12891 22.23633,-30.41016 z"
         id="path3370"
         inkscape:connector-curvature="0" />
      <path
         d="m 421.66908,965.3075 q -8.96484,14.9414 -39.11133,21.35742 -15.55664,3.33988 -26.10351,3.33988 -11.33789,0 -17.66602,-2.2852 -25.75195,-9.14062 -25.75195,-32.08007 0,-10.28321 5.53711,-20.21485 l 16.17187,0 q -5.80078,11.51367 -5.71289,20.21485 0.17578,12.91992 14.58984,16.875 8.5254,2.28515 13.88672,1.75781 11.07422,-0.9668 22.41211,-3.07617 15.55664,-2.90039 22.93946,-9.93164 5.18554,-4.92188 5.18554,-9.58008 0,-6.50391 -11.07422,-9.05274 -5.80078,-1.31836 -15.82031,-5.36132 -5.88867,-2.37305 -10.98633,-6.85547 -5.625,-5.00977 -5.71289,-15.11719 0,-13.18359 16.69922,-19.6875 8.34961,-3.25195 17.49024,-3.25195 9.14062,0 17.57812,3.6914 12.39258,5.36133 14.76563,20.56641 l -16.17188,0 q -1.14258,-5.36133 -6.94336,-8.26172 -3.51562,-1.75781 -9.58008,-1.93359 -6.85547,-0.17578 -12.30468,3.25195 -5.27344,3.33984 -5.27344,6.32812 0,4.83399 10.98633,8.5254 21.79687,7.29492 26.80664,12.91992 6.76758,7.4707 6.94336,15.29297 0.0879,5.97656 -3.7793,12.56836 z m -54.14063,31.8164 13.1836,0 0,13.1836 -13.1836,0 0,-13.1836 z m -21.97265,0 13.18359,0 0,13.1836 -13.18359,0 0,-13.1836 z"
         id="path3372"
         inkscape:connector-curvature="0" />
      <path
         d="m 303.18861,907.56335 q 1.31836,7.91016 1.31836,14.0625 0,11.86524 -6.67969,20.74219 -11.25,15.0293 -39.11133,20.6543 -25.04882,5.09766 -41.30859,5.09766 -16.78711,0 -28.125,-3.33985 -29.00391,-8.52539 -29.00391,-32.08008 0,-12.1289 5.53711,-20.21484 l 16.17188,0 q -5.71289,8.26172 -5.71289,20.21484 0,10.98633 17.8418,16.875 9.14062,2.98828 22.4121,2.98828 16.25977,0 39.55079,-5.00976 22.41211,-4.74609 28.30078,-14.67774 4.83398,-8.17382 4.83398,-14.76562 0,-5.18555 -2.19726,-10.54688 l 16.17187,0 z m -70.83984,-11.51367 13.18359,0 0,13.1836 -13.18359,0 0,-13.1836 z m -21.97266,0 13.18359,0 0,13.1836 -13.18359,0 0,-13.1836 z"
         id="path3374"
         inkscape:connector-curvature="0" />
      <path
         d="m 134.63002,965.3075 q -8.96485,14.9414 -39.111327,21.35742 -15.556641,3.33988 -26.103516,3.33988 -11.33789,0 -17.666015,-2.2852 -25.751954,-9.14062 -25.751954,-32.08007 0,-10.28321 5.53711,-20.21485 l 16.171875,0 q -5.800781,11.51367 -5.712891,20.21485 0.175781,12.91992 14.589844,16.875 8.525391,2.28515 13.886719,1.75781 11.074218,-0.9668 22.412109,-3.07617 15.556646,-2.90039 22.939446,-9.93164 5.18555,-4.92188 5.18555,-9.58008 0,-6.50391 -11.07421,-9.05274 -5.80079,-1.31836 -15.820317,-5.36132 -5.888672,-2.37305 -10.986328,-6.85547 -5.625,-5.00977 -5.712891,-15.11719 0,-13.18359 16.699219,-19.6875 8.349607,-3.25195 17.490237,-3.25195 9.14062,0 17.57812,3.6914 12.39258,5.36133 14.76562,20.56641 l -16.17187,0 q -1.14258,-5.36133 -6.94336,-8.26172 -3.51563,-1.75781 -9.58007,-1.93359 -6.85547,-0.17578 -12.304693,3.25195 -5.273437,3.33984 -5.273437,6.32812 0,4.83399 10.98633,8.5254 21.79687,7.29492 26.80663,12.91992 6.76758,7.4707 6.94336,15.29297 0.0879,5.97656 -3.77929,12.56836 z m -54.140624,31.8164 13.183594,0 0,13.1836 -13.183594,0 0,-13.1836 z m -21.972656,0 13.183593,0 0,13.1836 -13.183593,0 0,-13.1836 z"
         id="path3376"
         inkscape:connector-curvature="0" />
    </g>
  </g>
</svg>
