<?xml version="1.0" encoding="UTF-8" standalone="no"?>
<!-- Created with Inkscape (http://www.inkscape.org/) -->

<svg
   xmlns:dc="http://purl.org/dc/elements/1.1/"
   xmlns:cc="http://creativecommons.org/ns#"
   xmlns:rdf="http://www.w3.org/1999/02/22-rdf-syntax-ns#"
   xmlns:svg="http://www.w3.org/2000/svg"
   xmlns="http://www.w3.org/2000/svg"
   xmlns:sodipodi="http://sodipodi.sourceforge.net/DTD/sodipodi-0.dtd"
   xmlns:inkscape="http://www.inkscape.org/namespaces/inkscape"
   width="180mm"
   height="60mm"
   viewBox="0 0 637.79528 212.59842"
   id="svg2"
   version="1.1"
   inkscape:version="0.91 r13725"
   sodipodi:docname="latin writer without.svg">
  <defs
     id="defs4" />
  <sodipodi:namedview
     id="base"
     pagecolor="#ffffff"
     bordercolor="#666666"
     borderopacity="1.0"
     inkscape:pageopacity="0.0"
     inkscape:pageshadow="2"
     inkscape:zoom="0.7"
     inkscape:cx="1002.3438"
     inkscape:cy="74.778832"
     inkscape:document-units="px"
     inkscape:current-layer="layer1"
     showgrid="false"
     inkscape:window-width="1920"
     inkscape:window-height="1027"
     inkscape:window-x="-8"
     inkscape:window-y="-8"
     inkscape:window-maximized="1" />
  <metadata
     id="metadata7">
    <rdf:RDF>
      <cc:Work
         rdf:about="">
        <dc:format>image/svg+xml</dc:format>
        <dc:type
           rdf:resource="http://purl.org/dc/dcmitype/StillImage" />
        <dc:title></dc:title>
      </cc:Work>
    </rdf:RDF>
  </metadata>
  <g
     inkscape:label="Layer 1"
     inkscape:groupmode="layer"
     id="layer1"
     transform="translate(0,-839.76378)">
    <g
       style="font-style:normal;font-weight:normal;font-size:180px;line-height:125%;font-family:sans-serif;letter-spacing:0px;word-spacing:0px;fill:#000000;fill-opacity:1;stroke:none;stroke-width:1px;stroke-linecap:butt;stroke-linejoin:miter;stroke-opacity:1"
       id="text3349">
      <path
         d="m 95.139999,927.69372 0.18,0.9 -22.14,73.43998 c -1.26,3.78 -1.26,5.94 -1.26,6.48 l -1.8,0 c 0,-2.52 -0.9,-5.94 -1.08,-6.48 l -30.24,-76.85998 c -0.72,-2.52 -1.26,-5.04 -1.26,-7.74 l 0,-2.52 -25.92,0 0,1.62 2.7,0 c 6.12,0 7.02,2.7 10.44,11.16 l 35.82,94.85998 10.08,-0.72 26.28,-87.65998 26.640001,88.37998 10.08,-0.9 35.82,-93.95998 c 2.52,-7.02 4.14,-11.16 9.9,-11.16 l 2.7,0 0,-1.62 -30.6,0 0,1.62 6.84,0 c 6.12,0 8.82,1.98 8.82,5.76 0,1.44 -0.36,3.24 -1.08,5.22 l -28.62,73.97998 c -1.44,3.42 -1.62,5.58 -1.62,7.02 l -2.52,0 c 0,-1.26 -0.18,-3.24 -1.08,-6.48 l -23.04,-76.85998 c -0.9,-3.24 -3.06,-7.38 -5.58,-8.28 l 0,-0.36 17.1,0 0,-1.62 -40.320001,0 0,1.62 4.14,0 c 6.48,0 8.1,2.7 10.62,11.16 z"
         style="font-style:normal;font-variant:normal;font-weight:500;font-stretch:normal;font-family:FoglihtenNo07;-inkscape-font-specification:'FoglihtenNo07 Medium'"
         id="path3354" />
      <path
         d="m 202.75187,1009.7737 c 0,6.48 -3.24,9.54 -9.54,9.54 l -6.3,0 0,1.62 50.94,0 0,-1.44 -11.34,0 c -6.3,0 -9.72,-3.24 -9.72,-9.54 l 0,-41.57998 c 0,-30.24 12.24,-50.4 30.42,-50.4 l 0,0.18 c -0.72,1.08 -1.26,2.52 -1.26,4.14 0,4.32 3.78,8.1 8.1,8.1 4.32,0 7.92,-3.78 7.92,-8.1 0,-3.6 -2.34,-6.48 -5.4,-7.56 -2.88,-1.08 -5.94,-1.44 -9.36,-1.44 -14.94,0 -27.36,12.96 -32.04,35.1 l -1.44,0 0,-0.36 c 0.72,-2.52 1.44,-10.44 1.44,-16.56 l 0,-23.58 -1.44,0 0,0.72 c 0,7.38 -7.38,11.7 -14.58,13.14 l -13.86,2.88 0.18,1.08 10.62,-0.9 c 0.18,0 0.36,0 0.54,0 3.6,0 6.12,2.7 6.12,5.76 l 0,79.19998 z"
         style="font-style:normal;font-variant:normal;font-weight:500;font-stretch:normal;font-family:FoglihtenNo07;-inkscape-font-specification:'FoglihtenNo07 Medium'"
         id="path3356" />
      <path
         d="m 289.70594,876.93372 c -5.04,0 -8.1,3.24 -8.1,7.92 0,5.04 3.42,8.1 8.1,8.1 5.04,0 7.92,-3.42 7.92,-8.1 0,-5.04 -3.24,-7.92 -7.92,-7.92 z m -7.02,122.58 c 0,12.95998 8.82,23.39998 19.44,23.39998 9.9,0 16.56,-6.3 16.56,-15.84 0,-1.98 -0.36,-3.96 -1.08,-5.94 l -1.44,0.72 c 0.54,1.62 0.9,3.42 0.9,5.22 0,6.48 -4.32,10.62 -10.44,10.62 -6.3,0 -11.7,-4.86 -11.7,-10.98 0,-2.16 0.54,-4.68 1.8,-7.37998 l 0,-74.16 0,-15.3 -1.44,0 0,0.72 c 0,7.38 -9,9.54 -16.2,9.54 l -9.9,0 0,1.62 8.1,0 c 3.42,0 5.4,1.98 5.4,5.4 l 0,72.36 z"
         style="font-style:normal;font-variant:normal;font-weight:500;font-stretch:normal;font-family:FoglihtenNo07;-inkscape-font-specification:'FoglihtenNo07 Medium'"
         id="path3358" />
      <path
         d="m 404.64192,996.45372 c 0,-15.66 -13.32,-28.44 -29.34,-28.44 l -3.6,0 c 0,4.32 3.6,7.74 8.1,7.74 11.88,0 21.6,9.36 21.6,20.7 0,12.59998 -10.98,22.67998 -24.3,22.67998 -10.8,0 -18,-7.02 -18,-17.64 l 0,-79.91998 44.82,0 0,-4.86 -47.16,0 0,-0.18 c 1.44,-0.72 2.34,-3.78 2.34,-7.56 l 0,-38.88 -1.8,0 0,20.88 c 0,3.96 -6.12,25.74 -22.32,25.74 l -13.5,0 0,4.86 23.58,0 0,75.24 c 0,15.47998 12.78,25.55998 32.04,25.55998 15.12,0 27.54,-11.52 27.54,-25.91998 z"
         style="font-style:normal;font-variant:normal;font-weight:500;font-stretch:normal;font-family:FoglihtenNo07;-inkscape-font-specification:'FoglihtenNo07 Medium'"
         id="path3360"
         inkscape:connector-curvature="0" />
      <path
         d="m 465.22924,961.89372 49.32,0.54 c 3.06,0 5.58,-2.16 5.58,-5.22 l 0,-0.9 c 0,-25.56 -19.08,-42.84 -47.7,-42.84 -30.24,0 -54.72,24.12 -54.72,54 0,32.93998 21.6,54.89998 54.18,54.89998 22.5,0 39.78,-10.44 48.42,-27.89998 l -2.88,-1.8 c -7.92,16.55998 -24.3,26.45998 -45.54,26.45998 -21.42,0 -38.88,-24.29998 -38.88,-54.53998 0,-28.62 15.48,-47.88 38.7,-47.88 19.98,0 33.48,15.84 33.48,39.6 0,1.08 -0.36,1.62 -1.44,1.62 l -38.52,0 c -11.88,0 -21.24,8.46 -21.24,18.72 0,4.5 3.42,8.1 7.74,8.1 l 0,-10.26 c 0,-7.02 5.94,-12.6 13.5,-12.6 z"
         style="font-style:normal;font-variant:normal;font-weight:500;font-stretch:normal;font-family:FoglihtenNo07;-inkscape-font-specification:'FoglihtenNo07 Medium'"
         id="path3362"
         inkscape:connector-curvature="0" />
      <path
         d="m 547.19942,1009.7737 c 0,6.48 -3.24,9.54 -9.54,9.54 l -6.3,0 0,1.62 50.94,0 0,-1.44 -11.34,0 c -6.3,0 -9.72,-3.24 -9.72,-9.54 l 0,-41.57998 c 0,-30.24 12.24,-50.4 30.42,-50.4 l 0,0.18 c -0.72,1.08 -1.26,2.52 -1.26,4.14 0,4.32 3.78,8.1 8.1,8.1 4.32,0 7.92,-3.78 7.92,-8.1 0,-3.6 -2.34,-6.48 -5.4,-7.56 -2.88,-1.08 -5.94,-1.44 -9.36,-1.44 -14.94,0 -27.36,12.96 -32.04,35.1 l -1.44,0 0,-0.36 c 0.72,-2.52 1.44,-10.44 1.44,-16.56 l 0,-23.58 -1.44,0 0,0.72 c 0,7.38 -7.38,11.7 -14.58,13.14 l -13.86,2.88 0.18,1.08 10.62,-0.9 c 0.18,0 0.36,0 0.54,0 3.6,0 6.12,2.7 6.12,5.76 l 0,79.19998 z"
         style="font-style:normal;font-variant:normal;font-weight:500;font-stretch:normal;font-family:FoglihtenNo07;-inkscape-font-specification:'FoglihtenNo07 Medium'"
         id="path3364"
         inkscape:connector-curvature="0" />
    </g>
  </g>
</svg>
