<?xml version="1.0" encoding="UTF-8" standalone="no"?>
<!-- Created with Inkscape (http://www.inkscape.org/) -->

<svg
   xmlns:dc="http://purl.org/dc/elements/1.1/"
   xmlns:cc="http://creativecommons.org/ns#"
   xmlns:rdf="http://www.w3.org/1999/02/22-rdf-syntax-ns#"
   xmlns:svg="http://www.w3.org/2000/svg"
   xmlns="http://www.w3.org/2000/svg"
   xmlns:sodipodi="http://sodipodi.sourceforge.net/DTD/sodipodi-0.dtd"
   xmlns:inkscape="http://www.inkscape.org/namespaces/inkscape"
   width="210mm"
   height="70mm"
   viewBox="0 0 744.09449 248.03149"
   id="svg2"
   version="1.1"
   inkscape:version="0.91 r13725"
   sodipodi:docname="writer gurmukhi bad likhaari.svg">
  <defs
     id="defs4" />
  <sodipodi:namedview
     id="base"
     pagecolor="#ffffff"
     bordercolor="#666666"
     borderopacity="1.0"
     inkscape:pageopacity="0.0"
     inkscape:pageshadow="2"
     inkscape:zoom="0.35"
     inkscape:cx="1356.7542"
     inkscape:cy="634.28571"
     inkscape:document-units="px"
     inkscape:current-layer="layer1"
     showgrid="false"
     inkscape:window-width="1920"
     inkscape:window-height="1027"
     inkscape:window-x="-8"
     inkscape:window-y="-8"
     inkscape:window-maximized="1" />
  <metadata
     id="metadata7">
    <rdf:RDF>
      <cc:Work
         rdf:about="">
        <dc:format>image/svg+xml</dc:format>
        <dc:type
           rdf:resource="http://purl.org/dc/dcmitype/StillImage" />
        <dc:title></dc:title>
      </cc:Work>
    </rdf:RDF>
  </metadata>
  <g
     inkscape:label="Layer 1"
     inkscape:groupmode="layer"
     id="layer1"
     transform="translate(0,-804.33071)">
    <flowRoot
       xml:space="preserve"
       id="flowRoot3353"
       style="fill:black;stroke:none;stroke-opacity:1;stroke-width:1px;stroke-linejoin:miter;stroke-linecap:butt;fill-opacity:1;font-family:sans-serif;font-style:normal;font-weight:normal;font-size:180px;line-height:125%;letter-spacing:0px;word-spacing:0px"><flowRegion
         id="flowRegion3355"><rect
           id="rect3357"
           width="1080"
           height="682.85712"
           x="-34.285713"
           y="-257.6828" /></flowRegion><flowPara
         id="flowPara3359"></flowPara></flowRoot>    <g
       style="font-style:normal;font-weight:normal;font-size:180px;line-height:125%;font-family:sans-serif;letter-spacing:0px;word-spacing:0px;fill:#000000;fill-opacity:1;stroke:none;stroke-width:1px;stroke-linecap:butt;stroke-linejoin:miter;stroke-opacity:1"
       id="text3361">
      <path
         d="m 183.14034,904.65015 q -2.72461,14.32617 -11.25,27.77343 12.48047,6.94336 18.8086,16.34766 6.41601,9.31641 6.41601,20.12695 0,9.49219 -4.39453,17.75391 -4.39453,8.17383 -12.83203,12.65625 -8.4375,4.48245 -20.39063,4.48245 l -1.05468,0 -0.87891,-13.18362 1.93359,0 q 11.25,0 17.22657,-5.625 5.97656,-5.71289 5.97656,-15.55664 0,-8.17383 -4.6582,-15.0293 -4.65821,-6.94336 -14.15039,-11.86523 -9.31641,10.01953 -20.39063,16.25976 -11.25,-6.32812 -20.56641,-16.25976 -8.87695,4.6582 -13.79882,11.42578 -4.83399,6.76758 -4.83399,14.76562 0,10.28321 5.88867,16.08399 5.97657,5.80078 17.31446,5.80078 l 1.93359,0 -0.87891,13.18362 -1.05468,0 q -12.04102,0 -20.47852,-4.48245 -8.437499,-4.57031 -12.83203,-12.74414 -4.30664,-8.17383 -4.30664,-17.57813 0,-10.81054 6.416015,-20.39062 6.503905,-9.58008 18.896485,-16.17188 -8.96484,-13.53515 -11.33789,-27.77343 l -22.32422,0 0,-12.83203 123.92578,0 0,12.83203 -22.32422,0 z m -64.51172,0 q 3.86719,24.08203 24.87305,38.75976 10.19531,-6.76758 16.52344,-16.78711 6.41601,-10.01953 8.34961,-21.97265 l -49.7461,0 z m 64.51172,-12.83203 0,0 z m -39.63867,111.97268 0,0 z m 25.66406,0 0,0 z m -46.93359,-58.53518 0,0 z m 21.26953,0.70312 0,0 z"
         style="font-style:normal;font-variant:normal;font-weight:normal;font-stretch:normal;font-size:180px;line-height:125%;font-family:'Noto Sans Gurmukhi';-inkscape-font-specification:'Noto Sans Gurmukhi, Normal';text-align:start;writing-mode:lr-tb;text-anchor:start"
         id="path3366" />
      <path
         d="m 220.1423,904.65015 -17.31446,0 0,-12.83203 17.31446,0 0,-8.26172 q 0,-14.41407 3.25195,-22.76368 3.33984,-8.4375 10.72266,-13.35937 7.38281,-5.00977 18.89648,-5.00977 14.0625,0 22.14844,8.26172 8.08593,8.26172 8.08593,23.29102 0,4.74609 -1.14257,11.95312 l -14.0625,-1.40625 q 0.96679,-5.18554 0.96679,-10.98632 0,-9.31641 -4.04297,-13.88672 -3.95507,-4.57032 -12.1289,-4.57032 -6.76758,0 -11.07422,3.51563 -4.21875,3.51562 -5.71289,9.4043 -1.40625,5.80078 -1.40625,15.11718 l 0,8.70118 17.40234,0 0,12.83203 -17.40234,0 0,99.14065 -14.50195,0 0,-99.14065 z"
         style="font-style:normal;font-variant:normal;font-weight:normal;font-stretch:normal;font-size:180px;line-height:125%;font-family:'Noto Sans Gurmukhi';-inkscape-font-specification:'Noto Sans Gurmukhi, Normal';text-align:start;writing-mode:lr-tb;text-anchor:start"
         id="path3368" />
      <path
         d="m 327.8962,974.17163 q -12.1289,5.80078 -25.92773,5.80078 -14.76563,0 -25.83985,-8.96484 -11.07421,-9.05274 -18.36914,-27.07031 6.67969,-5.625 9.58008,-11.07422 2.98828,-5.44922 2.98828,-11.77735 0,-3.95507 -1.14258,-8.4375 -1.14257,-4.48242 -3.16406,-7.99804 l -16.43554,0 0,-12.83203 26.80664,0 q 3.86718,7.03125 6.06445,14.67773 2.19726,7.64648 2.19726,14.50195 l 0,1.14258 43.24219,0 0,-30.32226 31.9043,0 0,12.83203 -17.40234,0 0,99.14065 -14.50196,0 0,-29.61917 z m 0,-15.46875 0,-24.16992 -45.70312,0 q -2.37305,5.80078 -7.47071,10.45898 5.625,11.60157 12.04102,16.69922 6.50391,5.09766 15.29297,5.09766 6.41601,0 12.39258,-1.75781 5.97656,-1.75782 13.44726,-6.32813 z"
         style="font-style:normal;font-variant:normal;font-weight:normal;font-stretch:normal;font-size:180px;line-height:125%;font-family:'Noto Sans Gurmukhi';-inkscape-font-specification:'Noto Sans Gurmukhi, Normal';text-align:start;writing-mode:lr-tb;text-anchor:start"
         id="path3370" />
      <path
         d="m 402.07589,904.65015 -15.82031,0 0,52.11914 -14.50196,0 0,-52.11914 -14.58984,0 0,-12.83203 44.91211,0 0,12.83203 z m -15.82031,-12.83203 0,0 z"
         style="font-style:normal;font-variant:normal;font-weight:normal;font-stretch:normal;font-size:180px;line-height:125%;font-family:'Noto Sans Gurmukhi';-inkscape-font-specification:'Noto Sans Gurmukhi, Normal';text-align:start;writing-mode:lr-tb;text-anchor:start"
         id="path3372" />
      <path
         d="m 474.23409,930.31421 0,-25.66406 -74.88281,0 0,-12.83203 106.78711,0 0,12.83203 -17.40234,0 0,68.11523 q 0,12.04102 -3.95508,18.45703 -3.86719,6.32813 -10.63477,9.49219 -6.67969,3.0762 -17.66601,3.0762 -11.51368,0 -22.32422,-5.44925 -10.72266,-5.53711 -18.8086,-16.96289 -7.99804,-11.42578 -7.99804,-23.99414 0,-9.4043 4.92187,-15.55664 4.92188,-6.15234 13.09571,-8.78906 8.26171,-2.72461 24.25781,-2.72461 l 24.60937,0 z m 0,12.83203 -22.85156,0 q -11.68945,0 -17.40234,1.14258 -5.71289,1.14258 -8.96485,4.57031 -3.16406,3.33984 -3.16406,9.49219 0,7.29492 5.71289,15.38086 5.80078,8.08594 13.62305,12.56836 7.91015,4.39453 15.9082,4.39453 7.4707,0 10.98633,-2.02149 3.51562,-2.02148 4.83398,-5.71289 1.31836,-3.6914 1.31836,-12.1289 l 0,-27.68555 z m -8.78906,60.64456 0,0 z"
         style="font-style:normal;font-variant:normal;font-weight:normal;font-stretch:normal;font-size:180px;line-height:125%;font-family:'Noto Sans Gurmukhi';-inkscape-font-specification:'Noto Sans Gurmukhi, Normal';text-align:start;writing-mode:lr-tb;text-anchor:start"
         id="path3374" />
      <path
         d="m 535.23019,1003.7908 -14.50196,0 0,-99.14065 -17.31445,0 0,-12.83203 17.31445,0 0,-5.7129 q 0,-13.00781 -1.49414,-18.80859 -1.49414,-5.80078 -5.36133,-8.96484 -3.77929,-3.25196 -10.2832,-3.25196 -8.70117,0 -13.00781,4.65821 -4.30664,4.6582 -4.30664,14.32617 0,4.48242 1.05469,10.45898 l -14.0625,1.40625 q -1.23047,-8.52539 -1.23047,-12.04101 0,-14.58985 8.61328,-23.02735 8.61328,-8.4375 23.3789,-8.4375 11.95313,0 18.98438,5.18555 7.11914,5.18555 9.66797,13.44727 2.54883,8.17382 2.54883,22.5 l 0,8.26172 17.40234,0 0,12.83203 -17.40234,0 0,99.14065 z"
         style="font-style:normal;font-variant:normal;font-weight:normal;font-stretch:normal;font-size:180px;line-height:125%;font-family:'Noto Sans Gurmukhi';-inkscape-font-specification:'Noto Sans Gurmukhi, Normal';text-align:start;writing-mode:lr-tb;text-anchor:start"
         id="path3376" />
    </g>
  </g>
</svg>
