<?xml version="1.0" encoding="UTF-8" standalone="no"?>
<!-- Created with Inkscape (http://www.inkscape.org/) -->

<svg
   xmlns:dc="http://purl.org/dc/elements/1.1/"
   xmlns:cc="http://creativecommons.org/ns#"
   xmlns:rdf="http://www.w3.org/1999/02/22-rdf-syntax-ns#"
   xmlns:svg="http://www.w3.org/2000/svg"
   xmlns="http://www.w3.org/2000/svg"
   xmlns:sodipodi="http://sodipodi.sourceforge.net/DTD/sodipodi-0.dtd"
   xmlns:inkscape="http://www.inkscape.org/namespaces/inkscape"
   width="240mm"
   height="60mm"
   viewBox="0 0 850.3937 212.59842"
   id="svg2"
   version="1.1"
   inkscape:version="0.91 r13725"
   sodipodi:docname="devanagari saahityakaar (writer) bad.svg">
  <defs
     id="defs4" />
  <sodipodi:namedview
     id="base"
     pagecolor="#ffffff"
     bordercolor="#666666"
     borderopacity="1.0"
     inkscape:pageopacity="0.0"
     inkscape:pageshadow="2"
     inkscape:zoom="1.4"
     inkscape:cx="382.22016"
     inkscape:cy="86.803443"
     inkscape:document-units="px"
     inkscape:current-layer="layer1"
     showgrid="false"
     inkscape:window-width="1920"
     inkscape:window-height="1027"
     inkscape:window-x="-8"
     inkscape:window-y="-8"
     inkscape:window-maximized="1" />
  <metadata
     id="metadata7">
    <rdf:RDF>
      <cc:Work
         rdf:about="">
        <dc:format>image/svg+xml</dc:format>
        <dc:type
           rdf:resource="http://purl.org/dc/dcmitype/StillImage" />
        <dc:title></dc:title>
      </cc:Work>
    </rdf:RDF>
  </metadata>
  <g
     inkscape:label="Layer 1"
     inkscape:groupmode="layer"
     id="layer1"
     transform="translate(0,-839.76378)">
    <g
       style="font-style:normal;font-weight:normal;font-size:40px;line-height:125%;font-family:sans-serif;letter-spacing:0px;word-spacing:0px;fill:#000000;fill-opacity:1;stroke:none;stroke-width:1px;stroke-linecap:butt;stroke-linejoin:miter;stroke-opacity:1"
       id="text3336">
      <path
         d="m 157.63672,913.26617 -26.80664,0 0,101.95313 -15.46875,0 0,-48.33984 -46.054689,0 q -3.427735,9.40429 -13.359375,11.51367 l 30.9375,36.56247 -11.953125,10.1074 -51.679688,-60.99604 12.041016,-10.10743 9.580078,11.42578 q 0.439453,0.52735 1.933594,0.52735 12.216796,0 12.216796,-27.77344 l 0,-24.87305 -39.199218,0 0,-14.0625 137.812501,0 0,14.0625 z m -71.894533,94.39453 0,0 z m 0,-102.04101 0,0 z m 29.619143,47.19727 0,-39.55079 -40.869143,0 0,24.87305 q 0,9.31641 -0.791015,14.67774 l 41.660158,0 z m 7.73437,-47.19727 0,0 z m 0,102.04101 0,0 z"
         style="font-style:normal;font-variant:normal;font-weight:normal;font-stretch:normal;font-size:180px;font-family:'Mangal Sample';-inkscape-font-specification:'Mangal Sample'"
         id="path3341" />
      <path
         d="m 140.49805,905.61969 0,0 z m 64.07226,7.64648 -26.80664,0 0,101.95313 -15.46875,0 0,-101.95313 -10.98633,0 0,-14.0625 53.26172,0 0,14.0625 z m -64.07226,94.39453 0,0 z m 28.38867,-102.04101 0,0 z"
         style="font-style:normal;font-variant:normal;font-weight:normal;font-stretch:normal;font-size:180px;font-family:'Mangal Sample';-inkscape-font-specification:'Mangal Sample'"
         id="path3343" />
      <path
         d="m 251.15234,876.79156 0,0 z m 78.66211,25.3125 -5.36133,10.54688 q -24.3457,-21.88477 -34.98046,-29.61914 -22.32422,-16.69922 -38.32032,-16.69922 -13.27148,0 -22.32422,6.24023 -9.75585,6.67969 -9.75585,17.57813 0,5.71289 4.92187,9.05273 l 37.00195,0 0,14.0625 -26.63086,0 0,101.95313 -15.46875,0 0,-101.95313 -20.47851,0 0,-14.0625 8.34961,0 q -2.10938,-5.18554 -2.10938,-10.19531 0,-16.61133 14.41407,-27.33398 13.27148,-9.75586 30.8496,-9.75586 20.30274,0 43.1543,17.40234 9.93164,7.20703 36.73828,32.7832 z m -78.66211,105.55664 0,0 z"
         style="font-style:normal;font-variant:normal;font-weight:normal;font-stretch:normal;font-size:180px;font-family:'Mangal Sample';-inkscape-font-specification:'Mangal Sample'"
         id="path3345" />
      <path
         d="m 359.60937,913.26617 -32.25585,0 0,29.17969 -39.81446,0 q -2.37304,0 -4.48242,0.87891 -2.02148,0.8789 -3.60352,2.46094 -1.49414,1.49414 -2.46093,3.51562 -0.87891,2.02148 -0.87891,4.30664 0,3.33984 1.49414,6.15234 1.58203,2.72461 4.21875,4.39454 4.30664,-2.54883 9.66797,-4.04297 5.44922,-1.49414 12.2168,-1.49414 8.4375,0 14.76562,2.46093 6.32813,2.37305 10.45899,6.32813 4.13086,3.95508 6.15234,9.14062 2.10938,5.09766 2.10938,10.54688 0,4.21875 -1.40625,7.91016 -1.31836,3.6914 -3.25196,6.76754 -1.8457,3.0762 -3.95508,5.3614 -2.02148,2.1972 -3.42773,3.5156 l -10.81055,-10.0195 q 0.87891,-0.96684 2.19727,-2.19731 1.31836,-1.23047 2.54883,-2.72461 1.31836,-1.58203 2.19726,-3.42773 0.9668,-1.84571 0.9668,-3.95508 0,-2.10938 -0.79102,-4.65821 -0.70312,-2.63671 -2.8125,-4.83398 -2.02148,-2.28516 -5.80078,-3.7793 -3.6914,-1.58203 -9.66797,-1.58203 -4.92187,0 -9.40429,1.49414 -4.48243,1.40625 -7.91016,4.13086 -3.42773,2.72461 -5.53711,6.67969 -2.02148,3.86719 -2.02148,8.78906 0,8.0859 3.33984,13.8867 3.42773,5.7129 8.61328,9.9317 5.27344,4.2187 11.51367,7.207 6.24024,3.0762 11.95313,5.625 l -6.94336,12.3926 q -4.92188,-1.4063 -10.01953,-3.6914 -5.09766,-2.1973 -9.93164,-5.3614 -4.83399,-3.0761 -9.14063,-7.1191 -4.21875,-3.9551 -7.4707,-8.9648 -3.16406,-5.0098 -5.00977,-10.9864 -1.8457,-5.9765 -1.8457,-13.00779 0,-2.10937 0.43945,-4.6582 0.43946,-2.54883 1.40625,-5.27344 1.05469,-2.8125 2.54883,-5.625 1.49414,-2.8125 3.60352,-5.53711 -4.57032,-3.6914 -7.38282,-8.87695 -2.8125,-5.18555 -2.8125,-10.89844 0,-5.00976 1.75782,-9.49219 1.75781,-4.48242 4.92187,-7.91015 3.16406,-3.42774 7.47071,-5.36133 4.39453,-2.02149 9.58007,-2.02149 l 26.98243,0 0,-15.55664 -57.04102,0 0,-14.0625 104.76562,0 0,14.0625 z"
         style="font-style:normal;font-variant:normal;font-weight:normal;font-stretch:normal;font-size:180px;font-family:'Mangal Sample';-inkscape-font-specification:'Mangal Sample'"
         id="path3347" />
      <path
         d="m 438.88672,913.26617 -85.42969,0 0,-14.0625 85.42969,0 0,14.0625 z m -4.04297,45.43946 -41.92383,0 q -8.34961,0 -13.35937,4.92187 -5.00977,4.92188 -5.00977,13.00781 0,11.25 9.05274,21.70899 2.10937,2.5488 17.66601,16.4355 l -12.12891,10.459 q -30.05859,-27.15817 -30.05859,-47.5488 0,-15.11719 8.17383,-24.08203 8.26172,-8.96484 23.29101,-8.96484 l 44.29688,0 0,14.0625 z"
         style="font-style:normal;font-variant:normal;font-weight:normal;font-stretch:normal;font-size:180px;font-family:'Mangal Sample';-inkscape-font-specification:'Mangal Sample'"
         id="path3349" />
      <path
         d="m 560.87891,913.26617 -26.80664,0 0,101.95313 -15.46875,0 0,-31.28906 q -13.88672,8.87695 -30.58594,8.87695 -27.33399,0 -47.98828,-34.10156 2.46093,-3.7793 6.5039,-9.49219 4.83399,1.8457 9.4043,1.8457 8.96484,0 14.32617,-5.00976 5.36133,-5.09766 5.36133,-13.71094 0,-5.53711 -4.30664,-12.04102 -4.6582,-7.03125 -9.75586,-7.03125 l -29.00391,0 0,-14.0625 128.32032,0 0,14.0625 z m -67.14844,94.39453 0,0 z m 0,-102.04101 0,0 z m 24.87305,60.46875 0,-52.82227 -34.98047,0 q 7.82226,7.99805 7.82226,19.24805 0,12.74414 -9.05273,21.97266 -9.05274,9.14062 -21.97266,9.14062 3.51563,5.53711 11.86524,9.66797 8.34961,4.04297 15.9082,4.04297 16.25976,0 30.41016,-11.25 z m 7.73437,-60.46875 0,0 z m 0,102.04101 0,0 z"
         style="font-style:normal;font-variant:normal;font-weight:normal;font-stretch:normal;font-size:180px;font-family:'Mangal Sample';-inkscape-font-specification:'Mangal Sample'"
         id="path3351" />
      <path
         d="m 701.67969,899.20367 0,14.0625 -68.99414,0 0,37.35352 q 3.25195,-2.8125 6.15234,-4.74609 2.90039,-1.9336 5.71289,-3.16407 2.90039,-1.23047 5.80078,-1.75781 2.98828,-0.52734 6.32813,-0.52734 6.41601,0 11.60156,2.19726 5.27344,2.10938 8.87695,6.06446 3.60352,3.95507 5.53711,9.58007 2.02149,5.53711 2.02149,12.39258 0,4.65821 -1.14258,9.31641 -1.05469,4.57031 -2.98828,8.96484 -1.84571,4.30664 -4.39453,8.17383 -2.46094,3.86717 -5.18555,6.85547 l -9.58008,-11.86524 q 1.66992,-1.75781 3.33984,-4.39453 1.66993,-2.72461 2.98829,-5.625 1.31836,-2.98828 2.10937,-6.06445 0.87891,-3.07617 0.87891,-5.625 0,-4.48242 -1.58203,-7.55859 -1.58204,-3.16407 -3.95508,-5.09766 -2.28516,-1.93359 -4.92188,-2.72461 -2.54883,-0.87891 -4.57031,-0.87891 -3.60352,0 -6.50391,1.05469 -2.90039,0.9668 -5.625,2.8125 -2.63671,1.75781 -5.27343,4.30664 -2.63672,2.46094 -5.625,5.44922 l 0,47.46094 -15.46875,0 0,-37.35352 q -2.10938,1.49414 -5.09766,3.33985 -2.98828,1.75781 -6.50391,3.33984 -3.42773,1.49414 -7.29492,2.54883 -3.86719,0.9668 -7.73437,0.9668 -8.61328,0 -14.50196,-2.63672 -5.80078,-2.63672 -9.40429,-6.76758 -3.60352,-4.13086 -5.18555,-9.14063 -1.58203,-5.00976 -1.58203,-9.75586 0,-6.15234 2.28516,-11.25 2.37304,-5.09765 6.59179,-8.78906 4.21875,-3.6914 10.10742,-5.71289 5.88868,-2.10937 12.91993,-2.10937 4.74609,0 8.61328,0.79101 3.95508,0.79102 7.11914,1.84571 3.16406,1.05468 5.53711,2.19726 2.46093,1.14258 4.13086,1.8457 l 0,-25.3125 -62.66602,0 0,-14.0625 147.12891,0 z m -84.46289,54.93164 q -1.58203,-0.8789 -3.95508,-2.28515 -2.28516,-1.40625 -5.44922,-2.63672 -3.16406,-1.31836 -7.11914,-2.19727 -3.95508,-0.96679 -8.87695,-0.96679 -16.69922,0 -16.69922,12.74414 0,7.38281 4.21875,11.25 4.30664,3.77929 11.25,3.77929 3.42773,0 7.20703,-1.40625 3.86719,-1.40625 7.38281,-3.33984 3.60352,-2.02148 6.76758,-4.21875 3.16406,-2.28516 5.27344,-3.86719 l 0,-6.85547 z"
         style="font-style:normal;font-variant:normal;font-weight:normal;font-stretch:normal;font-size:180px;font-family:'Mangal Sample';-inkscape-font-specification:'Mangal Sample'"
         id="path3353" />
      <path
         d="m 684.7168,905.61969 0,0 z m 64.07226,7.64648 -26.80664,0 0,101.95313 -15.46875,0 0,-101.95313 -10.98633,0 0,-14.0625 53.26172,0 0,14.0625 z m -64.07226,94.39453 0,0 z m 28.38867,-102.04101 0,0 z"
         style="font-style:normal;font-variant:normal;font-weight:normal;font-stretch:normal;font-size:180px;font-family:'Mangal Sample';-inkscape-font-specification:'Mangal Sample'"
         id="path3355" />
      <path
         d="m 833.33984,913.26617 -36.03515,0 0,25.83985 q 0,14.9414 -2.37305,22.06054 -4.13086,12.30469 -15.99609,12.30469 l 35.41992,41.48435 -11.95313,10.1074 -56.33789,-65.74214 12.04102,-10.01953 9.58008,11.25 q 0.70312,0.79102 2.8125,0.79102 11.33789,0 11.33789,-18.01758 l 0,-30.0586 -39.19922,0 0,-14.0625 90.70312,0 0,14.0625 z M 785,1007.6607 l 0,0 z m 4.57031,-102.04101 0,0 z m -4.57031,0 0,0 z"
         style="font-style:normal;font-variant:normal;font-weight:normal;font-stretch:normal;font-size:180px;font-family:'Mangal Sample';-inkscape-font-specification:'Mangal Sample'"
         id="path3357" />
    </g>
  </g>
</svg>
