<?xml version="1.0" encoding="UTF-8" standalone="no"?>
<!-- Created with Inkscape (http://www.inkscape.org/) -->

<svg
   xmlns:dc="http://purl.org/dc/elements/1.1/"
   xmlns:cc="http://creativecommons.org/ns#"
   xmlns:rdf="http://www.w3.org/1999/02/22-rdf-syntax-ns#"
   xmlns:svg="http://www.w3.org/2000/svg"
   xmlns="http://www.w3.org/2000/svg"
   xmlns:sodipodi="http://sodipodi.sourceforge.net/DTD/sodipodi-0.dtd"
   xmlns:inkscape="http://www.inkscape.org/namespaces/inkscape"
   width="240mm"
   height="70mm"
   viewBox="0 0 850.3937 248.03149"
   id="svg2"
   version="1.1"
   inkscape:version="0.91 r13725"
   sodipodi:docname="writer kannada good barahagaarti.svg">
  <defs
     id="defs4" />
  <sodipodi:namedview
     id="base"
     pagecolor="#ffffff"
     bordercolor="#666666"
     borderopacity="1.0"
     inkscape:pageopacity="0.0"
     inkscape:pageshadow="2"
     inkscape:zoom="0.98994949"
     inkscape:cx="237.82482"
     inkscape:cy="193.05298"
     inkscape:document-units="px"
     inkscape:current-layer="layer1"
     showgrid="false"
     inkscape:window-width="1920"
     inkscape:window-height="1027"
     inkscape:window-x="-8"
     inkscape:window-y="-8"
     inkscape:window-maximized="1" />
  <metadata
     id="metadata7">
    <rdf:RDF>
      <cc:Work
         rdf:about="">
        <dc:format>image/svg+xml</dc:format>
        <dc:type
           rdf:resource="http://purl.org/dc/dcmitype/StillImage" />
        <dc:title></dc:title>
      </cc:Work>
    </rdf:RDF>
  </metadata>
  <g
     inkscape:label="Layer 1"
     inkscape:groupmode="layer"
     id="layer1"
     transform="translate(0,-804.33071)">
    <g
       style="font-style:normal;font-weight:normal;font-size:180px;line-height:125%;font-family:sans-serif;letter-spacing:0px;word-spacing:0px;fill:#000000;fill-opacity:1;stroke:none;stroke-width:1px;stroke-linecap:butt;stroke-linejoin:miter;stroke-opacity:1"
       id="text3340">
      <path
         d="m 79.448407,980.72101 q -5.185547,8.34961 -12.480469,12.30469 -7.294921,3.86718 -19.511718,3.86718 -13.886719,0 -22.148438,-7.64648 -8.261719,-7.73438 -8.261719,-18.98438 0,-6.85546 2.460938,-12.1289 2.460937,-5.27344 7.119141,-9.84375 4.746093,-4.57031 15.292968,-11.33789 9.75586,-6.24024 12.480469,-10.01953 2.724609,-3.86719 2.724609,-8.17383 0,-12.2168 -14.589843,-12.2168 -7.207032,0 -11.074219,3.16406 -3.867188,3.16407 -3.867188,9.14063 0,5.53711 3.603516,10.54687 l -12.744141,5.625 q -5.449218,-8.70117 -5.449218,-17.7539 0,-10.3711 7.910156,-17.13867 7.998047,-6.76758 21.708984,-6.76758 14.238282,0 21.621094,6.94336 7.470703,6.94336 7.470703,18.36914 0,8.17383 -4.746094,14.85351 -4.658203,6.67969 -18.36914,15.46875 -7.470703,4.83399 -10.546875,7.64649 -3.076172,2.72461 -4.658203,5.80078 -1.494141,2.98828 -1.494141,6.94336 0,6.41601 4.306641,9.84375 4.30664,3.42773 12.128906,3.42773 22.236328,0 24.257812,-22.93945 l 13.798829,0 q 0.703125,10.89844 6.855468,16.96289 6.152344,5.97656 15.908205,5.97656 9.93164,0 15.82031,-7.03125 5.97656,-7.03125 5.97656,-18.7207 0,-17.13867 -8.87695,-29.61914 -8.78906,-12.48047 -26.455078,-20.30274 l 7.734378,-13.97461 q 20.65429,10.28321 31.46484,26.54297 10.89844,16.25977 10.89844,36.47461 0,18.72071 -10.01953,29.79492 -9.93164,11.07422 -27.2461,11.07422 -9.843747,0 -16.699215,-3.95507 -6.855469,-3.95508 -12.304688,-12.2168 z m -23.466797,-30.58594 0,0 z m 28.828125,-54.66797 0,0 z"
         style="font-style:normal;font-variant:normal;font-weight:normal;font-stretch:normal;font-size:180px;line-height:125%;font-family:'Noto Sans Kannada';-inkscape-font-specification:'Noto Sans Kannada, Normal';text-align:start;writing-mode:lr-tb;text-anchor:start"
         id="path3345" />
      <path
         d="m 241.87028,908.21124 q 10.45899,7.20703 15.29297,17.13867 4.83399,9.93165 4.83399,23.73047 0,13.88672 -6.15235,24.78516 -6.15234,10.89844 -17.8418,16.96289 -11.68945,6.06445 -27.07031,6.06445 -15.02929,0 -26.80664,-5.71289 -11.68945,-5.80078 -18.10547,-16.69922 -6.32812,-10.89843 -6.32812,-25.40039 0,-26.45507 19.24804,-39.63867 l -19.24804,0 0,-13.97461 64.24804,0 q 9.31641,0 14.0625,-0.96679 4.7461,-0.9668 7.03125,-3.69141 2.37305,-2.8125 2.37305,-7.4707 0,-11.51368 -11.68945,-22.93946 l 11.68945,-7.82226 q 7.38281,8.26172 10.98633,15.73242 3.60352,7.4707 3.60352,16.25976 0,8.78907 -5.27344,15.20508 -5.18555,6.32813 -14.85352,8.4375 z m -30.67383,1.23047 q -16.52343,0 -26.63086,10.01953 -10.10742,10.01953 -10.10742,26.54297 0,16.96289 9.75586,26.63086 9.84375,9.66797 26.80664,9.66797 16.96289,0 26.54297,-9.93164 9.66797,-10.01953 9.66797,-26.36719 0,-16.52344 -10.10742,-26.54297 -10.01953,-10.01953 -25.92774,-10.01953 z m -3.16406,-60.20508 0,0 z"
         style="font-style:normal;font-variant:normal;font-weight:normal;font-stretch:normal;font-size:180px;line-height:125%;font-family:'Noto Sans Kannada';-inkscape-font-specification:'Noto Sans Kannada, Normal';text-align:start;writing-mode:lr-tb;text-anchor:start"
         id="path3347" />
      <path
         d="m 337.93474,909.44171 q 11.07421,8.34961 11.07421,23.64258 0,2.63672 -0.43945,3.95508 8.96484,-9.84375 24.69727,-9.84375 16.08398,0 25.3125,9.58008 9.3164,9.58007 9.3164,25.48828 0,15.55664 -9.84375,25.13672 -9.75586,9.49218 -26.54297,9.49218 -10.37109,0 -18.19336,-4.04297 -7.73437,-4.13085 -11.77734,-11.95312 -4.39453,7.82227 -12.2168,11.95312 -7.73437,4.04297 -18.10546,4.04297 -16.61133,0 -26.10352,-9.14062 -9.49219,-9.14063 -9.49219,-25.48828 0,-15.9961 9.75586,-25.48828 9.84375,-9.58008 26.71875,-9.58008 7.03125,0 13.00781,2.46094 5.97657,2.37304 10.01954,7.20703 0.17578,-0.9668 0.17578,-2.37305 0,-8.34961 -5.71289,-15.20508 -5.71289,-6.85547 -15.55664,-9.84375 l -38.32032,0 0,-13.97461 94.13086,0 q 9.31641,0 14.0625,-0.96679 4.7461,-0.9668 7.03125,-3.69141 2.37305,-2.8125 2.37305,-7.4707 0,-11.51368 -11.68945,-22.93946 l 11.68945,-7.82226 q 7.38281,8.26172 10.98633,15.73242 3.60351,7.4707 3.60351,16.25976 0,6.5918 -3.25195,12.30469 -3.16406,5.625 -10.19531,9.14063 -7.03125,3.42773 -21.35742,3.42773 l -35.15625,0 z m -25.57618,73.91602 q 10.81055,0 16.61133,-5.625 5.88867,-5.625 5.88867,-15.46875 0,-10.01953 -5.88867,-15.82032 -5.80078,-5.80078 -15.9082,-5.80078 -10.72266,0 -16.69922,5.71289 -5.88867,5.625 -5.88867,15.46875 0,10.10743 5.88867,15.82032 5.88867,5.71289 15.99609,5.71289 z m 58.1836,0 q 10.81054,0 16.61133,-5.625 5.88867,-5.625 5.88867,-15.46875 0,-10.01953 -5.88867,-15.82032 -5.80079,-5.80078 -15.90821,-5.80078 -10.54687,0 -16.61133,5.80078 -5.97656,5.7129 -5.97656,15.38086 0,10.10743 5.88867,15.82032 5.88868,5.71289 15.9961,5.71289 z m -35.15625,-134.1211 0,0 z"
         style="font-style:normal;font-variant:normal;font-weight:normal;font-stretch:normal;font-size:180px;line-height:125%;font-family:'Noto Sans Kannada';-inkscape-font-specification:'Noto Sans Kannada, Normal';text-align:start;writing-mode:lr-tb;text-anchor:start"
         id="path3349" />
      <path
         d="m 503.52067,895.4671 0,13.97461 -5.00976,0 q 11.33789,8.08594 17.05078,22.5 5.80078,14.41406 5.80078,40.42969 l 0,22.41211 -16.25977,0 0,-19.42383 q 0,-16.96289 -1.66992,-27.94922 -1.66992,-11.07422 -6.24023,-20.21484 -4.57031,-9.22852 -10.63477,-13.44727 -5.97656,-4.30664 -14.15039,-4.30664 -6.15234,0 -10.98633,2.19727 -4.74609,2.19726 -8.70117,6.59179 -3.86719,4.39454 -7.38281,12.91993 -3.42774,8.4375 -4.83399,18.98437 -1.40625,10.45899 -1.40625,25.22461 l 0,19.42383 -16.25976,0 0,-22.41211 q 0,-25.13672 5.80078,-40.16602 5.88867,-15.02929 17.13867,-22.76367 l -23.55469,0 0,-13.97461 81.29883,0 z"
         style="font-style:normal;font-variant:normal;font-weight:normal;font-stretch:normal;font-size:180px;line-height:125%;font-family:'Noto Sans Kannada';-inkscape-font-specification:'Noto Sans Kannada, Normal';text-align:start;writing-mode:lr-tb;text-anchor:start"
         id="path3351" />
      <path
         d="m 548.69645,960.33038 q -0.8789,2.46094 -0.8789,6.50391 0,7.64648 4.57031,12.30469 4.6582,4.57031 13.35938,4.57031 11.1621,0 17.13867,-8.26172 6.06445,-8.26172 6.06445,-23.99414 0,-15.38086 -5.625,-24.52148 -5.625,-9.22852 -14.50195,-13.35938 -8.87696,-4.13086 -27.50977,-4.13086 l -42.09961,0 -1.75781,-13.97461 47.28516,0 q 21.62109,0 33.57421,6.24024 12.04102,6.24023 18.72071,18.36914 6.76758,12.04101 6.76758,31.37695 0,21.79688 -10.01954,33.66211 -9.93164,11.77734 -28.125,11.77734 -14.15039,0 -22.5,-7.99804 -8.3496,-8.08594 -8.3496,-20.74219 0,-11.07422 5.5371,-17.40234 5.53711,-6.32813 14.41407,-6.32813 6.59179,0 10.37109,3.25195 3.7793,3.25196 3.7793,8.96485 0,5.09765 -2.90039,8.26172 -2.8125,3.07617 -7.03125,3.07617 -4.30664,0 -7.03125,-1.9336 -2.72461,-2.02148 -3.25196,-5.71289 z"
         style="font-style:normal;font-variant:normal;font-weight:normal;font-stretch:normal;font-size:180px;line-height:125%;font-family:'Noto Sans Kannada';-inkscape-font-specification:'Noto Sans Kannada, Normal';text-align:start;writing-mode:lr-tb;text-anchor:start"
         id="path3353" />
      <path
         d="m 681.14763,889.92999 q -3.33985,9.4043 -10.45899,14.32617 -7.03125,4.92188 -16.96289,4.92188 -11.95312,0 -18.7207,-5.71289 -6.67969,-5.80078 -6.67969,-16.34766 0,-9.58008 7.20703,-15.64453 7.29492,-6.15234 19.33594,-6.15234 14.58984,0 26.45508,7.55859 11.86523,7.5586 18.63281,20.91797 6.76758,13.35938 6.76758,28.38867 0,5.88867 -0.9668,11.33789 5.00977,4.92188 7.55859,10.98633 2.54883,5.97656 2.54883,13.00781 0,19.07227 -12.91992,29.26758 -12.91992,10.10742 -37.35351,10.10742 -23.02735,0 -36.03516,-10.45898 -12.91992,-10.54688 -12.91992,-27.77344 0,-5.53711 0.96679,-10.45898 l 14.23829,1.93359 q -0.70313,3.42774 -0.70313,6.94336 0,12.30469 8.78906,18.98438 8.78907,6.59179 25.92774,6.59179 18.28125,0 27.59765,-6.67969 9.4043,-6.67968 9.4043,-18.10546 0,-6.24024 -2.10937,-10.72266 -4.57032,7.38281 -11.86524,11.25 -7.20703,3.7793 -16.34766,3.7793 -12.1289,0 -18.63281,-5.18555 -6.5039,-5.27344 -6.5039,-15.11719 0,-9.22851 6.76757,-14.32617 6.85547,-5.18555 19.6875,-5.18555 10.28321,0 18.98438,3.33985 0.0879,-1.66992 0.0879,-3.51563 0,-9.58008 -2.98828,-17.57812 -2.90039,-8.08594 -8.78906,-14.67774 z m -11.16211,-8.34961 q -7.64649,-3.6914 -16.25977,-3.6914 -5.27344,0 -8.26172,2.54883 -2.98828,2.46093 -2.98828,6.85546 0,4.30664 2.72461,6.85547 2.72461,2.46094 7.91016,2.46094 7.11914,0 11.42578,-3.86719 4.39453,-3.86718 5.44922,-11.16211 z m 20.74218,56.07422 q -6.59179,-3.16406 -14.9414,-3.16406 -7.11914,0 -10.54688,1.75781 -3.42773,1.75781 -3.42773,5.71289 0,7.11914 11.68945,7.11914 6.50391,0 10.81055,-2.8125 4.30664,-2.90039 6.41601,-8.61328 z m 22.93946,-28.21289 0,0 z m 0.17578,-13.97461 0,0 z m -0.0879,-46.23047 0,0 z"
         style="font-style:normal;font-variant:normal;font-weight:normal;font-stretch:normal;font-size:180px;line-height:125%;font-family:'Noto Sans Kannada';-inkscape-font-specification:'Noto Sans Kannada, Normal';text-align:start;writing-mode:lr-tb;text-anchor:start"
         id="path3355" />
      <path
         d="m 774.83903,909.44171 q -9.22851,0 -14.67773,0.35156 -5.44922,0.35157 -9.22852,2.10938 -3.77929,1.66992 -5.71289,4.48242 -1.8457,2.8125 -1.8457,7.29492 0,4.7461 2.63672,8.08594 2.72461,3.33984 8.08593,4.83398 5.36133,1.49415 16.43555,1.49415 l 20.74219,0 0,13.9746 -17.40234,0 q -8.5254,0 -13.53516,0.43946 -4.92188,0.43945 -8.4375,2.28515 -3.51563,1.75782 -5.36133,4.48243 -1.8457,2.72461 -1.8457,6.76757 0,7.11914 5.09765,10.81055 5.09766,3.69141 16.43555,3.69141 l 1.14258,0 0,14.23828 -0.87891,0 q -13.97461,0 -21.35742,-3.16406 -7.38281,-3.25196 -11.33789,-9.4043 -3.86719,-6.24024 -3.86719,-14.85352 0,-7.11914 3.07617,-12.30468 3.07618,-5.27344 9.84375,-9.4043 -7.11914,-4.04297 -10.72265,-10.01953 -3.51563,-6.06446 -3.51563,-14.0625 0,-5.36133 2.46094,-10.54688 2.46094,-5.18554 7.82227,-8.87695 5.36132,-3.7793 12.83203,-5.18555 7.55859,-1.49414 21.44531,-1.49414 l 49.04297,0 0,13.97461 -47.37305,0 z"
         style="font-style:normal;font-variant:normal;font-weight:normal;font-stretch:normal;font-size:180px;line-height:125%;font-family:'Noto Sans Kannada';-inkscape-font-specification:'Noto Sans Kannada, Normal';text-align:start;writing-mode:lr-tb;text-anchor:start"
         id="path3357" />
    </g>
  </g>
</svg>
