<?xml version="1.0" encoding="UTF-8" standalone="no"?>
<!-- Created with Inkscape (http://www.inkscape.org/) -->

<svg
   xmlns:dc="http://purl.org/dc/elements/1.1/"
   xmlns:cc="http://creativecommons.org/ns#"
   xmlns:rdf="http://www.w3.org/1999/02/22-rdf-syntax-ns#"
   xmlns:svg="http://www.w3.org/2000/svg"
   xmlns="http://www.w3.org/2000/svg"
   xmlns:sodipodi="http://sodipodi.sourceforge.net/DTD/sodipodi-0.dtd"
   xmlns:inkscape="http://www.inkscape.org/namespaces/inkscape"
   width="180mm"
   height="60mm"
   viewBox="0 0 637.79528 212.59842"
   id="svg3396"
   version="1.1"
   inkscape:version="0.91 r13725"
   sodipodi:docname="arabic al-katibu (writer) good.svg">
  <defs
     id="defs3398" />
  <sodipodi:namedview
     id="base"
     pagecolor="#ffffff"
     bordercolor="#666666"
     borderopacity="1.0"
     inkscape:pageopacity="0.0"
     inkscape:pageshadow="2"
     inkscape:zoom="0.35"
     inkscape:cx="375"
     inkscape:cy="520"
     inkscape:document-units="px"
     inkscape:current-layer="layer1"
     showgrid="false"
     inkscape:window-width="1920"
     inkscape:window-height="1027"
     inkscape:window-x="-8"
     inkscape:window-y="-8"
     inkscape:window-maximized="1" />
  <metadata
     id="metadata3401">
    <rdf:RDF>
      <cc:Work
         rdf:about="">
        <dc:format>image/svg+xml</dc:format>
        <dc:type
           rdf:resource="http://purl.org/dc/dcmitype/StillImage" />
        <dc:title></dc:title>
      </cc:Work>
    </rdf:RDF>
  </metadata>
  <g
     inkscape:label="Layer 1"
     inkscape:groupmode="layer"
     id="layer1"
     transform="translate(0,-839.76378)">
    <g
       style="font-style:normal;font-weight:normal;font-size:40px;line-height:125%;font-family:sans-serif;letter-spacing:0px;word-spacing:0px;fill:#000000;fill-opacity:1;stroke:none;stroke-width:1px;stroke-linecap:butt;stroke-linejoin:miter;stroke-opacity:1"
       id="text3404">
      <path
         d="m 510.39481,869.8902 16.17187,0 0,136.7578 -16.17187,0 0,-136.7578 z"
         style="font-size:180px"
         id="path3409" />
      <path
         d="m 476.46903,974.04059 q 0,15.64453 -7.64649,24.52148 -7.03125,8.08593 -20.5664,8.08593 l -11.42578,0 0,-16.17186 6.59179,0 q 8.70118,0 12.56836,-3.86719 4.30664,-4.30664 4.30664,-13.62305 l 0,-103.0957 16.17188,0 0,104.15039 z"
         style="font-size:180px"
         id="path3411" />
      <path
         d="m 366.34208,1006.648 -29.00391,0 0,-16.17186 27.24609,0 q 13.00782,0 16.96289,-9.14063 1.40625,-3.16406 1.40625,-6.32812 0,-6.06446 -4.74609,-11.86524 l -27.24609,-33.39844 q -4.39454,-5.36132 -4.39454,-12.48047 0,-3.07617 0.87891,-5.97656 2.72461,-10.37109 11.86524,-14.15039 l 65.47851,-27.24609 0,16.34765 -52.29492,21.97266 q -6.24024,2.63672 -8.08594,6.15234 -0.52734,0.9668 -0.52734,3.16407 0,2.8125 2.72461,6.06445 l 51.24023,61.96289 q 1.9336,2.28516 5.27344,3.51563 3.7793,1.40625 9.4043,1.40625 l 7.73437,0 0,16.17186 -11.60156,0 q -5.71289,0 -10.81055,-2.1094 -9.05273,-3.7793 -11.95312,-7.38278 l -8.52539,-10.54687 q -1.84571,4.04297 -3.33985,6.41601 -8.34961,13.62304 -27.68554,13.62304 z"
         style="font-size:180px"
         id="path3413" />
      <path
         d="m 301.21512,974.04059 0,-104.15039 16.17188,0 0,103.0957 q 0,9.31641 4.30664,13.62305 3.86719,3.86719 12.56836,3.86719 l 6.59179,0 0,16.17186 -11.42578,0 q -13.53515,0 -20.5664,-8.08593 -7.64649,-8.87695 -7.64649,-24.52148 z"
         style="font-size:180px"
         id="path3415" />
      <path
         d="m 260.25809,999.08942 q -6.32812,7.55858 -20.12695,7.55858 l -7.91016,0 0,-16.17186 3.07617,0 q 8.70118,0 12.56836,-3.86719 4.30664,-4.30664 4.30664,-13.62305 l 0,-19.07226 16.17188,0 0,19.07226 q 0,16.43555 -8.08594,26.10352 z m 4.39453,-80.33203 13.1836,0 0,13.18359 -13.1836,0 0,-13.18359 z m -21.97265,0 13.18359,0 0,13.18359 -13.18359,0 0,-13.18359 z"
         style="font-size:180px"
         id="path3417" />
      <path
         d="m 213.14872,962.35114 q 0,18.28125 6.15234,23.46679 5.53711,4.65821 11.07422,4.65821 l 5.27344,0 0,16.17186 -8.96485,0 q -10.19531,0 -16.43554,-6.416 -7.03125,-7.29493 -9.14063,-13.09571 -13.62305,11.51367 -34.10156,16.17191 -22.76367,5.0976 -41.3086,5.0976 -17.22656,0 -28.124996,-3.3398 -28.916016,-8.87697 -29.003906,-32.0801 -0.08789,-12.12891 5.537109,-20.21484 l 16.171875,0 q -5.71289,8.26172 -5.71289,20.21484 0,10.98633 17.841798,16.875 9.14062,2.98828 22.41211,2.98828 22.85156,-0.17578 39.55078,-5.00976 17.49023,-5.09766 28.30078,-14.67774 5.18555,-4.57031 5.18555,-15.02929 0,-5.44922 -2.54883,-10.28321 l 16.17187,0 q 1.66993,6.5918 1.66993,14.50196 z m -83.4961,61.87496 13.1836,0 0,13.1836 -13.1836,0 0,-13.1836 z"
         style="font-size:180px"
         id="path3419" />
    </g>
  </g>
</svg>
