<?xml version="1.0" encoding="UTF-8" standalone="no"?>
<!-- Created with Inkscape (http://www.inkscape.org/) -->

<svg
   xmlns:dc="http://purl.org/dc/elements/1.1/"
   xmlns:cc="http://creativecommons.org/ns#"
   xmlns:rdf="http://www.w3.org/1999/02/22-rdf-syntax-ns#"
   xmlns:svg="http://www.w3.org/2000/svg"
   xmlns="http://www.w3.org/2000/svg"
   xmlns:sodipodi="http://sodipodi.sourceforge.net/DTD/sodipodi-0.dtd"
   xmlns:inkscape="http://www.inkscape.org/namespaces/inkscape"
   width="450mm"
   height="60mm"
   viewBox="0 0 1594.4882 212.59842"
   id="svg2"
   version="1.1"
   inkscape:version="0.91 r13725"
   sodipodi:docname="tamil kaiyeluttut (calligraphy) bad.svg">
  <defs
     id="defs4" />
  <sodipodi:namedview
     id="base"
     pagecolor="#ffffff"
     bordercolor="#666666"
     borderopacity="1.0"
     inkscape:pageopacity="0.0"
     inkscape:pageshadow="2"
     inkscape:zoom="0.7"
     inkscape:cx="787.84715"
     inkscape:cy="37.542857"
     inkscape:document-units="px"
     inkscape:current-layer="text3348"
     showgrid="false"
     inkscape:window-width="1920"
     inkscape:window-height="1027"
     inkscape:window-x="-8"
     inkscape:window-y="-8"
     inkscape:window-maximized="1" />
  <metadata
     id="metadata7">
    <rdf:RDF>
      <cc:Work
         rdf:about="">
        <dc:format>image/svg+xml</dc:format>
        <dc:type
           rdf:resource="http://purl.org/dc/dcmitype/StillImage" />
        <dc:title></dc:title>
      </cc:Work>
    </rdf:RDF>
  </metadata>
  <g
     inkscape:label="Layer 1"
     inkscape:groupmode="layer"
     id="layer1"
     transform="translate(0,-839.76378)">
    <flowRoot
       xml:space="preserve"
       id="flowRoot3340"
       style="font-style:normal;font-weight:normal;font-size:40px;line-height:125%;font-family:sans-serif;letter-spacing:0px;word-spacing:0px;fill:#000000;fill-opacity:1;stroke:none;stroke-width:1px;stroke-linecap:butt;stroke-linejoin:miter;stroke-opacity:1"
       transform="translate(0,839.76378)"><flowRegion
         id="flowRegion3342"><rect
           id="rect3344"
           width="2180"
           height="485.71429"
           x="-122.85714"
           y="-81.687294" /></flowRegion><flowPara
         id="flowPara3346" /></flowRoot>    <g
       style="font-style:normal;font-weight:normal;font-size:40px;line-height:125%;font-family:sans-serif;letter-spacing:0px;word-spacing:0px;fill:#000000;fill-opacity:1;stroke:none;stroke-width:1px;stroke-linecap:butt;stroke-linejoin:miter;stroke-opacity:1"
       id="text3348">
      <path
         d="m 145.06278,971.75403 q 0,7.11914 -2.10938,12.83203 -2.02148,5.71289 -5.88867,9.84375 -3.86719,4.04297 -9.58008,6.24019 -5.625,2.1973 -12.74414,2.1973 -4.48242,0 -8.87695,-0.6152 -4.39453,-0.6153 -7.822265,-1.4942 l 0,-13.88668 q 3.164065,1.49414 7.294925,2.46093 4.13086,0.9668 8.61328,0.9668 7.91015,0 12.04101,-4.6582 4.13086,-4.7461 4.13086,-13.00782 0,-5.18554 -1.58203,-8.78906 -1.49414,-3.60351 -4.57031,-5.80078 -2.98828,-2.28516 -7.4707,-3.25195 -4.39454,-1.05469 -10.19532,-1.05469 l -16.435544,0 0,8.87695 q 0,10.98633 -2.8125,18.45703 -2.8125,7.38282 -8.613281,12.48047 -5.273437,4.57032 -12.919922,6.9434 -7.558593,2.373 -17.226562,2.373 -9.931641,0 -17.490235,-2.5488 -7.470703,-2.63674 -12.568359,-7.11916 -5.009766,-4.48242 -7.558594,-10.45898 -2.5488278,-5.97657 -2.5488278,-12.74414 0,-8.70118 3.3398438,-14.58985 3.339844,-5.97656 9.316406,-9.49219 2.021485,-1.23046 4.306641,-2.19726 2.285156,-0.9668 4.921875,-1.58203 l 0,-46.40625 99.931639,0 0,12.91992 -40.078124,0 0,32.25586 16.611324,0 q 8.96485,0 15.90821,1.66992 6.94336,1.58203 11.77734,4.92188 5.27344,3.86718 8.08594,9.84375 2.8125,5.97656 2.8125,14.41406 z m -69.609376,-18.01758 -31.728516,0 q -10.107422,0 -15.380859,3.69141 -5.273438,3.6914 -5.273438,12.21679 0,4.39453 1.582032,8.08594 1.669922,3.69141 4.921875,6.32813 3.251953,2.63671 8.085937,4.13086 4.833985,1.49414 11.16211,1.49414 13.535156,0 20.039062,-6.41602 6.591797,-6.50391 6.591797,-20.74219 l 0,-8.78906 z m 0,-45.08789 -31.113281,0 0,32.25586 31.113281,0 0,-32.25586 z"
         style="font-style:normal;font-variant:normal;font-weight:normal;font-stretch:normal;font-size:180px;font-family:'Nirmala UI';-inkscape-font-specification:'Nirmala UI'"
         id="path3353"
         inkscape:connector-curvature="0" />
      <path
         d="m 363.82985,947.32043 q 0,8.26172 -1.31836,15.82032 -1.31836,7.4707 -3.7793,14.41406 -2.37304,6.85547 -5.88867,13.27148 -3.51562,6.32813 -7.91016,12.30471 l -13.44726,-5.8008 q 9.14062,-11.77734 13.27148,-24.08203 4.13086,-12.39258 4.13086,-24.60938 0,-10.2832 -2.98828,-18.01757 -2.90039,-7.82227 -8.26172,-13.00782 -5.27343,-5.27343 -12.65625,-7.91015 -7.29492,-2.63672 -15.99609,-2.63672 -12.12891,0 -22.14844,4.13086 4.7461,4.13086 8.61328,9.22851 3.95508,5.00977 6.67969,10.98633 2.72461,5.97656 4.21875,12.91992 1.49414,6.94336 1.49414,14.85352 0,9.93164 -2.28516,18.01758 -2.19726,7.99804 -6.41601,13.71093 -4.21875,5.7129 -10.37109,8.87696 -6.06446,3.07616 -13.71094,3.07616 -7.82227,0 -13.88672,-2.98827 -6.06445,-3.07617 -10.2832,-8.61328 -4.21875,-5.625 -6.41602,-13.44727 -2.19727,-7.82226 -2.19727,-17.49023 0,-14.50196 5.09766,-26.80664 5.18555,-12.39258 14.67774,-21.44532 -12.12891,-5.00976 -27.15821,-5.00976 -11.07422,0 -20.74219,3.25195 -9.66796,3.16406 -16.875,9.14063 -7.11914,5.97656 -11.33789,14.58984 -4.13086,8.52539 -4.13086,19.24805 0,1.8457 0.26368,4.30664 l 0.52734,0 q 2.8125,-6.06446 8.87695,-9.84375 6.06446,-3.86719 14.58985,-3.86719 5.36133,0 10.19531,1.93359 4.83398,1.9336 8.34961,5.53711 3.60351,3.60352 5.71289,8.87696 2.10937,5.27343 2.10937,11.86523 0,6.67969 -2.19726,12.39258 -2.10938,5.625 -6.06445,9.75586 -3.86719,4.04297 -9.4043,6.32817 -5.44922,2.2851 -12.2168,2.2851 -8.78906,0 -15.38086,-3.86718 -6.5039,-3.95508 -10.89843,-10.63476 -4.30665,-6.67969 -6.50391,-15.46875 -2.10938,-8.78907 -2.10938,-18.54493 0,-14.9414 5.44922,-26.1914 5.44922,-11.33789 14.76563,-18.89649 9.40429,-7.64648 21.88476,-11.51367 12.56836,-3.86719 26.80664,-3.86719 10.19532,0 19.6875,2.19727 9.49219,2.19727 18.01758,6.67969 7.47071,-4.30664 16.17188,-6.5918 8.78906,-2.28516 18.7207,-2.28516 12.74414,0 22.85156,3.86719 10.10742,3.7793 17.13867,10.81055 7.11915,7.03125 10.89844,16.875 3.7793,9.84375 3.7793,21.88476 z m -70.92774,12.56836 q 0,-13.88671 -5.00976,-24.16992 -5.00977,-10.37109 -13.79883,-16.96289 -8.08594,6.85547 -12.48047,17.22656 -4.39453,10.3711 -4.39453,23.73047 0,6.94336 1.23047,12.48047 1.23047,5.53711 3.51562,9.49219 2.28516,3.86719 5.625,5.97656 3.42774,2.02149 7.73438,2.02149 8.78906,0 13.18359,-7.73438 4.39453,-7.82226 4.39453,-22.06055 z m -74.9707,13.1836 q 0,-3.60352 -1.05469,-6.67969 -0.96679,-3.07617 -2.90039,-5.36133 -1.8457,-2.28515 -4.74609,-3.51562 -2.8125,-1.31836 -6.50391,-1.31836 -3.51562,0 -6.59179,1.31836 -3.07618,1.31836 -5.36133,3.6914 -2.19727,2.28516 -3.51563,5.44922 -1.23047,3.07617 -1.23047,6.5918 0,3.95508 1.23047,7.20703 1.31836,3.25195 3.51563,5.53711 2.19726,2.28516 5.09765,3.60352 2.98829,1.23046 6.32813,1.23046 3.42773,0 6.32812,-1.14257 2.9004,-1.14258 4.92188,-3.33985 2.10937,-2.28515 3.25195,-5.53711 1.23047,-3.33984 1.23047,-7.73437 z"
         style="font-style:normal;font-variant:normal;font-weight:normal;font-stretch:normal;font-size:180px;font-family:'Nirmala UI';-inkscape-font-specification:'Nirmala UI'"
         id="path3355"
         inkscape:connector-curvature="0" />
      <path
         d="m 447.69657,1000.9337 0,-12.21678 -0.43946,0 q -1.40625,2.98828 -3.77929,5.625 -2.28516,2.54883 -5.53711,4.48242 -3.16407,1.84566 -7.11914,2.90036 -3.95508,1.1426 -8.5254,1.1426 -7.64648,0 -13.44726,-2.1094 -5.71289,-2.19723 -9.49219,-6.15231 -2.10937,-2.28516 -3.60351,-5.00976 -1.49414,-2.8125 -2.46094,-6.24024 -0.87891,-3.51562 -1.31836,-7.82226 -0.35156,-4.39454 -0.35156,-9.75586 l 0,-70.04883 14.41406,0 0,68.55469 q 0,4.04296 0.17578,7.20703 0.17578,3.07617 0.61523,5.53711 0.52735,2.37304 1.31836,4.21875 0.87891,1.8457 2.10938,3.25195 4.48242,5.18555 13.62305,5.18555 11.25,0 16.69921,-8.17383 5.53711,-8.26172 5.53711,-23.64258 l 0,-62.13867 14.41407,0 0,92.28515 65.74218,0 0,-92.28515 14.41407,0 0,105.20506 -92.98828,0 z"
         style="font-style:normal;font-variant:normal;font-weight:normal;font-stretch:normal;font-size:180px;font-family:'Nirmala UI';-inkscape-font-specification:'Nirmala UI'"
         id="path3359"
         inkscape:connector-curvature="0" />
      <path
         d="m 701.39947,940.72864 -0.43946,60.20506 -14.41406,0 0.52735,-59.50194 0,-4.6582 q 0,-14.85352 -2.37305,-25.48828 -2.37305,-10.72266 -8.17383,-17.92969 -5.27344,-6.50391 -14.15039,-10.37109 -8.87695,-3.95508 -21.79687,-3.95508 -11.07422,0 -21.09375,3.86719 -9.93165,3.86718 -17.49024,10.98632 -7.4707,7.11915 -11.95312,17.22657 -4.39454,10.01953 -4.39454,22.41211 0,8.96484 1.49415,17.22656 1.58203,8.17383 5.00976,15.38086 3.51563,7.11914 9.14063,13.0957 5.71289,5.88867 13.88671,10.19531 l 0.35157,-0.35156 q -3.69141,-3.33984 -5.88867,-7.91015 -2.19727,-4.65821 -2.19727,-10.19532 0,-6.15234 2.19727,-11.07422 2.28515,-5.00976 6.24023,-8.52539 3.95508,-3.60351 9.4043,-5.53711 5.44922,-1.93359 11.95312,-1.93359 6.06445,0 11.25,1.93359 5.27344,1.84571 9.14063,5.53711 3.95507,3.60352 6.15234,8.78907 2.19727,5.18554 2.19727,11.77734 0,8.52539 -4.04297,15.29297 -3.95508,6.67969 -11.42578,10.72265 -4.48243,2.46097 -10.45899,3.69137 -5.88867,1.2305 -11.51367,1.2305 -9.31641,0 -17.22656,-2.5488 -7.82227,-2.63674 -14.23828,-7.29494 -6.41602,-4.74609 -11.33789,-11.16211 -4.92188,-6.41602 -8.26172,-14.0625 -3.25196,-7.64648 -5.00977,-16.17187 -1.66992,-8.61329 -1.66992,-17.57813 0,-11.68945 2.90039,-21.26953 2.98828,-9.66797 8.08594,-17.22656 5.09765,-7.64649 11.95312,-13.1836 6.85547,-5.625 14.67774,-9.22851 7.82226,-3.69141 16.17187,-5.44922 8.4375,-1.8457 16.52344,-1.8457 17.05078,0 28.65234,5.00976 11.60157,4.92188 18.63282,13.27149 6.85546,8.3496 9.93164,21.09375 3.07617,12.65625 3.07617,30.9375 l 0,4.57031 z m -49.83399,32.16797 q 0,-7.82227 -4.04297,-12.12891 -4.04296,-4.30664 -10.89843,-4.30664 -3.69141,0 -6.67969,1.23047 -2.98828,1.23047 -5.09766,3.33984 -2.10937,2.10938 -3.33984,5.00977 -1.14258,2.90039 -1.14258,6.24023 0,2.8125 0.61524,5.625 0.61523,2.72461 1.8457,5.18555 1.31836,2.46094 3.25195,4.48242 2.02149,2.02149 4.83399,3.33984 9.93164,-0.35156 15.29297,-5.18554 5.36132,-4.83399 5.36132,-12.83203 z"
         style="font-style:normal;font-variant:normal;font-weight:normal;font-stretch:normal;font-size:180px;font-family:'Nirmala UI';-inkscape-font-specification:'Nirmala UI'"
         id="path3361"
         inkscape:connector-curvature="0" />
      <path
         d="m 880.09792,955.31848 q 0,9.84375 -1.582,18.7207 -1.5821,8.78907 -3.8672,16.34766 l -62.0508,0 0,14.67776 35.9473,0 0,12.3926 -44.209,0 q -2.5489,0 -4.1309,0.791 -1.4941,0.791 -3.3398,3.2519 -0.7032,0.9668 -1.4063,1.8457 -0.7031,0.9668 -1.4062,2.0215 -5.4493,7.5586 -12.5684,11.6895 -7.1191,4.2187 -17.3144,4.2187 -5.9766,0 -10.9864,-1.582 -4.9218,-1.582 -8.4375,-4.4824 -3.5156,-2.9004 -5.4492,-7.0313 -1.9336,-4.1308 -1.9336,-9.1406 0,-4.1309 1.4063,-7.7344 1.4062,-3.6035 3.955,-6.3281 2.6368,-2.6367 6.3282,-4.1309 3.7793,-1.58201 8.4375,-1.58201 3.6914,0 6.8554,0.96681 3.1641,0.8789 5.4493,2.5488 2.373,1.7578 3.6914,4.2188 1.4062,2.4609 1.4062,5.625 0,2.2851 -0.9668,4.5703 -0.8789,2.373 -2.5488,3.9551 l -10.1074,-4.3946 q 0.7031,-0.7031 0.9668,-1.6699 0.3515,-0.9668 0.3515,-1.9336 0,-1.7578 -1.3183,-2.9883 -1.2305,-1.2304 -3.7793,-1.2304 -3.252,0 -5.2735,2.1972 -1.9336,2.1973 -1.9336,6.7676 0,2.9883 1.0547,5.1856 1.1426,2.2851 2.9883,3.7793 1.9336,1.4941 4.4824,2.1972 2.6367,0.791 5.625,0.791 3.4278,0 6.1524,-0.9668 2.8125,-0.8789 5.1855,-2.5488 2.3731,-1.6699 4.3067,-3.9551 2.0214,-2.2851 3.8671,-4.9218 0.879,-1.2305 1.7579,-2.5489 0.8789,-1.3183 1.6699,-2.6367 2.5488,-3.7793 5.1855,-5.3613 2.7246,-1.4942 5.625,-1.6699 l 0,-14.85356 -58.4472,0 0,-94.6582 14.414,0 0,81.73828 44.0332,0 0,-46.8457 q 0,-19.16016 8.6133,-27.94922 8.6133,-8.78907 25.1367,-8.78907 13.2715,0 22.4121,5.00977 9.2286,4.92188 14.9414,13.35938 5.7129,8.4375 8.2618,19.5996 2.5488,11.07422 2.5488,23.4668 z m -14.9414,0.61524 q 0,-9.84375 -1.4942,-18.63282 -1.4062,-8.87695 -5.1855,-15.55664 -3.7793,-6.76758 -10.1953,-10.72265 -6.416,-3.95508 -16.2598,-3.95508 -5.4492,0 -9.1406,1.49414 -3.6914,1.40625 -5.9766,4.48242 -2.2851,2.98828 -3.3398,7.73438 -0.9668,4.6582 -0.9668,11.07421 l 0,45.52735 49.834,0 q 2.7246,-9.84375 2.7246,-21.44531 z"
         style="font-style:normal;font-variant:normal;font-weight:normal;font-stretch:normal;font-size:180px;font-family:'Nirmala UI';-inkscape-font-specification:'Nirmala UI'"
         id="path3365"
         inkscape:connector-curvature="0" />
      <path
         d="m 995.26333,932.20325 q 0,6.59179 -2.0215,11.60156 -2.0215,5.00977 -5.7129,8.34961 -3.6914,3.25195 -9.0527,4.92187 -5.2734,1.66993 -11.8652,1.66993 -6.5918,0 -11.9532,-1.66993 -5.3613,-1.66992 -9.1406,-4.92187 -3.7793,-3.33984 -5.8887,-8.34961 -2.0214,-5.00977 -2.0214,-11.60156 l 0,-23.55469 -75.6739,0 0,-12.91992 133.3301,0 0,36.47461 z m -14.4141,-23.55469 -28.8281,0 0,23.02734 q 0,7.11914 3.9551,10.54688 3.9551,3.33984 10.6348,3.33984 3.0761,0 5.7129,-0.79101 2.6367,-0.79102 4.4824,-2.46094 1.9336,-1.66992 2.9883,-4.30664 1.0546,-2.63672 1.0546,-6.32813 l 0,-23.02734 z"
         style="font-style:normal;font-variant:normal;font-weight:normal;font-stretch:normal;font-size:180px;font-family:'Nirmala UI';-inkscape-font-specification:'Nirmala UI'"
         id="path3369"
         inkscape:connector-curvature="0" />
      <path
         d="m 1149.5571,977.99426 q 0,11.51367 -4.2187,20.30274 -4.2188,8.7891 -12.041,14.6777 -7.8223,5.9766 -19.0723,8.9649 -11.1621,3.0761 -25.2246,3.0761 -13.6231,0 -26.6309,-0.088 -13.0078,0 -25.3125,0 -5.2734,0 -7.4707,1.2304 -2.1093,1.3184 -2.1093,4.6582 0,2.0215 0.4394,3.9551 0.5273,1.9336 1.4941,3.8672 l -12.9199,0 q -0.9668,-2.1973 -1.7578,-4.834 -0.7031,-2.5488 -0.7031,-5.2734 0,-8.3496 5.4492,-12.3047 5.4492,-3.9551 15.9961,-3.9551 5.0977,0 11.6895,0 6.5917,0 13.7988,0 7.207,0.088 14.5898,0.088 7.4707,0 14.2383,0 3.0762,0 5.8887,-0.088 2.9004,-0.088 5.5371,-0.4394 7.9101,-1.1426 14.0625,-3.8672 6.2402,-2.6368 10.5469,-6.8555 4.3066,-4.13086 6.5039,-9.66797 2.2851,-5.625 2.2851,-12.56836 0,-7.11914 -2.0215,-11.86524 -1.9336,-4.83398 -5.4492,-7.73437 -3.4277,-2.98828 -8.2617,-4.21875 -4.834,-1.31836 -10.459,-1.31836 l -10.459,0 0,8.87695 q 0,10.98633 -2.9004,18.45703 -2.8125,7.38282 -8.6132,12.48047 -5.2735,4.57032 -12.8321,6.9434 -7.5586,2.373 -17.2265,2.373 -9.9317,0 -17.4903,-2.5488 -7.5586,-2.63674 -12.6562,-7.11916 -5.0098,-4.48242 -7.5586,-10.45898 -2.5488,-5.97657 -2.5488,-12.74414 0,-11.51368 5.8886,-18.54493 5.9766,-7.03125 15.9961,-9.3164 l 0,-46.40625 100.0196,0 0,12.91992 -40.0782,0 0,32.25586 9.8438,0 q 9.4922,0 17.1387,2.10937 7.7343,2.10938 13.1835,6.5918 5.4493,4.48242 8.4375,11.51367 2.9883,7.03125 2.9883,16.875 z m -66.0058,-24.25781 -31.8164,0 q -10.1075,0 -15.3809,3.69141 -5.2734,3.6914 -5.2734,12.21679 0,4.39453 1.582,8.08594 1.6699,3.69141 4.9219,6.32813 3.2519,2.63671 8.0859,4.13086 4.834,1.49414 11.25,1.49414 13.5352,0 20.0391,-6.41602 6.5918,-6.50391 6.5918,-20.74219 l 0,-8.78906 z m 0,-45.08789 -31.2012,0 0,32.25586 31.2012,0 0,-32.25586 z"
         style="font-style:normal;font-variant:normal;font-weight:normal;font-stretch:normal;font-size:180px;font-family:'Nirmala UI';-inkscape-font-specification:'Nirmala UI'"
         id="path3371"
         inkscape:connector-curvature="0" />
      <path
         d="m 1306.0024,977.99426 q 0,11.51367 -4.2187,20.30274 -4.2188,8.7891 -12.041,14.6777 -7.8223,5.9766 -19.0723,8.9649 -11.1621,3.0761 -25.2246,3.0761 -13.623,0 -26.6309,-0.088 -13.0078,0 -25.3125,0 -5.2734,0 -7.4707,1.2304 -2.1093,1.3184 -2.1093,4.6582 0,2.0215 0.4394,3.9551 0.5274,1.9336 1.4942,3.8672 l -12.92,0 q -0.9668,-2.1973 -1.7578,-4.834 -0.7031,-2.5488 -0.7031,-5.2734 0,-8.3496 5.4492,-12.3047 5.4492,-3.9551 15.9961,-3.9551 5.0977,0 11.6895,0 6.5918,0 13.7988,0 7.207,0.088 14.5898,0.088 7.4707,0 14.2383,0 3.0762,0 5.8887,-0.088 2.9004,-0.088 5.5371,-0.4394 7.9102,-1.1426 14.0625,-3.8672 6.2402,-2.6368 10.5469,-6.8555 4.3066,-4.13086 6.5039,-9.66797 2.2851,-5.625 2.2851,-12.56836 0,-7.11914 -2.0214,-11.86524 -1.9336,-4.83398 -5.4493,-7.73437 -3.4277,-2.98828 -8.2617,-4.21875 -4.834,-1.31836 -10.459,-1.31836 l -10.459,0 0,8.87695 q 0,10.98633 -2.9003,18.45703 -2.8125,7.38282 -8.6133,12.48047 -5.2735,4.57032 -12.8321,6.9434 -7.5586,2.373 -17.2265,2.373 -9.9317,0 -17.4903,-2.5488 -7.5585,-2.63674 -12.6562,-7.11916 -5.0098,-4.48242 -7.5586,-10.45898 -2.5488,-5.97657 -2.5488,-12.74414 0,-11.51368 5.8886,-18.54493 5.9766,-7.03125 15.9961,-9.3164 l 0,-46.40625 100.0196,0 0,12.91992 -40.0782,0 0,32.25586 9.8438,0 q 9.4922,0 17.1387,2.10937 7.7343,2.10938 13.1836,6.5918 5.4492,4.48242 8.4375,11.51367 2.9882,7.03125 2.9882,16.875 z m -66.0058,-24.25781 -31.8164,0 q -10.1074,0 -15.3809,3.69141 -5.2734,3.6914 -5.2734,12.21679 0,4.39453 1.582,8.08594 1.6699,3.69141 4.9219,6.32813 3.2519,2.63671 8.0859,4.13086 4.834,1.49414 11.25,1.49414 13.5352,0 20.0391,-6.41602 6.5918,-6.50391 6.5918,-20.74219 l 0,-8.78906 z m 0,-45.08789 -31.2012,0 0,32.25586 31.2012,0 0,-32.25586 z"
         style="font-style:normal;font-variant:normal;font-weight:normal;font-stretch:normal;font-size:180px;font-family:'Nirmala UI';-inkscape-font-specification:'Nirmala UI'"
         id="path3375"
         inkscape:connector-curvature="0" />
      <path
         d="m 1409.5722,932.20325 q 0,6.59179 -2.0215,11.60156 -2.0214,5.00977 -5.7129,8.34961 -3.6914,3.25195 -9.0527,4.92187 -5.2734,1.66993 -11.8652,1.66993 -6.5918,0 -11.9531,-1.66993 -5.3614,-1.66992 -9.1407,-4.92187 -3.7793,-3.33984 -5.8886,-8.34961 -2.0215,-5.00977 -2.0215,-11.60156 l 0,-23.55469 -75.6739,0 0,-12.91992 133.3301,0 0,36.47461 z m -14.414,-23.55469 -28.8282,0 0,23.02734 q 0,7.11914 3.9551,10.54688 3.9551,3.33984 10.6348,3.33984 3.0762,0 5.7129,-0.79101 2.6367,-0.79102 4.4824,-2.46094 1.9336,-1.66992 2.9883,-4.30664 1.0547,-2.63672 1.0547,-6.32813 l 0,-23.02734 z"
         style="font-style:normal;font-variant:normal;font-weight:normal;font-stretch:normal;font-size:180px;font-family:'Nirmala UI';-inkscape-font-specification:'Nirmala UI'"
         id="path3379"
         inkscape:connector-curvature="0" />
      <path
         d="m 1566.8964,977.99426 q 0,11.51367 -4.2187,20.30274 -4.2188,8.7891 -12.041,14.6777 -7.8223,5.9766 -19.0723,8.9649 -11.1621,3.0761 -25.2246,3.0761 -13.623,0 -26.6309,-0.088 -13.0078,0 -25.3125,0 -5.2734,0 -7.4707,1.2304 -2.1093,1.3184 -2.1093,4.6582 0,2.0215 0.4394,3.9551 0.5274,1.9336 1.4942,3.8672 l -12.92,0 q -0.9668,-2.1973 -1.7578,-4.834 -0.7031,-2.5488 -0.7031,-5.2734 0,-8.3496 5.4492,-12.3047 5.4492,-3.9551 15.9961,-3.9551 5.0977,0 11.6895,0 6.5918,0 13.7988,0 7.207,0.088 14.5898,0.088 7.4707,0 14.2383,0 3.0762,0 5.8887,-0.088 2.9004,-0.088 5.5371,-0.4394 7.9102,-1.1426 14.0625,-3.8672 6.2402,-2.6368 10.5469,-6.8555 4.3066,-4.13086 6.5039,-9.66797 2.2851,-5.625 2.2851,-12.56836 0,-7.11914 -2.0214,-11.86524 -1.9336,-4.83398 -5.4493,-7.73437 -3.4277,-2.98828 -8.2617,-4.21875 -4.834,-1.31836 -10.459,-1.31836 l -10.459,0 0,8.87695 q 0,10.98633 -2.9003,18.45703 -2.8125,7.38282 -8.6133,12.48047 -5.2735,4.57032 -12.8321,6.9434 -7.5586,2.373 -17.2265,2.373 -9.9317,0 -17.4903,-2.5488 -7.5585,-2.63674 -12.6562,-7.11916 -5.0098,-4.48242 -7.5586,-10.45898 -2.5488,-5.97657 -2.5488,-12.74414 0,-11.51368 5.8886,-18.54493 5.9766,-7.03125 15.9961,-9.3164 l 0,-46.40625 100.0196,0 0,12.91992 -40.0782,0 0,32.25586 9.8438,0 q 9.4922,0 17.1387,2.10937 7.7343,2.10938 13.1836,6.5918 5.4492,4.48242 8.4375,11.51367 2.9882,7.03125 2.9882,16.875 z m -66.0058,-24.25781 -31.8164,0 q -10.1074,0 -15.3809,3.69141 -5.2734,3.6914 -5.2734,12.21679 0,4.39453 1.582,8.08594 1.6699,3.69141 4.9219,6.32813 3.2519,2.63671 8.0859,4.13086 4.834,1.49414 11.25,1.49414 13.5352,0 20.0391,-6.41602 6.5918,-6.50391 6.5918,-20.74219 l 0,-8.78906 z m 0,-45.08789 -31.2012,0 0,32.25586 31.2012,0 0,-32.25586 z"
         style="font-style:normal;font-variant:normal;font-weight:normal;font-stretch:normal;font-size:180px;font-family:'Nirmala UI';-inkscape-font-specification:'Nirmala UI'"
         id="path3381"
         inkscape:connector-curvature="0" />
      <path
         d="m 1521.1054,862.15442 q 0,2.72461 -0.9668,5.09766 -1.0547,2.37304 -2.8125,4.13085 -1.7578,1.75782 -4.1308,2.8125 -2.3731,0.9668 -5.0977,0.9668 -2.7246,0 -5.0976,-0.9668 -2.3731,-1.05468 -4.1309,-2.8125 -1.7578,-1.75781 -2.7246,-4.13085 -1.0547,-2.37305 -1.0547,-5.09766 0,-2.72461 1.0547,-5.09766 0.9668,-2.46093 2.7246,-4.21875 1.7578,-1.75781 4.1309,-2.8125 2.373,-1.05468 5.0976,-1.05468 2.7246,0 5.0977,1.05468 2.373,1.05469 4.1308,2.8125 1.7578,1.75782 2.8125,4.21875 0.9668,2.37305 0.9668,5.09766 z"
         style="font-style:normal;font-variant:normal;font-weight:normal;font-stretch:normal;font-size:180px;font-family:'Nirmala UI';-inkscape-font-specification:'Nirmala UI'"
         id="path3383"
         inkscape:connector-curvature="0" />
      <path
         d="m 1103.846,862.12049 q 0,2.72461 -0.9668,5.09766 -1.0547,2.37304 -2.8125,4.13085 -1.7578,1.75782 -4.1308,2.8125 -2.3731,0.9668 -5.0977,0.9668 -2.7246,0 -5.0976,-0.9668 -2.3731,-1.05468 -4.1309,-2.8125 -1.7578,-1.75781 -2.7246,-4.13085 -1.0547,-2.37305 -1.0547,-5.09766 0,-2.72461 1.0547,-5.09766 0.9668,-2.46093 2.7246,-4.21875 1.7578,-1.75781 4.1309,-2.8125 2.373,-1.05468 5.0976,-1.05468 2.7246,0 5.0977,1.05468 2.373,1.05469 4.1308,2.8125 1.7578,1.75782 2.8125,4.21875 0.9668,2.37305 0.9668,5.09766 z"
         style="font-style:normal;font-variant:normal;font-weight:normal;font-stretch:normal;font-size:180px;line-height:125%;font-family:'Nirmala UI';-inkscape-font-specification:'Nirmala UI';letter-spacing:0px;word-spacing:0px;fill:#000000;fill-opacity:1;stroke:none;stroke-width:1px;stroke-linecap:butt;stroke-linejoin:miter;stroke-opacity:1"
         id="path3383-2"
         inkscape:connector-curvature="0" />
    </g>
  </g>
</svg>
