<?xml version="1.0" encoding="UTF-8" standalone="no"?>
<!-- Created with Inkscape (http://www.inkscape.org/) -->

<svg
   xmlns:dc="http://purl.org/dc/elements/1.1/"
   xmlns:cc="http://creativecommons.org/ns#"
   xmlns:rdf="http://www.w3.org/1999/02/22-rdf-syntax-ns#"
   xmlns:svg="http://www.w3.org/2000/svg"
   xmlns="http://www.w3.org/2000/svg"
   xmlns:sodipodi="http://sodipodi.sourceforge.net/DTD/sodipodi-0.dtd"
   xmlns:inkscape="http://www.inkscape.org/namespaces/inkscape"
   width="320mm"
   height="60mm"
   viewBox="0 0 1133.8583 212.59842"
   id="svg2"
   version="1.1"
   inkscape:version="0.91 r13725"
   sodipodi:docname="devanagari hastalipi-vidya (calligraphy) good.svg">
  <defs
     id="defs4" />
  <sodipodi:namedview
     id="base"
     pagecolor="#ffffff"
     bordercolor="#666666"
     borderopacity="1.0"
     inkscape:pageopacity="0.0"
     inkscape:pageshadow="2"
     inkscape:zoom="0.35"
     inkscape:cx="375"
     inkscape:cy="520"
     inkscape:document-units="px"
     inkscape:current-layer="layer1"
     showgrid="false"
     inkscape:window-width="1920"
     inkscape:window-height="1027"
     inkscape:window-x="-8"
     inkscape:window-y="-8"
     inkscape:window-maximized="1" />
  <metadata
     id="metadata7">
    <rdf:RDF>
      <cc:Work
         rdf:about="">
        <dc:format>image/svg+xml</dc:format>
        <dc:type
           rdf:resource="http://purl.org/dc/dcmitype/StillImage" />
        <dc:title />
      </cc:Work>
    </rdf:RDF>
  </metadata>
  <g
     inkscape:label="Layer 1"
     inkscape:groupmode="layer"
     id="layer1"
     transform="translate(0,-839.76378)">
    <g
       style="font-style:normal;font-weight:normal;font-size:40px;line-height:125%;font-family:sans-serif;letter-spacing:0px;word-spacing:0px;fill:#000000;fill-opacity:1;stroke:none;stroke-width:1px;stroke-linecap:butt;stroke-linejoin:miter;stroke-opacity:1"
       id="text3336">
      <path
         d="m 127.62277,913.2663 -32.255863,0 0,29.17968 -39.814453,0 q -2.373047,0 -4.482422,0.87891 -2.021484,0.87891 -3.603516,2.46094 -1.49414,1.49414 -2.460937,3.51562 -0.878906,2.02149 -0.878906,4.30664 0,3.33985 1.49414,6.15235 1.582032,2.72461 4.21875,4.39453 4.306641,-2.54883 9.667969,-4.04297 5.449219,-1.49414 12.216797,-1.49414 8.4375,0 14.765625,2.46094 6.328125,2.37304 10.458984,6.32812 4.130862,3.95508 6.152342,9.14063 2.10938,5.09765 2.10938,10.54687 0,4.21875 -1.40625,7.91016 -1.31836,3.6914 -3.25196,6.76762 -1.845699,3.0761 -3.955074,5.3613 -2.021485,2.1972 -3.427735,3.5156 l -10.810546,-10.0195 q 0.878906,-0.96682 2.197265,-2.19729 1.31836,-1.23047 2.548828,-2.72461 1.31836,-1.58203 2.197266,-3.42773 0.966797,-1.8457 0.966797,-3.95508 0,-2.10937 -0.791016,-4.6582 -0.703125,-2.63672 -2.8125,-4.83399 -2.021484,-2.28515 -5.800781,-3.77929 -3.691406,-1.58204 -9.667969,-1.58204 -4.921875,0 -9.404297,1.49415 -4.482422,1.40625 -7.910156,4.13085 -3.427734,2.72461 -5.537109,6.67969 -2.021485,3.86719 -2.021485,8.78906 0,8.08598 3.339844,13.88668 3.427734,5.7129 8.613281,9.9317 5.273438,4.2187 11.513672,7.207 6.240235,3.0762 11.953125,5.625 l -6.943359,12.3926 q -4.921875,-1.4063 -10.019531,-3.6914 -5.097657,-2.1973 -9.931641,-5.3613 -4.833984,-3.0762 -9.140625,-7.1192 -4.21875,-3.9551 -7.470703,-8.9648 -3.164063,-5.0098 -5.009766,-10.9864 -1.845703,-5.9765 -1.845703,-13.00777 0,-2.10937 0.439453,-4.6582 0.439453,-2.54883 1.40625,-5.27344 1.054688,-2.8125 2.548828,-5.625 1.494141,-2.8125 3.603516,-5.53711 -4.570313,-3.6914 -7.382813,-8.87695 -2.8125,-5.18555 -2.8125,-10.89844 0,-5.00976 1.757813,-9.49218 1.757812,-4.48243 4.921875,-7.91016 3.164062,-3.42773 7.470703,-5.36133 4.394531,-2.02148 9.580078,-2.02148 l 26.982422,0 0,-15.55664 -57.041016,0 0,-14.0625 104.765629,0 0,14.0625 z"
         style="font-style:normal;font-variant:normal;font-weight:normal;font-stretch:normal;font-size:180px;font-family:'Mangal Sample';-inkscape-font-specification:'Mangal Sample'"
         id="path3336" />
      <path
         d="m 227.11495,966.87958 -56.16211,0 q -3.42773,9.40429 -13.35937,11.51367 l 30.9375,36.56245 -11.95313,10.1075 -51.67968,-60.99612 12.04101,-10.10742 9.58008,11.42578 q 0.43945,0.52734 1.93359,0.52734 12.2168,0 12.2168,-27.77344 l 0,-24.87304 -39.19922,0 0,-14.0625 109.6875,0 0,14.0625 -55.01953,0 0,24.87304 q 0,9.31641 -0.79101,14.67774 l 51.76757,0 0,14.0625 z"
         style="font-style:normal;font-variant:normal;font-weight:normal;font-stretch:normal;font-size:180px;font-family:'Mangal Sample';-inkscape-font-specification:'Mangal Sample'"
         id="path3338" />
      <path
         d="m 350.86495,913.2663 -25.04882,0 0,101.9531 -15.46875,0 0,-56.51365 -44.29688,0 q -8.34961,0 -13.35937,4.92187 -5.00977,4.92188 -5.00977,13.00782 0,11.25 9.05273,21.70898 2.10938,2.54878 17.66602,16.43558 l -12.12891,10.459 q -30.05859,-27.15825 -30.05859,-47.54888 0,-15.11718 8.17383,-24.08203 8.26172,-8.96484 23.29101,-8.96484 l 46.66993,0 0,-31.37695 -85.51758,0 0,-14.0625 126.03515,0 0,14.0625 z m -64.24804,107.5781 0,0 z m 0,-115.22459 0,0 z m 31.46484,0 0,0 z m 0,102.04099 0,0 z"
         style="font-style:normal;font-variant:normal;font-weight:normal;font-stretch:normal;font-size:180px;font-family:'Mangal Sample';-inkscape-font-specification:'Mangal Sample'"
         id="path3340" />
      <path
         d="m 431.19699,876.79169 0,0 z m 85.95703,26.01562 -5.88868,9.14063 q -33.92578,-23.20313 -51.41601,-31.20117 -30.49805,-14.41407 -57.04102,-14.41407 -13.97461,0 -23.73047,4.57032 -13.00781,6.06445 -13.00781,18.7207 0,6.67969 6.24024,9.58008 l 34.98047,0 0,14.0625 -26.63086,0 0,101.9531 -15.46875,0 0,-101.9531 -20.47852,0 0,-14.0625 9.05273,0 q -2.37304,-4.83399 -2.37304,-11.16211 0,-18.8086 16.61133,-28.56446 13.62304,-7.99804 33.75,-7.99804 52.38281,0 115.40039,51.32812 z m -85.95703,104.85349 0,0 z"
         style="font-style:normal;font-variant:normal;font-weight:normal;font-stretch:normal;font-size:180px;font-family:'Mangal Sample';-inkscape-font-specification:'Mangal Sample'"
         id="path3342" />
      <path
         d="m 538.77511,913.2663 -26.80664,0 0,101.9531 -15.46875,0 0,-49.57029 -34.7168,19.16016 -7.64648,-12.30469 12.48047,-7.29492 q -5.80078,-12.56836 -19.6875,-12.56836 -17.75391,0 -17.75391,17.31445 0,15.46875 24.96094,42.62695 l -13.35938,5.8887 q -12.91992,-13.9746 -18.36914,-21.88479 -9.84375,-14.32617 -9.84375,-26.01563 0,-15.73242 10.10742,-24.87304 9.4043,-8.61328 24.25782,-8.61328 10.10742,0 18.98437,5.80078 9.22852,6.06445 12.30469,15.55664 l 18.28125,-10.01953 0,-35.15625 -95.53711,0 0,-14.0625 137.8125,0 0,14.0625 z m -71.89453,94.3945 0,0 z m 0,-102.04099 0,0 z m 37.35351,0 0,0 z m 0,102.04099 0,0 z"
         style="font-style:normal;font-variant:normal;font-weight:normal;font-stretch:normal;font-size:180px;font-family:'Mangal Sample';-inkscape-font-specification:'Mangal Sample'"
         id="path3344" />
      <path
         d="m 596.43136,876.79169 0,0 z m 83.23242,25.22461 -5.18554,10.01953 q -53.87696,-44.29688 -93.33985,-45.17578 -11.33789,0 -18.7207,3.95507 -9.22852,5.00977 -9.22852,15.46875 0,8.78907 7.38282,12.91993 l 34.45312,0 0,14.0625 -26.63086,0 0,101.9531 -15.46875,0 0,-101.9531 -20.47851,0 0,-14.0625 9.05273,0 q -2.98828,-6.50391 -2.98828,-13.71094 0,-16.78711 12.1289,-25.40039 10.72266,-7.64649 28.125,-7.64649 26.36719,0 55.54688,16.43555 17.92969,10.37109 45.35156,33.13477 z m -83.23242,105.6445 0,0 z"
         style="font-style:normal;font-variant:normal;font-weight:normal;font-stretch:normal;font-size:180px;font-family:'Mangal Sample';-inkscape-font-specification:'Mangal Sample'"
         id="path3346" />
      <path
         d="m 702.9548,913.2663 -26.80664,0 0,101.9531 -15.46875,0 0,-42.0117 q -10.28321,6.85547 -22.93946,6.85547 -15.02929,0 -26.10351,-9.05273 -11.86524,-9.58008 -11.86524,-24.34571 l 0,-33.39843 -11.07421,0 0,-14.0625 114.25781,0 0,14.0625 z m -60.11719,94.3945 0,0 z m 0,-102.04099 0,0 z m 17.8418,50.88867 0,-43.24218 -45.43946,0 0,29.53125 q 0,10.89843 7.82227,16.96289 6.67969,5.09765 16.34766,5.09765 11.77734,0 21.26953,-8.34961 z m 7.73437,-50.88867 0,0 z m 0,102.04099 0,0 z"
         style="font-style:normal;font-variant:normal;font-weight:normal;font-stretch:normal;font-size:180px;font-family:'Mangal Sample';-inkscape-font-specification:'Mangal Sample'"
         id="path3348" />
      <path
         d="m 752.87667,975.22919 -50.09765,0 0,-16.52344 50.09765,0 0,16.52344 z"
         style="font-style:normal;font-variant:normal;font-weight:normal;font-stretch:normal;font-size:180px;font-family:'Mangal Sample';-inkscape-font-specification:'Mangal Sample'"
         id="path3350" />
      <path
         d="m 822.83761,876.79169 0,0 z m 83.23242,25.22461 -5.18554,10.01953 q -53.87696,-44.29688 -93.33985,-45.17578 -11.33789,0 -18.7207,3.95507 -9.22852,5.00977 -9.22852,15.46875 0,8.78907 7.38282,12.91993 l 34.45312,0 0,14.0625 -26.63086,0 0,101.9531 -15.46875,0 0,-101.9531 -20.47851,0 0,-14.0625 9.05273,0 q -2.98828,-6.50391 -2.98828,-13.71094 0,-16.78711 12.1289,-25.40039 10.72266,-7.64649 28.125,-7.64649 26.36719,0 55.54688,16.43555 17.92969,10.37109 45.35156,33.13477 z m -83.23242,105.6445 0,0 z"
         style="font-style:normal;font-variant:normal;font-weight:normal;font-stretch:normal;font-size:180px;font-family:'Mangal Sample';-inkscape-font-specification:'Mangal Sample'"
         id="path3352" />
      <path
         d="m 929.36105,913.2663 -26.80664,0 0,101.9531 -15.46875,0 0,-26.27928 q -3.69141,2.8125 -7.38282,4.65821 -3.6914,1.8457 -7.4707,2.98828 -3.7793,1.05469 -7.64648,1.49414 -3.7793,0.43945 -7.64649,0.43945 -7.11914,0 -13.35937,-2.72461 -6.24024,-2.72461 -10.81055,-7.38281 -4.57031,-4.74609 -7.20703,-10.98633 -2.63672,-6.32812 -2.63672,-13.53515 0,-7.38282 2.90039,-13.44727 2.90039,-6.15234 7.99805,-10.54687 5.09765,-4.39454 12.04101,-6.76758 7.03125,-2.46094 15.20508,-2.46094 4.48242,0 8.34961,0.70313 3.95508,0.70312 7.20703,1.75781 3.33985,0.96679 5.97657,2.10937 2.63671,1.14258 4.48242,2.10938 l 0,-24.08203 -71.98242,0 0,-14.0625 114.25781,0 0,14.0625 z m -42.27539,37.88086 q -2.37305,-1.31836 -5.44922,-2.63672 -3.07617,-1.31836 -6.50391,-2.46094 -3.33984,-1.14258 -6.85547,-1.8457 -3.51562,-0.70313 -6.67968,-0.70313 -8.52539,0 -13.44727,2.37305 -4.92187,2.37305 -7.4707,5.71289 -2.46094,3.33984 -3.16407,6.94336 -0.61523,3.60351 -0.61523,6.15234 0,4.30664 1.66992,8.08594 1.66992,3.69141 4.57031,6.50391 2.9004,2.72461 6.85547,4.30664 3.95508,1.58203 8.4375,1.58203 5.88868,0 10.72266,-1.58203 4.92187,-1.66993 8.61328,-3.7793 3.69141,-2.19727 6.06445,-4.30664 2.37305,-2.19727 3.25196,-3.25195 l 0,-21.09375 z"
         style="font-style:normal;font-variant:normal;font-weight:normal;font-stretch:normal;font-size:180px;font-family:'Mangal Sample';-inkscape-font-specification:'Mangal Sample'"
         id="path3354" />
      <path
         d="m 1048.1892,913.2663 -26.7188,0 0,101.9531 -15.4687,0 0,-23.90623 q -13.3594,10.89843 -29.26761,10.89843 -11.60156,0 -19.07226,-6.67968 -7.38281,-6.67969 -6.94336,-15.82031 0,-0.9668 0.17578,-3.95508 -9.66797,-1.23047 -16.34766,-9.14062 -6.67968,-7.91016 -6.67968,-17.75391 0,-19.59961 19.24804,-19.59961 l 9.66797,0 0,-15.99609 -33.75,0 0,-14.0625 125.15628,0 0,14.0625 z m -42.1875,60.46875 0,-60.46875 -33.75003,0 0,28.82812 -20.65429,0 q -9.49219,0 -9.49219,7.73438 0,5.53711 4.13086,9.58007 4.21875,4.04297 9.58008,4.04297 8.34961,0 12.30468,-7.64648 l 10.10743,5.88867 q -3.69141,9.14063 -15.55665,13.44727 -0.35156,2.28515 -0.35156,2.54882 0,4.30665 4.30664,7.20704 4.39453,2.90039 10.3711,2.90039 6.85547,0 15.38086,-4.30664 8.08597,-3.95508 13.62307,-9.75586 z m -23.37893,-68.11524 0,0 z m 31.11323,0 0,0 z m 0,102.04099 0,0 z m -31.11323,0 0,0 z"
         style="font-style:normal;font-variant:normal;font-weight:normal;font-stretch:normal;font-size:180px;font-family:'Mangal Sample';-inkscape-font-specification:'Mangal Sample'"
         id="path3356" />
      <path
         d="m 1031.0505,905.61981 0,0 z m 64.0723,7.64649 -26.8067,0 0,101.9531 -15.4687,0 0,-101.9531 -10.9864,0 0,-14.0625 53.2618,0 0,14.0625 z m -64.0723,94.3945 0,0 z m 28.3887,-102.04099 0,0 z"
         style="font-style:normal;font-variant:normal;font-weight:normal;font-stretch:normal;font-size:180px;font-family:'Mangal Sample';-inkscape-font-specification:'Mangal Sample'"
         id="path3358" />
    </g>
  </g>
</svg>
