<?xml version="1.0" encoding="UTF-8" standalone="no"?>
<!-- Created with Inkscape (http://www.inkscape.org/) -->

<svg
   xmlns:dc="http://purl.org/dc/elements/1.1/"
   xmlns:cc="http://creativecommons.org/ns#"
   xmlns:rdf="http://www.w3.org/1999/02/22-rdf-syntax-ns#"
   xmlns:svg="http://www.w3.org/2000/svg"
   xmlns="http://www.w3.org/2000/svg"
   xmlns:sodipodi="http://sodipodi.sourceforge.net/DTD/sodipodi-0.dtd"
   xmlns:inkscape="http://www.inkscape.org/namespaces/inkscape"
   width="210mm"
   height="70mm"
   viewBox="0 0 744.09449 248.03149"
   id="svg3363"
   version="1.1"
   inkscape:version="0.91 r13725"
   sodipodi:docname="calligraphy gurmukhi bad kailigraafi.svg">
  <defs
     id="defs3365" />
  <sodipodi:namedview
     id="base"
     pagecolor="#ffffff"
     bordercolor="#666666"
     borderopacity="1.0"
     inkscape:pageopacity="0.0"
     inkscape:pageshadow="2"
     inkscape:zoom="2.8"
     inkscape:cx="489.34385"
     inkscape:cy="80.266389"
     inkscape:document-units="px"
     inkscape:current-layer="text3371"
     showgrid="false"
     inkscape:window-width="1920"
     inkscape:window-height="1027"
     inkscape:window-x="-8"
     inkscape:window-y="-8"
     inkscape:window-maximized="1" />
  <metadata
     id="metadata3368">
    <rdf:RDF>
      <cc:Work
         rdf:about="">
        <dc:format>image/svg+xml</dc:format>
        <dc:type
           rdf:resource="http://purl.org/dc/dcmitype/StillImage" />
        <dc:title></dc:title>
      </cc:Work>
    </rdf:RDF>
  </metadata>
  <g
     inkscape:label="Layer 1"
     inkscape:groupmode="layer"
     id="layer1"
     transform="translate(0,-804.33071)">
    <g
       style="font-style:normal;font-weight:normal;font-size:180px;line-height:125%;font-family:sans-serif;letter-spacing:0px;word-spacing:0px;fill:#000000;fill-opacity:1;stroke:none;stroke-width:1px;stroke-linecap:butt;stroke-linejoin:miter;stroke-opacity:1"
       id="text3371">
      <path
         d="m 107.89063,986.64789 q -0.79102,-10.45899 -2.63672,-19.51172 -1.8457,-9.05273 -4.7461,-16.61133 -7.470699,9.58008 -17.49023,14.41406 -9.931641,4.7461 -21.708984,4.7461 -16.259766,0 -25.664063,-8.34961 -9.316406,-8.34961 -9.316406,-22.85156 0,-14.32618 9.84375,-22.76368 9.84375,-8.52539 25.3125,-8.52539 11.865234,0 21.181641,4.21875 9.316406,4.13086 16.875,12.83203 2.285152,-8.26171 2.285152,-20.03906 0,-7.99804 -1.75781,-16.69922 l -81.386717,0 0,-12.83203 114.521487,0 0,12.83203 -18.54492,0 q 0.52734,2.46094 1.05468,7.82227 0.61524,5.27344 0.61524,8.78906 0,18.8086 -7.47071,33.22266 5.09766,8.70117 8.4375,21.00586 3.42774,12.30468 5.18555,28.30078 l -14.58984,0 z m -13.359378,-48.7793 q -6.503906,-8.87695 -14.501953,-13.35937 -7.910156,-4.48243 -17.402344,-4.48243 -10.107422,0 -15.820312,4.92188 -5.712891,4.83398 -5.712891,13.62305 0,8.52539 5.449219,13.44726 5.449218,4.83399 14.853515,4.83399 10.546875,0 18.808594,-4.7461 8.261719,-4.74609 14.326172,-14.23828 z m 17.753908,-63.19336 0,0 z"
         style="font-style:normal;font-variant:normal;font-weight:normal;font-stretch:normal;font-size:180px;line-height:125%;font-family:'Noto Sans Gurmukhi';-inkscape-font-specification:'Noto Sans Gurmukhi, Normal';text-align:start;writing-mode:lr-tb;text-anchor:start"
         id="path3376" />
      <path
         d="m 99.804689,882.76117 q -5.976562,-9.93164 -14.941406,-14.76563 -9.052734,-4.83398 -23.730469,-4.83398 l -1.757812,0 q -0.966797,0 -1.757813,0.0879 l -0.878906,-13.18359 q 1.757813,-0.17578 3.691406,-0.17578 12.832032,0 22.763672,4.48242 9.84375,4.39453 16.78711,13.18359 -4.921875,-14.76562 -13.359375,-21.79687 -8.525391,-7.11914 -22.939453,-7.11914 l -1.31836,0 q -0.703125,0 -1.318359,0.0879 l -0.791016,-13.27149 q 1.582031,-0.17578 3.427735,-0.17578 20.917968,0 32.871093,12.39258 11.865234,12.39258 16.875004,38.32031 l -7.47071,0.61524 q 0.70313,1.23046 1.31836,2.46093 l -7.470701,3.69141 z m 12.480471,-8.08594 0,0 z"
         style="font-style:normal;font-variant:normal;font-weight:normal;font-stretch:normal;font-size:180px;line-height:125%;font-family:'Noto Sans Gurmukhi';-inkscape-font-specification:'Noto Sans Gurmukhi, Normal';text-align:start;writing-mode:lr-tb;text-anchor:start"
         id="path3378" />
      <path
         d="m 232.08008,887.50726 q -2.72461,14.32618 -11.25,27.77344 12.48047,6.94336 18.80859,16.34766 6.41602,9.3164 6.41602,20.12695 0,9.49219 -4.39453,17.75391 -4.39453,8.17382 -12.83203,12.65625 -8.4375,4.48242 -20.39063,4.48242 l -1.05469,0 -0.8789,-13.1836 1.93359,0 q 11.25,0 17.22656,-5.625 5.97657,-5.71289 5.97657,-15.55664 0,-8.17382 -4.65821,-15.02929 -4.6582,-6.94336 -14.15039,-11.86524 -9.3164,10.01953 -20.39062,16.25977 -11.25,-6.32813 -20.56641,-16.25977 -8.87695,4.65821 -13.79883,11.42578 -4.83398,6.76758 -4.83398,14.76563 0,10.2832 5.88867,16.08398 5.97656,5.80078 17.31445,5.80078 l 1.9336,0 -0.87891,13.1836 -1.05469,0 q -12.04101,0 -20.47851,-4.48242 -8.4375,-4.57032 -12.83203,-12.74414 -4.30664,-8.17383 -4.30664,-17.57813 0,-10.81055 6.41601,-20.39062 6.50391,-9.58008 18.89649,-16.17188 -8.96485,-13.53516 -11.33789,-27.77344 l -22.32422,0 0,-12.83203 123.92578,0 0,12.83203 -22.32422,0 z m -64.51172,0 q 3.86719,24.08203 24.87305,38.75977 10.19531,-6.76758 16.52344,-16.78711 6.41601,-10.01953 8.34961,-21.97266 l -49.7461,0 z m 64.51172,-12.83203 0,0 z m -39.63867,111.97266 0,0 z m 25.66406,0 0,0 z m -46.93359,-58.53516 0,0 z m 21.26953,0.70313 0,0 z"
         style="font-style:normal;font-variant:normal;font-weight:normal;font-stretch:normal;font-size:180px;line-height:125%;font-family:'Noto Sans Gurmukhi';-inkscape-font-specification:'Noto Sans Gurmukhi, Normal';text-align:start;writing-mode:lr-tb;text-anchor:start"
         id="path3380" />
      <path
         d="m 283.58399,986.64789 -14.50196,0 0,-99.14063 -17.31445,0 0,-12.83203 17.31445,0 0,-5.71289 q 0,-13.00781 -1.49414,-18.80859 -1.49414,-5.80078 -5.36133,-8.96485 -3.77929,-3.25195 -10.2832,-3.25195 -8.70117,0 -13.00781,4.6582 -4.30664,4.65821 -4.30664,14.32618 0,4.48242 1.05469,10.45898 l -14.0625,1.40625 q -1.23047,-8.52539 -1.23047,-12.04102 0,-14.58984 8.61328,-23.02734 8.61328,-8.4375 23.3789,-8.4375 11.95313,0 18.98438,5.18555 7.11914,5.18554 9.66797,13.44726 2.54883,8.17383 2.54883,22.5 l 0,8.26172 17.40234,0 0,12.83203 -17.40234,0 0,99.14063 z"
         style="font-style:normal;font-variant:normal;font-weight:normal;font-stretch:normal;font-size:180px;line-height:125%;font-family:'Noto Sans Gurmukhi';-inkscape-font-specification:'Noto Sans Gurmukhi, Normal';text-align:start;writing-mode:lr-tb;text-anchor:start"
         id="path3382" />
      <path
         d="m 362.94922,913.17133 0,-25.66407 -64.42383,0 0,-12.83203 137.63672,0 0,12.83203 -17.40234,0 0,99.14063 -14.50196,0 0,-99.14063 -26.80664,0 0,69.4336 q 0,11.95312 -3.60351,18.01758 -3.51563,5.97656 -9.4043,8.87695 -5.80078,2.8125 -15.11719,2.8125 -10.37109,0 -19.77539,-5.71289 -9.3164,-5.80078 -16.17187,-16.96289 -6.85547,-11.16211 -6.85547,-23.73047 0,-8.52539 4.39453,-15.20508 4.48242,-6.67969 12.12891,-9.22852 7.64648,-2.63671 21.26953,-2.63671 l 18.63281,0 z m 0,12.83203 -15.73242,0 q -10.63477,0 -15.64453,1.05468 -4.92188,0.9668 -7.73438,4.39454 -2.8125,3.33984 -2.8125,9.75586 0,7.11914 4.48242,15.29296 4.48243,8.08594 10.81055,12.74414 6.41602,4.57032 12.91992,4.57032 5.71289,0 8.4375,-1.66992 2.72461,-1.66993 3.95508,-5.00977 1.31836,-3.42773 1.31836,-12.12891 l 0,-29.0039 z m 76.64063,104.85354 q -4.48243,-11.3379 -12.30469,-17.7539 -7.73438,-6.416 -20.56641,-6.416 l -2.28515,0 q -0.87891,0 -1.66993,0.088 l -0.79101,-13.62301 q 1.58203,-0.17578 4.48242,-0.17578 16.875,0 28.125,8.70119 11.33789,8.7012 17.49023,25.4004 l -12.48046,3.7793 z"
         style="font-style:normal;font-variant:normal;font-weight:normal;font-stretch:normal;font-size:180px;line-height:125%;font-family:'Noto Sans Gurmukhi';-inkscape-font-specification:'Noto Sans Gurmukhi, Normal';text-align:start;writing-mode:lr-tb;text-anchor:start"
         id="path3384" />
      <path
         d="m 509.16602,913.17133 0,-25.66407 -74.88281,0 0,-12.83203 106.7871,0 0,12.83203 -17.40234,0 0,68.11524 q 0,12.04101 -3.95508,18.45703 -3.86718,6.32812 -10.63476,9.49219 -6.67969,3.07617 -17.66602,3.07617 -11.51367,0 -22.32422,-5.44922 -10.72265,-5.53711 -18.80859,-16.96289 -7.99805,-11.42578 -7.99805,-23.99414 0,-9.4043 4.92188,-15.55664 4.92187,-6.15235 13.0957,-8.78906 8.26172,-2.72461 24.25781,-2.72461 l 24.60938,0 z m 0,12.83203 -22.85156,0 q -11.68946,0 -17.40235,1.14258 -5.71289,1.14257 -8.96484,4.57031 -3.16406,3.33984 -3.16406,9.49219 0,7.29492 5.71289,15.38085 5.80078,8.08594 13.62304,12.56836 7.91016,4.39454 15.90821,4.39454 7.4707,0 10.98632,-2.02149 3.51563,-2.02148 4.83399,-5.71289 1.31836,-3.69141 1.31836,-12.12891 l 0,-27.68554 z m -8.78906,60.64453 0,0 z"
         style="font-style:normal;font-variant:normal;font-weight:normal;font-stretch:normal;font-size:180px;line-height:125%;font-family:'Noto Sans Gurmukhi';-inkscape-font-specification:'Noto Sans Gurmukhi, Normal';text-align:start;writing-mode:lr-tb;text-anchor:start"
         id="path3386"
         inkscape:connector-curvature="0" />
      <path
         d="m 583.25781,887.50726 -15.82031,0 0,52.11914 -14.50195,0 0,-52.11914 -14.58984,0 0,-12.83203 44.9121,0 0,12.83203 z m -15.82031,-12.83203 0,0 z"
         style="font-style:normal;font-variant:normal;font-weight:normal;font-stretch:normal;font-size:180px;line-height:125%;font-family:'Noto Sans Gurmukhi';-inkscape-font-specification:'Noto Sans Gurmukhi, Normal';text-align:start;writing-mode:lr-tb;text-anchor:start"
         id="path3388"
         inkscape:connector-curvature="0" />
      <path
         d="m 655.41602,910.97406 0,-23.4668 -74.88281,0 0,-12.83203 106.7871,0 0,12.83203 -17.40234,0 0,31.02539 -5.27344,5.27344 -31.72851,0 q -12.74414,0 -18.28125,1.49414 -5.53711,1.40625 -8.61328,4.83399 -2.98828,3.42773 -2.98828,9.84375 0,5.53711 2.46093,10.98632 2.54883,5.44922 7.64649,10.89844 8.61328,-8.87695 18.54492,-13.35937 10.01953,-4.48242 21.35742,-4.48242 11.86524,0 18.63281,5.5371 6.76758,5.44922 6.76758,14.23829 0,11.25 -8.96484,17.05078 -8.87696,5.80078 -26.54297,5.80078 -15.0293,0 -26.80664,-5.71289 -11.68945,-5.80078 -19.6875,-17.22656 -7.91016,-11.42579 -7.91016,-24.60938 0,-6.06445 2.37305,-11.51367 2.37305,-5.53711 7.64648,-9.49219 5.36133,-4.04297 12.65625,-5.53711 7.29493,-1.58203 18.89649,-1.58203 l 25.3125,0 z m -32.43164,58.88672 q 3.95508,2.19726 8.87695,3.25195 4.92188,1.05469 10.81055,1.05469 10.45898,0 15.82031,-2.28516 5.44922,-2.37304 5.44922,-7.4707 0,-3.69141 -3.16406,-5.625 -3.07618,-1.93359 -9.14063,-1.93359 -7.38281,0 -14.58984,3.25195 -7.11914,3.25195 -14.0625,9.75586 z"
         style="font-style:normal;font-variant:normal;font-weight:normal;font-stretch:normal;font-size:180px;line-height:125%;font-family:'Noto Sans Gurmukhi';-inkscape-font-specification:'Noto Sans Gurmukhi, Normal';text-align:start;writing-mode:lr-tb;text-anchor:start"
         id="path3390"
         inkscape:connector-curvature="0" />
      <path
         d="m 716.41211,986.64789 -14.50195,0 0,-99.14063 -17.31445,0 0,-12.83203 17.31445,0 0,-5.71289 q 0,-13.00781 -1.49414,-18.80859 -1.49414,-5.80078 -5.36133,-8.96485 -3.7793,-3.25195 -10.2832,-3.25195 -8.70118,0 -13.00782,4.6582 -4.30664,4.65821 -4.30664,14.32618 0,4.48242 1.05469,10.45898 l -14.0625,1.40625 q -1.23047,-8.52539 -1.23047,-12.04102 0,-14.58984 8.61328,-23.02734 8.61328,-8.4375 23.37891,-8.4375 11.95312,0 18.98437,5.18555 7.11915,5.18554 9.66797,13.44726 2.54883,8.17383 2.54883,22.5 l 0,8.26172 17.40235,0 0,12.83203 -17.40235,0 0,99.14063 z"
         style="font-style:normal;font-variant:normal;font-weight:normal;font-stretch:normal;font-size:180px;line-height:125%;font-family:'Noto Sans Gurmukhi';-inkscape-font-specification:'Noto Sans Gurmukhi, Normal';text-align:start;writing-mode:lr-tb;text-anchor:start"
         id="path3392"
         inkscape:connector-curvature="0" />
    </g>
  </g>
</svg>
