<?xml version="1.0" encoding="UTF-8" standalone="no"?>
<!-- Created with Inkscape (http://www.inkscape.org/) -->

<svg
   xmlns:dc="http://purl.org/dc/elements/1.1/"
   xmlns:cc="http://creativecommons.org/ns#"
   xmlns:rdf="http://www.w3.org/1999/02/22-rdf-syntax-ns#"
   xmlns:svg="http://www.w3.org/2000/svg"
   xmlns="http://www.w3.org/2000/svg"
   xmlns:sodipodi="http://sodipodi.sourceforge.net/DTD/sodipodi-0.dtd"
   xmlns:inkscape="http://www.inkscape.org/namespaces/inkscape"
   width="420mm"
   height="60mm"
   viewBox="0 0 1488.189 212.59842"
   id="svg2"
   version="1.1"
   inkscape:version="0.91 r13725"
   sodipodi:docname="tamil kaiyeluttut (calligraphy) good.svg">
  <defs
     id="defs4" />
  <sodipodi:namedview
     id="base"
     pagecolor="#ffffff"
     bordercolor="#666666"
     borderopacity="1.0"
     inkscape:pageopacity="0.0"
     inkscape:pageshadow="2"
     inkscape:zoom="0.35"
     inkscape:cx="375"
     inkscape:cy="520"
     inkscape:document-units="px"
     inkscape:current-layer="layer1"
     showgrid="false"
     inkscape:window-width="1920"
     inkscape:window-height="1027"
     inkscape:window-x="-8"
     inkscape:window-y="-8"
     inkscape:window-maximized="1" />
  <metadata
     id="metadata7">
    <rdf:RDF>
      <cc:Work
         rdf:about="">
        <dc:format>image/svg+xml</dc:format>
        <dc:type
           rdf:resource="http://purl.org/dc/dcmitype/StillImage" />
        <dc:title></dc:title>
      </cc:Work>
    </rdf:RDF>
  </metadata>
  <g
     inkscape:label="Layer 1"
     inkscape:groupmode="layer"
     id="layer1"
     transform="translate(0,-839.76378)">
    <g
       style="font-style:normal;font-weight:normal;font-size:40px;line-height:125%;font-family:sans-serif;letter-spacing:0px;word-spacing:0px;fill:#000000;fill-opacity:1;stroke:none;stroke-width:1px;stroke-linecap:butt;stroke-linejoin:miter;stroke-opacity:1"
       id="text3336">
      <path
         d="m 228.03711,950.17749 q 0,8.26172 -1.31836,15.82031 -1.31836,7.47071 -3.7793,14.41407 -2.37304,6.85546 -5.88867,13.27148 -3.51562,6.32815 -7.91016,12.30465 l -13.44726,-5.8007 q 9.14062,-11.77739 13.27148,-24.08208 4.13086,-12.39257 4.13086,-24.60937 0,-10.2832 -2.98828,-18.01758 -2.90039,-7.82226 -8.26172,-13.00781 -5.27343,-5.27344 -12.65625,-7.91016 -7.29492,-2.63672 -15.99609,-2.63672 -12.12891,0 -22.14844,4.13086 4.7461,4.13086 8.61328,9.22852 3.95508,5.00976 6.67969,10.98633 2.72461,5.97656 4.21875,12.91992 1.49414,6.94336 1.49414,14.85351 0,9.93165 -2.28516,18.01758 -2.19726,7.99805 -6.41601,13.71094 -4.21875,5.71289 -10.37109,8.87696 -6.06446,3.0762 -13.71094,3.0762 -7.82227,0 -13.88672,-2.9883 -6.06445,-3.07619 -10.2832,-8.6133 -4.21875,-5.625 -6.41602,-13.44726 -2.19726,-7.82227 -2.19726,-17.49024 0,-14.50195 5.09765,-26.80664 5.18555,-12.39258 14.67774,-21.44531 -12.12891,-5.00977 -27.158208,-5.00977 -11.074218,0 -20.742187,3.25196 -9.667969,3.16406 -16.875,9.14062 -7.119141,5.97656 -11.337891,14.58985 -4.130859,8.52539 -4.130859,19.24804 0,1.84571 0.263672,4.30664 l 0.527344,0 q 2.8125,-6.06445 8.876953,-9.84375 6.064453,-3.86718 14.589843,-3.86718 5.361329,0 10.195313,1.93359 4.833984,1.93359 8.349609,5.53711 3.603516,3.60351 5.712891,8.87695 2.109375,5.27344 2.109375,11.86524 0,6.67968 -2.197266,12.39257 -2.109375,5.625 -6.064453,9.75586 -3.867187,4.04302 -9.404297,6.32812 -5.449218,2.2852 -12.216797,2.2852 -8.789062,0 -15.380859,-3.8672 -6.503906,-3.9551 -10.898437,-10.63479 -4.306641,-6.67969 -6.503907,-15.46875 -2.109375,-8.78906 -2.109375,-18.54492 0,-14.94141 5.449219,-26.19141 5.449219,-11.33789 14.765625,-18.89648 9.404297,-7.64648 21.884766,-11.51367 12.568359,-3.86719 26.806636,-3.86719 10.19532,0 19.6875,2.19727 9.49219,2.19726 18.01758,6.67968 7.47071,-4.30664 16.17188,-6.59179 8.78906,-2.28516 18.7207,-2.28516 12.74414,0 22.85156,3.86719 10.10742,3.77929 17.13867,10.81054 7.11915,7.03125 10.89844,16.875 3.7793,9.84375 3.7793,21.88477 z m -70.92774,12.56836 q 0,-13.88672 -5.00976,-24.16992 -5.00977,-10.3711 -13.79883,-16.96289 -8.08594,6.85547 -12.48047,17.22656 -4.39453,10.37109 -4.39453,23.73047 0,6.94336 1.23047,12.48047 1.23047,5.53711 3.51563,9.49218 2.28515,3.86719 5.62499,5.97657 3.42774,2.02148 7.73438,2.02148 8.78906,0 13.18359,-7.73437 4.39453,-7.82227 4.39453,-22.06055 z m -74.970698,13.18359 q 0,-3.60351 -1.054688,-6.67968 -0.966797,-3.07618 -2.90039,-5.36133 -1.845703,-2.28516 -4.746094,-3.51563 -2.8125,-1.31836 -6.503906,-1.31836 -3.515625,0 -6.591797,1.31836 -3.076172,1.31836 -5.361328,3.69141 -2.197266,2.28516 -3.515625,5.44922 -1.230469,3.07617 -1.230469,6.59179 0,3.95508 1.230469,7.20704 1.318359,3.25195 3.515625,5.53711 2.197265,2.28515 5.097656,3.60351 2.988281,1.23047 6.328125,1.23047 3.427734,0 6.328125,-1.14258 2.900391,-1.14258 4.921875,-3.33984 2.109375,-2.28516 3.251953,-5.53711 1.230469,-3.33985 1.230469,-7.73438 z"
         style="font-style:normal;font-variant:normal;font-weight:normal;font-stretch:normal;font-size:180px;font-family:'Nirmala UI';-inkscape-font-specification:'Nirmala UI'"
         id="path3349" />
      <path
         d="m 389.05273,974.61108 q 0,7.11914 -2.10937,12.83204 -2.02149,5.71289 -5.88867,9.84375 -3.86719,4.04293 -9.58008,6.24023 -5.625,2.1973 -12.74414,2.1973 -4.48242,0 -8.87695,-0.6153 -4.39454,-0.6152 -7.82227,-1.4941 l 0,-13.88673 q 3.16406,1.49414 7.29492,2.46094 4.13086,0.9668 8.61328,0.9668 7.91016,0 12.04102,-4.65821 4.13086,-4.74609 4.13086,-13.00781 0,-5.18555 -1.58203,-8.78906 -1.49414,-3.60352 -4.57032,-5.80078 -2.98828,-2.28516 -7.4707,-3.25196 -4.39453,-1.05468 -10.19531,-1.05468 l -16.43555,0 0,8.87695 q 0,10.98633 -2.8125,18.45703 -2.8125,7.38281 -8.61328,12.48047 -5.27344,4.57034 -12.91992,6.94334 -7.5586,2.3731 -17.22656,2.3731 -9.93164,0 -17.49024,-2.5489 -7.4707,-2.6367 -12.56836,-7.1191 -5.00976,-4.48243 -7.55859,-10.45899 -2.54883,-5.97656 -2.54883,-12.74414 0,-8.70117 3.33984,-14.58984 3.33985,-5.97656 9.31641,-9.49219 2.02148,-1.23047 4.30664,-2.19727 2.28516,-0.96679 4.92188,-1.58203 l 0,-46.40625 99.93164,0 0,12.91993 -40.07813,0 0,32.25585 16.61133,0 q 8.96484,0 15.9082,1.66993 6.94336,1.58203 11.77735,4.92187 5.27343,3.86719 8.08593,9.84375 2.8125,5.97656 2.8125,14.41406 z m -69.60937,-18.01757 -31.72852,0 q -10.10742,0 -15.38086,3.6914 -5.27343,3.69141 -5.27343,12.2168 0,4.39453 1.58203,8.08594 1.66992,3.6914 4.92187,6.32812 3.25196,2.63672 8.08594,4.13086 4.83398,1.49414 11.16211,1.49414 13.53516,0 20.03906,-6.41601 6.5918,-6.50391 6.5918,-20.74219 l 0,-8.78906 z m 0,-45.08789 -31.11328,0 0,32.25585 31.11328,0 0,-32.25585 z"
         style="font-style:normal;font-variant:normal;font-weight:normal;font-stretch:normal;font-size:180px;font-family:'Nirmala UI';-inkscape-font-specification:'Nirmala UI'"
         id="path3351" />
      <path
         d="m 538.64258,943.58569 -0.43946,60.20511 -14.41406,0 0.52735,-59.50198 0,-4.6582 q 0,-14.85352 -2.37305,-25.48829 -2.37305,-10.72265 -8.17383,-17.92968 -5.27344,-6.50391 -14.15039,-10.3711 -8.87695,-3.95508 -21.79687,-3.95508 -11.07422,0 -21.09375,3.86719 -9.93165,3.86719 -17.49024,10.98633 -7.4707,7.11914 -11.95312,17.22656 -4.39454,10.01953 -4.39454,22.41211 0,8.96485 1.49415,17.22656 1.58203,8.17383 5.00976,15.38086 3.51563,7.11914 9.14063,13.09571 5.71289,5.88867 13.88671,10.19531 l 0.35157,-0.35156 q -3.69141,-3.33985 -5.88867,-7.91016 -2.19727,-4.6582 -2.19727,-10.19531 0,-6.15235 2.19727,-11.07422 2.28515,-5.00977 6.24023,-8.52539 3.95508,-3.60352 9.4043,-5.53711 5.44922,-1.93359 11.95312,-1.93359 6.06445,0 11.25,1.93359 5.27344,1.8457 9.14063,5.53711 3.95507,3.60351 6.15234,8.78906 2.19727,5.18555 2.19727,11.77735 0,8.52539 -4.04297,15.29296 -3.95508,6.67969 -11.42578,10.72267 -4.48243,2.4609 -10.45899,3.6914 -5.88867,1.2305 -11.51367,1.2305 -9.31641,0 -17.22656,-2.5489 -7.82227,-2.6367 -14.23828,-7.29488 -6.41602,-4.7461 -11.33789,-11.16211 -4.92188,-6.41602 -8.26172,-14.0625 -3.25196,-7.64649 -5.00977,-16.17188 -1.66992,-8.61328 -1.66992,-17.57812 0,-11.68946 2.90039,-21.26954 2.98828,-9.66796 8.08594,-17.22656 5.09765,-7.64648 11.95312,-13.18359 6.85547,-5.625 14.67774,-9.22852 7.82226,-3.6914 16.17187,-5.44922 8.4375,-1.8457 16.52344,-1.8457 17.05078,0 28.65234,5.00977 11.60157,4.92187 18.63282,13.27148 6.85546,8.34961 9.93164,21.09375 3.07617,12.65625 3.07617,30.9375 l 0,4.57031 z m -49.83399,32.16797 q 0,-7.82226 -4.04297,-12.1289 -4.04296,-4.30664 -10.89843,-4.30664 -3.69141,0 -6.67969,1.23046 -2.98828,1.23047 -5.09766,3.33985 -2.10937,2.10937 -3.33984,5.00976 -1.14258,2.90039 -1.14258,6.24024 0,2.8125 0.61524,5.625 0.61523,2.72461 1.8457,5.18554 1.31836,2.46094 3.25195,4.48243 2.02149,2.02148 4.83399,3.33984 9.93164,-0.35156 15.29297,-5.18555 5.36132,-4.83398 5.36132,-12.83203 z"
         style="font-style:normal;font-variant:normal;font-weight:normal;font-stretch:normal;font-size:180px;font-family:'Nirmala UI';-inkscape-font-specification:'Nirmala UI'"
         id="path3353" />
      <path
         d="m 629.3457,1003.7908 0,-12.21683 -0.43945,0 q -1.40625,2.98829 -3.7793,5.625 -2.28515,2.54883 -5.53711,4.48243 -3.16406,1.8457 -7.11914,2.9004 -3.95508,1.1426 -8.52539,1.1426 -7.64648,0 -13.44726,-2.1094 -5.71289,-2.1973 -9.49219,-6.15235 -2.10938,-2.28516 -3.60352,-5.00977 -1.49414,-2.8125 -2.46093,-6.24023 -0.87891,-3.51563 -1.31836,-7.82227 -0.35157,-4.39453 -0.35157,-9.75586 l 0,-70.04883 14.41407,0 0,68.55469 q 0,4.04297 0.17578,7.20703 0.17578,3.07617 0.61523,5.53711 0.52735,2.37305 1.31836,4.21875 0.87891,1.8457 2.10938,3.25195 4.48242,5.18555 13.62304,5.18555 11.25,0 16.69922,-8.17383 5.53711,-8.26172 5.53711,-23.64257 l 0,-62.13868 14.41406,0 0,92.28516 65.74219,0 0,-92.28516 14.41406,0 0,105.20511 -92.98828,0 z"
         style="font-style:normal;font-variant:normal;font-weight:normal;font-stretch:normal;font-size:180px;font-family:'Nirmala UI';-inkscape-font-specification:'Nirmala UI'"
         id="path3355" />
      <path
         d="m 944.87305,958.17554 q 0,9.84375 -1.49414,18.7207 -1.49414,8.78906 -3.95508,16.34766 l -62.05078,0 0,11.25 q 2.90039,-2.2852 6.67968,-3.6035 3.7793,-1.40627 8.17383,-1.40627 3.86719,0 7.38281,1.14257 3.60352,1.1426 6.32813,3.3399 2.72461,2.1972 4.30664,5.4492 1.66992,3.3398 1.66992,7.6465 0,6.0644 -3.60351,11.0742 -3.51563,5.0097 -10.98633,8.5254 -7.38281,3.6035 -18.98438,5.5371 -11.51367,1.9336 -27.59765,1.9336 -17.8418,0 -33.92578,-3.6035 -16.08399,-3.6036 -29.0918,-11.0743 -7.91016,-4.5703 -14.41406,-11.0742 -6.50391,-6.5039 -11.25,-14.7656 -4.65821,-8.34962 -7.29493,-18.45704 -2.54882,-10.10742 -2.54882,-21.88477 0,-19.59961 6.76757,-35.94726 6.85547,-16.34766 19.51172,-28.65235 l 15.11719,4.21875 q -13.35937,11.25 -20.21484,26.45508 -6.76758,15.11719 -6.76758,33.39844 0,9.75586 1.75781,17.92969 1.75781,8.08593 5.27344,14.9414 3.60351,6.76756 8.87695,12.39256 5.36133,5.625 12.48047,10.2832 5.27344,3.4278 11.68945,5.8887 6.50391,2.5488 13.62305,4.1309 7.11914,1.6699 14.50195,2.4609 7.38282,0.791 14.50196,0.791 12.91992,0 22.06054,-1.0547 9.22852,-0.9668 15.0293,-2.9004 5.80078,-1.8457 8.52539,-4.5703 2.72461,-2.7246 2.72461,-6.0644 0,-3.3399 -2.37305,-5.2735 -2.28515,-1.9336 -6.06445,-1.9336 -5.09766,0 -8.4375,2.5489 -3.33984,2.6367 -3.42773,6.7675 l 0,2.1973 -14.41407,0 0,-28.0371 -58.35937,0 0,-94.65821 14.32617,0 0,81.73828 44.0332,0 0,-46.8457 q 0,-10.10742 2.10938,-16.96289 2.19726,-6.85547 6.94336,-11.42578 4.21875,-4.21875 10.54687,-6.24023 6.41602,-2.10938 14.15039,-2.10938 13.27149,0 22.41211,5.00977 9.22852,4.92187 14.94141,13.35937 5.71289,8.4375 8.26172,19.59961 2.54883,11.07422 2.54883,23.4668 z m -14.85352,0.61523 q 0,-9.84375 -1.49414,-18.63281 -1.40625,-8.87695 -5.18555,-15.55664 -3.77929,-6.76758 -10.19531,-10.72266 -6.41601,-3.95508 -16.34766,-3.95508 -5.36132,0 -9.05273,1.49414 -3.69141,1.40625 -6.06445,4.48243 -2.28516,2.98828 -3.33985,7.73437 -0.96679,4.6582 -0.96679,11.07422 l 0,45.52734 49.83398,0 q 1.49414,-5.00976 2.10938,-10.2832 0.70312,-5.36133 0.70312,-11.16211 z"
         style="font-style:normal;font-variant:normal;font-weight:normal;font-stretch:normal;font-size:180px;font-family:'Nirmala UI';-inkscape-font-specification:'Nirmala UI'"
         id="path3357" />
      <path
         d="m 1103.0762,980.85132 q 0,11.51367 -4.2188,20.30278 -4.2187,8.789 -12.041,14.6777 -7.8223,5.9765 -19.0723,8.9648 -11.1621,3.0762 -25.2246,3.0762 -13.623,0 -26.6308,-0.088 -13.0078,0 -25.31253,0 -5.27344,0 -7.4707,1.2305 -2.10938,1.3183 -2.10938,4.6582 0,2.0215 0.43946,3.9551 0.52734,1.9336 1.49414,3.8671 l -12.91992,0 q -0.9668,-2.1972 -1.75782,-4.8339 -0.70312,-2.5489 -0.70312,-5.2735 0,-8.3496 5.44922,-12.3047 5.44922,-3.955 15.99609,-3.955 5.09766,0 11.68946,0 6.5918,0 13.7988,0 7.2071,0.088 14.5899,0.088 7.4707,0 14.2382,0 3.0762,0 5.8887,-0.088 2.9004,-0.088 5.5371,-0.4395 7.9102,-1.1426 14.0625,-3.8672 6.2403,-2.6367 10.5469,-6.8554 4.3066,-4.13091 6.5039,-9.66802 2.2852,-5.625 2.2852,-12.56836 0,-7.11914 -2.0215,-11.86523 -1.9336,-4.83398 -5.4492,-7.73437 -3.4278,-2.98829 -8.2618,-4.21875 -4.8339,-1.31836 -10.4589,-1.31836 l -10.459,0 0,8.87695 q 0,10.98633 -2.9004,18.45703 -2.8125,7.38281 -8.6133,12.48047 -5.2734,4.57034 -12.832,6.94334 -7.5586,2.3731 -17.2266,2.3731 -9.93163,0 -17.49023,-2.5489 -7.55859,-2.6367 -12.65625,-7.1191 -5.00976,-4.48243 -7.55859,-10.45899 -2.54883,-5.97656 -2.54883,-12.74414 0,-11.51367 5.88867,-18.54492 5.97657,-7.03125 15.9961,-9.31641 l 0,-46.40625 100.01953,0 0,12.91993 -40.0781,0 0,32.25585 9.8437,0 q 9.4922,0 17.1387,2.10938 7.7344,2.10937 13.1836,6.5918 5.4492,4.48242 8.4375,11.51367 2.9883,7.03125 2.9883,16.875 z m -66.0059,-24.25781 -31.8164,0 q -10.10742,0 -15.38085,3.6914 -5.27344,3.69141 -5.27344,12.2168 0,4.39453 1.58203,8.08594 1.66992,3.6914 4.92188,6.32812 3.25195,2.63672 8.08593,4.13086 4.83395,1.49414 11.25005,1.49414 13.5351,0 20.039,-6.41601 6.5918,-6.50391 6.5918,-20.74219 l 0,-8.78906 z m 0,-45.08789 -31.2012,0 0,32.25585 31.2012,0 0,-32.25585 z"
         style="font-style:normal;font-variant:normal;font-weight:normal;font-stretch:normal;font-size:180px;font-family:'Nirmala UI';-inkscape-font-specification:'Nirmala UI'"
         id="path3359" />
      <path
         d="m 1057.4609,865.01147 q 0,2.72461 -0.9668,5.09766 -1.0546,2.37305 -2.8125,4.13086 -1.7578,1.75781 -4.1308,2.8125 -2.3731,0.9668 -5.0977,0.9668 -2.7246,0 -5.0976,-0.9668 -2.3731,-1.05469 -4.1309,-2.8125 -1.7578,-1.75781 -2.7246,-4.13086 -1.0547,-2.37305 -1.0547,-5.09766 0,-2.7246 1.0547,-5.09765 0.9668,-2.46094 2.7246,-4.21875 1.7578,-1.75781 4.1309,-2.8125 2.373,-1.05469 5.0976,-1.05469 2.7246,0 5.0977,1.05469 2.373,1.05469 4.1308,2.8125 1.7579,1.75781 2.8125,4.21875 0.9668,2.37305 0.9668,5.09765 z"
         style="font-style:normal;font-variant:normal;font-weight:normal;font-stretch:normal;font-size:180px;font-family:'Nirmala UI';-inkscape-font-specification:'Nirmala UI'"
         id="path3361" />
      <path
         d="m 1249.4141,1008.0974 q -4.2188,8.6133 -10.8106,14.8535 -6.5918,6.3282 -15.3808,10.459 -8.7012,4.1309 -19.4239,6.0645 -10.7226,2.0214 -23.1152,2.0214 -12.7441,0 -23.8184,-2.2851 -11.0742,-2.1973 -19.3359,-6.3281 -8.1738,-4.1309 -12.9199,-10.0196 -4.7461,-5.8886 -4.7461,-13.1836 0,-7.3828 5.3613,-10.8105 5.4492,-3.42774 15.9961,-3.42774 l 97.6465,0 q 1.1426,-3.95508 1.6699,-8.34961 0.6152,-4.48242 0.6152,-9.49218 0,-6.94336 -1.3183,-12.30469 -1.2305,-5.44922 -3.9551,-9.14063 -2.7246,-3.77929 -7.0312,-5.71289 -4.3067,-1.93359 -10.3711,-1.93359 l -7.9102,0 0,3.33984 q 0,9.58008 -2.7246,16.25977 -2.6367,6.67969 -8.877,11.60156 -5.1855,4.13086 -12.2168,6.06445 -7.0312,1.9336 -15.9082,1.9336 -9.4043,0 -16.7871,-2.02149 -7.2949,-2.10937 -12.3047,-5.80078 -5.0097,-3.7793 -7.6464,-8.96484 -2.6368,-5.27344 -2.6368,-11.60156 0,-10.45899 5.5372,-15.90821 5.625,-5.53711 15.2929,-7.11914 l 0,-37.70508 91.4942,0 0,12.91993 -33.2227,0 0,24.25781 6.9434,0 q 9.6679,0 16.4355,2.37304 6.8555,2.28516 12.1289,7.82227 5.0098,5.27344 7.3828,12.91992 2.3731,7.64649 2.3731,17.66602 0,5.18554 -0.5274,9.84375 -0.5273,4.6582 -1.4941,9.05273 l 21.9727,0 0,-96.85547 14.414,0 0,109.51171 -40.7812,0 z m -108.3692,0 q -3.6914,0 -5.1855,0.6152 -1.4942,0.6153 -1.4942,2.7247 0,2.6367 3.3399,5.625 3.4277,2.9882 9.5801,5.4492 6.2402,2.5488 14.8535,4.2187 8.6133,1.6699 19.0722,1.6699 7.8223,0 15.3809,-0.9668 7.6465,-0.9667 14.4141,-3.3398 6.7675,-2.2852 12.3925,-6.2402 5.7129,-3.8672 9.668,-9.7559 l -92.0215,0 z m 55.1074,-59.58983 -30.0585,0 q -3.8672,0 -7.3829,0.35156 -3.5156,0.35156 -6.3281,1.58203 -2.7246,1.14258 -4.3945,3.33985 -1.582,2.19726 -1.582,5.97656 0,3.86719 1.6699,6.67969 1.7578,2.8125 4.9218,4.6582 3.252,1.8457 7.7344,2.8125 4.4824,0.87891 10.0196,0.87891 6.2402,0 10.8105,-1.40625 4.6582,-1.40625 7.998,-3.95508 3.3399,-2.63672 4.9219,-6.67969 1.6699,-4.13086 1.6699,-10.19531 l 0,-4.04297 z m 0,-37.00195 -29.4433,0 0,24.25781 29.4433,0 0,-24.25781 z"
         style="font-style:normal;font-variant:normal;font-weight:normal;font-stretch:normal;font-size:180px;font-family:'Nirmala UI';-inkscape-font-specification:'Nirmala UI'"
         id="path3363" />
      <path
         d="m 1452.5293,980.85132 q 0,11.51367 -4.2188,20.30278 -4.2187,8.789 -12.041,14.6777 -7.8222,5.9765 -19.0722,8.9648 -11.1621,3.0762 -25.2246,3.0762 -13.6231,0 -26.6309,-0.088 -13.0078,0 -25.3125,0 -5.2734,0 -7.4707,1.2305 -2.1094,1.3183 -2.1094,4.6582 0,2.0215 0.4395,3.9551 0.5273,1.9336 1.4941,3.8671 l -12.9199,0 q -0.9668,-2.1972 -1.7578,-4.8339 -0.7031,-2.5489 -0.7031,-5.2735 0,-8.3496 5.4492,-12.3047 5.4492,-3.955 15.9961,-3.955 5.0976,0 11.6894,0 6.5918,0 13.7988,0 7.2071,0.088 14.5899,0.088 7.4707,0 14.2383,0 3.0761,0 5.8886,-0.088 2.9004,-0.088 5.5372,-0.4395 7.9101,-1.1426 14.0625,-3.8672 6.2402,-2.6367 10.5468,-6.8554 4.3067,-4.13091 6.5039,-9.66802 2.2852,-5.625 2.2852,-12.56836 0,-7.11914 -2.0215,-11.86523 -1.9336,-4.83398 -5.4492,-7.73437 -3.4277,-2.98829 -8.2617,-4.21875 -4.834,-1.31836 -10.459,-1.31836 l -10.459,0 0,8.87695 q 0,10.98633 -2.9004,18.45703 -2.8125,7.38281 -8.6133,12.48047 -5.2734,4.57034 -12.832,6.94334 -7.5586,2.3731 -17.2266,2.3731 -9.9316,0 -17.4902,-2.5489 -7.5586,-2.6367 -12.6562,-7.1191 -5.0098,-4.48243 -7.5586,-10.45899 -2.5489,-5.97656 -2.5489,-12.74414 0,-11.51367 5.8887,-18.54492 5.9766,-7.03125 15.9961,-9.31641 l 0,-46.40625 100.0195,0 0,12.91993 -40.0781,0 0,32.25585 9.8438,0 q 9.4921,0 17.1386,2.10938 7.7344,2.10937 13.1836,6.5918 5.4492,4.48242 8.4375,11.51367 2.9883,7.03125 2.9883,16.875 z m -66.0059,-24.25781 -31.8164,0 q -10.1074,0 -15.3808,3.6914 -5.2735,3.69141 -5.2735,12.2168 0,4.39453 1.5821,8.08594 1.6699,3.6914 4.9218,6.32812 3.252,2.63672 8.086,4.13086 4.834,1.49414 11.25,1.49414 13.5351,0 20.039,-6.41601 6.5918,-6.50391 6.5918,-20.74219 l 0,-8.78906 z m 0,-45.08789 -31.2011,0 0,32.25585 31.2011,0 0,-32.25585 z"
         style="font-style:normal;font-variant:normal;font-weight:normal;font-stretch:normal;font-size:180px;font-family:'Nirmala UI';-inkscape-font-specification:'Nirmala UI'"
         id="path3365" />
      <path
         d="m 1406.7383,865.01147 q 0,2.72461 -0.9668,5.09766 -1.0547,2.37305 -2.8125,4.13086 -1.7578,1.75781 -4.1309,2.8125 -2.373,0.9668 -5.0976,0.9668 -2.7246,0 -5.0977,-0.9668 -2.373,-1.05469 -4.1308,-2.8125 -1.7579,-1.75781 -2.7247,-4.13086 -1.0546,-2.37305 -1.0546,-5.09766 0,-2.7246 1.0546,-5.09765 0.9668,-2.46094 2.7247,-4.21875 1.7578,-1.75781 4.1308,-2.8125 2.3731,-1.05469 5.0977,-1.05469 2.7246,0 5.0976,1.05469 2.3731,1.05469 4.1309,2.8125 1.7578,1.75781 2.8125,4.21875 0.9668,2.37305 0.9668,5.09765 z"
         style="font-style:normal;font-variant:normal;font-weight:normal;font-stretch:normal;font-size:180px;font-family:'Nirmala UI';-inkscape-font-specification:'Nirmala UI'"
         id="path3367" />
    </g>
    <flowRoot
       xml:space="preserve"
       id="flowRoot3340"
       style="font-style:normal;font-weight:normal;font-size:40px;line-height:125%;font-family:sans-serif;letter-spacing:0px;word-spacing:0px;fill:#000000;fill-opacity:1;stroke:none;stroke-width:1px;stroke-linecap:butt;stroke-linejoin:miter;stroke-opacity:1"
       transform="translate(0,839.76378)"><flowRegion
         id="flowRegion3342"><rect
           id="rect3344"
           width="2180"
           height="485.71429"
           x="-122.85714"
           y="-81.687294" /></flowRegion><flowPara
         id="flowPara3346"></flowPara></flowRoot>  </g>
</svg>
