<?xml version="1.0" encoding="UTF-8" standalone="no"?>
<!-- Created with Inkscape (http://www.inkscape.org/) -->

<svg
   xmlns:dc="http://purl.org/dc/elements/1.1/"
   xmlns:cc="http://creativecommons.org/ns#"
   xmlns:rdf="http://www.w3.org/1999/02/22-rdf-syntax-ns#"
   xmlns:svg="http://www.w3.org/2000/svg"
   xmlns="http://www.w3.org/2000/svg"
   xmlns:sodipodi="http://sodipodi.sourceforge.net/DTD/sodipodi-0.dtd"
   xmlns:inkscape="http://www.inkscape.org/namespaces/inkscape"
   width="360mm"
   height="60mm"
   viewBox="0 0 1275.5906 212.59843"
   id="svg2"
   version="1.1"
   inkscape:version="0.91 r13725"
   sodipodi:docname="calligraphy kannada bad kyaligrafi.svg">
  <defs
     id="defs4" />
  <sodipodi:namedview
     id="base"
     pagecolor="#ffffff"
     bordercolor="#666666"
     borderopacity="1.0"
     inkscape:pageopacity="0.0"
     inkscape:pageshadow="2"
     inkscape:zoom="0.70000001"
     inkscape:cx="588.10143"
     inkscape:cy="71.319096"
     inkscape:document-units="px"
     inkscape:current-layer="text3350"
     showgrid="false"
     inkscape:window-width="1920"
     inkscape:window-height="1027"
     inkscape:window-x="-8"
     inkscape:window-y="-8"
     inkscape:window-maximized="1" />
  <metadata
     id="metadata7">
    <rdf:RDF>
      <cc:Work
         rdf:about="">
        <dc:format>image/svg+xml</dc:format>
        <dc:type
           rdf:resource="http://purl.org/dc/dcmitype/StillImage" />
        <dc:title />
      </cc:Work>
    </rdf:RDF>
  </metadata>
  <g
     inkscape:label="Layer 1"
     inkscape:groupmode="layer"
     id="layer1"
     transform="translate(0,-839.76378)">
    <g
       style="font-style:normal;font-weight:normal;font-size:180px;line-height:125%;font-family:sans-serif;letter-spacing:0px;word-spacing:0px;fill:#000000;fill-opacity:1;stroke:none;stroke-width:1px;stroke-linecap:butt;stroke-linejoin:miter;stroke-opacity:1"
       id="text3355">
      <g
         style="font-style:normal;font-weight:normal;font-size:180px;line-height:125%;font-family:sans-serif;letter-spacing:0px;word-spacing:0px;fill:#000000;fill-opacity:1;stroke:none;stroke-width:1px;stroke-linecap:butt;stroke-linejoin:miter;stroke-opacity:1"
         id="text3350">
        <path
           d="m 71.369919,924.16332 q 2.900391,4.83399 2.900391,9.22852 0,4.92187 -2.285156,8.52539 l 36.474616,0 0,12.56836 -17.49024,-0.26367 q 6.416016,3.86719 9.84375,10.10742 3.51563,6.24024 3.51563,13.79883 0,15.73242 -10.986333,24.60933 -10.986329,8.877 -30.937502,8.877 -18.808596,0 -29.707034,-8.9648 -10.898439,-9.05278 -10.898439,-24.16997 0,-15.29297 12.832033,-24.16992 l -16.787111,0.17578 0,-12.56836 37.5293,0 q 4.658204,-3.42773 4.658204,-8.70117 0,-4.57031 -2.988282,-9.05274 l -39.199222,0 0,-13.97461 53.701176,0 q 9.316407,0 14.062502,-0.96679 4.746094,-0.9668 7.03125,-3.69141 2.373047,-2.8125 2.373047,-7.4707 0,-11.51368 -11.689454,-22.93946 l 11.689454,-7.82227 q 7.382811,8.26172 10.986331,15.73243 3.60351,7.4707 3.60351,16.25976 0,6.5918 -3.25195,12.30469 -3.16406,5.625 -10.195313,9.14063 -7.03125,3.42773 -21.357423,3.42773 l -3.427735,0 z m -8.34961,30.32227 q -12.919923,0 -19.863283,5.88867 -6.855469,5.88868 -6.855469,16.08399 0,9.93164 6.855469,15.55664 6.855469,5.53711 19.863283,5.53711 13.007814,0 19.863283,-5.53711 6.94336,-5.625 6.94336,-15.55664 0,-10.3711 -6.94336,-16.17188 -6.94336,-5.80078 -19.863283,-5.80078 z m -3.867188,-90.52735 0,0 z"
           style="font-style:normal;font-variant:normal;font-weight:normal;font-stretch:normal;font-size:180.00001526px;line-height:125%;font-family:'Noto Sans Kannada';-inkscape-font-specification:'Noto Sans Kannada, Normal';text-align:start;writing-mode:lr-tb;text-anchor:start"
           id="path3363" />
        <path
           d="m 163.56162,901.13598 q -7.64649,-4.13086 -15.73243,-4.13086 -7.4707,0 -12.39258,3.33984 -4.92187,3.25195 -7.20703,9.84375 l 4.83399,0 q 16.52344,0 24.16992,6.5918 7.73438,6.5918 7.73438,17.57813 0,10.37109 -6.5918,16.17187 -6.5918,5.80078 -17.8418,5.80078 -13.00781,0 -20.39063,-8.34961 -7.29492,-8.4375 -7.29492,-23.20312 l 0,-0.61524 -29.355471,0 0,-13.97461 30.937501,0 q 3.33985,-12.56836 12.48047,-19.24805 9.14063,-6.67968 22.41211,-6.67968 12.04102,0 21.97266,5.53711 l -7.73437,11.33789 z m -37.26563,23.02734 0,1.31836 q 0,8.78907 3.86719,13.79883 3.86718,4.92188 10.72265,4.92188 10.45899,0 10.45899,-9.4043 0,-3.69141 -1.93359,-6.15234 -1.84571,-2.46094 -5.00977,-3.42774 -3.16406,-1.05469 -9.4043,-1.05469 l -8.70117,0 z"
           style="font-style:normal;font-variant:normal;font-weight:normal;font-stretch:normal;font-size:180.00001526px;line-height:125%;font-family:'Noto Sans Kannada';-inkscape-font-specification:'Noto Sans Kannada, Normal';text-align:start;writing-mode:lr-tb;text-anchor:start"
           id="path3367"
           inkscape:connector-curvature="0" />
        <path
           d="m 329.28846,996.14575 q -9.75586,15.46875 -31.37696,15.46875 -10.2832,0 -19.42382,-4.3066 -9.05274,-4.3946 -17.66602,-13.62309 -6.50391,8.78909 -16.08399,13.35939 -9.49219,4.5703 -21.18164,4.5703 -14.94141,0 -25.92774,-6.5918 -10.89844,-6.59179 -16.69922,-18.89648 -5.71289,-12.30469 -5.71289,-26.89453 0,-14.58985 6.06446,-26.36719 6.15234,-11.77735 17.13867,-18.28126 10.98633,-6.5039 24.69727,-6.5039 15.11719,0 25.92773,6.76758 10.81055,6.67968 16.43555,18.80859 5.625,12.12891 5.625,26.10352 0,11.33789 -3.51562,21.18164 7.03125,8.34961 14.41406,12.39258 7.38281,4.04297 16.08399,4.04297 10.81054,0 16.875,-6.85547 6.15234,-6.85547 6.15234,-18.89649 0,-16.52343 -9.4043,-29.17969 -9.3164,-12.65625 -26.01562,-18.28125 l -9.66797,0 0,-13.97461 20.21484,0 q 9.31641,0 14.0625,-0.96679 4.7461,-0.9668 7.03125,-3.69141 2.37305,-2.8125 2.37305,-7.4707 0,-11.51368 -11.68945,-22.93946 l 11.68945,-7.82227 q 7.38281,8.26172 10.98633,15.73243 3.60352,7.4707 3.60352,16.25976 0,9.49219 -6.15235,16.08399 -6.06445,6.5918 -17.75391,8.17383 25.48829,17.22656 25.48829,47.28516 0,6.15234 -1.14258,11.42578 7.03125,7.91016 14.0625,11.51367 7.11914,3.60352 15.73242,3.60352 10.63477,0 16.61133,-6.94336 6.06446,-6.94336 6.06446,-18.8086 0,-17.13867 -8.87696,-29.61914 -8.78906,-12.48047 -26.45508,-20.30273 l 7.73438,-13.97462 q 20.6543,10.28321 31.46485,26.54298 10.89843,16.25976 10.89843,36.5625 0,18.89648 -10.10742,29.88285 -10.01953,10.8984 -27.94922,10.8984 -19.16016,0 -34.62891,-15.46875 z M 222.9408,922.31762 q -15.11719,0 -24.08204,10.01953 -8.87695,9.93164 -8.87695,27.2461 0,18.01758 8.70117,27.94922 8.70117,9.84375 24.52149,9.84375 15.29297,0 24.16992,-10.10742 8.96485,-10.19532 8.96485,-27.94922 0,-17.31446 -8.87696,-27.15821 -8.78906,-9.84375 -24.52148,-9.84375 z m 46.66992,-58.35938 0,0 z"
           style="font-style:normal;font-variant:normal;font-weight:normal;font-stretch:normal;font-size:180.00001526px;line-height:125%;font-family:'Noto Sans Kannada';-inkscape-font-specification:'Noto Sans Kannada, Normal';text-align:start;writing-mode:lr-tb;text-anchor:start"
           id="path3369"
           inkscape:connector-curvature="0" />
        <path
           d="m 425.71006,975.052 q -0.8789,2.46094 -0.8789,6.50391 0,7.64648 4.57031,12.30468 4.6582,4.57032 13.35937,4.57032 11.16212,0 17.13868,-8.26172 6.06445,-8.26172 6.06445,-23.99414 0,-15.38087 -5.625,-24.52149 -5.625,-9.22852 -14.50195,-13.35938 -8.87696,-4.13086 -27.50977,-4.13086 l -42.09961,0 -1.75782,-13.97461 47.28516,0 q 21.6211,0 33.57423,6.24024 12.04101,6.24023 18.7207,18.36914 6.76758,12.04102 6.76758,31.37696 0,21.79687 -10.01953,33.66206 -9.93164,11.77739 -28.12501,11.77739 -14.15039,0 -22.5,-7.998 -8.34961,-8.08598 -8.34961,-20.74223 0,-11.07422 5.53711,-17.40235 5.53711,-6.32813 14.41407,-6.32813 6.59179,0 10.37109,3.25196 3.7793,3.25195 3.7793,8.96484 0,5.09766 -2.90039,8.26172 -2.8125,3.07617 -7.03125,3.07617 -4.30664,0 -7.03125,-1.93359 -2.72461,-2.02148 -3.25196,-5.71289 z"
           style="font-style:normal;font-variant:normal;font-weight:normal;font-stretch:normal;font-size:180.00001526px;line-height:125%;font-family:'Noto Sans Kannada';-inkscape-font-specification:'Noto Sans Kannada, Normal';text-align:start;writing-mode:lr-tb;text-anchor:start"
           id="path3373"
           inkscape:connector-curvature="0" />
        <path
           d="m 506.14951,954.83715 q 0,11.86524 5.71289,21.70899 5.71289,9.75586 16.43554,15.11719 10.72266,5.36133 25.13673,5.36133 22.5,0 34.80464,-10.01953 12.3047,-10.10743 12.3047,-28.12501 0,-23.81836 -26.63083,-37.79297 l 8.34963,-13.27148 q 33.1348,17.84179 33.1348,51.15234 0,24.16993 -16.084,38.40821 -16.084,14.23828 -46.40629,14.23828 -18.36914,0 -32.16797,-7.0312 -13.79883,-7.0313 -21.26953,-20.127 -7.47071,-13.09571 -7.47071,-30.32227 0,-13.79883 4.92188,-24.34571 4.92187,-10.54687 13.44727,-16.08398 8.61328,-5.625 19.24804,-5.625 11.60157,0 18.36915,6.5039 6.76758,6.50391 6.76758,17.66602 0,12.2168 -8.34961,19.6875 -8.34961,7.47071 -22.76368,7.47071 -9.84375,0 -17.49023,-4.57032 z m 1.14257,-12.83203 q 6.76758,4.7461 15.11719,4.7461 8.87696,0 13.53516,-3.60352 4.74609,-3.69141 4.74609,-10.2832 0,-5.7129 -3.25195,-8.87696 -3.16406,-3.25195 -8.52539,-3.25195 -7.91016,0 -13.71094,5.44922 -5.71289,5.44922 -7.91016,15.82031 z m 62.66602,-20.21484 0,0 z"
           style="font-style:normal;font-variant:normal;font-weight:normal;font-stretch:normal;font-size:180.00001526px;line-height:125%;font-family:'Noto Sans Kannada';-inkscape-font-specification:'Noto Sans Kannada, Normal';text-align:start;writing-mode:lr-tb;text-anchor:start"
           id="path3375"
           inkscape:connector-curvature="0" />
        <path
           d="m 611.19562,923.02074 q 14.0625,17.13868 30.8496,17.13868 10.6347,0 15.5566,-4.92188 5.0098,-4.92187 5.0098,-15.20508 l 0,-1.75781 0,-1.31836 q -0.088,-0.61523 -0.088,-1.23047 -8.5254,7.64649 -20.6543,7.64649 -10.6348,0 -17.4024,-5.27344 -6.7675,-5.27344 -6.7675,-14.76563 0,-9.58008 7.1191,-15.73242 7.207,-6.24024 18.6328,-6.24024 14.6778,0 23.9063,10.54688 9.3164,10.54688 9.3164,26.89453 0,17.05079 -8.7012,25.92774 -8.6133,8.78906 -24.6973,8.78906 -13.0078,0 -23.1152,-5.88867 -10.1074,-5.88867 -16.5234,-16.52344 l 7.5586,-8.08594 z m 48.3398,-18.36914 q -2.6367,-5.27344 -7.0312,-8.17383 -4.3067,-2.98828 -9.1407,-2.98828 -5.8886,0 -8.9648,2.46094 -3.0762,2.37305 -3.0762,6.50391 0,4.30664 2.9004,6.67968 2.9004,2.28516 7.5586,2.28516 10.8984,0 17.7539,-6.76758 z m 19.0723,5.53711 0,0 z m -9.7559,-46.23047 0,0 z m -20.6543,145.54686 0,0 z"
           style="font-style:normal;font-variant:normal;font-weight:normal;font-stretch:normal;font-size:180.00001526px;line-height:125%;font-family:'Noto Sans Kannada';-inkscape-font-specification:'Noto Sans Kannada, Normal';text-align:start;writing-mode:lr-tb;text-anchor:start"
           id="path3379"
           inkscape:connector-curvature="0" />
        <path
           d="m 746.37973,910.18871 q 9.3164,0 14.0625,-0.96679 4.7461,-0.9668 7.0313,-3.69141 2.373,-2.8125 2.373,-7.4707 0,-11.51368 -11.6894,-22.93946 l 11.6894,-7.82227 q 7.4707,8.34961 10.9863,15.82032 3.6036,7.4707 3.6036,16.25976 0,9.22852 -5.8887,15.90821 -5.8887,6.5918 -17.3145,8.17383 11.25,8.52539 17.2266,22.67578 5.9766,14.0625 5.9766,40.3418 l 0,23.02732 -16.2598,0 0,-19.4238 q 0,-16.96289 -1.6699,-27.94922 -1.67,-11.07422 -6.2403,-20.21485 -4.5703,-9.22852 -10.6347,-13.44727 -5.9766,-4.30664 -14.1504,-4.30664 -6.1524,0 -10.9864,2.19727 -4.7461,2.19726 -8.7011,6.5918 -3.8672,4.39453 -7.3828,12.91992 -3.4278,8.4375 -4.834,18.98438 -1.4063,10.45898 -1.4063,25.22461 l 0,19.4238 -16.2597,0 0,-22.41208 q 0,-25.13673 5.8007,-40.16602 5.8887,-15.0293 17.1387,-22.76368 l -23.5547,0 0,-13.97461 61.084,0 z m -21.4453,-46.23047 0,0 z"
           style="font-style:normal;font-variant:normal;font-weight:normal;font-stretch:normal;font-size:180.00001526px;line-height:125%;font-family:'Noto Sans Kannada';-inkscape-font-specification:'Noto Sans Kannada, Normal';text-align:start;writing-mode:lr-tb;text-anchor:start"
           id="path3381"
           inkscape:connector-curvature="0" />
        <path
           d="m 843.7792,901.13598 q -7.64647,-4.13086 -15.73237,-4.13086 -7.4707,0 -12.3926,3.33984 -4.9218,3.25195 -7.207,9.84375 l 4.834,0 q 16.5234,0 24.1699,6.5918 7.73437,6.5918 7.73437,17.57813 0,10.37109 -6.59177,16.17187 -6.5918,5.80078 -17.8418,5.80078 -13.0078,0 -20.3906,-8.34961 -7.295,-8.4375 -7.295,-23.20312 l 0,-0.61524 -29.3554,0 0,-13.97461 30.9375,0 q 3.3398,-12.56836 12.4804,-19.24805 9.1407,-6.67968 22.4121,-6.67968 12.0411,0 21.97267,5.53711 l -7.7344,11.33789 z m -37.26557,23.02734 0,1.31836 q 0,8.78907 3.8672,13.79883 3.8672,4.92188 10.7226,4.92188 10.459,0 10.459,-9.4043 0,-3.69141 -1.9336,-6.15234 -1.8457,-2.46094 -5.0097,-3.42774 -3.1641,-1.05469 -9.4043,-1.05469 l -8.7012,0 z"
           style="font-style:normal;font-variant:normal;font-weight:normal;font-stretch:normal;font-size:180.00001526px;line-height:125%;font-family:'Noto Sans Kannada';-inkscape-font-specification:'Noto Sans Kannada, Normal';text-align:start;writing-mode:lr-tb;text-anchor:start"
           id="path3385"
           inkscape:connector-curvature="0" />
        <path
           d="m 936.1718,922.93285 q 10.459,7.20704 15.293,17.13868 4.834,9.93164 4.834,23.73047 0,13.88672 -6.1524,24.78516 -6.1523,10.89843 -17.8418,16.96284 -11.6894,6.0645 -27.0703,6.0645 -15.0293,0 -26.8066,-5.7129 -11.6895,-5.8008 -18.1055,-16.69921 -6.3281,-10.89844 -6.3281,-25.40039 0,-26.45508 19.248,-39.63868 l -19.248,0 0,-13.97461 64.248,0 q 9.3164,0 14.0625,-0.96679 4.7461,-0.9668 7.0313,-3.69141 2.373,-2.8125 2.373,-7.4707 0,-11.51368 -11.6894,-22.93946 l 11.6894,-7.82227 q 7.3828,8.26172 10.9864,15.73243 3.6035,7.4707 3.6035,16.25976 0,8.78907 -5.2735,15.20508 -5.1855,6.32813 -14.8535,8.4375 z m -30.6738,1.23047 q -16.5235,0 -26.6309,10.01953 -10.1074,10.01954 -10.1074,26.54298 0,16.96289 9.7559,26.63086 9.8437,9.66797 26.8066,9.66797 16.9629,0 26.543,-9.93164 9.6679,-10.01954 9.6679,-26.36719 0,-16.52344 -10.1074,-26.54298 -10.0195,-10.01953 -25.9277,-10.01953 z m -3.1641,-60.20508 0,0 z"
           style="font-style:normal;font-variant:normal;font-weight:normal;font-stretch:normal;font-size:180.00001526px;line-height:125%;font-family:'Noto Sans Kannada';-inkscape-font-specification:'Noto Sans Kannada, Normal';text-align:start;writing-mode:lr-tb;text-anchor:start"
           id="path3387"
           inkscape:connector-curvature="0" />
        <path
           d="m 977.22789,924.16332 0,-13.97461 91.84571,0 q 9.3164,0 14.0625,-0.96679 4.7461,-0.9668 7.0313,-3.69141 2.373,-2.8125 2.373,-7.4707 0,-11.51368 -11.6894,-22.93946 l 11.6894,-7.82227 q 7.3828,8.26172 10.9863,15.73243 3.6036,7.4707 3.6036,16.25976 0,6.5918 -3.252,12.30469 -3.1641,5.625 -10.1953,9.14063 -7.0313,3.42773 -21.3574,3.42773 l -95.09771,0 z m 112.67581,7.11914 q 17.2266,18.89649 17.2266,42.53907 0,17.75391 -8.877,27.77347 -8.7891,10.0195 -22.6758,10.0195 -10.459,0 -17.2265,-3.3398 -6.7676,-3.3399 -12.8321,-12.83207 -5.2734,8.08597 -12.6562,12.12887 -7.2949,4.043 -20.5664,4.043 -15.46881,0 -25.31251,-8.877 -9.7559,-8.87691 -9.7559,-23.20308 0,-12.48047 7.5586,-20.39063 7.5586,-7.99804 19.77541,-7.99804 9.5801,0 15.3808,4.57031 5.8008,4.57031 5.8008,12.2168 0,6.67969 -2.373,10.63476 l -12.3047,-1.14257 q 1.1426,-3.07618 1.1426,-5.80079 0,-3.86718 -2.1973,-5.80078 -2.1973,-2.02148 -5.9766,-2.02148 -6.06441,0 -9.58001,4.13086 -3.5157,4.04297 -3.5157,10.89844 0,8.61328 5.8887,13.62304 5.97661,4.92188 17.05081,4.92188 22.6758,0 24.6973,-22.93946 l 13.7988,0 q 0.791,10.98633 6.5918,16.9629 5.8008,5.97656 15.293,5.97656 8.789,0 13.4472,-5.71289 4.6582,-5.80078 4.6582,-16.61133 0,-9.4043 -3.7793,-17.92969 -3.7793,-8.61328 -11.3379,-17.31445 l 12.6563,-8.5254 z m -45.9668,3.60352 q 4.3945,0 7.4707,3.07617 3.0762,3.07617 3.0762,7.5586 0,4.39453 -3.1641,7.4707 -3.0762,3.07617 -7.3828,3.07617 -4.3066,0 -7.3828,-3.07617 -2.9883,-3.16406 -2.9883,-7.4707 0,-4.30664 2.9004,-7.47071 2.9883,-3.16406 7.4707,-3.16406 z m -6.7676,100.45902 1.4063,-28.5645 13.8867,0 1.4062,28.5645 -16.6992,0 z m 1.4942,-171.38676 0,0 z"
           style="font-style:normal;font-variant:normal;font-weight:normal;font-stretch:normal;font-size:180.00001526px;line-height:125%;font-family:'Noto Sans Kannada';-inkscape-font-specification:'Noto Sans Kannada, Normal';text-align:start;writing-mode:lr-tb;text-anchor:start"
           id="path3389"
           inkscape:connector-curvature="0" />
        <path
           d="m 1103.1041,921.59217 q 14.0625,17.13868 30.8496,17.13868 10.6348,0 15.5567,-4.92188 5.0097,-4.92187 5.0097,-15.20508 l 0,-1.75781 0,-1.31836 q -0.088,-0.61523 -0.088,-1.23047 -8.5254,7.64649 -20.6543,7.64649 -10.6347,0 -17.4023,-5.27344 -6.7676,-5.27344 -6.7676,-14.76563 0,-9.58008 7.1192,-15.73242 7.207,-6.24024 18.6328,-6.24024 14.6777,0 23.9062,10.54688 9.3164,10.54688 9.3164,26.89453 0,17.05079 -8.7011,25.92774 -8.6133,8.78906 -24.6973,8.78906 -13.0078,0 -23.1152,-5.88867 -10.1075,-5.88867 -16.5235,-16.52344 l 7.5586,-8.08594 z m 48.3399,-18.36914 q -2.6368,-5.27344 -7.0313,-8.17383 -4.3066,-2.98828 -9.1406,-2.98828 -5.8887,0 -8.9649,2.46094 -3.0761,2.37305 -3.0761,6.50391 0,4.30664 2.9004,6.67968 2.9003,2.28516 7.5586,2.28516 10.8984,0 17.7539,-6.76758 z m 19.0722,5.53711 0,0 z m -9.7558,-46.23047 0,0 z m -20.6543,145.54683 0,0 z"
           style="font-style:normal;font-variant:normal;font-weight:normal;font-stretch:normal;font-size:180.00001526px;line-height:125%;font-family:'Noto Sans Kannada';-inkscape-font-specification:'Noto Sans Kannada, Normal';text-align:start;writing-mode:lr-tb;text-anchor:start"
           id="path3393"
           inkscape:connector-curvature="0" />
      </g>
      <flowRoot
         xml:space="preserve"
         id="flowRoot3354"
         style="fill:black;stroke:none;stroke-opacity:1;stroke-width:1px;stroke-linejoin:miter;stroke-linecap:butt;fill-opacity:1;font-family:sans-serif;font-style:normal;font-weight:normal;font-size:180px;line-height:125%;letter-spacing:0px;word-spacing:0px"><flowRegion
           id="flowRegion3356"><rect
             id="rect3358"
             width="2822.8572"
             height="582.85712"
             x="-162.85715"
             y="-213.11586" /></flowRegion><flowPara
           id="flowPara3360"></flowPara></flowRoot>    </g>
  </g>
</svg>
