<?xml version="1.0" encoding="UTF-8" standalone="no"?>
<!-- Created with Inkscape (http://www.inkscape.org/) -->

<svg
   xmlns:dc="http://purl.org/dc/elements/1.1/"
   xmlns:cc="http://creativecommons.org/ns#"
   xmlns:rdf="http://www.w3.org/1999/02/22-rdf-syntax-ns#"
   xmlns:svg="http://www.w3.org/2000/svg"
   xmlns="http://www.w3.org/2000/svg"
   xmlns:sodipodi="http://sodipodi.sourceforge.net/DTD/sodipodi-0.dtd"
   xmlns:inkscape="http://www.inkscape.org/namespaces/inkscape"
   width="310mm"
   height="60mm"
   viewBox="0 0 1098.4251 212.59842"
   id="svg3370"
   version="1.1"
   inkscape:version="0.91 r13725"
   sodipodi:docname="latin calligraphy without.svg">
  <defs
     id="defs3372" />
  <sodipodi:namedview
     id="base"
     pagecolor="#ffffff"
     bordercolor="#666666"
     borderopacity="1.0"
     inkscape:pageopacity="0.0"
     inkscape:pageshadow="2"
     inkscape:zoom="0.98994949"
     inkscape:cx="542.21591"
     inkscape:cy="266.29229"
     inkscape:document-units="px"
     inkscape:current-layer="text3403"
     showgrid="false"
     inkscape:window-width="1920"
     inkscape:window-height="1027"
     inkscape:window-x="-8"
     inkscape:window-y="-8"
     inkscape:window-maximized="1" />
  <metadata
     id="metadata3375">
    <rdf:RDF>
      <cc:Work
         rdf:about="">
        <dc:format>image/svg+xml</dc:format>
        <dc:type
           rdf:resource="http://purl.org/dc/dcmitype/StillImage" />
        <dc:title></dc:title>
      </cc:Work>
    </rdf:RDF>
  </metadata>
  <g
     inkscape:label="Layer 1"
     inkscape:groupmode="layer"
     id="layer1"
     transform="translate(0,-839.76378)">
    <g
       style="font-style:normal;font-variant:normal;font-weight:500;font-stretch:normal;font-size:180px;line-height:125%;font-family:FoglihtenNo07;-inkscape-font-specification:'FoglihtenNo07 Medium';letter-spacing:0px;word-spacing:0px;fill:#000000;fill-opacity:1;stroke:none;stroke-width:1px;stroke-linecap:butt;stroke-linejoin:miter;stroke-opacity:1"
       id="text3403">
      <path
         d="m 18.318302,953.18789 c 0,32.94 23.04,54.90001 57.6,54.90001 18.9,0 36.179998,-8.64001 43.379998,-26.64001 l -3.06,-1.08 c -6.3,15.12 -22.859998,24.48001 -39.959998,24.48001 -23.22,0 -41.94,-24.30001 -41.94,-54.54001 0,-28.8 15.84,-48.06 39.96,-48.06 17.82,0 35.279998,12.6 36.179998,28.8 l 0.54,16.74 3.24,-0.18 -1.62,-52.02 -1.62,0.18 0.36,12.96 c 0,1.98 0.18,3.78 0.54,5.22 l -1.26,0.36 c -0.36,-1.26 -1.08,-2.7 -1.98,-3.6 -9.179998,-7.74 -20.879998,-11.52 -32.939998,-11.52 -31.86,0 -57.42,24.3 -57.42,54 z"
         id="path3408"
         inkscape:connector-curvature="0" />
      <path
         d="m 207.07924,929.60789 0,36.36 c 0,20.7 -15.84,37.26001 -35.1,37.26001 -15.3,0 -25.38,-9.72001 -25.38,-24.30001 0,-17.46 9.18,-29.16 23.04,-29.16 10.26,0 18.72,7.74 18.72,16.92 l 0,8.46 c 4.32,0 7.74,-3.6 7.74,-8.1 0,-11.16 -11.88,-20.52 -26.46,-20.52 -22.5,0 -37.44,13.32 -37.44,32.94 0,17.28 14.94,28.62001 37.62,28.62001 12.96,0 33.84,-7.56 39.24,-29.16001 l 1.8,0 c 0,2.88 0.54,7.2 1.44,11.7 0.9,5.76 1.98,11.88001 1.98,16.20001 l 0,1.44 c 5.04,-1.62 10.8,-3.06 19.62,-3.96 l -0.18,-1.62 -3.06,0.18 c 0,0 -2.52,0.18 -3.6,0.18 -5.4,0 -5.94,-1.98 -5.94,-9.18001 l 0,-61.92 c 0,-19.62 -18.54,-32.76 -46.26,-32.76 -10.8,0 -19.26,3.78 -24.84,7.92 -1.26,0.9 -2.7,3.6 -2.88,4.14 l -1.26,-0.36 c 0.36,-1.26 0.54,-3.24 0.72,-5.76 l 0.54,-9.54 -1.8,0 -1.98,42.48 3.06,0 0.54,-11.16 c 0.72,-13.86 10.26,-24.48 28.08,-24.48 19.08,0 32.04,10.98 32.04,27.18 z"
         id="path3410"
         inkscape:connector-curvature="0" />
      <path
         d="m 251.75299,984.68789 c 0,12.96 8.82,23.40001 19.44,23.40001 9.9,0 16.56,-6.3 16.56,-15.84001 0,-1.98 -0.36,-3.96 -1.08,-5.94 l -1.44,0.72 c 0.54,1.62 0.9,3.42 0.9,5.22 0,6.48 -4.32,10.62001 -10.44,10.62001 -6.3,0 -11.7,-4.86001 -11.7,-10.98001 0,-2.16 0.54,-4.68 1.8,-7.38 l 0,-111.42 0,-15.3 -1.44,0 0,0.72 c 0,7.38 -9,9.54 -16.2,9.54 l -10.26,0 0,1.62 8.46,0 c 3.42,0 5.4,2.16 5.4,5.4 l 0,109.62 z"
         id="path3412"
         inkscape:connector-curvature="0" />
      <path
         d="m 303.03089,984.68789 c 0,12.96 8.82,23.40001 19.44,23.40001 9.9,0 16.56,-6.3 16.56,-15.84001 0,-1.98 -0.36,-3.96 -1.08,-5.94 l -1.44,0.72 c 0.54,1.62 0.9,3.42 0.9,5.22 0,6.48 -4.32,10.62001 -10.44,10.62001 -6.3,0 -11.7,-4.86001 -11.7,-10.98001 0,-2.16 0.54,-4.68 1.8,-7.38 l 0,-111.42 0,-15.3 -1.44,0 0,0.72 c 0,7.38 -9,9.54 -16.2,9.54 l -10.26,0 0,1.62 8.46,0 c 3.42,0 5.4,2.16 5.4,5.4 l 0,109.62 z"
         id="path3414"
         inkscape:connector-curvature="0" />
      <path
         d="m 363.61728,862.14281 c -5.04,0 -8.1,3.24 -8.1,7.92 0,5.04 3.42,8.1 8.1,8.1 5.04,0 7.92,-3.42 7.92,-8.1 0,-5.04 -3.24,-7.92 -7.92,-7.92 z m -7.02,122.58 c 0,12.96 8.82,23.39999 19.44,23.39999 9.9,0 16.56,-6.3 16.56,-15.83999 0,-1.98 -0.36,-3.96 -1.08,-5.94 l -1.44,0.72 c 0.54,1.62 0.9,3.42 0.9,5.22 0,6.48 -4.32,10.61999 -10.44,10.61999 -6.3,0 -11.7,-4.85999 -11.7,-10.97999 0,-2.16 0.54,-4.68 1.8,-7.38 l 0,-74.16 0,-15.3 -1.44,0 0,0.72 c 0,7.38 -9,9.54 -16.2,9.54 l -9.9,0 0,1.62 8.1,0 c 3.42,0 5.4,1.98 5.4,5.4 l 0,72.36 z"
         id="path3416"
         inkscape:connector-curvature="0" />
      <path
         d="m 452.13791,901.74281 c 20.16,0 36.72,15.66 36.72,34.92 0,20.52 -14.76,34.02 -36.72,34.02 -19.62,0 -35.46,-17.28 -35.46,-38.88 0,-18 14.04,-30.06 35.46,-30.06 z m -45,107.63999 c 0,-6.3 6.3,-11.69999 14.4,-11.69999 4.32,0 8.1,-3.42 8.1,-7.74 l -3.6,0 c -12.24,0 -22.14,8.82 -22.14,19.43999 0,16.2 22.14,28.8 52.74,28.8 26.1,0 49.14,-13.68 49.14,-29.7 0,-20.15999 -16.02,-22.13999 -32.4,-22.13999 l -11.16,0 c -12.6,0 -23.22,-1.08 -23.22,-12.42 l 0,-1.08 c 3.96,0.72 8.28,1.08 12.96,1.08 28.08,0 50.94,-17.64 50.94,-39.6 0,-5.76 -1.62,-11.16 -4.5,-15.84 -1.26,-2.16 -1.8,-4.5 -1.8,-6.84 0,-5.58 3.06,-10.98 7.92,-13.68 2.16,-1.26 3.06,-3.24 3.06,-5.4 0,-1.8 -0.54,-3.6 -1.62,-5.22 l -3.06,1.8 c -6.84,3.96 -10.62,11.34 -10.62,18.9 0,1.26 0.18,2.34 0.36,3.6 -9,-8.1 -23.22,-12.96 -40.68,-12.96 -27.36,0 -49.32,16.02 -49.32,35.64 0,19.26 12.6,33.12 33.12,37.98 l 0,1.62 c 0,25.2 23.58,25.56 42.84,25.74001 12.96,0 23.94,1.07998 23.94,8.81998 0,10.08 -21.6,17.64 -45.9,17.64 -28.62,0 -49.5,-7.02 -49.5,-16.74 z"
         id="path3418"
         inkscape:connector-curvature="0" />
      <path
         d="m 534.00697,994.98281 c 0,6.47999 -3.24,9.53999 -9.54,9.53999 l -6.3,0 0,1.62 50.94,0 0,-1.44 -11.34,0 c -6.3,0 -9.72,-3.24 -9.72,-9.53999 l 0,-41.58 c 0,-30.24 12.24,-50.4 30.42,-50.4 l 0,0.18 c -0.72,1.08 -1.26,2.52 -1.26,4.14 0,4.32 3.78,8.1 8.1,8.1 4.32,0 7.92,-3.78 7.92,-8.1 0,-3.6 -2.34,-6.48 -5.4,-7.56 -2.88,-1.08 -5.94,-1.44 -9.36,-1.44 -14.94,0 -27.36,12.96 -32.04,35.1 l -1.44,0 0,-0.36 c 0.72,-2.52 1.44,-10.44 1.44,-16.56 l 0,-23.58 -1.44,0 0,0.72 c 0,7.38 -7.38,11.7 -14.58,13.14 l -13.86,2.88 0.18,1.08 10.62,-0.9 c 0.18,0 0.36,0 0.54,0 3.6,0 6.12,2.7 6.12,5.76 l 0,79.2 z"
         id="path3420"
         inkscape:connector-curvature="0" />
      <path
         d="m 674.15385,929.10281 0,36.36 c 0,20.7 -15.84,37.25999 -35.1,37.25999 -15.3,0 -25.38,-9.71999 -25.38,-24.29999 0,-17.46 9.18,-29.16 23.04,-29.16 10.26,0 18.72,7.74 18.72,16.92 l 0,8.46 c 4.32,0 7.74,-3.6 7.74,-8.1 0,-11.16 -11.88,-20.52 -26.46,-20.52 -22.5,0 -37.44,13.32 -37.44,32.94 0,17.28 14.94,28.61999 37.62,28.61999 12.96,0 33.84,-7.56 39.24,-29.15999 l 1.8,0 c 0,2.88 0.54,7.2 1.44,11.7 0.9,5.76 1.98,11.87999 1.98,16.19999 l 0,1.44 c 5.04,-1.62 10.8,-3.06 19.62,-3.96 l -0.18,-1.62 -3.06,0.18 c 0,0 -2.52,0.18 -3.6,0.18 -5.4,0 -5.94,-1.98 -5.94,-9.17999 l 0,-61.92 c 0,-19.62 -18.54,-32.76 -46.26,-32.76 -10.8,0 -19.26,3.78 -24.84,7.92 -1.26,0.9 -2.7,3.6 -2.88,4.14 l -1.26,-0.36 c 0.36,-1.26 0.54,-3.24 0.72,-5.76 l 0.54,-9.54 -1.8,0 -1.98,42.48 3.06,0 0.54,-11.16 c 0.72,-13.86 10.26,-24.48 28.08,-24.48 19.08,0 32.04,10.98 32.04,27.18 z"
         id="path3422"
         inkscape:connector-curvature="0" />
      <path
         d="m 721.03822,915.78281 0,107.99999 c 0,8.64 -0.9,9.54 -9.54,9.54 l -6.3,0 0,1.62 45.9,0 0,-1.62 -6.3,0 c -8.64,0 -9.72,-0.9 -9.72,-9.54 l 0,-77.93999 c 0,-21.96 21.96,-43.92 44.1,-43.92 20.7,0 37.8,21.6 37.8,47.88 0,32.76 -15.3,54.53999 -38.16,54.53999 -18,0 -32.4,-12.77999 -32.4,-28.79999 0,-13.5 10.08,-22.5 25.2,-22.5 4.32,0 8.1,-3.42 8.1,-7.74 l -3.6,0 c -18.18,0 -32.94,13.68 -32.94,30.24 0,17.82 15.84,32.03999 35.64,32.03999 29.7,0 53.82,-24.29999 53.82,-54.53999 0,-32.58 -21.78,-54.36 -54.18,-54.36 -21.78,0 -43.56,20.52 -46.44,42.3 l -0.9,0 c 0.18,-1.62 1.08,-21.42 1.08,-24.3 l 0,-23.58 -1.44,0 0,0.72 c 0,7.38 -6.12,11.7 -13.32,13.14 l -13.86,2.88 0.18,1.08 10.62,-0.9 c 0.18,0 0.36,0 0.54,0 3.6,0 6.12,2.7 6.12,5.76 z"
         id="path3424"
         inkscape:connector-curvature="0" />
      <path
         d="m 872.34228,945.66281 c 0,-26.28 14.04,-43.92 32.4,-43.92 12.59996,0 17.63996,9.54 17.63996,27.18 l 0,55.8 c 0,12.96 8.64,23.39999 19.44,23.39999 9.9,0 16.56,-6.3 16.56,-15.83999 0,-8.1 -5.22,-14.94 -10.26,-18 -4.32,0 -7.02,1.08 -7.02,2.7 8.28,1.08 15.66,5.58 15.66,15.3 0,6.48 -4.32,10.61999 -10.44,10.61999 -7.02,0 -11.7,-4.31999 -11.7,-10.97999 0,-2.16 0.54,-4.68 1.8,-7.38 l 0,-58.68 c 0,-16.2 -10.8,-27.18 -30.23996,-27.18 -14.94,0 -27.72,9.9 -32.94,25.2 -1.08,3.24 -2.52,8.46 -2.88,11.7 l -1.26,0 c 0.18,-1.62 3.24,-29.52 3.24,-46.8 l 0,-31.5 -1.44,0 0,0.72 c 0,7.38 -9,9.54 -16.2,9.54 l -10.26,0 0,1.62 8.46,0 c 3.42,0 5.4,1.98 5.4,5.4 l 0,120.42 c 0,8.63999 -0.9,9.53999 -9.54,9.53999 l -6.3,0 0,1.62 45.9,0 0,-1.62 -6.3,0 c -8.64,0 -9.72,-0.9 -9.72,-9.53999 l 0,-49.32 z"
         id="path3426"
         inkscape:connector-curvature="0" />
      <path
         d="m 991.34194,1030.6228 c -9.9,0 -17.64,-6.12 -17.64,-13.68 0,-7.02 5.76,-11.7 14.4,-11.7 4.86,0 8.1,-3.06 8.1,-7.73999 l -3.6,0 c -13.32,0 -22.14,7.91999 -22.14,19.43999 0,11.88 9,21.24 20.34,21.24 9.35996,0 18.35986,-7.38 24.29986,-22.14 l 37.08,-103.13999 c 2.7,-7.92 4.5,-11.34 10.44,-11.34 l 1.08,0 0,-1.44 -30.96,0 0,1.62 8.28,0 c 6.66,0 8.82,2.52 8.82,5.76 0,1.62 -0.72,3.6 -1.26,5.4 l -25.74,71.28 -1.26,0 c 0,-1.26 -0.18,-4.68 -1.26,-7.56 l -31.13986,-66.06 c -1.62,-3.24 -3.6,-7.56 -6.12,-8.46 l 0,-0.36 12.96,0 0,-1.62 -34.74,0 0,1.62 2.7,0 c 5.4,0 6.84,3.06 10.8,11.16 l 39.59986,84.06 c 0.72,1.98 1.08,3.77999 1.08,5.57999 0,1.62 -0.36,3.24 -0.9,4.5 l -3.06,9 c -2.7,7.92 -8.0999,14.58 -20.15986,14.58 z"
         id="path3428"
         inkscape:connector-curvature="0" />
    </g>
  </g>
</svg>
