<?xml version="1.0" encoding="UTF-8" standalone="no"?>
<!-- Created with Inkscape (http://www.inkscape.org/) -->

<svg
   xmlns:dc="http://purl.org/dc/elements/1.1/"
   xmlns:cc="http://creativecommons.org/ns#"
   xmlns:rdf="http://www.w3.org/1999/02/22-rdf-syntax-ns#"
   xmlns:svg="http://www.w3.org/2000/svg"
   xmlns="http://www.w3.org/2000/svg"
   xmlns:sodipodi="http://sodipodi.sourceforge.net/DTD/sodipodi-0.dtd"
   xmlns:inkscape="http://www.inkscape.org/namespaces/inkscape"
   width="210mm"
   height="70mm"
   viewBox="0 0 744.09449 248.0315"
   id="svg2"
   version="1.1"
   inkscape:version="0.91 r13725"
   sodipodi:docname="calligraphy kannada good kyaligrafi.svg">
  <defs
     id="defs4" />
  <sodipodi:namedview
     id="base"
     pagecolor="#ffffff"
     bordercolor="#666666"
     borderopacity="1.0"
     inkscape:pageopacity="0.0"
     inkscape:pageshadow="2"
     inkscape:zoom="0.7"
     inkscape:cx="-73.302094"
     inkscape:cy="280.1309"
     inkscape:document-units="px"
     inkscape:current-layer="layer1"
     showgrid="false"
     inkscape:window-width="1920"
     inkscape:window-height="1027"
     inkscape:window-x="-8"
     inkscape:window-y="-8"
     inkscape:window-maximized="1" />
  <metadata
     id="metadata7">
    <rdf:RDF>
      <cc:Work
         rdf:about="">
        <dc:format>image/svg+xml</dc:format>
        <dc:type
           rdf:resource="http://purl.org/dc/dcmitype/StillImage" />
        <dc:title></dc:title>
      </cc:Work>
    </rdf:RDF>
  </metadata>
  <g
     inkscape:label="Layer 1"
     inkscape:groupmode="layer"
     id="layer1"
     transform="translate(0,-804.3307)">
    <g
       style="font-style:normal;font-weight:normal;font-size:180px;line-height:125%;font-family:sans-serif;letter-spacing:0px;word-spacing:0px;fill:#000000;fill-opacity:1;stroke:none;stroke-width:1px;stroke-linecap:butt;stroke-linejoin:miter;stroke-opacity:1"
       id="text3341">
      <path
         d="m 117.89339,875.59185 -16.52344,0 q 2.90039,4.83399 2.90039,9.22852 0,4.92187 -2.28515,8.52539 l 36.47461,0 0,12.56836 -17.49024,-0.26367 q 6.41602,3.86718 9.84375,10.10742 3.51563,6.24023 3.51563,13.79883 0,15.73242 -10.98633,24.60938 -10.98633,8.87695 -30.937504,8.87695 -18.808595,0 -29.707034,-8.96484 -10.898438,-9.05274 -10.898438,-24.16993 0,-15.29297 12.832032,-24.16992 l -16.787111,0.17578 0,-12.56836 37.529301,0 q 4.658203,-3.42774 4.658203,-8.70117 0,-4.65821 -2.988281,-9.05274 l -39.199223,0 0,-13.97461 70.048835,0 0,13.97461 z m -24.873049,30.32227 q -12.919923,0 -19.863283,5.88867 -6.85547,5.88867 -6.85547,16.08399 0,9.93164 6.85547,15.55664 6.855469,5.53711 19.863283,5.53711 13.007809,0 19.863279,-5.53711 6.94336,-5.625 6.94336,-15.55664 0,-10.3711 -6.94336,-16.17188 -6.94336,-5.80078 -19.863279,-5.80078 z"
         style="font-style:normal;font-variant:normal;font-weight:normal;font-stretch:normal;font-size:180.00001526px;line-height:125%;font-family:'Noto Sans Kannada';-inkscape-font-specification:'Noto Sans Kannada, Normal';text-align:start;writing-mode:lr-tb;text-anchor:start"
         id="path3346" />
      <path
         d="m 162.98128,926.48053 q -0.8789,2.46093 -0.8789,6.5039 0,7.64649 4.57031,12.30469 4.6582,4.57032 13.35938,4.57032 11.16211,0 17.13867,-8.26172 6.06445,-8.26172 6.06445,-23.99415 0,-15.38086 -5.625,-24.52148 -5.625,-9.22852 -14.50195,-13.35938 -8.87696,-4.13086 -27.50977,-4.13086 l -42.09961,0 -1.75782,-13.97461 47.28516,0 q 21.6211,0 33.57423,6.24024 12.04101,6.24023 18.7207,18.36914 6.76758,12.04101 6.76758,31.37695 0,21.79688 -10.01953,33.66212 -9.93164,11.77734 -28.12501,11.77734 -14.15039,0 -22.5,-7.99805 -8.34961,-8.08594 -8.34961,-20.74219 0,-11.07422 5.53711,-17.40234 5.53711,-6.32813 14.41407,-6.32813 6.59179,0 10.37109,3.25196 3.7793,3.25195 3.7793,8.96484 0,5.09766 -2.90039,8.26172 -2.8125,3.07617 -7.03125,3.07617 -4.30664,0 -7.03125,-1.93359 -2.72461,-2.02149 -3.25196,-5.71289 z"
         style="font-style:normal;font-variant:normal;font-weight:normal;font-stretch:normal;font-size:180.00001526px;line-height:125%;font-family:'Noto Sans Kannada';-inkscape-font-specification:'Noto Sans Kannada, Normal';text-align:start;writing-mode:lr-tb;text-anchor:start"
         id="path3348" />
      <path
         d="m 202.79574,991.16803 -11.33789,3.69141 q -2.28516,-4.6582 -2.28516,-9.93164 0,-6.15235 5.88867,-10.10743 5.80079,-3.95507 15.82032,-3.95507 9.84375,0 14.94141,3.77929 5.09765,3.86719 5.09765,11.3379 0,5.80078 -3.42773,9.58007 -3.33985,3.7793 -10.63477,7.55864 -6.85547,3.6914 -8.61328,5.7128 -1.75781,2.0215 -1.75781,4.5704 0,8.6132 18.7207,8.6132 13.09571,0 20.39063,-5.3613 7.38281,-5.3613 7.38281,-13.8867 0,-4.48243 -1.40625,-8.34961 -1.31836,-3.7793 -3.60351,-7.20704 -2.28516,-3.42773 -7.38282,-9.05273 -5.18555,-5.71289 -7.4707,-8.87696 -2.19727,-3.07617 -3.60352,-6.76757 -1.31836,-3.60352 -1.31836,-7.5586 0,-8.34961 5.97657,-13.18359 5.97656,-4.92188 15.11718,-4.92188 19.24805,0 22.5879,18.45703 l -12.83204,2.10938 q -2.19726,-9.14063 -9.84375,-9.14063 -3.51562,0 -5.625,1.75782 -2.02148,1.75781 -2.02148,5.09765 0,2.90039 2.02148,5.97657 2.02149,3.07617 5.97657,7.20703 7.38281,7.73437 10.54687,12.56836 3.25196,4.92187 4.92188,10.10742 1.66992,5.27344 1.66992,11.25005 0,10.1074 -5.18555,17.4023 -5.18554,7.2949 -14.85351,10.9863 -9.66797,3.7793 -21.6211,3.7793 -15.29297,0 -23.29102,-5.625 -7.99805,-5.625 -7.99805,-15.2929 0,-5.7129 2.81251,-9.668 2.8125,-3.9551 12.04101,-8.96486 5.80078,-3.16406 7.73438,-4.92188 1.8457,-1.66992 1.8457,-3.95507 0,-4.48243 -7.20703,-4.48243 -9.22852,0 -9.22852,5.44922 0,2.28516 1.05469,4.21875 z m 14.58985,14.32617 0,0 z m -5.80079,-44.56055 0,0 z m 37.17774,78.83795 0,0 z"
         style="font-style:normal;font-variant:normal;font-weight:normal;font-stretch:normal;font-size:180.00001526px;line-height:125%;font-family:'Noto Sans Kannada';-inkscape-font-specification:'Noto Sans Kannada, Normal';text-align:start;writing-mode:lr-tb;text-anchor:start"
         id="path3350" />
      <path
         d="m 293.14731,906.26568 q 0,19.16016 12.48047,30.67383 12.48047,11.51367 35.15625,11.51367 24.60938,0 38.40821,-14.23828 13.88672,-14.23828 13.88672,-39.99024 0,-11.60156 -2.72461,-22.67578 -2.63672,-11.16211 -7.82227,-19.51172 -3.60352,7.38281 -10.2832,11.42578 -6.67969,4.04297 -15.64454,4.04297 -11.95312,0 -18.7207,-5.71289 -6.67969,-5.80078 -6.67969,-16.34766 0,-9.40429 7.29492,-15.55664 7.29493,-6.24023 19.16016,-6.24023 14.85352,0 26.36719,8.87695 11.51367,8.78906 17.8418,25.22461 6.41601,16.34766 6.41601,36.47461 0,32.43165 -17.84179,50.62501 -17.75391,18.19336 -50.97657,18.19336 -18.54492,0 -32.34375,-7.11914 -13.79883,-7.20703 -21.09375,-20.47852 -7.29493,-13.27148 -7.29493,-30.14649 0,-13.18359 4.7461,-23.64258 4.74609,-10.54687 13.35937,-16.34765 8.61328,-5.80079 19.07227,-5.80079 11.77734,0 18.8086,6.5918 7.03125,6.5918 7.03125,17.57813 0,12.2168 -8.34961,19.6875 -8.34961,7.4707 -22.76368,7.4707 -9.84375,0 -17.49023,-4.57031 z m 79.45313,-65.12696 q -7.11914,-4.92187 -15.55664,-4.92187 -5.44922,0 -8.61329,2.54883 -3.07617,2.54882 -3.07617,6.85547 0,4.30664 2.72461,6.85546 2.72461,2.46094 7.91016,2.46094 6.94336,0 11.07422,-3.60351 4.21875,-3.60352 5.53711,-10.19532 z m -78.22266,52.29493 q 6.5039,4.74609 15.02929,4.74609 8.87696,0 13.53516,-3.60351 4.74609,-3.69141 4.74609,-10.28321 0,-5.71289 -3.25195,-8.87695 -3.16406,-3.25195 -8.61328,-3.25195 -7.99805,0 -13.71094,5.625 -5.625,5.53711 -7.73437,15.64453 z m 32.43164,-78.04688 0,0 z"
         style="font-style:normal;font-variant:normal;font-weight:normal;font-stretch:normal;font-size:180.00001526px;line-height:125%;font-family:'Noto Sans Kannada';-inkscape-font-specification:'Noto Sans Kannada, Normal';text-align:start;writing-mode:lr-tb;text-anchor:start"
         id="path3352" />
      <path
         d="m 485.01256,861.61724 q 9.31641,0 14.0625,-0.9668 4.7461,-0.96679 7.03125,-3.6914 2.37305,-2.8125 2.37305,-7.47071 0,-11.51367 -11.68946,-22.93945 l 11.68946,-7.82227 q 7.4707,8.34961 10.98633,15.82032 3.60351,7.4707 3.60351,16.25976 0,9.22852 -5.88867,15.90821 -5.88867,6.59179 -17.31445,8.17383 11.25,8.52539 17.22656,22.67578 5.97656,14.0625 5.97656,40.3418 l 0,23.02734 -16.25976,0 0,-19.42382 q 0,-16.9629 -1.66993,-27.94923 -1.66992,-11.07422 -6.24023,-20.21484 -4.57031,-9.22852 -10.63477,-13.44727 -5.97656,-4.30664 -14.15039,-4.30664 -6.15234,0 -10.98633,2.19727 -4.74609,2.19726 -8.70117,6.59179 -3.86719,4.39454 -7.38281,12.91993 -3.42774,8.4375 -4.83399,18.98437 -1.40625,10.45899 -1.40625,25.22462 l 0,19.42382 -16.25977,0 0,-22.41211 q 0,-25.13672 5.80079,-40.16602 5.88867,-15.02929 17.13867,-22.76367 l -23.55469,0 0,-13.97461 61.08399,0 z m -21.44531,-46.23047 0,0 z"
         style="font-style:normal;font-variant:normal;font-weight:normal;font-stretch:normal;font-size:180.00001526px;line-height:125%;font-family:'Noto Sans Kannada';-inkscape-font-specification:'Noto Sans Kannada, Normal';text-align:start;writing-mode:lr-tb;text-anchor:start"
         id="path3354" />
      <path
         d="m 468.66489,997.93561 q 12.65625,3.33989 26.01563,3.33989 22.32422,0 34.18946,-7.99809 11.77734,-7.99805 11.77734,-22.5 0,-10.81055 -6.85547,-20.56641 l 12.39258,-6.76758 q 8.87695,11.77734 8.87695,27.68555 0,20.6543 -15.73242,31.90433 -15.73242,11.25 -44.47266,11.25 -14.15039,0 -29.70703,-3.7793 l 3.51562,-12.56839 z m 41.04493,29.26759 0,0 z m 2.19726,-56.3379 0,0 z m -0.79101,-9.93165 0,0 z m 16.61133,-4.48242 0,0 z"
         style="font-style:normal;font-variant:normal;font-weight:normal;font-stretch:normal;font-size:180.00001526px;line-height:125%;font-family:'Noto Sans Kannada';-inkscape-font-specification:'Noto Sans Kannada, Normal';text-align:start;writing-mode:lr-tb;text-anchor:start"
         id="path3356" />
      <path
         d="m 674.329,882.71099 q 17.22656,18.89649 17.22656,42.53907 0,17.75391 -8.87695,27.77344 -8.78906,10.01953 -22.67578,10.01953 -10.45899,0 -17.22657,-3.33984 -6.76757,-3.33985 -12.83203,-12.83204 -5.27344,8.08594 -12.65625,12.12891 -7.29492,4.04297 -20.56641,4.04297 -15.46875,0 -25.3125,-8.87695 -9.75586,-8.87696 -9.75586,-23.20313 0,-12.48047 7.55859,-20.39063 7.5586,-7.99805 19.7754,-7.99805 9.58008,0 15.38086,4.57032 5.80078,4.57031 5.80078,12.2168 0,6.67968 -2.37305,10.63476 l -12.30469,-1.14258 q 1.14258,-3.07617 1.14258,-5.80078 0,-3.86719 -2.19726,-5.80078 -2.19727,-2.02148 -5.97657,-2.02148 -6.06445,0 -9.58008,4.13086 -3.51562,4.04296 -3.51562,10.89843 0,8.61329 5.88867,13.62305 5.97656,4.92188 17.05078,4.92188 22.67579,0 24.69727,-22.93946 l 13.79883,0 q 0.79102,10.98633 6.5918,16.96289 5.80078,5.97657 15.29297,5.97657 8.78906,0 13.44727,-5.71289 4.6582,-5.80079 4.6582,-16.61133 0,-9.4043 -3.7793,-17.92969 -3.7793,-8.61328 -11.33789,-17.31446 l 12.65625,-8.52539 z m -39.63867,-15.46875 q -8.17383,7.55859 -20.30274,7.55859 -10.72266,0 -17.49024,-5.27343 -6.76757,-5.27344 -6.76757,-14.76563 0,-9.58008 7.11914,-15.73242 7.20703,-6.24024 18.63281,-6.24024 14.41406,0 23.20313,9.4043 8.78906,9.31641 8.78906,23.64258 0,15.46875 -7.82227,23.4668 -7.82226,7.99805 -22.85156,7.99805 -13.71094,0 -24.60938,-5.625 l 7.03125,-10.98633 q 8.08594,4.48242 17.13868,4.48242 9.49218,0 13.71094,-4.21875 4.21875,-4.21875 4.21875,-12.65625 l 0,-1.05469 z m -2.10938,-12.12891 q -2.46094,-4.83398 -6.94336,-7.4707 -4.39453,-2.72461 -9.84375,-2.72461 -5.88867,0 -8.96484,2.46094 -3.07618,2.37304 -3.07618,6.5039 0,4.39454 2.90039,6.67969 2.90039,2.28516 7.47071,2.28516 5.80078,0 10.19531,-1.75781 4.39453,-1.75782 8.26172,-5.97657 z m -10.98633,131.66017 1.40625,-28.56445 13.88672,0 1.40625,28.56445 -16.69922,0 z m 37.26563,-125.15626 0,0 z m 0.61523,13.97461 0,0 z"
         style="font-style:normal;font-variant:normal;font-weight:normal;font-stretch:normal;font-size:180.00001526px;line-height:125%;font-family:'Noto Sans Kannada';-inkscape-font-specification:'Noto Sans Kannada, Normal';text-align:start;writing-mode:lr-tb;text-anchor:start"
         id="path3358" />
    </g>
  </g>
</svg>
