<?xml version="1.0" encoding="UTF-8" standalone="no"?>
<!-- Created with Inkscape (http://www.inkscape.org/) -->

<svg
   xmlns:dc="http://purl.org/dc/elements/1.1/"
   xmlns:cc="http://creativecommons.org/ns#"
   xmlns:rdf="http://www.w3.org/1999/02/22-rdf-syntax-ns#"
   xmlns:svg="http://www.w3.org/2000/svg"
   xmlns="http://www.w3.org/2000/svg"
   xmlns:sodipodi="http://sodipodi.sourceforge.net/DTD/sodipodi-0.dtd"
   xmlns:inkscape="http://www.inkscape.org/namespaces/inkscape"
   width="240mm"
   height="70mm"
   viewBox="0 0 850.3937 248.03149"
   id="svg3353"
   version="1.1"
   inkscape:version="0.91 r13725"
   sodipodi:docname="elegant kannada bad sogasaada.svg">
  <defs
     id="defs3355" />
  <sodipodi:namedview
     id="base"
     pagecolor="#ffffff"
     bordercolor="#666666"
     borderopacity="1.0"
     inkscape:pageopacity="0.0"
     inkscape:pageshadow="2"
     inkscape:zoom="0.98994949"
     inkscape:cx="383.75472"
     inkscape:cy="13.426791"
     inkscape:document-units="px"
     inkscape:current-layer="text3386"
     showgrid="false"
     inkscape:window-width="1920"
     inkscape:window-height="1027"
     inkscape:window-x="-8"
     inkscape:window-y="-8"
     inkscape:window-maximized="1" />
  <metadata
     id="metadata3358">
    <rdf:RDF>
      <cc:Work
         rdf:about="">
        <dc:format>image/svg+xml</dc:format>
        <dc:type
           rdf:resource="http://purl.org/dc/dcmitype/StillImage" />
        <dc:title></dc:title>
      </cc:Work>
    </rdf:RDF>
  </metadata>
  <g
     inkscape:label="Layer 1"
     inkscape:groupmode="layer"
     id="layer1"
     transform="translate(0,-804.33071)">
    <text
       xml:space="preserve"
       style="font-style:normal;font-weight:normal;font-size:180px;line-height:125%;font-family:sans-serif;letter-spacing:0px;word-spacing:0px;fill:#000000;fill-opacity:1;stroke:none;stroke-width:1px;stroke-linecap:butt;stroke-linejoin:miter;stroke-opacity:1"
       x="48.57143"
       y="1003.7908"
       id="text3361"
       sodipodi:linespacing="125%"><tspan
         sodipodi:role="line"
         id="tspan3363"
         x="48.57143"
         y="1003.7908"></tspan></text>
    <g
       style="font-style:normal;font-weight:normal;font-size:180px;line-height:125%;font-family:sans-serif;letter-spacing:0px;word-spacing:0px;fill:#000000;fill-opacity:1;stroke:none;stroke-width:1px;stroke-linecap:butt;stroke-linejoin:miter;stroke-opacity:1"
       id="text3365">
      <g
         style="font-style:normal;font-weight:normal;font-size:180px;line-height:125%;font-family:sans-serif;letter-spacing:0px;word-spacing:0px;fill:#000000;fill-opacity:1;stroke:none;stroke-width:1px;stroke-linecap:butt;stroke-linejoin:miter;stroke-opacity:1"
         id="text3386">
        <path
           d="m 33.821381,926.61432 0,-13.97461 76.992189,0 q 9.3164,0 14.0625,-0.9668 4.74609,-0.96679 7.03125,-3.6914 2.37304,-2.8125 2.37304,-7.47071 0,-11.51367 -11.68945,-22.93945 l 11.68945,-7.82227 q 7.38282,8.26172 10.98633,15.73243 3.60352,7.4707 3.60352,16.25976 0,6.5918 -3.25195,12.30469 -3.16407,5.625 -10.19532,9.14062 -7.03125,3.42774 -21.35742,3.42774 l -80.244139,0 z m 23.554687,82.26558 -13.974609,5.5372 q -4.482422,-5.9766 -7.03125,-13.5352 -2.548828,-7.64649 -2.548828,-15.11719 0,-12.30469 7.822265,-20.47852 7.822266,-8.26171 19.160156,-8.26171 7.207032,0 12.304688,2.10937 5.097656,2.10938 9.052734,6.32813 4.042969,4.21875 8.964844,12.83203 5.449219,9.49218 8.789063,13.53515 3.339839,3.95508 7.207029,5.97657 3.95508,2.02148 9.4043,2.02148 8.34961,0 12.91992,-6.06445 4.6582,-6.15235 4.6582,-16.78711 0,-9.4043 -3.77929,-17.75391 -3.69141,-8.4375 -11.25,-16.96289 l 12.1289,-8.52539 q 17.66602,18.89648 17.66602,41.74805 0,18.28125 -8.87695,28.47659 -8.78907,10.1074 -24.69727,10.1074 -7.82227,0 -13.79883,-2.6367 -5.88867,-2.7246 -10.371092,-7.6465 -4.482422,-5.00978 -9.931641,-14.32618 -4.570312,-7.73438 -7.646484,-11.60157 -2.988281,-3.86718 -5.888672,-5.44922 -2.8125,-1.58203 -6.679687,-1.58203 -5.888672,0 -9.316407,3.86719 -3.339843,3.86719 -3.339843,10.63477 0,11.07422 9.052734,23.55464 z m 32.34375,-74.79488 q 4.394531,0 7.382813,3.16406 2.988279,3.07618 2.988279,7.47071 0,4.30664 -2.988279,7.4707 -2.988282,3.07617 -7.382813,3.07617 -4.394531,0 -7.470703,-3.07617 -2.988281,-3.07617 -2.988281,-7.4707 0,-4.39453 2.988281,-7.47071 3.076172,-3.16406 7.470703,-3.16406 z m -5.625,-67.67578 0,0 z m -11.865234,145.54686 0,0 z"
           style="font-style:normal;font-variant:normal;font-weight:normal;font-stretch:normal;font-size:180px;line-height:125%;font-family:'Noto Sans Kannada';-inkscape-font-specification:'Noto Sans Kannada, Normal';text-align:start;writing-mode:lr-tb;text-anchor:start"
           id="path3403" />
        <path
           d="m 146.49187,925.47174 q 8.70117,13.71094 16.875,19.6875 8.17382,5.97656 18.63281,5.97656 7.55859,0 11.07422,-2.98828 3.51562,-2.98828 3.51562,-8.96484 0,-4.30664 -2.10937,-7.5586 -2.10938,-3.33984 -6.67969,-5.44921 -3.69141,0.43945 -10.2832,0.43945 l -14.76563,0 0,-13.97461 10.72266,0 q 13.44726,0 18.80859,-1.66992 5.44922,-1.66992 8.17383,-5.44922 2.72461,-3.86719 2.72461,-10.89844 0,-7.11914 -4.6582,-11.42578 -4.57032,-4.39453 -11.95313,-4.39453 -5.18555,0 -9.22851,2.19726 -3.95508,2.19727 -6.15235,6.15235 4.30664,0 6.85547,2.10937 2.63672,2.10938 2.63672,5.625 0,4.13086 -2.63672,6.41602 -2.63672,2.28516 -7.29492,2.28516 -5.88867,0 -9.05274,-3.95508 -3.16406,-3.95508 -3.16406,-10.28321 0,-9.22851 7.99805,-16.08398 7.99805,-6.85547 20.83008,-6.85547 13.79882,0 22.06054,8.34961 8.34961,8.34961 8.34961,21.97266 0,9.14062 -3.6914,15.55664 -3.60352,6.41601 -10.89844,10.01953 8.17383,7.55859 8.17383,17.8418 0,11.95312 -7.5586,18.45703 -7.4707,6.5039 -21.18164,6.5039 -13.71093,0 -25.04883,-7.4707 -11.25,-7.4707 -21.70898,-23.99414 l 10.63477,-8.17383 z m 41.74804,86.48436 0,0 z"
           style="font-style:normal;font-variant:normal;font-weight:normal;font-stretch:normal;font-size:180px;line-height:125%;font-family:'Noto Sans Kannada';-inkscape-font-specification:'Noto Sans Kannada, Normal';text-align:start;writing-mode:lr-tb;text-anchor:start"
           id="path3407"
           inkscape:connector-curvature="0" />
        <path
           d="m 196.60654,992.09283 9.84375,-10.45898 q 6.94336,9.22852 13.62304,13.71094 6.67969,4.48242 14.76563,4.48242 7.64648,0 11.51367,-4.04297 3.86719,-4.04297 3.86719,-11.95312 0,-8.26172 -0.79102,-16.25977 -0.79101,-7.99805 -0.79101,-13.97461 0,-12.91992 5.625,-22.76367 5.625,-9.84375 15.99609,-15.0293 10.37109,-5.27344 23.55469,-5.27344 16.17187,0 28.03711,7.20704 11.86523,7.20703 18.10547,20.74218 6.24023,13.44727 6.24023,30.67383 0,20.83008 -10.19531,32.87112 -10.19531,12.041 -27.94922,12.041 -14.15039,0 -22.5,-7.9981 -8.34961,-8.08589 -8.34961,-20.74214 0,-10.89844 5.625,-17.31446 5.625,-6.41601 14.32617,-6.41601 6.5918,0 10.3711,3.25195 3.77929,3.25195 3.77929,8.96484 0,5.09766 -2.90039,8.26172 -2.8125,3.07618 -7.03125,3.07618 -4.30664,0 -7.03125,-1.9336 -2.72461,-2.02148 -3.25195,-5.71289 -0.87891,2.46094 -0.87891,6.50391 0,7.64648 4.57031,12.30468 4.65821,4.57032 13.35938,4.57032 10.81055,0 16.96289,-8.26172 6.24023,-8.26172 6.24023,-23.11524 0,-20.03906 -9.93164,-32.43164 -9.84375,-12.48047 -27.24609,-12.48047 -14.67773,0 -22.76367,8.08594 -8.08594,8.08594 -8.08594,22.67578 0,6.06446 0.70313,14.32618 0.70312,8.26171 0.70312,14.32617 0,14.32617 -8.26172,22.2363 -8.26172,7.8223 -21.62109,7.8223 -9.93164,0 -18.98438,-5.0977 -9.14062,-5.1855 -19.24804,-16.87497 z"
           style="font-style:normal;font-variant:normal;font-weight:normal;font-stretch:normal;font-size:180px;line-height:125%;font-family:'Noto Sans Kannada';-inkscape-font-specification:'Noto Sans Kannada, Normal';text-align:start;writing-mode:lr-tb;text-anchor:start"
           id="path3411"
           inkscape:connector-curvature="0" />
        <path
           d="m 422.48544,912.63971 q 9.31641,0 14.0625,-0.9668 4.7461,-0.96679 7.03125,-3.6914 2.37305,-2.8125 2.37305,-7.47071 0,-11.51367 -11.68945,-22.93945 l 11.68945,-7.82227 q 7.4707,8.34961 10.98633,15.82032 3.60351,7.4707 3.60351,16.25976 0,9.22852 -5.88867,15.90821 -5.88867,6.59179 -17.31445,8.17382 11.25,8.52539 17.22656,22.67579 5.97656,14.0625 5.97656,40.34179 l 0,23.02733 -16.25976,0 0,-19.42381 q 0,-16.96289 -1.66992,-27.94922 -1.66993,-11.07422 -6.24024,-20.21484 -4.57031,-9.22852 -10.63476,-13.44727 -5.97657,-4.30664 -14.15039,-4.30664 -6.15235,0 -10.98633,2.19726 -4.7461,2.19727 -8.70117,6.5918 -3.86719,4.39453 -7.38282,12.91992 -3.42773,8.4375 -4.83398,18.98438 -1.40625,10.45898 -1.40625,25.22461 l 0,19.42381 -16.25977,0 0,-22.41209 q 0,-25.13672 5.80078,-40.16602 5.88868,-15.0293 17.13868,-22.76367 l -23.55469,0 0,-13.97461 61.08398,0 z m -21.44531,-46.23047 0,0 z"
           style="font-style:normal;font-variant:normal;font-weight:normal;font-stretch:normal;font-size:180px;line-height:125%;font-family:'Noto Sans Kannada';-inkscape-font-specification:'Noto Sans Kannada, Normal';text-align:start;writing-mode:lr-tb;text-anchor:start"
           id="path3413"
           inkscape:connector-curvature="0" />
        <path
           d="m 475.21982,926.61432 0,-13.97461 76.99219,0 q 9.3164,0 14.0625,-0.9668 4.74609,-0.96679 7.03125,-3.6914 2.37304,-2.8125 2.37304,-7.47071 0,-11.51367 -11.68945,-22.93945 l 11.68945,-7.82227 q 7.38281,8.26172 10.98633,15.73243 3.60352,7.4707 3.60352,16.25976 0,6.5918 -3.25196,12.30469 -3.16406,5.625 -10.19531,9.14062 -7.03125,3.42774 -21.35742,3.42774 l -80.24414,0 z m 23.55469,82.26558 -13.97461,5.5372 q -4.48243,-5.9766 -7.03125,-13.5352 -2.54883,-7.64649 -2.54883,-15.11719 0,-12.30469 7.82226,-20.47852 7.82227,-8.26171 19.16016,-8.26171 7.20703,0 12.30469,2.10937 5.09765,2.10938 9.05273,6.32813 4.04297,4.21875 8.96485,12.83203 5.44921,9.49218 8.78906,13.53515 3.33984,3.95508 7.20703,5.97657 3.95508,2.02148 9.4043,2.02148 8.34961,0 12.91992,-6.06445 4.6582,-6.15235 4.6582,-16.78711 0,-9.4043 -3.7793,-17.75391 -3.6914,-8.4375 -11.25,-16.96289 l 12.12891,-8.52539 q 17.66602,18.89648 17.66602,41.74805 0,18.28125 -8.87696,28.47659 -8.78906,10.1074 -24.69726,10.1074 -7.82227,0 -13.79883,-2.6367 -5.88867,-2.7246 -10.37109,-7.6465 -4.48243,-5.00978 -9.93165,-14.32618 -4.57031,-7.73438 -7.64648,-11.60157 -2.98828,-3.86718 -5.88867,-5.44922 -2.8125,-1.58203 -6.67969,-1.58203 -5.88867,0 -9.31641,3.86719 -3.33984,3.86719 -3.33984,10.63477 0,11.07422 9.05274,23.55464 z m 32.34375,-74.79488 q 4.39453,0 7.38281,3.16406 2.98828,3.07618 2.98828,7.47071 0,4.30664 -2.98828,7.4707 -2.98828,3.07617 -7.38281,3.07617 -4.39454,0 -7.47071,-3.07617 -2.98828,-3.07617 -2.98828,-7.4707 0,-4.39453 2.98828,-7.47071 3.07617,-3.16406 7.47071,-3.16406 z m -5.625,-67.67578 0,0 z m -11.86524,145.54686 0,0 z"
           style="font-style:normal;font-variant:normal;font-weight:normal;font-stretch:normal;font-size:180px;line-height:125%;font-family:'Noto Sans Kannada';-inkscape-font-specification:'Noto Sans Kannada, Normal';text-align:start;writing-mode:lr-tb;text-anchor:start"
           id="path3415"
           inkscape:connector-curvature="0" />
        <path
           d="m 615.587,977.50299 q -0.8789,2.46094 -0.8789,6.50391 0,7.64648 4.5703,12.30468 4.6582,4.57032 13.3594,4.57032 11.1621,0 17.1387,-8.26172 6.0644,-8.26172 6.0644,-23.99414 0,-15.38086 -5.625,-24.52149 -5.625,-9.22851 -14.5019,-13.35937 -8.877,-4.13086 -27.5098,-4.13086 l -42.0996,0 -1.7578,-13.97461 47.2851,0 q 21.6211,0 33.5742,6.24023 12.0411,6.24024 18.7207,18.36914 6.7676,12.04102 6.7676,31.37696 0,21.79687 -10.0195,33.66206 -9.9316,11.7774 -28.125,11.7774 -14.1504,0 -22.5,-7.9981 -8.3496,-8.08589 -8.3496,-20.74214 0,-11.07422 5.5371,-17.40235 5.5371,-6.32812 14.4141,-6.32812 6.5918,0 10.3711,3.25195 3.7792,3.25195 3.7792,8.96484 0,5.09766 -2.9003,8.26172 -2.8125,3.07618 -7.0313,3.07618 -4.3066,0 -7.0312,-1.9336 -2.7247,-2.02148 -3.252,-5.71289 z"
           style="font-style:normal;font-variant:normal;font-weight:normal;font-stretch:normal;font-size:180px;line-height:125%;font-family:'Noto Sans Kannada';-inkscape-font-specification:'Noto Sans Kannada, Normal';text-align:start;writing-mode:lr-tb;text-anchor:start"
           id="path3419"
           inkscape:connector-curvature="0" />
        <path
           d="m 709.8058,926.61432 -24.0821,0 0,-13.97461 84.6387,0 q 8.8769,0 13.623,-0.87891 4.834,-0.8789 7.295,-3.60351 2.5488,-2.72461 2.5488,-7.64649 0,-11.51367 -11.6895,-22.93945 l 11.6895,-7.82227 q 7.3828,8.26172 10.9863,15.73243 3.6035,7.4707 3.6035,16.25976 0,9.4043 -5.9765,15.9961 -5.9766,6.59179 -17.9297,8.26171 11.4258,6.94336 17.666,19.16016 6.2402,12.2168 6.2402,27.33399 0,20.03906 -8.4375,30.84957 -8.4375,10.7227 -23.6425,10.7227 -10.1954,0 -16.9629,-3.6914 -6.7676,-3.7793 -12.3926,-12.48048 -4.3067,7.55858 -11.25,11.86528 -6.9434,4.3066 -18.5449,4.3066 -14.7657,0 -23.1153,-10.8106 -8.3496,-10.89839 -8.3496,-30.76167 0,-15.46875 6.2403,-27.42188 6.2402,-12.04102 17.8418,-18.45703 z m 30.3222,50.27344 13.7988,0 q 0.7032,10.72265 6.5918,16.875 5.8887,6.06445 14.4141,6.06445 18.8086,0 18.8086,-26.80664 0,-13.18359 -5.4492,-23.90625 -5.3613,-10.72266 -15.5567,-16.61133 -10.1953,-5.88867 -23.8183,-5.88867 l -2.9883,0 q -13.7988,0 -24.1699,5.625 -10.2832,5.625 -15.8203,16.25976 -5.4493,10.54688 -5.4493,24.16993 0,13.71093 4.4825,20.47851 4.4824,6.67969 14.0625,6.67969 8.7011,0 14.414,-6.06445 5.7129,-6.06446 6.6797,-16.875 z m 0.791,-110.47852 0,0 z"
           style="font-style:normal;font-variant:normal;font-weight:normal;font-stretch:normal;font-size:180px;line-height:125%;font-family:'Noto Sans Kannada';-inkscape-font-specification:'Noto Sans Kannada, Normal';text-align:start;writing-mode:lr-tb;text-anchor:start"
           id="path3421"
           inkscape:connector-curvature="0" />
      </g>
      <text
         xml:space="preserve"
         style="font-style:normal;font-weight:normal;font-size:180px;line-height:125%;font-family:sans-serif;letter-spacing:0px;word-spacing:0px;fill:#000000;fill-opacity:1;stroke:none;stroke-width:1px;stroke-linecap:butt;stroke-linejoin:miter;stroke-opacity:1"
         x="336.3808"
         y="952.35712"
         id="text3390"
         sodipodi:linespacing="125%"><tspan
           sodipodi:role="line"
           id="tspan3392"
           x="336.3808"
           y="952.35712"> </tspan></text>
    </g>
  </g>
</svg>
