<?xml version="1.0" encoding="UTF-8" standalone="no"?>
<!-- Created with Inkscape (http://www.inkscape.org/) -->

<svg
   xmlns:dc="http://purl.org/dc/elements/1.1/"
   xmlns:cc="http://creativecommons.org/ns#"
   xmlns:rdf="http://www.w3.org/1999/02/22-rdf-syntax-ns#"
   xmlns:svg="http://www.w3.org/2000/svg"
   xmlns="http://www.w3.org/2000/svg"
   xmlns:sodipodi="http://sodipodi.sourceforge.net/DTD/sodipodi-0.dtd"
   xmlns:inkscape="http://www.inkscape.org/namespaces/inkscape"
   width="175mm"
   height="70mm"
   viewBox="0 0 620.07874 248.03149"
   id="svg2"
   version="1.1"
   inkscape:version="0.91 r13725"
   sodipodi:docname="elegant gurmukhi good kirapaalu.svg">
  <defs
     id="defs4" />
  <sodipodi:namedview
     id="base"
     pagecolor="#ffffff"
     bordercolor="#666666"
     borderopacity="1.0"
     inkscape:pageopacity="0.0"
     inkscape:pageshadow="2"
     inkscape:zoom="0.35"
     inkscape:cx="-283.57143"
     inkscape:cy="520"
     inkscape:document-units="px"
     inkscape:current-layer="text3336"
     showgrid="false"
     inkscape:window-width="1920"
     inkscape:window-height="1027"
     inkscape:window-x="-8"
     inkscape:window-y="-8"
     inkscape:window-maximized="1" />
  <metadata
     id="metadata7">
    <rdf:RDF>
      <cc:Work
         rdf:about="">
        <dc:format>image/svg+xml</dc:format>
        <dc:type
           rdf:resource="http://purl.org/dc/dcmitype/StillImage" />
        <dc:title></dc:title>
      </cc:Work>
    </rdf:RDF>
  </metadata>
  <g
     inkscape:label="Layer 1"
     inkscape:groupmode="layer"
     id="layer1"
     transform="translate(0,-804.33071)">
    <g
       style="font-style:normal;font-weight:normal;font-size:180px;line-height:125%;font-family:sans-serif;letter-spacing:0px;word-spacing:0px;fill:#000000;fill-opacity:1;stroke:none;stroke-width:1px;stroke-linecap:butt;stroke-linejoin:miter;stroke-opacity:1"
       id="text3336">
      <path
         d="m 61.710381,881.79297 -17.314454,0 0,-12.83203 17.314454,0 0,-8.26172 q 0,-14.41406 3.251953,-22.76367 3.339843,-8.4375 10.722656,-13.35938 7.382812,-5.00976 18.896484,-5.00976 14.062496,0 22.148436,8.26171 8.08594,8.26172 8.08594,23.29102 0,4.74609 -1.14258,11.95313 l -14.0625,-1.40625 q 0.9668,-5.18555 0.9668,-10.98633 0,-9.31641 -4.04297,-13.88672 -3.95508,-4.57031 -12.128907,-4.57031 -6.767578,0 -11.074219,3.51562 -4.21875,3.51563 -5.71289,9.4043 -1.40625,5.80078 -1.40625,15.11719 l 0,8.70117 17.402343,0 0,12.83203 -17.402343,0 0,99.14062 -14.501953,0 0,-99.14062 z"
         style="font-style:normal;font-variant:normal;font-weight:normal;font-stretch:normal;font-size:180px;line-height:125%;font-family:'Noto Sans Gurmukhi';-inkscape-font-specification:'Noto Sans Gurmukhi, Normal';text-align:start;writing-mode:lr-tb;text-anchor:start"
         id="path3341" />
      <path
         d="m 180.36272,980.93359 q -0.79101,-10.45898 -2.63671,-19.51172 -1.84571,-9.05273 -4.7461,-16.61132 -7.4707,9.58007 -17.49023,14.41406 -9.93164,4.74609 -21.70899,4.74609 -16.25976,0 -25.66406,-8.34961 -9.316406,-8.34961 -9.316406,-22.85156 0,-14.32617 9.843746,-22.76367 9.84375,-8.52539 25.3125,-8.52539 11.86524,0 21.18164,4.21875 9.31641,4.13086 16.875,12.83203 2.28516,-8.26172 2.28516,-20.03906 0,-7.99805 -1.75781,-16.69922 l -81.38672,0 0,-12.83203 114.52148,0 0,12.83203 -18.54492,0 q 0.52735,2.46094 1.05469,7.82226 0.61523,5.27344 0.61523,8.78907 0,18.80859 -7.4707,33.22265 5.09766,8.70117 8.4375,21.00586 3.42774,12.30469 5.18555,28.30078 l -14.58985,0 z M 167.00335,932.1543 q -6.50391,-8.87696 -14.50195,-13.35938 -7.91016,-4.48242 -17.40235,-4.48242 -10.10742,0 -15.82031,4.92187 -5.71289,4.83399 -5.71289,13.62305 0,8.52539 5.44922,13.44727 5.44922,4.83398 14.85351,4.83398 10.54688,0 18.8086,-4.74609 8.26172,-4.7461 14.32617,-14.23828 z m 17.75391,-63.19336 0,0 z"
         style="font-style:normal;font-variant:normal;font-weight:normal;font-stretch:normal;font-size:180px;line-height:125%;font-family:'Noto Sans Gurmukhi';-inkscape-font-specification:'Noto Sans Gurmukhi, Normal';text-align:start;writing-mode:lr-tb;text-anchor:start"
         id="path3343" />
      <path
         d="m 277.83343,907.45703 0,-25.66406 -74.88282,0 0,-12.83203 106.78711,0 0,12.83203 -17.40234,0 0,68.11523 q 0,12.04102 -3.95508,18.45703 -3.86719,6.32813 -10.63476,9.49219 -6.67969,3.07617 -17.66602,3.07617 -11.51367,0 -22.32422,-5.44922 -10.72265,-5.5371 -18.80859,-16.96289 -7.99805,-11.42578 -7.99805,-23.99414 0,-9.40429 4.92188,-15.55664 4.92187,-6.15234 13.0957,-8.78906 8.26172,-2.72461 24.25781,-2.72461 l 24.60938,0 z m 0,12.83203 -22.85157,0 q -11.68945,0 -17.40234,1.14258 -5.71289,1.14258 -8.96484,4.57031 -3.16407,3.33985 -3.16407,9.49219 0,7.29492 5.7129,15.38086 5.80078,8.08594 13.62304,12.56836 7.91016,4.39453 15.90821,4.39453 7.4707,0 10.98632,-2.02148 3.51563,-2.02149 4.83399,-5.71289 1.31836,-3.69141 1.31836,-12.12891 l 0,-27.68555 z m -8.78907,60.64453 0,0 z"
         style="font-style:normal;font-variant:normal;font-weight:normal;font-stretch:normal;font-size:180px;line-height:125%;font-family:'Noto Sans Gurmukhi';-inkscape-font-specification:'Noto Sans Gurmukhi, Normal';text-align:start;writing-mode:lr-tb;text-anchor:start"
         id="path3345" />
      <path
         d="m 384.44476,951.66602 q -11.86524,5.44921 -25.04883,5.44921 -14.76563,0 -25.83985,-8.96484 -11.07422,-9.05273 -18.36914,-27.07031 6.67969,-5.625 9.58008,-11.07422 2.98828,-5.44922 2.98828,-11.77734 0,-3.95508 -1.14258,-8.4375 -1.14257,-4.48243 -3.16406,-7.99805 l -16.43555,0 0,-12.83203 26.80665,0 q 3.86718,7.03125 6.06445,14.67773 2.19726,7.64649 2.19726,14.50195 0,15.0293 -9.93164,23.99415 5.625,11.60156 12.04102,16.69921 6.50391,5.09766 15.29297,5.09766 6.5039,0 12.30469,-1.75781 5.80078,-1.75781 12.65625,-5.80078 l 0,-67.41211 31.90429,0 0,12.83203 -17.40234,0 0,99.14062 -14.50195,0 0,-29.26757 z"
         style="font-style:normal;font-variant:normal;font-weight:normal;font-stretch:normal;font-size:180px;line-height:125%;font-family:'Noto Sans Gurmukhi';-inkscape-font-specification:'Noto Sans Gurmukhi, Normal';text-align:start;writing-mode:lr-tb;text-anchor:start"
         id="path3347" />
      <path
         d="m 458.80022,881.79297 -15.82031,0 0,52.11914 -14.50195,0 0,-52.11914 -14.58985,0 0,-12.83203 44.91211,0 0,12.83203 z m -15.82031,-12.83203 0,0 z"
         style="font-style:normal;font-variant:normal;font-weight:normal;font-stretch:normal;font-size:180px;line-height:125%;font-family:'Noto Sans Gurmukhi';-inkscape-font-specification:'Noto Sans Gurmukhi, Normal';text-align:start;writing-mode:lr-tb;text-anchor:start"
         id="path3349" />
      <path
         d="m 557.67718,881.79297 q -2.72461,14.32617 -11.25,27.77344 12.48047,6.94336 18.80859,16.34765 6.41602,9.31641 6.41602,20.12696 0,9.49218 -4.39453,17.7539 -4.39454,8.17383 -12.83204,12.65625 -8.4375,4.48242 -20.39062,4.48242 l -1.05469,0 -0.8789,-13.18359 1.93359,0 q 11.25,0 17.22656,-5.625 5.97656,-5.71289 5.97656,-15.55664 0,-8.17383 -4.6582,-15.0293 -4.6582,-6.94336 -14.15039,-11.86523 -9.31641,10.01953 -20.39062,16.25976 -11.25,-6.32812 -20.56641,-16.25976 -8.87695,4.6582 -13.79883,11.42578 -4.83398,6.76758 -4.83398,14.76562 0,10.28321 5.88867,16.08399 5.97656,5.80078 17.31445,5.80078 l 1.9336,0 -0.87891,13.18359 -1.05469,0 q -12.04101,0 -20.47851,-4.48242 -8.4375,-4.57031 -12.83204,-12.74414 -4.30664,-8.17383 -4.30664,-17.57812 0,-10.81055 6.41602,-20.39063 6.50391,-9.58008 18.89648,-16.17187 -8.96484,-13.53516 -11.33789,-27.77344 l -22.32422,0 0,-12.83203 123.92579,0 0,12.83203 -22.32422,0 z m -64.51172,0 q 3.86719,24.08203 24.87305,38.75976 10.19531,-6.76757 16.52343,-16.78711 6.41602,-10.01953 8.34961,-21.97265 l -49.74609,0 z m 64.51172,-12.83203 0,0 z m -39.63867,111.97265 0,0 z m 25.66406,0 0,0 z m -46.9336,-58.53515 0,0 z m 21.26954,0.70312 0,0 z"
         style="font-style:normal;font-variant:normal;font-weight:normal;font-stretch:normal;font-size:180px;line-height:125%;font-family:'Noto Sans Gurmukhi';-inkscape-font-specification:'Noto Sans Gurmukhi, Normal';text-align:start;writing-mode:lr-tb;text-anchor:start"
         id="path3351" />
      <path
         d="m 483.49749,999.83008 2.54883,-10.98633 q 7.91015,4.57031 15.55664,6.50391 7.64648,2.02148 16.34765,2.02148 8.78907,0 16.43555,-2.02148 7.5586,-1.9336 15.55664,-6.50391 l 2.54883,10.98633 q -7.20703,4.48242 -16.17187,6.85542 -9.05274,2.3731 -18.36915,2.3731 -9.3164,0 -18.28125,-2.3731 -8.96484,-2.373 -16.17187,-6.85542 z m 0,23.55472 2.54883,-11.0743 q 7.91015,4.5704 15.55664,6.504 7.64648,2.0214 16.34765,2.0214 8.78907,0 16.34766,-2.0214 7.55859,-1.9336 15.64453,-6.504 l 2.54883,11.0743 q -7.29492,4.4824 -16.25977,6.8554 -8.96484,2.3731 -18.28125,2.3731 -9.3164,0 -18.19335,-2.3731 -8.96485,-2.373 -16.25977,-6.8554 z m 34.54102,-42.45121 0,0 z m 1.23046,70.83981 0,0 z"
         style="font-style:normal;font-variant:normal;font-weight:normal;font-stretch:normal;font-size:180px;line-height:125%;font-family:'Noto Sans Gurmukhi';-inkscape-font-specification:'Noto Sans Gurmukhi, Normal';text-align:start;writing-mode:lr-tb;text-anchor:start"
         id="path3353" />
    </g>
  </g>
</svg>
