<?xml version="1.0" encoding="UTF-8" standalone="no"?>
<!-- Created with Inkscape (http://www.inkscape.org/) -->

<svg
   xmlns:dc="http://purl.org/dc/elements/1.1/"
   xmlns:cc="http://creativecommons.org/ns#"
   xmlns:rdf="http://www.w3.org/1999/02/22-rdf-syntax-ns#"
   xmlns:svg="http://www.w3.org/2000/svg"
   xmlns="http://www.w3.org/2000/svg"
   xmlns:sodipodi="http://sodipodi.sourceforge.net/DTD/sodipodi-0.dtd"
   xmlns:inkscape="http://www.inkscape.org/namespaces/inkscape"
   width="360mm"
   height="60mm"
   viewBox="0 0 1275.5905 212.59842"
   id="svg2"
   version="1.1"
   inkscape:version="0.91 r13725"
   sodipodi:docname="nerttiyana (elegant) good.svg">
  <defs
     id="defs4" />
  <sodipodi:namedview
     id="base"
     pagecolor="#ffffff"
     bordercolor="#666666"
     borderopacity="1.0"
     inkscape:pageopacity="0.0"
     inkscape:pageshadow="2"
     inkscape:zoom="0.35"
     inkscape:cx="-283.57143"
     inkscape:cy="520"
     inkscape:document-units="px"
     inkscape:current-layer="layer1"
     showgrid="false"
     inkscape:window-width="1920"
     inkscape:window-height="1027"
     inkscape:window-x="-8"
     inkscape:window-y="-8"
     inkscape:window-maximized="1" />
  <metadata
     id="metadata7">
    <rdf:RDF>
      <cc:Work
         rdf:about="">
        <dc:format>image/svg+xml</dc:format>
        <dc:type
           rdf:resource="http://purl.org/dc/dcmitype/StillImage" />
        <dc:title></dc:title>
      </cc:Work>
    </rdf:RDF>
  </metadata>
  <g
     inkscape:label="Layer 1"
     inkscape:groupmode="layer"
     id="layer1"
     transform="translate(0,-839.76378)">
    <g
       style="font-style:normal;font-weight:normal;font-size:40px;line-height:125%;font-family:sans-serif;letter-spacing:0px;word-spacing:0px;fill:#000000;fill-opacity:1;stroke:none;stroke-width:1px;stroke-linecap:butt;stroke-linejoin:miter;stroke-opacity:1"
       id="text3336">
      <path
         d="m 123.17941,977.29242 q 0,6.76758 -2.54883,12.48047 -2.54883,5.71289 -7.73438,9.93164 -5.09765,4.13087 -12.83203,6.50387 -7.734372,2.3731 -18.105465,2.3731 -11.689453,0 -21.269532,-2.8125 -9.492187,-2.8125 -17.050781,-7.6465 -7.470703,-4.92188 -13.007812,-11.51367 -5.53711,-6.5918 -9.228516,-14.15039 -3.603516,-7.5586 -5.361328,-15.64454 -1.757813,-8.17382 -1.757813,-16.17187 0,-11.60156 2.72461,-21.26953 2.724609,-9.66797 7.470703,-17.31446 4.746094,-7.64648 11.162109,-13.35937 6.503907,-5.71289 14.0625,-9.4043 7.558594,-3.77929 15.820313,-5.625 8.261719,-1.93359 16.611328,-1.93359 9.84375,0 17.314453,2.54883 7.470701,2.46093 12.568361,6.67968 5.09765,4.21875 7.64648,9.93165 2.63672,5.625 2.63672,11.95312 0,6.50391 -2.19726,11.60156 -2.10938,5.09766 -5.97657,8.70117 -3.86718,3.51563 -9.22851,5.36133 -5.36133,1.84571 -11.777346,1.84571 -6.767578,0 -12.128906,-1.9336 -5.361328,-2.02148 -9.052735,-5.53711 -3.691406,-3.51562 -5.71289,-8.34961 -1.933594,-4.92187 -1.933594,-10.63476 0,-2.98828 0.791016,-5.80078 0.791015,-2.90039 2.109375,-5.36133 1.40625,-2.54883 3.251953,-4.57031 1.933594,-2.10938 4.042969,-3.60352 l -0.08789,-0.26367 q -8.085938,0.9668 -16.171875,5.00976 -7.998047,3.95508 -14.501953,10.98633 -6.503906,7.03125 -10.546875,17.05078 -4.042969,9.93164 -4.042969,22.67578 0,11.3379 3.515625,21.09375 3.603516,9.66797 9.667969,17.05079 6.064453,7.29492 14.0625,11.86523 7.998047,4.57031 16.787109,5.71289 l 0.175781,-0.26367 q -3.691406,-3.16406 -6.152343,-7.91016 -2.373047,-4.74609 -2.373047,-11.16211 0,-5.88867 2.197265,-10.81054 2.197266,-5.00977 6.064454,-8.52539 3.955078,-3.51563 9.316406,-5.44922 5.449219,-2.02149 11.865234,-2.02149 6.416018,0 11.689458,1.9336 5.36132,1.93359 9.14062,5.53711 3.86719,3.60351 5.97656,8.78906 2.10938,5.09765 2.10938,11.42578 z m -15.29297,-74.70703 q 0,-4.13086 -1.58203,-7.38281 -1.49414,-3.25196 -4.21875,-5.53711 -2.636721,-2.28516 -6.240237,-3.60352 -3.515625,-1.31836 -7.558593,-1.58203 -4.833985,2.54883 -7.822266,7.20703 -2.900391,4.6582 -2.900391,10.19531 0,7.20703 4.042969,11.60157 4.042969,4.39453 11.513672,4.39453 6.591797,0 10.634766,-3.86719 4.13086,-3.95508 4.13086,-11.42578 z m 0.87891,75.58594 q 0,-3.95508 -1.14258,-6.94336 -1.05469,-2.98828 -3.07617,-5.00977 -1.9336,-2.02148 -4.658208,-2.98828 -2.724609,-1.05469 -5.976562,-1.05469 -3.603516,0 -6.591797,1.14258 -2.988281,1.14258 -5.097656,3.25195 -2.109375,2.02149 -3.339844,4.92188 -1.142578,2.8125 -1.142578,6.15234 0,2.8125 0.703125,5.53711 0.791015,2.72461 2.109375,5.18555 1.40625,2.37305 3.339843,4.39453 2.021485,1.93359 4.570313,3.25195 4.570312,-0.17578 8.349609,-1.49414 3.7793,-1.31836 6.41602,-3.60351 2.63671,-2.37305 4.04296,-5.53711 1.49415,-3.25196 1.49415,-7.20703 z"
         style="font-style:normal;font-variant:normal;font-weight:normal;font-stretch:normal;font-size:180px;font-family:'Nirmala UI';-inkscape-font-specification:'Nirmala UI'"
         id="path3341" />
      <path
         d="m 266.61691,974.83148 q 0,17.05078 -4.7461,28.03712 -4.74609,10.8984 -14.32617,17.4902 -4.6582,3.252 -10.19531,5.2735 -5.53711,2.1093 -11.86523,3.2519 -6.32813,1.1426 -13.44727,1.582 -7.03125,0.4395 -14.67773,0.4395 -3.7793,0 -7.82227,-0.088 -4.04297,0 -7.91016,-0.088 -3.86718,0 -7.29492,-0.088 -3.42773,0 -6.06445,0 -5.09766,0 -7.29492,1.2305 -2.10938,1.3184 -2.10938,4.6582 0,2.0215 0.43945,3.9551 0.52735,1.9336 1.40625,3.8672 l -13.00781,0 q -0.8789,-2.0215 -1.66992,-4.7461 -0.70312,-2.6367 -0.70312,-5.3614 0,-8.2617 5.44921,-12.3046 5.44922,-3.9551 15.82032,-3.9551 3.33984,0 7.64648,0 4.39453,0.088 8.96484,0.088 4.57032,0.088 9.05274,0.088 4.57031,0.088 8.26172,0.088 11.86523,0 21.62109,-1.67 9.75586,-1.582 16.61133,-6.5918 6.67969,-4.834 9.84375,-12.91989 3.16406,-8.08594 3.16406,-20.47852 0,-8.26171 -1.23047,-14.50195 -1.14257,-6.32812 -4.57031,-10.10742 -2.02148,-2.37305 -5.00976,-3.69141 -2.98829,-1.40625 -7.47071,-1.40625 -10.98633,0 -16.61133,6.85547 -5.53711,6.85547 -5.53711,20.21485 l 0,32.69532 -14.41406,0 0,-92.28517 -30.14648,0 0,92.28517 -14.41406,0 0,-105.20509 103.44726,0 0,12.91992 -44.47266,0 0,31.28906 0.26368,0 q 3.95507,-6.15234 10.2832,-9.05273 6.41602,-2.90039 14.50195,-2.90039 7.47071,0 12.91992,2.72461 5.44922,2.63672 9.22852,7.4707 4.21875,5.36133 6.15234,13.27149 1.9336,7.82226 1.9336,17.66601 z"
         style="font-style:normal;font-variant:normal;font-weight:normal;font-stretch:normal;font-size:180px;font-family:'Nirmala UI';-inkscape-font-specification:'Nirmala UI'"
         id="path3343" />
      <path
         d="m 368.9216,914.36273 0,91.66997 -51.85547,37.4414 -7.82227,-10.2832 45.26367,-32.5196 0,-86.30857 -43.24218,0 0,92.28517 -14.41407,0 0,-105.20509 99.31641,0 0,12.91992 -27.24609,0 z"
         style="font-style:normal;font-variant:normal;font-weight:normal;font-stretch:normal;font-size:180px;font-family:'Nirmala UI';-inkscape-font-specification:'Nirmala UI'"
         id="path3345" />
      <path
         d="m 360.3962,867.86859 q 0,2.72461 -0.96679,5.09766 -1.05469,2.37304 -2.8125,4.13086 -1.75781,1.75781 -4.13086,2.8125 -2.37305,0.96679 -5.09766,0.96679 -2.72461,0 -5.09765,-0.96679 -2.37305,-1.05469 -4.13086,-2.8125 -1.75782,-1.75782 -2.72461,-4.13086 -1.05469,-2.37305 -1.05469,-5.09766 0,-2.72461 1.05469,-5.09765 0.96679,-2.46094 2.72461,-4.21875 1.75781,-1.75782 4.13086,-2.8125 2.37304,-1.05469 5.09765,-1.05469 2.72461,0 5.09766,1.05469 2.37305,1.05468 4.13086,2.8125 1.75781,1.75781 2.8125,4.21875 0.96679,2.37304 0.96679,5.09765 z"
         style="font-style:normal;font-variant:normal;font-weight:normal;font-stretch:normal;font-size:180px;font-family:'Nirmala UI';-inkscape-font-specification:'Nirmala UI'"
         id="path3347" />
      <path
         d="m 539.95675,983.70844 q 0,11.51367 -4.21875,20.30276 -4.21875,8.789 -12.04101,14.6777 -7.82227,5.9766 -19.07227,8.9648 -11.16211,3.0762 -25.22461,3.0762 -13.62305,0 -26.63086,-0.088 -13.00781,0 -25.3125,0 -5.27344,0 -7.4707,1.2305 -2.10938,1.3184 -2.10938,4.6582 0,2.0215 0.43946,3.9551 0.52734,1.9336 1.49414,3.8672 l -12.91992,0 q -0.9668,-2.1973 -1.75782,-4.834 -0.70312,-2.5488 -0.70312,-5.2735 0,-8.3496 5.44922,-12.3046 5.44922,-3.9551 15.99609,-3.9551 5.09766,0 11.68945,0 6.5918,0 13.79883,0 7.20703,0.088 14.58985,0.088 7.4707,0 14.23828,0 3.07617,0 5.88867,-0.088 2.90039,-0.088 5.53711,-0.4395 7.91015,-1.1426 14.0625,-3.8672 6.24023,-2.6367 10.54687,-6.8554 4.30664,-4.1309 6.50391,-9.668 2.28516,-5.625 2.28516,-12.56836 0,-7.11914 -2.02149,-11.86523 -1.93359,-4.83399 -5.44922,-7.73438 -3.42773,-2.98828 -8.26172,-4.21875 -4.83398,-1.31836 -10.45898,-1.31836 l -10.45899,0 0,8.87696 q 0,10.98632 -2.90039,18.45703 -2.8125,7.38281 -8.61328,12.48047 -5.27343,4.57032 -12.83203,6.94332 -7.55859,2.3731 -17.22656,2.3731 -9.93164,0 -17.49024,-2.5488 -7.55859,-2.6368 -12.65625,-7.11919 -5.00976,-4.48242 -7.55859,-10.45898 -2.54883,-5.97656 -2.54883,-12.74414 0,-11.51367 5.88867,-18.54492 5.97657,-7.03125 15.9961,-9.31641 l 0,-46.40625 100.01953,0 0,12.91992 -40.07813,0 0,32.25586 9.84375,0 q 9.49219,0 17.13868,2.10938 7.73437,2.10937 13.18359,6.59179 5.44922,4.48243 8.4375,11.51368 2.98828,7.03125 2.98828,16.875 z m -66.00586,-24.25782 -31.8164,0 q -10.10743,0 -15.38086,3.69141 -5.27344,3.69141 -5.27344,12.2168 0,4.39453 1.58203,8.08593 1.66992,3.69141 4.92188,6.32813 3.25195,2.63672 8.08593,4.13086 4.83399,1.49414 11.25,1.49414 13.53516,0 20.03907,-6.41602 6.59179,-6.5039 6.59179,-20.74218 l 0,-8.78907 z m 0,-45.08789 -31.20117,0 0,32.25586 31.20117,0 0,-32.25586 z"
         style="font-style:normal;font-variant:normal;font-weight:normal;font-stretch:normal;font-size:180px;font-family:'Nirmala UI';-inkscape-font-specification:'Nirmala UI'"
         id="path3349" />
      <path
         d="m 494.16574,867.86859 q 0,2.72461 -0.9668,5.09766 -1.05469,2.37304 -2.8125,4.13086 -1.75781,1.75781 -4.13086,2.8125 -2.37305,0.96679 -5.09766,0.96679 -2.72461,0 -5.09765,-0.96679 -2.37305,-1.05469 -4.13086,-2.8125 -1.75781,-1.75782 -2.72461,-4.13086 -1.05469,-2.37305 -1.05469,-5.09766 0,-2.72461 1.05469,-5.09765 0.9668,-2.46094 2.72461,-4.21875 1.75781,-1.75782 4.13086,-2.8125 2.37304,-1.05469 5.09765,-1.05469 2.72461,0 5.09766,1.05469 2.37305,1.05468 4.13086,2.8125 1.75781,1.75781 2.8125,4.21875 0.9668,2.37304 0.9668,5.09765 z"
         style="font-style:normal;font-variant:normal;font-weight:normal;font-stretch:normal;font-size:180px;font-family:'Nirmala UI';-inkscape-font-specification:'Nirmala UI'"
         id="path3351" />
      <path
         d="m 728.65792,932.64398 q 0,5.00977 0,10.01953 0,5.00977 -0.0879,9.84375 l -0.61523,54.14064 -14.32617,0 0.61523,-53.17384 q 0.0879,-4.92187 0,-9.58008 0,-4.74609 0,-9.49219 0,-19.07226 -3.42773,-32.51953 -3.33985,-13.44726 -11.25,-22.58789 -3.7793,-4.39453 -9.4043,-7.82226 -5.53711,-3.51563 -12.74414,-5.97657 -7.11914,-2.46093 -15.73242,-3.6914 -8.52539,-1.31836 -18.28125,-1.31836 -15.64453,0 -27.94922,3.60351 -12.30469,3.51563 -20.83008,9.93165 -8.4375,6.41601 -12.91992,15.38085 -4.39453,8.87696 -4.39453,19.51172 0,9.49219 2.63672,16.78711 2.63671,7.20703 7.03125,12.2168 l 0,-36.47461 100.01953,0 0,12.91992 -40.07813,0 0,32.25586 9.93164,0 q 9.4043,0 17.05078,2.10938 7.73438,2.10937 13.1836,6.59179 5.44922,4.48243 8.4375,11.51368 2.98828,7.03125 2.98828,16.875 0,11.51367 -4.21875,20.30276 -4.13086,8.789 -11.95313,14.6777 -7.82226,5.9766 -19.07226,8.9648 -11.16211,3.0762 -25.22461,3.0762 -13.35938,0 -26.01563,-0.088 -12.56836,0 -24.52148,0 -5.27344,0 -7.4707,1.2305 -2.10938,1.3184 -2.10938,4.6582 0,2.0215 0.43945,3.9551 0.52735,1.9336 1.49415,3.8672 l -12.91993,0 q -0.96679,-2.1973 -1.75781,-4.834 -0.70312,-2.5488 -0.70312,-5.2735 0,-8.3496 5.44921,-12.3046 5.53711,-3.9551 15.9961,-3.9551 5.09765,0 11.42578,0 6.41602,0 13.44727,0 7.11914,0.088 14.58984,0.088 7.55859,0 14.85351,0 9.22852,0 17.13868,-2.0215 7.91015,-2.0215 13.71093,-6.2402 5.80079,-4.1309 9.14063,-10.37114 3.33984,-6.32813 3.33984,-14.85352 0,-7.11914 -2.02148,-11.86523 -1.9336,-4.83399 -5.44922,-7.73438 -3.42773,-2.98828 -8.26172,-4.21875 -4.74609,-1.31836 -10.37109,-1.31836 l -10.54688,0 0,8.87696 q 0,10.89843 -2.8125,18.28125 -2.8125,7.38281 -8.4375,12.48046 -10.72265,9.49221 -30.32226,9.49221 -9.93164,0 -17.49024,-2.5488 -7.4707,-2.6368 -12.56836,-7.11919 -5.00976,-4.48242 -7.55859,-10.45898 -2.54883,-5.97656 -2.54883,-12.74414 0,-9.84375 4.30664,-16.17188 4.39453,-6.41601 12.65625,-9.75586 -4.30664,-3.33984 -7.91015,-7.64648 -3.51563,-4.30664 -6.06446,-9.49219 -2.46094,-5.18554 -3.86719,-11.16211 -1.31835,-5.97656 -1.31835,-12.56836 0,-13.0957 5.5371,-24.3457 5.625,-11.25 15.9961,-19.51172 10.45898,-8.34961 25.40039,-13.0957 14.94141,-4.7461 33.66211,-4.7461 23.29101,0 40.07812,5.88868 16.875,5.88867 26.63086,16.96289 4.7461,5.27343 8.17383,11.68945 3.42774,6.41602 5.71289,14.15039 2.28516,7.64649 3.33985,16.78711 1.14257,9.14063 1.14257,19.95117 z m -96.15234,26.80664 -31.72852,0 q -10.10742,0 -15.38086,3.69141 -5.27343,3.69141 -5.27343,12.2168 0,4.39453 1.58203,8.08593 1.66992,3.69141 4.83398,6.32813 3.25196,2.63672 8.08594,4.13086 4.83398,1.49414 11.25,1.49414 13.53516,0 20.03906,-6.41602 6.5918,-6.5039 6.5918,-20.74218 l 0,-8.78907 z m 0,-45.08789 -31.11328,0 0,32.25586 31.11328,0 0,-32.25586 z"
         style="font-style:normal;font-variant:normal;font-weight:normal;font-stretch:normal;font-size:180px;font-family:'Nirmala UI';-inkscape-font-specification:'Nirmala UI'"
         id="path3353" />
      <path
         d="m 819.62472,1006.6479 0,-12.21681 -0.43945,0 q -1.40625,2.98828 -3.7793,5.62501 -2.28516,2.5488 -5.53711,4.4824 -3.16406,1.8457 -7.11914,2.9004 -3.95508,1.1426 -8.52539,1.1426 -7.64648,0 -13.44727,-2.1094 -5.71289,-2.1973 -9.49218,-6.1523 -2.10938,-2.28519 -3.60352,-5.0098 -1.49414,-2.8125 -2.46094,-6.24024 -0.8789,-3.51562 -1.31836,-7.82226 -0.35156,-4.39453 -0.35156,-9.75586 l 0,-70.04883 14.41406,0 0,68.55469 q 0,4.04297 0.17579,7.20703 0.17578,3.07617 0.61523,5.53711 0.52734,2.37305 1.31836,4.21875 0.87891,1.8457 2.10937,3.25195 4.48243,5.18555 13.62305,5.18555 11.25,0 16.69922,-8.17383 5.53711,-8.26172 5.53711,-23.64258 l 0,-62.13867 14.41406,0 0,92.28516 65.74219,0 0,-92.28516 14.41406,0 0,105.20509 -92.98828,0 z"
         style="font-style:normal;font-variant:normal;font-weight:normal;font-stretch:normal;font-size:180px;font-family:'Nirmala UI';-inkscape-font-specification:'Nirmala UI'"
         id="path3355" />
      <path
         d="m 1020.7185,914.36273 0,91.66997 -51.8555,37.4414 -7.82226,-10.2832 45.26366,-32.5196 0,-86.30857 -43.24218,0 0,92.28517 -14.41406,0 0,-105.20509 99.31644,0 0,12.91992 -27.2461,0 z"
         style="font-style:normal;font-variant:normal;font-weight:normal;font-stretch:normal;font-size:180px;font-family:'Nirmala UI';-inkscape-font-specification:'Nirmala UI'"
         id="path3357" />
      <path
         d="m 1234.9958,914.36273 0,92.28517 -14.414,0 0,-92.28517 -10.3711,0 q -4.4825,0 -8.4375,0.17578 -3.9551,0.0879 -7.5586,0.52735 -3.6036,0.35156 -6.9434,1.05468 -3.2519,0.70313 -6.416,1.75782 4.3066,3.77929 7.8223,8.78906 3.5156,4.92187 6.0644,10.89844 2.5488,5.88867 3.9551,12.83203 1.4062,6.85547 1.4062,14.50195 0,9.84375 -2.2851,17.92969 -2.2852,7.99805 -6.5918,13.79883 -4.2188,5.71284 -10.3711,8.87694 -6.1524,3.0762 -13.8867,3.0762 -7.8223,0 -14.0625,-3.1641 -6.1524,-3.164 -10.459,-8.78904 -4.3067,-5.71289 -6.5918,-13.53516 -2.2852,-7.91016 -2.2852,-17.22656 0,-14.85352 5.2735,-27.1582 5.2734,-12.30469 15.5566,-21.18165 -6.0644,-2.46093 -12.6562,-3.60351 -6.5039,-1.14258 -14.4141,-1.14258 -11.5137,0 -21.2695,3.42774 -9.7559,3.33984 -16.9629,9.49218 -7.2071,6.06446 -11.3379,14.58985 -4.043,8.4375 -4.043,18.7207 0,1.8457 0.2637,4.30664 l 0.5273,0 q 2.8125,-6.06445 8.877,-9.84375 6.0644,-3.86719 14.5898,-3.86719 5.3614,0 10.1953,1.9336 4.834,1.93359 8.3497,5.53711 3.6035,3.60351 5.7128,8.87695 2.1094,5.27344 2.1094,11.86523 0,6.67969 -2.1972,12.30469 -2.1094,5.625 -5.9766,9.75586 -3.8672,4.04299 -9.4043,6.41599 -5.4492,2.2852 -12.1289,2.2852 -8.877,0 -15.4688,-3.9551 -6.5918,-3.9551 -10.9863,-10.54687 -4.3066,-6.67969 -6.5039,-15.46875 -2.1094,-8.87695 -2.1094,-18.63281 0,-9.4043 2.3731,-17.49024 2.373,-8.17383 6.6797,-14.85351 4.3945,-6.67969 10.5468,-11.86524 6.1524,-5.27344 13.7989,-8.87695 7.6464,-3.60352 16.5234,-5.44922 8.877,-1.8457 18.7207,-1.8457 10.6348,0 20.6543,2.19726 10.0195,2.19727 18.9844,6.85547 3.6914,-1.66992 7.7344,-2.98828 4.1308,-1.40625 8.9648,-2.28516 4.9219,-0.96679 10.7227,-1.40625 5.8007,-0.52734 12.9199,-0.52734 l 56.25,0 0,12.91992 -29.4434,0 z m -49.7461,51.41602 q 0,-7.03125 -1.2304,-13.35938 -1.2305,-6.41601 -3.6036,-11.77734 -2.2851,-5.44922 -5.625,-9.84375 -3.3398,-4.39453 -7.5586,-7.4707 -4.3945,3.16406 -7.9101,7.64648 -3.4277,4.39453 -5.8887,9.84375 -2.373,5.36133 -3.6914,11.60156 -1.2305,6.24024 -1.2305,13.09571 0,6.67968 1.2305,12.21679 1.2305,5.44922 3.6035,9.4043 2.3731,3.95508 5.8008,6.15234 3.5156,2.10938 7.9981,2.10938 4.3066,0 7.6464,-2.02149 3.4278,-2.10937 5.7129,-5.88867 2.3731,-3.86719 3.5157,-9.3164 1.2304,-5.53711 1.2304,-12.39258 z m -75.4101,13.00781 q 0,-3.60352 -1.0547,-6.67969 -0.9668,-3.07617 -2.9004,-5.36133 -1.8457,-2.28515 -4.7461,-3.51562 -2.8125,-1.31836 -6.5039,-1.31836 -3.5156,0 -6.5918,1.31836 -3.0762,1.31836 -5.3613,3.69141 -2.1973,2.28515 -3.5157,5.44921 -1.2304,3.07618 -1.2304,6.5918 0,3.95508 1.2304,7.20703 1.3184,3.25196 3.5157,5.53711 2.1972,2.28516 5.0976,3.60352 2.9883,1.23047 6.3281,1.23047 3.4278,0 6.3282,-1.14258 2.9004,-1.14258 4.9218,-3.33985 2.1094,-2.28515 3.252,-5.5371 1.2305,-3.33985 1.2305,-7.73438 z"
         style="font-style:normal;font-variant:normal;font-weight:normal;font-stretch:normal;font-size:180px;font-family:'Nirmala UI';-inkscape-font-specification:'Nirmala UI'"
         id="path3359" />
    </g>
  </g>
</svg>
