<?xml version="1.0" encoding="UTF-8" standalone="no"?>
<!-- Created with Inkscape (http://www.inkscape.org/) -->

<svg
   xmlns:dc="http://purl.org/dc/elements/1.1/"
   xmlns:cc="http://creativecommons.org/ns#"
   xmlns:rdf="http://www.w3.org/1999/02/22-rdf-syntax-ns#"
   xmlns:svg="http://www.w3.org/2000/svg"
   xmlns="http://www.w3.org/2000/svg"
   xmlns:sodipodi="http://sodipodi.sourceforge.net/DTD/sodipodi-0.dtd"
   xmlns:inkscape="http://www.inkscape.org/namespaces/inkscape"
   width="100mm"
   height="70mm"
   viewBox="0 0 354.33071 248.03149"
   id="svg3344"
   version="1.1"
   inkscape:version="0.91 r13725"
   sodipodi:docname="arabic aniq (elegant) good.svg">
  <defs
     id="defs3346" />
  <sodipodi:namedview
     id="base"
     pagecolor="#ffffff"
     bordercolor="#666666"
     borderopacity="1.0"
     inkscape:pageopacity="0.0"
     inkscape:pageshadow="2"
     inkscape:zoom="1.979899"
     inkscape:cx="245.24649"
     inkscape:cy="127.28028"
     inkscape:document-units="px"
     inkscape:current-layer="layer1"
     showgrid="false"
     inkscape:window-width="1920"
     inkscape:window-height="1027"
     inkscape:window-x="-8"
     inkscape:window-y="-8"
     inkscape:window-maximized="1" />
  <metadata
     id="metadata3349">
    <rdf:RDF>
      <cc:Work
         rdf:about="">
        <dc:format>image/svg+xml</dc:format>
        <dc:type
           rdf:resource="http://purl.org/dc/dcmitype/StillImage" />
        <dc:title></dc:title>
      </cc:Work>
    </rdf:RDF>
  </metadata>
  <g
     inkscape:label="Layer 1"
     inkscape:groupmode="layer"
     id="layer1"
     transform="translate(0,-804.33071)">
    <g
       style="font-style:normal;font-weight:normal;font-size:40px;line-height:125%;font-family:sans-serif;letter-spacing:0px;word-spacing:0px;fill:#000000;fill-opacity:1;stroke:none;stroke-width:1px;stroke-linecap:butt;stroke-linejoin:miter;stroke-opacity:1"
       id="text3340"
       transform="translate(-5.5558389,-3.0304576)">
      <path
         d="m 292.65927,848.97058 6.85547,-1.58203 q -3.86719,-1.75781 -5.27344,-4.92188 -1.40625,-3.25195 -1.40625,-7.20703 0,-8.4375 4.92188,-12.21679 5.09765,-3.95508 13.18359,-3.95508 5.44922,0 10.01953,2.90039 l 0,8.78906 q -4.39453,-2.90039 -10.01953,-2.90039 -5.80078,0 -7.29492,1.58203 -2.54883,2.8125 -2.54883,5.09766 0,6.76758 8.26172,9.14062 2.90039,0.87891 13.44727,-1.66992 l 0,8.96485 -30.14649,6.76757 0,-8.78906 z m 7.4707,13.0957 16.17188,0 0,136.75782 -16.17188,0 0,-136.75782 z"
         style="font-size:180px"
         id="path3345"
         inkscape:connector-curvature="0" />
      <path
         d="m 252.58115,910.93347 13.18359,0 0,13.1836 -13.18359,0 0,-13.1836 z m 6.59179,80.33203 q -6.32812,7.5586 -20.12695,7.5586 l -7.91016,0 0,-16.17188 3.07618,0 q 8.70117,0 12.56835,-3.86719 4.30665,-4.30664 4.30665,-13.62304 l 0,-19.07227 16.17187,0 0,19.07227 q 0,16.43554 -8.08594,26.10351 z"
         style="font-size:180px"
         id="path3347"
         inkscape:connector-curvature="0" />
      <path
         d="m 204.68076,991.2655 q -6.76758,7.5586 -20.12696,7.5586 l -7.91015,0 0,-16.17188 3.07617,0 q 8.70117,0 12.56836,-3.86719 4.30664,-4.30664 4.30664,-13.62304 l 0,-19.07227 16.17187,0 0,19.07227 q 0,9.3164 4.30664,13.62304 3.86719,3.86719 12.56836,3.86719 l 4.83399,0 0,16.17188 -9.66797,0 q -13.1836,0 -20.12695,-7.5586 z m 4.39453,20.7422 13.18359,0 0,13.1836 -13.18359,0 0,-13.1836 z m -21.97266,0 13.18359,0 0,13.1836 -13.18359,0 0,-13.1836 z"
         style="font-size:180px"
         id="path3349"
         inkscape:connector-curvature="0" />
      <path
         d="m 134.45615,997.94519 q -5.80079,-0.43945 -9.84375,-1.58203 -10.63477,-3.07617 -15.64454,-6.85547 -12.919917,-9.58008 -12.919917,-25.83984 0,-5.36133 0.527344,-7.64649 3.515623,-14.50195 16.435543,-20.5664 3.60352,-1.66993 11.25,-1.66993 9.84375,0 14.76563,4.39454 8.70117,7.73437 13.0957,20.47851 1.75781,5.09766 2.28516,23.90625 2.28515,0.0879 2.63672,0.0879 l 23.11523,0 0,16.17188 -23.55469,0 -4.21875,0 q -3.95507,10.72269 -9.3164,16.87499 -11.25,12.7441 -25.13672,19.5996 -15.38086,7.5586 -33.398439,7.4707 -32.519531,-0.1758 -40.78125,-16.875 -6.064453,-12.1289 -6.064453,-23.1152 0,-14.58986 5.449219,-23.02736 l 16.171875,0 q -5.449219,9.4043 -5.449219,23.02736 0,6.6797 2.373047,11.7773 5.273437,11.4258 28.300781,11.4258 12.304688,0 25.488279,-5.9766 18.72071,-8.6132 24.4336,-22.0605 z m 3.77929,-16.96289 q 0.35157,-10.72266 -1.58203,-18.36914 -1.66992,-6.5918 -5.80078,-9.66797 -2.98828,-2.19727 -6.41602,-2.19727 -2.98828,0 -4.83398,0.87891 -4.48242,2.37305 -6.32812,7.4707 -0.87891,2.63672 -0.87891,4.83399 0,5.27344 5.00976,9.14062 6.67969,5.18555 15.46875,6.94336 4.13086,0.79102 5.36133,0.9668 z m -8.87695,-72.24609 13.18359,0 0,13.18359 -13.18359,0 0,-13.18359 z m -21.97266,0 13.1836,0 0,13.18359 -13.1836,0 0,-13.18359 z"
         style="font-size:180px"
         id="path3351"
         inkscape:connector-curvature="0" />
    </g>
  </g>
</svg>
