<?xml version="1.0" encoding="UTF-8" standalone="no"?>
<!-- Created with Inkscape (http://www.inkscape.org/) -->

<svg
   xmlns:dc="http://purl.org/dc/elements/1.1/"
   xmlns:cc="http://creativecommons.org/ns#"
   xmlns:rdf="http://www.w3.org/1999/02/22-rdf-syntax-ns#"
   xmlns:svg="http://www.w3.org/2000/svg"
   xmlns="http://www.w3.org/2000/svg"
   xmlns:sodipodi="http://sodipodi.sourceforge.net/DTD/sodipodi-0.dtd"
   xmlns:inkscape="http://www.inkscape.org/namespaces/inkscape"
   width="130mm"
   height="60mm"
   viewBox="0 0 460.62992 212.59842"
   id="svg2"
   version="1.1"
   inkscape:version="0.91 r13725"
   sodipodi:docname="shisht (elegant) good.svg">
  <defs
     id="defs4" />
  <sodipodi:namedview
     id="base"
     pagecolor="#ffffff"
     bordercolor="#666666"
     borderopacity="1.0"
     inkscape:pageopacity="0.0"
     inkscape:pageshadow="2"
     inkscape:zoom="0.98994949"
     inkscape:cx="238.02408"
     inkscape:cy="19.474954"
     inkscape:document-units="px"
     inkscape:current-layer="layer1"
     showgrid="false"
     inkscape:window-width="751"
     inkscape:window-height="779"
     inkscape:window-x="1044"
     inkscape:window-y="130"
     inkscape:window-maximized="0" />
  <metadata
     id="metadata7">
    <rdf:RDF>
      <cc:Work
         rdf:about="">
        <dc:format>image/svg+xml</dc:format>
        <dc:type
           rdf:resource="http://purl.org/dc/dcmitype/StillImage" />
        <dc:title />
      </cc:Work>
    </rdf:RDF>
  </metadata>
  <g
     inkscape:label="Layer 1"
     inkscape:groupmode="layer"
     id="layer1"
     transform="translate(0,-839.76378)">
    <g
       style="font-style:normal;font-weight:normal;font-size:40px;line-height:125%;font-family:sans-serif;letter-spacing:0px;word-spacing:0px;fill:#000000;fill-opacity:1;stroke:none;stroke-width:1px;stroke-linecap:butt;stroke-linejoin:miter;stroke-opacity:1"
       id="text3371">
      <path
         d="m 162.07004,881.60956 0,0 z m 85.95703,26.01562 -5.88867,9.14063 q -33.92578,-23.20313 -51.41602,-31.20117 -30.49805,-14.41407 -57.04101,-14.41407 -13.97461,0 -23.73047,4.57032 -13.007815,6.06445 -13.007815,18.7207 0,6.67969 6.240235,9.58008 l 34.98047,0 0,14.0625 -26.63086,0 0,101.95313 -15.468752,0 0,-101.95313 -20.478515,0 0,-14.0625 9.052734,0 q -2.373047,-4.83399 -2.373047,-11.16211 0,-18.8086 16.611328,-28.56446 13.623052,-7.99804 33.750002,-7.99804 52.38281,0 115.40039,51.32812 z m -85.95703,104.85352 0,0 z"
         style="font-style:normal;font-variant:normal;font-weight:normal;font-stretch:normal;font-size:180px;font-family:'Mangal Sample';-inkscape-font-specification:'Mangal Sample'"
         id="path3376" />
      <path
         d="m 205.40012,938.73846 q 0,7.73438 -1.9336,14.94141 -1.8457,7.20703 -5.625,13.18359 -3.77929,5.97657 -9.40429,10.45899 -5.625,4.48242 -13.09571,6.76758 l 28.03711,30.76167 -11.51367,10.5469 -51.67969,-56.24998 11.51367,-10.63477 10.81055,11.77735 q 0.52734,0.52734 2.72461,0.52734 5.09766,0 9.66797,-2.46094 4.57031,-2.54882 7.99805,-6.85546 3.51562,-4.39454 5.53711,-10.19532 2.02148,-5.88867 2.02148,-12.56836 0,-0.96679 -0.17578,-2.02148 -0.0879,-1.05469 -0.26367,-2.10938 -1.84571,2.9004 -4.48243,5.36133 -2.54882,2.37305 -5.71289,4.13086 -3.16406,1.66992 -6.76757,2.63672 -3.60352,0.87891 -7.38282,0.87891 -6.15234,0 -10.81054,-1.75782 -4.57032,-1.8457 -7.64649,-4.83398 -3.07617,-3.07617 -4.6582,-7.11914 -1.49414,-4.13086 -1.49414,-8.78906 0,-5.53711 2.19726,-10.19532 2.28516,-4.74609 6.15235,-8.17382 3.86719,-3.51563 9.05273,-5.44922 5.18555,-1.9336 11.07422,-1.9336 8.26172,0 14.85352,2.8125 6.67968,2.8125 11.33789,7.99805 4.6582,5.18555 7.11914,12.48047 2.54883,7.20703 2.54883,16.08398 z m 64.07226,-20.65429 -26.80664,0 0,101.95313 -15.46875,0 0,-101.95313 -10.98633,0 0,-14.0625 53.26172,0 0,14.0625 z m -85.2539,3.95508 q -2.9004,-3.69141 -6.76758,-5.97657 -3.7793,-2.28515 -7.91016,-2.28515 -2.98828,0 -5.53711,0.79101 -2.54883,0.79102 -4.39453,2.28516 -1.8457,1.40625 -2.90039,3.51562 -0.9668,2.10938 -0.9668,4.7461 0,2.02148 0.9668,3.60351 0.9668,1.58203 2.54883,2.8125 1.66992,1.14258 3.77929,1.75782 2.10938,0.61523 4.39454,0.61523 2.10937,0 4.21875,-0.43945 2.19726,-0.43946 4.30664,-1.75782 2.10937,-1.31836 4.13086,-3.60351 2.10937,-2.37305 4.13086,-6.06445 z"
         style="font-style:normal;font-variant:normal;font-weight:normal;font-stretch:normal;font-size:180px;font-family:'Mangal Sample';-inkscape-font-specification:'Mangal Sample'"
         id="path3378" />
      <path
         d="m 377.57785,918.08417 -26.19141,0 0,27.33398 q 0,21.18164 -14.67773,27.50977 -13.62305,2.8125 -27.33398,5.625 -14.67774,3.60351 -14.67774,11.86523 0,7.29492 5.71289,9.75585 5.36133,4.3945 12.83203,4.3945 8.87696,0 16.61133,-5.00972 7.82227,-5.09766 10.63477,-13.44727 l 14.76562,5.36133 q -5.18555,13.27146 -16.61133,20.91796 -11.42578,7.6465 -25.66406,7.6465 -13.97461,0 -23.81836,-7.0313 -10.19531,-8.5253 -10.19531,-22.32418 0,-12.30468 16.17187,-21.35742 -12.04101,-8.61328 -12.04101,-19.51172 l 0,-31.72851 -19.59961,0 0,-14.0625 114.08203,0 0,14.0625 z m -33.92578,-7.64649 0,0 z m -30.41016,0 0,0 z m 22.67578,35.94727 0,-28.30078 -26.98242,0 26.98242,28.30078 z m -5.71289,11.16211 -31.64062,-34.18946 0,14.58985 q 0,22.93945 18.54492,22.93945 8.4375,0 13.0957,-3.33984 z m -12.56836,46.49414 0,0 z m 9.05274,0 0,0 z m -13.27149,28.8281 0,0 z"
         style="font-style:normal;font-variant:normal;font-weight:normal;font-stretch:normal;font-size:180px;font-family:'Mangal Sample';-inkscape-font-specification:'Mangal Sample'"
         id="path3380" />
    </g>
  </g>
</svg>
