<?xml version="1.0" encoding="UTF-8" standalone="no"?>
<!-- Created with Inkscape (http://www.inkscape.org/) -->

<svg
   xmlns:dc="http://purl.org/dc/elements/1.1/"
   xmlns:cc="http://creativecommons.org/ns#"
   xmlns:rdf="http://www.w3.org/1999/02/22-rdf-syntax-ns#"
   xmlns:svg="http://www.w3.org/2000/svg"
   xmlns="http://www.w3.org/2000/svg"
   xmlns:sodipodi="http://sodipodi.sourceforge.net/DTD/sodipodi-0.dtd"
   xmlns:inkscape="http://www.inkscape.org/namespaces/inkscape"
   width="450mm"
   height="210mm"
   viewBox="0 0 1594.4882 744.09448"
   id="svg3407"
   version="1.1"
   inkscape:version="0.91 r13725"
   sodipodi:docname="halant kannada.svg">
  <defs
     id="defs3409" />
  <sodipodi:namedview
     id="base"
     pagecolor="#ffffff"
     bordercolor="#666666"
     borderopacity="1.0"
     inkscape:pageopacity="0.0"
     inkscape:pageshadow="2"
     inkscape:zoom="0.35"
     inkscape:cx="-144.75726"
     inkscape:cy="520"
     inkscape:document-units="px"
     inkscape:current-layer="layer1"
     showgrid="false"
     inkscape:window-width="1920"
     inkscape:window-height="1027"
     inkscape:window-x="-8"
     inkscape:window-y="-8"
     inkscape:window-maximized="1" />
  <metadata
     id="metadata3412">
    <rdf:RDF>
      <cc:Work
         rdf:about="">
        <dc:format>image/svg+xml</dc:format>
        <dc:type
           rdf:resource="http://purl.org/dc/dcmitype/StillImage" />
        <dc:title></dc:title>
      </cc:Work>
    </rdf:RDF>
  </metadata>
  <g
     inkscape:label="Layer 1"
     inkscape:groupmode="layer"
     id="layer1"
     transform="translate(0,-308.26772)">
    <g
       style="font-style:normal;font-weight:normal;font-size:180px;line-height:125%;font-family:sans-serif;letter-spacing:0px;word-spacing:0px;fill:#000000;fill-opacity:1;stroke:none;stroke-width:1px;stroke-linecap:butt;stroke-linejoin:miter;stroke-opacity:1"
       id="text3415">
      <path
         d="m 86.352954,358.78827 0,13.35937 q -6.679687,-2.10937 -15.55664,-2.10937 -20.830078,0 -31.552735,12.12891 -10.634765,12.04101 -11.777343,37.79296 l 1.054687,0 q 9.75586,-15.11718 30.410156,-15.11718 17.138672,0 27.158204,10.2832 10.107421,10.19531 10.107421,28.03711 0,19.59961 -11.074218,31.02539 -10.986328,11.33789 -29.794922,11.33789 -19.863281,0 -31.816406,-14.41406 -11.865235,-14.50196 -11.865235,-40.69336 0,-36.65039 14.677735,-54.93164 14.677734,-18.36914 44.121093,-18.36914 3.955078,0 8.525391,0.43945 4.658203,0.43945 7.382812,1.23047 z m -5.800781,84.375 q 0,-12.39258 -6.503906,-19.16016 -6.416016,-6.76758 -18.369141,-6.76758 -7.646484,0 -14.0625,3.16407 -6.416015,3.07617 -10.195312,8.52539 -3.779297,5.44922 -3.779297,11.25 0,8.34961 3.427734,15.9082 3.515625,7.55859 9.75586,11.86524 6.240234,4.30664 14.326172,4.30664 12.128906,0 18.720703,-7.5586 6.679687,-7.55859 6.679687,-21.5332 z"
         style="font-style:normal;font-variant:normal;font-weight:normal;font-stretch:normal;font-size:180px;line-height:125%;font-family:'Noto Sans Kannada';-inkscape-font-specification:'Noto Sans Kannada, Normal';text-align:start;writing-mode:lr-tb;text-anchor:start"
         id="path3424" />
      <path
         d="m 128.62835,461.26874 q 5.36132,0 8.3496,3.07617 2.98829,3.07617 2.98829,8.96484 0,5.97657 -3.07618,9.14063 -3.07617,3.16406 -8.26171,3.16406 -5.09766,0 -8.08594,-3.16406 -2.90039,-3.16406 -2.90039,-9.14063 0,-5.80078 2.8125,-8.87695 2.90039,-3.16406 8.17383,-3.16406 z"
         style="font-style:normal;font-variant:normal;font-weight:normal;font-stretch:normal;font-size:180px;line-height:125%;font-family:'Noto Sans Kannada';-inkscape-font-specification:'Noto Sans Kannada, Normal';text-align:start;writing-mode:lr-tb;text-anchor:start"
         id="path3426" />
      <path
         d="m 210.45452,398.16327 0,-13.97461 76.99218,0 q 9.31641,0 14.0625,-0.9668 4.7461,-0.96679 7.03125,-3.6914 2.37305,-2.8125 2.37305,-7.47071 0,-11.51367 -11.68945,-22.93945 l 11.68945,-7.82227 q 7.38281,8.26172 10.98633,15.73243 3.60352,7.4707 3.60352,16.25976 0,6.5918 -3.25196,12.30469 -3.16406,5.625 -10.19531,9.14062 -7.03125,3.42774 -21.35742,3.42774 l -80.24414,0 z m 23.55468,82.26562 -13.9746,5.53711 q -4.48243,-5.97656 -7.03125,-13.53515 -2.54883,-7.64649 -2.54883,-15.11719 0,-12.30469 7.82226,-20.47852 7.82227,-8.26171 19.16016,-8.26171 7.20703,0 12.30469,2.10937 5.09765,2.10938 9.05273,6.32813 4.04297,4.21875 8.96484,12.83203 5.44922,9.49218 8.78907,13.53515 3.33984,3.95508 7.20703,5.97657 3.95508,2.02148 9.4043,2.02148 8.3496,0 12.91992,-6.06445 4.6582,-6.15235 4.6582,-16.78711 0,-9.4043 -3.7793,-17.75391 -3.6914,-8.4375 -11.25,-16.96289 l 12.12891,-8.52539 q 17.66602,18.89648 17.66602,41.74805 0,18.28125 -8.87696,28.47656 -8.78906,10.10742 -24.69726,10.10742 -7.82227,0 -13.79883,-2.63672 -5.88867,-2.72461 -10.3711,-7.64648 -4.48242,-5.00977 -9.93164,-14.32617 -4.57031,-7.73438 -7.64648,-11.60157 -2.98828,-3.86718 -5.88867,-5.44922 -2.8125,-1.58203 -6.67969,-1.58203 -5.88867,0 -9.31641,3.86719 -3.33984,3.86719 -3.33984,10.63477 0,11.07422 9.05273,23.55468 z m 32.34375,-74.79492 q 4.39454,0 7.38282,3.16406 2.98828,3.07618 2.98828,7.47071 0,4.30664 -2.98828,7.4707 -2.98828,3.07617 -7.38282,3.07617 -4.39453,0 -7.4707,-3.07617 -2.98828,-3.07617 -2.98828,-7.4707 0,-4.39453 2.98828,-7.47071 3.07617,-3.16406 7.4707,-3.16406 z m -5.625,-67.67578 0,0 z m -11.86523,145.54688 0,0 z"
         style="font-style:normal;font-variant:normal;font-weight:normal;font-stretch:normal;font-size:180px;line-height:125%;font-family:'Noto Sans Kannada';-inkscape-font-specification:'Noto Sans Kannada, Normal';text-align:start;writing-mode:lr-tb;text-anchor:start"
         id="path3428" />
      <path
         d="m 422.97405,436.13202 q -3.95508,6.94336 -11.60156,10.89844 -7.64649,3.86718 -17.13868,3.86718 -11.86523,0 -18.36914,-5.18554 -6.41601,-5.18555 -6.41601,-15.0293 0,-9.31641 6.76758,-14.41406 6.85546,-5.18555 19.6875,-5.18555 9.05273,0 17.40234,2.72461 -1.31836,-4.92187 -4.74609,-8.78906 -3.33985,-3.95508 -8.87696,-6.85547 l -60.02929,0 0,-13.97461 60.20507,0 q 9.31641,0 14.0625,-0.9668 4.7461,-0.96679 7.03125,-3.6914 2.37305,-2.8125 2.37305,-7.47071 0,-11.51367 -11.68945,-22.93945 l 11.68945,-7.82227 q 7.38281,8.26172 10.98633,15.73243 3.60351,7.4707 3.60351,16.25976 0,8.61328 -5.09765,15.0293 -5.09766,6.32812 -15.11719,8.61328 4.74609,4.04297 7.11914,9.75586 2.37305,5.625 2.37305,12.91992 l 0,1.14258 0,0.9668 q 5.18555,4.74609 7.91015,11.07422 2.8125,6.32812 2.8125,13.53515 0,18.98438 -12.91992,29.17969 -12.83203,10.10742 -37.35351,10.10742 -22.93946,0 -35.94727,-10.37109 -13.00781,-10.3711 -13.00781,-27.86133 0,-5.53711 0.9668,-10.45899 l 14.23828,1.9336 q -0.70313,3.42773 -0.70313,6.94336 0,12.30469 8.70117,18.98437 8.78907,6.5918 26.01563,6.5918 18.28125,0 27.59766,-6.5918 9.40429,-6.67968 9.40429,-18.19336 0,-5.88867 -1.93359,-10.45898 z m -10.2832,-9.84375 q -6.41602,-3.07617 -14.85352,-3.07617 -7.11914,0 -10.54688,1.75781 -3.42773,1.75781 -3.42773,5.53711 0,7.29492 11.68945,7.29492 13.1836,0 17.13868,-11.51367 z m -12.91993,-88.33008 0,0 z"
         style="font-style:normal;font-variant:normal;font-weight:normal;font-stretch:normal;font-size:180px;line-height:125%;font-family:'Noto Sans Kannada';-inkscape-font-specification:'Noto Sans Kannada, Normal';text-align:start;writing-mode:lr-tb;text-anchor:start"
         id="path3430" />
      <path
         d="m 506.8217,410.38007 0,-12.74414 82.44141,0 0,12.74414 -82.44141,0 z m 0,35.85937 0,-12.83203 82.44141,0 0,12.83203 -82.44141,0 z m 41.48438,-62.05078 0,0 z m 0.61523,99.31641 0,0 z m -0.17578,-68.11524 0,0 z"
         style="font-style:normal;font-variant:normal;font-weight:normal;font-stretch:normal;font-size:180px;line-height:125%;font-family:'Noto Sans Kannada';-inkscape-font-specification:'Noto Sans Kannada, Normal';text-align:start;writing-mode:lr-tb;text-anchor:start"
         id="path3432" />
      <path
         d="m 657.29045,398.16327 0,-13.97461 76.99219,0 q 9.31641,0 14.0625,-0.9668 4.7461,-0.96679 7.03125,-3.6914 2.37305,-2.8125 2.37305,-7.47071 0,-11.51367 -11.68945,-22.93945 l 11.68945,-7.82227 q 7.38281,8.26172 10.98633,15.73243 3.60351,7.4707 3.60351,16.25976 0,6.5918 -3.25195,12.30469 -3.16406,5.625 -10.19531,9.14062 -7.03125,3.42774 -21.35742,3.42774 l -80.24415,0 z m 23.55469,82.26562 -13.97461,5.53711 q -4.48242,-5.97656 -7.03125,-13.53515 -2.54883,-7.64649 -2.54883,-15.11719 0,-12.30469 7.82227,-20.47852 7.82227,-8.26171 19.16016,-8.26171 7.20703,0 12.30468,2.10937 5.09766,2.10938 9.05274,6.32813 4.04297,4.21875 8.96484,12.83203 5.44922,9.49218 8.78906,13.53515 3.33985,3.95508 7.20704,5.97657 3.95507,2.02148 9.40429,2.02148 8.34961,0 12.91992,-6.06445 4.65821,-6.15235 4.65821,-16.78711 0,-9.4043 -3.7793,-17.75391 -3.69141,-8.4375 -11.25,-16.96289 l 12.12891,-8.52539 q 17.66601,18.89648 17.66601,41.74805 0,18.28125 -8.87695,28.47656 -8.78906,10.10742 -24.69727,10.10742 -7.82226,0 -13.79882,-2.63672 -5.88868,-2.72461 -10.3711,-7.64648 -4.48242,-5.00977 -9.93164,-14.32617 -4.57031,-7.73438 -7.64648,-11.60157 -2.98828,-3.86718 -5.88867,-5.44922 -2.8125,-1.58203 -6.67969,-1.58203 -5.88867,0 -9.31641,3.86719 -3.33984,3.86719 -3.33984,10.63477 0,11.07422 9.05273,23.55468 z m 32.34375,-74.79492 q 4.39453,0 7.38281,3.16406 2.98829,3.07618 2.98829,7.47071 0,4.30664 -2.98829,7.4707 -2.98828,3.07617 -7.38281,3.07617 -4.39453,0 -7.4707,-3.07617 -2.98828,-3.07617 -2.98828,-7.4707 0,-4.39453 2.98828,-7.47071 3.07617,-3.16406 7.4707,-3.16406 z m -5.625,-67.67578 0,0 z m -11.86523,145.54688 0,0 z"
         style="font-style:normal;font-variant:normal;font-weight:normal;font-stretch:normal;font-size:180px;line-height:125%;font-family:'Noto Sans Kannada';-inkscape-font-specification:'Noto Sans Kannada, Normal';text-align:start;writing-mode:lr-tb;text-anchor:start"
         id="path3434" />
      <path
         d="m 921.84124,436.13202 q -3.95508,6.94336 -11.60157,10.89844 -7.64648,3.86718 -17.13867,3.86718 -11.86523,0 -18.36914,-5.18554 -6.41601,-5.18555 -6.41601,-15.0293 0,-9.31641 6.76757,-14.41406 6.85547,-5.18555 19.6875,-5.18555 9.05274,0 17.40235,2.72461 -1.31836,-4.92187 -4.7461,-8.78906 -3.33984,-3.95508 -8.87695,-6.85547 l -60.0293,0 0,-13.97461 60.20508,0 q 9.31641,0 14.0625,-0.9668 4.7461,-0.96679 7.03125,-3.6914 2.37305,-2.8125 2.37305,-7.47071 0,-11.51367 -11.68945,-22.93945 l 11.68945,-7.82227 q 7.38281,8.26172 10.98633,15.73243 3.60351,7.4707 3.60351,16.25976 0,8.61328 -5.09765,15.0293 -5.09766,6.32812 -15.11719,8.61328 4.74609,4.04297 7.11914,9.75586 2.37305,5.625 2.37305,12.91992 l 0,1.14258 0,0.9668 q 5.18554,4.74609 7.91015,11.07422 2.8125,6.32812 2.8125,13.53515 0,18.98438 -12.91992,29.17969 -12.83203,10.10742 -37.35352,10.10742 -22.93945,0 -35.94726,-10.37109 -13.00781,-10.3711 -13.00781,-27.86133 0,-5.53711 0.96679,-10.45899 l 14.23828,1.9336 q -0.70312,3.42773 -0.70312,6.94336 0,12.30469 8.70117,18.98437 8.78906,6.5918 26.01563,6.5918 18.28125,0 27.59765,-6.5918 9.4043,-6.67968 9.4043,-18.19336 0,-5.88867 -1.93359,-10.45898 z m -10.28321,-9.84375 q -6.41601,-3.07617 -14.85351,-3.07617 -7.11914,0 -10.54688,1.75781 -3.42773,1.75781 -3.42773,5.53711 0,7.29492 11.68945,7.29492 13.18359,0 17.13867,-11.51367 z m -12.91992,-88.33008 0,0 z"
         style="font-style:normal;font-variant:normal;font-weight:normal;font-stretch:normal;font-size:180px;line-height:125%;font-family:'Noto Sans Kannada';-inkscape-font-specification:'Noto Sans Kannada, Normal';text-align:start;writing-mode:lr-tb;text-anchor:start"
         id="path3436" />
      <path
         d="m 1283.4233,387.96796 0,15.29297 q -6.8555,-3.51563 -14.2383,-5.27344 -7.3828,-1.75781 -15.293,-1.75781 -12.041,0 -18.1055,3.6914 -5.9765,3.69141 -5.9765,11.07422 0,5.625 4.3066,8.87695 4.3067,3.16407 17.3145,6.06446 l 5.5371,1.23047 q 17.2266,3.6914 24.4336,10.45898 7.2949,6.67969 7.2949,18.7207 0,13.71094 -10.8984,21.70899 -10.8106,7.99804 -29.795,7.99804 -7.9101,0 -16.5234,-1.58203 -8.5254,-1.49414 -18.0176,-4.57031 l 0,-16.69922 q 8.9649,4.6582 17.666,7.03125 8.7012,2.28516 17.2266,2.28516 11.4258,0 17.5781,-3.86719 6.1524,-3.95508 6.1524,-11.07422 0,-6.5918 -4.4824,-10.10742 -4.3946,-3.51563 -19.4239,-6.76758 l -5.625,-1.31836 q -15.0293,-3.16406 -21.709,-9.66797 -6.6796,-6.59179 -6.6796,-18.01757 0,-13.88672 9.8437,-21.44532 9.8438,-7.55859 27.9492,-7.55859 8.9649,0 16.875,1.31836 7.9102,1.31836 14.5899,3.95508 z"
         style="font-style:normal;font-variant:normal;font-weight:normal;font-stretch:normal;font-size:180px;line-height:125%;font-family:'Noto Sans Kannada';-inkscape-font-specification:'Noto Sans Kannada, Normal';text-align:start;writing-mode:lr-tb;text-anchor:start"
         id="path3438" />
      <path
         d="m 1359.2729,434.02264 q -19.5996,0 -27.1582,4.48243 -7.5586,4.48242 -7.5586,15.29296 0,8.61329 5.625,13.71094 5.7129,5.00977 15.4687,5.00977 13.4473,0 21.5332,-9.49219 8.1739,-9.58008 8.1739,-25.40039 l 0,-3.60352 -16.084,0 z m 32.2558,-6.67968 0,56.16211 -16.1718,0 0,-14.94141 q -5.5371,8.96484 -13.7989,13.27148 -8.2617,4.21875 -20.2148,4.21875 -15.1172,0 -24.082,-8.4375 -8.877,-8.52539 -8.877,-22.76367 0,-16.61133 11.0742,-25.04883 11.1621,-8.4375 33.2227,-8.4375 l 22.6758,0 0,-1.58203 q 0,-11.16211 -7.3829,-17.22656 -7.2949,-6.15234 -20.5664,-6.15234 -8.4375,0 -16.4355,2.02148 -7.9981,2.02149 -15.3809,6.06445 l 0,-14.9414 q 8.877,-3.42774 17.2266,-5.09766 8.3496,-1.75781 16.2598,-1.75781 21.3574,0 31.9043,11.07422 10.5468,11.07422 10.5468,33.57422 z"
         style="font-style:normal;font-variant:normal;font-weight:normal;font-stretch:normal;font-size:180px;line-height:125%;font-family:'Noto Sans Kannada';-inkscape-font-specification:'Noto Sans Kannada, Normal';text-align:start;writing-mode:lr-tb;text-anchor:start"
         id="path3440" />
      <path
         d="m 1440.9233,357.11835 0,27.94922 33.3105,0 0,12.56836 -33.3105,0 0,53.4375 q 0,12.04101 3.2519,15.46875 3.3399,3.42773 13.4473,3.42773 l 16.6113,0 0,13.53516 -16.6113,0 q -18.7207,0 -25.8399,-6.94336 -7.1191,-7.03125 -7.1191,-25.48828 l 0,-53.4375 -11.8652,0 0,-12.56836 11.8652,0 0,-27.94922 16.2598,0 z"
         style="font-style:normal;font-variant:normal;font-weight:normal;font-stretch:normal;font-size:180px;line-height:125%;font-family:'Noto Sans Kannada';-inkscape-font-specification:'Noto Sans Kannada, Normal';text-align:start;writing-mode:lr-tb;text-anchor:start"
         id="path3442" />
      <path
         d="m 1540.3276,434.02264 q -19.5996,0 -27.1582,4.48243 -7.5586,4.48242 -7.5586,15.29296 0,8.61329 5.625,13.71094 5.7129,5.00977 15.4687,5.00977 13.4473,0 21.5332,-9.49219 8.1738,-9.58008 8.1738,-25.40039 l 0,-3.60352 -16.0839,0 z m 32.2558,-6.67968 0,56.16211 -16.1719,0 0,-14.94141 q -5.5371,8.96484 -13.7988,13.27148 -8.2617,4.21875 -20.2148,4.21875 -15.1172,0 -24.0821,-8.4375 -8.8769,-8.52539 -8.8769,-22.76367 0,-16.61133 11.0742,-25.04883 11.1621,-8.4375 33.2227,-8.4375 l 22.6757,0 0,-1.58203 q 0,-11.16211 -7.3828,-17.22656 -7.2949,-6.15234 -20.5664,-6.15234 -8.4375,0 -16.4355,2.02148 -7.9981,2.02149 -15.3809,6.06445 l 0,-14.9414 q 8.877,-3.42774 17.2266,-5.09766 8.3496,-1.75781 16.2598,-1.75781 21.3574,0 31.9042,11.07422 10.5469,11.07422 10.5469,33.57422 z"
         style="font-style:normal;font-variant:normal;font-weight:normal;font-stretch:normal;font-size:180px;line-height:125%;font-family:'Noto Sans Kannada';-inkscape-font-specification:'Noto Sans Kannada, Normal';text-align:start;writing-mode:lr-tb;text-anchor:start"
         id="path3444" />
      <path
         d="m 27.202564,753.0567 51.767578,-109.95117 -69.3457032,0 0,-14.41406 86.2207032,0 0,12.21679 -51.240234,112.14844 -17.402344,0 z"
         style="font-style:normal;font-variant:normal;font-weight:normal;font-stretch:normal;font-size:180px;line-height:125%;font-family:'Noto Sans Kannada';-inkscape-font-specification:'Noto Sans Kannada, Normal';text-align:start;writing-mode:lr-tb;text-anchor:start"
         id="path3446" />
      <path
         d="m 128.62835,730.73248 q 5.36132,0 8.3496,3.07617 2.98829,3.07618 2.98829,8.96485 0,5.97656 -3.07618,9.14062 -3.07617,3.16407 -8.26171,3.16407 -5.09766,0 -8.08594,-3.16407 -2.90039,-3.16406 -2.90039,-9.14062 0,-5.80078 2.8125,-8.87696 2.90039,-3.16406 8.17383,-3.16406 z"
         style="font-style:normal;font-variant:normal;font-weight:normal;font-stretch:normal;font-size:180px;line-height:125%;font-family:'Noto Sans Kannada';-inkscape-font-specification:'Noto Sans Kannada, Normal';text-align:start;writing-mode:lr-tb;text-anchor:start"
         id="path3448" />
      <path
         d="m 210.45452,667.62701 0,-13.97461 76.99218,0 q 9.31641,0 14.0625,-0.96679 4.7461,-0.9668 7.03125,-3.69141 2.37305,-2.8125 2.37305,-7.4707 0,-11.51367 -11.68945,-22.93946 l 11.68945,-7.82226 q 7.38281,8.26172 10.98633,15.73242 3.60352,7.4707 3.60352,16.25977 0,6.59179 -3.25196,12.30468 -3.16406,5.625 -10.19531,9.14063 -7.03125,3.42773 -21.35742,3.42773 l -80.24414,0 z m 23.55468,82.26563 -13.9746,5.53711 q -4.48243,-5.97656 -7.03125,-13.53516 -2.54883,-7.64648 -2.54883,-15.11719 0,-12.30468 7.82226,-20.47851 7.82227,-8.26172 19.16016,-8.26172 7.20703,0 12.30469,2.10937 5.09765,2.10938 9.05273,6.32813 4.04297,4.21875 8.96484,12.83203 5.44922,9.49219 8.78907,13.53516 3.33984,3.95508 7.20703,5.97656 3.95508,2.02148 9.4043,2.02148 8.3496,0 12.91992,-6.06445 4.6582,-6.15234 4.6582,-16.78711 0,-9.4043 -3.7793,-17.7539 -3.6914,-8.4375 -11.25,-16.9629 l 12.12891,-8.52539 q 17.66602,18.89649 17.66602,41.74805 0,18.28125 -8.87696,28.47656 -8.78906,10.10743 -24.69726,10.10743 -7.82227,0 -13.79883,-2.63672 -5.88867,-2.72461 -10.3711,-7.64649 -4.48242,-5.00976 -9.93164,-14.32617 -4.57031,-7.73437 -7.64648,-11.60156 -2.98828,-3.86719 -5.88867,-5.44922 -2.8125,-1.58203 -6.67969,-1.58203 -5.88867,0 -9.31641,3.86719 -3.33984,3.86718 -3.33984,10.63476 0,11.07422 9.05273,23.55469 z m 32.34375,-74.79492 q 4.39454,0 7.38282,3.16406 2.98828,3.07617 2.98828,7.4707 0,4.30664 -2.98828,7.47071 -2.98828,3.07617 -7.38282,3.07617 -4.39453,0 -7.4707,-3.07617 -2.98828,-3.07618 -2.98828,-7.47071 0,-4.39453 2.98828,-7.4707 3.07617,-3.16406 7.4707,-3.16406 z m -5.625,-67.67578 0,0 z m -11.86523,145.54687 0,0 z"
         style="font-style:normal;font-variant:normal;font-weight:normal;font-stretch:normal;font-size:180px;line-height:125%;font-family:'Noto Sans Kannada';-inkscape-font-specification:'Noto Sans Kannada, Normal';text-align:start;writing-mode:lr-tb;text-anchor:start"
         id="path3450" />
      <path
         d="m 252.11467,808.86725 0,-13.44727 51.76758,0 q -1.93359,-5.44922 -1.93359,-11.25 0,-9.22851 6.59179,-15.64453 6.5918,-6.41601 17.92969,-6.41601 11.07422,0 17.57813,6.24023 6.59179,6.24023 6.59179,15.99609 0,8.87696 -4.6582,14.41407 -4.57031,5.53711 -12.2168,7.82226 -7.55859,2.28516 -22.5,2.28516 l -59.15039,0 z m 64.77539,-13.44727 4.04297,0 q 8.78907,0 12.65625,-2.63672 3.86719,-2.63672 3.86719,-8.52539 0,-4.13086 -3.07617,-7.03125 -2.98828,-2.90039 -7.91016,-2.90039 -5.36133,0 -8.52539,3.33985 -3.25195,3.33984 -3.25195,8.61328 0,4.57031 2.19726,9.14062 z m -4.74609,-32.51953 0,0 z m -0.70312,-9.93164 0,0 z"
         style="font-style:normal;font-variant:normal;font-weight:normal;font-stretch:normal;font-size:180px;line-height:125%;font-family:'Noto Sans Kannada';-inkscape-font-specification:'Noto Sans Kannada, Normal';text-align:start;writing-mode:lr-tb;text-anchor:start"
         id="path3452" />
      <path
         d="m 406.27483,679.84381 0,-12.74414 82.44141,0 0,12.74414 -82.44141,0 z m 0,35.85938 0,-12.83204 82.44141,0 0,12.83204 -82.44141,0 z m 41.48437,-62.05079 0,0 z m 0.61524,99.31641 0,0 z m -0.17578,-68.11523 0,0 z"
         style="font-style:normal;font-variant:normal;font-weight:normal;font-stretch:normal;font-size:180px;line-height:125%;font-family:'Noto Sans Kannada';-inkscape-font-specification:'Noto Sans Kannada, Normal';text-align:start;writing-mode:lr-tb;text-anchor:start"
         id="path3454" />
      <path
         d="m 556.74358,667.62701 0,-13.97461 76.99219,0 q 9.3164,0 14.0625,-0.96679 4.74609,-0.9668 7.03125,-3.69141 2.37304,-2.8125 2.37304,-7.4707 0,-11.51367 -11.68945,-22.93946 l 11.68945,-7.82226 q 7.38282,8.26172 10.98633,15.73242 3.60352,7.4707 3.60352,16.25977 0,6.59179 -3.25196,12.30468 -3.16406,5.625 -10.19531,9.14063 -7.03125,3.42773 -21.35742,3.42773 l -80.24414,0 z m 23.55469,82.26563 -13.97461,5.53711 q -4.48242,-5.97656 -7.03125,-13.53516 -2.54883,-7.64648 -2.54883,-15.11719 0,-12.30468 7.82227,-20.47851 7.82226,-8.26172 19.16015,-8.26172 7.20703,0 12.30469,2.10937 5.09766,2.10938 9.05273,6.32813 4.04297,4.21875 8.96485,12.83203 5.44922,9.49219 8.78906,13.53516 3.33984,3.95508 7.20703,5.97656 3.95508,2.02148 9.4043,2.02148 8.34961,0 12.91992,-6.06445 4.6582,-6.15234 4.6582,-16.78711 0,-9.4043 -3.77929,-17.7539 -3.69141,-8.4375 -11.25,-16.9629 l 12.1289,-8.52539 q 17.66602,18.89649 17.66602,41.74805 0,18.28125 -8.87696,28.47656 -8.78906,10.10743 -24.69726,10.10743 -7.82227,0 -13.79883,-2.63672 -5.88867,-2.72461 -10.37109,-7.64649 -4.48242,-5.00976 -9.93164,-14.32617 -4.57032,-7.73437 -7.64649,-11.60156 -2.98828,-3.86719 -5.88867,-5.44922 -2.8125,-1.58203 -6.67969,-1.58203 -5.88867,0 -9.3164,3.86719 -3.33985,3.86718 -3.33985,10.63476 0,11.07422 9.05274,23.55469 z m 32.34375,-74.79492 q 4.39453,0 7.38281,3.16406 2.98828,3.07617 2.98828,7.4707 0,4.30664 -2.98828,7.47071 -2.98828,3.07617 -7.38281,3.07617 -4.39453,0 -7.47071,-3.07617 -2.98828,-3.07618 -2.98828,-7.47071 0,-4.39453 2.98828,-7.4707 3.07618,-3.16406 7.47071,-3.16406 z m -5.625,-67.67578 0,0 z m -11.86524,145.54687 0,0 z"
         style="font-style:normal;font-variant:normal;font-weight:normal;font-stretch:normal;font-size:180px;line-height:125%;font-family:'Noto Sans Kannada';-inkscape-font-specification:'Noto Sans Kannada, Normal';text-align:start;writing-mode:lr-tb;text-anchor:start"
         id="path3456" />
      <path
         d="m 782.79827,677.82233 q -5.625,0 -5.625,-5.71289 0,-5.625 5.625,-5.625 5.80078,0 5.80078,5.625 0,5.71289 -5.80078,5.71289 z m -24.60938,9.84375 q -5.625,0 -5.625,-5.71289 0,-5.625 5.625,-5.625 5.71289,0 5.71289,5.625 0,5.71289 -5.71289,5.71289 z m 49.30664,0 q -5.625,0 -5.625,-5.71289 0,-5.625 5.625,-5.625 5.71289,0 5.71289,5.625 0,5.71289 -5.71289,5.71289 z m 8.87696,23.73046 q -5.71289,0 -5.71289,-5.71289 0,-5.71289 5.71289,-5.71289 5.80078,0 5.80078,5.71289 0,5.71289 -5.80078,5.71289 z m -67.06055,0 q -5.71289,0 -5.71289,-5.71289 0,-5.71289 5.71289,-5.71289 5.71289,0 5.71289,5.71289 0,5.71289 -5.71289,5.71289 z m 8.87695,23.64258 q -5.625,0 -5.625,-5.71289 0,-5.625 5.625,-5.625 5.71289,0 5.71289,5.625 0,5.71289 -5.71289,5.71289 z m 49.30664,0 q -5.625,0 -5.625,-5.71289 0,-5.625 5.625,-5.625 5.71289,0 5.71289,5.625 0,5.71289 -5.71289,5.71289 z m -24.69726,9.93164 q -5.625,0 -5.625,-5.71289 0,-5.71289 5.625,-5.71289 5.80078,0 5.80078,5.71289 0,5.71289 -5.80078,5.71289 z m -14.85352,-91.31836 0,0 z m 2.19727,99.31641 0,0 z"
         style="font-style:normal;font-variant:normal;font-weight:normal;font-stretch:normal;font-size:180px;line-height:125%;font-family:'Noto Sans Kannada';-inkscape-font-specification:'Noto Sans Kannada, Normal';text-align:start;writing-mode:lr-tb;text-anchor:start"
         id="path3458" />
      <path
         d="m 885.45452,644.59967 q -7.64649,-4.13086 -15.73242,-4.13086 -7.47071,0 -12.39258,3.33984 -4.92188,3.25196 -7.20703,9.84375 l 4.83398,0 q 16.52344,0 24.16992,6.5918 7.73438,6.5918 7.73438,17.57813 0,10.37109 -6.5918,16.17187 -6.5918,5.80078 -17.8418,5.80078 -13.00781,0 -20.39062,-8.34961 -7.29492,-8.4375 -7.29492,-23.20312 l 0,-0.61524 -29.35547,0 0,-13.97461 30.9375,0 q 3.33984,-12.56836 12.48047,-19.24804 9.14062,-6.67969 22.41211,-6.67969 12.04101,0 21.97265,5.53711 l -7.73437,11.33789 z m -37.26563,23.02734 0,1.31836 q 0,8.78907 3.86719,13.79883 3.86719,4.92188 10.72266,4.92188 10.45898,0 10.45898,-9.4043 0,-3.69141 -1.93359,-6.15234 -1.84571,-2.46094 -5.00977,-3.42774 -3.16406,-1.05469 -9.4043,-1.05469 l -8.70117,0 z"
         style="font-style:normal;font-variant:normal;font-weight:normal;font-stretch:normal;font-size:180px;line-height:125%;font-family:'Noto Sans Kannada';-inkscape-font-specification:'Noto Sans Kannada, Normal';text-align:start;writing-mode:lr-tb;text-anchor:start"
         id="path3460" />
      <path
         d="m 1033.6381,705.59576 q -3.9551,6.94336 -11.6016,10.89844 -7.6464,3.86719 -17.1386,3.86719 -11.86526,0 -18.36916,-5.18555 -6.41602,-5.18555 -6.41602,-15.0293 0,-9.3164 6.76758,-14.41406 6.85547,-5.18554 19.6875,-5.18554 9.0527,0 17.4023,2.7246 -1.3183,-4.92187 -4.7461,-8.78906 -3.3398,-3.95508 -8.8769,-6.85547 l -60.0293,0 0,-13.97461 60.2051,0 q 9.3164,0 14.0625,-0.96679 4.7461,-0.9668 7.0312,-3.69141 2.3731,-2.8125 2.3731,-7.4707 0,-11.51367 -11.6895,-22.93946 l 11.6895,-7.82226 q 7.3828,8.26172 10.9863,15.73242 3.6035,7.4707 3.6035,16.25977 0,8.61328 -5.0976,15.02929 -5.0977,6.32813 -15.1172,8.61328 4.7461,4.04297 7.1191,9.75586 2.3731,5.625 2.3731,12.91993 l 0,1.14257 0,0.9668 q 5.1855,4.74609 7.9101,11.07422 2.8125,6.32812 2.8125,13.53516 0,18.98437 -12.9199,29.17968 -12.832,10.10743 -37.35352,10.10743 -22.93945,0 -35.94727,-10.3711 Q 949.351,734.336 949.351,716.84576 q 0,-5.53711 0.9668,-10.45898 l 14.23828,1.93359 q -0.70313,3.42774 -0.70313,6.94336 0,12.30469 8.70118,18.98438 8.78906,6.59179 26.01562,6.59179 18.28125,0 27.59765,-6.59179 9.4043,-6.67969 9.4043,-18.19336 0,-5.88867 -1.9336,-10.45899 z m -10.2832,-9.84375 q -6.416,-3.07617 -14.8535,-3.07617 -7.1191,0 -10.54688,1.75781 -3.42774,1.75782 -3.42774,5.53711 0,7.29493 11.68942,7.29493 13.1836,0 17.1387,-11.51368 z m -12.9199,-88.33007 0,0 z"
         style="font-style:normal;font-variant:normal;font-weight:normal;font-stretch:normal;font-size:180px;line-height:125%;font-family:'Noto Sans Kannada';-inkscape-font-specification:'Noto Sans Kannada, Normal';text-align:start;writing-mode:lr-tb;text-anchor:start"
         id="path3462" />
      <path
         d="m 1291.1576,657.4317 0,15.29297 q -6.8554,-3.51563 -14.2382,-5.27344 -7.3829,-1.75781 -15.293,-1.75781 -12.041,0 -18.1055,3.69141 -5.9765,3.6914 -5.9765,11.07421 0,5.625 4.3066,8.87696 4.3066,3.16406 17.3145,6.06445 l 5.5371,1.23047 q 17.2265,3.69141 24.4336,10.45898 7.2949,6.67969 7.2949,18.72071 0,13.71093 -10.8985,21.70898 -10.8105,7.99805 -29.7949,7.99805 -7.9101,0 -16.5234,-1.58203 -8.5254,-1.49414 -18.0176,-4.57032 l 0,-16.69921 q 8.9648,4.6582 17.666,7.03125 8.7012,2.28515 17.2266,2.28515 11.4258,0 17.5781,-3.86719 6.1524,-3.95507 6.1524,-11.07421 0,-6.5918 -4.4825,-10.10743 -4.3945,-3.51562 -19.4238,-6.76757 l -5.625,-1.31836 q -15.0293,-3.16407 -21.709,-9.66797 -6.6797,-6.5918 -6.6797,-18.01758 0,-13.88672 9.8438,-21.44531 9.8437,-7.5586 27.9492,-7.5586 8.9648,0 16.875,1.31836 7.9102,1.31836 14.5898,3.95508 z"
         style="font-style:normal;font-variant:normal;font-weight:normal;font-stretch:normal;font-size:180px;line-height:125%;font-family:'Noto Sans Kannada';-inkscape-font-specification:'Noto Sans Kannada, Normal';text-align:start;writing-mode:lr-tb;text-anchor:start"
         id="path3464" />
      <path
         d="m 1338.267,626.58209 0,27.94922 33.3106,0 0,12.56836 -33.3106,0 0,53.4375 q 0,12.04102 3.252,15.46875 3.3398,3.42773 13.4472,3.42773 l 16.6114,0 0,13.53516 -16.6114,0 q -18.7207,0 -25.8398,-6.94336 -7.1191,-7.03125 -7.1191,-25.48828 l 0,-53.4375 -11.8653,0 0,-12.56836 11.8653,0 0,-27.94922 16.2597,0 z"
         style="font-style:normal;font-variant:normal;font-weight:normal;font-stretch:normal;font-size:180px;line-height:125%;font-family:'Noto Sans Kannada';-inkscape-font-specification:'Noto Sans Kannada, Normal';text-align:start;writing-mode:lr-tb;text-anchor:start"
         id="path3466" />
      <path
         d="m 1437.6713,703.48639 q -19.5996,0 -27.1582,4.48242 -7.5586,4.48242 -7.5586,15.29297 0,8.61328 5.625,13.71094 5.7129,5.00976 15.4688,5.00976 13.4472,0 21.5332,-9.49219 8.1738,-9.58007 8.1738,-25.40039 l 0,-3.60351 -16.084,0 z m 32.2559,-6.67969 0,56.16211 -16.1719,0 0,-14.94141 q -5.5371,8.96485 -13.7988,13.27149 -8.2617,4.21875 -20.2149,4.21875 -15.1172,0 -24.082,-8.4375 -8.877,-8.52539 -8.877,-22.76367 0,-16.61133 11.0743,-25.04883 11.1621,-8.4375 33.2226,-8.4375 l 22.6758,0 0,-1.58203 q 0,-11.16211 -7.3828,-17.22657 -7.2949,-6.15234 -20.5664,-6.15234 -8.4375,0 -16.4356,2.02149 -7.998,2.02148 -15.3808,6.06445 l 0,-14.94141 q 8.8769,-3.42773 17.2265,-5.09765 8.3496,-1.75782 16.2598,-1.75782 21.3574,0 31.9043,11.07422 10.5469,11.07422 10.5469,33.57422 z"
         style="font-style:normal;font-variant:normal;font-weight:normal;font-stretch:normal;font-size:180px;line-height:125%;font-family:'Noto Sans Kannada';-inkscape-font-specification:'Noto Sans Kannada, Normal';text-align:start;writing-mode:lr-tb;text-anchor:start"
         id="path3468" />
      <path
         d="m 67.017017,956.51459 q 15.644531,7.38281 22.148437,15.46875 6.503907,7.99804 6.503907,18.36914 0,15.64452 -11.425782,24.96092 -11.33789,9.2285 -30.673828,9.2285 -20.654297,0 -31.904297,-8.789 -11.162109,-8.7891 -11.162109,-24.87308 0,-10.72266 6.591797,-19.07227 6.679687,-8.4375 20.039062,-14.41406 -11.953125,-6.67969 -17.226562,-14.32617 -5.273438,-7.73437 -5.273438,-17.31445 0,-13.62305 10.546875,-21.6211 10.546875,-8.08593 27.861329,-8.08593 17.753906,0 28.125,7.99804 10.371093,7.99805 10.371093,21.88477 0,9.3164 -5.800781,16.78711 -5.800781,7.38281 -18.720703,13.79883 z m -13.271484,-6.15235 q 11.777343,-4.6582 16.96289,-10.2832 5.185547,-5.71289 5.185547,-13.44727 0,-8.26172 -6.152344,-13.00781 -6.152343,-4.74609 -16.875,-4.74609 -10.458984,0 -16.611328,4.83398 -6.064453,4.7461 -6.064453,12.91992 0,7.64649 5.097656,13.09571 5.185547,5.44922 18.457032,10.63476 z m -3.427735,13.53516 q -12.65625,5.27344 -18.544922,11.77734 -5.800781,6.41602 -5.800781,15.29297 0,9.75589 7.119141,15.38089 7.11914,5.625 20.126953,5.625 12.568359,0 19.77539,-5.8008 7.207032,-5.8887 7.207032,-15.73243 0,-7.82227 -6.328125,-13.88672 -6.240235,-6.15235 -20.654297,-11.60156 l -2.900391,-1.05469 z"
         style="font-style:normal;font-variant:normal;font-weight:normal;font-stretch:normal;font-size:180px;line-height:125%;font-family:'Noto Sans Kannada';-inkscape-font-specification:'Noto Sans Kannada, Normal';text-align:start;writing-mode:lr-tb;text-anchor:start"
         id="path3470" />
      <path
         d="m 128.62835,1000.1962 q 5.36132,0 8.3496,3.0762 2.98829,3.0762 2.98829,8.9648 0,5.9766 -3.07618,9.1407 -3.07617,3.164 -8.26171,3.164 -5.09766,0 -8.08594,-3.164 -2.90039,-3.1641 -2.90039,-9.1407 0,-5.8007 2.8125,-8.8769 2.90039,-3.1641 8.17383,-3.1641 z"
         style="font-style:normal;font-variant:normal;font-weight:normal;font-stretch:normal;font-size:180px;line-height:125%;font-family:'Noto Sans Kannada';-inkscape-font-specification:'Noto Sans Kannada, Normal';text-align:start;writing-mode:lr-tb;text-anchor:start"
         id="path3472" />
      <path
         d="m 210.45452,937.09076 0,-13.97461 76.99218,0 q 9.31641,0 14.0625,-0.9668 4.7461,-0.9668 7.03125,-3.6914 2.37305,-2.8125 2.37305,-7.47071 0,-11.51367 -11.68945,-22.93945 l 11.68945,-7.82227 q 7.38281,8.26172 10.98633,15.73243 3.60352,7.4707 3.60352,16.25976 0,6.5918 -3.25196,12.30469 -3.16406,5.625 -10.19531,9.14062 -7.03125,3.42774 -21.35742,3.42774 l -80.24414,0 z m 23.55468,82.26564 -13.9746,5.5371 q -4.48243,-5.9766 -7.03125,-13.5352 -2.54883,-7.6464 -2.54883,-15.11715 0,-12.30469 7.82226,-20.47852 7.82227,-8.26172 19.16016,-8.26172 7.20703,0 12.30469,2.10938 5.09765,2.10937 9.05273,6.32812 4.04297,4.21875 8.96484,12.83204 5.44922,9.49218 8.78907,13.53515 3.33984,3.9551 7.20703,5.9766 3.95508,2.0214 9.4043,2.0214 8.3496,0 12.91992,-6.0644 4.6582,-6.15235 4.6582,-16.78711 0,-9.4043 -3.7793,-17.75391 -3.6914,-8.4375 -11.25,-16.96289 l 12.12891,-8.52539 q 17.66602,18.89648 17.66602,41.74805 0,18.28125 -8.87696,28.47655 -8.78906,10.1074 -24.69726,10.1074 -7.82227,0 -13.79883,-2.6367 -5.88867,-2.7246 -10.3711,-7.6465 -4.48242,-5.0097 -9.93164,-14.32615 -4.57031,-7.73437 -7.64648,-11.60156 -2.98828,-3.86719 -5.88867,-5.44922 -2.8125,-1.58203 -6.67969,-1.58203 -5.88867,0 -9.31641,3.86719 -3.33984,3.86719 -3.33984,10.63477 0,11.0742 9.05273,23.5547 z m 32.34375,-74.79494 q 4.39454,0 7.38282,3.16406 2.98828,3.07618 2.98828,7.47071 0,4.30664 -2.98828,7.4707 -2.98828,3.07617 -7.38282,3.07617 -4.39453,0 -7.4707,-3.07617 -2.98828,-3.07617 -2.98828,-7.4707 0,-4.39453 2.98828,-7.47071 3.07617,-3.16406 7.4707,-3.16406 z m -5.625,-67.67578 0,0 z m -11.86523,145.54692 0,0 z"
         style="font-style:normal;font-variant:normal;font-weight:normal;font-stretch:normal;font-size:180px;line-height:125%;font-family:'Noto Sans Kannada';-inkscape-font-specification:'Noto Sans Kannada, Normal';text-align:start;writing-mode:lr-tb;text-anchor:start"
         id="path3474" />
      <path
         d="m 412.69085,965.21576 q -6.41602,-3.07617 -14.85352,-3.07617 -7.11914,0 -10.54688,1.75781 -3.42773,1.75781 -3.42773,5.53711 0,7.29492 11.68945,7.29492 13.1836,0 17.13868,-11.51367 z m 6.41601,-28.125 q 4.04297,3.95508 6.06445,9.3164 2.02149,5.36133 2.02149,12.12891 l 0,1.14258 0,0.9668 q 5.18555,4.74609 7.91015,11.07421 2.8125,6.32813 2.8125,13.53516 0,18.98438 -12.91992,29.17968 -12.83203,10.1074 -37.35351,10.1074 -22.93946,0 -35.94727,-10.3711 -13.00781,-10.3711 -13.00781,-27.86129 0,-5.53711 0.9668,-10.45899 l 14.23828,1.9336 q -0.70313,3.42773 -0.70313,6.94336 0,12.30468 8.70117,18.98442 8.78907,6.5917 26.01563,6.5917 18.28125,0 27.59766,-6.5917 9.40429,-6.67974 9.40429,-18.19341 0,-5.88867 -1.93359,-10.45898 -3.95508,6.94336 -11.60156,10.89844 -7.64649,3.86718 -17.13868,3.86718 -11.86523,0 -18.36914,-5.18554 -6.41601,-5.18555 -6.41601,-15.0293 0,-9.31641 6.76758,-14.41406 6.85546,-5.18555 19.6875,-5.18555 9.05273,0 17.40234,2.72461 -1.31836,-4.92188 -4.74609,-8.78906 -3.33985,-3.95508 -8.87696,-6.85547 l -60.02929,0 0,-13.97461 106.34765,0 q 3.25196,-12.56836 12.39258,-19.24805 9.22852,-6.67969 22.5,-6.67969 12.04102,0 21.97266,5.53711 l -7.73438,11.33789 q -7.64648,-4.13086 -15.73242,-4.13086 -7.38281,0 -12.30469,3.33985 -4.92187,3.25195 -7.29492,9.84375 l 4.83398,0 q 16.52344,0 24.16993,6.5918 7.73437,6.59179 7.73437,17.57812 0,10.37109 -6.5918,16.17188 -6.59179,5.80078 -17.84179,5.80078 -13.00781,0 -20.39063,-8.34961 -7.29492,-8.4375 -7.29492,-23.20313 l 0,-0.61523 -25.3125,0 z m 38.75977,0 0,1.31836 q 0,8.78906 3.86718,13.79883 3.86719,4.92187 10.72266,4.92187 10.45898,0 10.45898,-9.4043 0,-3.6914 -1.93359,-6.15234 -1.8457,-2.46094 -5.00976,-3.42773 -3.16407,-1.05469 -9.4043,-1.05469 l -8.70117,0 z"
         style="font-style:normal;font-variant:normal;font-weight:normal;font-stretch:normal;font-size:180px;line-height:125%;font-family:'Noto Sans Kannada';-inkscape-font-specification:'Noto Sans Kannada, Normal';text-align:start;writing-mode:lr-tb;text-anchor:start"
         id="path3476" />
      <path
         d="m 563.0717,949.30755 0,-12.74414 82.44141,0 0,12.74414 -82.44141,0 z m 0,35.85938 0,-12.83203 82.44141,0 0,12.83203 -82.44141,0 z m 41.48438,-62.05078 0,0 z m 0.61523,99.31645 0,0 z m -0.17578,-68.11528 0,0 z"
         style="font-style:normal;font-variant:normal;font-weight:normal;font-stretch:normal;font-size:180px;line-height:125%;font-family:'Noto Sans Kannada';-inkscape-font-specification:'Noto Sans Kannada, Normal';text-align:start;writing-mode:lr-tb;text-anchor:start"
         id="path3478" />
      <path
         d="m 713.54045,937.09076 0,-13.97461 76.99219,0 q 9.31641,0 14.0625,-0.9668 4.7461,-0.9668 7.03125,-3.6914 2.37305,-2.8125 2.37305,-7.47071 0,-11.51367 -11.68945,-22.93945 l 11.68945,-7.82227 q 7.38281,8.26172 10.98633,15.73243 3.60351,7.4707 3.60351,16.25976 0,6.5918 -3.25195,12.30469 -3.16406,5.625 -10.19531,9.14062 -7.03125,3.42774 -21.35742,3.42774 l -80.24415,0 z m 23.55469,82.26564 -13.97461,5.5371 q -4.48242,-5.9766 -7.03125,-13.5352 -2.54883,-7.6464 -2.54883,-15.11715 0,-12.30469 7.82227,-20.47852 7.82227,-8.26172 19.16016,-8.26172 7.20703,0 12.30468,2.10938 5.09766,2.10937 9.05274,6.32812 4.04297,4.21875 8.96484,12.83204 5.44922,9.49218 8.78906,13.53515 3.33985,3.9551 7.20704,5.9766 3.95507,2.0214 9.40429,2.0214 8.34961,0 12.91992,-6.0644 4.65821,-6.15235 4.65821,-16.78711 0,-9.4043 -3.7793,-17.75391 -3.69141,-8.4375 -11.25,-16.96289 l 12.12891,-8.52539 q 17.66601,18.89648 17.66601,41.74805 0,18.28125 -8.87695,28.47655 -8.78906,10.1074 -24.69727,10.1074 -7.82226,0 -13.79882,-2.6367 -5.88868,-2.7246 -10.3711,-7.6465 -4.48242,-5.0097 -9.93164,-14.32615 -4.57031,-7.73437 -7.64648,-11.60156 -2.98828,-3.86719 -5.88867,-5.44922 -2.8125,-1.58203 -6.67969,-1.58203 -5.88867,0 -9.31641,3.86719 -3.33984,3.86719 -3.33984,10.63477 0,11.0742 9.05273,23.5547 z m 32.34375,-74.79494 q 4.39453,0 7.38281,3.16406 2.98829,3.07618 2.98829,7.47071 0,4.30664 -2.98829,7.4707 -2.98828,3.07617 -7.38281,3.07617 -4.39453,0 -7.4707,-3.07617 -2.98828,-3.07617 -2.98828,-7.4707 0,-4.39453 2.98828,-7.47071 3.07617,-3.16406 7.4707,-3.16406 z m -5.625,-67.67578 0,0 z m -11.86523,145.54692 0,0 z"
         style="font-style:normal;font-variant:normal;font-weight:normal;font-stretch:normal;font-size:180px;line-height:125%;font-family:'Noto Sans Kannada';-inkscape-font-specification:'Noto Sans Kannada, Normal';text-align:start;writing-mode:lr-tb;text-anchor:start"
         id="path3480" />
      <path
         d="m 926.05999,975.05951 q -3.95508,6.94336 -11.60157,10.89844 -7.64648,3.86718 -17.13867,3.86718 -11.86523,0 -18.36914,-5.18554 -6.41601,-5.18555 -6.41601,-15.0293 0,-9.31641 6.76757,-14.41406 6.85547,-5.18555 19.6875,-5.18555 9.05274,0 17.40235,2.72461 -1.31836,-4.92188 -4.7461,-8.78906 -3.33984,-3.95508 -8.87695,-6.85547 l -60.0293,0 0,-13.97461 60.20508,0 q 9.31641,0 14.0625,-0.9668 4.7461,-0.9668 7.03125,-3.6914 2.37305,-2.8125 2.37305,-7.47071 0,-11.51367 -11.68945,-22.93945 l 11.68945,-7.82227 q 7.38281,8.26172 10.98633,15.73243 3.60351,7.4707 3.60351,16.25976 0,8.61328 -5.09765,15.0293 -5.09766,6.32812 -15.11719,8.61328 4.74609,4.04297 7.11914,9.75586 2.37305,5.625 2.37305,12.91992 l 0,1.14258 0,0.9668 q 5.18554,4.74609 7.91015,11.07421 2.8125,6.32813 2.8125,13.53516 0,18.98438 -12.91992,29.17968 -12.83203,10.1074 -37.35352,10.1074 -22.93945,0 -35.94726,-10.3711 -13.00781,-10.3711 -13.00781,-27.86129 0,-5.53711 0.96679,-10.45899 l 14.23828,1.9336 q -0.70312,3.42773 -0.70312,6.94336 0,12.30468 8.70117,18.98442 8.78906,6.5917 26.01563,6.5917 18.28125,0 27.59765,-6.5917 9.4043,-6.67974 9.4043,-18.19341 0,-5.88867 -1.93359,-10.45898 z m -10.28321,-9.84375 q -6.41601,-3.07617 -14.85351,-3.07617 -7.11914,0 -10.54688,1.75781 -3.42773,1.75781 -3.42773,5.53711 0,7.29492 11.68945,7.29492 13.18359,0 17.13867,-11.51367 z m -12.91992,-88.33008 0,0 z"
         style="font-style:normal;font-variant:normal;font-weight:normal;font-stretch:normal;font-size:180px;line-height:125%;font-family:'Noto Sans Kannada';-inkscape-font-specification:'Noto Sans Kannada, Normal';text-align:start;writing-mode:lr-tb;text-anchor:start"
         id="path3482" />
      <path
         d="m 1051.7436,947.28607 q -5.625,0 -5.625,-5.71289 0,-5.625 5.625,-5.625 5.8008,0 5.8008,5.625 0,5.71289 -5.8008,5.71289 z m -24.6094,9.84375 q -5.625,0 -5.625,-5.71289 0,-5.625 5.625,-5.625 5.7129,0 5.7129,5.625 0,5.71289 -5.7129,5.71289 z m 49.3066,0 q -5.625,0 -5.625,-5.71289 0,-5.625 5.625,-5.625 5.7129,0 5.7129,5.625 0,5.71289 -5.7129,5.71289 z m 8.877,23.73047 q -5.7129,0 -5.7129,-5.71289 0,-5.71289 5.7129,-5.71289 5.8008,0 5.8008,5.71289 0,5.71289 -5.8008,5.71289 z m -67.0605,0 q -5.7129,0 -5.7129,-5.71289 0,-5.71289 5.7129,-5.71289 5.7128,0 5.7128,5.71289 0,5.71289 -5.7128,5.71289 z m 8.8769,23.64261 q -5.625,0 -5.625,-5.71292 0,-5.625 5.625,-5.625 5.7129,0 5.7129,5.625 0,5.71292 -5.7129,5.71292 z m 49.3066,0 q -5.625,0 -5.625,-5.71292 0,-5.625 5.625,-5.625 5.7129,0 5.7129,5.625 0,5.71292 -5.7129,5.71292 z m -24.6972,9.9316 q -5.625,0 -5.625,-5.7129 0,-5.7129 5.625,-5.7129 5.8008,0 5.8008,5.7129 0,5.7129 -5.8008,5.7129 z m -14.8535,-91.31835 0,0 z m 2.1972,99.31645 0,0 z"
         style="font-style:normal;font-variant:normal;font-weight:normal;font-stretch:normal;font-size:180px;line-height:125%;font-family:'Noto Sans Kannada';-inkscape-font-specification:'Noto Sans Kannada, Normal';text-align:start;writing-mode:lr-tb;text-anchor:start"
         id="path3484" />
      <path
         d="m 1154.3998,914.06341 q -7.6465,-4.13086 -15.7324,-4.13086 -7.4707,0 -12.3926,3.33985 -4.9218,3.25195 -7.207,9.84375 l 4.834,0 q 16.5234,0 24.1699,6.5918 7.7344,6.59179 7.7344,17.57812 0,10.37109 -6.5918,16.17188 -6.5918,5.80078 -17.8418,5.80078 -13.0078,0 -20.3906,-8.34961 -7.295,-8.4375 -7.295,-23.20313 l 0,-0.61523 -29.3554,0 0,-13.97461 30.9375,0 q 3.3398,-12.56836 12.4804,-19.24805 9.1407,-6.67969 22.4121,-6.67969 12.0411,0 21.9727,5.53711 l -7.7344,11.33789 z m -37.2656,23.02735 0,1.31836 q 0,8.78906 3.8672,13.79883 3.8672,4.92187 10.7226,4.92187 10.459,0 10.459,-9.4043 0,-3.6914 -1.9336,-6.15234 -1.8457,-2.46094 -5.0097,-3.42773 -3.1641,-1.05469 -9.4043,-1.05469 l -8.7012,0 z"
         style="font-style:normal;font-variant:normal;font-weight:normal;font-stretch:normal;font-size:180px;line-height:125%;font-family:'Noto Sans Kannada';-inkscape-font-specification:'Noto Sans Kannada, Normal';text-align:start;writing-mode:lr-tb;text-anchor:start"
         id="path3486" />
      <path
         d="m 1291.8608,926.89545 0,15.29296 q -6.8555,-3.51562 -14.2383,-5.27343 -7.3828,-1.75782 -15.293,-1.75782 -12.041,0 -18.1055,3.69141 -5.9765,3.69141 -5.9765,11.07422 0,5.625 4.3066,8.87695 4.3067,3.16406 17.3145,6.06446 l 5.5371,1.23046 q 17.2266,3.69141 24.4336,10.45899 7.2949,6.67969 7.2949,18.7207 0,13.71095 -10.8984,21.70895 -10.8106,7.9981 -29.795,7.9981 -7.9101,0 -16.5234,-1.582 -8.5254,-1.4942 -18.0176,-4.5704 l 0,-16.6992 q 8.9649,4.6582 17.666,7.0313 8.7012,2.2851 17.2266,2.2851 11.4258,0 17.5781,-3.8672 6.1524,-3.955 6.1524,-11.07418 0,-6.5918 -4.4824,-10.10742 -4.3946,-3.51563 -19.4239,-6.76758 l -5.625,-1.31836 q -15.0293,-3.16406 -21.709,-9.66797 -6.6796,-6.59179 -6.6796,-18.01758 0,-13.88671 9.8437,-21.44531 9.8438,-7.55859 27.9492,-7.55859 8.9649,0 16.875,1.31836 7.9102,1.31836 14.5899,3.95508 z"
         style="font-style:normal;font-variant:normal;font-weight:normal;font-stretch:normal;font-size:180px;line-height:125%;font-family:'Noto Sans Kannada';-inkscape-font-specification:'Noto Sans Kannada, Normal';text-align:start;writing-mode:lr-tb;text-anchor:start"
         id="path3488" />
      <path
         d="m 1367.7104,972.95013 q -19.5996,0 -27.1582,4.48242 -7.5586,4.48243 -7.5586,15.29297 0,8.61328 5.625,13.71098 5.7129,5.0097 15.4687,5.0097 13.4473,0 21.5332,-9.4922 8.1739,-9.58004 8.1739,-25.40035 l 0,-3.60352 -16.084,0 z m 32.2558,-6.67968 0,56.16215 -16.1718,0 0,-14.9415 q -5.5371,8.9649 -13.7989,13.2715 -8.2617,4.2188 -20.2148,4.2188 -15.1172,0 -24.082,-8.4375 -8.877,-8.5254 -8.877,-22.76369 0,-16.61133 11.0742,-25.04883 11.1621,-8.4375 33.2227,-8.4375 l 22.6758,0 0,-1.58203 q 0,-11.16211 -7.3829,-17.22656 -7.2949,-6.15234 -20.5664,-6.15234 -8.4375,0 -16.4355,2.02148 -7.9981,2.02148 -15.3809,6.06445 l 0,-14.9414 q 8.877,-3.42774 17.2266,-5.09766 8.3496,-1.75781 16.2598,-1.75781 21.3574,0 31.9043,11.07422 10.5468,11.07422 10.5468,33.57422 z"
         style="font-style:normal;font-variant:normal;font-weight:normal;font-stretch:normal;font-size:180px;line-height:125%;font-family:'Noto Sans Kannada';-inkscape-font-specification:'Noto Sans Kannada, Normal';text-align:start;writing-mode:lr-tb;text-anchor:start"
         id="path3490" />
      <path
         d="m 1449.3608,896.04584 0,27.94921 33.3105,0 0,12.56836 -33.3105,0 0,53.4375 q 0,12.04099 3.2519,15.46879 3.3399,3.4277 13.4473,3.4277 l 16.6113,0 0,13.5352 -16.6113,0 q -18.7207,0 -25.8399,-6.9434 -7.1191,-7.0313 -7.1191,-25.48829 l 0,-53.4375 -11.8652,0 0,-12.56836 11.8652,0 0,-27.94921 16.2598,0 z"
         style="font-style:normal;font-variant:normal;font-weight:normal;font-stretch:normal;font-size:180px;line-height:125%;font-family:'Noto Sans Kannada';-inkscape-font-specification:'Noto Sans Kannada, Normal';text-align:start;writing-mode:lr-tb;text-anchor:start"
         id="path3492" />
    </g>
  </g>
</svg>
