<?xml version="1.0" encoding="UTF-8" standalone="no"?>
<!-- Created with Inkscape (http://www.inkscape.org/) -->

<svg
   xmlns:dc="http://purl.org/dc/elements/1.1/"
   xmlns:cc="http://creativecommons.org/ns#"
   xmlns:rdf="http://www.w3.org/1999/02/22-rdf-syntax-ns#"
   xmlns:svg="http://www.w3.org/2000/svg"
   xmlns="http://www.w3.org/2000/svg"
   xmlns:sodipodi="http://sodipodi.sourceforge.net/DTD/sodipodi-0.dtd"
   xmlns:inkscape="http://www.inkscape.org/namespaces/inkscape"
   width="420mm"
   height="210mm"
   viewBox="0 0 1488.189 744.09449"
   id="svg3563"
   version="1.1"
   inkscape:version="0.91 r13725"
   sodipodi:docname="halant devanagari.svg">
  <defs
     id="defs3565" />
  <sodipodi:namedview
     id="base"
     pagecolor="#ffffff"
     bordercolor="#666666"
     borderopacity="1.0"
     inkscape:pageopacity="0.0"
     inkscape:pageshadow="2"
     inkscape:zoom="0.49497475"
     inkscape:cx="586.81569"
     inkscape:cy="369.65832"
     inkscape:document-units="px"
     inkscape:current-layer="text3624"
     showgrid="false"
     inkscape:window-width="1920"
     inkscape:window-height="1027"
     inkscape:window-x="-8"
     inkscape:window-y="-8"
     inkscape:window-maximized="1" />
  <metadata
     id="metadata3568">
    <rdf:RDF>
      <cc:Work
         rdf:about="">
        <dc:format>image/svg+xml</dc:format>
        <dc:type
           rdf:resource="http://purl.org/dc/dcmitype/StillImage" />
        <dc:title />
      </cc:Work>
    </rdf:RDF>
  </metadata>
  <g
     inkscape:label="Layer 1"
     inkscape:groupmode="layer"
     id="layer1"
     transform="translate(0,-308.26771)">
    <g
       style="font-style:normal;font-weight:normal;font-size:180px;line-height:125%;font-family:sans-serif;letter-spacing:0px;word-spacing:0px;fill:#000000;fill-opacity:1;stroke:none;stroke-width:1px;stroke-linecap:butt;stroke-linejoin:miter;stroke-opacity:1"
       id="text3624">
      <path
         d="m 9.9316421,443.14484 q 0,-9.22852 0.8789059,-18.36914 0.966797,-9.14063 3.251953,-17.49024 2.373047,-8.4375 6.416016,-15.64453 4.042968,-7.20703 10.283203,-12.48047 6.240234,-5.36133 14.941406,-8.34961 8.701172,-3.07617 20.390625,-3.07617 1.669922,0 3.691406,0.0879 2.021485,0.0879 4.042969,0.35156 2.109375,0.17578 3.955078,0.52735 1.933594,0.26367 3.427734,0.70312 l 0,13.62305 q -3.076171,-1.05469 -6.943359,-1.58203 -3.867187,-0.52735 -7.646484,-0.52735 -7.910157,0 -13.97461,1.9336 -5.976562,1.8457 -10.371093,5.27344 -4.394532,3.42773 -7.382813,8.17382 -2.900391,4.7461 -4.746094,10.54688 -1.845703,5.71289 -2.724609,12.2168 -0.878906,6.5039 -1.142578,13.53515 l 1.054687,0 q 1.757813,-3.16406 4.21875,-5.88867 2.548828,-2.8125 5.888672,-4.74609 3.339844,-2.02149 7.470703,-3.16407 4.21875,-1.14257 9.404297,-1.14257 8.34961,0 15.117188,2.63671 6.767578,2.54883 11.513672,7.5586 4.746093,5.00976 7.294921,12.30469 2.636719,7.20703 2.636719,16.52343 0,10.01953 -2.724609,18.01758 -2.72461,7.99805 -7.822266,13.62305 -5.097656,5.53711 -12.304687,8.52539 -7.207032,2.98828 -16.171875,2.98828 -8.789063,0 -16.523438,-3.42773 -7.646484,-3.42774 -13.271484,-10.45899 -5.625,-7.03125 -8.876953,-17.66601 Q 9.9316421,457.6468 9.9316421,443.14485 Z m 41.7480459,43.24218 q 5.273438,0 9.580079,-1.75781 4.394531,-1.8457 7.558593,-5.44922 3.164063,-3.6914 4.833985,-9.22851 1.757812,-5.625 1.757812,-13.27149 0,-6.15234 -1.49414,-10.98633 -1.40625,-4.92187 -4.306641,-8.3496 -2.900391,-3.42774 -7.294922,-5.27344 -4.306641,-1.84571 -10.107422,-1.84571 -5.888672,0 -10.810547,2.10938 -4.833984,2.02148 -8.261718,5.36133 -3.427735,3.25195 -5.361329,7.4707 -1.845703,4.21875 -1.845703,8.4375 0,5.88867 1.582032,11.77734 1.669921,5.80079 4.833984,10.45899 3.251953,4.6582 8.085937,7.64648 4.833985,2.90039 11.25,2.90039 z"
         style="font-style:normal;font-variant:normal;font-weight:normal;font-stretch:normal;font-size:180px;line-height:125%;font-family:'Noto Sans Devanagari';-inkscape-font-specification:'Noto Sans Devanagari, Normal';text-align:start;writing-mode:lr-tb;text-anchor:start"
         id="path3635"
         inkscape:connector-curvature="0" />
      <path
         d="m 112.06055,488.32062 q 0,-3.33985 0.87891,-5.625 0.8789,-2.37305 2.37304,-3.7793 1.49414,-1.49414 3.51563,-2.10937 2.02148,-0.70313 4.39453,-0.70313 2.28516,0 4.30664,0.70313 2.10938,0.61523 3.60352,2.10937 1.49414,1.40625 2.37304,3.7793 0.87891,2.28515 0.87891,5.625 0,3.25195 -0.87891,5.625 -0.8789,2.28515 -2.37304,3.77929 -1.49414,1.49415 -3.60352,2.19727 -2.02148,0.70313 -4.30664,0.70313 -2.37305,0 -4.39453,-0.70313 -2.02149,-0.70312 -3.51563,-2.19727 -1.49414,-1.49414 -2.37304,-3.77929 -0.87891,-2.37305 -0.87891,-5.625 z"
         style="font-style:normal;font-variant:normal;font-weight:normal;font-stretch:normal;font-size:180px;line-height:125%;font-family:'Noto Sans Devanagari';-inkscape-font-specification:'Noto Sans Devanagari, Normal';text-align:start;writing-mode:lr-tb;text-anchor:start"
         id="path3637"
         inkscape:connector-curvature="0" />
      <path
         d="m 317.54883,398.93585 -18.7207,0 0,99.14063 -14.50195,0 0,-46.66992 -21.70899,0 q -19.42383,0 -29.44336,-3.86719 -3.95508,2.90039 -8.96484,5.00976 7.38281,9.49219 17.31445,19.33594 9.93164,9.84375 20.91797,18.7207 l -9.66797,9.66797 q -10.01953,-8.70117 -19.77539,-18.54492 -9.75586,-9.93164 -17.22656,-18.80859 -7.4707,-8.87696 -10.98633,-14.67774 -2.10937,-3.60351 -2.90039,-6.06445 -0.70313,-2.46094 -0.70313,-5.27344 0,-2.37304 1.14258,-4.48242 1.23047,-2.19727 3.7793,-3.60352 2.63672,-1.40625 6.5918,-1.40625 4.48242,0 7.82226,2.10938 3.42774,2.02148 6.15235,5.71289 3.16406,-2.8125 4.83398,-7.82227 1.66992,-5.00976 1.66992,-11.77734 0,-5.36133 -0.8789,-9.66797 -0.87891,-4.39453 -2.10938,-7.03125 l -36.12305,0 0,-12.83203 123.48633,0 0,12.83203 z m -76.20117,39.02344 q 4.92188,0.61523 15.29297,0.61523 l 27.68555,0 0,-39.63867 -39.63868,0 q 2.98829,6.94336 2.98829,16.78711 0,14.15039 -6.32813,22.23633 z"
         style="font-style:normal;font-variant:normal;font-weight:normal;font-stretch:normal;font-size:180px;line-height:125%;font-family:'Noto Sans Devanagari';-inkscape-font-specification:'Noto Sans Devanagari, Normal';text-align:start;writing-mode:lr-tb;text-anchor:start"
         id="path3639"
         inkscape:connector-curvature="0" />
      <path
         d="m 386.98243,439.01398 -19.59961,0 q -11.33789,0 -17.05078,1.23047 -5.625,1.14257 -9.14063,4.74609 -3.51562,3.60352 -3.51562,10.37109 0,5.71289 2.7246,11.07422 2.8125,5.36133 8.34961,11.16211 5.53711,5.71289 14.94141,13.27149 l -9.66797,9.40429 q -12.56836,-10.81054 -18.45703,-17.57812 -5.80078,-6.85547 -9.14062,-13.79883 -3.25196,-6.94336 -3.25196,-14.41406 0,-5.88867 2.37305,-11.25 2.46094,-5.44922 7.64648,-9.49219 5.18555,-4.04297 12.48047,-5.80078 7.38281,-1.75781 18.36914,-1.75781 l 22.93946,0 0,-27.2461 -71.98243,0 0,-12.83203 105.20508,0 0,12.83203 -18.7207,0 0,99.14063 -14.50195,0 0,-59.0625 z"
         style="font-style:normal;font-variant:normal;font-weight:normal;font-stretch:normal;font-size:180px;line-height:125%;font-family:'Noto Sans Devanagari';-inkscape-font-specification:'Noto Sans Devanagari, Normal';text-align:start;writing-mode:lr-tb;text-anchor:start"
         id="path3641"
         inkscape:connector-curvature="0" />
      <path
         d="m 473.37891,428.55499 0,-13.0957 81.21094,0 0,13.0957 -81.21094,0 z m 0,36.03516 0,-13.18359 81.21094,0 0,13.18359 -81.21094,0 z m 30.84961,-78.48633 0,0 z"
         style="font-style:normal;font-variant:normal;font-weight:normal;font-stretch:normal;font-size:180px;line-height:125%;font-family:'Noto Sans Devanagari';-inkscape-font-specification:'Noto Sans Devanagari, Normal';text-align:start;writing-mode:lr-tb;text-anchor:start"
         id="path3643"
         inkscape:connector-curvature="0" />
      <path
         d="m 733.79883,398.93585 -18.7207,0 0,99.14063 -14.50195,0 0,-46.66992 -21.70899,0 q -19.42383,0 -29.44336,-3.86719 -3.95508,2.90039 -8.96484,5.00976 7.38281,9.49219 17.31445,19.33594 9.93164,9.84375 20.91797,18.7207 l -9.66797,9.66797 q -10.01953,-8.70117 -19.77539,-18.54492 -9.75586,-9.93164 -17.22656,-18.80859 -7.4707,-8.87696 -10.98633,-14.67774 -2.10937,-3.60351 -2.90039,-6.06445 -0.70313,-2.46094 -0.70313,-5.27344 0,-2.37304 1.14258,-4.48242 1.23047,-2.19727 3.7793,-3.60352 2.63672,-1.40625 6.5918,-1.40625 4.48242,0 7.82226,2.10938 3.42774,2.02148 6.15235,5.71289 3.16406,-2.8125 4.83398,-7.82227 1.66992,-5.00976 1.66992,-11.77734 0,-5.36133 -0.8789,-9.66797 -0.87891,-4.39453 -2.10938,-7.03125 l -36.12305,0 0,-12.83203 123.48633,0 0,12.83203 z m -76.20117,39.02344 q 4.92188,0.61523 15.29297,0.61523 l 27.68555,0 0,-39.63867 -39.63868,0 q 2.98829,6.94336 2.98829,16.78711 0,14.15039 -6.32813,22.23633 z"
         style="font-style:normal;font-variant:normal;font-weight:normal;font-stretch:normal;font-size:180px;line-height:125%;font-family:'Noto Sans Devanagari';-inkscape-font-specification:'Noto Sans Devanagari, Normal';text-align:start;writing-mode:lr-tb;text-anchor:start"
         id="path3645"
         inkscape:connector-curvature="0" />
      <path
         d="m 849.99024,439.01398 -19.59961,0 q -11.33789,0 -17.05078,1.23047 -5.625,1.14257 -9.14063,4.74609 -3.51562,3.60352 -3.51562,10.37109 0,5.71289 2.72461,11.07422 2.8125,5.36133 8.34961,11.16211 5.53711,5.71289 14.9414,13.27149 l -9.66797,9.40429 q -12.56836,-10.81054 -18.45703,-17.57812 -5.80078,-6.85547 -9.14062,-13.79883 -3.25196,-6.94336 -3.25196,-14.41406 0,-5.88867 2.37305,-11.25 2.46094,-5.44922 7.64649,-9.49219 5.18554,-4.04297 12.48046,-5.80078 7.38282,-1.75781 18.36915,-1.75781 l 22.93945,0 0,-27.2461 -71.98242,0 0,-12.83203 105.20507,0 0,12.83203 -18.7207,0 0,99.14063 -14.50195,0 0,-59.0625 z"
         style="font-style:normal;font-variant:normal;font-weight:normal;font-stretch:normal;font-size:180px;line-height:125%;font-family:'Noto Sans Devanagari';-inkscape-font-specification:'Noto Sans Devanagari, Normal';text-align:start;writing-mode:lr-tb;text-anchor:start"
         id="path3647"
         inkscape:connector-curvature="0" />
      <path
         d="m 1185.1802,402.53937 0,15.29297 q -6.8555,-3.51563 -14.2383,-5.27344 -7.3828,-1.75781 -15.293,-1.75781 -12.041,0 -18.1055,3.6914 -5.9765,3.69141 -5.9765,11.07422 0,5.625 4.3066,8.87695 4.3067,3.16407 17.3145,6.06446 l 5.5371,1.23047 q 17.2266,3.6914 24.4336,10.45898 7.2949,6.67969 7.2949,18.7207 0,13.71094 -10.8984,21.70899 -10.8106,7.99805 -29.795,7.99805 -7.9101,0 -16.5234,-1.58204 -8.5254,-1.49414 -18.0176,-4.57031 l 0,-16.69922 q 8.9649,4.65821 17.666,7.03125 8.7012,2.28516 17.2266,2.28516 11.4258,0 17.5781,-3.86719 6.1524,-3.95508 6.1524,-11.07422 0,-6.59179 -4.4824,-10.10742 -4.3946,-3.51562 -19.4239,-6.76758 l -5.625,-1.31836 q -15.0293,-3.16406 -21.709,-9.66797 -6.6796,-6.59179 -6.6796,-18.01757 0,-13.88672 9.8437,-21.44532 9.8438,-7.55859 27.9492,-7.55859 8.9649,0 16.875,1.31836 7.9102,1.31836 14.5899,3.95508 z"
         style="font-style:normal;font-variant:normal;font-weight:normal;font-stretch:normal;font-size:180px;line-height:125%;font-family:'Noto Sans Devanagari';-inkscape-font-specification:'Noto Sans Devanagari, Normal';text-align:start;writing-mode:lr-tb;text-anchor:start"
         id="path3649"
         inkscape:connector-curvature="0" />
      <path
         d="m 1261.0298,448.59406 q -19.5996,0 -27.1582,4.48242 -7.5586,4.48242 -7.5586,15.29297 0,8.61328 5.625,13.71093 5.7129,5.00977 15.4687,5.00977 13.4473,0 21.5332,-9.49219 8.1739,-9.58008 8.1739,-25.40039 l 0,-3.60351 -16.084,0 z m 32.2558,-6.67969 0,56.16211 -16.1718,0 0,-14.94141 q -5.5371,8.96484 -13.7989,13.27149 -8.2617,4.21875 -20.2148,4.21875 -15.1172,0 -24.082,-8.4375 -8.877,-8.5254 -8.877,-22.76368 0,-16.61132 11.0742,-25.04882 11.1621,-8.4375 33.2227,-8.4375 l 22.6758,0 0,-1.58204 q 0,-11.16211 -7.3829,-17.22656 -7.2949,-6.15234 -20.5664,-6.15234 -8.4375,0 -16.4355,2.02148 -7.9981,2.02149 -15.3809,6.06446 l 0,-14.94141 q 8.877,-3.42774 17.2266,-5.09766 8.3496,-1.75781 16.2598,-1.75781 21.3574,0 31.9043,11.07422 10.5468,11.07422 10.5468,33.57422 z"
         style="font-style:normal;font-variant:normal;font-weight:normal;font-stretch:normal;font-size:180px;line-height:125%;font-family:'Noto Sans Devanagari';-inkscape-font-specification:'Noto Sans Devanagari, Normal';text-align:start;writing-mode:lr-tb;text-anchor:start"
         id="path3651"
         inkscape:connector-curvature="0" />
      <path
         d="m 1342.6802,371.68976 0,27.94922 33.3105,0 0,12.56836 -33.3105,0 0,53.4375 q 0,12.04101 3.2519,15.46875 3.3399,3.42773 13.4473,3.42773 l 16.6113,0 0,13.53516 -16.6113,0 q -18.7207,0 -25.8399,-6.94336 -7.1191,-7.03125 -7.1191,-25.48828 l 0,-53.4375 -11.8652,0 0,-12.56836 11.8652,0 0,-27.94922 16.2598,0 z"
         style="font-style:normal;font-variant:normal;font-weight:normal;font-stretch:normal;font-size:180px;line-height:125%;font-family:'Noto Sans Devanagari';-inkscape-font-specification:'Noto Sans Devanagari, Normal';text-align:start;writing-mode:lr-tb;text-anchor:start"
         id="path3653"
         inkscape:connector-curvature="0" />
      <path
         d="m 1442.0845,448.59406 q -19.5996,0 -27.1582,4.48242 -7.5586,4.48242 -7.5586,15.29297 0,8.61328 5.625,13.71093 5.7129,5.00977 15.4687,5.00977 13.4473,0 21.5332,-9.49219 8.1738,-9.58008 8.1738,-25.40039 l 0,-3.60351 -16.0839,0 z m 32.2558,-6.67969 0,56.16211 -16.1719,0 0,-14.94141 q -5.5371,8.96484 -13.7988,13.27149 -8.2617,4.21875 -20.2148,4.21875 -15.1172,0 -24.0821,-8.4375 -8.8769,-8.5254 -8.8769,-22.76368 0,-16.61132 11.0742,-25.04882 11.1621,-8.4375 33.2227,-8.4375 l 22.6757,0 0,-1.58204 q 0,-11.16211 -7.3828,-17.22656 -7.2949,-6.15234 -20.5664,-6.15234 -8.4375,0 -16.4355,2.02148 -7.9981,2.02149 -15.3809,6.06446 l 0,-14.94141 q 8.877,-3.42774 17.2266,-5.09766 8.3496,-1.75781 16.2598,-1.75781 21.3574,0 31.9042,11.07422 10.5469,11.07422 10.5469,33.57422 z"
         style="font-style:normal;font-variant:normal;font-weight:normal;font-stretch:normal;font-size:180px;line-height:125%;font-family:'Noto Sans Devanagari';-inkscape-font-specification:'Noto Sans Devanagari, Normal';text-align:start;writing-mode:lr-tb;text-anchor:start"
         id="path3655"
         inkscape:connector-curvature="0" />
      <path
         d="m 24.697267,747.88803 49.482421,-113.90625 -66.2695309,0 0,-14.58984 82.6171879,0 0,12.74414 -48.779297,115.75195 -17.050781,0 z"
         style="font-style:normal;font-variant:normal;font-weight:normal;font-stretch:normal;font-size:180px;line-height:125%;font-family:'Noto Sans Devanagari';-inkscape-font-specification:'Noto Sans Devanagari, Normal';text-align:start;writing-mode:lr-tb;text-anchor:start"
         id="path3657"
         inkscape:connector-curvature="0" />
      <path
         d="m 112.06055,738.13217 q 0,-3.33984 0.87891,-5.625 0.8789,-2.37304 2.37304,-3.77929 1.49414,-1.49414 3.51563,-2.10938 2.02148,-0.70312 4.39453,-0.70312 2.28516,0 4.30664,0.70312 2.10938,0.61524 3.60352,2.10938 1.49414,1.40625 2.37304,3.77929 0.87891,2.28516 0.87891,5.625 0,3.25196 -0.87891,5.625 -0.8789,2.28516 -2.37304,3.7793 -1.49414,1.49414 -3.60352,2.19727 -2.02148,0.70312 -4.30664,0.70312 -2.37305,0 -4.39453,-0.70312 -2.02149,-0.70313 -3.51563,-2.19727 -1.49414,-1.49414 -2.37304,-3.7793 -0.87891,-2.37304 -0.87891,-5.625 z"
         style="font-style:normal;font-variant:normal;font-weight:normal;font-stretch:normal;font-size:180px;line-height:125%;font-family:'Noto Sans Devanagari';-inkscape-font-specification:'Noto Sans Devanagari, Normal';text-align:start;writing-mode:lr-tb;text-anchor:start"
         id="path3659"
         inkscape:connector-curvature="0" />
      <path
         d="m 262.61719,701.21811 q -19.42383,0 -29.44336,-3.86719 -3.95508,2.90039 -8.96484,5.00977 7.38281,9.49219 17.31445,19.33594 9.93164,9.84375 20.91797,18.7207 l -9.66797,9.66797 q -10.01953,-8.70117 -19.77539,-18.54492 -9.75586,-9.93164 -17.22656,-18.8086 -7.4707,-8.87695 -10.98633,-14.67773 -2.10937,-3.60352 -2.90039,-6.06445 -0.70313,-2.46094 -0.70313,-5.27344 0,-2.37305 1.14258,-4.48242 1.23047,-2.19727 3.7793,-3.60352 2.63672,-1.40625 6.5918,-1.40625 4.48242,0 7.82226,2.10938 3.42774,2.02148 6.15235,5.71289 3.16406,-2.8125 4.83398,-7.82227 1.66992,-5.00977 1.66992,-11.77734 0,-5.36133 -0.8789,-9.66797 -0.87891,-4.39453 -2.10938,-7.03125 l -36.12305,0 0,-12.83203 72.59766,0 0,12.83203 -21.97266,0 q 2.98829,6.94336 2.98829,16.78711 0,14.15039 -6.32813,22.23633 4.92188,0.61523 15.29297,0.61523 l 24.16992,0 0,12.83203 -18.19336,0 z"
         style="font-style:normal;font-variant:normal;font-weight:normal;font-stretch:normal;font-size:180px;line-height:125%;font-family:'Noto Sans Devanagari';-inkscape-font-specification:'Noto Sans Devanagari, Normal';text-align:start;writing-mode:lr-tb;text-anchor:start"
         id="path3661"
         inkscape:connector-curvature="0" />
      <path
         d="m 336.00586,688.82553 -19.59961,0 q -11.33789,0 -17.05078,1.23047 -5.625,1.14258 -9.14062,4.7461 -3.51563,3.60351 -3.51563,10.37109 0,5.71289 2.72461,11.07422 2.8125,5.36133 8.34961,11.16211 5.53711,5.71289 14.94141,13.27148 l -9.66797,9.4043 q -12.56836,-10.81055 -18.45703,-17.57813 -5.80078,-6.85547 -9.14063,-13.79882 -3.25195,-6.94336 -3.25195,-14.41407 0,-5.88867 2.37305,-11.25 2.46093,-5.44922 7.64648,-9.49218 5.18555,-4.04297 12.48047,-5.80079 7.38281,-1.75781 18.36914,-1.75781 l 22.93945,0 0,-27.24609 -71.98242,0 0,-12.83203 105.20508,0 0,12.83203 -18.7207,0 0,99.14062 -14.50196,0 0,-59.0625 z"
         style="font-style:normal;font-variant:normal;font-weight:normal;font-stretch:normal;font-size:180px;line-height:125%;font-family:'Noto Sans Devanagari';-inkscape-font-specification:'Noto Sans Devanagari, Normal';text-align:start;writing-mode:lr-tb;text-anchor:start"
         id="path3663"
         inkscape:connector-curvature="0" />
      <path
         d="m 473.4328,678.36655 0,-13.0957 81.21094,0 0,13.0957 -81.21094,0 z m 0,36.03515 0,-13.18359 81.21094,0 0,13.18359 -81.21094,0 z m 30.84961,-78.48632 0,0 z"
         style="font-style:normal;font-variant:normal;font-weight:normal;font-stretch:normal;font-size:180px;line-height:125%;font-family:'Noto Sans Devanagari';-inkscape-font-specification:'Noto Sans Devanagari, Normal';text-align:start;writing-mode:lr-tb;text-anchor:start"
         id="path3665"
         inkscape:connector-curvature="0" />
      <path
         d="m 733.85272,648.74741 -18.7207,0 0,99.14062 -14.50196,0 0,-46.66992 -21.70898,0 q -19.42383,0 -29.44336,-3.86719 -3.95508,2.90039 -8.96484,5.00977 7.38281,9.49219 17.31445,19.33594 9.93164,9.84375 20.91797,18.7207 l -9.66797,9.66797 q -10.01953,-8.70117 -19.77539,-18.54492 -9.75586,-9.93164 -17.22656,-18.8086 -7.47071,-8.87695 -10.98633,-14.67773 -2.10938,-3.60352 -2.90039,-6.06445 -0.70313,-2.46094 -0.70313,-5.27344 0,-2.37305 1.14258,-4.48242 1.23047,-2.19727 3.7793,-3.60352 2.63672,-1.40625 6.59179,-1.40625 4.48243,0 7.82227,2.10938 3.42773,2.02148 6.15234,5.71289 3.16407,-2.8125 4.83399,-7.82227 1.66992,-5.00977 1.66992,-11.77734 0,-5.36133 -0.87891,-9.66797 -0.8789,-4.39453 -2.10937,-7.03125 l -36.12305,0 0,-12.83203 123.48633,0 0,12.83203 z m -76.20117,39.02344 q 4.92187,0.61523 15.29297,0.61523 l 27.68554,0 0,-39.63867 -39.63867,0 q 2.98828,6.94336 2.98828,16.78711 0,14.15039 -6.32812,22.23633 z"
         style="font-style:normal;font-variant:normal;font-weight:normal;font-stretch:normal;font-size:180px;line-height:125%;font-family:'Noto Sans Devanagari';-inkscape-font-specification:'Noto Sans Devanagari, Normal';text-align:start;writing-mode:lr-tb;text-anchor:start"
         id="path3667"
         inkscape:connector-curvature="0" />
      <path
         d="m 755.56366,755.88608 q 3.95508,-0.9668 8.61328,-0.9668 5.88867,0 11.16211,1.14258 5.27344,1.23047 10.19531,3.51563 4.92188,2.37304 9.66797,6.06445 4.83398,3.7793 9.49219,9.14062 4.74609,5.36133 10.37109,13.88672 l -10.2832,7.38282 q -6.32813,-9.93165 -12.2168,-15.90821 -5.88867,-5.97656 -12.48047,-8.96484 -6.67969,-2.90039 -14.76562,-2.90039 -4.7461,0 -7.5586,0.8789 l -2.19726,-13.27148 z m 1.66992,-7.99805 0,0 z"
         style="font-style:normal;font-variant:normal;font-weight:normal;font-stretch:normal;font-size:180px;line-height:125%;font-family:'Noto Sans Devanagari';-inkscape-font-specification:'Noto Sans Devanagari, Normal';text-align:start;writing-mode:lr-tb;text-anchor:start"
         id="path3671"
         inkscape:connector-curvature="0" />
      <path
         d="m 906.55975,688.82553 -19.59961,0 q -11.33789,0 -17.05078,1.23047 -5.625,1.14258 -9.14062,4.7461 -3.51563,3.60351 -3.51563,10.37109 0,5.71289 2.72461,11.07422 2.8125,5.36133 8.34961,11.16211 5.53711,5.71289 14.94141,13.27148 l -9.66797,9.4043 q -12.56836,-10.81055 -18.45703,-17.57813 -5.80079,-6.85547 -9.14063,-13.79882 -3.25195,-6.94336 -3.25195,-14.41407 0,-5.88867 2.37304,-11.25 2.46094,-5.44922 7.64649,-9.49218 5.18555,-4.04297 12.48047,-5.80079 7.38281,-1.75781 18.36914,-1.75781 l 22.93945,0 0,-27.24609 -71.98242,0 0,-12.83203 105.20527,0 0,12.83203 -18.7208,0 0,99.14062 -14.50205,0 0,-59.0625 z"
         style="font-style:normal;font-variant:normal;font-weight:normal;font-stretch:normal;font-size:180px;line-height:125%;font-family:'Noto Sans Devanagari';-inkscape-font-specification:'Noto Sans Devanagari, Normal';text-align:start;writing-mode:lr-tb;text-anchor:start"
         id="path3673"
         inkscape:connector-curvature="0" />
      <path
         d="m 1179.2036,652.35092 0,15.29297 q -6.8555,-3.51562 -14.2383,-5.27344 -7.3828,-1.75781 -15.2929,-1.75781 -12.0411,0 -18.1055,3.69141 -5.9766,3.6914 -5.9766,11.07422 0,5.625 4.3067,8.87695 4.3066,3.16406 17.3144,6.06445 l 5.5371,1.23047 q 17.2266,3.69141 24.4336,10.45899 7.2949,6.67968 7.2949,18.7207 0,13.71094 -10.8984,21.70898 -10.8105,7.99805 -29.7949,7.99805 -7.9102,0 -16.5235,-1.58203 -8.5253,-1.49414 -18.0175,-4.57031 l 0,-16.69922 q 8.9648,4.6582 17.666,7.03125 8.7012,2.28515 17.2265,2.28515 11.4258,0 17.5782,-3.86718 6.1523,-3.95508 6.1523,-11.07422 0,-6.5918 -4.4824,-10.10742 -4.3945,-3.51563 -19.4238,-6.76758 l -5.625,-1.31836 q -15.0293,-3.16406 -21.709,-9.66797 -6.6797,-6.5918 -6.6797,-18.01758 0,-13.88672 9.8437,-21.44531 9.8438,-7.55859 27.9493,-7.55859 8.9648,0 16.875,1.31836 7.9101,1.31835 14.5898,3.95507 z"
         style="font-style:normal;font-variant:normal;font-weight:normal;font-stretch:normal;font-size:180px;line-height:125%;font-family:'Noto Sans Devanagari';-inkscape-font-specification:'Noto Sans Devanagari, Normal';text-align:start;writing-mode:lr-tb;text-anchor:start"
         id="path3675"
         inkscape:connector-curvature="0" />
      <path
         d="m 1226.313,621.50131 0,27.94922 33.3105,0 0,12.56836 -33.3105,0 0,53.4375 q 0,12.04102 3.2519,15.46875 3.3399,3.42774 13.4473,3.42774 l 16.6113,0 0,13.53515 -16.6113,0 q -18.7207,0 -25.8398,-6.94336 -7.1192,-7.03125 -7.1192,-25.48828 l 0,-53.4375 -11.8652,0 0,-12.56836 11.8652,0 0,-27.94922 16.2598,0 z"
         style="font-style:normal;font-variant:normal;font-weight:normal;font-stretch:normal;font-size:180px;line-height:125%;font-family:'Noto Sans Devanagari';-inkscape-font-specification:'Noto Sans Devanagari, Normal';text-align:start;writing-mode:lr-tb;text-anchor:start"
         id="path3677"
         inkscape:connector-curvature="0" />
      <path
         d="m 1325.7173,698.40561 q -19.5996,0 -27.1582,4.48242 -7.5586,4.48242 -7.5586,15.29297 0,8.61328 5.625,13.71094 5.7129,5.00976 15.4687,5.00976 13.4473,0 21.5332,-9.49218 8.1739,-9.58008 8.1739,-25.40039 l 0,-3.60352 -16.084,0 z m 32.2558,-6.67969 0,56.16211 -16.1718,0 0,-14.9414 q -5.5371,8.96484 -13.7989,13.27148 -8.2617,4.21875 -20.2148,4.21875 -15.1172,0 -24.082,-8.4375 -8.877,-8.52539 -8.877,-22.76367 0,-16.61133 11.0742,-25.04883 11.1621,-8.4375 33.2227,-8.4375 l 22.6758,0 0,-1.58203 q 0,-11.16211 -7.3829,-17.22656 -7.2949,-6.15235 -20.5664,-6.15235 -8.4375,0 -16.4355,2.02149 -7.9981,2.02148 -15.3809,6.06445 l 0,-14.94141 q 8.877,-3.42773 17.2266,-5.09765 8.3496,-1.75781 16.2598,-1.75781 21.3574,0 31.9043,11.07421 10.5468,11.07422 10.5468,33.57422 z"
         style="font-style:normal;font-variant:normal;font-weight:normal;font-stretch:normal;font-size:180px;line-height:125%;font-family:'Noto Sans Devanagari';-inkscape-font-specification:'Noto Sans Devanagari, Normal';text-align:start;writing-mode:lr-tb;text-anchor:start"
         id="path3679"
         inkscape:connector-curvature="0" />
      <path
         d="m 49.658204,867.18201 q 7.382813,0 13.886719,1.93359 6.591797,1.9336 11.513672,5.80079 5.009765,3.86718 7.910156,9.66796 2.900391,5.80079 2.900391,13.53516 0,5.88867 -1.757813,10.63477 -1.757812,4.74609 -4.833984,8.61328 -3.076172,3.77929 -7.294922,6.85547 -4.21875,2.98828 -9.140625,5.44921 5.097656,2.72461 9.93164,6.06446 4.921875,3.33984 8.701172,7.55859 3.867188,4.13086 6.152344,9.31641 2.373047,5.18554 2.373047,11.60156 0,8.08594 -2.988281,14.67773 -2.900391,6.50391 -8.261719,11.07422 -5.273438,4.57032 -12.744141,7.03125 -7.382812,2.46094 -16.347656,2.46094 -9.667969,0 -17.226562,-2.37305 -7.470704,-2.37304 -12.65625,-6.76757 -5.097657,-4.48243 -7.822266,-10.89844 -2.6367189,-6.41602 -2.6367189,-14.50195 0,-6.5918 1.9335939,-11.86524 2.021484,-5.27344 5.361328,-9.49219 3.339844,-4.21875 7.910156,-7.4707 4.570313,-3.25195 9.667969,-5.71289 -4.306641,-2.72461 -8.085937,-5.88867 -3.779297,-3.25196 -6.591797,-7.20703 -2.72461,-3.95508 -4.394532,-8.70118 -1.582031,-4.83398 -1.582031,-10.63476 0,-7.64649 2.900391,-13.35938 2.988281,-5.80078 7.998047,-9.66796 5.009765,-3.86719 11.513672,-5.80079 6.591796,-1.93359 13.710937,-1.93359 z m -24.609375,97.91016 q 0,4.6582 1.40625,8.61328 1.40625,3.86719 4.394531,6.67969 2.988282,2.7246 7.558594,4.30664 4.570313,1.49414 10.898438,1.49414 6.152343,0 10.810546,-1.49414 4.746094,-1.58204 7.910157,-4.39454 3.164062,-2.90039 4.746093,-6.94335 1.582032,-4.04297 1.582032,-8.96485 0,-4.57031 -1.757813,-8.26172 -1.669922,-3.6914 -4.921875,-6.85547 -3.164062,-3.16406 -7.646484,-5.97656 -4.482422,-2.8125 -10.019531,-5.53711 l -2.636719,-1.23047 q -11.074219,5.27344 -16.699219,12.12891 -5.625,6.76758 -5.625,16.43555 z m 24.433594,-84.55078 q -9.316406,0 -14.853516,4.6582 -5.449219,4.6582 -5.449219,13.53515 0,5.00977 1.494141,8.61329 1.582031,3.60351 4.306641,6.41601 2.724609,2.8125 6.503906,5.09766 3.867187,2.19726 8.349609,4.30664 4.21875,-1.9336 7.910157,-4.21875 3.779296,-2.28516 6.503906,-5.18555 2.8125,-2.90039 4.394531,-6.5918 1.582031,-3.6914 1.582031,-8.4375 0,-8.87695 -5.537109,-13.53515 -5.537109,-4.6582 -15.205078,-4.6582 z m 35.507812,55.98632 0,0 z"
         style="font-style:normal;font-variant:normal;font-weight:normal;font-stretch:normal;font-size:180px;line-height:125%;font-family:'Noto Sans Devanagari';-inkscape-font-specification:'Noto Sans Devanagari, Normal';text-align:start;writing-mode:lr-tb;text-anchor:start"
         id="path3681"
         inkscape:connector-curvature="0" />
      <path
         d="m 112.06055,987.94373 q 0,-3.33984 0.87891,-5.625 0.8789,-2.37305 2.37304,-3.7793 1.49414,-1.49414 3.51563,-2.10937 2.02148,-0.70313 4.39453,-0.70313 2.28516,0 4.30664,0.70313 2.10938,0.61523 3.60352,2.10937 1.49414,1.40625 2.37304,3.7793 0.87891,2.28516 0.87891,5.625 0,3.25195 -0.87891,5.625 -0.8789,2.28516 -2.37304,3.7793 -1.49414,1.49414 -3.60352,2.19726 -2.02148,0.70311 -4.30664,0.70311 -2.37305,0 -4.39453,-0.70311 -2.02149,-0.70312 -3.51563,-2.19726 -1.49414,-1.49414 -2.37304,-3.7793 -0.87891,-2.37305 -0.87891,-5.625 z"
         style="font-style:normal;font-variant:normal;font-weight:normal;font-stretch:normal;font-size:180px;line-height:125%;font-family:'Noto Sans Devanagari';-inkscape-font-specification:'Noto Sans Devanagari, Normal';text-align:start;writing-mode:lr-tb;text-anchor:start"
         id="path3683"
         inkscape:connector-curvature="0" />
      <path
         d="m 317.54883,898.55896 -18.7207,0 0,99.14063 -14.50195,0 0,-46.66992 -21.70899,0 q -19.42383,0 -29.44336,-3.86719 -3.95508,2.90039 -8.96484,5.00976 7.38281,9.49219 17.31445,19.33594 9.93164,9.84375 20.91797,18.72071 l -9.66797,9.66796 q -10.01953,-8.70117 -19.77539,-18.54492 -9.75586,-9.93164 -17.22656,-18.80859 -7.4707,-8.87695 -10.98633,-14.67774 -2.10937,-3.60351 -2.90039,-6.06445 -0.70313,-2.46094 -0.70313,-5.27344 0,-2.37304 1.14258,-4.48242 1.23047,-2.19726 3.7793,-3.60351 2.63672,-1.40625 6.5918,-1.40625 4.48242,0 7.82226,2.10937 3.42774,2.02149 6.15235,5.71289 3.16406,-2.8125 4.83398,-7.82226 1.66992,-5.00977 1.66992,-11.77735 0,-5.36133 -0.8789,-9.66797 -0.87891,-4.39453 -2.10938,-7.03125 l -36.12305,0 0,-12.83203 123.48633,0 0,12.83203 z m -76.20117,39.02344 q 4.92188,0.61524 15.29297,0.61524 l 27.68555,0 0,-39.63868 -39.63868,0 q 2.98829,6.94336 2.98829,16.78711 0,14.15039 -6.32813,22.23633 z"
         style="font-style:normal;font-variant:normal;font-weight:normal;font-stretch:normal;font-size:180px;line-height:125%;font-family:'Noto Sans Devanagari';-inkscape-font-specification:'Noto Sans Devanagari, Normal';text-align:start;writing-mode:lr-tb;text-anchor:start"
         id="path3685"
         inkscape:connector-curvature="0" />
      <path
         d="m 386.98243,938.63709 -19.59961,0 q -11.33789,0 -17.05078,1.23047 -5.625,1.14258 -9.14063,4.74609 -3.51562,3.60352 -3.51562,10.37109 0,5.7129 2.7246,11.07422 2.8125,5.36133 8.34961,11.16211 5.53711,5.71289 14.94141,13.27149 l -9.66797,9.40429 q -12.56836,-10.81054 -18.45703,-17.57812 -5.80078,-6.85547 -9.14062,-13.79883 -3.25196,-6.94336 -3.25196,-14.41406 0,-5.88867 2.37305,-11.25 2.46094,-5.44922 7.64648,-9.49219 5.18555,-4.04297 12.48047,-5.80078 7.38281,-1.75781 18.36914,-1.75781 l 22.93946,0 0,-27.2461 -71.98243,0 0,-12.83203 105.20508,0 0,12.83203 -18.7207,0 0,99.14063 -14.50195,0 0,-59.0625 z"
         style="font-style:normal;font-variant:normal;font-weight:normal;font-stretch:normal;font-size:180px;line-height:125%;font-family:'Noto Sans Devanagari';-inkscape-font-specification:'Noto Sans Devanagari, Normal';text-align:start;writing-mode:lr-tb;text-anchor:start"
         id="path3687"
         inkscape:connector-curvature="0" />
      <path
         d="m 385.40039,1005.6976 q 3.95508,-0.9668 8.61329,-0.9668 5.88867,0 11.16211,1.1426 5.27343,1.2305 10.19531,3.5156 4.92187,2.3731 9.66797,6.0645 4.83398,3.7793 9.49218,9.1406 4.7461,5.3613 10.3711,13.8867 l -10.28321,7.3829 q -6.32812,-9.9317 -12.21679,-15.9083 -5.88867,-5.9765 -12.48047,-8.9648 -6.67969,-2.9004 -14.76563,-2.9004 -4.74609,0 -7.55859,0.8789 l -2.19727,-13.2715 z m 1.66993,-7.99801 0,0 z"
         style="font-style:normal;font-variant:normal;font-weight:normal;font-stretch:normal;font-size:180px;line-height:125%;font-family:'Noto Sans Devanagari';-inkscape-font-specification:'Noto Sans Devanagari, Normal';text-align:start;writing-mode:lr-tb;text-anchor:start"
         id="path3689"
         inkscape:connector-curvature="0" />
      <path
         d="m 473.37891,928.1781 0,-13.0957 81.21094,0 0,13.0957 -81.21094,0 z m 0,36.03516 0,-13.18359 81.21094,0 0,13.18359 -81.21094,0 z m 30.84961,-78.48633 0,0 z"
         style="font-style:normal;font-variant:normal;font-weight:normal;font-stretch:normal;font-size:180px;line-height:125%;font-family:'Noto Sans Devanagari';-inkscape-font-specification:'Noto Sans Devanagari, Normal';text-align:start;writing-mode:lr-tb;text-anchor:start"
         id="path3691"
         inkscape:connector-curvature="0" />
      <path
         d="m 733.79883,898.55896 -18.7207,0 0,99.14063 -14.50195,0 0,-46.66992 -21.70899,0 q -19.42383,0 -29.44336,-3.86719 -3.95508,2.90039 -8.96484,5.00976 7.38281,9.49219 17.31445,19.33594 9.93164,9.84375 20.91797,18.72071 l -9.66797,9.66796 q -10.01953,-8.70117 -19.77539,-18.54492 -9.75586,-9.93164 -17.22656,-18.80859 -7.4707,-8.87695 -10.98633,-14.67774 -2.10937,-3.60351 -2.90039,-6.06445 -0.70313,-2.46094 -0.70313,-5.27344 0,-2.37304 1.14258,-4.48242 1.23047,-2.19726 3.7793,-3.60351 2.63672,-1.40625 6.5918,-1.40625 4.48242,0 7.82226,2.10937 3.42774,2.02149 6.15235,5.71289 3.16406,-2.8125 4.83398,-7.82226 1.66992,-5.00977 1.66992,-11.77735 0,-5.36133 -0.8789,-9.66797 -0.87891,-4.39453 -2.10938,-7.03125 l -36.12305,0 0,-12.83203 123.48633,0 0,12.83203 z m -76.20117,39.02344 q 4.92188,0.61524 15.29297,0.61524 l 27.68555,0 0,-39.63868 -39.63868,0 q 2.98829,6.94336 2.98829,16.78711 0,14.15039 -6.32813,22.23633 z"
         style="font-style:normal;font-variant:normal;font-weight:normal;font-stretch:normal;font-size:180px;line-height:125%;font-family:'Noto Sans Devanagari';-inkscape-font-specification:'Noto Sans Devanagari, Normal';text-align:start;writing-mode:lr-tb;text-anchor:start"
         id="path3693"
         inkscape:connector-curvature="0" />
      <path
         d="m 849.99024,938.63709 -19.59961,0 q -11.33789,0 -17.05078,1.23047 -5.625,1.14258 -9.14063,4.74609 -3.51562,3.60352 -3.51562,10.37109 0,5.7129 2.72461,11.07422 2.8125,5.36133 8.34961,11.16211 5.53711,5.71289 14.9414,13.27149 l -9.66797,9.40429 q -12.56836,-10.81054 -18.45703,-17.57812 -5.80078,-6.85547 -9.14062,-13.79883 -3.25196,-6.94336 -3.25196,-14.41406 0,-5.88867 2.37305,-11.25 2.46094,-5.44922 7.64649,-9.49219 5.18554,-4.04297 12.48046,-5.80078 7.38282,-1.75781 18.36915,-1.75781 l 22.93945,0 0,-27.2461 -71.98242,0 0,-12.83203 105.20507,0 0,12.83203 -18.7207,0 0,99.14063 -14.50195,0 0,-59.0625 z"
         style="font-style:normal;font-variant:normal;font-weight:normal;font-stretch:normal;font-size:180px;line-height:125%;font-family:'Noto Sans Devanagari';-inkscape-font-specification:'Noto Sans Devanagari, Normal';text-align:start;writing-mode:lr-tb;text-anchor:start"
         id="path3695"
         inkscape:connector-curvature="0" />
      <path
         d="m 904.92383,1005.6976 q 3.95508,-0.9668 8.61328,-0.9668 5.88869,0 11.16219,1.1426 5.2734,1.2305 10.1953,3.5156 4.9219,2.3731 9.6679,6.0645 4.834,3.7793 9.4922,9.1406 4.7461,5.3613 10.3711,13.8867 l -10.2832,7.3829 q -6.3281,-9.9317 -12.2168,-15.9083 -5.8886,-5.9765 -12.4804,-8.9648 -6.6797,-2.9004 -14.76571,-2.9004 -4.74609,0 -7.55859,0.8789 l -2.19727,-13.2715 z m 1.66992,-7.99801 0,0 z"
         style="font-style:normal;font-variant:normal;font-weight:normal;font-stretch:normal;font-size:180px;line-height:125%;font-family:'Noto Sans Devanagari';-inkscape-font-specification:'Noto Sans Devanagari, Normal';text-align:start;writing-mode:lr-tb;text-anchor:start"
         id="path3699"
         inkscape:connector-curvature="0" />
      <path
         d="m 1183.4224,902.16248 0,15.29297 q -6.8555,-3.51563 -14.2383,-5.27344 -7.3828,-1.75781 -15.293,-1.75781 -12.041,0 -18.1055,3.6914 -5.9765,3.69141 -5.9765,11.07422 0,5.625 4.3066,8.87696 4.3067,3.16406 17.3145,6.06445 l 5.5371,1.23047 q 17.2265,3.6914 24.4336,10.45898 7.2949,6.67969 7.2949,18.72071 0,13.71093 -10.8984,21.70898 -10.8106,7.99803 -29.795,7.99803 -7.9101,0 -16.5234,-1.58201 -8.5254,-1.49415 -18.0176,-4.57032 l 0,-16.69922 q 8.9649,4.65821 17.666,7.03125 8.7012,2.28516 17.2266,2.28516 11.4258,0 17.5781,-3.86719 6.1524,-3.95508 6.1524,-11.07422 0,-6.59179 -4.4825,-10.10742 -4.3945,-3.51562 -19.4238,-6.76758 l -5.625,-1.31836 q -15.0293,-3.16406 -21.709,-9.66796 -6.6797,-6.5918 -6.6797,-18.01758 0,-13.88672 9.8438,-21.44531 9.8437,-7.5586 27.9492,-7.5586 8.9649,0 16.875,1.31836 7.9102,1.31836 14.5899,3.95508 z"
         style="font-style:normal;font-variant:normal;font-weight:normal;font-stretch:normal;font-size:180px;line-height:125%;font-family:'Noto Sans Devanagari';-inkscape-font-specification:'Noto Sans Devanagari, Normal';text-align:start;writing-mode:lr-tb;text-anchor:start"
         id="path3701"
         inkscape:connector-curvature="0" />
      <path
         d="m 1259.272,948.21717 q -19.5996,0 -27.1582,4.48242 -7.5586,4.48242 -7.5586,15.29297 0,8.61328 5.625,13.71093 5.7129,5.00977 15.4687,5.00977 13.4473,0 21.5332,-9.49219 8.1738,-9.58008 8.1738,-25.40039 l 0,-3.60351 -16.0839,0 z m 32.2558,-6.67969 0,56.16211 -16.1719,0 0,-14.94141 q -5.5371,8.96485 -13.7988,13.27149 -8.2617,4.21873 -20.2148,4.21873 -15.1172,0 -24.0821,-8.43748 -8.8769,-8.52539 -8.8769,-22.76368 0,-16.61132 11.0742,-25.04882 11.1621,-8.4375 33.2227,-8.4375 l 22.6757,0 0,-1.58203 q 0,-11.16211 -7.3828,-17.22657 -7.2949,-6.15234 -20.5664,-6.15234 -8.4375,0 -16.4355,2.02148 -7.9981,2.02149 -15.3809,6.06446 l 0,-14.94141 q 8.877,-3.42773 17.2266,-5.09766 8.3496,-1.75781 16.2598,-1.75781 21.3574,0 31.9042,11.07422 10.5469,11.07422 10.5469,33.57422 z"
         style="font-style:normal;font-variant:normal;font-weight:normal;font-stretch:normal;font-size:180px;line-height:125%;font-family:'Noto Sans Devanagari';-inkscape-font-specification:'Noto Sans Devanagari, Normal';text-align:start;writing-mode:lr-tb;text-anchor:start"
         id="path3703"
         inkscape:connector-curvature="0" />
      <path
         d="m 1340.9224,871.31287 0,27.94922 33.3105,0 0,12.56836 -33.3105,0 0,53.4375 q 0,12.04101 3.2519,15.46875 3.3399,3.42773 13.4473,3.42773 l 16.6113,0 0,13.53516 -16.6113,0 q -18.7207,0 -25.8399,-6.94336 -7.1191,-7.03125 -7.1191,-25.48828 l 0,-53.4375 -11.8652,0 0,-12.56836 11.8652,0 0,-27.94922 16.2598,0 z"
         style="font-style:normal;font-variant:normal;font-weight:normal;font-stretch:normal;font-size:180px;line-height:125%;font-family:'Noto Sans Devanagari';-inkscape-font-specification:'Noto Sans Devanagari, Normal';text-align:start;writing-mode:lr-tb;text-anchor:start"
         id="path3705"
         inkscape:connector-curvature="0" />
    </g>
  </g>
</svg>
