<?xml version="1.0" encoding="UTF-8" standalone="no"?>
<!-- Created with Inkscape (http://www.inkscape.org/) -->

<svg
   xmlns:dc="http://purl.org/dc/elements/1.1/"
   xmlns:cc="http://creativecommons.org/ns#"
   xmlns:rdf="http://www.w3.org/1999/02/22-rdf-syntax-ns#"
   xmlns:svg="http://www.w3.org/2000/svg"
   xmlns="http://www.w3.org/2000/svg"
   xmlns:sodipodi="http://sodipodi.sourceforge.net/DTD/sodipodi-0.dtd"
   xmlns:inkscape="http://www.inkscape.org/namespaces/inkscape"
   width="160mm"
   height="60mm"
   viewBox="0 0 566.92913 212.59842"
   id="svg2"
   version="1.1"
   inkscape:version="0.91 r13725"
   sodipodi:docname="taraqqee (improvement) bad.svg">
  <defs
     id="defs4" />
  <sodipodi:namedview
     id="base"
     pagecolor="#ffffff"
     bordercolor="#666666"
     borderopacity="1.0"
     inkscape:pageopacity="0.0"
     inkscape:pageshadow="2"
     inkscape:zoom="1.4"
     inkscape:cx="317.4435"
     inkscape:cy="135.71065"
     inkscape:document-units="px"
     inkscape:current-layer="text3351"
     showgrid="false"
     inkscape:window-width="1920"
     inkscape:window-height="1027"
     inkscape:window-x="-8"
     inkscape:window-y="-8"
     inkscape:window-maximized="1" />
  <metadata
     id="metadata7">
    <rdf:RDF>
      <cc:Work
         rdf:about="">
        <dc:format>image/svg+xml</dc:format>
        <dc:type
           rdf:resource="http://purl.org/dc/dcmitype/StillImage" />
        <dc:title></dc:title>
      </cc:Work>
    </rdf:RDF>
  </metadata>
  <g
     inkscape:label="Layer 1"
     inkscape:groupmode="layer"
     id="layer1"
     transform="translate(0,-839.76378)">
    <g
       style="font-style:normal;font-weight:normal;font-size:40px;line-height:125%;font-family:sans-serif;letter-spacing:0px;word-spacing:0px;fill:#000000;fill-opacity:1;stroke:none;stroke-width:1px;stroke-linecap:butt;stroke-linejoin:miter;stroke-opacity:1"
       id="text3351">
      <path
         d="m 140.14509,904.69476 -25.04883,0 0,101.95314 -15.468751,0 0,-56.51368 -44.296875,0 q -8.349609,0 -13.359375,4.92187 -5.009766,4.92188 -5.009766,13.00781 0,11.25 9.052735,21.70899 2.109375,2.54883 17.666015,16.43551 l -12.128906,10.459 q -30.058594,-27.15818 -30.058594,-47.54881 0,-15.11719 8.173829,-24.08203 8.261718,-8.96484 23.291015,-8.96484 l 46.669922,0 0,-31.37696 -85.517578,0 0,-14.0625 126.035159,0 0,14.0625 z m -64.24805,107.57814 0,0 z m 0,-115.22462 0,0 z m 31.46484,0 0,0 z m 0,102.04101 0,0 z"
         style="font-style:normal;font-variant:normal;font-weight:normal;font-stretch:normal;font-size:180px;font-family:'Mangal Sample';-inkscape-font-specification:'Mangal Sample'"
         id="path3369"
         inkscape:connector-curvature="0" />
      <path
         d="m 224.69587,904.69476 -36.03516,0 0,25.83985 q 0,14.9414 -2.37304,22.06054 -4.13086,12.30469 -15.9961,12.30469 l 35.41992,41.48436 -11.95312,10.1074 -56.33789,-65.74215 12.04101,-10.01953 9.58008,11.25 q 0.70313,0.79102 2.8125,0.79102 11.33789,0 11.33789,-18.01758 l 0,-30.0586 -39.19922,0 0,-14.0625 90.70313,0 0,14.0625 z m -48.33985,94.39453 0,0 z m 4.57032,-102.04101 0,0 z m -4.57032,0 0,0 z"
         style="font-style:normal;font-variant:normal;font-weight:normal;font-stretch:normal;font-size:180px;font-family:'Mangal Sample';-inkscape-font-specification:'Mangal Sample'"
         id="path3371"
         inkscape:connector-curvature="0" />
      <path
         d="m 365.49665,890.63226 0,14.0625 -68.99414,0 0,37.35352 q 3.25195,-2.8125 6.15234,-4.74609 2.90039,-1.9336 5.71289,-3.16407 2.90039,-1.23047 5.80078,-1.75781 2.98829,-0.52734 6.32813,-0.52734 6.41602,0 11.60156,2.19726 5.27344,2.10938 8.87696,6.06446 3.60351,3.95507 5.5371,9.58007 2.02149,5.53711 2.02149,12.39258 0,4.6582 -1.14258,9.31641 -1.05469,4.57031 -2.98828,8.96484 -1.8457,4.30664 -4.39453,8.17383 -2.46094,3.86719 -5.18555,6.85547 l -9.58008,-11.86524 q 1.66993,-1.75781 3.33985,-4.39453 1.66992,-2.72461 2.98828,-5.625 1.31836,-2.98828 2.10937,-6.06445 0.87891,-3.07617 0.87891,-5.625 0,-4.48242 -1.58203,-7.55859 -1.58203,-3.16407 -3.95508,-5.09766 -2.28516,-1.93359 -4.92187,-2.72461 -2.54883,-0.87891 -4.57032,-0.87891 -3.60351,0 -6.5039,1.05469 -2.90039,0.9668 -5.625,2.8125 -2.63672,1.75781 -5.27344,4.30664 -2.63672,2.46094 -5.625,5.44922 l 0,47.46095 -15.46875,0 0,-37.35353 q -2.10938,1.49414 -5.09766,3.33985 -2.98828,1.75781 -6.5039,3.33984 -3.42774,1.49414 -7.29493,2.54883 -3.86718,0.9668 -7.73437,0.9668 -8.61328,0 -14.50195,-2.63672 -5.80078,-2.63672 -9.4043,-6.76758 -3.60352,-4.13086 -5.18555,-9.14063 -1.58203,-5.00976 -1.58203,-9.75586 0,-6.15234 2.28516,-11.25 2.37304,-5.09765 6.59179,-8.78906 4.21875,-3.6914 10.10743,-5.71289 5.88867,-2.10937 12.91992,-2.10937 4.74609,0 8.61328,0.79101 3.95508,0.79102 7.11914,1.8457 3.16406,1.05469 5.53711,2.19727 2.46094,1.14258 4.13086,1.8457 l 0,-25.3125 -62.66602,0 0,-14.0625 147.12891,0 z m -84.46289,54.93164 q -1.58203,-0.8789 -3.95508,-2.28515 -2.28516,-1.40625 -5.44922,-2.63672 -3.16406,-1.31836 -7.11914,-2.19727 -3.95508,-0.96679 -8.87695,-0.96679 -16.69922,0 -16.69922,12.74414 0,7.38281 4.21875,11.25 4.30664,3.77929 11.25,3.77929 3.42773,0 7.20703,-1.40625 3.86719,-1.40625 7.38281,-3.33984 3.60352,-2.02148 6.76758,-4.21875 3.16406,-2.28516 5.27344,-3.86719 l 0,-6.85547 z m -18.10547,61.084 -9.93164,9.8437 -9.93164,-9.8437 9.93164,-9.93165 9.93164,9.93165 z"
         style="font-style:normal;font-variant:normal;font-weight:normal;font-stretch:normal;font-size:180px;font-family:'Mangal Sample';-inkscape-font-specification:'Mangal Sample'"
         id="path3373"
         inkscape:connector-curvature="0" />
      <path
         d="m 332.71345,1039.8705 -7.20703,9.5801 -45.70313,-20.4785 7.20703,-9.1406 45.70313,20.039 z"
         style="font-style:normal;font-variant:normal;font-weight:normal;font-stretch:normal;font-size:180px;font-family:'Mangal Sample';-inkscape-font-specification:'Mangal Sample'"
         id="path3375"
         inkscape:connector-curvature="0" />
      <path
         d="m 501.22811,890.63226 0,14.0625 -68.99414,0 0,37.35352 q 3.25195,-2.8125 6.15235,-4.74609 2.90039,-1.9336 5.71289,-3.16407 2.90039,-1.23047 5.80078,-1.75781 2.98828,-0.52734 6.32812,-0.52734 6.41602,0 11.60156,2.19726 5.27344,2.10938 8.87696,6.06446 3.60351,3.95507 5.53711,9.58007 2.02148,5.53711 2.02148,12.39258 0,4.6582 -1.14258,9.31641 -1.05468,4.57031 -2.98828,8.96484 -1.8457,4.30664 -4.39453,8.17383 -2.46094,3.86719 -5.18555,6.85547 l -9.58007,-11.86524 q 1.66992,-1.75781 3.33984,-4.39453 1.66992,-2.72461 2.98828,-5.625 1.31836,-2.98828 2.10938,-6.06445 0.8789,-3.07617 0.8789,-5.625 0,-4.48242 -1.58203,-7.55859 -1.58203,-3.16407 -3.95508,-5.09766 -2.28515,-1.93359 -4.92187,-2.72461 -2.54883,-0.87891 -4.57031,-0.87891 -3.60352,0 -6.50391,1.05469 -2.90039,0.9668 -5.625,2.8125 -2.63672,1.75781 -5.27344,4.30664 -2.63672,2.46094 -5.625,5.44922 l 0,47.46095 -15.46875,0 0,-37.35353 q -2.10937,1.49414 -5.09765,3.33985 -2.98829,1.75781 -6.50391,3.33984 -3.42774,1.49414 -7.29492,2.54883 -3.86719,0.9668 -7.73438,0.9668 -8.61328,0 -14.50195,-2.63672 -5.80078,-2.63672 -9.4043,-6.76758 -3.60351,-4.13086 -5.18554,-9.14063 -1.58204,-5.00976 -1.58204,-9.75586 0,-6.15234 2.28516,-11.25 2.37305,-5.09765 6.5918,-8.78906 4.21875,-3.6914 10.10742,-5.71289 5.88867,-2.10937 12.91992,-2.10937 4.74609,0 8.61328,0.79101 3.95508,0.79102 7.11914,1.8457 3.16407,1.05469 5.53711,2.19727 2.46094,1.14258 4.13086,1.8457 l 0,-25.3125 -62.66601,0 0,-14.0625 147.1289,0 z m -84.46289,54.93164 q -1.58203,-0.8789 -3.95508,-2.28515 -2.28515,-1.40625 -5.44922,-2.63672 -3.16406,-1.31836 -7.11914,-2.19727 -3.95507,-0.96679 -8.87695,-0.96679 -16.69922,0 -16.69922,12.74414 0,7.38281 4.21875,11.25 4.30664,3.77929 11.25,3.77929 3.42774,0 7.20703,-1.40625 3.86719,-1.40625 7.38282,-3.33984 3.60351,-2.02148 6.76757,-4.21875 3.16407,-2.28516 5.27344,-3.86719 l 0,-6.85547 z m -18.10547,61.084 -9.93164,9.8437 -9.93164,-9.8437 9.93164,-9.93165 9.93164,9.93165 z"
         style="font-style:normal;font-variant:normal;font-weight:normal;font-stretch:normal;font-size:180px;font-family:'Mangal Sample';-inkscape-font-specification:'Mangal Sample'"
         id="path3377"
         inkscape:connector-curvature="0" />
      <path
         d="m 452.98098,868.22015 0,0 z m 96.15235,36.47461 -26.71875,0 0,101.95314 -15.46875,0 0,-101.95314 -11.07422,0 0,-14.0625 2.10937,0 q -7.4707,-6.94336 -14.9414,-13.97461 -9.05274,-8.08593 -16.43555,-12.04101 -9.66797,-5.09766 -19.51172,-5.09766 -8.87695,0 -14.58984,4.7461 -5.97656,5.00976 -5.97656,13.71093 0,8.52539 8.61328,15.90821 l -8.61328,10.10742 q -14.58985,-12.48047 -14.58985,-28.47656 0,-14.50196 10.54688,-23.37891 9.84375,-8.26172 24.69726,-8.26172 19.77539,0 39.55078,15.73242 8.78907,6.94336 30.9375,31.02539 l 31.46485,0 0,14.0625 z m -96.15235,94.39453 0,0 z m 60.46875,-119.61914 0,0 z"
         style="font-style:normal;font-variant:normal;font-weight:normal;font-stretch:normal;font-size:180px;font-family:'Mangal Sample';-inkscape-font-specification:'Mangal Sample'"
         id="path3379"
         inkscape:connector-curvature="0" />
    </g>
  </g>
</svg>
