<?xml version="1.0" encoding="UTF-8" standalone="no"?>
<!-- Created with Inkscape (http://www.inkscape.org/) -->

<svg
   xmlns:dc="http://purl.org/dc/elements/1.1/"
   xmlns:cc="http://creativecommons.org/ns#"
   xmlns:rdf="http://www.w3.org/1999/02/22-rdf-syntax-ns#"
   xmlns:svg="http://www.w3.org/2000/svg"
   xmlns="http://www.w3.org/2000/svg"
   xmlns:sodipodi="http://sodipodi.sourceforge.net/DTD/sodipodi-0.dtd"
   xmlns:inkscape="http://www.inkscape.org/namespaces/inkscape"
   width="210mm"
   height="70mm"
   viewBox="0 0 744.09449 248.03149"
   id="svg3359"
   version="1.1"
   inkscape:version="0.91 r13725"
   sodipodi:docname="improvement kannada good sudhaarane.svg">
  <defs
     id="defs3361" />
  <sodipodi:namedview
     id="base"
     pagecolor="#ffffff"
     bordercolor="#666666"
     borderopacity="1.0"
     inkscape:pageopacity="0.0"
     inkscape:pageshadow="2"
     inkscape:zoom="0.98994949"
     inkscape:cx="211.04601"
     inkscape:cy="184.26618"
     inkscape:document-units="px"
     inkscape:current-layer="layer1"
     showgrid="false"
     inkscape:window-width="1920"
     inkscape:window-height="1027"
     inkscape:window-x="-8"
     inkscape:window-y="-8"
     inkscape:window-maximized="1" />
  <metadata
     id="metadata3364">
    <rdf:RDF>
      <cc:Work
         rdf:about="">
        <dc:format>image/svg+xml</dc:format>
        <dc:type
           rdf:resource="http://purl.org/dc/dcmitype/StillImage" />
        <dc:title></dc:title>
      </cc:Work>
    </rdf:RDF>
  </metadata>
  <g
     inkscape:label="Layer 1"
     inkscape:groupmode="layer"
     id="layer1"
     transform="translate(0,-804.33071)">
    <g
       style="font-style:normal;font-weight:normal;font-size:180px;line-height:125%;font-family:sans-serif;letter-spacing:0px;word-spacing:0px;fill:#000000;fill-opacity:1;stroke:none;stroke-width:1px;stroke-linecap:butt;stroke-linejoin:miter;stroke-opacity:1"
       id="text3367">
      <path
         d="m 34.108538,907.02039 0,-13.97461 76.992192,0 q 9.3164,0 14.0625,-0.9668 4.74609,-0.9668 7.03125,-3.69141 2.37304,-2.8125 2.37304,-7.4707 0,-11.51367 -11.68945,-22.93945 l 11.68945,-7.82227 q 7.38281,8.26172 10.98633,15.73242 3.60352,7.47071 3.60352,16.25977 0,6.5918 -3.25196,12.30469 -3.16406,5.625 -10.19531,9.14062 -7.03125,3.42774 -21.35742,3.42774 l -80.244142,0 z m 23.554687,82.26562 -13.974609,5.53711 q -4.482422,-5.97656 -7.03125,-13.53516 -2.548828,-7.64648 -2.548828,-15.11718 0,-12.30469 7.822265,-20.47852 7.822266,-8.26172 19.160157,-8.26172 7.207031,0 12.304687,2.10938 5.097656,2.10937 9.052734,6.32812 4.042969,4.21875 8.964844,12.83203 5.449219,9.49219 8.789065,13.53516 3.33984,3.95508 7.20703,5.97656 3.95508,2.02149 9.4043,2.02149 8.34961,0 12.91992,-6.06446 4.6582,-6.15234 4.6582,-16.78711 0,-9.40429 -3.7793,-17.7539 -3.6914,-8.4375 -11.25,-16.96289 l 12.12891,-8.52539 q 17.66602,18.89648 17.66602,41.74804 0,18.28125 -8.87696,28.47657 -8.78906,10.10742 -24.69726,10.10742 -7.82227,0 -13.79883,-2.63672 -5.888673,-2.72461 -10.371095,-7.64649 -4.482422,-5.00976 -9.93164,-14.32617 -4.570313,-7.73437 -7.646485,-11.60156 -2.988281,-3.86719 -5.888672,-5.44922 -2.8125,-1.58203 -6.679687,-1.58203 -5.888672,0 -9.316406,3.86719 -3.339844,3.86719 -3.339844,10.63476 0,11.07422 9.052734,23.55469 z m 32.34375,-74.79492 q 4.394531,0 7.382813,3.16406 2.988282,3.07617 2.988282,7.4707 0,4.30665 -2.988282,7.47071 -2.988282,3.07617 -7.382813,3.07617 -4.394531,0 -7.470703,-3.07617 -2.988281,-3.07617 -2.988281,-7.47071 0,-4.39453 2.988281,-7.4707 3.076172,-3.16406 7.470703,-3.16406 z m -5.625,-67.67578 0,0 z m -11.865234,145.54687 0,0 z"
         style="font-style:normal;font-variant:normal;font-weight:normal;font-stretch:normal;font-size:180px;line-height:125%;font-family:'Noto Sans Kannada';-inkscape-font-specification:'Noto Sans Kannada, Normal';text-align:start;writing-mode:lr-tb;text-anchor:start"
         id="path3372" />
      <path
         d="m 134.7433,970.30164 9.22852,-9.84375 q 8.26172,10.45898 16.17187,15.11718 7.91016,4.65821 17.49024,4.65821 10.63476,0 16.61133,-6.94336 6.06445,-6.94336 6.06445,-18.8086 0,-17.13867 -8.87695,-29.61914 -8.78907,-12.48047 -26.45508,-20.30273 l 7.73437,-13.97461 q 20.6543,10.2832 31.46485,26.54297 10.89843,16.25976 10.89843,36.5625 0,18.89648 -10.10742,29.88281 -10.01953,10.89844 -27.94922,10.89844 -11.68945,0 -21.97265,-5.71289 -10.28321,-5.80078 -20.30274,-18.45703 z"
         style="font-style:normal;font-variant:normal;font-weight:normal;font-stretch:normal;font-size:180px;line-height:125%;font-family:'Noto Sans Kannada';-inkscape-font-specification:'Noto Sans Kannada, Normal';text-align:start;writing-mode:lr-tb;text-anchor:start"
         id="path3374" />
      <path
         d="m 283.45424,957.29382 13.79883,0 q 0.70312,10.72266 6.5918,16.875 5.88867,6.06446 14.41406,6.06446 18.80859,0 18.80859,-26.80664 0,-13.1836 -5.44922,-23.90625 -5.36132,-10.72266 -15.55664,-16.61133 -10.19531,-5.88867 -23.81836,-5.88867 l -2.98828,0 q -13.79883,0 -24.16992,5.625 -10.2832,5.625 -15.82031,16.25976 -5.44922,10.54688 -5.44922,24.16992 0,13.71094 4.48242,20.47852 4.48242,6.67969 14.0625,6.67969 8.70117,0 14.41406,-6.06446 5.71289,-6.06445 6.67969,-16.875 z m 44.47266,-50.27343 q 11.42578,6.94336 17.57812,18.89648 6.24024,11.86523 6.24024,26.98242 0,20.03906 -8.4375,30.84961 -8.4375,10.72266 -23.64258,10.72266 -10.19531,0 -16.96289,-3.69141 -6.76758,-3.7793 -12.39258,-12.48047 -4.30664,7.5586 -11.25,11.86524 -6.94336,4.30664 -18.54492,4.30664 -14.76563,0 -23.11524,-10.81055 -8.34961,-10.89844 -8.34961,-30.76172 0,-15.46875 6.24024,-27.42187 6.24023,-12.04102 17.8418,-18.45703 l -24.08204,0 0,-13.97461 103.27149,0 0,13.97461 -4.39453,0 z m -45.87891,111.18161 1.40625,-28.56443 13.88672,0 1.40625,28.56443 -16.69922,0 z"
         style="font-style:normal;font-variant:normal;font-weight:normal;font-stretch:normal;font-size:180px;line-height:125%;font-family:'Noto Sans Kannada';-inkscape-font-specification:'Noto Sans Kannada, Normal';text-align:start;writing-mode:lr-tb;text-anchor:start"
         id="path3376" />
      <path
         d="m 377.5851,957.90906 q -0.87891,2.46094 -0.87891,6.5039 0,7.64649 4.57032,12.30469 4.6582,4.57031 13.35937,4.57031 11.16211,0 17.13867,-8.26171 6.06446,-8.26172 6.06446,-23.99415 0,-15.38085 -5.625,-24.52148 -5.625,-9.22852 -14.50196,-13.35937 -8.87695,-4.13086 -27.50976,-4.13086 l -42.09961,0 -1.75781,-13.97461 47.28515,0 q 21.6211,0 33.57422,6.24023 12.04102,6.24024 18.7207,18.36914 6.76758,12.04102 6.76758,31.37695 0,21.79688 -10.01953,33.66211 -9.93164,11.77735 -28.125,11.77735 -14.15039,0 -22.5,-7.99805 -8.34961,-8.08594 -8.34961,-20.74219 0,-11.07422 5.53711,-17.40234 5.53711,-6.32813 14.41406,-6.32813 6.5918,0 10.3711,3.25196 3.77929,3.25195 3.77929,8.96484 0,5.09766 -2.90039,8.26172 -2.8125,3.07617 -7.03125,3.07617 -4.30664,0 -7.03125,-1.93359 -2.72461,-2.02149 -3.25195,-5.71289 z"
         style="font-style:normal;font-variant:normal;font-weight:normal;font-stretch:normal;font-size:180px;line-height:125%;font-family:'Noto Sans Kannada';-inkscape-font-specification:'Noto Sans Kannada, Normal';text-align:start;writing-mode:lr-tb;text-anchor:start"
         id="path3378" />
      <path
         d="m 529.89955,905.78992 q 10.45899,7.20703 15.29297,17.13867 4.83399,9.93164 4.83399,23.73047 0,13.88672 -6.15235,24.78515 -6.15234,10.89844 -17.84179,16.96289 -11.68946,6.06446 -27.07032,6.06446 -15.02929,0 -26.80664,-5.71289 -11.68945,-5.80078 -18.10547,-16.69922 -6.32812,-10.89844 -6.32812,-25.40039 0,-26.45508 19.24805,-39.63867 l -19.24805,0 0,-13.97461 64.24805,0 q 9.3164,0 14.0625,-0.9668 4.74609,-0.9668 7.03125,-3.69141 2.37304,-2.8125 2.37304,-7.4707 0,-11.51367 -11.68945,-22.93945 l 11.68945,-7.82227 q 7.38282,8.26172 10.98633,15.73242 3.60352,7.47071 3.60352,16.25977 0,8.78906 -5.27344,15.20508 -5.18555,6.32812 -14.85352,8.4375 z m -30.67382,1.23047 q -16.52344,0 -26.63086,10.01953 -10.10743,10.01953 -10.10743,26.54297 0,16.96289 9.75586,26.63086 9.84375,9.66796 26.80664,9.66796 16.96289,0 26.54297,-9.93164 9.66797,-10.01953 9.66797,-26.36718 0,-16.52344 -10.10742,-26.54297 -10.01953,-10.01953 -25.92773,-10.01953 z m -3.16407,-60.20508 0,0 z"
         style="font-style:normal;font-variant:normal;font-weight:normal;font-stretch:normal;font-size:180px;line-height:125%;font-family:'Noto Sans Kannada';-inkscape-font-specification:'Noto Sans Kannada, Normal';text-align:start;writing-mode:lr-tb;text-anchor:start"
         id="path3380" />
      <path
         d="m 677.64369,972.4989 -12.30468,-1.14258 q 1.14257,-2.8125 1.14257,-5.27343 0,-3.60352 -2.10937,-5.44922 -2.02148,-1.84571 -5.53711,-1.84571 -4.74609,0 -7.55859,2.72461 -2.8125,2.63672 -2.8125,7.20703 0,12.30469 17.92968,12.30469 25.04883,0 25.04883,-26.45508 l 0,-1.14257 q 0,-14.67774 -7.64648,-22.76368 -7.5586,-8.17382 -21.18164,-8.17382 -8.87696,0 -15.38086,4.83398 -6.50391,4.83398 -8.52539,13.0957 l -13.79883,0 q -2.19727,-8.61328 -9.14063,-13.27148 -6.94336,-4.6582 -17.13867,-4.6582 -19.07226,0 -19.07226,12.1289 0,5.18555 5.00976,8.4375 5.00977,3.25196 16.61133,3.25196 l 5.00977,0 0,12.65625 -7.11914,0 q -11.60157,0 -16.08399,2.98828 -4.48242,2.98828 -4.48242,8.52539 0,10.54687 14.41406,10.54687 5.53711,0 9.93164,-1.75781 4.48242,-1.8457 9.4043,-5.80078 l 8.61328,10.98633 q -12.83203,10.01953 -28.47656,10.01953 -13.71094,0 -21.18164,-5.88867 -7.47071,-5.97657 -7.47071,-15.9961 0,-6.41601 3.51563,-11.16211 3.51562,-4.83398 11.60156,-8.70117 -14.0625,-6.32812 -14.0625,-20.03906 0,-10.10742 9.05274,-16.52344 9.05273,-6.50391 24.43359,-6.50391 11.68945,0 19.51172,3.42774 7.82226,3.42773 14.0625,11.25 5.71289,-7.55859 13.35937,-11.07422 7.64649,-3.60352 18.72071,-3.60352 20.03906,0 31.11328,12.04102 11.16211,12.04102 11.16211,32.7832 0,18.45703 -10.54688,29.26758 -10.45898,10.72266 -29.17969,10.72266 -15.02929,0 -23.3789,-6.76758 -8.34961,-6.76758 -8.34961,-18.54492 0,-9.75586 6.76758,-16.25977 6.76758,-6.5039 17.66601,-6.5039 9.93164,0 15.38086,4.30664 5.44922,4.21875 5.44922,11.60156 0,6.41601 -2.37305,10.19531 z m -11.68945,-65.47851 -101.51367,0 0,-13.97461 97.4707,0 q 13.44727,0 18.8086,-1.66993 5.44921,-1.66992 8.17382,-5.44921 2.72461,-3.86719 2.72461,-10.89844 0,-7.11914 -4.6582,-11.42578 -4.57031,-4.39453 -11.95312,-4.39453 -5.09766,0 -9.22852,2.19726 -4.04297,2.19727 -6.15234,6.15235 4.30664,0 6.85546,2.10937 2.63672,2.10938 2.63672,5.625 0,4.13086 -2.63672,6.41602 -2.63671,2.28515 -7.29492,2.28515 -5.88867,0 -9.05273,-3.95508 -3.16406,-3.95507 -3.16406,-10.2832 0,-9.22851 7.99804,-16.08398 7.99805,-6.85547 20.83008,-6.85547 13.79883,0 22.06055,8.34961 8.34961,8.34961 8.34961,21.97265 0,14.15039 -9.05274,22.06055 -9.05273,7.82227 -31.20117,7.82227 z"
         style="font-style:normal;font-variant:normal;font-weight:normal;font-stretch:normal;font-size:180px;line-height:125%;font-family:'Noto Sans Kannada';-inkscape-font-specification:'Noto Sans Kannada, Normal';text-align:start;writing-mode:lr-tb;text-anchor:start"
         id="path3382" />
    </g>
  </g>
</svg>
