<?xml version="1.0" encoding="UTF-8" standalone="no"?>
<!-- Created with Inkscape (http://www.inkscape.org/) -->

<svg
   xmlns:dc="http://purl.org/dc/elements/1.1/"
   xmlns:cc="http://creativecommons.org/ns#"
   xmlns:rdf="http://www.w3.org/1999/02/22-rdf-syntax-ns#"
   xmlns:svg="http://www.w3.org/2000/svg"
   xmlns="http://www.w3.org/2000/svg"
   xmlns:sodipodi="http://sodipodi.sourceforge.net/DTD/sodipodi-0.dtd"
   xmlns:inkscape="http://www.inkscape.org/namespaces/inkscape"
   width="150mm"
   height="60mm"
   viewBox="0 0 531.49606 212.59842"
   id="svg2"
   version="1.1"
   inkscape:version="0.91 r13725"
   sodipodi:docname="taraqqee (improvement) good.svg">
  <defs
     id="defs4" />
  <sodipodi:namedview
     id="base"
     pagecolor="#ffffff"
     bordercolor="#666666"
     borderopacity="1.0"
     inkscape:pageopacity="0.0"
     inkscape:pageshadow="2"
     inkscape:zoom="0.35"
     inkscape:cx="-283.57143"
     inkscape:cy="520"
     inkscape:document-units="px"
     inkscape:current-layer="layer1"
     showgrid="false"
     inkscape:window-width="1920"
     inkscape:window-height="1027"
     inkscape:window-x="-8"
     inkscape:window-y="-8"
     inkscape:window-maximized="1" />
  <metadata
     id="metadata7">
    <rdf:RDF>
      <cc:Work
         rdf:about="">
        <dc:format>image/svg+xml</dc:format>
        <dc:type
           rdf:resource="http://purl.org/dc/dcmitype/StillImage" />
        <dc:title></dc:title>
      </cc:Work>
    </rdf:RDF>
  </metadata>
  <g
     inkscape:label="Layer 1"
     inkscape:groupmode="layer"
     id="layer1"
     transform="translate(0,-839.76378)">
    <g
       style="font-style:normal;font-weight:normal;font-size:40px;line-height:125%;font-family:sans-serif;letter-spacing:0px;word-spacing:0px;fill:#000000;fill-opacity:1;stroke:none;stroke-width:1px;stroke-linecap:butt;stroke-linejoin:miter;stroke-opacity:1"
       id="text3336">
      <path
         d="m 137.28795,918.98059 -25.04883,0 0,101.95311 -15.468749,0 0,-56.51366 -44.296875,0 q -8.349609,0 -13.359375,4.92188 -5.009765,4.92187 -5.009765,13.00781 0,11.25 9.052734,21.70897 2.109375,2.5488 17.666016,16.4356 L 48.6942,1030.9532 q -30.058594,-27.1582 -30.058594,-47.54878 0,-15.11719 8.173828,-24.08203 8.261719,-8.96485 23.291016,-8.96485 l 46.669921,0 0,-31.37695 -85.517578,0 0,-14.0625 126.035157,0 0,14.0625 z m -64.248047,107.57811 0,0 z m 0,-115.22459 0,0 z m 31.464847,0 0,0 z m 0,102.04099 0,0 z"
         style="font-style:normal;font-variant:normal;font-weight:normal;font-stretch:normal;font-size:180px;font-family:'Mangal Sample';-inkscape-font-specification:'Mangal Sample'"
         id="path3341" />
      <path
         d="m 221.83873,918.98059 -36.03516,0 0,25.83984 q 0,14.94141 -2.37304,22.06055 -4.13086,12.30469 -15.9961,12.30469 l 35.41993,41.48433 -11.95313,10.1075 -56.33789,-65.74222 12.04102,-10.01953 9.58007,11.25 q 0.70313,0.79101 2.8125,0.79101 11.33789,0 11.33789,-18.01758 l 0,-30.05859 -39.19921,0 0,-14.0625 90.70312,0 0,14.0625 z m -48.33984,94.39451 0,0 z m 4.57031,-102.04099 0,0 z m -4.57031,0 0,0 z"
         style="font-style:normal;font-variant:normal;font-weight:normal;font-stretch:normal;font-size:180px;font-family:'Mangal Sample';-inkscape-font-specification:'Mangal Sample'"
         id="path3343" />
      <path
         d="m 334.51451,904.91809 0,14.0625 -40.86914,0 0,37.35352 q 3.25195,-2.8125 6.15235,-4.7461 2.90039,-1.93359 5.71289,-3.16406 2.90039,-1.23047 5.80078,-1.75781 2.98828,-0.52735 6.32812,-0.52735 7.5586,0 13.53516,2.98829 l -2.54883,14.67773 q -0.79102,-0.87891 -2.28516,-1.58203 -1.49414,-0.70313 -3.25195,-1.23047 -1.66992,-0.52734 -3.42773,-0.79102 -1.66993,-0.35156 -2.98828,-0.35156 -3.60352,0 -6.50391,1.05469 -2.90039,0.9668 -5.625,2.8125 -2.63672,1.75781 -5.27344,4.30664 -2.63672,2.46094 -5.625,5.44922 l 0,47.46092 -15.46875,0 0,-37.3535 q -2.10937,1.49414 -5.09765,3.33984 -2.98829,1.75782 -6.50391,3.33985 -3.42774,1.49414 -7.29492,2.54883 -3.86719,0.96679 -7.73438,0.96679 -8.61328,0 -14.50195,-2.63672 -5.80078,-2.63671 -9.4043,-6.76757 -3.60351,-4.13086 -5.18554,-9.14063 -1.58204,-5.00976 -1.58204,-9.75586 0,-6.15234 2.28516,-11.25 2.37305,-5.09765 6.5918,-8.78906 4.21875,-3.69141 10.10742,-5.71289 5.88867,-2.10938 12.91992,-2.10938 4.74609,0 8.61328,0.79102 3.95508,0.79101 7.11914,1.8457 3.16407,1.05469 5.53711,2.19727 2.46094,1.14258 4.13086,1.8457 l 0,-25.3125 -62.66601,0 0,-14.0625 119.0039,0 z m -56.33789,54.93164 q -1.58203,-0.8789 -3.95508,-2.28515 -2.28515,-1.40625 -5.44922,-2.63672 -3.16406,-1.31836 -7.11914,-2.19727 -3.95507,-0.9668 -8.87695,-0.9668 -16.69922,0 -16.69922,12.74414 0,7.38282 4.21875,11.25 4.30664,3.7793 11.25,3.7793 3.42774,0 7.20703,-1.40625 3.86719,-1.40625 7.38282,-3.33984 3.60351,-2.02149 6.76757,-4.21875 3.16407,-2.28516 5.27344,-3.86719 l 0,-6.85547 z m -14.76562,60.29297 -9.93164,9.8438 -9.93164,-9.8438 9.93164,-9.9316 9.93164,9.9316 z"
         style="font-style:normal;font-variant:normal;font-weight:normal;font-stretch:normal;font-size:180px;font-family:'Mangal Sample';-inkscape-font-specification:'Mangal Sample'"
         id="path3345" />
      <path
         d="m 475.49107,904.91809 0,14.0625 -68.99414,0 0,37.35352 q 3.25196,-2.8125 6.15235,-4.7461 2.90039,-1.93359 5.71289,-3.16406 2.90039,-1.23047 5.80078,-1.75781 2.98828,-0.52735 6.32812,-0.52735 6.41602,0 11.60157,2.19727 5.27343,2.10937 8.87695,6.06445 3.60352,3.95508 5.53711,9.58008 2.02148,5.53711 2.02148,12.39258 0,4.6582 -1.14257,9.31641 -1.05469,4.57031 -2.98829,8.96484 -1.8457,4.30664 -4.39453,8.17378 -2.46093,3.8672 -5.18554,6.8555 l -9.58008,-11.86522 q 1.66992,-1.75781 3.33984,-4.39453 1.66992,-2.72461 2.98828,-5.625 1.31836,-2.98828 2.10938,-6.06445 0.8789,-3.07617 0.8789,-5.625 0,-4.48242 -1.58203,-7.5586 -1.58203,-3.16406 -3.95507,-5.09765 -2.28516,-1.9336 -4.92188,-2.72461 -2.54883,-0.87891 -4.57031,-0.87891 -3.60352,0 -6.50391,1.05469 -2.90039,0.9668 -5.625,2.8125 -2.63672,1.75781 -5.27344,4.30664 -2.63671,2.46094 -5.625,5.44922 l 0,47.46092 -15.46875,0 0,-37.3535 q -2.10937,1.49414 -5.09765,3.33984 -2.98828,1.75782 -6.50391,3.33985 -3.42773,1.49414 -7.29492,2.54883 -3.86719,0.96679 -7.73438,0.96679 -8.61328,0 -14.50195,-2.63672 -5.80078,-2.63671 -9.4043,-6.76757 -3.60351,-4.13086 -5.18554,-9.14063 -1.58203,-5.00976 -1.58203,-9.75586 0,-6.15234 2.28515,-11.25 2.37305,-5.09765 6.5918,-8.78906 4.21875,-3.69141 10.10742,-5.71289 5.88867,-2.10938 12.91992,-2.10938 4.7461,0 8.61328,0.79102 3.95508,0.79101 7.11915,1.8457 3.16406,1.05469 5.5371,2.19727 2.46094,1.14258 4.13086,1.8457 l 0,-25.3125 -62.66601,0 0,-14.0625 147.1289,0 z m -84.46289,54.93164 q -1.58203,-0.8789 -3.95507,-2.28515 -2.28516,-1.40625 -5.44922,-2.63672 -3.16407,-1.31836 -7.11914,-2.19727 -3.95508,-0.9668 -8.87696,-0.9668 -16.69922,0 -16.69922,12.74414 0,7.38282 4.21875,11.25 4.30665,3.7793 11.25,3.7793 3.42774,0 7.20704,-1.40625 3.86718,-1.40625 7.38281,-3.33984 3.60351,-2.02149 6.76758,-4.21875 3.16406,-2.28516 5.27343,-3.86719 l 0,-6.85547 z m -18.10546,61.08397 -9.93165,9.8438 -9.93164,-9.8438 9.93164,-9.9316 9.93165,9.9316 z"
         style="font-style:normal;font-variant:normal;font-weight:normal;font-stretch:normal;font-size:180px;font-family:'Mangal Sample';-inkscape-font-specification:'Mangal Sample'"
         id="path3347" />
      <path
         d="m 426.44811,882.50598 0,0 z m 96.15234,36.47461 -26.71875,0 0,101.95311 -15.46875,0 0,-101.95311 -11.07422,0 0,-14.0625 2.10938,0 q -7.47071,-6.94336 -14.94141,-13.97461 -9.05273,-8.08594 -16.43555,-12.04101 -9.66797,-5.09766 -19.51172,-5.09766 -8.87695,0 -14.58984,4.74609 -5.97656,5.00977 -5.97656,13.71094 0,8.52539 8.61328,15.9082 l -8.61328,10.10743 Q 385.40318,905.797 385.40318,889.8009 q 0,-14.50195 10.54688,-23.3789 9.84375,-8.26172 24.69726,-8.26172 19.7754,0 39.55079,15.73242 8.78906,6.94336 30.9375,31.02539 l 31.46484,0 0,14.0625 z m -96.15234,94.39451 0,0 z m 60.46875,-119.61912 0,0 z"
         style="font-style:normal;font-variant:normal;font-weight:normal;font-stretch:normal;font-size:180px;font-family:'Mangal Sample';-inkscape-font-specification:'Mangal Sample'"
         id="path3349" />
    </g>
  </g>
</svg>
