<?xml version="1.0" encoding="UTF-8" standalone="no"?>
<!-- Created with Inkscape (http://www.inkscape.org/) -->

<svg
   xmlns:dc="http://purl.org/dc/elements/1.1/"
   xmlns:cc="http://creativecommons.org/ns#"
   xmlns:rdf="http://www.w3.org/1999/02/22-rdf-syntax-ns#"
   xmlns:svg="http://www.w3.org/2000/svg"
   xmlns="http://www.w3.org/2000/svg"
   xmlns:sodipodi="http://sodipodi.sourceforge.net/DTD/sodipodi-0.dtd"
   xmlns:inkscape="http://www.inkscape.org/namespaces/inkscape"
   width="170mm"
   height="70mm"
   viewBox="0 0 602.36221 248.03149"
   id="svg3355"
   version="1.1"
   inkscape:version="0.91 r13725"
   sodipodi:docname="improvement gurmukhi bad samridhi.svg">
  <defs
     id="defs3357" />
  <sodipodi:namedview
     id="base"
     pagecolor="#ffffff"
     bordercolor="#666666"
     borderopacity="1.0"
     inkscape:pageopacity="0.0"
     inkscape:pageshadow="2"
     inkscape:zoom="0.98994949"
     inkscape:cx="341.87092"
     inkscape:cy="85.09893"
     inkscape:document-units="px"
     inkscape:current-layer="text3363"
     showgrid="false"
     inkscape:window-width="1920"
     inkscape:window-height="1027"
     inkscape:window-x="-8"
     inkscape:window-y="-8"
     inkscape:window-maximized="1" />
  <metadata
     id="metadata3360">
    <rdf:RDF>
      <cc:Work
         rdf:about="">
        <dc:format>image/svg+xml</dc:format>
        <dc:type
           rdf:resource="http://purl.org/dc/dcmitype/StillImage" />
        <dc:title></dc:title>
      </cc:Work>
    </rdf:RDF>
  </metadata>
  <g
     inkscape:label="Layer 1"
     inkscape:groupmode="layer"
     id="layer1"
     transform="translate(0,-804.33071)">
    <g
       style="font-style:normal;font-weight:normal;font-size:180px;line-height:125%;font-family:sans-serif;letter-spacing:0px;word-spacing:0px;fill:#000000;fill-opacity:1;stroke:none;stroke-width:1px;stroke-linecap:butt;stroke-linejoin:miter;stroke-opacity:1"
       id="text3363">
      <path
         d="m 20.875262,879.37944 109.863278,0 0,12.83203 -17.40234,0 0,99.14062 -14.501953,0 0,-46.93359 -42.09961,0 q -0.791015,16.08398 -4.921875,24.25781 -4.042969,8.17383 -10.634765,8.17383 -4.482422,0 -6.591797,-2.54883 -2.021485,-2.63672 -2.021485,-7.91015 0,-5.88868 2.8125,-13.35938 2.8125,-7.55859 8.173828,-13.44726 -1.230468,-25.4004 -9.228515,-47.37305 l -13.447266,0 0,-12.83203 z m 28.828125,12.83203 q 6.94336,21.62109 7.207031,39.375 l 41.923829,0 0,-39.375 -49.13086,0 z"
         style="font-style:normal;font-variant:normal;font-weight:normal;font-stretch:normal;font-size:180px;line-height:125%;font-family:'Noto Sans Gurmukhi';-inkscape-font-specification:'Noto Sans Gurmukhi, Normal';text-align:start;writing-mode:lr-tb;text-anchor:start"
         id="path3368"
         inkscape:connector-curvature="0" />
      <path
         d="m 152.88698,879.37944 q 5.53711,14.23828 8.34961,27.59765 2.8125,13.35938 2.90039,24.60938 l 41.92383,0 0,-52.20703 31.90429,0 0,12.83203 -17.40234,0 0,99.14062 -14.50195,0 0,-46.93359 -42.09961,0 q -0.79102,16.08398 -4.92188,24.25781 -4.04297,8.17383 -10.63476,8.17383 -4.48243,0 -6.5918,-2.54883 -2.02149,-2.63672 -2.02149,-7.91015 0,-5.88868 2.8125,-13.35938 2.8125,-7.55859 8.17383,-13.44726 -1.23047,-25.4004 -9.22851,-47.37305 l -13.44727,0 0,-12.83203 24.78516,0 z m 88.50586,156.18156 q -4.48242,-11.3379 -12.30469,-17.7539 -7.73438,-6.416 -20.56641,-6.416 l -2.28515,0 q -0.87891,0 -1.66992,0.088 l -0.79102,-13.623 q 1.58203,-0.17578 4.48242,-0.17578 16.875,0 28.125,8.70108 11.33789,8.7012 17.49024,25.4004 l -12.48047,3.7793 z"
         style="font-style:normal;font-variant:normal;font-weight:normal;font-stretch:normal;font-size:180px;line-height:125%;font-family:'Noto Sans Gurmukhi';-inkscape-font-specification:'Noto Sans Gurmukhi, Normal';text-align:start;writing-mode:lr-tb;text-anchor:start"
         id="path3370"
         inkscape:connector-curvature="0" />
      <path
         d="m 307.32615,917.87553 0,-25.66406 -74.88281,0 0,-12.83203 106.78711,0 0,12.83203 -17.40235,0 0,68.11523 q 0,12.04102 -3.95508,18.45703 -3.86718,6.32813 -10.63476,9.49219 -6.67969,3.07617 -17.66602,3.07617 -11.51367,0 -22.32422,-5.44922 -10.72265,-5.5371 -18.80859,-16.96289 -7.99805,-11.42578 -7.99805,-23.99414 0,-9.40429 4.92188,-15.55664 4.92187,-6.15234 13.0957,-8.78906 8.26172,-2.72461 24.25781,-2.72461 l 24.60938,0 z m 0,12.83203 -22.85156,0 q -11.68946,0 -17.40235,1.14258 -5.71289,1.14258 -8.96484,4.57031 -3.16406,3.33985 -3.16406,9.49219 0,7.29492 5.71289,15.38086 5.80078,8.08594 13.62304,12.56836 7.91016,4.39453 15.90821,4.39453 7.4707,0 10.98633,-2.02148 3.51562,-2.02149 4.83398,-5.71289 1.31836,-3.69141 1.31836,-12.12891 l 0,-27.68555 z m -8.78906,60.64453 0,0 z"
         style="font-style:normal;font-variant:normal;font-weight:normal;font-stretch:normal;font-size:180px;line-height:125%;font-family:'Noto Sans Gurmukhi';-inkscape-font-specification:'Noto Sans Gurmukhi, Normal';text-align:start;writing-mode:lr-tb;text-anchor:start"
         id="path3372"
         inkscape:connector-curvature="0" />
      <path
         d="m 353.14954,892.21147 -17.31445,0 0,-12.83203 17.31445,0 0,-8.26172 q 0,-14.41406 3.25196,-22.76367 3.33984,-8.4375 10.72265,-13.35938 7.38281,-5.00976 18.89649,-5.00976 14.0625,0 22.14843,8.26171 8.08594,8.26172 8.08594,23.29102 0,4.74609 -1.14258,11.95313 l -14.0625,-1.40625 q 0.9668,-5.18555 0.9668,-10.98633 0,-9.31641 -4.04297,-13.88672 -3.95508,-4.57031 -12.12891,-4.57031 -6.76757,0 -11.07421,3.51562 -4.21875,3.51563 -5.71289,9.4043 -1.40625,5.80078 -1.40625,15.11719 l 0,8.70117 17.40234,0 0,12.83203 -17.40234,0 0,99.14062 -14.50196,0 0,-99.14062 z"
         style="font-style:normal;font-variant:normal;font-weight:normal;font-stretch:normal;font-size:180px;line-height:125%;font-family:'Noto Sans Gurmukhi';-inkscape-font-specification:'Noto Sans Gurmukhi, Normal';text-align:start;writing-mode:lr-tb;text-anchor:start"
         id="path3374"
         inkscape:connector-curvature="0" />
      <path
         d="m 387.00892,835.96147 q -0.52735,16.08398 -7.11914,24.08203 -6.5918,7.99805 -19.42383,7.99805 -12.91992,0 -19.59961,-7.99805 -6.76758,-7.99805 -7.20703,-24.08203 l 13.53515,-0.79102 q 0,11.07422 2.90039,15.90821 2.8125,4.83398 10.19532,4.83398 7.4707,0 10.37109,-4.92187 2.8125,-5.00977 2.8125,-15.82032 l 13.53516,0.79102 z m -19.42383,43.41797 0,0 z m 1.66992,-49.39453 0,0 z"
         style="font-style:normal;font-variant:normal;font-weight:normal;font-stretch:normal;font-size:180px;line-height:125%;font-family:'Noto Sans Gurmukhi';-inkscape-font-specification:'Noto Sans Gurmukhi, Normal';text-align:start;writing-mode:lr-tb;text-anchor:start"
         id="path3378"
         inkscape:connector-curvature="0" />
      <path
         d="m 459.78235,962.08452 q -11.86523,5.44921 -25.04882,5.44921 -14.76563,0 -25.83985,-8.96484 -11.07422,-9.05273 -18.36914,-27.07031 6.67969,-5.625 9.58008,-11.07422 2.98828,-5.44922 2.98828,-11.77734 0,-3.95508 -1.14258,-8.4375 -1.14257,-4.48243 -3.16406,-7.99805 l -16.43555,0 0,-12.83203 109.33594,0 0,12.83203 -17.40234,0 0,99.14062 -14.50196,0 0,-29.26757 z m -45.61523,-69.87305 q 3.25195,8.61328 3.25195,16.34765 0,15.0293 -9.93164,23.99415 5.625,11.60156 12.04102,16.69921 6.5039,5.09766 15.29297,5.09766 6.76758,0 12.74414,-1.93359 6.06445,-1.9336 12.21679,-5.625 l 0,-54.58008 -45.61523,0 z"
         style="font-style:normal;font-variant:normal;font-weight:normal;font-stretch:normal;font-size:180px;line-height:125%;font-family:'Noto Sans Gurmukhi';-inkscape-font-specification:'Noto Sans Gurmukhi, Normal';text-align:start;writing-mode:lr-tb;text-anchor:start"
         id="path3380"
         inkscape:connector-curvature="0" />
      <path
         d="m 521.04212,991.35209 -14.50195,0 0,-99.14062 -17.31446,0 0,-12.83203 17.31446,0 0,-5.71289 q 0,-13.00782 -1.49414,-18.8086 -1.49414,-5.80078 -5.36133,-8.96484 -3.7793,-3.25195 -10.2832,-3.25195 -8.70118,0 -13.00782,4.6582 -4.30664,4.6582 -4.30664,14.32617 0,4.48242 1.05469,10.45899 l -14.0625,1.40625 q -1.23047,-8.5254 -1.23047,-12.04102 0,-14.58984 8.61328,-23.02734 8.61328,-8.4375 23.37891,-8.4375 11.95312,0 18.98437,5.18554 7.11914,5.18555 9.66797,13.44727 2.54883,8.17383 2.54883,22.5 l 0,8.26172 17.40234,0 0,12.83203 -17.40234,0 0,99.14062 z"
         style="font-style:normal;font-variant:normal;font-weight:normal;font-stretch:normal;font-size:180px;line-height:125%;font-family:'Noto Sans Gurmukhi';-inkscape-font-specification:'Noto Sans Gurmukhi, Normal';text-align:start;writing-mode:lr-tb;text-anchor:start"
         id="path3382"
         inkscape:connector-curvature="0" />
    </g>
  </g>
</svg>
