<?xml version="1.0" encoding="UTF-8" standalone="no"?>
<!-- Created with Inkscape (http://www.inkscape.org/) -->

<svg
   xmlns:dc="http://purl.org/dc/elements/1.1/"
   xmlns:cc="http://creativecommons.org/ns#"
   xmlns:rdf="http://www.w3.org/1999/02/22-rdf-syntax-ns#"
   xmlns:svg="http://www.w3.org/2000/svg"
   xmlns="http://www.w3.org/2000/svg"
   xmlns:sodipodi="http://sodipodi.sourceforge.net/DTD/sodipodi-0.dtd"
   xmlns:inkscape="http://www.inkscape.org/namespaces/inkscape"
   width="140mm"
   height="70mm"
   viewBox="0 0 496.06299 248.03149"
   id="svg2"
   version="1.1"
   inkscape:version="0.91 r13725"
   sodipodi:docname="improvement gurmukhi good samridhi.svg">
  <defs
     id="defs4" />
  <sodipodi:namedview
     id="base"
     pagecolor="#ffffff"
     bordercolor="#666666"
     borderopacity="1.0"
     inkscape:pageopacity="0.0"
     inkscape:pageshadow="2"
     inkscape:zoom="0.35"
     inkscape:cx="-283.57143"
     inkscape:cy="520"
     inkscape:document-units="px"
     inkscape:current-layer="layer1"
     showgrid="false"
     inkscape:window-width="1920"
     inkscape:window-height="1027"
     inkscape:window-x="-8"
     inkscape:window-y="-8"
     inkscape:window-maximized="1" />
  <metadata
     id="metadata7">
    <rdf:RDF>
      <cc:Work
         rdf:about="">
        <dc:format>image/svg+xml</dc:format>
        <dc:type
           rdf:resource="http://purl.org/dc/dcmitype/StillImage" />
        <dc:title></dc:title>
      </cc:Work>
    </rdf:RDF>
  </metadata>
  <g
     inkscape:label="Layer 1"
     inkscape:groupmode="layer"
     id="layer1"
     transform="translate(0,-804.33071)">
    <g
       style="font-style:normal;font-weight:normal;font-size:180px;line-height:125%;font-family:sans-serif;letter-spacing:0px;word-spacing:0px;fill:#000000;fill-opacity:1;stroke:none;stroke-width:1px;stroke-linecap:butt;stroke-linejoin:miter;stroke-opacity:1"
       id="text3336">
      <path
         d="m 35.824497,874.67529 109.863283,0 0,12.83203 -17.40235,0 0,99.14063 -14.50195,0 0,-46.93359 -42.099608,0 q -0.791015,16.08398 -4.921875,24.25781 -4.042969,8.17383 -10.634765,8.17383 -4.482422,0 -6.591797,-2.54883 -2.021485,-2.63672 -2.021485,-7.91016 0,-5.88867 2.8125,-13.35937 2.8125,-7.5586 8.173828,-13.44727 -1.230468,-25.40039 -9.228515,-47.37305 l -13.447266,0 0,-12.83203 z m 28.828125,12.83203 q 6.94336,21.6211 7.207031,39.375 l 41.923827,0 0,-39.375 -49.130858,0 z"
         style="font-style:normal;font-variant:normal;font-weight:normal;font-stretch:normal;font-size:180px;line-height:125%;font-family:'Noto Sans Gurmukhi';-inkscape-font-specification:'Noto Sans Gurmukhi, Normal';text-align:start;writing-mode:lr-tb;text-anchor:start"
         id="path3341" />
      <path
         d="m 160.36551,887.50732 -17.31445,0 0,-12.83203 17.31445,0 0,-8.26172 q 0,-14.41406 3.25196,-22.76367 3.33984,-8.4375 10.72265,-13.35937 7.38281,-5.00977 18.89649,-5.00977 14.0625,0 22.14843,8.26172 8.08594,8.26172 8.08594,23.29102 0,4.74609 -1.14258,11.95312 l -14.0625,-1.40625 q 0.9668,-5.18555 0.9668,-10.98633 0,-9.3164 -4.04297,-13.88672 -3.95508,-4.57031 -12.1289,-4.57031 -6.76758,0 -11.07422,3.51563 -4.21875,3.51562 -5.71289,9.40429 -1.40625,5.80078 -1.40625,15.11719 l 0,8.70117 17.40234,0 0,12.83203 -17.40234,0 0,99.14063 -14.50196,0 0,-99.14063 z"
         style="font-style:normal;font-variant:normal;font-weight:normal;font-stretch:normal;font-size:180px;line-height:125%;font-family:'Noto Sans Gurmukhi';-inkscape-font-specification:'Noto Sans Gurmukhi, Normal';text-align:start;writing-mode:lr-tb;text-anchor:start"
         id="path3343" />
      <path
         d="m 214.59403,874.67529 q 5.53711,14.23828 8.34961,27.59766 2.8125,13.35937 2.90039,24.60937 l 41.92383,0 0,-52.20703 31.90429,0 0,12.83203 -17.40234,0 0,99.14063 -14.50195,0 0,-46.93359 -42.09961,0 q -0.79102,16.08398 -4.92188,24.25781 -4.04297,8.17383 -10.63476,8.17383 -4.48243,0 -6.5918,-2.54883 -2.02148,-2.63672 -2.02148,-7.91016 0,-5.88867 2.8125,-13.35937 2.8125,-7.5586 8.17382,-13.44727 -1.23047,-25.40039 -9.22851,-47.37305 l -13.44727,0 0,-12.83203 24.78516,0 z"
         style="font-style:normal;font-variant:normal;font-weight:normal;font-stretch:normal;font-size:180px;line-height:125%;font-family:'Noto Sans Gurmukhi';-inkscape-font-specification:'Noto Sans Gurmukhi, Normal';text-align:start;writing-mode:lr-tb;text-anchor:start"
         id="path3345" />
      <path
         d="m 295.80497,1034.812 q -10.10743,-14.5019 -21.70899,-20.3906 -3.42773,3.5156 -7.55859,5.2734 -4.21875,1.7578 -9.14063,1.7578 -7.91015,0 -12.04101,-2.9004 -4.21875,-2.8125 -4.21875,-8.3496 0,-5.3613 4.30664,-8.1738 4.30664,-2.7246 12.30469,-2.7246 4.30664,0 9.75585,0.9668 0.26368,-1.75782 0.26368,-3.60352 l 0,-10.01953 14.50195,0 0,3.07617 q 0,10.28318 -1.8457,14.41408 13.0957,5.9765 26.10351,23.6426 l -10.72265,7.0312 z m 8.78906,-12.832 0,0 z m -30.32227,-5.0098 0,0 z"
         style="font-style:normal;font-variant:normal;font-weight:normal;font-stretch:normal;font-size:180px;line-height:125%;font-family:'Noto Sans Gurmukhi';-inkscape-font-specification:'Noto Sans Gurmukhi, Normal';text-align:start;writing-mode:lr-tb;text-anchor:start"
         id="path3347" />
      <path
         d="m 301.69364,831.25732 q -0.52735,16.08399 -7.11914,24.08204 -6.5918,7.99804 -19.42383,7.99804 -12.91992,0 -19.59961,-7.99804 -6.76758,-7.99805 -7.20703,-24.08204 l 13.53515,-0.79101 q 0,11.07422 2.9004,15.9082 2.8125,4.83399 10.19531,4.83399 7.4707,0 10.37109,-4.92188 2.8125,-5.00976 2.8125,-15.82031 l 13.53516,0.79101 z m -19.42383,43.41797 0,0 z m 1.66992,-49.39453 0,0 z"
         style="font-style:normal;font-variant:normal;font-weight:normal;font-stretch:normal;font-size:180px;line-height:125%;font-family:'Noto Sans Gurmukhi';-inkscape-font-specification:'Noto Sans Gurmukhi, Normal';text-align:start;writing-mode:lr-tb;text-anchor:start"
         id="path3349" />
      <path
         d="m 374.46708,957.38037 q -11.86524,5.44922 -25.04883,5.44922 -14.76563,0 -25.83985,-8.96484 -11.07422,-9.05274 -18.36914,-27.07032 6.67969,-5.625 9.58008,-11.07422 2.98828,-5.44921 2.98828,-11.77734 0,-3.95508 -1.14258,-8.4375 -1.14257,-4.48242 -3.16406,-7.99805 l -16.43555,0 0,-12.83203 109.33594,0 0,12.83203 -17.40234,0 0,99.14063 -14.50195,0 0,-29.26758 z m -45.61524,-69.87305 q 3.25195,8.61329 3.25195,16.34766 0,15.0293 -9.93164,23.99414 5.625,11.60156 12.04102,16.69922 6.50391,5.09766 15.29297,5.09766 6.76758,0 12.74414,-1.9336 6.06445,-1.93359 12.2168,-5.625 l 0,-54.58008 -45.61524,0 z"
         style="font-style:normal;font-variant:normal;font-weight:normal;font-stretch:normal;font-size:180px;line-height:125%;font-family:'Noto Sans Gurmukhi';-inkscape-font-specification:'Noto Sans Gurmukhi, Normal';text-align:start;writing-mode:lr-tb;text-anchor:start"
         id="path3351" />
      <path
         d="m 435.72684,986.64795 -14.50195,0 0,-99.14063 -17.31446,0 0,-12.83203 17.31446,0 0,-5.71289 q 0,-13.00781 -1.49414,-18.80859 -1.49414,-5.80078 -5.36133,-8.96485 -3.7793,-3.25195 -10.2832,-3.25195 -8.70118,0 -13.00782,4.6582 -4.30664,4.65821 -4.30664,14.32618 0,4.48242 1.05469,10.45898 l -14.0625,1.40625 q -1.23047,-8.52539 -1.23047,-12.04101 0,-14.58985 8.61328,-23.02735 8.61328,-8.4375 23.37891,-8.4375 11.95312,0 18.98437,5.18555 7.11914,5.18555 9.66797,13.44726 2.54883,8.17383 2.54883,22.5 l 0,8.26172 17.40234,0 0,12.83203 -17.40234,0 0,99.14063 z"
         style="font-style:normal;font-variant:normal;font-weight:normal;font-stretch:normal;font-size:180px;line-height:125%;font-family:'Noto Sans Gurmukhi';-inkscape-font-specification:'Noto Sans Gurmukhi, Normal';text-align:start;writing-mode:lr-tb;text-anchor:start"
         id="path3353" />
    </g>
  </g>
</svg>
