<?xml version="1.0" encoding="UTF-8" standalone="no"?>
<!-- Created with Inkscape (http://www.inkscape.org/) -->

<svg
   xmlns:dc="http://purl.org/dc/elements/1.1/"
   xmlns:cc="http://creativecommons.org/ns#"
   xmlns:rdf="http://www.w3.org/1999/02/22-rdf-syntax-ns#"
   xmlns:svg="http://www.w3.org/2000/svg"
   xmlns="http://www.w3.org/2000/svg"
   xmlns:sodipodi="http://sodipodi.sourceforge.net/DTD/sodipodi-0.dtd"
   xmlns:inkscape="http://www.inkscape.org/namespaces/inkscape"
   width="350mm"
   height="70mm"
   viewBox="0 0 1240.1575 248.03149"
   id="svg2"
   version="1.1"
   inkscape:version="0.91 r13725"
   sodipodi:docname="sanskrit tamil bad camaskirutam.svg">
  <defs
     id="defs4" />
  <sodipodi:namedview
     id="base"
     pagecolor="#ffffff"
     bordercolor="#666666"
     borderopacity="1.0"
     inkscape:pageopacity="0.0"
     inkscape:pageshadow="2"
     inkscape:zoom="2.8"
     inkscape:cx="1053.2581"
     inkscape:cy="124.01575"
     inkscape:document-units="px"
     inkscape:current-layer="text3357"
     showgrid="false"
     inkscape:window-width="1920"
     inkscape:window-height="1027"
     inkscape:window-x="-8"
     inkscape:window-y="-8"
     inkscape:window-maximized="1" />
  <metadata
     id="metadata7">
    <rdf:RDF>
      <cc:Work
         rdf:about="">
        <dc:format>image/svg+xml</dc:format>
        <dc:type
           rdf:resource="http://purl.org/dc/dcmitype/StillImage" />
        <dc:title></dc:title>
      </cc:Work>
    </rdf:RDF>
  </metadata>
  <g
     inkscape:label="Layer 1"
     inkscape:groupmode="layer"
     id="layer1"
     transform="translate(0,-804.33071)">
    <g
       style="font-style:normal;font-weight:normal;font-size:180px;line-height:125%;font-family:sans-serif;letter-spacing:0px;word-spacing:0px;fill:#000000;fill-opacity:1;stroke:none;stroke-width:1px;stroke-linecap:butt;stroke-linejoin:miter;stroke-opacity:1"
       id="text3357">
      <path
         d="m 37.311663,875.55139 94.130857,0 0,13.00781 -33.662107,0 0,27.59766 33.662107,0 0,12.56836 -33.662107,0 0,5.88867 q 0,18.19336 -5.361328,26.80664 -5.273438,8.52539 -14.326172,12.2168 -8.964844,3.60351 -22.5,3.60351 -10.810547,0 -19.775391,-3.77929 -8.876953,-3.7793 -13.710937,-10.54688 -4.746094,-6.85547 -4.746094,-15.64453 0,-9.58008 4.921875,-16.17187 5.009765,-6.67969 15.029297,-10.45899 l 0,-45.08789 z m 30.9375,40.60547 14.238281,0 0,-27.59766 -31.025391,0 0,28.65235 q 7.382813,-1.05469 16.78711,-1.05469 z m 14.238281,12.56836 -15.46875,0 q -18.017578,0 -26.103516,4.39453 -7.998047,4.30664 -7.998047,14.50195 0,7.82227 6.416016,12.2168 6.416016,4.39453 17.578125,4.39453 13.886719,0 19.6875,-6.67969 5.888672,-6.67968 5.888672,-20.65429 l 0,-8.17383 z"
         style="font-style:normal;font-variant:normal;font-weight:normal;font-stretch:normal;font-size:180px;line-height:125%;font-family:'Noto Sans Tamil';-inkscape-font-specification:'Noto Sans Tamil, Normal';text-align:start;writing-mode:lr-tb;text-anchor:start"
         id="path3362" />
      <path
         d="m 154.46987,975.21936 0,-99.66797 15.55664,0 0,86.66016 40.60547,0 0,-50.88867 q 0,-14.50196 3.51562,-22.32422 3.51563,-7.91016 10.72266,-11.86524 7.20703,-4.04297 18.10547,-4.04297 18.89648,0 29.0039,14.41407 10.19531,14.32617 10.19531,40.51757 0,11.68946 -2.46093,20.56641 -2.46094,8.87695 -8.08594,15.0293 -5.625,6.06445 -14.32617,8.87695 -8.61328,2.72461 -26.45508,2.72461 l -76.37695,0 z m 71.71875,-13.00781 8.4375,0 q 11.68945,0 18.45703,-3.07617 6.85547,-3.07618 10.01953,-10.3711 3.25195,-7.29492 3.25195,-21.5332 0,-19.33594 -6.15234,-30.23438 -6.15235,-10.89843 -17.49024,-10.89843 -6.24023,0 -10.2832,3.6914 -3.95508,3.69141 -5.09766,9.31641 -1.14257,5.625 -1.14257,15.9082 l 0,47.19727 z"
         style="font-style:normal;font-variant:normal;font-weight:normal;font-stretch:normal;font-size:180px;line-height:125%;font-family:'Noto Sans Tamil';-inkscape-font-specification:'Noto Sans Tamil, Normal';text-align:start;writing-mode:lr-tb;text-anchor:start"
         id="path3364" />
      <path
         d="m 395.55385,892.86584 q 3.86719,-9.75585 10.89844,-14.76562 7.11914,-5.00977 16.61133,-5.00977 14.32617,0 22.41211,9.4043 8.17382,9.4043 8.17382,30.9375 l 0,14.85352 q 0,14.32617 2.54883,21.5332 2.54883,7.11914 7.38281,10.63477 4.92188,3.51562 12.83204,3.51562 10.72265,0 16.08398,-7.82227 5.44922,-7.82226 5.44922,-23.55468 0,-15.73242 -5.71289,-29.70703 -5.625,-13.97461 -16.875,-26.10352 l 14.0625,-9.49219 q 12.39258,15.64453 18.28125,31.46485 5.88867,15.73242 5.88867,32.51953 0,22.85156 -9.66797,34.45312 -9.66797,11.60157 -28.65234,11.60157 -18.54492,0 -27.86133,-11.3379 -9.31641,-11.42578 -9.31641,-33.39843 l 0,-9.14063 q 0,-17.22656 -1.8457,-24.43359 -1.75781,-7.20703 -5.36133,-10.01953 -3.60351,-2.8125 -9.3164,-2.8125 -7.11915,0 -11.51368,7.20703 -4.30664,7.11914 -4.30664,18.63281 l 0,63.19336 -15.55664,0 0,-53.87695 q 0,-11.51367 -4.13086,-19.33594 -4.04297,-7.91016 -11.60156,-11.68945 -7.55859,-3.86719 -16.78711,-3.86719 -15.11719,0 -25.57617,9.84375 -10.45899,9.84375 -13.18359,26.63086 10.37109,-6.76758 21.70898,-6.76758 13.35937,0 21.18164,7.91016 7.91016,7.91015 7.91016,21.5332 0,14.67773 -8.17383,23.20312 -8.17383,8.5254 -22.32422,8.5254 -15.9082,0 -25.57617,-11.95313 -9.66797,-12.04102 -9.66797,-34.27734 0,-17.66602 6.94336,-30.76172 6.94336,-13.1836 19.6875,-20.21485 12.74414,-7.03125 28.65234,-7.03125 23.73047,0 36.29883,19.77539 z m -77.25586,44.20899 q 0.79102,13.79883 6.24024,20.91797 5.44921,7.11914 15.02929,7.11914 6.94336,0 11.16211,-4.6582 4.21875,-4.65821 4.21875,-13.1836 0,-8.61328 -4.6582,-13.53515 -4.57031,-4.92188 -12.2168,-4.92188 -10.10742,0 -19.77539,8.26172 z m 79.10156,-61.52344 0,0 z"
         style="font-style:normal;font-variant:normal;font-weight:normal;font-stretch:normal;font-size:180px;line-height:125%;font-family:'Noto Sans Tamil';-inkscape-font-specification:'Noto Sans Tamil, Normal';text-align:start;writing-mode:lr-tb;text-anchor:start"
         id="path3366" />
      <path
         d="m 487.0558,843.18616 q 0,5.27343 -3.42773,8.70117 -3.51563,3.42773 -8.70117,3.42773 -5.18555,0 -8.61328,-3.33984 -3.42774,-3.42773 -3.42774,-8.78906 0,-5.18555 3.42774,-8.61328 3.33984,-3.42774 8.61328,-3.42774 5.27343,0 8.70117,3.42774 3.42773,3.42773 3.42773,8.61328 z m -11.77734,-17.66602 0,0 z m -0.35156,52.03125 0,0 z"
         style="font-style:normal;font-variant:normal;font-weight:normal;font-stretch:normal;font-size:180px;line-height:125%;font-family:'Noto Sans Tamil';-inkscape-font-specification:'Noto Sans Tamil, Normal';text-align:start;writing-mode:lr-tb;text-anchor:start"
         id="path3370"
         inkscape:connector-curvature="0" />
      <path
         d="m 553.40765,875.55139 94.13086,0 0,13.00781 -33.66211,0 0,27.59766 4.92187,0 q 23.81836,0 34.7168,8.26172 10.89844,8.26172 10.89844,23.4668 0,13.71093 -8.17383,21.18164 -8.17383,7.4707 -23.29102,7.4707 -3.95507,0 -8.87695,-0.70313 -4.92187,-0.70312 -8.87695,-1.93359 l 3.33984,-11.86523 q 6.32813,1.8457 12.30469,1.8457 9.14062,0 13.53515,-4.04297 4.48243,-4.04297 4.48243,-12.74414 0,-9.14062 -6.94336,-13.71094 -6.94336,-4.6582 -23.90625,-4.6582 l -4.13086,0 0,5.88867 q 0,18.19336 -5.36133,26.80664 -5.27344,8.52539 -14.32617,12.2168 -8.96485,3.60351 -22.5,3.60351 -16.78711,0 -27.50977,-8.08593 -10.72265,-8.17383 -10.72265,-21.88477 0,-9.58008 4.92187,-16.17187 5.00977,-6.67969 15.0293,-10.45899 l 0,-45.08789 z m 30.9375,40.60547 14.23828,0 0,-27.59766 -31.02539,0 0,28.65235 q 7.38281,-1.05469 16.78711,-1.05469 z m 14.23828,12.56836 -15.46875,0 q -18.01758,0 -26.10352,4.39453 -7.99804,4.30664 -7.99804,14.50195 0,7.82227 6.41601,12.2168 6.41602,4.39453 17.57813,4.39453 13.88672,0 19.6875,-6.67969 5.88867,-6.67968 5.88867,-20.65429 l 0,-8.17383 z"
         style="font-style:normal;font-variant:normal;font-weight:normal;font-stretch:normal;font-size:180px;line-height:125%;font-family:'Noto Sans Tamil';-inkscape-font-specification:'Noto Sans Tamil, Normal';text-align:start;writing-mode:lr-tb;text-anchor:start"
         id="path3372"
         inkscape:connector-curvature="0" />
      <path
         d="m 622.26088,882.58264 q -2.46094,-4.6582 -3.7793,-10.54687 -1.40625,-5.88868 -1.40625,-11.33789 0,-17.49024 11.07422,-27.33399 11.07422,-9.84375 29.00391,-9.84375 14.67773,0 25.40039,7.20703 10.72266,7.11914 15.46875,19.51172 4.7461,12.30469 4.7461,34.62891 l 0,90.35156 -15.55665,0 0,-84.81445 q 0,-20.83008 -2.98828,-31.46485 -2.98828,-10.63476 -10.01953,-16.25976 -6.94336,-5.625 -17.40234,-5.625 -11.33789,0 -17.75391,6.41601 -6.41601,6.32813 -6.41601,17.13868 0,12.04101 6.15234,21.97265 l -16.52344,0 z m 21.00586,-7.03125 0,0 z"
         style="font-style:normal;font-variant:normal;font-weight:normal;font-stretch:normal;font-size:180px;line-height:125%;font-family:'Noto Sans Tamil';-inkscape-font-specification:'Noto Sans Tamil, Normal';text-align:start;writing-mode:lr-tb;text-anchor:start"
         id="path3376"
         inkscape:connector-curvature="0" />
      <path
         d="m 830.38026,875.55139 0,13.00781 -30.498,0 0,86.66016 -40.166,38.23244 -10.2832,-9.668 34.8047,-32.95897 0,-82.26563 -34.7168,0 0,86.66016 -15.5567,0 0,-99.66797 96.416,0 z m -58.5351,157.50001 0,0 z"
         style="font-style:normal;font-variant:normal;font-weight:normal;font-stretch:normal;font-size:180px;line-height:125%;font-family:'Noto Sans Tamil';-inkscape-font-specification:'Noto Sans Tamil, Normal';text-align:start;writing-mode:lr-tb;text-anchor:start"
         id="path3378"
         inkscape:connector-curvature="0" />
      <path
         d="m 876.1183,875.55139 q 16.084,0 24.2578,4.48242 8.1738,4.39453 12.041,11.33789 3.8672,6.85547 3.8672,15.73243 0,12.83203 -8.789,20.91796 -8.7012,8.08594 -21.709,8.08594 -16.875,0 -25.752,-9.66797 -8.789,-9.66797 -8.789,-26.10351 0,-6.5918 0.7031,-11.77735 l -59.502,0 0,-13.00781 83.6719,0 z m -8.7012,13.00781 q -0.791,4.7461 -0.791,11.16211 0,11.60157 4.6582,17.49024 4.7461,5.80078 13.7988,5.80078 7.295,0 11.5137,-4.39453 4.3067,-4.48242 4.3067,-11.60156 0,-6.5918 -3.6914,-10.98633 -3.6915,-4.48242 -9.4043,-5.97657 -5.625,-1.49414 -17.1387,-1.49414 l -3.252,0 z m 9.4922,88.76954 0,0 z"
         style="font-style:normal;font-variant:normal;font-weight:normal;font-stretch:normal;font-size:180px;line-height:125%;font-family:'Noto Sans Tamil';-inkscape-font-specification:'Noto Sans Tamil, Normal';text-align:start;writing-mode:lr-tb;text-anchor:start"
         id="path3382"
         inkscape:connector-curvature="0" />
      <path
         d="m 951.9679,875.55139 94.1309,0 0,13.00781 -33.6621,0 0,27.68555 q 25.5761,0.70313 38.0566,11.16211 12.4805,10.37109 12.4805,30.49805 0,10.45898 -3.8672,18.63281 -3.8672,8.17383 -12.3926,14.67773 -8.5254,6.5918 -20.6543,9.31645 -12.041,2.8125 -33.75,2.8125 l -20.1269,0 q -7.0313,0 -11.1622,0.8789 -4.1308,0.8789 -7.3828,2.9882 -3.164,2.1973 -4.7461,5.8008 -1.582,3.6914 -1.582,9.4922 0,6.1524 0.6152,9.8438 l -15.0293,0.7031 q -1.1425,-8.2617 -1.1425,-14.0625 0,-9.0527 3.8672,-15.4688 3.955,-6.32808 11.3378,-9.75582 7.3829,-3.42773 20.3028,-3.42773 l 19.5117,0 q 24.3457,0 36.2988,-3.16406 11.9532,-3.16407 18.1055,-10.81055 6.2402,-7.64649 6.2402,-20.03906 0,-12.83204 -8.5254,-19.6875 -8.4375,-6.94336 -26.455,-7.73438 l 0,5.71289 q 0,18.19336 -5.3614,26.80664 -5.2734,8.52539 -14.3261,12.2168 -8.9649,3.60351 -22.5,3.60351 -16.7871,0 -27.5098,-8.08593 -10.7227,-8.17383 -10.7227,-21.88477 0,-9.58008 4.9219,-16.17187 5.0098,-6.67969 15.0293,-10.45899 l 0,-45.08789 z m 30.9375,40.60547 14.2383,0 0,-27.59766 -31.0254,0 0,28.65235 q 7.3828,-1.05469 16.7871,-1.05469 z m 14.2383,12.56836 -15.4688,0 q -18.0175,0 -26.1035,4.39453 -7.998,4.30664 -7.998,14.50195 0,7.82227 6.416,12.2168 6.416,4.39453 17.5781,4.39453 13.8867,0 19.6875,-6.67969 5.8887,-6.67968 5.8887,-20.65429 l 0,-8.17383 z"
         style="font-style:normal;font-variant:normal;font-weight:normal;font-stretch:normal;font-size:180px;line-height:125%;font-family:'Noto Sans Tamil';-inkscape-font-specification:'Noto Sans Tamil, Normal';text-align:start;writing-mode:lr-tb;text-anchor:start"
         id="path3384"
         inkscape:connector-curvature="0" />
      <path
         d="m 1087.4074,975.21936 0,-99.66797 15.5566,0 0,86.66016 40.6055,0 0,-50.88867 q 0,-14.50196 3.5156,-22.32422 3.5156,-7.91016 10.7227,-11.86524 7.207,-4.04297 18.1054,-4.04297 18.8965,0 29.0039,14.41407 10.1953,14.32617 10.1953,40.51757 0,11.68946 -2.4609,20.56641 -2.4609,8.87695 -8.0859,15.0293 -5.625,6.06445 -14.3262,8.87695 -8.6133,2.72461 -26.4551,2.72461 l -76.3769,0 z m 71.7187,-13.00781 8.4375,0 q 11.6895,0 18.457,-3.07617 6.8555,-3.07618 10.0196,-10.3711 3.2519,-7.29492 3.2519,-21.5332 0,-19.33594 -6.1523,-30.23438 -6.1524,-10.89843 -17.4902,-10.89843 -6.2403,0 -10.2832,3.6914 -3.9551,3.69141 -5.0977,9.31641 -1.1426,5.625 -1.1426,15.9082 l 0,47.19727 z"
         style="font-style:normal;font-variant:normal;font-weight:normal;font-stretch:normal;font-size:180px;line-height:125%;font-family:'Noto Sans Tamil';-inkscape-font-specification:'Noto Sans Tamil, Normal';text-align:start;writing-mode:lr-tb;text-anchor:start"
         id="path3386"
         inkscape:connector-curvature="0" />
      <path
         d="m 1186.6652,843.18616 q 0,5.27343 -3.4278,8.70117 -3.5156,3.42773 -8.7011,3.42773 -5.1856,0 -8.6133,-3.33984 -3.4277,-3.42773 -3.4277,-8.78906 0,-5.18555 3.4277,-8.61328 3.3398,-3.42774 8.6133,-3.42774 5.2734,0 8.7011,3.42774 3.4278,3.42773 3.4278,8.61328 z m -11.7774,-17.66602 0,0 z m -0.3515,52.03125 0,0 z"
         style="font-style:normal;font-variant:normal;font-weight:normal;font-stretch:normal;font-size:180px;line-height:125%;font-family:'Noto Sans Tamil';-inkscape-font-specification:'Noto Sans Tamil, Normal';text-align:start;writing-mode:lr-tb;text-anchor:start"
         id="path3390"
         inkscape:connector-curvature="0" />
    </g>
  </g>
</svg>
