<?xml version="1.0" encoding="UTF-8" standalone="no"?>
<!-- Created with Inkscape (http://www.inkscape.org/) -->

<svg
   xmlns:dc="http://purl.org/dc/elements/1.1/"
   xmlns:cc="http://creativecommons.org/ns#"
   xmlns:rdf="http://www.w3.org/1999/02/22-rdf-syntax-ns#"
   xmlns:svg="http://www.w3.org/2000/svg"
   xmlns="http://www.w3.org/2000/svg"
   xmlns:sodipodi="http://sodipodi.sourceforge.net/DTD/sodipodi-0.dtd"
   xmlns:inkscape="http://www.inkscape.org/namespaces/inkscape"
   width="350mm"
   height="70mm"
   viewBox="0 0 1240.1575 248.03149"
   id="svg2"
   version="1.1"
   inkscape:version="0.91 r13725"
   sodipodi:docname="sanskrit tamil good camaskirutam.svg">
  <defs
     id="defs4" />
  <sodipodi:namedview
     id="base"
     pagecolor="#ffffff"
     bordercolor="#666666"
     borderopacity="1.0"
     inkscape:pageopacity="0.0"
     inkscape:pageshadow="2"
     inkscape:zoom="0.35"
     inkscape:cx="-283.57143"
     inkscape:cy="520"
     inkscape:document-units="px"
     inkscape:current-layer="layer1"
     showgrid="false"
     inkscape:window-width="1920"
     inkscape:window-height="1027"
     inkscape:window-x="-8"
     inkscape:window-y="-8"
     inkscape:window-maximized="1" />
  <metadata
     id="metadata7">
    <rdf:RDF>
      <cc:Work
         rdf:about="">
        <dc:format>image/svg+xml</dc:format>
        <dc:type
           rdf:resource="http://purl.org/dc/dcmitype/StillImage" />
        <dc:title></dc:title>
      </cc:Work>
    </rdf:RDF>
  </metadata>
  <g
     inkscape:label="Layer 1"
     inkscape:groupmode="layer"
     id="layer1"
     transform="translate(0,-804.33071)">
    <g
       style="font-style:normal;font-weight:normal;font-size:180px;line-height:125%;font-family:sans-serif;letter-spacing:0px;word-spacing:0px;fill:#000000;fill-opacity:1;stroke:none;stroke-width:1px;stroke-linecap:butt;stroke-linejoin:miter;stroke-opacity:1"
       id="text3336">
      <path
         d="m 40.168807,872.69427 94.130863,0 0,13.00782 -33.66211,0 0,27.59765 33.66211,0 0,12.56836 -33.66211,0 0,5.88867 q 0,18.19336 -5.361331,26.80665 -5.273438,8.52539 -14.326172,12.21679 -8.964844,3.60352 -22.5,3.60352 -10.810547,0 -19.775391,-3.7793 -8.876953,-3.7793 -13.710937,-10.54687 -4.746094,-6.85547 -4.746094,-15.64454 0,-9.58007 4.921875,-16.17187 5.009766,-6.67969 15.029297,-10.45898 l 0,-45.0879 z m 30.9375,40.60547 14.238281,0 0,-27.59765 -31.02539,0 0,28.65234 q 7.382812,-1.05469 16.787109,-1.05469 z m 14.238281,12.56836 -15.46875,0 q -18.017578,0 -26.103515,4.39453 -7.998047,4.30664 -7.998047,14.50196 0,7.82226 6.416015,12.21679 6.416016,4.39454 17.578125,4.39454 13.886719,0 19.6875,-6.67969 5.888672,-6.67969 5.888672,-20.6543 l 0,-8.17383 z"
         style="font-style:normal;font-variant:normal;font-weight:normal;font-stretch:normal;font-size:180px;line-height:125%;font-family:'Noto Sans Tamil';-inkscape-font-specification:'Noto Sans Tamil, Normal';text-align:start;writing-mode:lr-tb;text-anchor:start"
         id="path3341" />
      <path
         d="m 157.32701,972.36224 0,-99.66797 15.55664,0 0,86.66016 40.60547,0 0,-50.88867 q 0,-14.50195 3.51562,-22.32422 3.51563,-7.91016 10.72266,-11.86523 7.20703,-4.04297 18.10547,-4.04297 18.89648,0 29.00391,14.41406 10.19531,14.32617 10.19531,40.51758 0,11.68945 -2.46094,20.5664 -2.46094,8.87696 -8.08594,15.0293 -5.625,6.06445 -14.32617,8.87695 -8.61328,2.72461 -26.45508,2.72461 l -76.37695,0 z m 71.71875,-13.00781 8.4375,0 q 11.68945,0 18.45703,-3.07617 6.85547,-3.07617 10.01953,-10.37109 3.25196,-7.29493 3.25196,-21.53321 0,-19.33594 -6.15235,-30.23437 -6.15234,-10.89844 -17.49023,-10.89844 -6.24024,0 -10.28321,3.69141 -3.95507,3.6914 -5.09765,9.3164 -1.14258,5.625 -1.14258,15.90821 l 0,47.19726 z"
         style="font-style:normal;font-variant:normal;font-weight:normal;font-stretch:normal;font-size:180px;line-height:125%;font-family:'Noto Sans Tamil';-inkscape-font-specification:'Noto Sans Tamil, Normal';text-align:start;writing-mode:lr-tb;text-anchor:start"
         id="path3343" />
      <path
         d="m 398.41099,890.00873 q 3.86719,-9.75586 10.89844,-14.76563 7.11914,-5.00976 16.61133,-5.00976 14.32617,0 22.41211,9.40429 8.17383,9.4043 8.17383,30.9375 l 0,14.85352 q 0,14.32617 2.54883,21.5332 2.54882,7.11914 7.38281,10.63477 4.92187,3.51562 12.83203,3.51562 10.72266,0 16.08398,-7.82226 5.44922,-7.82227 5.44922,-23.55469 0,-15.73242 -5.71289,-29.70703 -5.625,-13.97461 -16.875,-26.10352 l 14.0625,-9.49218 q 12.39258,15.64453 18.28125,31.46484 5.88867,15.73242 5.88867,32.51953 0,22.85156 -9.66796,34.45313 -9.66797,11.60156 -28.65235,11.60156 -18.54492,0 -27.86133,-11.33789 -9.3164,-11.42578 -9.3164,-33.39844 l 0,-9.14062 q 0,-17.22657 -1.84571,-24.4336 -1.75781,-7.20703 -5.36132,-10.01953 -3.60352,-2.8125 -9.31641,-2.8125 -7.11914,0 -11.51367,7.20703 -4.30664,7.11914 -4.30664,18.63281 l 0,63.19336 -15.55664,0 0,-53.87695 q 0,-11.51367 -4.13086,-19.33594 -4.04297,-7.91015 -11.60157,-11.68945 -7.55859,-3.86719 -16.7871,-3.86719 -15.11719,0 -25.57618,9.84375 -10.45898,9.84375 -13.18359,26.63086 10.37109,-6.76758 21.70898,-6.76758 13.35938,0 21.18164,7.91016 7.91016,7.91016 7.91016,21.5332 0,14.67774 -8.17383,23.20313 -8.17383,8.52539 -22.32422,8.52539 -15.9082,0 -25.57617,-11.95313 -9.66797,-12.04101 -9.66797,-34.27734 0,-17.66602 6.94336,-30.76172 6.94336,-13.18359 19.6875,-20.21484 12.74414,-7.03125 28.65235,-7.03125 23.73047,0 36.29882,19.77539 z m -77.25585,44.20898 q 0.79101,13.79883 6.24023,20.91797 5.44922,7.11914 15.0293,7.11914 6.94336,0 11.16211,-4.6582 4.21875,-4.6582 4.21875,-13.1836 0,-8.61328 -4.65821,-13.53515 -4.57031,-4.92188 -12.21679,-4.92188 -10.10743,0 -19.77539,8.26172 z m 79.10156,-61.52344 0,0 z m 23.99414,-34.36523 q 0,5.27344 -3.51563,8.70117 -3.42773,3.42774 -8.61328,3.42774 -5.18554,0 -8.61328,-3.33985 -3.42773,-3.42773 -3.42773,-8.78906 0,-5.18555 3.33984,-8.61328 3.42773,-3.42774 8.70117,-3.42774 5.27344,0 8.70117,3.42774 3.42774,3.42773 3.42774,8.61328 z m -11.77735,-17.66602 0,0 z m -0.35156,52.03125 0,0 z"
         style="font-style:normal;font-variant:normal;font-weight:normal;font-stretch:normal;font-size:180px;line-height:125%;font-family:'Noto Sans Tamil';-inkscape-font-specification:'Noto Sans Tamil, Normal';text-align:start;writing-mode:lr-tb;text-anchor:start"
         id="path3345" />
      <path
         d="m 556.61412,872.69427 94.13086,0 0,13.00782 -33.66211,0 0,27.59765 4.92187,0 q 23.81836,0 34.7168,8.26172 10.89844,8.26172 10.89844,23.4668 0,13.71094 -8.17383,21.18164 -8.17383,7.4707 -23.29101,7.4707 -3.95508,0 -8.87696,-0.70312 -4.92187,-0.70313 -8.87695,-1.9336 l 3.33984,-11.86523 q 6.32813,1.8457 12.30469,1.8457 9.14063,0 13.53516,-4.04297 4.48242,-4.04296 4.48242,-12.74414 0,-9.14062 -6.94336,-13.71093 -6.94336,-4.65821 -23.90625,-4.65821 l -4.13086,0 0,5.88867 q 0,18.19336 -5.36133,26.80665 -5.27344,8.52539 -14.32617,12.21679 -8.96484,3.60352 -22.5,3.60352 -16.78711,0 -27.50977,-8.08594 -10.72265,-8.17383 -10.72265,-21.88477 0,-9.58007 4.92187,-16.17187 5.00977,-6.67969 15.0293,-10.45898 l 0,-45.0879 z m 30.9375,40.60547 14.23828,0 0,-27.59765 -31.02539,0 0,28.65234 q 7.38281,-1.05469 16.78711,-1.05469 z m 14.23828,12.56836 -15.46875,0 q -18.01758,0 -26.10351,4.39453 -7.99805,4.30664 -7.99805,14.50196 0,7.82226 6.41601,12.21679 6.41602,4.39454 17.57813,4.39454 13.88672,0 19.6875,-6.67969 5.88867,-6.67969 5.88867,-20.6543 l 0,-8.17383 z"
         style="font-style:normal;font-variant:normal;font-weight:normal;font-stretch:normal;font-size:180px;line-height:125%;font-family:'Noto Sans Tamil';-inkscape-font-specification:'Noto Sans Tamil, Normal';text-align:start;writing-mode:lr-tb;text-anchor:start"
         id="path3347" />
      <path
         d="m 603.37193,879.72552 q -2.19726,-4.13085 -3.42773,-9.66796 -1.23047,-5.53711 -1.23047,-11.07422 0,-18.01758 13.53516,-28.125 13.53515,-10.19532 35.24414,-10.19532 19.86328,0 33.83789,7.47071 14.0625,7.4707 20.12695,20.39062 6.15234,12.83203 6.15234,34.36524 l 0,89.47265 -15.55664,0 0,-83.49609 q 0,-21.18164 -4.48242,-32.34375 -4.39453,-11.16211 -14.67773,-16.69922 -10.3711,-5.625 -24.69727,-5.625 -16.25976,0 -25.04883,6.85547 -8.87695,6.85547 -8.87695,19.51172 0,5.53711 1.31836,10.10742 1.23047,4.57031 3.33984,9.05273 l -15.55664,0 z m 44.73633,-7.03125 0,0 z"
         style="font-style:normal;font-variant:normal;font-weight:normal;font-stretch:normal;font-size:180px;line-height:125%;font-family:'Noto Sans Tamil';-inkscape-font-specification:'Noto Sans Tamil, Normal';text-align:start;writing-mode:lr-tb;text-anchor:start"
         id="path3349" />
      <path
         d="m 850.87193,921.2099 q 8.96485,-6.24023 20.12696,-6.24023 14.9414,0 23.81835,11.77734 8.96485,11.77734 8.96485,32.25586 0,22.32422 -9.93164,38.32031 -9.84375,16.08402 -28.38867,24.43362 -18.54493,8.4375 -42.36329,8.4375 l -3.60351,0 q -26.80664,0 -45.61524,-10.1953 -18.80859,-10.1075 -28.56445,-29.00394 -9.75586,-18.8086 -9.75586,-42.53907 l 0,-4.30664 q 0,-33.92578 24.87305,-71.45508 l 13.35937,7.82227 q -11.51367,15.99609 -17.13867,31.72852 -5.53711,15.64453 -5.53711,32.08007 l 0,3.69141 q 0,20.83008 8.17383,36.38672 8.17383,15.64454 23.73047,23.73044 15.64453,8.1739 37.61719,8.1739 l 1.93359,0 q 31.20117,0 48.25195,-15.293 17.13868,-15.20509 17.13868,-43.85743 0,-14.1504 -5.18555,-21.6211 -5.09766,-7.55859 -14.58984,-7.55859 -8.17383,0 -17.31446,6.41601 l 0,37.96875 -15.55664,0 0,-86.66015 -31.28906,0 0,86.66015 -15.64453,0 0,-99.66797 93.86719,0 0,13.00782 -31.37696,0 0,35.50781 z"
         style="font-style:normal;font-variant:normal;font-weight:normal;font-stretch:normal;font-size:180px;line-height:125%;font-family:'Noto Sans Tamil';-inkscape-font-specification:'Noto Sans Tamil, Normal';text-align:start;writing-mode:lr-tb;text-anchor:start"
         id="path3351" />
      <path
         d="m 941.22349,872.69427 94.13091,0 0,13.00782 -33.6622,0 0,27.68554 q 25.5762,0.70313 38.0567,11.16211 12.4805,10.3711 12.4805,30.49805 0,10.45898 -3.8672,18.63281 -3.8672,8.17383 -12.3926,14.67774 -8.5254,6.59179 -20.6543,9.3164 -12.041,2.81246 -33.75001,2.81246 l -20.12695,0 q -7.03125,0 -11.16211,0.8789 -4.13086,0.879 -7.38281,2.9883 -3.16407,2.1973 -4.7461,5.8008 -1.58203,3.6914 -1.58203,9.4922 0,6.1523 0.61524,9.8437 l -15.0293,0.7032 q -1.14258,-8.2617 -1.14258,-14.0625 0,-9.0528 3.86719,-15.4688 3.95508,-6.3281 11.33789,-9.75583 7.38281,-3.42774 20.30273,-3.42774 l 19.51172,0 q 24.34572,0 36.29882,-3.16406 11.9531,-3.16406 18.1055,-10.81055 6.2402,-7.64648 6.2402,-20.03906 0,-12.83203 -8.5254,-19.6875 -8.4375,-6.94336 -26.4551,-7.73438 l 0,5.71289 q 0,18.19336 -5.36128,26.80665 -5.27344,8.52539 -14.32618,12.21679 -8.96484,3.60352 -22.5,3.60352 -16.7871,0 -27.50976,-8.08594 -10.72266,-8.17383 -10.72266,-21.88477 0,-9.58007 4.92188,-16.17187 5.00976,-6.67969 15.02929,-10.45898 l 0,-45.0879 z m 30.9375,40.60547 14.23829,0 0,-27.59765 -31.02539,0 0,28.65234 q 7.38281,-1.05469 16.7871,-1.05469 z m 14.23829,12.56836 -15.46875,0 q -18.01758,0 -26.10352,4.39453 -7.99805,4.30664 -7.99805,14.50196 0,7.82226 6.41602,12.21679 6.41601,4.39454 17.57812,4.39454 13.88672,0 19.6875,-6.67969 5.88868,-6.67969 5.88868,-20.6543 l 0,-8.17383 z"
         style="font-style:normal;font-variant:normal;font-weight:normal;font-stretch:normal;font-size:180px;line-height:125%;font-family:'Noto Sans Tamil';-inkscape-font-specification:'Noto Sans Tamil, Normal';text-align:start;writing-mode:lr-tb;text-anchor:start"
         id="path3353" />
      <path
         d="m 1076.6629,972.36224 0,-99.66797 15.5567,0 0,86.66016 40.6055,0 0,-50.88867 q 0,-14.50195 3.5156,-22.32422 3.5156,-7.91016 10.7226,-11.86523 7.2071,-4.04297 18.1055,-4.04297 18.8965,0 29.0039,14.41406 10.1953,14.32617 10.1953,40.51758 0,11.68945 -2.4609,20.5664 -2.4609,8.87696 -8.0859,15.0293 -5.625,6.06445 -14.3262,8.87695 -8.6133,2.72461 -26.4551,2.72461 l -76.377,0 z m 71.7188,-13.00781 8.4375,0 q 11.6895,0 18.457,-3.07617 6.8555,-3.07617 10.0196,-10.37109 3.2519,-7.29493 3.2519,-21.53321 0,-19.33594 -6.1523,-30.23437 -6.1524,-10.89844 -17.4903,-10.89844 -6.2402,0 -10.2832,3.69141 -3.955,3.6914 -5.0976,9.3164 -1.1426,5.625 -1.1426,15.90821 l 0,47.19726 z m 2.0215,-121.02539 q 0,5.27344 -3.5156,8.70117 -3.4278,3.42774 -8.6133,3.42774 -5.1856,0 -8.6133,-3.33985 -3.4277,-3.42773 -3.4277,-8.78906 0,-5.18555 3.3398,-8.61328 3.4277,-3.42774 8.7012,-3.42774 5.2734,0 8.7011,3.42774 3.4278,3.42773 3.4278,8.61328 z m -11.7774,-17.66602 0,0 z m -0.3515,52.03125 0,0 z"
         style="font-style:normal;font-variant:normal;font-weight:normal;font-stretch:normal;font-size:180px;line-height:125%;font-family:'Noto Sans Tamil';-inkscape-font-specification:'Noto Sans Tamil, Normal';text-align:start;writing-mode:lr-tb;text-anchor:start"
         id="path3355" />
    </g>
  </g>
</svg>
