<?xml version="1.0" encoding="UTF-8" standalone="no"?>
<!-- Created with Inkscape (http://www.inkscape.org/) -->

<svg
   xmlns:dc="http://purl.org/dc/elements/1.1/"
   xmlns:cc="http://creativecommons.org/ns#"
   xmlns:rdf="http://www.w3.org/1999/02/22-rdf-syntax-ns#"
   xmlns:svg="http://www.w3.org/2000/svg"
   xmlns="http://www.w3.org/2000/svg"
   xmlns:sodipodi="http://sodipodi.sourceforge.net/DTD/sodipodi-0.dtd"
   xmlns:inkscape="http://www.inkscape.org/namespaces/inkscape"
   width="175mm"
   height="70mm"
   viewBox="0 0 620.07874 248.03149"
   id="svg2"
   version="1.1"
   inkscape:version="0.91 r13725"
   sodipodi:docname="sanskrit gurmukhi bad sasakrita.svg">
  <defs
     id="defs4" />
  <sodipodi:namedview
     id="base"
     pagecolor="#ffffff"
     bordercolor="#666666"
     borderopacity="1.0"
     inkscape:pageopacity="0.0"
     inkscape:pageshadow="2"
     inkscape:zoom="1.4"
     inkscape:cx="472.57113"
     inkscape:cy="166.49646"
     inkscape:document-units="px"
     inkscape:current-layer="text3353"
     showgrid="false"
     inkscape:window-width="1920"
     inkscape:window-height="1027"
     inkscape:window-x="-8"
     inkscape:window-y="-8"
     inkscape:window-maximized="1"
     showguides="false" />
  <metadata
     id="metadata7">
    <rdf:RDF>
      <cc:Work
         rdf:about="">
        <dc:format>image/svg+xml</dc:format>
        <dc:type
           rdf:resource="http://purl.org/dc/dcmitype/StillImage" />
        <dc:title></dc:title>
      </cc:Work>
    </rdf:RDF>
  </metadata>
  <g
     inkscape:label="Layer 1"
     inkscape:groupmode="layer"
     id="layer1"
     transform="translate(0,-804.33071)">
    <g
       style="font-style:normal;font-weight:normal;font-size:180px;line-height:125%;font-family:sans-serif;letter-spacing:0px;word-spacing:0px;fill:#000000;fill-opacity:1;stroke:none;stroke-width:1px;stroke-linecap:butt;stroke-linejoin:miter;stroke-opacity:1"
       id="text3353">
      <path
         d="m 21.538784,868.961 109.863286,0 0,12.83203 -17.40235,0 0,99.14062 -14.501952,0 0,-46.93359 -42.099609,0 q -0.791016,16.08399 -4.921875,24.25781 -4.042969,8.17383 -10.634766,8.17383 -4.482421,0 -6.591796,-2.54883 -2.021485,-2.63672 -2.021485,-7.91015 0,-5.88867 2.8125,-13.35938 2.8125,-7.55859 8.173828,-13.44726 -1.230468,-25.40039 -9.228515,-47.37305 l -13.447266,0 0,-12.83203 z m 28.828125,12.83203 q 6.943359,21.62109 7.207031,39.375 l 41.923828,0 0,-39.375 -49.130859,0 z"
         style="font-style:normal;font-variant:normal;font-weight:normal;font-stretch:normal;font-size:180px;line-height:125%;font-family:'Noto Sans Gurmukhi';-inkscape-font-specification:'Noto Sans Gurmukhi, Normal';text-align:start;writing-mode:lr-tb;text-anchor:start"
         id="path3381"
         inkscape:connector-curvature="0" />
      <path
         d="m 117.69113,856.91998 q 2.28515,-5.27343 2.28515,-10.37109 0,-5.625 -3.42773,-8.52539 -3.42773,-2.98828 -9.84375,-2.98828 -6.41602,0 -9.75586,2.98828 -3.427734,2.98828 -3.427734,8.52539 0,5.09766 2.285156,10.37109 l -12.304687,1.84571 q -2.900391,-7.03125 -2.900391,-13.71094 0,-9.75586 7.207031,-15.73242 7.207032,-5.97657 18.808595,-5.97657 11.95312,0 19.16016,5.97657 7.11914,5.88867 7.11914,15.82031 0,6.50391 -2.90039,13.62305 l -12.30469,-1.84571 z m -3.69141,12.04102 0,0 z m 1.66992,-49.39453 0,0 z"
         style="font-style:normal;font-variant:normal;font-weight:normal;font-stretch:normal;font-size:180px;line-height:125%;font-family:'Noto Sans Gurmukhi';-inkscape-font-specification:'Noto Sans Gurmukhi, Normal';text-align:start;writing-mode:lr-tb;text-anchor:start"
         id="path3383"
         inkscape:connector-curvature="0" />
      <path
         d="m 128.76535,868.961 109.86328,0 0,12.83203 -17.40235,0 0,99.14062 -14.50195,0 0,-46.93359 -42.09961,0 q -0.79101,16.08399 -4.92187,24.25781 -4.04297,8.17383 -10.63477,8.17383 -4.48242,0 -6.5918,-2.54883 -2.02148,-2.63672 -2.02148,-7.91015 0,-5.88867 2.8125,-13.35938 2.8125,-7.55859 8.17383,-13.44726 -1.23047,-25.40039 -9.22852,-47.37305 l -13.44726,0 0,-12.83203 z m 28.82812,12.83203 q 6.94336,21.62109 7.20703,39.375 l 41.92383,0 0,-39.375 -49.13086,0 z"
         style="font-style:normal;font-variant:normal;font-weight:normal;font-stretch:normal;font-size:180px;line-height:125%;font-family:'Noto Sans Gurmukhi';-inkscape-font-specification:'Noto Sans Gurmukhi, Normal';text-align:start;writing-mode:lr-tb;text-anchor:start"
         id="path3385"
         inkscape:connector-curvature="0" />
      <path
         d="m 325.20089,980.93365 q -0.79101,-10.45898 -2.63672,-19.51171 -1.8457,-9.05274 -4.74609,-16.61133 -7.4707,9.58008 -17.49023,14.41406 -9.93164,4.74609 -21.70899,4.74609 -16.25976,0 -25.66406,-8.34961 -9.31641,-8.3496 -9.31641,-22.85156 0,-14.32617 9.84375,-22.76367 9.84375,-8.52539 25.3125,-8.52539 11.86524,0 21.18164,4.21875 9.31641,4.13086 16.875,12.83203 2.28516,-8.26172 2.28516,-20.03906 0,-7.99805 -1.75781,-16.69922 l -81.38672,0 0,-12.83203 114.52148,0 0,12.83203 -18.54492,0 q 0.52735,2.46094 1.05469,7.82227 0.61523,5.27343 0.61523,8.78906 0,18.80859 -7.4707,33.22265 5.09766,8.70118 8.4375,21.00586 3.42773,12.30469 5.18555,28.30078 l -14.58985,0 z m -13.35937,-48.77929 q -6.50391,-8.87696 -14.50195,-13.35938 -7.91016,-4.48242 -17.40235,-4.48242 -10.10742,0 -15.82031,4.92188 -5.71289,4.83398 -5.71289,13.62304 0,8.52539 5.44922,13.44727 5.44922,4.83398 14.85351,4.83398 10.54688,0 18.8086,-4.74609 8.26172,-4.74609 14.32617,-14.23828 z m 17.7539,-63.19336 0,0 z m 30.41016,156.1816 q -4.48242,-11.3379 -12.30469,-17.7539 -7.73437,-6.416 -20.5664,-6.416 l -2.28516,0 q -0.87891,0 -1.66992,0.088 l -0.79102,-13.62304 q 1.58203,-0.17578 4.48243,-0.17578 16.875,0 28.125,8.70117 11.33789,8.70115 17.49023,25.40035 l -12.48047,3.7793 z"
         style="font-style:normal;font-variant:normal;font-weight:normal;font-stretch:normal;font-size:180px;line-height:125%;font-family:'Noto Sans Gurmukhi';-inkscape-font-specification:'Noto Sans Gurmukhi, Normal';text-align:start;writing-mode:lr-tb;text-anchor:start"
         id="path3387"
         inkscape:connector-curvature="0" />
      <path
         d="m 424.71513,907.45709 0,-25.66406 -74.88281,0 0,-12.83203 106.78711,0 0,12.83203 -17.40235,0 0,68.11523 q 0,12.04102 -3.95508,18.45704 -3.86718,6.32812 -10.63476,9.49218 -6.67969,3.07617 -17.66602,3.07617 -11.51367,0 -22.32422,-5.44921 -10.72265,-5.53711 -18.80859,-16.96289 -7.99805,-11.42579 -7.99805,-23.99415 0,-9.40429 4.92188,-15.55664 4.92187,-6.15234 13.0957,-8.78906 8.26172,-2.72461 24.25781,-2.72461 l 24.60938,0 z m 0,12.83203 -22.85156,0 q -11.68946,0 -17.40235,1.14258 -5.71289,1.14258 -8.96484,4.57031 -3.16406,3.33985 -3.16406,9.49219 0,7.29492 5.71289,15.38086 5.80078,8.08594 13.62304,12.56836 7.91016,4.39453 15.90821,4.39453 7.4707,0 10.98633,-2.02148 3.51562,-2.02149 4.83398,-5.71289 1.31836,-3.69141 1.31836,-12.12891 l 0,-27.68555 z m -8.78906,60.64453 0,0 z"
         style="font-style:normal;font-variant:normal;font-weight:normal;font-stretch:normal;font-size:180px;line-height:125%;font-family:'Noto Sans Gurmukhi';-inkscape-font-specification:'Noto Sans Gurmukhi, Normal';text-align:start;writing-mode:lr-tb;text-anchor:start"
         id="path3389"
         inkscape:connector-curvature="0" />
      <path
         d="m 471.20927,881.79303 -17.31445,0 0,-12.83203 17.31445,0 0,-8.26172 q 0,-14.41406 3.25195,-22.76367 3.33985,-8.4375 10.72266,-13.35938 7.38281,-5.00976 18.89648,-5.00976 14.0625,0 22.14844,8.26172 8.08594,8.26171 8.08594,23.29101 0,4.7461 -1.14258,11.95313 l -14.0625,-1.40625 q 0.9668,-5.18555 0.9668,-10.98633 0,-9.31641 -4.04297,-13.88672 -3.95508,-4.57031 -12.12891,-4.57031 -6.76758,0 -11.07422,3.51562 -4.21875,3.51563 -5.71289,9.4043 -1.40625,5.80078 -1.40625,15.11719 l 0,8.70117 17.40235,0 0,12.83203 -17.40235,0 0,99.14062 -14.50195,0 0,-99.14062 z"
         style="font-style:normal;font-variant:normal;font-weight:normal;font-stretch:normal;font-size:180px;line-height:125%;font-family:'Noto Sans Gurmukhi';-inkscape-font-specification:'Noto Sans Gurmukhi, Normal';text-align:start;writing-mode:lr-tb;text-anchor:start"
         id="path3391"
         inkscape:connector-curvature="0" />
      <path
         d="m 504.25614,969.33209 5.88868,-13.18359 q 8.61328,5.625 17.49023,8.70117 8.96484,2.98828 18.98438,2.98828 13.35937,0 20.83007,-5.36133 7.5586,-5.36132 7.5586,-15.55664 0,-8.08593 -5.09766,-14.15039 -5.00976,-6.06445 -15.0293,-10.10742 -10.98632,2.10938 -20.30273,2.10938 -20.12695,0 -20.12695,-10.19532 0,-9.14062 15.73242,-9.14062 13.00781,0 26.10351,4.74609 7.20704,-2.90039 10.81055,-8.17383 3.60352,-5.36132 3.60352,-13.18359 0,-3.86719 -0.61524,-7.03125 l -69.43359,0 0,-12.83203 100.19531,0 0,12.83203 -16.08398,0 q 0.52734,3.7793 0.52734,7.20703 0,9.22852 -3.51562,15.64453 -3.51563,6.32813 -11.95313,11.16211 10.72266,5.88867 15.38086,13.53516 4.6582,7.64648 4.6582,17.7539 0,15.73243 -11.68945,24.78516 -11.60156,9.05273 -31.20117,9.05273 -11.51367,0 -22.23633,-2.90039 -10.63477,-2.90039 -20.47852,-8.70117 z m 59.41407,11.60156 0,0 z"
         style="font-style:normal;font-variant:normal;font-weight:normal;font-stretch:normal;font-size:180px;line-height:125%;font-family:'Noto Sans Gurmukhi';-inkscape-font-specification:'Noto Sans Gurmukhi, Normal';text-align:start;writing-mode:lr-tb;text-anchor:start"
         id="path3393"
         inkscape:connector-curvature="0" />
    </g>
    <flowRoot
       xml:space="preserve"
       id="flowRoot3357"
       style="font-style:normal;font-weight:normal;font-size:180px;line-height:125%;font-family:sans-serif;letter-spacing:0px;word-spacing:0px;fill:#000000;fill-opacity:1;stroke:none;stroke-width:1px;stroke-linecap:butt;stroke-linejoin:miter;stroke-opacity:1"
       transform="translate(0,804.33071)"><flowRegion
         id="flowRegion3359"><rect
           id="rect3361"
           width="1048.5714"
           height="574.28571"
           x="-191.42857"
           y="-89.111366" /></flowRegion><flowPara
         id="flowPara3363"></flowPara></flowRoot>  </g>
</svg>
