<?xml version="1.0" encoding="UTF-8" standalone="no"?>
<!-- Created with Inkscape (http://www.inkscape.org/) -->

<svg
   xmlns:dc="http://purl.org/dc/elements/1.1/"
   xmlns:cc="http://creativecommons.org/ns#"
   xmlns:rdf="http://www.w3.org/1999/02/22-rdf-syntax-ns#"
   xmlns:svg="http://www.w3.org/2000/svg"
   xmlns="http://www.w3.org/2000/svg"
   xmlns:sodipodi="http://sodipodi.sourceforge.net/DTD/sodipodi-0.dtd"
   xmlns:inkscape="http://www.inkscape.org/namespaces/inkscape"
   width="210mm"
   height="360mm"
   viewBox="0 0 744.09449 1275.5906"
   id="svg2"
   version="1.1"
   inkscape:version="0.91 r13725"
   sodipodi:docname="vowels kannada.svg">
  <defs
     id="defs4" />
  <sodipodi:namedview
     id="base"
     pagecolor="#ffffff"
     bordercolor="#666666"
     borderopacity="1.0"
     inkscape:pageopacity="0.0"
     inkscape:pageshadow="2"
     inkscape:zoom="5.6"
     inkscape:cx="647.85358"
     inkscape:cy="376.29232"
     inkscape:document-units="px"
     inkscape:current-layer="text3336"
     showgrid="false"
     inkscape:window-width="1920"
     inkscape:window-height="1027"
     inkscape:window-x="-8"
     inkscape:window-y="-8"
     inkscape:window-maximized="1" />
  <metadata
     id="metadata7">
    <rdf:RDF>
      <cc:Work
         rdf:about="">
        <dc:format>image/svg+xml</dc:format>
        <dc:type
           rdf:resource="http://purl.org/dc/dcmitype/StillImage" />
        <dc:title />
      </cc:Work>
    </rdf:RDF>
  </metadata>
  <g
     inkscape:label="Layer 1"
     inkscape:groupmode="layer"
     id="layer1"
     transform="translate(0,223.22834)">
    <g
       style="font-style:normal;font-weight:normal;font-size:180px;line-height:125%;font-family:sans-serif;letter-spacing:0px;word-spacing:0px;fill:#000000;fill-opacity:1;stroke:none;stroke-width:1px;stroke-linecap:butt;stroke-linejoin:miter;stroke-opacity:1"
       id="text3336">
      <path
         d="m 75.325056,-44.780655 -15.46875,0 0,-86.835935 q 0,-14.50196 0.703125,-22.14844 -2.988281,3.16406 -7.998047,7.29492 l -16.875,13.79883 -8.261719,-10.63477 34.804688,-26.98242 13.095703,0 0,125.507815 z m -5.537109,-111.972655 0,0 z"
         style="font-style:normal;font-variant:normal;font-weight:normal;font-stretch:normal;font-size:180px;line-height:125%;font-family:'Noto Sans Kannada';-inkscape-font-specification:'Noto Sans Kannada, Normal';text-align:start;writing-mode:lr-tb;text-anchor:start"
         id="path3349" />
      <path
         d="m 138.34263,-67.016983 q 5.36133,0 8.34961,3.076172 2.98828,3.076172 2.98828,8.964844 0,5.976562 -3.07617,9.140625 -3.07617,3.164062 -8.26172,3.164062 -5.09765,0 -8.08593,-3.164062 -2.90039,-3.164063 -2.90039,-9.140625 0,-5.800782 2.8125,-8.876954 2.90039,-3.164062 8.17382,-3.164062 z"
         style="font-style:normal;font-variant:normal;font-weight:normal;font-stretch:normal;font-size:180px;line-height:125%;font-family:'Noto Sans Kannada';-inkscape-font-specification:'Noto Sans Kannada, Normal';text-align:start;writing-mode:lr-tb;text-anchor:start"
         id="path3351" />
      <path
         d="m 220.16881,-130.12245 0,-13.97461 76.99218,0 q 9.31641,0 14.0625,-0.9668 4.7461,-0.96679 7.03125,-3.6914 2.37305,-2.8125 2.37305,-7.47071 0,-11.51367 -11.68945,-22.93945 l 11.68945,-7.82227 q 7.38281,8.26172 10.98633,15.73243 3.60351,7.4707 3.60351,16.25976 0,6.5918 -3.25195,12.30469 -3.16406,5.625 -10.19531,9.14062 -7.03125,3.42774 -21.35742,3.42774 l -80.24414,0 z m 23.55468,82.265623 -13.97461,5.53711 q -4.48242,-5.976563 -7.03125,-13.535157 -2.54882,-7.646484 -2.54882,-15.117187 0,-12.304688 7.82226,-20.478516 7.82227,-8.261719 19.16016,-8.261719 7.20703,0 12.30469,2.109375 5.09765,2.109375 9.05273,6.328125 4.04297,4.21875 8.96484,12.832032 5.44922,9.492187 8.78907,13.535156 3.33984,3.955078 7.20703,5.976562 3.95508,2.021485 9.40429,2.021485 8.34961,0 12.91993,-6.064453 4.6582,-6.152344 4.6582,-16.78711 0,-9.404297 -3.7793,-17.753906 -3.6914,-8.4375 -11.25,-16.96289 l 12.12891,-8.52539 q 17.66601,18.89648 17.66601,41.748046 0,18.28125 -8.87695,28.476562 -8.78906,10.107422 -24.69726,10.107422 -7.82227,0 -13.79883,-2.636719 -5.88867,-2.724609 -10.3711,-7.646484 -4.48242,-5.009766 -9.93164,-14.326172 -4.57031,-7.734375 -7.64648,-11.601562 -2.98828,-3.867188 -5.88867,-5.449219 -2.8125,-1.582031 -6.67969,-1.582031 -5.88867,0 -9.31641,3.867187 -3.33984,3.867188 -3.33984,10.634766 0,11.074218 9.05273,23.554687 z m 32.34375,-74.794923 q 4.39453,0 7.38282,3.16406 2.98828,3.07618 2.98828,7.47071 0,4.30664 -2.98828,7.4707 -2.98829,3.07617 -7.38282,3.07617 -4.39453,0 -7.4707,-3.07617 -2.98828,-3.07617 -2.98828,-7.4707 0,-4.39453 2.98828,-7.47071 3.07617,-3.16406 7.4707,-3.16406 z m -5.625,-67.67578 0,0 z m -11.86523,145.546875 0,0 z"
         style="font-style:normal;font-variant:normal;font-weight:normal;font-stretch:normal;font-size:180px;line-height:125%;font-family:'Noto Sans Kannada';-inkscape-font-specification:'Noto Sans Kannada, Normal';text-align:start;writing-mode:lr-tb;text-anchor:start"
         id="path3353" />
      <path
         d="m 578.05943,-140.31776 0,15.29296 q -6.85547,-3.51562 -14.23828,-5.27343 -7.38281,-1.75782 -15.29297,-1.75782 -12.04101,0 -18.10547,3.69141 -5.97656,3.69141 -5.97656,11.07422 0,5.625 4.30664,8.87695 4.30664,3.16407 17.31445,6.06446 l 5.53711,1.23046 q 17.22657,3.691411 24.4336,10.458989 7.29492,6.679687 7.29492,18.720703 0,13.710937 -10.89844,21.708984 -10.81055,7.998047 -29.79492,7.998047 -7.91016,0 -16.52344,-1.582031 -8.52539,-1.494141 -18.01758,-4.570313 l 0,-16.699218 q 8.96485,4.658203 17.66602,7.03125 8.70117,2.285156 17.22656,2.285156 11.42578,0 17.57813,-3.867188 6.15234,-3.955078 6.15234,-11.074218 0,-6.591797 -4.48242,-10.107422 -4.39453,-3.515625 -19.42383,-6.767578 l -5.625,-1.31836 q -15.0293,-3.164062 -21.70898,-9.667968 -6.67969,-6.591793 -6.67969,-18.017583 0,-13.88671 9.84375,-21.44531 9.84375,-7.55859 27.94922,-7.55859 8.96484,0 16.875,1.31836 7.91015,1.31836 14.58984,3.95508 z"
         style="font-style:normal;font-variant:normal;font-weight:normal;font-stretch:normal;font-size:180px;line-height:125%;font-family:'Noto Sans Kannada';-inkscape-font-specification:'Noto Sans Kannada, Normal';text-align:start;writing-mode:lr-tb;text-anchor:start"
         id="path3355" />
      <path
         d="m 653.90904,-94.263077 q -19.59961,0 -27.1582,4.482422 -7.5586,4.482422 -7.5586,15.292969 0,8.613281 5.625,13.710937 5.71289,5.009766 15.46875,5.009766 13.44727,0 21.53321,-9.492188 8.17382,-9.580078 8.17382,-25.40039 l 0,-3.603516 -16.08398,0 z m 32.25586,-6.679683 0,56.162105 -16.17188,0 0,-14.941406 q -5.5371,8.964844 -13.79882,13.271484 -8.26172,4.21875 -20.21485,4.21875 -15.11718,0 -24.08203,-8.4375 -8.87695,-8.52539 -8.87695,-22.763672 0,-16.611328 11.07422,-25.048828 11.16211,-8.437503 33.22265,-8.437503 l 22.67578,0 0,-1.58203 q 0,-11.16211 -7.38281,-17.22656 -7.29492,-6.15234 -20.5664,-6.15234 -8.4375,0 -16.43555,2.02148 -7.99805,2.02148 -15.38086,6.06445 l 0,-14.9414 q 8.87695,-3.42774 17.22656,-5.09766 8.34961,-1.75781 16.25977,-1.75781 21.35742,0 31.90429,11.07422 10.54688,11.07422 10.54688,33.57422 z"
         style="font-style:normal;font-variant:normal;font-weight:normal;font-stretch:normal;font-size:180px;line-height:125%;font-family:'Noto Sans Kannada';-inkscape-font-specification:'Noto Sans Kannada, Normal';text-align:start;writing-mode:lr-tb;text-anchor:start"
         id="path3357" />
      <path
         d="m 105.03209,224.68309 -84.990237,0 0,-13.18359 29.707031,-28.91602 q 10.019531,-9.66797 15.996094,-15.99609 6.064453,-6.41602 10.195312,-12.39258 4.21875,-5.97656 5.888672,-11.16211 1.757813,-5.18555 1.757813,-10.37109 0,-9.93165 -5.888672,-15.38086 -5.888672,-5.44922 -16.787109,-5.44922 -8.261719,0 -15.205079,2.72461 -6.943359,2.63672 -15.732421,9.49218 l -8.4375,-10.63476 q 17.929687,-15.117189 39.550781,-15.117189 18.105469,0 28.388672,8.789059 10.371093,8.78907 10.371093,24.16993 0,9.22851 -3.251953,17.31445 -3.164062,7.99805 -9.052734,15.64453 -5.888672,7.55859 -17.226563,18.45703 l -27.949218,26.89453 0,0.70313 62.666018,0 0,14.41406 z"
         style="font-style:normal;font-variant:normal;font-weight:normal;font-stretch:normal;font-size:180px;line-height:125%;font-family:'Noto Sans Kannada';-inkscape-font-specification:'Noto Sans Kannada, Normal';text-align:start;writing-mode:lr-tb;text-anchor:start"
         id="path3359" />
      <path
         d="m 138.34263,202.44676 q 5.36133,0 8.34961,3.07617 2.98828,3.07618 2.98828,8.96485 0,5.97656 -3.07617,9.14062 -3.07617,3.16406 -8.26172,3.16406 -5.09765,0 -8.08593,-3.16406 -2.90039,-3.16406 -2.90039,-9.14062 0,-5.80078 2.8125,-8.87696 2.90039,-3.16406 8.17382,-3.16406 z"
         style="font-style:normal;font-variant:normal;font-weight:normal;font-stretch:normal;font-size:180px;line-height:125%;font-family:'Noto Sans Kannada';-inkscape-font-specification:'Noto Sans Kannada, Normal';text-align:start;writing-mode:lr-tb;text-anchor:start"
         id="path3361" />
      <path
         d="m 317.55162,146.46043 q 17.66601,18.89649 17.66601,41.74805 0,18.28125 -8.87695,28.47656 -8.78906,10.10742 -24.69726,10.10742 -7.82227,0 -13.79883,-2.63671 -5.88867,-2.72461 -10.3711,-7.64649 -4.48242,-5.00976 -9.93164,-14.32617 -4.57031,-7.73438 -7.64648,-11.60156 -2.98828,-3.86719 -5.88867,-5.44922 -2.8125,-1.58203 -6.67969,-1.58203 -5.88867,0 -9.31641,3.86718 -3.33984,3.86719 -3.33984,10.63477 0,11.07422 9.05273,23.55469 l -13.97461,5.53711 q -4.48242,-5.97657 -7.03125,-13.53516 -2.54882,-7.64648 -2.54882,-15.11719 0,-12.30468 7.82226,-20.47851 7.82227,-8.26172 19.16016,-8.26172 7.20703,0 12.30469,2.10937 5.09765,2.10938 9.05273,6.32813 4.04297,4.21875 8.96484,12.83203 5.44922,9.49219 8.78907,13.53516 3.33984,3.95507 7.20703,5.97656 3.95508,2.02148 9.40429,2.02148 8.34961,0 12.91993,-6.06445 4.6582,-6.15234 4.6582,-16.78711 0,-9.4043 -3.7793,-17.75391 -3.6914,-8.4375 -11.25,-16.96289 l 12.12891,-8.52539 z m -41.48438,0.35157 q 4.39453,0 7.38282,3.16406 2.98828,3.07617 2.98828,7.4707 0,4.30664 -2.98828,7.4707 -2.98829,3.07618 -7.38282,3.07618 -4.39453,0 -7.4707,-3.07618 -2.98828,-3.07617 -2.98828,-7.4707 0,-4.39453 2.98828,-7.4707 3.07617,-3.16406 7.4707,-3.16406 z m 18.89649,-7.47071 -74.79492,0 0,-13.97461 70.75195,0 q 13.44726,0 18.80859,-1.66992 5.44922,-1.66992 8.17383,-5.44922 2.72461,-3.86718 2.72461,-10.89843 0,-7.11915 -4.6582,-11.425786 -4.57032,-4.394531 -11.95313,-4.394531 -5.09765,0 -9.22851,2.197265 -4.04297,2.197266 -6.15235,6.152344 4.30664,0 6.85547,2.109378 2.63672,2.10937 2.63672,5.625 0,4.13086 -2.63672,6.41601 -2.63672,2.28516 -7.29492,2.28516 -5.88867,0 -9.05273,-3.95508 -3.16407,-3.95508 -3.16407,-10.2832 0,-9.228518 7.99805,-16.083987 7.99805,-6.855469 20.83008,-6.855469 13.79883,0 22.06054,8.34961 8.34961,8.349609 8.34961,21.972656 0,14.15039 -9.05273,22.06055 -9.05273,7.82226 -31.20117,7.82226 z m -30.0586,85.3418 0,0 z"
         style="font-style:normal;font-variant:normal;font-weight:normal;font-stretch:normal;font-size:180px;line-height:125%;font-family:'Noto Sans Kannada';-inkscape-font-specification:'Noto Sans Kannada, Normal';text-align:start;writing-mode:lr-tb;text-anchor:start"
         id="path3363" />
      <path
         d="m 578.05943,129.14598 0,15.29297 q -6.85547,-3.51563 -14.23828,-5.27344 -7.38281,-1.75781 -15.29297,-1.75781 -12.04101,0 -18.10547,3.69141 -5.97656,3.6914 -5.97656,11.07421 0,5.625 4.30664,8.87696 4.30664,3.16406 17.31445,6.06445 l 5.53711,1.23047 q 17.22657,3.69141 24.4336,10.45898 7.29492,6.67969 7.29492,18.72071 0,13.71093 -10.89844,21.70898 -10.81055,7.99805 -29.79492,7.99805 -7.91016,0 -16.52344,-1.58203 -8.52539,-1.49414 -18.01758,-4.57032 l 0,-16.69921 q 8.96485,4.6582 17.66602,7.03125 8.70117,2.28515 17.22656,2.28515 11.42578,0 17.57813,-3.86719 6.15234,-3.95507 6.15234,-11.07421 0,-6.5918 -4.48242,-10.10743 -4.39453,-3.51562 -19.42383,-6.76757 l -5.625,-1.31836 q -15.0293,-3.16407 -21.70898,-9.66797 -6.67969,-6.5918 -6.67969,-18.01758 0,-13.88672 9.84375,-21.44531 9.84375,-7.5586 27.94922,-7.5586 8.96484,0 16.875,1.31836 7.91015,1.31836 14.58984,3.95508 z"
         style="font-style:normal;font-variant:normal;font-weight:normal;font-stretch:normal;font-size:180px;line-height:125%;font-family:'Noto Sans Kannada';-inkscape-font-specification:'Noto Sans Kannada, Normal';text-align:start;writing-mode:lr-tb;text-anchor:start"
         id="path3365" />
      <path
         d="m 693.37193,171.42137 0,7.91016 -74.35547,0 q 1.05469,16.69922 10.01953,25.48828 9.05274,8.70117 25.13672,8.70117 9.31641,0 18.01758,-2.28516 8.78906,-2.28515 17.40234,-6.85546 l 0,15.29296 q -8.70117,3.69141 -17.84179,5.625 -9.14063,1.9336 -18.54492,1.9336 -23.55469,0 -37.35352,-13.71094 -13.71094,-13.71094 -13.71094,-37.08984 0,-24.16993 13.00781,-38.32032 13.09571,-14.23828 35.24415,-14.23828 19.86328,0 31.37695,12.83203 11.60156,12.74414 11.60156,34.7168 z m -16.17187,-4.74609 q -0.17579,-13.27149 -7.47071,-21.18164 -7.20703,-7.91016 -19.16015,-7.91016 -13.53516,0 -21.70899,7.64648 -8.08594,7.64649 -9.3164,21.53321 l 57.65625,-0.0879 z"
         style="font-style:normal;font-variant:normal;font-weight:normal;font-stretch:normal;font-size:180px;line-height:125%;font-family:'Noto Sans Kannada';-inkscape-font-specification:'Noto Sans Kannada, Normal';text-align:start;writing-mode:lr-tb;text-anchor:start"
         id="path3367" />
      <path
         d="m 73.567244,428.58043 0,0.61523 q 15.117187,1.9336 22.851562,9.58008 7.734374,7.55859 7.734374,20.12695 0,17.75391 -12.74414,27.59766 -12.74414,9.75586 -36.5625,9.75586 -11.25,0 -19.599609,-1.66992 -8.349609,-1.66993 -15.732422,-5.27344 l 0,-14.76563 q 7.998047,3.95508 17.402344,6.24024 9.492187,2.19726 18.105469,2.19726 16.259765,0 24.345703,-6.06445 8.173828,-6.15234 8.173828,-18.36914 0,-10.89844 -9.052734,-16.34766 -8.964844,-5.53711 -26.894532,-5.53711 l -12.480468,0 0,-13.44726 12.65625,0 q 15.205078,0 23.642578,-6.15234 8.52539,-6.15235 8.52539,-17.13868 0,-8.78906 -6.240234,-13.79882 -6.152344,-5.00977 -17.138672,-5.00977 -8.613281,0 -15.996094,2.37305 -7.294922,2.37304 -16.435547,8.4375 l -7.910156,-10.81055 q 17.402344,-13.35938 40.166016,-13.35938 18.984375,0 29.355469,8.34961 10.458981,8.34961 10.458981,22.67579 0,11.86523 -6.943356,19.5996 -6.855469,7.73438 -19.6875,10.19532 z"
         style="font-style:normal;font-variant:normal;font-weight:normal;font-stretch:normal;font-size:180px;line-height:125%;font-family:'Noto Sans Kannada';-inkscape-font-specification:'Noto Sans Kannada, Normal';text-align:start;writing-mode:lr-tb;text-anchor:start"
         id="path3369" />
      <path
         d="m 138.34263,471.91051 q 5.36133,0 8.34961,3.07617 2.98828,3.07617 2.98828,8.96484 0,5.97656 -3.07617,9.14063 -3.07617,3.16406 -8.26172,3.16406 -5.09765,0 -8.08593,-3.16406 -2.90039,-3.16407 -2.90039,-9.14063 0,-5.80078 2.8125,-8.87695 2.90039,-3.16406 8.17382,-3.16406 z"
         style="font-style:normal;font-variant:normal;font-weight:normal;font-stretch:normal;font-size:180px;line-height:125%;font-family:'Noto Sans Kannada';-inkscape-font-specification:'Noto Sans Kannada, Normal';text-align:start;writing-mode:lr-tb;text-anchor:start"
         id="path3371" />
      <path
         d="m 220.16881,408.80504 0,-13.97461 76.99218,0 q 9.31641,0 14.0625,-0.9668 4.7461,-0.9668 7.03125,-3.69141 2.37305,-2.8125 2.37305,-7.4707 0,-11.51367 -11.68945,-22.93945 l 11.68945,-7.82227 q 7.38281,8.26172 10.98633,15.73242 3.60351,7.47071 3.60351,16.25977 0,6.5918 -3.25195,12.30469 -3.16406,5.625 -10.19531,9.14062 -7.03125,3.42774 -21.35742,3.42774 l -80.24414,0 z m 23.55468,82.26562 -13.97461,5.53711 q -4.48242,-5.97656 -7.03125,-13.53516 -2.54882,-7.64648 -2.54882,-15.11718 0,-12.30469 7.82226,-20.47852 7.82227,-8.26172 19.16016,-8.26172 7.20703,0 12.30469,2.10938 5.09765,2.10937 9.05273,6.32812 4.04297,4.21875 8.96484,12.83203 5.44922,9.49219 8.78907,13.53516 3.33984,3.95508 7.20703,5.97656 3.95508,2.02149 9.40429,2.02149 8.34961,0 12.91993,-6.06446 4.6582,-6.15234 4.6582,-16.78711 0,-9.40429 -3.7793,-17.7539 -3.6914,-8.4375 -11.25,-16.96289 l 12.12891,-8.52539 q 17.66601,18.89648 17.66601,41.74804 0,18.28125 -8.87695,28.47657 -8.78906,10.10742 -24.69726,10.10742 -7.82227,0 -13.79883,-2.63672 -5.88867,-2.72461 -10.3711,-7.64648 -4.48242,-5.00977 -9.93164,-14.32618 -4.57031,-7.73437 -7.64648,-11.60156 -2.98828,-3.86719 -5.88867,-5.44922 -2.8125,-1.58203 -6.67969,-1.58203 -5.88867,0 -9.31641,3.86719 -3.33984,3.86719 -3.33984,10.63476 0,11.07422 9.05273,23.55469 z m 32.34375,-74.79492 q 4.39453,0 7.38282,3.16406 2.98828,3.07617 2.98828,7.47071 0,4.30664 -2.98828,7.4707 -2.98829,3.07617 -7.38282,3.07617 -4.39453,0 -7.4707,-3.07617 -2.98828,-3.07617 -2.98828,-7.4707 0,-4.39454 2.98828,-7.47071 3.07617,-3.16406 7.4707,-3.16406 z m -5.625,-67.67578 0,0 z m -11.86523,145.54687 0,0 z"
         style="font-style:normal;font-variant:normal;font-weight:normal;font-stretch:normal;font-size:180px;line-height:125%;font-family:'Noto Sans Kannada';-inkscape-font-specification:'Noto Sans Kannada, Normal';text-align:start;writing-mode:lr-tb;text-anchor:start"
         id="path3373" />
      <path
         d="m 320.80357,472.08629 9.22852,-9.84375 q 8.26172,10.45898 16.17187,15.11718 7.91016,4.65821 17.49024,4.65821 10.63476,0 16.61132,-6.94336 6.06446,-6.94336 6.06446,-18.8086 0,-17.13867 -8.87696,-29.61914 -8.78906,-12.48047 -26.45507,-20.30273 l 7.73437,-13.97461 q 20.6543,10.2832 31.46485,26.54297 10.89843,16.25976 10.89843,36.5625 0,18.89648 -10.10742,29.88281 -10.01953,10.89844 -27.94922,10.89844 -11.68945,0 -21.97265,-5.71289 -10.28321,-5.80078 -20.30274,-18.45703 z"
         style="font-style:normal;font-variant:normal;font-weight:normal;font-stretch:normal;font-size:180px;line-height:125%;font-family:'Noto Sans Kannada';-inkscape-font-specification:'Noto Sans Kannada, Normal';text-align:start;writing-mode:lr-tb;text-anchor:start"
         id="path3375" />
      <path
         d="m 578.28686,398.60972 0,15.29297 q -6.85547,-3.51562 -14.23829,-5.27343 -7.38281,-1.75782 -15.29296,-1.75782 -12.04102,0 -18.10547,3.69141 -5.97657,3.69141 -5.97657,11.07422 0,5.625 4.30665,8.87695 4.30664,3.16406 17.31445,6.06445 l 5.53711,1.23047 q 17.22656,3.69141 24.43359,10.45899 7.29492,6.67968 7.29492,18.7207 0,13.71094 -10.89843,21.70898 -10.81055,7.99805 -29.79493,7.99805 -7.91015,0 -16.52343,-1.58203 -8.52539,-1.49414 -18.01758,-4.57031 l 0,-16.69922 q 8.96484,4.6582 17.66601,7.03125 8.70118,2.28516 17.22657,2.28516 11.42578,0 17.57812,-3.86719 6.15235,-3.95508 6.15235,-11.07422 0,-6.5918 -4.48243,-10.10742 -4.39453,-3.51563 -19.42382,-6.76758 l -5.625,-1.31836 q -15.0293,-3.16406 -21.70899,-9.66797 -6.67969,-6.5918 -6.67969,-18.01758 0,-13.88672 9.84375,-21.44531 9.84375,-7.55859 27.94922,-7.55859 8.96485,0 16.875,1.31836 7.91016,1.31836 14.58985,3.95507 z"
         style="font-style:normal;font-variant:normal;font-weight:normal;font-stretch:normal;font-size:180px;line-height:125%;font-family:'Noto Sans Kannada';-inkscape-font-specification:'Noto Sans Kannada, Normal';text-align:start;writing-mode:lr-tb;text-anchor:start"
         id="path3377"
         inkscape:connector-curvature="0" />
      <path
         d="m 607.73022,455.29918 0,-59.58985 16.17187,0 0,58.97461 q 0,13.97461 5.44922,21.00586 5.44922,6.94336 16.34766,6.94336 13.0957,0 20.65429,-8.34961 7.64649,-8.34961 7.64649,-22.76367 l 0,-55.81055 16.17187,0 0,98.4375 -16.17187,0 0,-15.11718 q -5.88868,8.96484 -13.71094,13.35937 -7.73438,4.30664 -18.01758,4.30664 -16.96289,0 -25.75195,-10.54687 -8.78906,-10.54688 -8.78906,-30.84961 z m 40.69335,-61.96289 0,0 z"
         style="font-style:normal;font-variant:normal;font-weight:normal;font-stretch:normal;font-size:180px;line-height:125%;font-family:'Noto Sans Kannada';-inkscape-font-specification:'Noto Sans Kannada, Normal';text-align:start;writing-mode:lr-tb;text-anchor:start"
         id="path3379"
         inkscape:connector-curvature="0" />
      <path
         d="m 110.74498,735.39769 -18.632815,0 0,28.21289 -15.380859,0 0,-28.21289 -61.523437,0 0,-13.44727 60.46875,-83.49609 16.435546,0 0,82.70508 18.632815,0 0,14.23828 z m -34.013674,-14.23828 0,-37.35352 q 0,-10.45898 0.966797,-28.74023 l -0.791016,0 q -3.076172,6.76757 -8.349609,14.23828 l -37.880859,51.85547 46.054687,0 z m 8.4375,-69.16993 0,0 z"
         style="font-style:normal;font-variant:normal;font-weight:normal;font-stretch:normal;font-size:180px;line-height:125%;font-family:'Noto Sans Kannada';-inkscape-font-specification:'Noto Sans Kannada, Normal';text-align:start;writing-mode:lr-tb;text-anchor:start"
         id="path3381" />
      <path
         d="m 138.34263,741.37425 q 5.36133,0 8.34961,3.07617 2.98828,3.07617 2.98828,8.96485 0,5.97656 -3.07617,9.14062 -3.07617,3.16406 -8.26172,3.16406 -5.09765,0 -8.08593,-3.16406 -2.90039,-3.16406 -2.90039,-9.14062 0,-5.80079 2.8125,-8.87696 2.90039,-3.16406 8.17382,-3.16406 z"
         style="font-style:normal;font-variant:normal;font-weight:normal;font-stretch:normal;font-size:180px;line-height:125%;font-family:'Noto Sans Kannada';-inkscape-font-specification:'Noto Sans Kannada, Normal';text-align:start;writing-mode:lr-tb;text-anchor:start"
         id="path3383" />
      <path
         d="m 286.17467,669.91917 q -8.17383,7.5586 -20.30274,7.5586 -10.72266,0 -17.49023,-5.27344 -6.76758,-5.27344 -6.76758,-14.76563 0,-9.58008 7.11914,-15.73242 7.20703,-6.24023 18.63281,-6.24023 14.41406,0 23.20313,9.40429 8.78906,9.31641 8.78906,23.64258 0,15.46875 -7.82227,23.4668 -7.82226,7.99805 -22.85156,7.99805 -13.71094,0 -24.60937,-5.625 l 7.03125,-10.98633 q 8.08593,4.48242 17.13867,4.48242 9.49219,0 13.71094,-4.21875 4.21875,-4.21875 4.21875,-12.65625 l 0,-1.05469 z m -2.10938,-12.1289 q -2.46094,-4.83399 -6.94336,-7.47071 -4.39453,-2.72461 -9.84375,-2.72461 -5.88867,0 -8.96484,2.46094 -3.07617,2.37305 -3.07617,6.50391 0,4.39453 2.90039,6.67968 2.90039,2.28516 7.4707,2.28516 5.80078,0 10.19531,-1.75781 4.39453,-1.75781 8.26172,-5.97656 z m -40.3418,102.74414 -13.97461,5.53711 q -4.48242,-5.97657 -7.03125,-13.53516 -2.54882,-7.64649 -2.54882,-15.11719 0,-12.30469 7.82226,-20.47851 7.82227,-8.26172 19.16016,-8.26172 7.20703,0 12.30469,2.10937 5.09765,2.10938 9.05273,6.32813 4.04297,4.21875 8.96484,12.83203 5.44922,9.49219 8.78907,13.53515 3.33984,3.95508 7.20703,5.97657 3.95508,2.02148 9.40429,2.02148 8.34961,0 12.91993,-6.06445 4.6582,-6.15235 4.6582,-16.78711 0,-9.4043 -3.7793,-17.75391 -3.6914,-8.4375 -11.25,-16.96289 l 12.12891,-8.52539 q 17.66601,18.89649 17.66601,41.74805 0,18.28125 -8.87695,28.47656 -8.78906,10.10742 -24.69726,10.10742 -7.82227,0 -13.79883,-2.63672 -5.88867,-2.72461 -10.3711,-7.64648 -4.48242,-5.00977 -9.93164,-14.32617 -4.57031,-7.73438 -7.64648,-11.60156 -2.98828,-3.86719 -5.88867,-5.44922 -2.8125,-1.58203 -6.67969,-1.58203 -5.88867,0 -9.31641,3.86718 -3.33984,3.86719 -3.33984,10.63477 0,11.07422 9.05273,23.55469 z m -14.15039,-55.28321 0,0 z m 85.51758,-40.95703 0,0 z m -0.70312,13.97461 0,0 z m -64.59961,85.3418 0,0 z"
         style="font-style:normal;font-variant:normal;font-weight:normal;font-stretch:normal;font-size:180px;line-height:125%;font-family:'Noto Sans Kannada';-inkscape-font-specification:'Noto Sans Kannada, Normal';text-align:start;writing-mode:lr-tb;text-anchor:start"
         id="path3385" />
      <path
         d="m 362.81529,709.46995 q 0.9668,13.97461 9.84375,24.60938 8.96484,10.63476 25.83984,18.01758 l -7.82226,13.62304 q -20.74219,-10.01953 -31.46485,-25.3125 -10.72265,-15.38086 -10.72265,-34.98047 0,-19.51171 10.10742,-31.37695 10.10742,-11.86523 25.92773,-11.86523 12.30469,0 19.24805,6.59179 7.03125,6.50391 7.03125,17.49024 0,12.1289 -8.4375,19.6875 -8.34961,7.4707 -22.93945,7.4707 -9.14063,0 -16.61133,-3.95508 z m 0.43945,-13.62304 q 6.67969,4.92187 14.76563,4.92187 8.78906,0 13.44726,-3.60351 4.7461,-3.60352 4.7461,-10.28321 0,-12.04101 -12.30469,-12.04101 -7.38281,0 -13.18359,5.71289 -5.71289,5.625 -7.47071,15.29297 z m 40.51758,55.2832 0,0 z"
         style="font-style:normal;font-variant:normal;font-weight:normal;font-stretch:normal;font-size:180px;line-height:125%;font-family:'Noto Sans Kannada';-inkscape-font-specification:'Noto Sans Kannada, Normal';text-align:start;writing-mode:lr-tb;text-anchor:start"
         id="path3387" />
      <path
         d="m 577.63301,668.07347 0,15.29297 q -6.85547,-3.51563 -14.23829,-5.27344 -7.38281,-1.75781 -15.29296,-1.75781 -12.04102,0 -18.10547,3.6914 -5.97657,3.69141 -5.97657,11.07422 0,5.625 4.30665,8.87696 4.30664,3.16406 17.31445,6.06445 l 5.53711,1.23047 q 17.22656,3.6914 24.43359,10.45898 7.29492,6.67969 7.29492,18.7207 0,13.71094 -10.89843,21.70899 -10.81055,7.99805 -29.79493,7.99805 -7.91015,0 -16.52343,-1.58204 -8.52539,-1.49414 -18.01758,-4.57031 l 0,-16.69922 q 8.96484,4.65821 17.66601,7.03125 8.70118,2.28516 17.22657,2.28516 11.42578,0 17.57812,-3.86719 6.15235,-3.95508 6.15235,-11.07422 0,-6.59179 -4.48243,-10.10742 -4.39453,-3.51562 -19.42382,-6.76758 l -5.625,-1.31836 q -15.0293,-3.16406 -21.70899,-9.66796 -6.67969,-6.5918 -6.67969,-18.01758 0,-13.88672 9.84375,-21.44532 9.84375,-7.55859 27.94922,-7.55859 8.96485,0 16.875,1.31836 7.91016,1.31836 14.58985,3.95508 z"
         style="font-style:normal;font-variant:normal;font-weight:normal;font-stretch:normal;font-size:180px;line-height:125%;font-family:'Noto Sans Kannada';-inkscape-font-specification:'Noto Sans Kannada, Normal';text-align:start;writing-mode:lr-tb;text-anchor:start"
         id="path3389"
         inkscape:connector-curvature="0" />
      <path
         d="m 22.766462,1028.2403 0,-14.9414 q 6.416016,3.8672 15.644532,6.1524 9.316406,2.2851 17.841796,2.2851 15.029297,0 23.291016,-6.9433 8.349609,-6.9434 8.349609,-19.9512 0,-12.56836 -8.085937,-18.89648 -7.998047,-6.32813 -24.082031,-6.32813 -9.931641,0 -21.972657,2.63672 l -7.910156,-5.00977 4.746094,-58.44726 64.511719,0 0,14.41406 -50.976563,0 -2.988281,35.06836 q 10.283203,-2.02148 19.775391,-2.02148 19.951171,0 31.552734,9.93164 11.689452,9.84375 11.689452,27.07031 0,19.68753 -12.83203,30.84963 -12.744141,11.0742 -35.244141,11.0742 -10.283203,0 -18.984375,-1.8457 -8.701172,-1.7578 -14.326172,-5.0977 z"
         style="font-style:normal;font-variant:normal;font-weight:normal;font-stretch:normal;font-size:180px;line-height:125%;font-family:'Noto Sans Kannada';-inkscape-font-specification:'Noto Sans Kannada, Normal';text-align:start;writing-mode:lr-tb;text-anchor:start"
         id="path3395" />
      <path
         d="m 138.34263,1010.838 q 5.36133,0 8.34961,3.0762 2.98828,3.0761 2.98828,8.9648 0,5.9766 -3.07617,9.1406 -3.07617,3.1641 -8.26172,3.1641 -5.09765,0 -8.08593,-3.1641 -2.90039,-3.164 -2.90039,-9.1406 0,-5.8008 2.8125,-8.8769 2.90039,-3.1641 8.17382,-3.1641 z"
         style="font-style:normal;font-variant:normal;font-weight:normal;font-stretch:normal;font-size:180px;line-height:125%;font-family:'Noto Sans Kannada';-inkscape-font-specification:'Noto Sans Kannada, Normal';text-align:start;writing-mode:lr-tb;text-anchor:start"
         id="path3397" />
      <path
         d="m 286.17467,939.38292 q -8.17383,7.55859 -20.30274,7.55859 -10.72266,0 -17.49023,-5.27344 -6.76758,-5.27344 -6.76758,-14.76562 0,-9.58008 7.11914,-15.73242 7.20703,-6.24024 18.63281,-6.24024 14.41406,0 23.20313,9.4043 8.78906,9.3164 8.78906,23.64258 0,15.46875 -7.82227,23.46679 -7.82226,7.99805 -22.85156,7.99805 -13.71094,0 -24.60937,-5.625 l 7.03125,-10.98633 q 8.08593,4.48242 17.13867,4.48242 9.49219,0 13.71094,-4.21875 4.21875,-4.21875 4.21875,-12.65625 l 0,-1.05468 z m -2.10938,-12.12891 q -2.46094,-4.83398 -6.94336,-7.4707 -4.39453,-2.72461 -9.84375,-2.72461 -5.88867,0 -8.96484,2.46093 -3.07617,2.37305 -3.07617,6.50391 0,4.39453 2.90039,6.67969 2.90039,2.28515 7.4707,2.28515 5.80078,0 10.19531,-1.75781 4.39453,-1.75781 8.26172,-5.97656 z m -40.3418,102.74419 -13.97461,5.5371 q -4.48242,-5.9766 -7.03125,-13.5352 -2.54882,-7.6465 -2.54882,-15.1172 0,-12.30467 7.82226,-20.4785 7.82227,-8.26172 19.16016,-8.26172 7.20703,0 12.30469,2.10938 5.09765,2.10937 9.05273,6.32812 4.04297,4.21875 8.96484,12.83203 5.44922,9.49219 8.78907,13.53519 3.33984,3.955 7.20703,5.9765 3.95508,2.0215 9.40429,2.0215 8.34961,0 12.91993,-6.0644 4.6582,-6.1524 4.6582,-16.78715 0,-9.40429 -3.7793,-17.7539 -3.6914,-8.4375 -11.25,-16.96289 l 12.12891,-8.52539 q 17.66601,18.89648 17.66601,41.74804 0,18.28129 -8.87695,28.47659 -8.78906,10.1074 -24.69726,10.1074 -7.82227,0 -13.79883,-2.6367 -5.88867,-2.7246 -10.3711,-7.6465 -4.48242,-5.0098 -9.93164,-14.3262 -4.57031,-7.7344 -7.64648,-11.60154 -2.98828,-3.86719 -5.88867,-5.44922 -2.8125,-1.58203 -6.67969,-1.58203 -5.88867,0 -9.31641,3.86719 -3.33984,3.86718 -3.33984,10.6348 0,11.0742 9.05273,23.5547 z m -14.15039,-55.28325 0,0 z m 85.51758,-40.95703 0,0 z m -0.70312,13.97461 0,0 z m -64.59961,85.34177 0,0 z"
         style="font-style:normal;font-variant:normal;font-weight:normal;font-stretch:normal;font-size:180px;line-height:125%;font-family:'Noto Sans Kannada';-inkscape-font-specification:'Noto Sans Kannada, Normal';text-align:start;writing-mode:lr-tb;text-anchor:start"
         id="path3399" />
      <path
         d="m 577.70787,937.53721 0,15.29297 q -6.85547,-3.51562 -14.23828,-5.27344 -7.38282,-1.75781 -15.29297,-1.75781 -12.04102,0 -18.10547,3.69141 -5.97656,3.6914 -5.97656,11.07422 0,5.625 4.30664,8.87695 4.30664,3.16406 17.31445,6.06445 l 5.53711,1.23047 q 17.22656,3.69141 24.43359,10.45899 7.29493,6.67968 7.29493,18.72068 0,13.711 -10.89844,21.709 -10.81055,7.9981 -29.79492,7.9981 -7.91016,0 -16.52344,-1.5821 -8.52539,-1.4941 -18.01758,-4.5703 l 0,-16.6992 q 8.96484,4.6582 17.66602,7.0312 8.70117,2.2852 17.22656,2.2852 11.42578,0 17.57812,-3.8672 6.15235,-3.9551 6.15235,-11.0742 0,-6.5918 -4.48242,-10.10743 -4.39454,-3.51563 -19.42383,-6.76758 l -5.625,-1.31836 q -15.0293,-3.16406 -21.70899,-9.66797 -6.67968,-6.5918 -6.67968,-18.01758 0,-13.88672 9.84375,-21.44531 9.84375,-7.55859 27.94921,-7.55859 8.96485,0 16.875,1.31835 7.91016,1.31836 14.58985,3.95508 z"
         style="font-style:normal;font-variant:normal;font-weight:normal;font-stretch:normal;font-size:180px;line-height:125%;font-family:'Noto Sans Kannada';-inkscape-font-specification:'Noto Sans Kannada, Normal';text-align:start;writing-mode:lr-tb;text-anchor:start"
         id="path3401" />
      <path
         d="m 608.82115,934.63682 16.17187,0 0,98.43748 -16.17187,0 0,-98.43748 z m 0,-38.32031 16.17187,0 0,20.47852 -16.17187,0 0,-20.47852 z"
         style="font-style:normal;font-variant:normal;font-weight:normal;font-stretch:normal;font-size:180px;line-height:125%;font-family:'Noto Sans Kannada';-inkscape-font-specification:'Noto Sans Kannada, Normal';text-align:start;writing-mode:lr-tb;text-anchor:start"
         id="path3403" />
    </g>
    <g
       style="font-style:normal;font-weight:normal;font-size:180px;line-height:125%;font-family:sans-serif;letter-spacing:0px;word-spacing:0px;fill:#000000;fill-opacity:1;stroke:none;stroke-width:1px;stroke-linecap:butt;stroke-linejoin:miter;stroke-opacity:1"
       id="text3366"
       transform="translate(-49.972287,0)">
      <path
         d="m 640.51221,629.35345 52.55859,0 0,13.00782 -52.55859,0 0,-13.00782 z m 18.19336,35.59571 16.17187,0 0,98.4375 -16.17187,0 0,-98.4375 z m 8.08593,-2.37305 0,0 z"
         style="font-style:normal;font-variant:normal;font-weight:normal;font-stretch:normal;font-size:180px;line-height:125%;font-family:'Noto Sans Kannada';-inkscape-font-specification:'Noto Sans Kannada, Normal';text-align:start;writing-mode:lr-tb;text-anchor:start"
         id="path3380"
         inkscape:connector-curvature="0" />
    </g>
    <flowRoot
       xml:space="preserve"
       id="flowRoot3370"
       style="fill:black;stroke:none;stroke-opacity:1;stroke-width:1px;stroke-linejoin:miter;stroke-linecap:butt;fill-opacity:1;font-family:sans-serif;font-style:normal;font-weight:normal;font-size:180px;line-height:125%;letter-spacing:0px;word-spacing:0px"><flowRegion
         id="flowRegion3372"><rect
           id="rect3374"
           width="220.21326"
           height="260.61935"
           x="745.49255"
           y="770.51428" /></flowRegion><flowPara
         id="flowPara3376"></flowPara></flowRoot>  </g>
</svg>
