<?xml version="1.0" encoding="UTF-8" standalone="no"?>
<!-- Created with Inkscape (http://www.inkscape.org/) -->

<svg
   xmlns:dc="http://purl.org/dc/elements/1.1/"
   xmlns:cc="http://creativecommons.org/ns#"
   xmlns:rdf="http://www.w3.org/1999/02/22-rdf-syntax-ns#"
   xmlns:svg="http://www.w3.org/2000/svg"
   xmlns="http://www.w3.org/2000/svg"
   xmlns:sodipodi="http://sodipodi.sourceforge.net/DTD/sodipodi-0.dtd"
   xmlns:inkscape="http://www.inkscape.org/namespaces/inkscape"
   width="490mm"
   height="210mm"
   viewBox="0 0 1736.2205 744.09448"
   id="svg2"
   version="1.1"
   inkscape:version="0.91 r13725"
   sodipodi:docname="vowels tamil.svg">
  <defs
     id="defs4" />
  <sodipodi:namedview
     id="base"
     pagecolor="#ffffff"
     bordercolor="#666666"
     borderopacity="1.0"
     inkscape:pageopacity="0.0"
     inkscape:pageshadow="2"
     inkscape:zoom="0.35"
     inkscape:cx="1246.3971"
     inkscape:cy="317.4139"
     inkscape:document-units="px"
     inkscape:current-layer="layer1"
     showgrid="false"
     inkscape:window-width="1920"
     inkscape:window-height="1027"
     inkscape:window-x="-8"
     inkscape:window-y="-8"
     inkscape:window-maximized="1" />
  <metadata
     id="metadata7">
    <rdf:RDF>
      <cc:Work
         rdf:about="">
        <dc:format>image/svg+xml</dc:format>
        <dc:type
           rdf:resource="http://purl.org/dc/dcmitype/StillImage" />
        <dc:title></dc:title>
      </cc:Work>
    </rdf:RDF>
  </metadata>
  <g
     inkscape:label="Layer 1"
     inkscape:groupmode="layer"
     id="layer1"
     transform="translate(0,-308.26772)">
    <g
       style="font-style:normal;font-weight:normal;font-size:180px;line-height:125%;font-family:sans-serif;letter-spacing:0px;word-spacing:0px;fill:#000000;fill-opacity:1;stroke:none;stroke-width:1px;stroke-linecap:butt;stroke-linejoin:miter;stroke-opacity:1"
       id="text3336"
       transform="translate(14,-30)">
      <path
         d="m 26.303291,542.07648 0,-13.53516 q 7.294922,2.37305 15.820313,2.37305 21.005859,0 31.728515,-12.56836 10.722657,-12.65625 11.689454,-39.28711 l -1.054688,0 q -9.84375,14.94141 -30.673828,14.94141 -17.050781,0 -26.982422,-10.3711 -9.84375,-10.45898 -9.84375,-28.47656 0,-19.95117 11.074219,-31.64063 11.162109,-11.77734 29.970703,-11.77734 19.775391,0 31.640625,14.94141 11.865238,14.9414 11.865238,41.74804 0,37.70508 -14.765629,56.60157 -14.765625,18.80859 -44.296875,18.80859 -4.130859,0 -8.964843,-0.52734 -4.746094,-0.43946 -7.207032,-1.23047 z m 6.328125,-87.09961 q 0,12.83203 6.240235,19.6875 6.328125,6.76758 18.36914,6.76758 7.734375,0 14.238282,-3.16407 6.591796,-3.16406 10.283203,-8.70117 3.779297,-5.625 3.779297,-11.60156 -0.08789,-8.34961 -3.427735,-16.08399 -3.339844,-7.73437 -9.667969,-12.21679 -6.240234,-4.57031 -14.414062,-4.57031 -12.041016,0 -18.720703,7.82226 -6.679688,7.82227 -6.679688,22.06055 z"
         style="font-style:normal;font-variant:normal;font-weight:normal;font-stretch:normal;font-size:180px;line-height:125%;font-family:'Noto Sans Tamil';-inkscape-font-specification:'Noto Sans Tamil, Normal';text-align:start;writing-mode:lr-tb;text-anchor:start"
         id="path3421"
         inkscape:connector-curvature="0" />
      <path
         d="m 124.21345,532.32062 q 0,-3.33985 0.8789,-5.625 0.87891,-2.37305 2.37305,-3.7793 1.49414,-1.49414 3.51563,-2.10937 2.02148,-0.70313 4.39453,-0.70313 2.28515,0 4.30664,0.70313 2.10937,0.61523 3.60351,2.10937 1.49414,1.40625 2.37305,3.7793 0.87891,2.28515 0.87891,5.625 0,3.25195 -0.87891,5.625 -0.87891,2.28515 -2.37305,3.77929 -1.49414,1.49415 -3.60351,2.19727 -2.02149,0.70313 -4.30664,0.70313 -2.37305,0 -4.39453,-0.70313 -2.02149,-0.70312 -3.51563,-2.19727 -1.49414,-1.49414 -2.37305,-3.77929 -0.8789,-2.37305 -0.8789,-5.625 z"
         style="font-style:normal;font-variant:normal;font-weight:normal;font-stretch:normal;font-size:180px;line-height:125%;font-family:'Noto Sans Tamil';-inkscape-font-specification:'Noto Sans Tamil, Normal';text-align:start;writing-mode:lr-tb;text-anchor:start"
         id="path3423"
         inkscape:connector-curvature="0" />
      <path
         d="m 349.56501,524.76202 q -3.60352,-7.29492 -3.60352,-15.82031 0,-13.79883 8.34961,-21.97265 8.4375,-8.17383 23.20313,-8.17383 13.62305,0 22.06055,8.61328 8.52539,8.52539 8.52539,22.93945 0,15.9082 -9.66797,24.69727 -9.58008,8.70117 -25.66406,8.70117 -18.19336,0 -32.60743,-8.87695 -14.32617,-8.96485 -22.23632,-25.13672 -7.91016,-16.17188 -7.91016,-36.5625 0,-24.4336 10.2832,-43.24219 10.28321,-18.89648 28.125,-29.17969 17.92969,-10.37109 38.05664,-10.37109 20.39063,0 33.31055,7.11914 13.00781,7.11914 19.6875,21.97266 6.67969,14.85351 6.67969,42.89062 l 0,79.7168 -15.55664,0 0,-67.93946 q 0,-22.32421 -2.19727,-34.71679 -2.10937,-12.48047 -7.55859,-20.47852 -5.44922,-7.99805 -13.88672,-11.51367 -8.4375,-3.51563 -20.21485,-3.51563 -15.29296,0 -29.70703,8.4375 -14.41406,8.4375 -22.76367,24.52149 -8.26172,15.99609 -8.26172,37.79297 0,17.05078 6.06446,30.05859 6.15234,13.00781 17.49023,20.03906 z m 16.52344,5.80079 q 3.16406,0.61523 7.55859,0.61523 9.66797,0 14.94141,-5.44922 5.27344,-5.44922 5.27344,-15.38086 0,-8.17383 -4.57032,-13.35937 -4.57031,-5.18555 -12.1289,-5.18555 -7.91016,0 -12.56836,5.09766 -4.57032,5.00976 -4.57032,13.88671 0,11.77735 6.06446,19.7754 z"
         style="font-style:normal;font-variant:normal;font-weight:normal;font-stretch:normal;font-size:180px;line-height:125%;font-family:'Noto Sans Tamil';-inkscape-font-specification:'Noto Sans Tamil, Normal';text-align:start;writing-mode:lr-tb;text-anchor:start"
         id="path3425"
         inkscape:connector-curvature="0" />
      <path
         d="m 490.89314,442.40851 94.13085,0 0,13.00781 -33.6621,0 0,27.59766 4.92187,0 q 23.81836,0 34.7168,8.26172 10.89843,8.26171 10.89843,23.46679 0,13.71094 -8.17382,21.18164 -8.17383,7.47071 -23.29102,7.47071 -3.95508,0 -8.87695,-0.70313 -4.92188,-0.70312 -8.87696,-1.93359 l 3.33985,-11.86524 q 6.32812,1.84571 12.30469,1.84571 9.14062,0 13.53515,-4.04297 4.48242,-4.04297 4.48242,-12.74414 0,-9.14063 -6.94336,-13.71094 -6.94335,-4.6582 -23.90625,-4.6582 l -4.13085,0 0,5.88867 q 0,18.19336 -5.36133,26.80664 -5.27344,8.52539 -14.32617,12.2168 -8.96485,3.60351 -22.5,3.60351 -16.78711,0 -27.50977,-8.08594 -10.72266,-8.17382 -10.72266,-21.88476 0,-9.58008 4.92188,-16.17188 5.00976,-6.67968 15.0293,-10.45898 l 0,-45.08789 z m 30.9375,40.60547 14.23828,0 0,-27.59766 -31.02539,0 0,28.65234 q 7.38281,-1.05468 16.78711,-1.05468 z m 14.23828,12.56836 -15.46875,0 q -18.01758,0 -26.10352,4.39453 -7.99805,4.30664 -7.99805,14.50195 0,7.82227 6.41602,12.2168 6.41602,4.39453 17.57812,4.39453 13.88672,0 19.6875,-6.67969 5.88868,-6.67969 5.88868,-20.6543 l 0,-8.17382 z"
         style="font-style:normal;font-variant:normal;font-weight:normal;font-stretch:normal;font-size:180px;line-height:125%;font-family:'Noto Sans Tamil';-inkscape-font-specification:'Noto Sans Tamil, Normal';text-align:start;writing-mode:lr-tb;text-anchor:start"
         id="path3427"
         inkscape:connector-curvature="0" />
      <path
         d="m 667.4654,467.19366 0,-12.74414 82.44141,0 0,12.74414 -82.44141,0 z m 0,35.85938 0,-12.83203 82.44141,0 0,12.83203 -82.44141,0 z m 40.78125,39.02344 0,0 z m 0.9668,-128.58399 0,0 z"
         style="font-style:normal;font-variant:normal;font-weight:normal;font-stretch:normal;font-size:180px;line-height:125%;font-family:'Noto Sans Tamil';-inkscape-font-specification:'Noto Sans Tamil, Normal';text-align:start;writing-mode:lr-tb;text-anchor:start"
         id="path3429"
         inkscape:connector-curvature="0" />
      <path
         d="m 835.77595,442.40851 94.13086,0 0,13.00781 -33.66211,0 0,27.59766 4.92187,0 q 23.81836,0 34.7168,8.26172 10.89844,8.26171 10.89844,23.46679 0,13.71094 -8.17383,21.18164 -8.17383,7.47071 -23.29102,7.47071 -3.95507,0 -8.87695,-0.70313 -4.92187,-0.70312 -8.87695,-1.93359 l 3.33984,-11.86524 q 6.32813,1.84571 12.30469,1.84571 9.14062,0 13.53515,-4.04297 4.48243,-4.04297 4.48243,-12.74414 0,-9.14063 -6.94336,-13.71094 -6.94336,-4.6582 -23.90625,-4.6582 l -4.13086,0 0,5.88867 q 0,18.19336 -5.36133,26.80664 -5.27344,8.52539 -14.32617,12.2168 -8.96485,3.60351 -22.5,3.60351 -16.78711,0 -27.50977,-8.08594 -10.72265,-8.17382 -10.72265,-21.88476 0,-9.58008 4.92187,-16.17188 5.00977,-6.67968 15.0293,-10.45898 l 0,-45.08789 z m 30.9375,40.60547 14.23828,0 0,-27.59766 -31.02539,0 0,28.65234 q 7.38281,-1.05468 16.78711,-1.05468 z m 14.23828,12.56836 -15.46875,0 q -18.01758,0 -26.10352,4.39453 -7.99804,4.30664 -7.99804,14.50195 0,7.82227 6.41601,12.2168 6.41602,4.39453 17.57813,4.39453 13.88672,0 19.6875,-6.67969 5.88867,-6.67969 5.88867,-20.6543 l 0,-8.17382 z"
         style="font-style:normal;font-variant:normal;font-weight:normal;font-stretch:normal;font-size:180px;line-height:125%;font-family:'Noto Sans Tamil';-inkscape-font-specification:'Noto Sans Tamil, Normal';text-align:start;writing-mode:lr-tb;text-anchor:start"
         id="path3431"
         inkscape:connector-curvature="0" />
      <path
         d="m 1051.9869,524.76202 q -3.6035,-7.29492 -3.6035,-15.82031 0,-13.79883 8.3496,-21.97265 8.4375,-8.17383 23.2031,-8.17383 13.6231,0 22.0606,8.61328 8.5253,8.52539 8.5253,22.93945 0,15.9082 -9.6679,24.69727 -9.5801,8.70117 -25.6641,8.70117 -18.1933,0 -32.6074,-8.87695 -14.3262,-8.96485 -22.2363,-25.13672 -7.9102,-16.17188 -7.9102,-36.5625 0,-24.4336 10.2832,-43.24219 10.2832,-18.89648 28.125,-29.17969 17.9297,-10.37109 38.0566,-10.37109 20.3907,0 33.3106,7.11914 13.0078,7.11914 19.6875,21.97266 6.6797,14.85351 6.6797,42.89062 l 0,79.7168 -15.5567,0 0,-67.93946 q 0,-22.32421 -2.1972,-34.71679 -2.1094,-12.48047 -7.5586,-20.47852 -5.4492,-7.99805 -13.8867,-11.51367 -8.4375,-3.51563 -20.2149,-3.51563 -15.2929,0 -29.707,8.4375 -14.4141,8.4375 -22.7637,24.52149 -8.2617,15.99609 -8.2617,37.79297 0,17.05078 6.0645,30.05859 6.1523,13.00781 17.4902,20.03906 z m 16.5234,5.80079 q 3.1641,0.61523 7.5586,0.61523 9.668,0 14.9414,-5.44922 5.2735,-5.44922 5.2735,-15.38086 0,-8.17383 -4.5704,-13.35937 -4.5703,-5.18555 -12.1289,-5.18555 -7.9101,0 -12.5683,5.09766 -4.5703,5.00976 -4.5703,13.88671 0,11.77735 6.0644,19.7754 z"
         style="font-style:normal;font-variant:normal;font-weight:normal;font-stretch:normal;font-size:180px;line-height:125%;font-family:'Noto Sans Tamil';-inkscape-font-specification:'Noto Sans Tamil, Normal';text-align:start;writing-mode:lr-tb;text-anchor:start"
         id="path3433"
         inkscape:connector-curvature="0" />
      <path
         d="m 1220.7369,460.07452 q 0,5.71289 -5.625,5.71289 -5.8008,0 -5.8008,-5.71289 0,-5.625 5.8008,-5.625 5.625,0 5.625,5.625 z m -25.6641,9.84375 q 0,5.80079 -5.625,5.80079 -5.7129,0 -5.7129,-5.80079 0,-5.625 5.7129,-5.625 5.625,0 5.625,5.625 z m 51.3281,0 q 0,5.80079 -5.625,5.80079 -5.8007,0 -5.8007,-5.80079 0,-5.625 5.8007,-5.625 5.625,0 5.625,5.625 z m 8.877,24.69727 q 0,5.80078 -5.7129,5.80078 -5.625,0 -5.625,-5.80078 0,-5.71289 5.625,-5.71289 5.7129,0 5.7129,5.71289 z m -68.9941,0 q 0,5.80078 -5.7129,5.80078 -5.7129,0 -5.7129,-5.80078 0,-5.71289 5.7129,-5.71289 5.7129,0 5.7129,5.71289 z m 8.789,24.60937 q 0,5.80079 -5.625,5.80079 -5.7129,0 -5.7129,-5.80079 0,-5.625 5.7129,-5.625 5.625,0 5.625,5.625 z m 51.3281,0 q 0,5.80079 -5.625,5.80079 -5.8007,0 -5.8007,-5.80079 0,-5.625 5.8007,-5.625 5.625,0 5.625,5.625 z m -25.664,9.93165 q 0,5.71289 -5.625,5.71289 -5.8008,0 -5.8008,-5.71289 0,-5.7129 5.8008,-5.7129 5.625,0 5.625,5.7129 z m -5.7129,-86.74805 0,0 z m 0,99.66797 0,0 z"
         style="font-style:normal;font-variant:normal;font-weight:normal;font-stretch:normal;font-size:180px;line-height:125%;font-family:'Noto Sans Tamil';-inkscape-font-specification:'Noto Sans Tamil, Normal';text-align:start;writing-mode:lr-tb;text-anchor:start"
         id="path3435"
         inkscape:connector-curvature="0" />
      <path
         d="m 1463.2037,405.31866 16.2597,0 0,80.77149 48.252,-42.45117 20.6543,0 -52.207,46.05468 54.4043,52.38282 -21.0938,0 -50.0098,-48.07617 0,48.07617 -16.2597,0 0,-136.75782 z"
         style="font-style:normal;font-variant:normal;font-weight:normal;font-stretch:normal;font-size:180px;line-height:125%;font-family:'Noto Sans Tamil';-inkscape-font-specification:'Noto Sans Tamil, Normal';text-align:start;writing-mode:lr-tb;text-anchor:start"
         id="path3437"
         inkscape:connector-curvature="0" />
      <path
         d="m 1646.1041,488.81476 0,7.91015 -74.3555,0 q 1.0547,16.69922 10.0195,25.48829 9.0528,8.70117 25.1368,8.70117 9.3164,0 18.0175,-2.28516 8.7891,-2.28515 17.4024,-6.85547 l 0,15.29297 q -8.7012,3.69141 -17.8418,5.625 -9.1406,1.9336 -18.5449,1.9336 -23.5547,0 -37.3536,-13.71094 -13.7109,-13.71094 -13.7109,-37.08985 0,-24.16992 13.0078,-38.32031 13.0957,-14.23828 35.2442,-14.23828 19.8632,0 31.3769,12.83203 11.6016,12.74414 11.6016,34.7168 z m -16.1719,-4.7461 q -0.1758,-13.27148 -7.4707,-21.18164 -7.207,-7.91015 -19.1602,-7.91015 -13.5351,0 -21.7089,7.64648 -8.086,7.64649 -9.3165,21.53321 l 57.6563,-0.0879 z"
         style="font-style:normal;font-variant:normal;font-weight:normal;font-stretch:normal;font-size:180px;line-height:125%;font-family:'Noto Sans Tamil';-inkscape-font-specification:'Noto Sans Tamil, Normal';text-align:start;writing-mode:lr-tb;text-anchor:start"
         id="path3439"
         inkscape:connector-curvature="0" />
      <path
         d="m 72.270088,788.637 -15.46875,0 0,-89.82422 q 0,-14.50196 0.703125,-22.14844 -2.548828,2.72461 -6.855469,6.32812 l -17.929687,14.76563 -8.261719,-10.63477 34.716797,-27.07031 13.095703,0 0,128.58399 z"
         style="font-style:normal;font-variant:normal;font-weight:normal;font-stretch:normal;font-size:180px;line-height:125%;font-family:'Noto Sans Tamil';-inkscape-font-specification:'Noto Sans Tamil, Normal';text-align:start;writing-mode:lr-tb;text-anchor:start"
         id="path3441"
         inkscape:connector-curvature="0" />
      <path
         d="m 162.79743,790.39481 q -20.91797,0 -31.72851,-16.78711 -10.72266,-16.78711 -10.72266,-49.39453 0,-33.92578 10.45898,-50.00977 10.54688,-16.08398 31.99219,-16.08398 20.83008,0 31.81641,16.875 10.98633,16.78711 10.98633,49.21875 0,33.39843 -10.63477,49.83398 -10.54687,16.34766 -32.16797,16.34766 z m 0,-13.44727 q 13.97461,0 20.39063,-12.56836 6.41601,-12.56836 6.41601,-40.16601 0,-27.50977 -6.5039,-39.99024 -6.41602,-12.56836 -20.30274,-12.56836 -14.0625,0 -20.39062,12.48047 -6.24024,12.48047 -6.24024,40.07813 0,27.68554 6.24024,40.2539 6.32812,12.48047 20.39062,12.48047 z"
         style="font-style:normal;font-variant:normal;font-weight:normal;font-stretch:normal;font-size:180px;line-height:125%;font-family:'Noto Sans Tamil';-inkscape-font-specification:'Noto Sans Tamil, Normal';text-align:start;writing-mode:lr-tb;text-anchor:start"
         id="path3443"
         inkscape:connector-curvature="0" />
      <path
         d="m 227.22126,778.88114 q 0,-3.33985 0.87891,-5.625 0.8789,-2.37305 2.37304,-3.7793 1.49414,-1.49414 3.51563,-2.10938 2.02148,-0.70312 4.39453,-0.70312 2.28516,0 4.30664,0.70312 2.10938,0.61524 3.60352,2.10938 1.49414,1.40625 2.37304,3.7793 0.87891,2.28515 0.87891,5.625 0,3.25195 -0.87891,5.625 -0.8789,2.28515 -2.37304,3.77929 -1.49414,1.49414 -3.60352,2.19727 -2.02148,0.70312 -4.30664,0.70312 -2.37305,0 -4.39453,-0.70312 -2.02149,-0.70313 -3.51563,-2.19727 -1.49414,-1.49414 -2.37304,-3.77929 -0.87891,-2.37305 -0.87891,-5.625 z"
         style="font-style:normal;font-variant:normal;font-weight:normal;font-stretch:normal;font-size:180px;line-height:125%;font-family:'Noto Sans Tamil';-inkscape-font-specification:'Noto Sans Tamil, Normal';text-align:start;writing-mode:lr-tb;text-anchor:start"
         id="path3445"
         inkscape:connector-curvature="0" />
      <path
         d="m 378.12946,775.80496 q -5.44922,-9.14062 -5.44922,-20.30273 0,-13.44727 7.82227,-21.62109 7.82227,-8.17383 20.91797,-8.17383 13.35937,0 21.62109,8.4375 8.34961,8.34961 8.34961,22.76367 0,15.73242 -10.98633,24.60937 -10.89843,8.78907 -28.56445,8.78907 -20.83008,0 -37.5293,-9.31641 -16.61132,-9.4043 -25.66406,-26.71875 -8.96484,-17.40234 -8.96484,-40.51758 0,-23.3789 9.66797,-40.78125 9.66797,-17.40234 27.1582,-26.71875 17.57812,-9.3164 39.28711,-9.3164 17.22656,0 27.68555,8.34961 10.45898,8.26171 10.45898,23.20312 0,13.71094 -8.34961,21.70899 -8.26172,7.91015 -21.62109,7.91015 -13.27149,0 -21.00586,-7.64648 -7.73438,-7.73438 -7.73438,-20.83008 0,-9.75586 6.67969,-18.54492 -21.79687,5.09765 -34.01367,21.5332 -12.2168,16.43555 -12.2168,40.60547 0,24.43359 11.07422,40.86914 11.07422,16.34766 31.37695,21.70898 z m 18.45703,-126.38671 q -7.29492,8.17382 -7.29492,19.51171 0,7.73438 3.95508,12.12891 4.04297,4.30664 10.98633,4.30664 7.03125,0 11.25,-4.6582 4.21875,-4.65821 4.21875,-12.2168 0,-8.96484 -6.24024,-13.97461 -6.24023,-5.09765 -16.52343,-5.09765 l -0.35157,0 z m -2.28515,128.32031 q 10.37109,0 16.61133,-5.53711 6.24023,-5.53711 6.24023,-15.29297 0,-8.26172 -4.21875,-13.35938 -4.13086,-5.18554 -11.25,-5.18554 -6.94336,0 -10.98633,5.00976 -3.95508,5.00977 -3.95508,13.97461 0,12.12891 6.06446,20.39063 l 1.49414,0 z"
         style="font-style:normal;font-variant:normal;font-weight:normal;font-stretch:normal;font-size:180px;line-height:125%;font-family:'Noto Sans Tamil';-inkscape-font-specification:'Noto Sans Tamil, Normal';text-align:start;writing-mode:lr-tb;text-anchor:start"
         id="path3447"
         inkscape:connector-curvature="0" />
      <path
         d="m 469.09626,688.96903 94.13086,0 0,13.00781 -33.66211,0 0,27.59766 4.92188,0 q 23.81835,0 34.71679,8.26171 10.89844,8.26172 10.89844,23.4668 0,13.71094 -8.17383,21.18164 -8.17383,7.4707 -23.29101,7.4707 -3.95508,0 -8.87696,-0.70312 -4.92187,-0.70313 -8.87695,-1.93359 l 3.33984,-11.86524 q 6.32813,1.8457 12.30469,1.8457 9.14063,0 13.53516,-4.04296 4.48242,-4.04297 4.48242,-12.74414 0,-9.14063 -6.94336,-13.71094 -6.94336,-4.65821 -23.90625,-4.65821 l -4.13086,0 0,5.88868 q 0,18.19336 -5.36133,26.80664 -5.27344,8.52539 -14.32617,12.21679 -8.96484,3.60352 -22.5,3.60352 -16.78711,0 -27.50977,-8.08594 -10.72265,-8.17383 -10.72265,-21.88476 0,-9.58008 4.92187,-16.17188 5.00977,-6.67969 15.0293,-10.45898 l 0,-45.08789 z m 30.9375,40.60547 14.23828,0 0,-27.59766 -31.02539,0 0,28.65234 q 7.38281,-1.05468 16.78711,-1.05468 z m 14.23828,12.56835 -15.46875,0 q -18.01758,0 -26.10351,4.39454 -7.99805,4.30664 -7.99805,14.50195 0,7.82226 6.41601,12.2168 6.41602,4.39453 17.57813,4.39453 13.88672,0 19.6875,-6.67969 5.88867,-6.67969 5.88867,-20.6543 l 0,-8.17383 z"
         style="font-style:normal;font-variant:normal;font-weight:normal;font-stretch:normal;font-size:180px;line-height:125%;font-family:'Noto Sans Tamil';-inkscape-font-specification:'Noto Sans Tamil, Normal';text-align:start;writing-mode:lr-tb;text-anchor:start"
         id="path3449"
         inkscape:connector-curvature="0" />
      <path
         d="m 645.66853,713.75418 0,-12.74414 82.4414,0 0,12.74414 -82.4414,0 z m 0,35.85938 0,-12.83203 82.4414,0 0,12.83203 -82.4414,0 z m 40.78125,39.02344 0,0 z m 0.96679,-128.58399 0,0 z"
         style="font-style:normal;font-variant:normal;font-weight:normal;font-stretch:normal;font-size:180px;line-height:125%;font-family:'Noto Sans Tamil';-inkscape-font-specification:'Noto Sans Tamil, Normal';text-align:start;writing-mode:lr-tb;text-anchor:start"
         id="path3451"
         inkscape:connector-curvature="0" />
      <path
         d="m 813.97907,688.96903 94.13086,0 0,13.00781 -33.66211,0 0,27.59766 4.92188,0 q 23.81836,0 34.71679,8.26171 10.89844,8.26172 10.89844,23.4668 0,13.71094 -8.17383,21.18164 -8.17382,7.4707 -23.29101,7.4707 -3.95508,0 -8.87695,-0.70312 -4.92188,-0.70313 -8.87696,-1.93359 l 3.33985,-11.86524 q 6.32812,1.8457 12.30468,1.8457 9.14063,0 13.53516,-4.04296 4.48242,-4.04297 4.48242,-12.74414 0,-9.14063 -6.94336,-13.71094 -6.94336,-4.65821 -23.90625,-4.65821 l -4.13086,0 0,5.88868 q 0,18.19336 -5.36133,26.80664 -5.27343,8.52539 -14.32617,12.21679 -8.96484,3.60352 -22.5,3.60352 -16.78711,0 -27.50976,-8.08594 -10.72266,-8.17383 -10.72266,-21.88476 0,-9.58008 4.92188,-16.17188 5.00976,-6.67969 15.02929,-10.45898 l 0,-45.08789 z m 30.9375,40.60547 14.23828,0 0,-27.59766 -31.02539,0 0,28.65234 q 7.38282,-1.05468 16.78711,-1.05468 z m 14.23828,12.56835 -15.46875,0 q -18.01757,0 -26.10351,4.39454 -7.99805,4.30664 -7.99805,14.50195 0,7.82226 6.41602,12.2168 6.41601,4.39453 17.57812,4.39453 13.88672,0 19.6875,-6.67969 5.88867,-6.67969 5.88867,-20.6543 l 0,-8.17383 z"
         style="font-style:normal;font-variant:normal;font-weight:normal;font-stretch:normal;font-size:180px;line-height:125%;font-family:'Noto Sans Tamil';-inkscape-font-specification:'Noto Sans Tamil, Normal';text-align:start;writing-mode:lr-tb;text-anchor:start"
         id="path3453"
         inkscape:connector-curvature="0" />
      <path
         d="m 1049.2623,775.80496 q -5.4492,-9.14062 -5.4492,-20.30273 0,-13.44727 7.8222,-21.62109 7.8223,-8.17383 20.918,-8.17383 13.3594,0 21.6211,8.4375 8.3496,8.34961 8.3496,22.76367 0,15.73242 -10.9863,24.60937 -10.8985,8.78907 -28.5645,8.78907 -20.8301,0 -37.5293,-9.31641 -16.6113,-9.4043 -25.66405,-26.71875 -8.96484,-17.40234 -8.96484,-40.51758 0,-23.3789 9.66799,-40.78125 9.6679,-17.40234 27.1582,-26.71875 17.5781,-9.3164 39.2871,-9.3164 17.2266,0 27.6855,8.34961 10.459,8.26171 10.459,23.20312 0,13.71094 -8.3496,21.70899 -8.2617,7.91015 -21.6211,7.91015 -13.2715,0 -21.0058,-7.64648 -7.7344,-7.73438 -7.7344,-20.83008 0,-9.75586 6.6797,-18.54492 -21.7969,5.09765 -34.0137,21.5332 -12.2168,16.43555 -12.2168,40.60547 0,24.43359 11.0742,40.86914 11.0742,16.34766 31.377,21.70898 z m 18.457,-126.38671 q -7.2949,8.17382 -7.2949,19.51171 0,7.73438 3.9551,12.12891 4.0429,4.30664 10.9863,4.30664 7.0312,0 11.25,-4.6582 4.2187,-4.65821 4.2187,-12.2168 0,-8.96484 -6.2402,-13.97461 -6.2402,-5.09765 -16.5234,-5.09765 l -0.3516,0 z m -2.2851,128.32031 q 10.371,0 16.6113,-5.53711 6.2402,-5.53711 6.2402,-15.29297 0,-8.26172 -4.2187,-13.35938 -4.1309,-5.18554 -11.25,-5.18554 -6.9434,0 -10.9864,5.00976 -3.955,5.00977 -3.955,13.97461 0,12.12891 6.0644,20.39063 l 1.4942,0 z"
         style="font-style:normal;font-variant:normal;font-weight:normal;font-stretch:normal;font-size:180px;line-height:125%;font-family:'Noto Sans Tamil';-inkscape-font-specification:'Noto Sans Tamil, Normal';text-align:start;writing-mode:lr-tb;text-anchor:start"
         id="path3455"
         inkscape:connector-curvature="0" />
      <path
         d="m 1167.6509,706.63504 q 0,5.71289 -5.625,5.71289 -5.8007,0 -5.8007,-5.71289 0,-5.625 5.8007,-5.625 5.625,0 5.625,5.625 z m -25.664,9.84375 q 0,5.80078 -5.625,5.80078 -5.7129,0 -5.7129,-5.80078 0,-5.625 5.7129,-5.625 5.625,0 5.625,5.625 z m 51.3281,0 q 0,5.80078 -5.625,5.80078 -5.8008,0 -5.8008,-5.80078 0,-5.625 5.8008,-5.625 5.625,0 5.625,5.625 z m 8.877,24.69727 q 0,5.80078 -5.7129,5.80078 -5.625,0 -5.625,-5.80078 0,-5.71289 5.625,-5.71289 5.7129,0 5.7129,5.71289 z m -68.9942,0 q 0,5.80078 -5.7129,5.80078 -5.7129,0 -5.7129,-5.80078 0,-5.71289 5.7129,-5.71289 5.7129,0 5.7129,5.71289 z m 8.7891,24.60937 q 0,5.80078 -5.625,5.80078 -5.7129,0 -5.7129,-5.80078 0,-5.625 5.7129,-5.625 5.625,0 5.625,5.625 z m 51.3281,0 q 0,5.80078 -5.625,5.80078 -5.8008,0 -5.8008,-5.80078 0,-5.625 5.8008,-5.625 5.625,0 5.625,5.625 z m -25.6641,9.93164 q 0,5.71289 -5.625,5.71289 -5.8007,0 -5.8007,-5.71289 0,-5.71289 5.8007,-5.71289 5.625,0 5.625,5.71289 z m -5.7128,-86.74804 0,0 z m 0,99.66797 0,0 z"
         style="font-style:normal;font-variant:normal;font-weight:normal;font-stretch:normal;font-size:180px;line-height:125%;font-family:'Noto Sans Tamil';-inkscape-font-specification:'Noto Sans Tamil, Normal';text-align:start;writing-mode:lr-tb;text-anchor:start"
         id="path3457"
         inkscape:connector-curvature="0" />
      <path
         d="m 1462.8756,651.87918 16.2597,0 0,80.77149 48.252,-42.45117 20.6543,0 -52.2071,46.05468 54.4043,52.38282 -21.0937,0 -50.0098,-48.07618 0,48.07618 -16.2597,0 0,-136.75782 z"
         style="font-style:normal;font-variant:normal;font-weight:normal;font-stretch:normal;font-size:180px;line-height:125%;font-family:'Noto Sans Tamil';-inkscape-font-specification:'Noto Sans Tamil, Normal';text-align:start;writing-mode:lr-tb;text-anchor:start"
         id="path3459"
         inkscape:connector-curvature="0" />
      <path
         d="m 1582.8463,654.5159 52.5586,0 0,13.00781 -52.5586,0 0,-13.00781 z m 69.2578,80.85938 0,7.91015 -74.3555,0 q 1.0547,16.69922 10.0195,25.48828 9.0528,8.70118 25.1368,8.70118 9.3164,0 18.0175,-2.28516 8.7891,-2.28516 17.4024,-6.85547 l 0,15.29297 q -8.7012,3.69141 -17.8418,5.625 -9.1406,1.93359 -18.5449,1.93359 -23.5547,0 -37.3536,-13.71093 -13.7109,-13.71094 -13.7109,-37.08985 0,-24.16992 13.0078,-38.32031 13.0957,-14.23828 35.2442,-14.23828 19.8632,0 31.3769,12.83203 11.6016,12.74414 11.6016,34.7168 z m -16.1719,-4.7461 q -0.1758,-13.27148 -7.4707,-21.18164 -7.207,-7.91015 -19.1602,-7.91015 -13.5351,0 -21.7089,7.64648 -8.086,7.64648 -9.3165,21.5332 l 57.6563,-0.0879 z"
         style="font-style:normal;font-variant:normal;font-weight:normal;font-stretch:normal;font-size:180px;line-height:125%;font-family:'Noto Sans Tamil';-inkscape-font-specification:'Noto Sans Tamil, Normal';text-align:start;writing-mode:lr-tb;text-anchor:start"
         id="path3461"
         inkscape:connector-curvature="0" />
      <path
         d="m 72.270088,1035.1975 -15.46875,0 0,-89.82421 q 0,-14.50195 0.703125,-22.14843 -2.548828,2.72461 -6.855469,6.32812 l -17.929687,14.76563 -8.261719,-10.63477 34.716797,-27.07031 13.095703,0 0,128.58397 z"
         style="font-style:normal;font-variant:normal;font-weight:normal;font-stretch:normal;font-size:180px;line-height:125%;font-family:'Noto Sans Tamil';-inkscape-font-specification:'Noto Sans Tamil, Normal';text-align:start;writing-mode:lr-tb;text-anchor:start"
         id="path3463"
         inkscape:connector-curvature="0" />
      <path
         d="m 175.2779,1035.1975 -15.46875,0 0,-89.82421 q 0,-14.50195 0.70313,-22.14843 -2.54883,2.72461 -6.85547,6.32812 l -17.92969,14.76563 -8.26172,-10.63477 34.7168,-27.07031 13.0957,0 0,128.58397 z"
         style="font-style:normal;font-variant:normal;font-weight:normal;font-stretch:normal;font-size:180px;line-height:125%;font-family:'Noto Sans Tamil';-inkscape-font-specification:'Noto Sans Tamil, Normal';text-align:start;writing-mode:lr-tb;text-anchor:start"
         id="path3465"
         inkscape:connector-curvature="0" />
      <path
         d="m 227.22126,1025.4417 q 0,-3.3399 0.87891,-5.625 0.8789,-2.3731 2.37304,-3.7793 1.49414,-1.4942 3.51563,-2.1094 2.02148,-0.7031 4.39453,-0.7031 2.28516,0 4.30664,0.7031 2.10938,0.6152 3.60352,2.1094 1.49414,1.4062 2.37304,3.7793 0.87891,2.2851 0.87891,5.625 0,3.2519 -0.87891,5.625 -0.8789,2.2851 -2.37304,3.7793 -1.49414,1.4941 -3.60352,2.1972 -2.02148,0.7031 -4.30664,0.7031 -2.37305,0 -4.39453,-0.7031 -2.02149,-0.7031 -3.51563,-2.1972 -1.49414,-1.4942 -2.37304,-3.7793 -0.87891,-2.3731 -0.87891,-5.625 z"
         style="font-style:normal;font-variant:normal;font-weight:normal;font-stretch:normal;font-size:180px;line-height:125%;font-family:'Noto Sans Tamil';-inkscape-font-specification:'Noto Sans Tamil, Normal';text-align:start;writing-mode:lr-tb;text-anchor:start"
         id="path3467"
         inkscape:connector-curvature="0" />
      <path
         d="m 435.8736,952.22876 q 10.81055,9.58008 16.25977,22.06055 5.53711,12.48047 5.53711,26.80669 0,17.4023 -7.64649,26.8066 -7.55859,9.4043 -21.5332,9.4043 -14.32617,0 -22.06055,-9.3164 -7.73437,-9.4043 -7.73437,-26.2793 0,-13.79884 4.13086,-25.4883 4.13086,-11.68945 12.91992,-22.23632 -15.38086,-7.5586 -34.89258,-7.5586 -18.54492,0 -30.84961,9.66797 -12.30468,9.66797 -15.46875,26.80664 10.3711,-6.76758 21.6211,-6.76758 13.35937,0 21.18164,7.91016 7.91015,7.91016 7.91015,21.53323 0,14.6777 -8.17382,23.2031 -8.17383,8.5254 -22.32422,8.5254 -15.90821,0 -25.57617,-11.9531 -9.66797,-12.0411 -9.66797,-34.27738 0,-17.31445 7.82226,-30.49805 7.82227,-13.27148 22.14844,-20.39062 14.32617,-7.11914 33.13477,-7.11914 11.51367,0 22.76367,2.98828 11.25,2.98828 20.47851,8.61328 5.80078,-5.27344 14.58985,-8.4375 8.78906,-3.16406 16.875,-3.16406 23.55468,0 36.38672,14.15039 12.83203,14.0625 12.83203,37.61719 0,14.15039 -3.69141,26.80661 -3.69141,12.5684 -12.65625,25.6641 l -13.0957,-7.9102 q 7.29492,-10.3711 10.37109,-20.9179 3.16406,-10.54691 3.16406,-22.93949 0,-18.10547 -9.05273,-28.56445 -8.96484,-10.54688 -24.60938,-10.54688 -12.1289,0 -21.09375,5.80078 z m -9.75586,9.05274 q -12.21679,15.20508 -12.21679,39.8145 0,11.9531 3.60351,18.0175 3.69141,5.9766 10.45899,5.9766 7.03125,0 10.72265,-5.9766 3.69141,-6.0644 3.69141,-16.6113 0,-26.36719 -16.25977,-41.2207 z m -92.28515,35.77148 q 0.79101,13.79882 6.32812,20.91802 5.53711,7.1191 14.94141,7.1191 6.94336,0 11.16211,-4.6582 4.21875,-4.6582 4.21875,-13.1836 0,-8.61329 -4.6582,-13.53516 -4.57032,-4.92188 -12.2168,-4.92188 -9.93164,0 -19.77539,8.26172 z m 91.75781,-61.52344 0,0 z"
         style="font-style:normal;font-variant:normal;font-weight:normal;font-stretch:normal;font-size:180px;line-height:125%;font-family:'Noto Sans Tamil';-inkscape-font-specification:'Noto Sans Tamil, Normal';text-align:start;writing-mode:lr-tb;text-anchor:start"
         id="path3469"
         inkscape:connector-curvature="0" />
      <path
         d="m 547.4947,935.52954 94.13086,0 0,13.00782 -33.66211,0 0,27.59765 4.92187,0 q 23.81836,0 34.7168,8.26172 10.89844,8.26172 10.89844,23.46677 0,13.711 -8.17383,21.1817 -8.17383,7.4707 -23.29102,7.4707 -3.95507,0 -8.87695,-0.7032 -4.92187,-0.7031 -8.87695,-1.9335 l 3.33984,-11.8653 q 6.32813,1.8457 12.30469,1.8457 9.14062,0 13.53515,-4.0429 4.48243,-4.043 4.48243,-12.7442 0,-9.14061 -6.94336,-13.71092 -6.94336,-4.65821 -23.90625,-4.65821 l -4.13086,0 0,5.88867 q 0,18.19336 -5.36133,26.80666 -5.27344,8.5254 -14.32617,12.2168 -8.96485,3.6035 -22.5,3.6035 -16.78711,0 -27.50977,-8.0859 -10.72265,-8.1739 -10.72265,-21.8848 0,-9.58008 4.92187,-16.17188 5.00977,-6.67969 15.0293,-10.45898 l 0,-45.0879 z m 30.9375,40.60547 14.23828,0 0,-27.59765 -31.02539,0 0,28.65234 q 7.38281,-1.05469 16.78711,-1.05469 z m 14.23828,12.56836 -15.46875,0 q -18.01758,0 -26.10352,4.39453 -7.99804,4.30664 -7.99804,14.502 0,7.8222 6.41601,12.2168 6.41602,4.3945 17.57813,4.3945 13.88672,0 19.6875,-6.6797 5.88867,-6.6797 5.88867,-20.6543 l 0,-8.17383 z"
         style="font-style:normal;font-variant:normal;font-weight:normal;font-stretch:normal;font-size:180px;line-height:125%;font-family:'Noto Sans Tamil';-inkscape-font-specification:'Noto Sans Tamil, Normal';text-align:start;writing-mode:lr-tb;text-anchor:start"
         id="path3471"
         inkscape:connector-curvature="0" />
      <path
         d="m 724.06696,960.3147 0,-12.74414 82.44141,0 0,12.74414 -82.44141,0 z m 0,35.85938 0,-12.83204 82.44141,0 0,12.83204 -82.44141,0 z m 40.78125,39.02342 0,0 z m 0.9668,-128.58397 0,0 z"
         style="font-style:normal;font-variant:normal;font-weight:normal;font-stretch:normal;font-size:180px;line-height:125%;font-family:'Noto Sans Tamil';-inkscape-font-specification:'Noto Sans Tamil, Normal';text-align:start;writing-mode:lr-tb;text-anchor:start"
         id="path3473"
         inkscape:connector-curvature="0" />
      <path
         d="m 892.37751,935.52954 94.13086,0 0,13.00782 -33.66211,0 0,27.59765 4.92188,0 q 23.81835,0 34.71679,8.26172 10.89847,8.26172 10.89847,23.46677 0,13.711 -8.17386,21.1817 -8.17383,7.4707 -23.29101,7.4707 -3.95508,0 -8.87696,-0.7032 -4.92187,-0.7031 -8.87695,-1.9335 l 3.33984,-11.8653 q 6.32813,1.8457 12.30469,1.8457 9.14063,0 13.53516,-4.0429 4.48242,-4.043 4.48242,-12.7442 0,-9.14061 -6.94336,-13.71092 -6.94336,-4.65821 -23.90625,-4.65821 l -4.13086,0 0,5.88867 q 0,18.19336 -5.36133,26.80666 -5.27344,8.5254 -14.32617,12.2168 -8.96484,3.6035 -22.5,3.6035 -16.78711,0 -27.50977,-8.0859 -10.72265,-8.1739 -10.72265,-21.8848 0,-9.58008 4.92187,-16.17188 5.00977,-6.67969 15.0293,-10.45898 l 0,-45.0879 z m 30.9375,40.60547 14.23828,0 0,-27.59765 -31.02539,0 0,28.65234 q 7.38281,-1.05469 16.78711,-1.05469 z m 14.23828,12.56836 -15.46875,0 q -18.01758,0 -26.10351,4.39453 -7.99805,4.30664 -7.99805,14.502 0,7.8222 6.41601,12.2168 6.41602,4.3945 17.57813,4.3945 13.88672,0 19.6875,-6.6797 5.88867,-6.6797 5.88867,-20.6543 l 0,-8.17383 z"
         style="font-style:normal;font-variant:normal;font-weight:normal;font-stretch:normal;font-size:180px;line-height:125%;font-family:'Noto Sans Tamil';-inkscape-font-specification:'Noto Sans Tamil, Normal';text-align:start;writing-mode:lr-tb;text-anchor:start"
         id="path3475"
         inkscape:connector-curvature="0" />
      <path
         d="m 1185.4049,952.22876 q 10.8105,9.58008 16.2597,22.06055 5.5371,12.48047 5.5371,26.80669 0,17.4023 -7.6465,26.8066 -7.5585,9.4043 -21.5332,9.4043 -14.3261,0 -22.0605,-9.3164 -7.7344,-9.4043 -7.7344,-26.2793 0,-13.79884 4.1309,-25.4883 4.1308,-11.68945 12.9199,-22.23632 -15.3809,-7.5586 -34.8926,-7.5586 -18.5449,0 -30.8496,9.66797 -12.3047,9.66797 -15.4687,26.80664 10.3711,-6.76758 21.6211,-6.76758 13.3593,0 21.1816,7.91016 7.9102,7.91016 7.9102,21.53323 0,14.6777 -8.1739,23.2031 -8.1738,8.5254 -22.3242,8.5254 -15.9082,0 -25.5762,-11.9531 -9.6679,-12.0411 -9.6679,-34.27738 0,-17.31445 7.8222,-30.49805 7.8223,-13.27148 22.1485,-20.39062 14.3261,-7.11914 33.1347,-7.11914 11.5137,0 22.7637,2.98828 11.25,2.98828 20.4785,8.61328 5.8008,-5.27344 14.5899,-8.4375 8.789,-3.16406 16.875,-3.16406 23.5547,0 36.3867,14.15039 12.832,14.0625 12.832,37.61719 0,14.15039 -3.6914,26.80661 -3.6914,12.5684 -12.6562,25.6641 l -13.0957,-7.9102 q 7.2949,-10.3711 10.3711,-20.9179 3.164,-10.54691 3.164,-22.93949 0,-18.10547 -9.0527,-28.56445 -8.9649,-10.54688 -24.6094,-10.54688 -12.1289,0 -21.0937,5.80078 z m -9.7559,9.05274 q -12.2168,15.20508 -12.2168,39.8145 0,11.9531 3.6035,18.0175 3.6914,5.9766 10.459,5.9766 7.0312,0 10.7227,-5.9766 3.6914,-6.0644 3.6914,-16.6113 0,-26.36719 -16.2598,-41.2207 z m -92.2852,35.77148 q 0.7911,13.79882 6.3282,20.91802 5.5371,7.1191 14.9414,7.1191 6.9433,0 11.1621,-4.6582 4.2187,-4.6582 4.2187,-13.1836 0,-8.61329 -4.6582,-13.53516 -4.5703,-4.92188 -12.2168,-4.92188 -9.9316,0 -19.7754,8.26172 z m 91.7579,-61.52344 0,0 z"
         style="font-style:normal;font-variant:normal;font-weight:normal;font-stretch:normal;font-size:180px;line-height:125%;font-family:'Noto Sans Tamil';-inkscape-font-specification:'Noto Sans Tamil, Normal';text-align:start;writing-mode:lr-tb;text-anchor:start"
         id="path3477"
         inkscape:connector-curvature="0" />
      <path
         d="m 1324.4478,953.19556 q 0,5.71289 -5.625,5.71289 -5.8008,0 -5.8008,-5.71289 0,-5.625 5.8008,-5.625 5.625,0 5.625,5.625 z m -25.664,9.84375 q 0,5.80078 -5.625,5.80078 -5.7129,0 -5.7129,-5.80078 0,-5.625 5.7129,-5.625 5.625,0 5.625,5.625 z m 51.3281,0 q 0,5.80078 -5.625,5.80078 -5.8008,0 -5.8008,-5.80078 0,-5.625 5.8008,-5.625 5.625,0 5.625,5.625 z m 8.8769,24.69727 q 0,5.80078 -5.7129,5.80078 -5.625,0 -5.625,-5.80078 0,-5.71289 5.625,-5.71289 5.7129,0 5.7129,5.71289 z m -68.9941,0 q 0,5.80078 -5.7129,5.80078 -5.7129,0 -5.7129,-5.80078 0,-5.71289 5.7129,-5.71289 5.7129,0 5.7129,5.71289 z m 8.7891,24.60942 q 0,5.8007 -5.625,5.8007 -5.7129,0 -5.7129,-5.8007 0,-5.625 5.7129,-5.625 5.625,0 5.625,5.625 z m 51.3281,0 q 0,5.8007 -5.625,5.8007 -5.8008,0 -5.8008,-5.8007 0,-5.625 5.8008,-5.625 5.625,0 5.625,5.625 z m -25.6641,9.9316 q 0,5.7129 -5.625,5.7129 -5.8008,0 -5.8008,-5.7129 0,-5.7129 5.8008,-5.7129 5.625,0 5.625,5.7129 z m -5.7129,-86.74806 0,0 z m 0,99.66796 0,0 z"
         style="font-style:normal;font-variant:normal;font-weight:normal;font-stretch:normal;font-size:180px;line-height:125%;font-family:'Noto Sans Tamil';-inkscape-font-specification:'Noto Sans Tamil, Normal';text-align:start;writing-mode:lr-tb;text-anchor:start"
         id="path3479"
         inkscape:connector-curvature="0" />
      <path
         d="m 1463.399,898.4397 16.2598,0 0,80.77149 48.2519,-42.45118 20.6543,0 -52.207,46.05469 54.4043,52.3828 -21.0938,0 -50.0097,-48.07616 0,48.07616 -16.2598,0 0,-136.7578 z"
         style="font-style:normal;font-variant:normal;font-weight:normal;font-stretch:normal;font-size:180px;line-height:125%;font-family:'Noto Sans Tamil';-inkscape-font-specification:'Noto Sans Tamil, Normal';text-align:start;writing-mode:lr-tb;text-anchor:start"
         id="path3481"
         inkscape:connector-curvature="0" />
      <path
         d="m 1610.0006,985.71509 q -19.5997,0 -27.1582,4.48242 -7.5586,4.48243 -7.5586,15.29299 0,8.6133 5.625,13.7109 5.7129,5.0098 15.4687,5.0098 13.4473,0 21.5332,-9.4922 8.1738,-9.5801 8.1738,-25.40039 l 0,-3.60352 -16.0839,0 z m 32.2558,-6.67969 0,56.1621 -16.1719,0 0,-14.9414 q -5.5371,8.9649 -13.7988,13.2715 -8.2617,4.2187 -20.2148,4.2187 -15.1172,0 -24.0821,-8.4375 -8.8769,-8.5253 -8.8769,-22.7636 0,-16.61136 11.0742,-25.04886 11.1621,-8.4375 33.2227,-8.4375 l 22.6757,0 0,-1.58203 q 0,-11.16211 -7.3828,-17.22656 -7.2949,-6.15235 -20.5664,-6.15235 -8.4375,0 -16.4355,2.02149 -7.9981,2.02148 -15.3809,6.06445 l 0,-14.9414 q 8.877,-3.42774 17.2266,-5.09766 8.3496,-1.75781 16.2597,-1.75781 21.3575,0 31.9043,11.07422 10.5469,11.07421 10.5469,33.57421 z"
         style="font-style:normal;font-variant:normal;font-weight:normal;font-stretch:normal;font-size:180px;line-height:125%;font-family:'Noto Sans Tamil';-inkscape-font-specification:'Noto Sans Tamil, Normal';text-align:start;writing-mode:lr-tb;text-anchor:start"
         id="path3483"
         inkscape:connector-curvature="0" />
      <path
         d="m 1675.6549,936.76001 16.1718,0 0,98.43749 -16.1718,0 0,-98.43749 z m 0,-38.32031 16.1718,0 0,20.47852 -16.1718,0 0,-20.47852 z"
         style="font-style:normal;font-variant:normal;font-weight:normal;font-stretch:normal;font-size:180px;line-height:125%;font-family:'Noto Sans Tamil';-inkscape-font-specification:'Noto Sans Tamil, Normal';text-align:start;writing-mode:lr-tb;text-anchor:start"
         id="path3485"
         inkscape:connector-curvature="0" />
    </g>
  </g>
</svg>
