<?xml version="1.0" encoding="UTF-8" standalone="no"?>
<!-- Created with Inkscape (http://www.inkscape.org/) -->

<svg
   xmlns:dc="http://purl.org/dc/elements/1.1/"
   xmlns:cc="http://creativecommons.org/ns#"
   xmlns:rdf="http://www.w3.org/1999/02/22-rdf-syntax-ns#"
   xmlns:svg="http://www.w3.org/2000/svg"
   xmlns="http://www.w3.org/2000/svg"
   xmlns:sodipodi="http://sodipodi.sourceforge.net/DTD/sodipodi-0.dtd"
   xmlns:inkscape="http://www.inkscape.org/namespaces/inkscape"
   width="210mm"
   height="340mm"
   viewBox="0 0 744.09449 1204.7243"
   id="svg2"
   version="1.1"
   inkscape:version="0.91 r13725"
   sodipodi:docname="basic vowels devanagari.svg">
  <defs
     id="defs4" />
  <sodipodi:namedview
     id="base"
     pagecolor="#ffffff"
     bordercolor="#666666"
     borderopacity="1.0"
     inkscape:pageopacity="0.0"
     inkscape:pageshadow="2"
     inkscape:zoom="0.35"
     inkscape:cx="-283.57143"
     inkscape:cy="321.15969"
     inkscape:document-units="px"
     inkscape:current-layer="text3417"
     showgrid="false"
     inkscape:window-width="1920"
     inkscape:window-height="1027"
     inkscape:window-x="-8"
     inkscape:window-y="-8"
     inkscape:window-maximized="1" />
  <metadata
     id="metadata7">
    <rdf:RDF>
      <cc:Work
         rdf:about="">
        <dc:format>image/svg+xml</dc:format>
        <dc:type
           rdf:resource="http://purl.org/dc/dcmitype/StillImage" />
        <dc:title></dc:title>
      </cc:Work>
    </rdf:RDF>
  </metadata>
  <g
     inkscape:label="Layer 1"
     inkscape:groupmode="layer"
     id="layer1"
     transform="translate(0,152.36221)">
    <g
       style="font-style:normal;font-weight:normal;font-size:180px;line-height:125%;font-family:sans-serif;letter-spacing:0px;word-spacing:0px;fill:#000000;fill-opacity:1;stroke:none;stroke-width:1px;stroke-linecap:butt;stroke-linejoin:miter;stroke-opacity:1"
       id="text3417">
      <g
         style="font-style:normal;font-weight:normal;font-size:180px;line-height:125%;font-family:sans-serif;letter-spacing:0px;word-spacing:0px;fill:#000000;fill-opacity:1;stroke:none;stroke-width:1px;stroke-linecap:butt;stroke-linejoin:miter;stroke-opacity:1"
         id="text3490">
        <path
           d="m 133.91881,12.362157 -15.46875,0 0,-80.244141 q 0,-3.779297 0,-8.085937 0.0879,-4.306641 0.17578,-8.525391 0.17578,-4.306641 0.26367,-8.173828 0.17578,-3.955078 0.26367,-6.943359 -1.49414,1.582031 -2.63672,2.724609 -1.14257,1.142578 -2.37304,2.197266 -1.14258,1.054687 -2.46094,2.285156 -1.31836,1.142578 -3.16406,2.724609 l -13.007815,10.634766 -8.4375,-10.810547 33.662105,-26.2793 13.1836,0 0,128.496097 z"
           style="font-style:normal;font-variant:normal;font-weight:normal;font-stretch:normal;font-size:180px;line-height:125%;font-family:'Noto Sans Devanagari';-inkscape-font-specification:'Noto Sans Devanagari, Normal';text-align:start;writing-mode:lr-tb;text-anchor:start"
           id="path3503" />
        <path
           d="m 183.48912,2.6062975 q 0,-3.33984376 0.87891,-5.625 0.8789,-2.3730469 2.37304,-3.7792969 1.49414,-1.4941406 3.51563,-2.109375 2.02148,-0.703125 4.39453,-0.703125 2.28516,0 4.30664,0.703125 2.10938,0.6152344 3.60352,2.109375 1.49414,1.40625 2.37304,3.7792969 0.87891,2.28515624 0.87891,5.625 0,3.2519531 -0.87891,5.625 -0.8789,2.2851565 -2.37304,3.7792965 -1.49414,1.494141 -3.60352,2.197266 -2.02148,0.703125 -4.30664,0.703125 -2.37305,0 -4.39453,-0.703125 -2.02149,-0.703125 -3.51563,-2.197266 -1.49414,-1.49414 -2.37304,-3.7792965 -0.87891,-2.3730469 -0.87891,-5.625 z"
           style="font-style:normal;font-variant:normal;font-weight:normal;font-stretch:normal;font-size:180px;line-height:125%;font-family:'Noto Sans Devanagari';-inkscape-font-specification:'Noto Sans Devanagari, Normal';text-align:start;writing-mode:lr-tb;text-anchor:start"
           id="path3505" />
        <path
           d="m 337.4735,-46.700343 -19.59961,0 q -11.33789,0 -17.05079,1.230469 -5.625,1.142578 -9.14062,4.746093 -3.51563,3.603516 -3.51563,10.371094 0,5.712891 2.72461,11.074219 2.8125,5.361328 8.34961,11.1621092 5.53711,5.7128907 14.94141,13.2714844 l -9.66797,9.4042964 Q 291.94615,3.7488756 286.05748,-3.0187025 q -5.80078,-6.8554688 -9.14063,-13.7988285 -3.25195,-6.943359 -3.25195,-14.414062 0,-5.888672 2.37305,-11.25 2.46094,-5.449219 7.64648,-9.492188 5.18555,-4.042968 12.48047,-5.800781 7.38281,-1.757812 18.36914,-1.757812 l 22.93946,0 0,-27.246094 -71.98243,0 0,-12.832031 105.20508,0 0,12.832031 -18.7207,0 0,99.140625 -14.50195,0 0,-59.0625 z"
           style="font-style:normal;font-variant:normal;font-weight:normal;font-stretch:normal;font-size:180px;line-height:125%;font-family:'Noto Sans Devanagari';-inkscape-font-specification:'Noto Sans Devanagari, Normal';text-align:start;writing-mode:lr-tb;text-anchor:start"
           id="path3507" />
        <path
           d="m 494.27037,-114.02456 0,27.949217 33.31055,0 0,12.568359 -33.31055,0 0,53.4375 q 0,12.0410159 3.25195,15.4687502 3.33985,3.4277344 13.44727,3.4277344 l 16.61133,0 0,13.5351564 -16.61133,0 q -18.7207,0 -25.83984,-6.9433595 -7.11915,-7.03125 -7.11915,-25.4882815 l 0,-53.4375 -11.86523,0 0,-12.568359 11.86523,0 0,-27.949217 16.25977,0 z"
           style="font-style:normal;font-variant:normal;font-weight:normal;font-stretch:normal;font-size:180px;line-height:125%;font-family:'Noto Sans Devanagari';-inkscape-font-specification:'Noto Sans Devanagari, Normal';text-align:start;writing-mode:lr-tb;text-anchor:start"
           id="path3509" />
        <path
           d="m 593.67467,-37.120265 q -19.59961,0 -27.15821,4.482422 -7.55859,4.482422 -7.55859,15.292969 0,8.6132809 5.625,13.7109371 5.71289,5.0097656 15.46875,5.0097656 13.44727,0 21.5332,-9.4921875 8.17383,-9.5800782 8.17383,-25.4003902 l 0,-3.603516 -16.08398,0 z m 32.25586,-6.679688 0,56.16211 -16.17188,0 0,-14.9414064 q -5.53711,8.9648438 -13.79883,13.2714844 -8.26172,4.21875 -20.21484,4.21875 -15.11719,0 -24.08203,-8.4375 -8.87695,-8.5253906 -8.87695,-22.763672 0,-16.611328 11.07421,-25.048828 11.16211,-8.4375 33.22266,-8.4375 l 22.67578,0 0,-1.582031 q 0,-11.16211 -7.38281,-17.226563 -7.29492,-6.152344 -20.56641,-6.152344 -8.4375,0 -16.43554,2.021485 -7.99805,2.021484 -15.38086,6.064453 l 0,-14.941406 q 8.87695,-3.427735 17.22656,-5.097657 8.34961,-1.757812 16.25976,-1.757812 21.35743,0 31.9043,11.074219 10.54688,11.074218 10.54688,33.574218 z"
           style="font-style:normal;font-variant:normal;font-weight:normal;font-stretch:normal;font-size:180px;line-height:125%;font-family:'Noto Sans Devanagari';-inkscape-font-specification:'Noto Sans Devanagari, Normal';text-align:start;writing-mode:lr-tb;text-anchor:start"
           id="path3511" />
        <path
           d="m 160.02232,262.17371 -80.156246,0 0,-13.71094 30.761716,-33.48632 q 6.5918,-7.11914 11.77735,-13.00782 5.18554,-5.88867 8.78906,-11.51367 3.6914,-5.625 5.625,-11.25 1.93359,-5.71289 1.93359,-12.39258 0,-5.18554 -1.49414,-9.14062 -1.49414,-3.95508 -4.30664,-6.67969 -2.72461,-2.8125 -6.50391,-4.21875 -3.77929,-1.40625 -8.4375,-1.40625 -8.3496,0 -15.11718,3.42774 -6.67969,3.33984 -12.744143,8.61328 L 81.184433,146.9491 q 3.515625,-3.16406 7.558594,-5.88867 4.042968,-2.8125 8.701172,-4.83398 4.658201,-2.02149 9.843751,-3.16407 5.18555,-1.23046 10.89844,-1.23046 8.4375,0 15.20507,2.37304 6.85547,2.37305 11.60157,6.85547 4.74609,4.39453 7.29492,10.81055 2.63672,6.32812 2.63672,14.32617 0,7.4707 -2.37305,14.23828 -2.28516,6.76758 -6.41602,13.35938 -4.04296,6.5039 -9.75585,13.0957 -5.625,6.5918 -12.2168,13.71094 l -24.697267,26.27929 0,0.70313 60.556637,0 0,14.58984 z"
           style="font-style:normal;font-variant:normal;font-weight:normal;font-stretch:normal;font-size:180px;line-height:125%;font-family:'Noto Sans Devanagari';-inkscape-font-specification:'Noto Sans Devanagari, Normal';text-align:start;writing-mode:lr-tb;text-anchor:start"
           id="path3513" />
        <path
           d="m 183.48912,252.41785 q 0,-3.33984 0.87891,-5.625 0.8789,-2.37304 2.37304,-3.77929 1.49414,-1.49414 3.51563,-2.10938 2.02148,-0.70312 4.39453,-0.70312 2.28516,0 4.30664,0.70312 2.10938,0.61524 3.60352,2.10938 1.49414,1.40625 2.37304,3.77929 0.87891,2.28516 0.87891,5.625 0,3.25196 -0.87891,5.625 -0.8789,2.28516 -2.37304,3.7793 -1.49414,1.49414 -3.60352,2.19727 -2.02148,0.70312 -4.30664,0.70312 -2.37305,0 -4.39453,-0.70312 -2.02149,-0.70313 -3.51563,-2.19727 -1.49414,-1.49414 -2.37304,-3.7793 -0.87891,-2.37304 -0.87891,-5.625 z"
           style="font-style:normal;font-variant:normal;font-weight:normal;font-stretch:normal;font-size:180px;line-height:125%;font-family:'Noto Sans Devanagari';-inkscape-font-specification:'Noto Sans Devanagari, Normal';text-align:start;writing-mode:lr-tb;text-anchor:start"
           id="path3515" />
        <path
           d="m 337.4735,203.11121 -19.59961,0 q -11.33789,0 -17.05079,1.23047 -5.625,1.14258 -9.14062,4.74609 -3.51563,3.60352 -3.51563,10.3711 0,5.71289 2.72461,11.07422 2.8125,5.36133 8.34961,11.16211 5.53711,5.71289 14.94141,13.27148 l -9.66797,9.4043 q -12.56836,-10.81055 -18.45703,-17.57813 -5.80078,-6.85547 -9.14063,-13.79883 -3.25195,-6.94335 -3.25195,-14.41406 0,-5.88867 2.37305,-11.25 2.46094,-5.44922 7.64648,-9.49219 5.18555,-4.04296 12.48047,-5.80078 7.38281,-1.75781 18.36914,-1.75781 l 22.93946,0 0,-27.24609 -71.98243,0 0,-12.83203 105.20508,0 0,12.83203 -18.7207,0 0,99.14062 -14.50195,0 0,-59.0625 z"
           style="font-style:normal;font-variant:normal;font-weight:normal;font-stretch:normal;font-size:180px;line-height:125%;font-family:'Noto Sans Devanagari';-inkscape-font-specification:'Noto Sans Devanagari, Normal';text-align:start;writing-mode:lr-tb;text-anchor:start"
           id="path3517" />
        <path
           d="m 337.64928,151.51942 q -3.86719,-14.76563 -7.47071,-22.5879 -3.6914,-7.91015 -8.08593,-11.33789 -4.39454,-3.51562 -10.72266,-3.51562 -3.07617,0 -5.88867,0.52734 -2.8125,0.43946 -6.5918,1.9336 l -4.39453,-13.09571 q 3.95508,-1.40625 7.91016,-2.02148 3.86718,-0.61524 8.4375,-0.61524 7.64648,0 13.35937,2.63672 5.625,2.54883 10.2832,8.26172 4.57032,5.625 8.70118,15.38086 4.13086,9.75586 8.08593,24.4336 l -13.62304,0 z m -0.0879,-1.31836 0,0 z"
           style="font-style:normal;font-variant:normal;font-weight:normal;font-stretch:normal;font-size:180px;line-height:125%;font-family:'Noto Sans Devanagari';-inkscape-font-specification:'Noto Sans Devanagari, Normal';text-align:start;writing-mode:lr-tb;text-anchor:start"
           id="path3519" />
        <path
           d="m 494.27037,135.78699 0,27.94922 33.31055,0 0,12.56836 -33.31055,0 0,53.4375 q 0,12.04102 3.25195,15.46875 3.33985,3.42774 13.44727,3.42774 l 16.61133,0 0,13.53515 -16.61133,0 q -18.7207,0 -25.83984,-6.94336 -7.11915,-7.03125 -7.11915,-25.48828 l 0,-53.4375 -11.86523,0 0,-12.56836 11.86523,0 0,-27.94922 16.25977,0 z"
           style="font-style:normal;font-variant:normal;font-weight:normal;font-stretch:normal;font-size:180px;line-height:125%;font-family:'Noto Sans Devanagari';-inkscape-font-specification:'Noto Sans Devanagari, Normal';text-align:start;writing-mode:lr-tb;text-anchor:start"
           id="path3521" />
        <path
           d="m 633.13756,208.91199 0,7.91016 -74.35547,0 q 1.05469,16.69922 10.01953,25.48828 9.05273,8.70117 25.13672,8.70117 9.31641,0 18.01758,-2.28515 8.78906,-2.28516 17.40234,-6.85547 l 0,15.29297 q -8.70117,3.6914 -17.8418,5.625 -9.14062,1.93359 -18.54492,1.93359 -23.55469,0 -37.35351,-13.71094 -13.71094,-13.71093 -13.71094,-37.08984 0,-24.16992 13.00781,-38.32031 13.0957,-14.23828 35.24414,-14.23828 19.86328,0 31.37696,12.83203 11.60156,12.74414 11.60156,34.71679 z m -16.17188,-4.74609 q -0.17578,-13.27148 -7.4707,-21.18164 -7.20703,-7.91016 -19.16016,-7.91016 -13.53515,0 -21.70898,7.64649 -8.08594,7.64648 -9.31641,21.5332 l 57.65625,-0.0879 z"
           style="font-style:normal;font-variant:normal;font-weight:normal;font-stretch:normal;font-size:180px;line-height:125%;font-family:'Noto Sans Devanagari';-inkscape-font-specification:'Noto Sans Devanagari, Normal';text-align:start;writing-mode:lr-tb;text-anchor:start"
           id="path3523" />
        <path
           d="m 155.89146,413.54777 q 0,6.41601 -2.02148,11.68945 -2.02148,5.27344 -5.71289,9.14063 -3.60352,3.86718 -8.70117,6.41601 -5.09766,2.46094 -11.33789,3.51563 l 0,0.52734 q 15.55664,1.93359 23.64257,9.93164 8.08594,7.91016 8.08594,20.6543 0,8.4375 -2.90039,15.46875 -2.8125,7.03125 -8.61328,12.1289 -5.80078,5.09766 -14.67773,7.91016 -8.87696,2.8125 -21.00586,2.8125 -9.58008,0 -18.105472,-1.49414 -8.4375,-1.49414 -15.908203,-5.44922 l 0,-14.94141 q 7.646484,4.04297 16.523437,6.24024 8.964848,2.19726 17.138668,2.19726 8.08594,0 13.97461,-1.75781 5.88868,-1.75781 9.66797,-5.00976 3.86719,-3.25196 5.625,-7.99805 1.84571,-4.74609 1.84571,-10.63477 0,-5.97656 -2.37305,-10.19531 -2.28516,-4.30664 -6.5918,-7.03125 -4.30664,-2.8125 -10.54687,-4.13086 -6.15235,-1.31836 -13.97461,-1.31836 l -11.689456,0 0,-13.27148 11.689456,0 q 7.11914,0 12.65625,-1.75781 5.53711,-1.75782 9.22851,-5.00977 3.7793,-3.25195 5.71289,-7.73437 1.9336,-4.48243 1.9336,-9.84375 0,-4.57032 -1.58203,-8.17383 -1.58204,-3.60352 -4.48243,-6.06446 -2.90039,-2.54882 -6.94336,-3.86718 -4.04296,-1.31836 -8.96484,-1.31836 -9.4043,0 -16.61133,2.98828 -7.119138,2.90039 -13.623044,7.64648 l -8.085937,-10.98633 q 3.339843,-2.7246 7.382812,-5.09765 4.130859,-2.37305 8.964844,-4.13086 4.833985,-1.8457 10.283205,-2.90039 5.53711,-1.05469 11.68945,-1.05469 9.49219,0 16.61133,2.37305 7.20703,2.37304 12.04101,6.67969 4.83399,4.21875 7.29493,10.10742 2.46093,5.80078 2.46093,12.74414 z"
           style="font-style:normal;font-variant:normal;font-weight:normal;font-stretch:normal;font-size:180px;line-height:125%;font-family:'Noto Sans Devanagari';-inkscape-font-specification:'Noto Sans Devanagari, Normal';text-align:start;writing-mode:lr-tb;text-anchor:start"
           id="path3525" />
        <path
           d="m 183.48912,502.22941 q 0,-3.33985 0.87891,-5.625 0.8789,-2.37305 2.37304,-3.7793 1.49414,-1.49414 3.51563,-2.10937 2.02148,-0.70313 4.39453,-0.70313 2.28516,0 4.30664,0.70313 2.10938,0.61523 3.60352,2.10937 1.49414,1.40625 2.37304,3.7793 0.87891,2.28515 0.87891,5.625 0,3.25195 -0.87891,5.625 -0.8789,2.28515 -2.37304,3.7793 -1.49414,1.49414 -3.60352,2.19726 -2.02148,0.70313 -4.30664,0.70313 -2.37305,0 -4.39453,-0.70313 -2.02149,-0.70312 -3.51563,-2.19726 -1.49414,-1.49415 -2.37304,-3.7793 -0.87891,-2.37305 -0.87891,-5.625 z"
           style="font-style:normal;font-variant:normal;font-weight:normal;font-stretch:normal;font-size:180px;line-height:125%;font-family:'Noto Sans Devanagari';-inkscape-font-specification:'Noto Sans Devanagari, Normal';text-align:start;writing-mode:lr-tb;text-anchor:start"
           id="path3527" />
        <path
           d="m 337.4735,452.92277 -19.59961,0 q -11.33789,0 -17.05079,1.23047 -5.625,1.14257 -9.14062,4.74609 -3.51563,3.60352 -3.51563,10.37109 0,5.71289 2.72461,11.07422 2.8125,5.36133 8.34961,11.16211 5.53711,5.71289 14.94141,13.27149 l -9.66797,9.40429 q -12.56836,-10.81054 -18.45703,-17.57812 -5.80078,-6.85547 -9.14063,-13.79883 -3.25195,-6.94336 -3.25195,-14.41406 0,-5.88867 2.37305,-11.25 2.46094,-5.44922 7.64648,-9.49219 5.18555,-4.04297 12.48047,-5.80078 7.38281,-1.75781 18.36914,-1.75781 l 22.93946,0 0,-27.2461 -71.98243,0 0,-12.83203 105.20508,0 0,12.83203 -18.7207,0 0,99.14063 -14.50195,0 0,-59.0625 z"
           style="font-style:normal;font-variant:normal;font-weight:normal;font-stretch:normal;font-size:180px;line-height:125%;font-family:'Noto Sans Devanagari';-inkscape-font-specification:'Noto Sans Devanagari, Normal';text-align:start;writing-mode:lr-tb;text-anchor:start"
           id="path3529" />
        <path
           d="m 323.58678,514.18253 q 4.74609,-2.02148 9.84375,-3.07617 5.09765,-1.05469 10.19531,-1.05469 8.87695,0 15.38086,3.16407 6.41601,3.16406 9.75586,8.78906 3.42773,5.71289 3.42773,13.27148 0,7.29493 -3.86719,12.91993 -3.77929,5.71289 -11.07421,8.78906 -7.29493,3.16406 -17.31446,3.16406 -11.25,0 -20.74218,-3.60352 -9.49219,-3.60351 -17.40235,-10.19531 -7.99805,-6.59179 -15.55664,-16.43554 l 11.07422,-7.64649 q 7.4707,9.4043 13.71094,14.67774 6.24023,5.27343 13.18359,7.82226 6.94336,2.54883 15.73242,2.54883 9.49219,0 14.23828,-3.42774 4.7461,-3.42773 4.7461,-10.01953 0,-3.77929 -2.02149,-6.41601 -2.02148,-2.54883 -5.27343,-3.86719 -3.33985,-1.23047 -7.11914,-1.23047 -4.13086,0 -7.91016,0.79102 -3.86719,0.8789 -8.34961,2.98828 l -4.6582,-11.95313 z m 13.97461,-2.19726 0,0 z"
           style="font-style:normal;font-variant:normal;font-weight:normal;font-stretch:normal;font-size:180px;line-height:125%;font-family:'Noto Sans Devanagari';-inkscape-font-specification:'Noto Sans Devanagari, Normal';text-align:start;writing-mode:lr-tb;text-anchor:start"
           id="path3531" />
        <path
           d="m 494.27037,385.59855 0,27.94922 33.31055,0 0,12.56836 -33.31055,0 0,53.4375 q 0,12.04101 3.25195,15.46875 3.33985,3.42773 13.44727,3.42773 l 16.61133,0 0,13.53516 -16.61133,0 q -18.7207,0 -25.83984,-6.94336 -7.11915,-7.03125 -7.11915,-25.48828 l 0,-53.4375 -11.86523,0 0,-12.56836 11.86523,0 0,-27.94922 16.25977,0 z"
           style="font-style:normal;font-variant:normal;font-weight:normal;font-stretch:normal;font-size:180px;line-height:125%;font-family:'Noto Sans Devanagari';-inkscape-font-specification:'Noto Sans Devanagari, Normal';text-align:start;writing-mode:lr-tb;text-anchor:start"
           id="path3533" />
        <path
           d="m 547.26842,473.13761 0,-59.58984 16.17187,0 0,58.97461 q 0,13.97461 5.44922,21.00586 5.44922,6.94336 16.34766,6.94336 13.0957,0 20.65429,-8.34961 7.64649,-8.34961 7.64649,-22.76368 l 0,-55.81054 16.17187,0 0,98.4375 -16.17187,0 0,-15.11719 q -5.88867,8.96484 -13.71094,13.35938 -7.73437,4.30664 -18.01758,4.30664 -16.96289,0 -25.75195,-10.54688 -8.78906,-10.54687 -8.78906,-30.84961 z m 40.69336,-61.96289 0,0 z"
           style="font-style:normal;font-variant:normal;font-weight:normal;font-stretch:normal;font-size:180px;line-height:125%;font-family:'Noto Sans Devanagari';-inkscape-font-specification:'Noto Sans Devanagari, Normal';text-align:start;writing-mode:lr-tb;text-anchor:start"
           id="path3535" />
        <path
           d="m 166.96568,732.9687 -18.7207,0 0,28.82812 -15.46875,0 0,-28.82812 -59.326172,0 0,-13.97461 58.271482,-86.39649 16.52344,0 0,85.78125 18.7207,0 0,14.58985 z m -34.18945,-14.58985 0,-31.28906 q 0,-4.92187 0.0879,-10.2832 0.17578,-5.44922 0.35156,-10.54688 0.17578,-5.18554 0.35157,-9.66796 0.26367,-4.48243 0.35156,-7.47071 l -0.79102,0 q -0.61523,1.75781 -1.58203,3.95508 -0.87891,2.10938 -2.02148,4.30664 -1.05469,2.10938 -2.19727,4.13086 -1.14258,2.02148 -2.10937,3.42773 l -36.123051,53.4375 43.681641,0 z"
           style="font-style:normal;font-variant:normal;font-weight:normal;font-stretch:normal;font-size:180px;line-height:125%;font-family:'Noto Sans Devanagari';-inkscape-font-specification:'Noto Sans Devanagari, Normal';text-align:start;writing-mode:lr-tb;text-anchor:start"
           id="path3537" />
        <path
           d="m 183.48912,752.04096 q 0,-3.33984 0.87891,-5.625 0.8789,-2.37304 2.37304,-3.77929 1.49414,-1.49414 3.51563,-2.10938 2.02148,-0.70312 4.39453,-0.70312 2.28516,0 4.30664,0.70312 2.10938,0.61524 3.60352,2.10938 1.49414,1.40625 2.37304,3.77929 0.87891,2.28516 0.87891,5.625 0,3.25196 -0.87891,5.625 -0.8789,2.28516 -2.37304,3.7793 -1.49414,1.49414 -3.60352,2.19727 -2.02148,0.70312 -4.30664,0.70312 -2.37305,0 -4.39453,-0.70312 -2.02149,-0.70313 -3.51563,-2.19727 -1.49414,-1.49414 -2.37304,-3.7793 -0.87891,-2.37304 -0.87891,-5.625 z"
           style="font-style:normal;font-variant:normal;font-weight:normal;font-stretch:normal;font-size:180px;line-height:125%;font-family:'Noto Sans Devanagari';-inkscape-font-specification:'Noto Sans Devanagari, Normal';text-align:start;writing-mode:lr-tb;text-anchor:start"
           id="path3539" />
        <path
           d="m 337.4735,702.73432 -19.59961,0 q -11.33789,0 -17.05079,1.23047 -5.625,1.14258 -9.14062,4.7461 -3.51563,3.60351 -3.51563,10.37109 0,5.71289 2.72461,11.07422 2.8125,5.36133 8.34961,11.16211 5.53711,5.71289 14.94141,13.27148 l -9.66797,9.4043 q -12.56836,-10.81055 -18.45703,-17.57813 -5.80078,-6.85546 -9.14063,-13.79882 -3.25195,-6.94336 -3.25195,-14.41407 0,-5.88867 2.37305,-11.25 2.46094,-5.44922 7.64648,-9.49218 5.18555,-4.04297 12.48047,-5.80079 7.38281,-1.75781 18.36914,-1.75781 l 22.93946,0 0,-27.24609 -71.98243,0 0,-12.83203 105.20508,0 0,12.83203 -18.7207,0 0,99.14062 -14.50195,0 0,-59.0625 z"
           style="font-style:normal;font-variant:normal;font-weight:normal;font-stretch:normal;font-size:180px;line-height:125%;font-family:'Noto Sans Devanagari';-inkscape-font-specification:'Noto Sans Devanagari, Normal';text-align:start;writing-mode:lr-tb;text-anchor:start"
           id="path3541" />
        <path
           d="m 335.10045,651.14253 q -3.16406,-6.24024 -4.7461,-12.04102 -1.58203,-5.80078 -1.58203,-11.86523 0,-7.73438 3.33985,-13.79883 3.33984,-6.15235 9.84375,-9.58008 6.41601,-3.42773 15.29297,-3.42773 10.37109,0 17.40234,4.92187 7.11914,4.83399 12.30469,15.11719 5.27343,10.19531 10.54687,29.35547 l 19.86328,0 0,12.83203 -18.7207,0 0,99.14062 -14.50195,0 0,-99.14062 -15.9961,0 0,-12.83203 15.73243,0 q -3.69141,-13.88672 -7.20704,-21.44532 -3.42773,-7.64648 -7.91015,-11.33789 -4.39453,-3.77929 -10.81055,-3.77929 -7.03125,0 -10.89844,4.39453 -3.86718,4.30664 -3.86718,12.2168 0,4.92187 1.40625,9.84375 1.31836,4.92187 4.57031,11.42578 l -14.0625,0 z"
           style="font-style:normal;font-variant:normal;font-weight:normal;font-stretch:normal;font-size:180px;line-height:125%;font-family:'Noto Sans Devanagari';-inkscape-font-specification:'Noto Sans Devanagari, Normal';text-align:start;writing-mode:lr-tb;text-anchor:start"
           id="path3543" />
        <path
           d="m 541.02818,635.4101 0,27.94922 33.31055,0 0,12.56836 -33.31055,0 0,53.4375 q 0,12.04102 3.25196,15.46875 3.33984,3.42774 13.44726,3.42774 l 16.61133,0 0,13.53515 -16.61133,0 q -18.7207,0 -25.83984,-6.94336 -7.11914,-7.03125 -7.11914,-25.48828 l 0,-53.4375 -11.86524,0 0,-12.56836 11.86524,0 0,-27.94922 16.25976,0 z"
           style="font-style:normal;font-variant:normal;font-weight:normal;font-stretch:normal;font-size:180px;line-height:125%;font-family:'Noto Sans Devanagari';-inkscape-font-specification:'Noto Sans Devanagari, Normal';text-align:start;writing-mode:lr-tb;text-anchor:start"
           id="path3545" />
        <path
           d="m 595.69615,663.35932 16.17188,0 0,98.4375 -16.17188,0 0,-98.4375 z m 0,-38.32031 16.17188,0 0,20.47852 -16.17188,0 0,-20.47852 z"
           style="font-style:normal;font-variant:normal;font-weight:normal;font-stretch:normal;font-size:180px;line-height:125%;font-family:'Noto Sans Devanagari';-inkscape-font-specification:'Noto Sans Devanagari, Normal';text-align:start;writing-mode:lr-tb;text-anchor:start"
           id="path3547" />
        <path
           d="m 645.61803,663.35932 16.17187,0 0,98.4375 -16.17187,0 0,-98.4375 z m 0,-38.32031 16.17187,0 0,20.47852 -16.17187,0 0,-20.47852 z"
           style="font-style:normal;font-variant:normal;font-weight:normal;font-stretch:normal;font-size:180px;line-height:125%;font-family:'Noto Sans Devanagari';-inkscape-font-specification:'Noto Sans Devanagari, Normal';text-align:start;writing-mode:lr-tb;text-anchor:start"
           id="path3549" />
        <path
           d="m 119.32896,932.77049 q 8.70118,0 16.17188,2.46094 7.55859,2.37304 13.0957,7.11914 5.625,4.74609 8.78906,11.77734 3.16407,7.03125 3.16407,16.25977 0,10.01953 -2.98828,18.01757 -2.98829,7.99805 -8.87696,13.53515 -5.88867,5.5371 -14.58984,8.5254 -8.61328,2.9004 -19.86328,2.9004 -4.48242,0 -8.87696,-0.4395 -4.30664,-0.4394 -8.349605,-1.3183 -3.955078,-0.791 -7.558593,-2.1094 -3.603516,-1.3184 -6.503907,-3.0762 l 0,-15.11716 q 2.900391,2.02149 6.767579,3.60352 3.955078,1.58203 8.261718,2.63672 4.306638,1.05469 8.613278,1.66992 4.39453,0.52734 8.08594,0.52734 6.94336,0 12.39258,-1.58203 5.44922,-1.66992 9.22851,-5.09765 3.7793,-3.42774 5.80079,-8.61328 2.02148,-5.18555 2.02148,-12.30469 0,-12.56836 -7.73437,-19.16016 -7.73438,-6.67969 -22.5,-6.67969 -2.37305,0 -5.18555,0.26368 -2.72461,0.17578 -5.53711,0.52734 -2.72461,0.35156 -5.273438,0.79102 -2.460938,0.35156 -4.306641,0.70312 l -7.910156,-5.00976 4.833984,-60.46875 60.644531,0 0,14.58984 -46.75781,0 -3.42774,36.82617 q 2.8125,-0.52734 7.38282,-1.14258 4.6582,-0.61523 10.98632,-0.61523 z"
           style="font-style:normal;font-variant:normal;font-weight:normal;font-stretch:normal;font-size:180px;line-height:125%;font-family:'Noto Sans Devanagari';-inkscape-font-specification:'Noto Sans Devanagari, Normal';text-align:start;writing-mode:lr-tb;text-anchor:start"
           id="path3551" />
        <path
           d="m 183.48912,1001.8525 q 0,-3.33982 0.87891,-5.62498 0.8789,-2.37305 2.37304,-3.7793 1.49414,-1.49414 3.51563,-2.10937 2.02148,-0.70313 4.39453,-0.70313 2.28516,0 4.30664,0.70313 2.10938,0.61523 3.60352,2.10937 1.49414,1.40625 2.37304,3.7793 0.87891,2.28516 0.87891,5.62498 0,3.252 -0.87891,5.625 -0.8789,2.2852 -2.37304,3.7793 -1.49414,1.4942 -3.60352,2.1973 -2.02148,0.7031 -4.30664,0.7031 -2.37305,0 -4.39453,-0.7031 -2.02149,-0.7031 -3.51563,-2.1973 -1.49414,-1.4941 -2.37304,-3.7793 -0.87891,-2.373 -0.87891,-5.625 z"
           style="font-style:normal;font-variant:normal;font-weight:normal;font-stretch:normal;font-size:180px;line-height:125%;font-family:'Noto Sans Devanagari';-inkscape-font-specification:'Noto Sans Devanagari, Normal';text-align:start;writing-mode:lr-tb;text-anchor:start"
           id="path3553" />
        <path
           d="m 314.70982,912.46775 -18.7207,0 0,99.14065 -14.50195,0 0,-99.14065 -15.9961,0 0,-12.83203 14.41407,0 q -2.19727,-4.13086 -3.51563,-8.52539 -1.31836,-4.39453 -1.31836,-9.84375 0,-6.94336 2.72461,-12.65625 2.72461,-5.80078 7.64649,-9.84375 5.00976,-4.04297 12.04101,-6.24023 7.11914,-2.28516 15.82031,-2.28516 12.74414,0 23.90625,3.60352 11.25,3.60351 21.09375,10.19531 9.84375,6.5918 18.28125,15.99609 8.4375,9.31641 15.55664,20.91797 l -15.02929,0 Q 349.42662,863.249 316.46764,863.249 q -6.24024,0 -11.25,1.40625 -5.00977,1.40625 -8.52539,3.95508 -3.51563,2.54883 -5.36133,6.24024 -1.84571,3.60351 -1.84571,8.17382 0,5.36133 1.66993,9.49219 1.75781,4.04297 3.77929,7.11914 l 19.77539,0 0,12.83203 z"
           style="font-style:normal;font-variant:normal;font-weight:normal;font-stretch:normal;font-size:180px;line-height:125%;font-family:'Noto Sans Devanagari';-inkscape-font-specification:'Noto Sans Devanagari, Normal';text-align:start;writing-mode:lr-tb;text-anchor:start"
           id="path3555" />
        <path
           d="m 384.23131,952.54588 -19.59961,0 q -11.33789,0 -17.05078,1.23047 -5.625,1.14258 -9.14063,4.74609 -3.51562,3.60352 -3.51562,10.3711 0,5.71289 2.72461,11.07421 2.8125,5.36133 8.34961,11.16211 5.53711,5.71289 14.9414,13.27144 l -9.66797,9.4043 q -12.56836,-10.8105 -18.45703,-17.57808 -5.80078,-6.85547 -9.14062,-13.79883 -3.25196,-6.94336 -3.25196,-14.41406 0,-5.88867 2.37305,-11.25 2.46094,-5.44922 7.64649,-9.49219 5.18554,-4.04297 12.48046,-5.80078 7.38282,-1.75781 18.36914,-1.75781 l 22.93946,0 0,-27.2461 -71.98242,0 0,-12.83203 105.20507,0 0,12.83203 -18.7207,0 0,99.14065 -14.50195,0 0,-59.06252 z"
           style="font-style:normal;font-variant:normal;font-weight:normal;font-stretch:normal;font-size:180px;line-height:125%;font-family:'Noto Sans Devanagari';-inkscape-font-specification:'Noto Sans Devanagari, Normal';text-align:start;writing-mode:lr-tb;text-anchor:start"
           id="path3557" />
        <path
           d="m 541.02818,885.22166 0,27.94922 33.31055,0 0,12.56836 -33.31055,0 0,53.4375 q 0,12.04101 3.25196,15.46875 3.33984,3.42773 13.44726,3.42773 l 16.61133,0 0,13.53518 -16.61133,0 q -18.7207,0 -25.83984,-6.9434 -7.11914,-7.03123 -7.11914,-25.48826 l 0,-53.4375 -11.86524,0 0,-12.56836 11.86524,0 0,-27.94922 16.25976,0 z"
           style="font-style:normal;font-variant:normal;font-weight:normal;font-stretch:normal;font-size:180px;line-height:125%;font-family:'Noto Sans Devanagari';-inkscape-font-specification:'Noto Sans Devanagari, Normal';text-align:start;writing-mode:lr-tb;text-anchor:start"
           id="path3559" />
        <path
           d="m 595.69615,913.17088 16.17188,0 0,98.43752 -16.17188,0 0,-98.43752 z m 0,-38.32031 16.17188,0 0,20.47851 -16.17188,0 0,-20.47851 z"
           style="font-style:normal;font-variant:normal;font-weight:normal;font-stretch:normal;font-size:180px;line-height:125%;font-family:'Noto Sans Devanagari';-inkscape-font-specification:'Noto Sans Devanagari, Normal';text-align:start;writing-mode:lr-tb;text-anchor:start"
           id="path3561" />
      </g>
    </g>
  </g>
</svg>
