<?xml version="1.0" encoding="UTF-8" standalone="no"?>
<!-- Created with Inkscape (http://www.inkscape.org/) -->

<svg
   xmlns:dc="http://purl.org/dc/elements/1.1/"
   xmlns:cc="http://creativecommons.org/ns#"
   xmlns:rdf="http://www.w3.org/1999/02/22-rdf-syntax-ns#"
   xmlns:svg="http://www.w3.org/2000/svg"
   xmlns="http://www.w3.org/2000/svg"
   xmlns:sodipodi="http://sodipodi.sourceforge.net/DTD/sodipodi-0.dtd"
   xmlns:inkscape="http://www.inkscape.org/namespaces/inkscape"
   width="280mm"
   height="70mm"
   viewBox="0 0 992.12598 248.03149"
   id="svg3359"
   version="1.1"
   inkscape:version="0.91 r13725"
   sodipodi:docname="writer kannada bad barahagaarti.svg">
  <defs
     id="defs3361" />
  <sodipodi:namedview
     id="base"
     pagecolor="#ffffff"
     bordercolor="#666666"
     borderopacity="1.0"
     inkscape:pageopacity="0.0"
     inkscape:pageshadow="2"
     inkscape:zoom="2.8"
     inkscape:cx="829.64059"
     inkscape:cy="105.2383"
     inkscape:document-units="px"
     inkscape:current-layer="text3367"
     showgrid="false"
     inkscape:window-width="1920"
     inkscape:window-height="1027"
     inkscape:window-x="-8"
     inkscape:window-y="-8"
     inkscape:window-maximized="1" />
  <metadata
     id="metadata3364">
    <rdf:RDF>
      <cc:Work
         rdf:about="">
        <dc:format>image/svg+xml</dc:format>
        <dc:type
           rdf:resource="http://purl.org/dc/dcmitype/StillImage" />
        <dc:title></dc:title>
      </cc:Work>
    </rdf:RDF>
  </metadata>
  <g
     inkscape:label="Layer 1"
     inkscape:groupmode="layer"
     id="layer1"
     transform="translate(0,-804.33071)">
    <g
       style="font-style:normal;font-weight:normal;font-size:180px;line-height:125%;font-family:sans-serif;letter-spacing:0px;word-spacing:0px;fill:#000000;fill-opacity:1;stroke:none;stroke-width:1px;stroke-linecap:butt;stroke-linejoin:miter;stroke-opacity:1"
       id="text3367">
      <path
         d="m 79.938616,986.87109 q -5.185547,8.34961 -12.480469,12.30469 -7.294922,3.86722 -19.511719,3.86722 -13.886718,0 -22.148437,-7.64652 -8.261719,-7.73437 -8.261719,-18.98437 0,-6.85547 2.460938,-12.12891 2.460937,-5.27343 7.11914,-9.84375 4.746094,-4.57031 15.292969,-11.33789 9.755859,-6.24023 12.480469,-10.01953 2.724609,-3.86719 2.724609,-8.17383 0,-12.21679 -14.589844,-12.21679 -7.207031,0 -11.074218,3.16406 -3.867188,3.16406 -3.867188,9.14062 0,5.53711 3.603516,10.54688 l -12.744141,5.625 q -5.449219,-8.70117 -5.449219,-17.75391 0,-10.37109 7.910157,-17.13867 7.998046,-6.76758 21.708984,-6.76758 14.238281,0 21.621094,6.94336 7.470703,6.94336 7.470703,18.36914 0,8.17383 -4.746094,14.85352 -4.658203,6.67969 -18.369141,15.46875 -7.470703,4.83398 -10.546875,7.64648 -3.076171,2.72461 -4.658203,5.80078 -1.49414,2.98828 -1.49414,6.94336 0,6.41602 4.30664,9.84375 4.306641,3.42774 12.128907,3.42774 22.236328,0 24.257812,-22.93946 l 13.798828,0 q 0.703125,10.89844 6.855469,16.96289 6.152344,5.97657 15.908206,5.97657 9.93164,0 15.82031,-7.03125 5.97656,-7.03125 5.97656,-18.72071 0,-17.13867 -8.87695,-29.61914 -8.78906,-12.48047 -26.455079,-20.30273 l 7.734379,-13.97461 q 20.65429,10.2832 31.46484,26.54297 10.89844,16.25976 10.89844,36.47461 0,18.7207 -10.01953,29.79492 -9.93164,11.07425 -27.2461,11.07425 -9.843748,0 -16.699217,-3.95511 -6.855468,-3.95508 -12.304687,-12.2168 z m -23.466797,-30.58593 0,0 z m 28.828125,-54.66797 0,0 z"
         style="font-style:normal;font-variant:normal;font-weight:normal;font-stretch:normal;font-size:180px;line-height:125%;font-family:'Noto Sans Kannada';-inkscape-font-specification:'Noto Sans Kannada, Normal';text-align:start;writing-mode:lr-tb;text-anchor:start"
         id="path3372" />
      <path
         d="m 242.36049,914.36133 q 10.45899,7.20703 15.29297,17.13867 4.83398,9.93164 4.83398,23.73047 0,13.88672 -6.15234,24.78515 -6.15234,10.89844 -17.8418,16.9629 -11.68945,6.06448 -27.07031,6.06448 -15.0293,0 -26.80664,-5.71292 -11.68945,-5.80078 -18.10547,-16.69922 -6.32812,-10.89844 -6.32812,-25.40039 0,-26.45508 19.24804,-39.63867 l -19.24804,0 0,-13.97461 64.24804,0 q 9.31641,0 14.0625,-0.9668 4.7461,-0.9668 7.03125,-3.69141 2.37305,-2.8125 2.37305,-7.4707 0,-11.51367 -11.68945,-22.93945 l 11.68945,-7.82227 q 7.38281,8.26172 10.98633,15.73242 3.60351,7.47071 3.60351,16.25977 0,8.78906 -5.27343,15.20508 -5.18555,6.32812 -14.85352,8.4375 z m -30.67383,1.23047 q -16.52343,0 -26.63086,10.01953 -10.10742,10.01953 -10.10742,26.54297 0,16.96289 9.75586,26.63086 9.84375,9.66796 26.80664,9.66796 16.96289,0 26.54297,-9.93164 9.66797,-10.01953 9.66797,-26.36718 0,-16.52344 -10.10742,-26.54297 -10.01953,-10.01953 -25.92774,-10.01953 z m -3.16406,-60.20508 0,0 z"
         style="font-style:normal;font-variant:normal;font-weight:normal;font-stretch:normal;font-size:180px;line-height:125%;font-family:'Noto Sans Kannada';-inkscape-font-specification:'Noto Sans Kannada, Normal';text-align:start;writing-mode:lr-tb;text-anchor:start"
         id="path3374" />
      <path
         d="m 338.42494,915.5918 q 11.07422,8.34961 11.07422,23.64257 0,2.63672 -0.43945,3.95508 8.96484,-9.84375 24.69727,-9.84375 16.08398,0 25.3125,9.58008 9.3164,9.58008 9.3164,25.48828 0,15.55664 -9.84375,25.13672 -9.75586,9.49222 -26.54297,9.49222 -10.37109,0 -18.19336,-4.043 -7.73437,-4.13086 -11.77734,-11.95313 -4.39453,7.82227 -12.2168,11.95313 -7.73437,4.043 -18.10547,4.043 -16.61132,0 -26.10351,-9.14066 -9.49219,-9.14062 -9.49219,-25.48828 0,-15.99609 9.75586,-25.48828 9.84375,-9.58008 26.71875,-9.58008 7.03125,0 13.00781,2.46094 5.97657,2.37305 10.01953,7.20703 0.17579,-0.9668 0.17579,-2.37305 0,-8.3496 -5.7129,-15.20507 -5.71289,-6.85547 -15.55664,-9.84375 l -38.32031,0 0,-13.97461 94.13086,0 q 9.31641,0 14.0625,-0.9668 4.74609,-0.9668 7.03125,-3.69141 2.37305,-2.8125 2.37305,-7.4707 0,-11.51367 -11.68946,-22.93945 l 11.68946,-7.82227 q 7.38281,8.26172 10.98633,15.73242 3.60351,7.47071 3.60351,16.25977 0,6.5918 -3.25195,12.30469 -3.16406,5.625 -10.19531,9.14062 -7.03125,3.42774 -21.35743,3.42774 l -35.15625,0 z m -25.57617,73.91601 q 10.81055,0 16.61133,-5.625 5.88867,-5.625 5.88867,-15.46875 0,-10.01953 -5.88867,-15.82031 -5.80078,-5.80078 -15.9082,-5.80078 -10.72266,0 -16.69922,5.71289 -5.88867,5.625 -5.88867,15.46875 0,10.10742 5.88867,15.82031 5.88867,5.71289 15.99609,5.71289 z m 58.1836,0 q 10.81054,0 16.61132,-5.625 5.88868,-5.625 5.88868,-15.46875 0,-10.01953 -5.88868,-15.82031 -5.80078,-5.80078 -15.9082,-5.80078 -10.54687,0 -16.61133,5.80078 -5.97656,5.71289 -5.97656,15.38086 0,10.10742 5.88867,15.82031 5.88867,5.71289 15.9961,5.71289 z m -35.15625,-134.12109 0,0 z"
         style="font-style:normal;font-variant:normal;font-weight:normal;font-stretch:normal;font-size:180px;line-height:125%;font-family:'Noto Sans Kannada';-inkscape-font-specification:'Noto Sans Kannada, Normal';text-align:start;writing-mode:lr-tb;text-anchor:start"
         id="path3376" />
      <path
         d="m 483.79604,901.61719 q 9.3164,0 14.0625,-0.9668 4.74609,-0.9668 7.03125,-3.69141 2.37304,-2.8125 2.37304,-7.4707 0,-11.51367 -11.68945,-22.93945 l 11.68945,-7.82227 q 7.47071,8.34961 10.98633,15.82031 3.60352,7.47071 3.60352,16.25977 0,9.22852 -5.88867,15.9082 -5.88868,6.5918 -17.31446,8.17383 11.25,8.52539 17.22657,22.67578 5.97656,14.0625 5.97656,40.3418 l 0,23.02735 -16.25977,0 0,-19.42383 q 0,-16.9629 -1.66992,-27.94922 -1.66992,-11.07422 -6.24023,-20.21485 -4.57032,-9.22851 -10.63477,-13.44726 -5.97656,-4.30664 -14.15039,-4.30664 -6.15234,0 -10.98633,2.19726 -4.74609,2.19727 -8.70117,6.5918 -3.86719,4.39453 -7.38281,12.91992 -3.42774,8.4375 -4.83399,18.98438 -1.40625,10.45898 -1.40625,25.22461 l 0,19.42383 -16.25976,0 0,-22.41212 q 0,-25.13671 5.80078,-40.16601 5.88867,-15.0293 17.13867,-22.76367 l -23.55469,0 0,-13.97461 61.08399,0 z m -21.44531,-46.23047 0,0 z"
         style="font-style:normal;font-variant:normal;font-weight:normal;font-stretch:normal;font-size:180px;line-height:125%;font-family:'Noto Sans Kannada';-inkscape-font-specification:'Noto Sans Kannada, Normal';text-align:start;writing-mode:lr-tb;text-anchor:start"
         id="path3378" />
      <path
         d="m 548.67609,966.48047 q -0.8789,2.46094 -0.8789,6.5039 0,7.64649 4.57031,12.30469 4.6582,4.57031 13.35937,4.57031 11.16211,0 17.13868,-8.26171 6.06445,-8.26172 6.06445,-23.99414 0,-15.38086 -5.625,-24.52149 -5.625,-9.22851 -14.50195,-13.35937 -8.87696,-4.13086 -27.50977,-4.13086 l -42.09961,0 -1.75781,-13.97461 47.28515,0 q 21.6211,0 33.57422,6.24023 12.04102,6.24024 18.72071,18.36914 6.76757,12.04102 6.76757,31.37696 0,21.79687 -10.01953,33.6621 -9.93164,11.77738 -28.125,11.77738 -14.15039,0 -22.5,-7.99808 -8.34961,-8.08594 -8.34961,-20.74219 0,-11.07421 5.53711,-17.40234 5.53711,-6.32812 14.41407,-6.32812 6.59179,0 10.37109,3.25195 3.7793,3.25195 3.7793,8.96484 0,5.09766 -2.90039,8.26172 -2.8125,3.07617 -7.03125,3.07617 -4.30664,0 -7.03125,-1.93359 -2.72461,-2.02149 -3.25196,-5.71289 z"
         style="font-style:normal;font-variant:normal;font-weight:normal;font-stretch:normal;font-size:180px;line-height:125%;font-family:'Noto Sans Kannada';-inkscape-font-specification:'Noto Sans Kannada, Normal';text-align:start;writing-mode:lr-tb;text-anchor:start"
         id="path3382"
         inkscape:connector-curvature="0" />
      <path
         d="m 701.0549,914.36133 q 10.45898,7.20703 15.29296,17.13867 4.83399,9.93164 4.83399,23.73047 0,13.88672 -6.15234,24.78515 -6.15235,10.89844 -17.8418,16.9629 -11.68945,6.06448 -27.07031,6.06448 -15.0293,0 -26.80664,-5.71292 -11.68946,-5.80078 -18.10547,-16.69922 -6.32813,-10.89844 -6.32813,-25.40039 0,-26.45508 19.24805,-39.63867 l -19.24805,0 0,-13.97461 64.24805,0 q 9.3164,0 14.0625,-0.9668 4.74609,-0.9668 7.03125,-3.69141 2.37305,-2.8125 2.37305,-7.4707 0,-11.51367 -11.68946,-22.93945 l 11.68946,-7.82227 q 7.38281,8.26172 10.98632,15.73242 3.60352,7.47071 3.60352,16.25977 0,8.78906 -5.27344,15.20508 -5.18555,6.32812 -14.85351,8.4375 z m -30.67383,1.23047 q -16.52344,0 -26.63086,10.01953 -10.10742,10.01953 -10.10742,26.54297 0,16.96289 9.75586,26.63086 9.84375,9.66796 26.80664,9.66796 16.96289,0 26.54297,-9.93164 9.66796,-10.01953 9.66796,-26.36718 0,-16.52344 -10.10742,-26.54297 -10.01953,-10.01953 -25.92773,-10.01953 z m -3.16406,-60.20508 0,0 z"
         style="font-style:normal;font-variant:normal;font-weight:normal;font-stretch:normal;font-size:180px;line-height:125%;font-family:'Noto Sans Kannada';-inkscape-font-specification:'Noto Sans Kannada, Normal';text-align:start;writing-mode:lr-tb;text-anchor:start"
         id="path3384"
         inkscape:connector-curvature="0" />
      <path
         d="m 778.29688,892.56445 q -7.64635,-4.13086 -15.73207,-4.13086 -7.47055,0 -12.39236,3.33985 -4.92178,3.25195 -7.20685,9.84375 l 4.83391,0 q 16.52304,0 24.16939,6.59179 7.73425,6.5918 7.73425,17.57813 0,10.37109 -6.59168,16.17187 -6.59165,5.80079 -17.84141,5.80079 -13.00753,0 -20.39028,-8.34961 -7.29475,-8.4375 -7.29475,-23.20313 l 0,-0.61523 -29.35477,0 0,-13.97461 30.93684,0 q 3.33974,-12.56836 12.48013,-19.24805 9.14042,-6.67969 22.41165,-6.67969 12.04073,0 21.97222,5.53711 l -7.73422,11.33789 z m -37.26482,23.02735 0,1.31836 q 0,8.78906 3.86711,13.79882 3.86711,4.92188 10.72239,4.92188 10.45876,0 10.45876,-9.4043 0,-3.6914 -1.93354,-6.15234 -1.84567,-2.46094 -5.00961,-3.42774 -3.16404,-1.05468 -9.40409,-1.05468 l -8.70102,0 z"
         style="font-style:normal;font-variant:normal;font-weight:normal;font-stretch:normal;font-size:180px;line-height:125%;font-family:'Noto Sans Kannada';-inkscape-font-specification:'Noto Sans Kannada, Normal';text-align:start;writing-mode:lr-tb;text-anchor:start"
         id="path3388"
         inkscape:connector-curvature="0" />
      <path
         d="m 873.06537,953.56055 q -3.95501,6.94336 -11.60136,10.89843 -7.64625,3.86719 -17.13824,3.86719 -11.86506,0 -18.36881,-5.18555 -6.41588,-5.18554 -6.41588,-15.02929 0,-9.31641 6.76748,-14.41406 6.85535,-5.18555 19.68708,-5.18555 9.05252,0 17.40194,2.72461 -1.31827,-4.92188 -4.74601,-8.78906 -3.33974,-3.95508 -8.87672,-6.85547 l -60.02804,0 0,-13.97461 60.20384,0 q 9.31622,0 14.0622,-0.9668 4.74601,-0.9668 7.03105,-3.69141 2.37307,-2.8125 2.37307,-7.4707 0,-11.51367 -11.68926,-22.93945 l 11.68926,-7.82227 q 7.38265,8.26172 10.98606,15.73242 3.60341,7.47071 3.60341,16.25977 0,8.61328 -5.09748,15.0293 -5.09758,6.32812 -15.11687,8.61328 4.74598,4.04297 7.11895,9.75586 2.37304,5.625 2.37304,12.91992 l 0,1.14258 0,0.96679 q 5.18538,4.7461 7.90992,11.07422 2.81244,6.32813 2.81244,13.53516 0,18.98437 -12.9196,29.17969 -12.83173,10.10745 -37.35272,10.10745 -22.93902,0 -35.94655,-10.37113 -13.00753,-10.37109 -13.00753,-27.86132 0,-5.53711 0.96677,-10.45899 l 14.238,1.9336 q -0.70307,3.42773 -0.70307,6.94336 0,12.30468 8.70092,18.98437 8.78892,6.5918 26.01506,6.5918 18.28091,0 27.5971,-6.5918 9.40412,-6.67969 9.40412,-18.19336 0,-5.88867 -1.93357,-10.45898 z m -10.28299,-9.84375 q -6.41585,-3.07618 -14.85317,-3.07618 -7.11905,0 -10.54669,1.75782 -3.42764,1.75781 -3.42764,5.53711 0,7.29492 11.68916,7.29492 13.18333,0 17.13834,-11.51367 z m -12.91963,-88.33008 0,0 z"
         style="font-style:normal;font-variant:normal;font-weight:normal;font-stretch:normal;font-size:180px;line-height:125%;font-family:'Noto Sans Kannada';-inkscape-font-specification:'Noto Sans Kannada, Normal';text-align:start;writing-mode:lr-tb;text-anchor:start"
         id="path3390"
         inkscape:connector-curvature="0" />
      <path
         d="m 884.08936,914.44922 q 14.0625,17.13867 30.8496,17.13867 10.6348,0 15.55684,-4.92187 5.0098,-4.92188 5.0098,-15.20508 l 0,-1.75782 0,-1.31835 q -0.088,-0.61524 -0.088,-1.23047 -8.52556,7.64648 -20.65454,7.64648 -10.6348,0 -17.4023,-5.27344 -6.7676,-5.27343 -6.7676,-14.76562 0,-9.58008 7.1191,-15.73242 7.2071,-6.24024 18.6328,-6.24024 14.67804,0 23.90654,10.54688 9.3164,10.54687 9.3164,26.89453 0,17.05078 -8.7012,25.92773 -8.6133,8.78907 -24.69744,8.78907 -13.0079,0 -23.1153,-5.88868 -10.1074,-5.88867 -16.5234,-16.52343 l 7.5586,-8.08594 z m 48.34004,-18.36914 q -2.6367,-5.27344 -7.03144,-8.17383 -4.3067,-2.98828 -9.1407,-2.98828 -5.8886,0 -8.9648,2.46094 -3.0762,2.37304 -3.0762,6.5039 0,4.30664 2.9004,6.67969 2.9004,2.28516 7.5586,2.28516 10.8985,0 17.75414,-6.76758 z m 19.0723,5.53711 0,0 z m -9.7559,-46.23047 0,0 z m -20.65454,145.54688 0,0 z"
         style="font-style:normal;font-variant:normal;font-weight:normal;font-stretch:normal;font-size:180px;line-height:125%;font-family:'Noto Sans Kannada';-inkscape-font-specification:'Noto Sans Kannada, Normal';text-align:start;writing-mode:lr-tb;text-anchor:start"
         id="path3394"
         inkscape:connector-curvature="0" />
    </g>
  </g>
</svg>
