<?xml version="1.0" encoding="UTF-8" standalone="no"?>
<!-- Created with Inkscape (http://www.inkscape.org/) -->

<svg
   xmlns:dc="http://purl.org/dc/elements/1.1/"
   xmlns:cc="http://creativecommons.org/ns#"
   xmlns:rdf="http://www.w3.org/1999/02/22-rdf-syntax-ns#"
   xmlns:svg="http://www.w3.org/2000/svg"
   xmlns="http://www.w3.org/2000/svg"
   xmlns:sodipodi="http://sodipodi.sourceforge.net/DTD/sodipodi-0.dtd"
   xmlns:inkscape="http://www.inkscape.org/namespaces/inkscape"
   width="180mm"
   height="60mm"
   viewBox="0 0 637.79528 212.59842"
   id="svg3396"
   version="1.1"
   inkscape:version="0.91 r13725"
   sodipodi:docname="arabic al-katibu (writer) bad.svg">
  <defs
     id="defs3398" />
  <sodipodi:namedview
     id="base"
     pagecolor="#ffffff"
     bordercolor="#666666"
     borderopacity="1.0"
     inkscape:pageopacity="0.0"
     inkscape:pageshadow="2"
     inkscape:zoom="1.4"
     inkscape:cx="505.33119"
     inkscape:cy="183.01242"
     inkscape:document-units="px"
     inkscape:current-layer="layer1"
     showgrid="false"
     inkscape:window-width="1920"
     inkscape:window-height="1027"
     inkscape:window-x="-8"
     inkscape:window-y="-8"
     inkscape:window-maximized="1" />
  <metadata
     id="metadata3401">
    <rdf:RDF>
      <cc:Work
         rdf:about="">
        <dc:format>image/svg+xml</dc:format>
        <dc:type
           rdf:resource="http://purl.org/dc/dcmitype/StillImage" />
        <dc:title />
      </cc:Work>
    </rdf:RDF>
  </metadata>
  <g
     inkscape:label="Layer 1"
     inkscape:groupmode="layer"
     id="layer1"
     transform="translate(0,-839.76378)">
    <g
       style="font-style:normal;font-weight:normal;font-size:40px;line-height:125%;font-family:sans-serif;letter-spacing:0px;word-spacing:0px;fill:#000000;fill-opacity:1;stroke:none;stroke-width:1px;stroke-linecap:butt;stroke-linejoin:miter;stroke-opacity:1"
       id="text3340"
       transform="translate(-17.142857,-8.5714286)">
      <path
         d="m 629.31222,872.74731 16.17187,0 0,136.75779 -16.17187,0 0,-136.75779 z"
         style="font-size:180px"
         id="path3345"
         inkscape:connector-curvature="0" />
      <path
         d="m 583.70257,1003.0891 q 6.85547,-11.07421 6.85547,-31.02538 l 0,-99.31641 16.17187,0 0,99.31641 q 0,27.86133 -8.61328,40.51758 -10.63477,15.5566 -33.57422,21.3574 -11.77734,2.9883 -19.24805,2.9883 -8.3496,0 -14.76562,-1.9336 -25.66406,-8.0859 -25.75195,-32.0801 -0.0879,-12.12888 5.53711,-20.21481 l 16.17187,0 q -5.71289,10.10742 -5.71289,20.21481 0,11.4258 14.58984,16.875 3.51563,1.4063 9.93164,1.4063 7.03125,0 16.61133,-2.9883 15.29297,-4.6582 21.79688,-15.1172 z"
         style="font-size:180px"
         id="path3347"
         inkscape:connector-curvature="0" />
      <path
         d="m 450.80915,909.74927 0,7.20703 q -6.5039,0.35156 -9.84375,1.58203 -7.03125,2.63672 -7.03125,5.53711 0,2.46094 1.23047,4.04297 1.05469,1.40625 7.03125,2.28515 8.96485,1.31836 8.96485,9.05274 0,9.66797 -7.73438,13.35937 -7.20703,3.42774 -14.0625,3.42774 -5.80078,0 -10.72265,-0.9668 l 0,-7.73437 q 5.97656,0.8789 9.93164,0.8789 5.27343,0 10.2832,-2.28515 5.27344,-2.28516 5.27344,-4.92188 0,-3.33984 -6.85547,-4.83398 -6.50391,-1.40625 -8.08594,-3.86719 -2.8125,-4.13086 -2.72461,-8.17383 0.17578,-7.11914 6.76758,-10.45898 7.4707,-3.7793 17.57812,-4.13086 z m 21.35743,75.05859 q 6.67968,-6.41601 6.67968,-29.0039 l 0,-83.05665 16.17188,0 0,83.05665 q 0,28.74023 -9.66797,39.55078 -13.0957,14.67776 -32.51953,17.40236 -11.95313,1.6699 -22.32422,1.582 -18.19336,-0.1758 -27.07031,-2.8125 -25.75196,-7.7344 -25.75196,-24.87304 0,-6.59179 1.40625,-11.25 l 16.17188,0 q -1.23047,5.09766 -1.23047,8.96485 0.17578,8.08594 14.23828,12.1289 10.63477,3.0762 21.79688,3.0762 12.30468,0 20.12695,-2.37307 13.35937,-4.13086 21.97266,-12.39258 z"
         style="font-size:180px"
         id="path3349"
         inkscape:connector-curvature="0" />
      <path
         d="m 348.33566,872.74731 16.17188,0 0,136.75779 -16.17188,0 0,-136.75779 z"
         style="font-size:180px"
         id="path3351"
         inkscape:connector-curvature="0" />
      <path
         d="m 326.80804,950.7063 q 1.31836,7.91016 1.31836,14.0625 0,11.86523 -6.67969,20.74219 -11.25,15.02931 -39.11133,20.65431 -25.04883,5.0976 -41.30859,5.0976 -16.78711,0 -28.125,-3.3398 -29.00391,-8.52539 -29.00391,-32.08008 0,-12.12891 5.53711,-20.21485 l 16.17187,0 q -5.71289,8.26172 -5.71289,20.21485 0,10.98633 17.8418,16.875 9.14063,2.98828 22.41211,2.98828 16.25977,0 39.55078,-5.00977 22.41211,-4.74609 28.30078,-14.67773 4.83399,-8.17383 4.83399,-14.76563 0,-5.18554 -2.19727,-10.54687 l 16.17188,0 z m -70.83985,-11.51367 13.1836,0 0,13.18359 -13.1836,0 0,-13.18359 z m -21.97265,0 13.18359,0 0,13.18359 -13.18359,0 0,-13.18359 z"
         style="font-size:180px"
         id="path3353"
         inkscape:connector-curvature="0" />
      <path
         d="m 171.47879,950.7063 q 1.31836,7.91016 1.31836,14.0625 0,11.86523 -6.67968,20.74219 -11.25,15.02931 -39.11133,20.65431 -25.04883,5.0976 -41.308596,5.0976 -16.787109,0 -28.125,-3.3398 -29.003906,-8.52539 -29.003906,-32.08008 0,-12.12891 5.537109,-20.21485 l 16.171875,0 q -5.71289,8.26172 -5.71289,20.21485 0,10.98633 17.841796,16.875 9.140625,2.98828 22.41211,2.98828 16.259762,0 39.550782,-5.00977 22.41211,-4.74609 28.30078,-14.67773 4.83398,-8.17383 4.83398,-14.76563 0,-5.18554 -2.19726,-10.54687 l 16.17187,0 z m -81.826168,76.377 13.183598,0 0,13.1835 -13.183598,0 0,-13.1835 z"
         style="font-size:180px"
         id="path3355"
         inkscape:connector-curvature="0" />
    </g>
    <rect
       id="rect3361"
       width="2.8571429"
       height="0.71428573"
       x="472.14285"
       y="1102.3622" />
  </g>
</svg>
