<?xml version="1.0" encoding="UTF-8" standalone="no"?>
<!-- Created with Inkscape (http://www.inkscape.org/) -->

<svg
   xmlns:dc="http://purl.org/dc/elements/1.1/"
   xmlns:cc="http://creativecommons.org/ns#"
   xmlns:rdf="http://www.w3.org/1999/02/22-rdf-syntax-ns#"
   xmlns:svg="http://www.w3.org/2000/svg"
   xmlns="http://www.w3.org/2000/svg"
   xmlns:sodipodi="http://sodipodi.sourceforge.net/DTD/sodipodi-0.dtd"
   xmlns:inkscape="http://www.inkscape.org/namespaces/inkscape"
   width="340mm"
   height="60mm"
   viewBox="0 0 1204.7245 212.59842"
   id="svg3359"
   version="1.1"
   inkscape:version="0.91 r13725"
   sodipodi:docname="tamil eluttaalar (writer) bad.svg">
  <defs
     id="defs3361" />
  <sodipodi:namedview
     id="base"
     pagecolor="#ffffff"
     bordercolor="#666666"
     borderopacity="1.0"
     inkscape:pageopacity="0.0"
     inkscape:pageshadow="2"
     inkscape:zoom="1.4"
     inkscape:cx="592.85903"
     inkscape:cy="219.94352"
     inkscape:document-units="px"
     inkscape:current-layer="text3367"
     showgrid="false"
     inkscape:window-width="1920"
     inkscape:window-height="1027"
     inkscape:window-x="-8"
     inkscape:window-y="-8"
     inkscape:window-maximized="1" />
  <metadata
     id="metadata3364">
    <rdf:RDF>
      <cc:Work
         rdf:about="">
        <dc:format>image/svg+xml</dc:format>
        <dc:type
           rdf:resource="http://purl.org/dc/dcmitype/StillImage" />
        <dc:title></dc:title>
      </cc:Work>
    </rdf:RDF>
  </metadata>
  <g
     inkscape:label="Layer 1"
     inkscape:groupmode="layer"
     id="layer1"
     transform="translate(0,-839.76378)">
    <g
       style="font-style:normal;font-weight:normal;font-size:40px;line-height:125%;font-family:sans-serif;letter-spacing:0px;word-spacing:0px;fill:#000000;fill-opacity:1;stroke:none;stroke-width:1px;stroke-linecap:butt;stroke-linejoin:miter;stroke-opacity:1"
       id="text3367">
      <path
         d="m 120.37807,911.50562 0,92.28518 -14.41406,0 0,-92.28518 -19.33594,0 q -12.65625,0 -23.203125,2.28515 -10.458984,2.19727 -18.017578,7.29492 -7.558594,5.00977 -11.777344,13.27149 -4.130859,8.26172 -4.130859,20.30273 0,1.58203 0.08789,3.60352 0.08789,1.93359 0.527344,3.77929 l 0.527344,0 q 1.230469,-3.42773 3.515625,-6.24023 2.373047,-2.90039 5.537109,-4.83398 3.164063,-2.02149 7.03125,-3.07618 3.867188,-1.14257 8.173828,-1.14257 5.888672,0 10.986328,2.02148 5.097657,2.02148 8.789063,5.80078 3.779297,3.69141 5.888672,8.96485 2.109375,5.18554 2.109375,11.51367 0,6.59179 -2.109375,12.21679 -2.109375,5.53711 -6.064453,9.66797 -3.955078,4.1309 -9.580078,6.5039 -5.53711,2.2852 -12.480469,2.2852 -6.240235,0 -11.425781,-2.0215 -5.185547,-2.0215 -9.316407,-5.53713 -4.042968,-3.60351 -7.11914,-8.34961 -3.076172,-4.83398 -5.097657,-10.37109 -2.021484,-5.53711 -3.076171,-11.51367 -0.966797,-5.97657 -0.966797,-11.86524 0,-15.9082 5.361328,-26.89453 5.361328,-10.98633 14.853515,-17.75391 9.492188,-6.85546 22.41211,-9.84375 13.007812,-2.98828 28.125,-2.98828 l 61.435543,0 0,12.91993 -27.24609,0 z m -52.119141,64.5996 q 0,-3.51562 -1.054687,-6.59179 -1.054688,-3.16406 -3.164063,-5.44922 -2.021484,-2.37305 -5.009765,-3.69141 -2.988282,-1.31836 -6.767578,-1.31836 -3.779297,0 -6.94336,1.31836 -3.076172,1.23047 -5.361328,3.51563 -2.197266,2.28515 -3.515625,5.36133 -1.230469,3.07617 -1.230469,6.67968 0,3.95508 1.230469,7.20703 1.318359,3.25196 3.515625,5.625 2.285156,2.37305 5.273438,3.69141 3.076171,1.23047 6.679687,1.23047 3.339844,0 6.240234,-1.05469 2.988282,-1.05469 5.185547,-3.25195 2.285157,-2.19727 3.603516,-5.44922 1.318359,-3.33984 1.318359,-7.82227 z"
         style="font-style:normal;font-variant:normal;font-weight:normal;font-stretch:normal;font-size:180px;font-family:'Nirmala UI';-inkscape-font-specification:'Nirmala UI'"
         id="path3372"
         inkscape:connector-curvature="0" />
      <path
         d="m 316.28627,958.17554 q 0,9.84375 -1.58203,18.7207 -1.58203,8.78906 -3.86718,16.34766 l -62.05079,0 0,14.6777 35.94727,0 0,12.3926 -44.20898,0 q -2.54883,0 -4.13086,0.791 -1.49414,0.791 -3.33985,3.252 -0.70312,0.9668 -1.40625,1.8457 -0.70312,0.9668 -1.40625,2.0215 -5.44922,7.5586 -12.56836,11.6894 -7.11914,4.2188 -17.31445,4.2188 -5.97656,0 -10.98633,-1.5821 -4.92187,-1.582 -8.4375,-4.4824 -3.51562,-2.9004 -5.44922,-7.0312 -1.93359,-4.1309 -1.93359,-9.1407 0,-4.1308 1.40625,-7.7343 1.40625,-3.6036 3.95508,-6.3282 2.63672,-2.6367 6.32812,-4.1308 3.7793,-1.5821 8.4375,-1.5821 3.69141,0 6.85547,0.9668 3.16406,0.879 5.44922,2.5489 2.37305,1.7578 3.69141,4.2187 1.40625,2.461 1.40625,5.625 0,2.2852 -0.9668,4.5703 -0.87891,2.3731 -2.54883,3.9551 l -10.10742,-4.3945 q 0.70312,-0.7031 0.9668,-1.6699 0.35156,-0.9668 0.35156,-1.9336 0,-1.7578 -1.31836,-2.9883 -1.23047,-1.2305 -3.7793,-1.2305 -3.25195,0 -5.27344,2.1973 -1.93359,2.1972 -1.93359,6.7676 0,2.9882 1.05469,5.1855 1.14258,2.2852 2.98828,3.7793 1.93359,1.4941 4.48242,2.1973 2.63672,0.791 5.625,0.791 3.42774,0 6.15235,-0.9668 2.8125,-0.8789 5.18554,-2.5488 2.37305,-1.67 4.30664,-3.9551 2.02149,-2.2852 3.86719,-4.9219 0.87891,-1.2305 1.75781,-2.5488 0.87891,-1.3184 1.66992,-2.6367 2.54883,-3.7793 5.18555,-5.3614 2.72461,-1.4941 5.625,-1.6699 l 0,-14.8535 -58.44726,0 0,-94.65821 14.41406,0 0,81.73828 44.0332,0 0,-46.8457 q 0,-19.16015 8.61328,-27.94922 8.61328,-8.78906 25.13672,-8.78906 13.27149,0 22.41211,5.00977 9.22852,4.92187 14.94141,13.35937 5.71289,8.4375 8.26172,19.59961 2.54882,11.07422 2.54882,23.4668 z m -14.9414,0.61523 q 0,-9.84375 -1.49414,-18.63281 -1.40625,-8.87695 -5.18555,-15.55664 -3.7793,-6.76758 -10.19531,-10.72266 -6.41602,-3.95508 -16.25977,-3.95508 -5.44922,0 -9.14062,1.49414 -3.69141,1.40625 -5.97657,4.48243 -2.28515,2.98828 -3.33984,7.73437 -0.9668,4.6582 -0.9668,11.07422 l 0,45.52734 49.83399,0 q 2.72461,-9.84375 2.72461,-21.44531 z"
         style="font-style:normal;font-variant:normal;font-weight:normal;font-stretch:normal;font-size:180px;font-family:'Nirmala UI';-inkscape-font-specification:'Nirmala UI'"
         id="path3374"
         inkscape:connector-curvature="0" />
      <path
         d="m 427.86691,935.0603 q 0,6.5918 -2.02149,11.60157 -2.02148,5.00976 -5.71289,8.3496 -3.69141,3.25196 -9.05273,4.92188 -5.27344,1.66992 -11.86524,1.66992 -6.59179,0 -11.95312,-1.66992 -5.36133,-1.66992 -9.14063,-4.92188 -3.77929,-3.33984 -5.88867,-8.3496 -2.02148,-5.00977 -2.02148,-11.60157 l 0,-23.55468 -75.67383,0 0,-12.91993 133.33008,0 0,36.47461 z m -14.41407,-23.55468 -28.82812,0 0,23.02734 q 0,7.11914 3.95508,10.54687 3.95507,3.33985 10.63476,3.33985 3.07617,0 5.71289,-0.79102 2.63672,-0.79101 4.48242,-2.46094 1.9336,-1.66992 2.98829,-4.30664 1.05468,-2.63671 1.05468,-6.32812 l 0,-23.02734 z"
         style="font-style:normal;font-variant:normal;font-weight:normal;font-stretch:normal;font-size:180px;font-family:'Nirmala UI';-inkscape-font-specification:'Nirmala UI'"
         id="path3378"
         inkscape:connector-curvature="0" />
      <path
         d="m 585.19112,980.85132 q 0,11.51367 -4.21875,20.30278 -4.21875,8.789 -12.04101,14.6777 -7.82227,5.9765 -19.07227,8.9648 -11.16211,3.0762 -25.22461,3.0762 -13.62304,0 -26.63086,-0.088 -13.00781,0 -25.3125,0 -5.27343,0 -7.4707,1.2305 -2.10937,1.3183 -2.10937,4.6582 0,2.0215 0.43945,3.9551 0.52734,1.9336 1.49414,3.8671 l -12.91992,0 q -0.9668,-2.1972 -1.75781,-4.8339 -0.70313,-2.5489 -0.70313,-5.2735 0,-8.3496 5.44922,-12.3047 5.44922,-3.955 15.99609,-3.955 5.09766,0 11.68946,0 6.59179,0 13.79882,0 7.20704,0.088 14.58985,0.088 7.4707,0 14.23828,0 3.07617,0 5.88867,-0.088 2.90039,-0.088 5.53711,-0.4395 7.91016,-1.1426 14.0625,-3.8672 6.24024,-2.6367 10.54688,-6.8554 4.30664,-4.13091 6.5039,-9.66802 2.28516,-5.625 2.28516,-12.56836 0,-7.11914 -2.02149,-11.86523 -1.93359,-4.83398 -5.44921,-7.73437 -3.42774,-2.98829 -8.26172,-4.21875 -4.83399,-1.31836 -10.45899,-1.31836 l -10.45898,0 0,8.87695 q 0,10.98633 -2.90039,18.45703 -2.8125,7.38281 -8.61328,12.48047 -5.27344,4.57034 -12.83204,6.94334 -7.55859,2.3731 -17.22656,2.3731 -9.93164,0 -17.49023,-2.5489 -7.5586,-2.6367 -12.65625,-7.1191 -5.00977,-4.48243 -7.5586,-10.45899 -2.54882,-5.97656 -2.54882,-12.74414 0,-11.51367 5.88867,-18.54492 5.97656,-7.03125 15.99609,-9.31641 l 0,-46.40625 100.01953,0 0,12.91993 -40.07812,0 0,32.25585 9.84375,0 q 9.49219,0 17.13867,2.10938 7.73437,2.10937 13.18359,6.5918 5.44922,4.48242 8.4375,11.51367 2.98828,7.03125 2.98828,16.875 z m -66.00585,-24.25781 -31.81641,0 q -10.10742,0 -15.38086,3.6914 -5.27344,3.69141 -5.27344,12.2168 0,4.39453 1.58203,8.08594 1.66993,3.6914 4.92188,6.32812 3.25195,2.63672 8.08594,4.13086 4.83398,1.49414 11.25,1.49414 13.53515,0 20.03906,-6.41601 6.5918,-6.50391 6.5918,-20.74219 l 0,-8.78906 z m 0,-45.08789 -31.20118,0 0,32.25585 31.20118,0 0,-32.25585 z"
         style="font-style:normal;font-variant:normal;font-weight:normal;font-stretch:normal;font-size:180px;font-family:'Nirmala UI';-inkscape-font-specification:'Nirmala UI'"
         id="path3380"
         inkscape:connector-curvature="0" />
      <path
         d="m 539.40011,865.01147 q 0,2.72461 -0.9668,5.09766 -1.05469,2.37305 -2.8125,4.13086 -1.75781,1.75781 -4.13086,2.8125 -2.37304,0.9668 -5.09765,0.9668 -2.72461,0 -5.09766,-0.9668 -2.37305,-1.05469 -4.13086,-2.8125 -1.75781,-1.75781 -2.72461,-4.13086 -1.05469,-2.37305 -1.05469,-5.09766 0,-2.7246 1.05469,-5.09765 0.9668,-2.46094 2.72461,-4.21875 1.75781,-1.75781 4.13086,-2.8125 2.37305,-1.05469 5.09766,-1.05469 2.72461,0 5.09765,1.05469 2.37305,1.05469 4.13086,2.8125 1.75781,1.75781 2.8125,4.21875 0.9668,2.37305 0.9668,5.09765 z"
         style="font-style:normal;font-variant:normal;font-weight:normal;font-stretch:normal;font-size:180px;font-family:'Nirmala UI';-inkscape-font-specification:'Nirmala UI'"
         id="path3382"
         inkscape:connector-curvature="0" />
      <path
         d="m 741.63644,980.85132 q 0,11.51367 -4.21875,20.30278 -4.21875,8.789 -12.04102,14.6777 -7.82226,5.9765 -19.07226,8.9648 -11.16211,3.0762 -25.22461,3.0762 -13.62305,0 -26.63086,-0.088 -13.00782,0 -25.3125,0 -5.27344,0 -7.47071,1.2305 -2.10937,1.3183 -2.10937,4.6582 0,2.0215 0.43945,3.9551 0.52735,1.9336 1.49414,3.8671 l -12.91992,0 q -0.9668,-2.1972 -1.75781,-4.8339 -0.70313,-2.5489 -0.70313,-5.2735 0,-8.3496 5.44922,-12.3047 5.44922,-3.955 15.9961,-3.955 5.09765,0 11.68945,0 6.5918,0 13.79883,0 7.20703,0.088 14.58984,0.088 7.4707,0 14.23828,0 3.07617,0 5.88867,-0.088 2.90039,-0.088 5.53711,-0.4395 7.91016,-1.1426 14.0625,-3.8672 6.24024,-2.6367 10.54688,-6.8554 4.30664,-4.13091 6.5039,-9.66802 2.28516,-5.625 2.28516,-12.56836 0,-7.11914 -2.02148,-11.86523 -1.9336,-4.83398 -5.44922,-7.73437 -3.42774,-2.98829 -8.26172,-4.21875 -4.83399,-1.31836 -10.45899,-1.31836 l -10.45898,0 0,8.87695 q 0,10.98633 -2.90039,18.45703 -2.8125,7.38281 -8.61328,12.48047 -5.27344,4.57034 -12.83203,6.94334 -7.5586,2.3731 -17.22657,2.3731 -9.93164,0 -17.49023,-2.5489 -7.55859,-2.6367 -12.65625,-7.1191 -5.00977,-4.48243 -7.55859,-10.45899 -2.54883,-5.97656 -2.54883,-12.74414 0,-11.51367 5.88867,-18.54492 5.97656,-7.03125 15.99609,-9.31641 l 0,-46.40625 100.01954,0 0,12.91993 -40.07813,0 0,32.25585 9.84375,0 q 9.49219,0 17.13867,2.10938 7.73438,2.10937 13.1836,6.5918 5.44921,4.48242 8.4375,11.51367 2.98828,7.03125 2.98828,16.875 z m -66.00586,-24.25781 -31.81641,0 q -10.10742,0 -15.38086,3.6914 -5.27344,3.69141 -5.27344,12.2168 0,4.39453 1.58204,8.08594 1.66992,3.6914 4.92187,6.32812 3.25195,2.63672 8.08594,4.13086 4.83398,1.49414 11.25,1.49414 13.53515,0 20.03906,-6.41601 6.5918,-6.50391 6.5918,-20.74219 l 0,-8.78906 z m 0,-45.08789 -31.20117,0 0,32.25585 31.20117,0 0,-32.25585 z"
         style="font-style:normal;font-variant:normal;font-weight:normal;font-stretch:normal;font-size:180px;font-family:'Nirmala UI';-inkscape-font-specification:'Nirmala UI'"
         id="path3384"
         inkscape:connector-curvature="0" />
      <path
         d="m 843.76534,911.50562 0,91.66988 -51.85547,37.4414 -7.82226,-10.2832 45.26367,-32.51949 0,-86.30859 -43.24219,0 0,92.28518 -14.41406,0 0,-105.20511 99.31641,0 0,12.91993 -27.2461,0 z"
         style="font-style:normal;font-variant:normal;font-weight:normal;font-stretch:normal;font-size:180px;font-family:'Nirmala UI';-inkscape-font-specification:'Nirmala UI'"
         id="path3386"
         inkscape:connector-curvature="0" />
      <path
         d="m 1029.7419,911.50562 0,92.28518 -14.4141,0 0,-92.28518 -37.17766,0 0,92.28518 -14.4141,0 0,-48.33987 q 0,-10.63477 -1.8457,-18.63281 -1.7578,-8.08594 -6.2402,-14.58985 -4.043,-6.06445 -10.1075,-9.14062 -5.9765,-3.16407 -13.7109,-3.16407 -8.0859,0 -14.5898,3.25196 -6.5039,3.25195 -11.0743,9.14062 -4.5703,5.88867 -7.1191,14.0625 -2.4609,8.17383 -2.4609,17.92969 0,1.66992 0.088,3.69141 0.1757,2.02148 0.6152,4.04296 l 0.5273,0 q 1.3184,-3.42773 3.6036,-6.24023 2.2851,-2.90039 5.4492,-4.83398 3.164,-2.02149 6.9433,-3.07618 3.8672,-1.14257 8.2618,-1.14257 5.8886,0 10.9863,2.02148 5.0976,2.02148 8.789,5.80078 3.7793,3.69141 5.8887,8.96485 2.1094,5.18554 2.1094,11.51367 0,6.59179 -2.1094,12.21679 -2.1094,5.53711 -6.0644,9.66797 -3.9551,4.1309 -9.5801,6.5039 -5.5371,2.2852 -12.4805,2.2852 -6.1523,0 -11.3379,-2.0215 -5.0976,-2.0215 -9.2285,-5.53713 -4.1309,-3.60351 -7.207,-8.4375 -3.0762,-4.83398 -5.1856,-10.37109 -2.0215,-5.625 -3.0761,-11.68946 -0.9668,-6.15234 -0.9668,-12.30468 0,-13.71094 3.7793,-24.60938 3.7793,-10.89844 10.3711,-18.45703 6.6796,-7.55859 15.7324,-11.51367 9.1406,-4.04297 19.6875,-4.04297 5.7129,0 10.7226,1.31836 5.0098,1.23047 9.1407,3.60352 4.1308,2.28515 7.4707,5.5371 3.3398,3.25196 5.7128,7.11915 l 0.4395,0 0,-15.73243 89.20896,0 0,12.91993 -25.1367,0 z m -94.30666,64.5996 q 0,-3.51562 -1.0547,-6.59179 -1.0546,-3.16406 -3.164,-5.44922 -2.0215,-2.37305 -5.0098,-3.69141 -2.9883,-1.31836 -6.7676,-1.31836 -3.7793,0 -6.9433,1.31836 -3.0762,1.23047 -5.3614,3.51563 -2.1972,2.28515 -3.5156,5.36133 -1.2304,3.07617 -1.2304,6.67968 0,3.95508 1.2304,7.20703 1.3184,3.25196 3.5156,5.625 2.2852,2.37305 5.2735,3.69141 3.0762,1.23047 6.6797,1.23047 3.3398,0 6.2402,-1.05469 2.9883,-1.05469 5.1856,-3.25195 2.2851,-2.19727 3.6035,-5.44922 1.3183,-3.33984 1.3183,-7.82227 z"
         style="font-style:normal;font-variant:normal;font-weight:normal;font-stretch:normal;font-size:180px;font-family:'Nirmala UI';-inkscape-font-specification:'Nirmala UI'"
         id="path3388"
         inkscape:connector-curvature="0" />
      <path
         d="m 1155.2497,911.50562 0,91.66988 -51.8555,37.4414 -7.8223,-10.2832 45.2637,-32.51949 0,-86.30859 -43.2422,0 0,92.28518 -14.414,0 0,-105.20511 99.3164,0 0,12.91993 -27.2461,0 z"
         style="font-style:normal;font-variant:normal;font-weight:normal;font-stretch:normal;font-size:180px;font-family:'Nirmala UI';-inkscape-font-specification:'Nirmala UI'"
         id="path3390"
         inkscape:connector-curvature="0" />
      <path
         d="m 1146.6364,865.01147 q 0,2.72461 -0.9668,5.09766 -1.0547,2.37305 -2.8125,4.13086 -1.7578,1.75781 -4.1309,2.8125 -2.373,0.9668 -5.0976,0.9668 -2.7246,0 -5.0977,-0.9668 -2.373,-1.05469 -4.1308,-2.8125 -1.7578,-1.75781 -2.7246,-4.13086 -1.0547,-2.37305 -1.0547,-5.09766 0,-2.7246 1.0547,-5.09765 0.9668,-2.46094 2.7246,-4.21875 1.7578,-1.75781 4.1308,-2.8125 2.3731,-1.05469 5.0977,-1.05469 2.7246,0 5.0976,1.05469 2.3731,1.05469 4.1309,2.8125 1.7578,1.75781 2.8125,4.21875 0.9668,2.37305 0.9668,5.09765 z"
         style="font-style:normal;font-variant:normal;font-weight:normal;font-stretch:normal;font-size:180px;font-family:'Nirmala UI';-inkscape-font-specification:'Nirmala UI'"
         id="path3392"
         inkscape:connector-curvature="0" />
    </g>
  </g>
</svg>
