<?xml version="1.0" encoding="UTF-8" standalone="no"?>
<!-- Created with Inkscape (http://www.inkscape.org/) -->

<svg
   xmlns:dc="http://purl.org/dc/elements/1.1/"
   xmlns:cc="http://creativecommons.org/ns#"
   xmlns:rdf="http://www.w3.org/1999/02/22-rdf-syntax-ns#"
   xmlns:svg="http://www.w3.org/2000/svg"
   xmlns="http://www.w3.org/2000/svg"
   xmlns:sodipodi="http://sodipodi.sourceforge.net/DTD/sodipodi-0.dtd"
   xmlns:inkscape="http://www.inkscape.org/namespaces/inkscape"
   width="210mm"
   height="70mm"
   viewBox="0 0 744.09449 248.03149"
   id="svg2"
   version="1.1"
   inkscape:version="0.91 r13725"
   sodipodi:docname="writer gurmukhi good likhaari.svg">
  <defs
     id="defs4" />
  <sodipodi:namedview
     id="base"
     pagecolor="#ffffff"
     bordercolor="#666666"
     borderopacity="1.0"
     inkscape:pageopacity="0.0"
     inkscape:pageshadow="2"
     inkscape:zoom="0.35"
     inkscape:cx="1356.7542"
     inkscape:cy="634.28571"
     inkscape:document-units="px"
     inkscape:current-layer="layer1"
     showgrid="false"
     inkscape:window-width="1920"
     inkscape:window-height="1027"
     inkscape:window-x="-8"
     inkscape:window-y="-8"
     inkscape:window-maximized="1" />
  <metadata
     id="metadata7">
    <rdf:RDF>
      <cc:Work
         rdf:about="">
        <dc:format>image/svg+xml</dc:format>
        <dc:type
           rdf:resource="http://purl.org/dc/dcmitype/StillImage" />
        <dc:title></dc:title>
      </cc:Work>
    </rdf:RDF>
  </metadata>
  <g
     inkscape:label="Layer 1"
     inkscape:groupmode="layer"
     id="layer1"
     transform="translate(0,-804.33071)">
    <g
       style="font-style:normal;font-weight:normal;font-size:180px;line-height:125%;font-family:sans-serif;letter-spacing:0px;word-spacing:0px;fill:#000000;fill-opacity:1;stroke:none;stroke-width:1px;stroke-linecap:butt;stroke-linejoin:miter;stroke-opacity:1"
       id="text3336">
      <path
         d="m 110.28181,913.22156 -17.314456,0 0,-12.83203 17.314456,0 0,-8.26172 q 0,-14.41406 3.25195,-22.76367 3.33984,-8.4375 10.72266,-13.35938 7.38281,-5.00976 18.89648,-5.00976 14.0625,0 22.14844,8.26171 8.08594,8.26172 8.08594,23.29102 0,4.74609 -1.14258,11.95312 l -14.0625,-1.40625 q 0.96679,-5.18554 0.96679,-10.98632 0,-9.31641 -4.04296,-13.88672 -3.95508,-4.57031 -12.12891,-4.57031 -6.76758,0 -11.07422,3.51562 -4.21875,3.51563 -5.71289,9.4043 -1.40625,5.80078 -1.40625,15.11718 l 0,8.70118 17.40234,0 0,12.83203 -17.40234,0 0,99.14064 -14.50195,0 0,-99.14064 z"
         style="font-style:normal;font-variant:normal;font-weight:normal;font-stretch:normal;font-size:180px;line-height:125%;font-family:'Noto Sans Gurmukhi';-inkscape-font-specification:'Noto Sans Gurmukhi, Normal';text-align:start;writing-mode:lr-tb;text-anchor:start"
         id="path3341" />
      <path
         d="m 241.32673,913.22156 q -2.72461,14.32617 -11.25,27.77344 12.48047,6.94335 18.80859,16.34765 6.41602,9.31641 6.41602,20.12695 0,9.49219 -4.39453,17.75391 -4.39453,8.17379 -12.83203,12.65629 -8.4375,4.4824 -20.39063,4.4824 l -1.05469,0 -0.8789,-13.18361 1.93359,0 q 11.25,0 17.22656,-5.625 5.97657,-5.71289 5.97657,-15.55664 0,-8.17383 -4.65821,-15.0293 -4.6582,-6.94336 -14.15039,-11.86523 -9.3164,10.01953 -20.39062,16.25976 -11.25,-6.32812 -20.56641,-16.25976 -8.87695,4.6582 -13.79883,11.42578 -4.83398,6.76758 -4.83398,14.76562 0,10.28321 5.88867,16.08399 5.97656,5.80078 17.31445,5.80078 l 1.9336,0 -0.87891,13.18361 -1.05469,0 q -12.04101,0 -20.47851,-4.4824 -8.4375,-4.5704 -12.83203,-12.74418 -4.30664,-8.17383 -4.30664,-17.57812 0,-10.81055 6.41601,-20.39063 6.50391,-9.58008 18.89649,-16.17187 -8.96485,-13.53516 -11.33789,-27.77344 l -22.32422,0 0,-12.83203 123.92578,0 0,12.83203 -22.32422,0 z m -64.51172,0 q 3.86719,24.08203 24.87305,38.75976 10.19531,-6.76757 16.52343,-16.78711 6.41602,-10.01953 8.34961,-21.97265 l -49.74609,0 z m 64.51172,-12.83203 0,0 z m -39.63867,111.97267 0,0 z m 25.66406,0 0,0 z m -46.93359,-58.53517 0,0 z m 21.26953,0.70312 0,0 z"
         style="font-style:normal;font-variant:normal;font-weight:normal;font-stretch:normal;font-size:180px;line-height:125%;font-family:'Noto Sans Gurmukhi';-inkscape-font-specification:'Noto Sans Gurmukhi, Normal';text-align:start;writing-mode:lr-tb;text-anchor:start"
         id="path3343" />
      <path
         d="m 339.32478,982.74304 q -12.12891,5.80078 -25.92774,5.80078 -14.76562,0 -25.83984,-8.96484 -11.07422,-9.05273 -18.36914,-27.07031 6.67968,-5.625 9.58008,-11.07422 2.98828,-5.44922 2.98828,-11.77735 0,-3.95507 -1.14258,-8.4375 -1.14258,-4.48242 -3.16406,-7.99804 l -16.43555,0 0,-12.83203 26.80664,0 q 3.86719,7.03125 6.06445,14.67773 2.19727,7.64649 2.19727,14.50195 l 0,1.14258 43.24219,0 0,-30.32226 31.90429,0 0,12.83203 -17.40234,0 0,99.14064 -14.50195,0 0,-29.61916 z m 0,-15.46875 0,-24.16992 -45.70313,0 q -2.37305,5.80078 -7.4707,10.45898 5.625,11.60157 12.04101,16.69922 6.50391,5.09766 15.29297,5.09766 6.41602,0 12.39258,-1.75781 5.97656,-1.75782 13.44727,-6.32813 z"
         style="font-style:normal;font-variant:normal;font-weight:normal;font-stretch:normal;font-size:180px;line-height:125%;font-family:'Noto Sans Gurmukhi';-inkscape-font-specification:'Noto Sans Gurmukhi, Normal';text-align:start;writing-mode:lr-tb;text-anchor:start"
         id="path3345" />
      <path
         d="m 413.50446,913.22156 -15.82031,0 0,52.11914 -14.50195,0 0,-52.11914 -14.58985,0 0,-12.83203 44.91211,0 0,12.83203 z m -15.82031,-12.83203 0,0 z"
         style="font-style:normal;font-variant:normal;font-weight:normal;font-stretch:normal;font-size:180px;line-height:125%;font-family:'Noto Sans Gurmukhi';-inkscape-font-specification:'Noto Sans Gurmukhi, Normal';text-align:start;writing-mode:lr-tb;text-anchor:start"
         id="path3347" />
      <path
         d="m 485.66267,938.88562 0,-25.66406 -74.88282,0 0,-12.83203 106.78711,0 0,12.83203 -17.40234,0 0,68.11523 q 0,12.04102 -3.95508,18.45703 -3.86719,6.32808 -10.63476,9.49218 -6.67969,3.0762 -17.66602,3.0762 -11.51367,0 -22.32422,-5.4492 -10.72265,-5.5371 -18.80859,-16.96293 -7.99805,-11.42578 -7.99805,-23.99414 0,-9.40429 4.92188,-15.55664 4.92187,-6.15234 13.0957,-8.78906 8.26172,-2.72461 24.25781,-2.72461 l 24.60938,0 z m 0,12.83203 -22.85157,0 q -11.68945,0 -17.40234,1.14258 -5.71289,1.14258 -8.96484,4.57031 -3.16407,3.33985 -3.16407,9.49219 0,7.29492 5.71289,15.38086 5.80079,8.08594 13.62305,12.56836 7.91016,4.39453 15.9082,4.39453 7.47071,0 10.98633,-2.02148 3.51563,-2.02149 4.83399,-5.7129 1.31836,-3.6914 1.31836,-12.1289 l 0,-27.68555 z m -8.78907,60.64455 0,0 z"
         style="font-style:normal;font-variant:normal;font-weight:normal;font-stretch:normal;font-size:180px;line-height:125%;font-family:'Noto Sans Gurmukhi';-inkscape-font-specification:'Noto Sans Gurmukhi, Normal';text-align:start;writing-mode:lr-tb;text-anchor:start"
         id="path3349" />
      <path
         d="m 546.65876,1012.3622 -14.50195,0 0,-99.14064 -17.31446,0 0,-12.83203 17.31446,0 0,-5.71289 q 0,-13.00782 -1.49414,-18.8086 -1.49414,-5.80078 -5.36133,-8.96484 -3.7793,-3.25195 -10.2832,-3.25195 -8.70118,0 -13.00782,4.6582 -4.30664,4.6582 -4.30664,14.32617 0,4.48242 1.05469,10.45898 l -14.0625,1.40625 q -1.23047,-8.52539 -1.23047,-12.04101 0,-14.58984 8.61328,-23.02734 8.61328,-8.4375 23.37891,-8.4375 11.95312,0 18.98437,5.18554 7.11914,5.18555 9.66797,13.44727 2.54883,8.17383 2.54883,22.5 l 0,8.26172 17.40234,0 0,12.83203 -17.40234,0 0,99.14064 z"
         style="font-style:normal;font-variant:normal;font-weight:normal;font-stretch:normal;font-size:180px;line-height:125%;font-family:'Noto Sans Gurmukhi';-inkscape-font-specification:'Noto Sans Gurmukhi, Normal';text-align:start;writing-mode:lr-tb;text-anchor:start"
         id="path3351" />
    </g>
  </g>
</svg>
