<?xml version="1.0" encoding="UTF-8" standalone="no"?>
<!-- Created with Inkscape (http://www.inkscape.org/) -->

<svg
   xmlns:dc="http://purl.org/dc/elements/1.1/"
   xmlns:cc="http://creativecommons.org/ns#"
   xmlns:rdf="http://www.w3.org/1999/02/22-rdf-syntax-ns#"
   xmlns:svg="http://www.w3.org/2000/svg"
   xmlns="http://www.w3.org/2000/svg"
   xmlns:sodipodi="http://sodipodi.sourceforge.net/DTD/sodipodi-0.dtd"
   xmlns:inkscape="http://www.inkscape.org/namespaces/inkscape"
   width="250mm"
   height="60mm"
   viewBox="0 0 885.82677 212.59842"
   id="svg2"
   version="1.1"
   inkscape:version="0.91 r13725"
   sodipodi:docname="devanagari saahityakaar (writer) bad.svg">
  <defs
     id="defs4" />
  <sodipodi:namedview
     id="base"
     pagecolor="#ffffff"
     bordercolor="#666666"
     borderopacity="1.0"
     inkscape:pageopacity="0.0"
     inkscape:pageshadow="2"
     inkscape:zoom="1.4"
     inkscape:cx="382.22016"
     inkscape:cy="86.803443"
     inkscape:document-units="px"
     inkscape:current-layer="layer1"
     showgrid="false"
     inkscape:window-width="1920"
     inkscape:window-height="1027"
     inkscape:window-x="-8"
     inkscape:window-y="-8"
     inkscape:window-maximized="1" />
  <metadata
     id="metadata7">
    <rdf:RDF>
      <cc:Work
         rdf:about="">
        <dc:format>image/svg+xml</dc:format>
        <dc:type
           rdf:resource="http://purl.org/dc/dcmitype/StillImage" />
        <dc:title></dc:title>
      </cc:Work>
    </rdf:RDF>
  </metadata>
  <g
     inkscape:label="Layer 1"
     inkscape:groupmode="layer"
     id="layer1"
     transform="translate(0,-839.76378)">
    <g
       style="font-style:normal;font-weight:normal;font-size:40px;line-height:125%;font-family:sans-serif;letter-spacing:0px;word-spacing:0px;fill:#000000;fill-opacity:1;stroke:none;stroke-width:1px;stroke-linecap:butt;stroke-linejoin:miter;stroke-opacity:1"
       id="text3359">
      <path
         d="m 158.35101,903.98047 -26.80665,0 0,101.95313 -15.46875,0 0,-48.33985 -46.054683,0 q -3.427734,9.4043 -13.359375,11.51367 l 30.9375,36.56248 -11.953125,10.1074 -51.679687,-60.99605 12.041016,-10.10742 9.580078,11.42578 q 0.439453,0.52734 1.933593,0.52734 12.216797,0 12.216797,-27.77343 l 0,-24.87305 -39.199218,0 0,-14.0625 137.812504,0 0,14.0625 z m -71.894536,94.39453 0,0 z m 0,-102.04102 0,0 z m 29.619136,47.19727 0,-39.55078 -40.869136,0 0,24.87305 q 0,9.3164 -0.791015,14.67773 l 41.660151,0 z m 7.73438,-47.19727 0,0 z m 0,102.04102 0,0 z"
         style="font-style:normal;font-variant:normal;font-weight:normal;font-stretch:normal;font-size:180px;font-family:'Mangal Sample';-inkscape-font-specification:'Mangal Sample'"
         id="path3364" />
      <path
         d="m 141.21233,896.33398 0,0 z m 64.07227,7.64649 -26.80664,0 0,101.95313 -15.46875,0 0,-101.95313 -10.98633,0 0,-14.0625 53.26172,0 0,14.0625 z m -64.07227,94.39453 0,0 z m 28.38868,-102.04102 0,0 z"
         style="font-style:normal;font-variant:normal;font-weight:normal;font-stretch:normal;font-size:180px;font-family:'Mangal Sample';-inkscape-font-specification:'Mangal Sample'"
         id="path3366" />
      <path
         d="m 304.07366,903.98047 -32.25586,0 0,29.17969 -39.81445,0 q -2.37305,0 -4.48242,0.8789 -2.02149,0.87891 -3.60352,2.46094 -1.49414,1.49414 -2.46094,3.51562 -0.8789,2.02149 -0.8789,4.30665 0,3.33984 1.49414,6.15234 1.58203,2.72461 4.21875,4.39453 4.30664,-2.54883 9.66797,-4.04297 5.44922,-1.49414 12.21679,-1.49414 8.4375,0 14.76563,2.46094 6.32812,2.37305 10.45898,6.32812 4.13086,3.95508 6.15235,9.14063 2.10937,5.09765 2.10937,10.54687 0,4.21875 -1.40625,7.91016 -1.31836,3.69141 -3.25195,6.76758 -1.8457,3.07617 -3.95508,5.36133 -2.02148,2.19724 -3.42773,3.51564 l -10.81055,-10.01955 q 0.87891,-0.9668 2.19727,-2.19727 1.31835,-1.23046 2.54882,-2.72461 1.31836,-1.58203 2.19727,-3.42773 0.9668,-1.8457 0.9668,-3.95508 0,-2.10937 -0.79102,-4.6582 -0.70312,-2.63672 -2.8125,-4.83399 -2.02148,-2.28515 -5.80078,-3.77929 -3.69141,-1.58203 -9.66797,-1.58203 -4.92187,0 -9.4043,1.49414 -4.48242,1.40625 -7.91015,4.13086 -3.42774,2.72461 -5.53711,6.67968 -2.02149,3.86719 -2.02149,8.78907 0,8.08593 3.33985,13.88672 3.42773,5.71288 8.61328,9.93168 5.27344,4.2187 11.51367,7.207 6.24023,3.0762 11.95313,5.625 l -6.94336,12.3926 q -4.92188,-1.4063 -10.01954,-3.6914 -5.09765,-2.1973 -9.93164,-5.3614 -4.83398,-3.0761 -9.14062,-7.1191 -4.21875,-3.9551 -7.4707,-8.9649 -3.16407,-5.0097 -5.00977,-10.98628 -1.8457,-5.97656 -1.8457,-13.00781 0,-2.10938 0.43945,-4.65821 0.43945,-2.54883 1.40625,-5.27343 1.05469,-2.8125 2.54883,-5.625 1.49414,-2.8125 3.60351,-5.53711 -4.57031,-3.69141 -7.38281,-8.87696 -2.8125,-5.18554 -2.8125,-10.89843 0,-5.00977 1.75781,-9.49219 1.75782,-4.48242 4.92188,-7.91016 3.16406,-3.42773 7.4707,-5.36133 4.39453,-2.02148 9.58008,-2.02148 l 26.98242,0 0,-15.55664 -57.04101,0 0,-14.0625 104.76562,0 0,14.0625 z"
         style="font-style:normal;font-variant:normal;font-weight:normal;font-stretch:normal;font-size:180px;font-family:'Mangal Sample';-inkscape-font-specification:'Mangal Sample'"
         id="path3368" />
      <path
         d="m 384.40569,867.50586 0,0 z m 74.97071,26.01562 -6.94336,9.14063 q -29.17969,-23.20313 -43.76953,-31.20117 -26.54297,-14.41407 -52.64649,-14.41407 -13.97461,0 -23.73047,4.57032 -13.00781,6.06445 -13.00781,18.7207 0,6.67969 6.24023,9.58008 l 34.98047,0 0,14.0625 -26.63086,0 0,101.95313 -15.46875,0 0,-101.95313 -20.47851,0 0,-14.0625 9.05273,0 q -2.37304,-4.83399 -2.37304,-11.16211 0,-18.80859 16.61132,-28.56445 13.62305,-7.99805 33.75,-7.99805 49.57032,0 104.41407,51.32812 z m -74.97071,104.85352 0,0 z"
         style="font-style:normal;font-variant:normal;font-weight:normal;font-stretch:normal;font-size:180px;font-family:'Mangal Sample';-inkscape-font-specification:'Mangal Sample'"
         id="path3370" />
      <path
         d="m 480.20647,903.98047 -25.04882,0 0,101.95313 -15.46875,0 0,-56.51368 -44.29688,0 q -8.34961,0 -13.35937,4.92188 -5.00977,4.92187 -5.00977,13.00781 0,11.25 9.05273,21.70898 2.10938,2.54883 17.66602,16.43551 l -12.12891,10.459 q -30.05859,-27.15818 -30.05859,-47.5488 0,-15.11719 8.17383,-24.08203 8.26172,-8.96485 23.29101,-8.96485 l 46.66993,0 0,-31.37695 -85.51758,0 0,-14.0625 126.03515,0 0,14.0625 z m -64.24804,107.57813 0,0 z m 0,-115.22462 0,0 z m 31.46484,0 0,0 z m 0,102.04102 0,0 z"
         style="font-style:normal;font-variant:normal;font-weight:normal;font-stretch:normal;font-size:180px;font-family:'Mangal Sample';-inkscape-font-specification:'Mangal Sample'"
         id="path3372" />
      <path
         d="m 489.61077,1039.1563 -7.20703,9.58 -45.70313,-20.4785 7.20704,-9.1406 45.70312,20.0391 z"
         style="font-style:normal;font-variant:normal;font-weight:normal;font-stretch:normal;font-size:180px;font-family:'Mangal Sample';-inkscape-font-specification:'Mangal Sample'"
         id="path3374" />
      <path
         d="m 602.37444,903.98047 -26.80664,0 0,101.95313 -15.46875,0 0,-31.28907 q -13.88672,8.87695 -30.58594,8.87695 -27.33398,0 -47.98828,-34.10156 2.46094,-3.7793 6.50391,-9.49219 4.83398,1.84571 9.4043,1.84571 8.96484,0 14.32617,-5.00977 5.36133,-5.09765 5.36133,-13.71094 0,-5.53711 -4.30664,-12.04101 -4.65821,-7.03125 -9.75586,-7.03125 l -29.00391,0 0,-14.0625 128.32031,0 0,14.0625 z m -67.14843,94.39453 0,0 z m 0,-102.04102 0,0 z m 24.87304,60.46875 0,-52.82226 -34.98047,0 q 7.82227,7.99805 7.82227,19.24805 0,12.74414 -9.05274,21.97265 -9.05273,9.14063 -21.97265,9.14063 3.51562,5.53711 11.86523,9.66797 8.34961,4.04296 15.90821,4.04296 16.25976,0 30.41015,-11.25 z m 7.73438,-60.46875 0,0 z m 0,102.04102 0,0 z"
         style="font-style:normal;font-variant:normal;font-weight:normal;font-stretch:normal;font-size:180px;font-family:'Mangal Sample';-inkscape-font-specification:'Mangal Sample'"
         id="path3376" />
      <path
         d="m 743.17522,889.91797 0,14.0625 -68.99414,0 0,37.35351 q 3.25196,-2.8125 6.15235,-4.74609 2.90039,-1.93359 5.71289,-3.16406 2.90039,-1.23047 5.80078,-1.75781 2.98828,-0.52735 6.32812,-0.52735 6.41602,0 11.60157,2.19727 5.27343,2.10937 8.87695,6.06445 3.60352,3.95508 5.53711,9.58008 2.02148,5.53711 2.02148,12.39258 0,4.6582 -1.14257,9.3164 -1.05469,4.57032 -2.98829,8.96485 -1.8457,4.30664 -4.39453,8.17382 -2.46093,3.86719 -5.18554,6.85547 l -9.58008,-11.86523 q 1.66992,-1.75781 3.33984,-4.39453 1.66992,-2.72461 2.98828,-5.625 1.31836,-2.98828 2.10938,-6.06446 0.8789,-3.07617 0.8789,-5.625 0,-4.48242 -1.58203,-7.55859 -1.58203,-3.16406 -3.95508,-5.09766 -2.28515,-1.93359 -4.92187,-2.7246 -2.54883,-0.87891 -4.57031,-0.87891 -3.60352,0 -6.50391,1.05469 -2.90039,0.96679 -5.625,2.8125 -2.63672,1.75781 -5.27344,4.30664 -2.63672,2.46093 -5.625,5.44922 l 0,47.46094 -15.46875,0 0,-37.35352 q -2.10937,1.49414 -5.09765,3.33984 -2.98828,1.75781 -6.50391,3.33985 -3.42773,1.49414 -7.29492,2.54882 -3.86719,0.9668 -7.73438,0.9668 -8.61328,0 -14.50195,-2.63672 -5.80078,-2.63672 -9.4043,-6.76758 -3.60351,-4.13086 -5.18554,-9.14062 -1.58203,-5.00977 -1.58203,-9.75586 0,-6.15234 2.28515,-11.25 2.37305,-5.09766 6.5918,-8.78906 4.21875,-3.69141 10.10742,-5.71289 5.88867,-2.10938 12.91992,-2.10938 4.7461,0 8.61328,0.79102 3.95508,0.79101 7.11914,1.8457 3.16407,1.05469 5.53711,2.19727 2.46094,1.14257 4.13086,1.8457 l 0,-25.3125 -62.66601,0 0,-14.0625 147.1289,0 z m -84.46289,54.93164 q -1.58203,-0.87891 -3.95507,-2.28516 -2.28516,-1.40625 -5.44922,-2.63672 -3.16407,-1.31836 -7.11914,-2.19726 -3.95508,-0.9668 -8.87696,-0.9668 -16.69922,0 -16.69922,12.74414 0,7.38281 4.21875,11.25 4.30664,3.7793 11.25,3.7793 3.42774,0 7.20704,-1.40625 3.86718,-1.40625 7.38281,-3.33984 3.60351,-2.02149 6.76758,-4.21875 3.16406,-2.28516 5.27343,-3.86719 l 0,-6.85547 z"
         style="font-style:normal;font-variant:normal;font-weight:normal;font-stretch:normal;font-size:180px;font-family:'Mangal Sample';-inkscape-font-specification:'Mangal Sample'"
         id="path3378" />
      <path
         d="m 726.21233,896.33398 0,0 z m 64.07227,7.64649 -26.80664,0 0,101.95313 -15.46875,0 0,-101.95313 -10.98633,0 0,-14.0625 53.26172,0 0,14.0625 z m -64.07227,94.39453 0,0 z m 28.38868,-102.04102 0,0 z"
         style="font-style:normal;font-variant:normal;font-weight:normal;font-stretch:normal;font-size:180px;font-family:'Mangal Sample';-inkscape-font-specification:'Mangal Sample'"
         id="path3380" />
      <path
         d="m 874.83538,903.98047 -36.03516,0 0,25.83984 q 0,14.94141 -2.37304,22.06055 -4.13086,12.30469 -15.9961,12.30469 l 35.41993,41.48435 -11.95313,10.1074 -56.33789,-65.74214 12.04102,-10.01954 9.58007,11.25 q 0.70313,0.79102 2.8125,0.79102 11.33789,0 11.33789,-18.01758 l 0,-30.05859 -39.19921,0 0,-14.0625 90.70312,0 0,14.0625 z m -48.33984,94.39453 0,0 z m 4.57031,-102.04102 0,0 z m -4.57031,0 0,0 z"
         style="font-style:normal;font-variant:normal;font-weight:normal;font-stretch:normal;font-size:180px;font-family:'Mangal Sample';-inkscape-font-specification:'Mangal Sample'"
         id="path3382" />
    </g>
  </g>
</svg>
