<?xml version="1.0" encoding="UTF-8" standalone="no"?>
<!-- Created with Inkscape (http://www.inkscape.org/) -->

<svg
   xmlns:dc="http://purl.org/dc/elements/1.1/"
   xmlns:cc="http://creativecommons.org/ns#"
   xmlns:rdf="http://www.w3.org/1999/02/22-rdf-syntax-ns#"
   xmlns:svg="http://www.w3.org/2000/svg"
   xmlns="http://www.w3.org/2000/svg"
   xmlns:sodipodi="http://sodipodi.sourceforge.net/DTD/sodipodi-0.dtd"
   xmlns:inkscape="http://www.inkscape.org/namespaces/inkscape"
   width="320mm"
   height="60mm"
   viewBox="0 0 1133.8582 212.59842"
   id="svg2"
   version="1.1"
   inkscape:version="0.91 r13725"
   sodipodi:docname="tamil eluttaalar (writer) good.svg">
  <defs
     id="defs4" />
  <sodipodi:namedview
     id="base"
     pagecolor="#ffffff"
     bordercolor="#666666"
     borderopacity="1.0"
     inkscape:pageopacity="0.0"
     inkscape:pageshadow="2"
     inkscape:zoom="1.4"
     inkscape:cx="549.89397"
     inkscape:cy="135.3256"
     inkscape:document-units="px"
     inkscape:current-layer="layer1"
     showgrid="false"
     inkscape:window-width="1920"
     inkscape:window-height="1027"
     inkscape:window-x="-8"
     inkscape:window-y="-8"
     inkscape:window-maximized="1" />
  <metadata
     id="metadata7">
    <rdf:RDF>
      <cc:Work
         rdf:about="">
        <dc:format>image/svg+xml</dc:format>
        <dc:type
           rdf:resource="http://purl.org/dc/dcmitype/StillImage" />
        <dc:title></dc:title>
      </cc:Work>
    </rdf:RDF>
  </metadata>
  <g
     inkscape:label="Layer 1"
     inkscape:groupmode="layer"
     id="layer1"
     transform="translate(0,-839.76378)">
    <g
       style="font-style:normal;font-weight:normal;font-size:40px;line-height:125%;font-family:sans-serif;letter-spacing:0px;word-spacing:0px;fill:#000000;fill-opacity:1;stroke:none;stroke-width:1px;stroke-linecap:butt;stroke-linejoin:miter;stroke-opacity:1"
       id="text3336">
      <path
         d="m 117.52093,911.50562 0,92.28518 -14.41407,0 0,-92.28518 -19.335933,0 q -12.65625,0 -23.203125,2.28515 -10.458984,2.19727 -18.017578,7.29492 -7.558594,5.00977 -11.777344,13.27149 -4.130859,8.26172 -4.130859,20.30273 0,1.58203 0.08789,3.60352 0.08789,1.93359 0.527344,3.77929 l 0.527344,0 q 1.230469,-3.42773 3.515625,-6.24023 2.373047,-2.90039 5.537109,-4.83398 3.164063,-2.02149 7.03125,-3.07618 3.867188,-1.14257 8.173828,-1.14257 5.888672,0 10.986328,2.02148 5.097657,2.02148 8.789063,5.80078 3.779297,3.69141 5.888672,8.96485 2.109375,5.18554 2.109375,11.51367 0,6.59179 -2.109375,12.21679 -2.109375,5.53711 -6.064453,9.66797 -3.955078,4.1309 -9.580078,6.5039 -5.53711,2.2852 -12.480469,2.2852 -6.240235,0 -11.425781,-2.0215 -5.185547,-2.0215 -9.316407,-5.53713 -4.042968,-3.60351 -7.11914,-8.34961 -3.076172,-4.83398 -5.097657,-10.37109 -2.021484,-5.53711 -3.076171,-11.51367 -0.966797,-5.97657 -0.966797,-11.86524 0,-15.9082 5.361328,-26.89453 5.361328,-10.98633 14.853515,-17.75391 9.492188,-6.85546 22.41211,-9.84375 13.007812,-2.98828 28.125,-2.98828 l 61.435546,0 0,12.91993 -27.24609,0 z m -52.119144,64.5996 q 0,-3.51562 -1.054687,-6.59179 -1.054688,-3.16406 -3.164063,-5.44922 -2.021484,-2.37305 -5.009765,-3.69141 -2.988282,-1.31836 -6.767578,-1.31836 -3.779297,0 -6.94336,1.31836 -3.076172,1.23047 -5.361328,3.51563 -2.197266,2.28515 -3.515625,5.36133 -1.230469,3.07617 -1.230469,6.67968 0,3.95508 1.230469,7.20703 1.318359,3.25196 3.515625,5.625 2.285156,2.37305 5.273438,3.69141 3.076171,1.23047 6.679687,1.23047 3.339844,0 6.240234,-1.05469 2.988282,-1.05469 5.185547,-3.25195 2.285157,-2.19727 3.603516,-5.44922 1.318359,-3.33984 1.318359,-7.82227 z"
         style="font-style:normal;font-variant:normal;font-weight:normal;font-stretch:normal;font-size:180px;font-family:'Nirmala UI';-inkscape-font-specification:'Nirmala UI'"
         id="path3341" />
      <path
         d="m 351.83733,958.17554 q 0,9.84375 -1.49414,18.7207 -1.49414,8.78906 -3.95508,16.34766 l -62.05078,0 0,11.25 q 2.90039,-2.2852 6.67969,-3.6035 3.7793,-1.40627 8.17383,-1.40627 3.86719,0 7.38281,1.14257 3.60352,1.1426 6.32813,3.3399 2.72461,2.1972 4.30664,5.4492 1.66992,3.3398 1.66992,7.6465 0,6.0644 -3.60352,11.0742 -3.51562,5.0097 -10.98632,8.5254 -7.38282,3.6035 -18.98438,5.5371 -11.51367,1.9336 -27.59766,1.9336 -17.84179,0 -33.92578,-3.6035 -16.08398,-3.6036 -29.09179,-11.0743 -7.91016,-4.5703 -14.41407,-11.0742 -6.5039,-6.5039 -11.25,-14.7656 -4.6582,-8.34962 -7.29492,-18.45704 -2.54883,-10.10742 -2.54883,-21.88477 0,-19.59961 6.76758,-35.94726 6.85547,-16.34766 19.51172,-28.65235 l 15.11719,4.21875 q -13.35938,11.25 -20.21485,26.45508 -6.76757,15.11719 -6.76757,33.39844 0,9.75586 1.75781,17.92969 1.75781,8.08593 5.27344,14.9414 3.60351,6.76756 8.87695,12.39256 5.36133,5.625 12.48047,10.2832 5.27344,3.4278 11.68945,5.8887 6.50391,2.5488 13.62305,4.1309 7.11914,1.6699 14.50195,2.4609 7.38281,0.791 14.50195,0.791 12.91993,0 22.06055,-1.0547 9.22852,-0.9668 15.0293,-2.9004 5.80078,-1.8457 8.52539,-4.5703 2.72461,-2.7246 2.72461,-6.0644 0,-3.3399 -2.37305,-5.2735 -2.28516,-1.9336 -6.06445,-1.9336 -5.09766,0 -8.4375,2.5489 -3.33985,2.6367 -3.42774,6.7675 l 0,2.1973 -14.41406,0 0,-28.0371 -58.35937,0 0,-94.65821 14.32617,0 0,81.73828 44.0332,0 0,-46.8457 q 0,-10.10742 2.10938,-16.96289 2.19726,-6.85547 6.94336,-11.42578 4.21875,-4.21875 10.54687,-6.24023 6.41602,-2.10938 14.15039,-2.10938 13.27149,0 22.41211,5.00977 9.22852,4.92187 14.94141,13.35937 5.71289,8.4375 8.26172,19.59961 2.54882,11.07422 2.54882,23.4668 z m -14.85351,0.61523 q 0,-9.84375 -1.49414,-18.63281 -1.40625,-8.87695 -5.18555,-15.55664 -3.7793,-6.76758 -10.19531,-10.72266 -6.41602,-3.95508 -16.34766,-3.95508 -5.36133,0 -9.05273,1.49414 -3.69141,1.40625 -6.06446,4.48243 -2.28515,2.98828 -3.33984,7.73437 -0.9668,4.6582 -0.9668,11.07422 l 0,45.52734 49.83399,0 q 1.49414,-5.00976 2.10937,-10.2832 0.70313,-5.36133 0.70313,-11.16211 z"
         style="font-style:normal;font-variant:normal;font-weight:normal;font-stretch:normal;font-size:180px;font-family:'Nirmala UI';-inkscape-font-specification:'Nirmala UI'"
         id="path3343" />
      <path
         d="m 510.04046,980.85132 q 0,11.51367 -4.21875,20.30278 -4.21875,8.789 -12.04102,14.6777 -7.82226,5.9765 -19.07226,8.9648 -11.16211,3.0762 -25.22461,3.0762 -13.62305,0 -26.63086,-0.088 -13.00781,0 -25.3125,0 -5.27344,0 -7.4707,1.2305 -2.10938,1.3183 -2.10938,4.6582 0,2.0215 0.43945,3.9551 0.52735,1.9336 1.49414,3.8671 l -12.91992,0 q -0.96679,-2.1972 -1.75781,-4.8339 -0.70313,-2.5489 -0.70313,-5.2735 0,-8.3496 5.44922,-12.3047 5.44922,-3.955 15.9961,-3.955 5.09765,0 11.68945,0 6.5918,0 13.79883,0 7.20703,0.088 14.58984,0.088 7.47071,0 14.23828,0 3.07618,0 5.88868,-0.088 2.90039,-0.088 5.5371,-0.4395 7.91016,-1.1426 14.0625,-3.8672 6.24024,-2.6367 10.54688,-6.8554 4.30664,-4.13091 6.50391,-9.66802 2.28515,-5.625 2.28515,-12.56836 0,-7.11914 -2.02148,-11.86523 -1.9336,-4.83398 -5.44922,-7.73437 -3.42774,-2.98829 -8.26172,-4.21875 -4.83398,-1.31836 -10.45898,-1.31836 l -10.45899,0 0,8.87695 q 0,10.98633 -2.90039,18.45703 -2.8125,7.38281 -8.61328,12.48047 -5.27344,4.57034 -12.83203,6.94334 -7.5586,2.3731 -17.22656,2.3731 -9.93164,0 -17.49024,-2.5489 -7.55859,-2.6367 -12.65625,-7.1191 -5.00976,-4.48243 -7.55859,-10.45899 -2.54883,-5.97656 -2.54883,-12.74414 0,-11.51367 5.88867,-18.54492 5.97656,-7.03125 15.9961,-9.31641 l 0,-46.40625 100.01953,0 0,12.91993 -40.07813,0 0,32.25585 9.84375,0 q 9.49219,0 17.13867,2.10938 7.73438,2.10937 13.1836,6.5918 5.44922,4.48242 8.4375,11.51367 2.98828,7.03125 2.98828,16.875 z m -66.00586,-24.25781 -31.81641,0 q -10.10742,0 -15.38086,3.6914 -5.27343,3.69141 -5.27343,12.2168 0,4.39453 1.58203,8.08594 1.66992,3.6914 4.92187,6.32812 3.25196,2.63672 8.08594,4.13086 4.83398,1.49414 11.25,1.49414 13.53516,0 20.03906,-6.41601 6.5918,-6.50391 6.5918,-20.74219 l 0,-8.78906 z m 0,-45.08789 -31.20117,0 0,32.25585 31.20117,0 0,-32.25585 z"
         style="font-style:normal;font-variant:normal;font-weight:normal;font-stretch:normal;font-size:180px;font-family:'Nirmala UI';-inkscape-font-specification:'Nirmala UI'"
         id="path3345" />
      <path
         d="m 464.24944,865.01147 q 0,2.72461 -0.96679,5.09766 -1.05469,2.37305 -2.8125,4.13086 -1.75782,1.75781 -4.13086,2.8125 -2.37305,0.9668 -5.09766,0.9668 -2.72461,0 -5.09766,-0.9668 -2.37304,-1.05469 -4.13086,-2.8125 -1.75781,-1.75781 -2.7246,-4.13086 -1.05469,-2.37305 -1.05469,-5.09766 0,-2.7246 1.05469,-5.09765 0.96679,-2.46094 2.7246,-4.21875 1.75782,-1.75781 4.13086,-2.8125 2.37305,-1.05469 5.09766,-1.05469 2.72461,0 5.09766,1.05469 2.37304,1.05469 4.13086,2.8125 1.75781,1.75781 2.8125,4.21875 0.96679,2.37305 0.96679,5.09765 z"
         style="font-style:normal;font-variant:normal;font-weight:normal;font-stretch:normal;font-size:180px;font-family:'Nirmala UI';-inkscape-font-specification:'Nirmala UI'"
         id="path3347" />
      <path
         d="m 666.48577,980.85132 q 0,11.51367 -4.21875,20.30278 -4.21875,8.789 -12.04101,14.6777 -7.82227,5.9765 -19.07227,8.9648 -11.16211,3.0762 -25.22461,3.0762 -13.62305,0 -26.63086,-0.088 -13.00781,0 -25.3125,0 -5.27344,0 -7.4707,1.2305 -2.10938,1.3183 -2.10938,4.6582 0,2.0215 0.43946,3.9551 0.52734,1.9336 1.49414,3.8671 l -12.91993,0 q -0.96679,-2.1972 -1.75781,-4.8339 -0.70312,-2.5489 -0.70312,-5.2735 0,-8.3496 5.44922,-12.3047 5.44921,-3.955 15.99609,-3.955 5.09766,0 11.68945,0 6.5918,0 13.79883,0 7.20703,0.088 14.58984,0.088 7.47071,0 14.23829,0 3.07617,0 5.88867,-0.088 2.90039,-0.088 5.53711,-0.4395 7.91015,-1.1426 14.0625,-3.8672 6.24023,-2.6367 10.54687,-6.8554 4.30664,-4.13091 6.50391,-9.66802 2.28515,-5.625 2.28515,-12.56836 0,-7.11914 -2.02148,-11.86523 -1.93359,-4.83398 -5.44922,-7.73437 -3.42773,-2.98829 -8.26172,-4.21875 -4.83398,-1.31836 -10.45898,-1.31836 l -10.45899,0 0,8.87695 q 0,10.98633 -2.90039,18.45703 -2.8125,7.38281 -8.61328,12.48047 -5.27344,4.57034 -12.83203,6.94334 -7.55859,2.3731 -17.22656,2.3731 -9.93164,0 -17.49024,-2.5489 -7.55859,-2.6367 -12.65625,-7.1191 -5.00976,-4.48243 -7.55859,-10.45899 -2.54883,-5.97656 -2.54883,-12.74414 0,-11.51367 5.88867,-18.54492 5.97657,-7.03125 15.9961,-9.31641 l 0,-46.40625 100.01953,0 0,12.91993 -40.07813,0 0,32.25585 9.84375,0 q 9.49219,0 17.13868,2.10938 7.73437,2.10937 13.18359,6.5918 5.44922,4.48242 8.4375,11.51367 2.98828,7.03125 2.98828,16.875 z m -66.00586,-24.25781 -31.8164,0 q -10.10743,0 -15.38086,3.6914 -5.27344,3.69141 -5.27344,12.2168 0,4.39453 1.58203,8.08594 1.66992,3.6914 4.92187,6.32812 3.25196,2.63672 8.08594,4.13086 4.83399,1.49414 11.25,1.49414 13.53516,0 20.03906,-6.41601 6.5918,-6.50391 6.5918,-20.74219 l 0,-8.78906 z m 0,-45.08789 -31.20117,0 0,32.25585 31.20117,0 0,-32.25585 z"
         style="font-style:normal;font-variant:normal;font-weight:normal;font-stretch:normal;font-size:180px;font-family:'Nirmala UI';-inkscape-font-specification:'Nirmala UI'"
         id="path3349" />
      <path
         d="m 768.79046,911.50562 0,92.28518 -14.41406,0 0,-92.28518 -43.41797,0 0,92.28518 -14.41407,0 0,-105.20511 99.58008,0 0,12.91993 -27.33398,0 z"
         style="font-style:normal;font-variant:normal;font-weight:normal;font-stretch:normal;font-size:180px;font-family:'Nirmala UI';-inkscape-font-specification:'Nirmala UI'"
         id="path3351" />
      <path
         d="m 954.59124,911.50562 0,92.28518 -14.41406,0 0,-92.28518 -37.17774,0 0,92.28518 -14.41406,0 0,-48.33987 q 0,-10.63477 -1.8457,-18.63281 -1.75782,-8.08594 -6.24024,-14.58985 -4.04297,-6.06445 -10.10742,-9.14062 -5.97656,-3.16407 -13.71094,-3.16407 -8.08593,0 -14.58984,3.25196 -6.50391,3.25195 -11.07422,9.14062 -4.57031,5.88867 -7.11914,14.0625 -2.46094,8.17383 -2.46094,17.92969 0,1.66992 0.0879,3.69141 0.17578,2.02148 0.61524,4.04296 l 0.52734,0 q 1.31836,-3.42773 3.60352,-6.24023 2.28515,-2.90039 5.44922,-4.83398 3.16406,-2.02149 6.94336,-3.07618 3.86718,-1.14257 8.26171,-1.14257 5.88868,0 10.98633,2.02148 5.09766,2.02148 8.78906,5.80078 3.7793,3.69141 5.88868,8.96485 2.10937,5.18554 2.10937,11.51367 0,6.59179 -2.10937,12.21679 -2.10938,5.53711 -6.06446,9.66797 -3.95507,4.1309 -9.58007,6.5039 -5.53711,2.2852 -12.48047,2.2852 -6.15235,0 -11.33789,-2.0215 -5.09766,-2.0215 -9.22852,-5.53713 -4.13086,-3.60351 -7.20703,-8.4375 -3.07617,-4.83398 -5.18555,-10.37109 -2.02148,-5.625 -3.07617,-11.68946 -0.9668,-6.15234 -0.9668,-12.30468 0,-13.71094 3.7793,-24.60938 3.7793,-10.89844 10.37109,-18.45703 6.67969,-7.55859 15.73243,-11.51367 9.14062,-4.04297 19.6875,-4.04297 5.71289,0 10.72265,1.31836 5.00977,1.23047 9.14063,3.60352 4.13086,2.28515 7.4707,5.5371 3.33984,3.25196 5.71289,7.11915 l 0.43945,0 0,-15.73243 89.20899,0 0,12.91993 -25.13672,0 z m -94.30664,64.5996 q 0,-3.51562 -1.05469,-6.59179 -1.05469,-3.16406 -3.16406,-5.44922 -2.02149,-2.37305 -5.00977,-3.69141 -2.98828,-1.31836 -6.76757,-1.31836 -3.7793,0 -6.94336,1.31836 -3.07618,1.23047 -5.36133,3.51563 -2.19727,2.28515 -3.51563,5.36133 -1.23047,3.07617 -1.23047,6.67968 0,3.95508 1.23047,7.20703 1.31836,3.25196 3.51563,5.625 2.28515,2.37305 5.27344,3.69141 3.07617,1.23047 6.67968,1.23047 3.33985,0 6.24024,-1.05469 2.98828,-1.05469 5.18554,-3.25195 2.28516,-2.19727 3.60352,-5.44922 1.31836,-3.33984 1.31836,-7.82227 z"
         style="font-style:normal;font-variant:normal;font-weight:normal;font-stretch:normal;font-size:180px;font-family:'Nirmala UI';-inkscape-font-specification:'Nirmala UI'"
         id="path3353" />
      <path
         d="m 1080.0991,911.50562 0,91.66988 -51.8555,37.4414 -7.8223,-10.2832 45.2637,-32.51949 0,-86.30859 -43.2422,0 0,92.28518 -14.4141,0 0,-105.20511 99.3164,0 0,12.91993 -27.246,0 z"
         style="font-style:normal;font-variant:normal;font-weight:normal;font-stretch:normal;font-size:180px;font-family:'Nirmala UI';-inkscape-font-specification:'Nirmala UI'"
         id="path3355" />
      <path
         d="m 1071.4858,865.01147 q 0,2.72461 -0.9668,5.09766 -1.0547,2.37305 -2.8125,4.13086 -1.7578,1.75781 -4.1309,2.8125 -2.373,0.9668 -5.0976,0.9668 -2.7247,0 -5.0977,-0.9668 -2.373,-1.05469 -4.1309,-2.8125 -1.7578,-1.75781 -2.7246,-4.13086 -1.0547,-2.37305 -1.0547,-5.09766 0,-2.7246 1.0547,-5.09765 0.9668,-2.46094 2.7246,-4.21875 1.7579,-1.75781 4.1309,-2.8125 2.373,-1.05469 5.0977,-1.05469 2.7246,0 5.0976,1.05469 2.3731,1.05469 4.1309,2.8125 1.7578,1.75781 2.8125,4.21875 0.9668,2.37305 0.9668,5.09765 z"
         style="font-style:normal;font-variant:normal;font-weight:normal;font-stretch:normal;font-size:180px;font-family:'Nirmala UI';-inkscape-font-specification:'Nirmala UI'"
         id="path3357" />
    </g>
  </g>
</svg>
